M48
;DRILL file {KiCad 5.0-dev-unknown-28f1209~61~ubuntu16.04.1} date Sat Feb 17 18:06:37 2018
;FORMAT={-:-/ absolute / metric / decimal}
FMAT,2
METRIC,TZ
T1C0.300
%
G90
G05
M71
T1
X91.3Y-108.6
X91.3Y-110.4
X91.4Y-101.5
X91.6Y-102.5
X92.2Y-100.4
X92.5Y-104.
X92.5Y-107.8
X92.6Y-101.3
X93.4Y-102.5
X94.1Y-111.5
X94.2Y-106.6
X94.7Y-102.8
X95.9Y-107.8
X96.Y-109.4
X97.1Y-107.4
X97.6Y-110.6
X97.6Y-112.
X97.9Y-107.5
X98.3Y-111.4
X98.6Y-105.3
X98.8Y-108.9
X99.599Y-102.349
X100.1Y-110.2
X100.2Y-100.9
X100.75Y-105.5
X101.1Y-101.
X101.584Y-112.216
X102.6Y-110.4
X102.705Y-100.259
X103.Y-103.25
X103.Y-105.5
X103.Y-107.75
X103.4Y-101.3
X103.6Y-99.7
X105.25Y-105.5
X105.4Y-110.8
X106.9Y-111.4
X106.9Y-110.2
X107.1Y-102.4
X107.3Y-104.4
X108.1Y-99.7
X108.9Y-104.1
X110.3Y-106.8
X110.4Y-101.2
X110.4Y-108.8
X114.4Y-101.65
X114.7Y-107.2
X114.8Y-112.3
X114.826Y-104.626
X115.076Y-109.376
X118.8Y-99.7
X118.8Y-102.1
X118.8Y-104.8
X118.8Y-107.2
X118.8Y-109.8
X118.8Y-112.3
T0
M30
