G04 #@! TF.GenerationSoftware,KiCad,Pcbnew,5.0-dev-unknown-28f1209~61~ubuntu16.04.1*
G04 #@! TF.CreationDate,2018-02-17T17:57:14+01:00*
G04 #@! TF.ProjectId,ubmp_v1r1,75626D705F763172312E6B696361645F,rev?*
G04 #@! TF.SameCoordinates,Original*
G04 #@! TF.FileFunction,Paste,Top*
G04 #@! TF.FilePolarity,Positive*
%FSLAX46Y46*%
G04 Gerber Fmt 4.6, Leading zero omitted, Abs format (unit mm)*
G04 Created by KiCad (PCBNEW 5.0-dev-unknown-28f1209~61~ubuntu16.04.1) date Sat Feb 17 17:57:14 2018*
%MOMM*%
%LPD*%
G01*
G04 APERTURE LIST*
%ADD10O,0.250000X0.700000*%
%ADD11O,0.700000X0.250000*%
%ADD12R,1.500000X1.500000*%
%ADD13C,0.100000*%
%ADD14C,0.650000*%
%ADD15C,0.575000*%
%ADD16C,0.670000*%
%ADD17O,0.400000X1.900000*%
G04 APERTURE END LIST*
D10*
X100250000Y-108900000D03*
X100750000Y-108900000D03*
X101250000Y-108900000D03*
X101750000Y-108900000D03*
X102250000Y-108900000D03*
X102750000Y-108900000D03*
X103250000Y-108900000D03*
X103750000Y-108900000D03*
X104250000Y-108900000D03*
X104750000Y-108900000D03*
X105250000Y-108900000D03*
X105750000Y-108900000D03*
D11*
X106400000Y-108250000D03*
X106400000Y-107750000D03*
X106400000Y-107250000D03*
X106400000Y-106750000D03*
X106400000Y-106250000D03*
X106400000Y-105750000D03*
X106400000Y-105250000D03*
X106400000Y-104750000D03*
X106400000Y-104250000D03*
X106400000Y-103750000D03*
X106400000Y-103250000D03*
X106400000Y-102750000D03*
D10*
X105750000Y-102100000D03*
X105250000Y-102100000D03*
X104750000Y-102100000D03*
X104250000Y-102100000D03*
X103750000Y-102100000D03*
X103250000Y-102100000D03*
X102750000Y-102100000D03*
X102250000Y-102100000D03*
X101750000Y-102100000D03*
X101250000Y-102100000D03*
X100750000Y-102100000D03*
X100250000Y-102100000D03*
D11*
X99600000Y-102750000D03*
X99600000Y-103250000D03*
X99600000Y-103750000D03*
X99600000Y-104250000D03*
X99600000Y-104750000D03*
X99600000Y-105250000D03*
X99600000Y-105750000D03*
X99600000Y-106250000D03*
X99600000Y-106750000D03*
X99600000Y-107250000D03*
X99600000Y-107750000D03*
X99600000Y-108250000D03*
D12*
X104030000Y-106530000D03*
X104030000Y-104470000D03*
X101970000Y-106530000D03*
X101970000Y-104470000D03*
D13*
G36*
X93478428Y-107370782D02*
X93494202Y-107373122D01*
X93509671Y-107376997D01*
X93524686Y-107382370D01*
X93539102Y-107389188D01*
X93552780Y-107397386D01*
X93565589Y-107406886D01*
X93577405Y-107417595D01*
X93588114Y-107429411D01*
X93597614Y-107442220D01*
X93605812Y-107455898D01*
X93612630Y-107470314D01*
X93618003Y-107485329D01*
X93621878Y-107500798D01*
X93624218Y-107516572D01*
X93625000Y-107532500D01*
X93625000Y-108267500D01*
X93624218Y-108283428D01*
X93621878Y-108299202D01*
X93618003Y-108314671D01*
X93612630Y-108329686D01*
X93605812Y-108344102D01*
X93597614Y-108357780D01*
X93588114Y-108370589D01*
X93577405Y-108382405D01*
X93565589Y-108393114D01*
X93552780Y-108402614D01*
X93539102Y-108410812D01*
X93524686Y-108417630D01*
X93509671Y-108423003D01*
X93494202Y-108426878D01*
X93478428Y-108429218D01*
X93462500Y-108430000D01*
X93137500Y-108430000D01*
X93121572Y-108429218D01*
X93105798Y-108426878D01*
X93090329Y-108423003D01*
X93075314Y-108417630D01*
X93060898Y-108410812D01*
X93047220Y-108402614D01*
X93034411Y-108393114D01*
X93022595Y-108382405D01*
X93011886Y-108370589D01*
X93002386Y-108357780D01*
X92994188Y-108344102D01*
X92987370Y-108329686D01*
X92981997Y-108314671D01*
X92978122Y-108299202D01*
X92975782Y-108283428D01*
X92975000Y-108267500D01*
X92975000Y-107532500D01*
X92975782Y-107516572D01*
X92978122Y-107500798D01*
X92981997Y-107485329D01*
X92987370Y-107470314D01*
X92994188Y-107455898D01*
X93002386Y-107442220D01*
X93011886Y-107429411D01*
X93022595Y-107417595D01*
X93034411Y-107406886D01*
X93047220Y-107397386D01*
X93060898Y-107389188D01*
X93075314Y-107382370D01*
X93090329Y-107376997D01*
X93105798Y-107373122D01*
X93121572Y-107370782D01*
X93137500Y-107370000D01*
X93462500Y-107370000D01*
X93478428Y-107370782D01*
X93478428Y-107370782D01*
G37*
D14*
X93300000Y-107900000D03*
D13*
G36*
X94428428Y-107370782D02*
X94444202Y-107373122D01*
X94459671Y-107376997D01*
X94474686Y-107382370D01*
X94489102Y-107389188D01*
X94502780Y-107397386D01*
X94515589Y-107406886D01*
X94527405Y-107417595D01*
X94538114Y-107429411D01*
X94547614Y-107442220D01*
X94555812Y-107455898D01*
X94562630Y-107470314D01*
X94568003Y-107485329D01*
X94571878Y-107500798D01*
X94574218Y-107516572D01*
X94575000Y-107532500D01*
X94575000Y-108267500D01*
X94574218Y-108283428D01*
X94571878Y-108299202D01*
X94568003Y-108314671D01*
X94562630Y-108329686D01*
X94555812Y-108344102D01*
X94547614Y-108357780D01*
X94538114Y-108370589D01*
X94527405Y-108382405D01*
X94515589Y-108393114D01*
X94502780Y-108402614D01*
X94489102Y-108410812D01*
X94474686Y-108417630D01*
X94459671Y-108423003D01*
X94444202Y-108426878D01*
X94428428Y-108429218D01*
X94412500Y-108430000D01*
X94087500Y-108430000D01*
X94071572Y-108429218D01*
X94055798Y-108426878D01*
X94040329Y-108423003D01*
X94025314Y-108417630D01*
X94010898Y-108410812D01*
X93997220Y-108402614D01*
X93984411Y-108393114D01*
X93972595Y-108382405D01*
X93961886Y-108370589D01*
X93952386Y-108357780D01*
X93944188Y-108344102D01*
X93937370Y-108329686D01*
X93931997Y-108314671D01*
X93928122Y-108299202D01*
X93925782Y-108283428D01*
X93925000Y-108267500D01*
X93925000Y-107532500D01*
X93925782Y-107516572D01*
X93928122Y-107500798D01*
X93931997Y-107485329D01*
X93937370Y-107470314D01*
X93944188Y-107455898D01*
X93952386Y-107442220D01*
X93961886Y-107429411D01*
X93972595Y-107417595D01*
X93984411Y-107406886D01*
X93997220Y-107397386D01*
X94010898Y-107389188D01*
X94025314Y-107382370D01*
X94040329Y-107376997D01*
X94055798Y-107373122D01*
X94071572Y-107370782D01*
X94087500Y-107370000D01*
X94412500Y-107370000D01*
X94428428Y-107370782D01*
X94428428Y-107370782D01*
G37*
D14*
X94250000Y-107900000D03*
D13*
G36*
X95378428Y-107370782D02*
X95394202Y-107373122D01*
X95409671Y-107376997D01*
X95424686Y-107382370D01*
X95439102Y-107389188D01*
X95452780Y-107397386D01*
X95465589Y-107406886D01*
X95477405Y-107417595D01*
X95488114Y-107429411D01*
X95497614Y-107442220D01*
X95505812Y-107455898D01*
X95512630Y-107470314D01*
X95518003Y-107485329D01*
X95521878Y-107500798D01*
X95524218Y-107516572D01*
X95525000Y-107532500D01*
X95525000Y-108267500D01*
X95524218Y-108283428D01*
X95521878Y-108299202D01*
X95518003Y-108314671D01*
X95512630Y-108329686D01*
X95505812Y-108344102D01*
X95497614Y-108357780D01*
X95488114Y-108370589D01*
X95477405Y-108382405D01*
X95465589Y-108393114D01*
X95452780Y-108402614D01*
X95439102Y-108410812D01*
X95424686Y-108417630D01*
X95409671Y-108423003D01*
X95394202Y-108426878D01*
X95378428Y-108429218D01*
X95362500Y-108430000D01*
X95037500Y-108430000D01*
X95021572Y-108429218D01*
X95005798Y-108426878D01*
X94990329Y-108423003D01*
X94975314Y-108417630D01*
X94960898Y-108410812D01*
X94947220Y-108402614D01*
X94934411Y-108393114D01*
X94922595Y-108382405D01*
X94911886Y-108370589D01*
X94902386Y-108357780D01*
X94894188Y-108344102D01*
X94887370Y-108329686D01*
X94881997Y-108314671D01*
X94878122Y-108299202D01*
X94875782Y-108283428D01*
X94875000Y-108267500D01*
X94875000Y-107532500D01*
X94875782Y-107516572D01*
X94878122Y-107500798D01*
X94881997Y-107485329D01*
X94887370Y-107470314D01*
X94894188Y-107455898D01*
X94902386Y-107442220D01*
X94911886Y-107429411D01*
X94922595Y-107417595D01*
X94934411Y-107406886D01*
X94947220Y-107397386D01*
X94960898Y-107389188D01*
X94975314Y-107382370D01*
X94990329Y-107376997D01*
X95005798Y-107373122D01*
X95021572Y-107370782D01*
X95037500Y-107370000D01*
X95362500Y-107370000D01*
X95378428Y-107370782D01*
X95378428Y-107370782D01*
G37*
D14*
X95200000Y-107900000D03*
D13*
G36*
X95378428Y-104970782D02*
X95394202Y-104973122D01*
X95409671Y-104976997D01*
X95424686Y-104982370D01*
X95439102Y-104989188D01*
X95452780Y-104997386D01*
X95465589Y-105006886D01*
X95477405Y-105017595D01*
X95488114Y-105029411D01*
X95497614Y-105042220D01*
X95505812Y-105055898D01*
X95512630Y-105070314D01*
X95518003Y-105085329D01*
X95521878Y-105100798D01*
X95524218Y-105116572D01*
X95525000Y-105132500D01*
X95525000Y-105867500D01*
X95524218Y-105883428D01*
X95521878Y-105899202D01*
X95518003Y-105914671D01*
X95512630Y-105929686D01*
X95505812Y-105944102D01*
X95497614Y-105957780D01*
X95488114Y-105970589D01*
X95477405Y-105982405D01*
X95465589Y-105993114D01*
X95452780Y-106002614D01*
X95439102Y-106010812D01*
X95424686Y-106017630D01*
X95409671Y-106023003D01*
X95394202Y-106026878D01*
X95378428Y-106029218D01*
X95362500Y-106030000D01*
X95037500Y-106030000D01*
X95021572Y-106029218D01*
X95005798Y-106026878D01*
X94990329Y-106023003D01*
X94975314Y-106017630D01*
X94960898Y-106010812D01*
X94947220Y-106002614D01*
X94934411Y-105993114D01*
X94922595Y-105982405D01*
X94911886Y-105970589D01*
X94902386Y-105957780D01*
X94894188Y-105944102D01*
X94887370Y-105929686D01*
X94881997Y-105914671D01*
X94878122Y-105899202D01*
X94875782Y-105883428D01*
X94875000Y-105867500D01*
X94875000Y-105132500D01*
X94875782Y-105116572D01*
X94878122Y-105100798D01*
X94881997Y-105085329D01*
X94887370Y-105070314D01*
X94894188Y-105055898D01*
X94902386Y-105042220D01*
X94911886Y-105029411D01*
X94922595Y-105017595D01*
X94934411Y-105006886D01*
X94947220Y-104997386D01*
X94960898Y-104989188D01*
X94975314Y-104982370D01*
X94990329Y-104976997D01*
X95005798Y-104973122D01*
X95021572Y-104970782D01*
X95037500Y-104970000D01*
X95362500Y-104970000D01*
X95378428Y-104970782D01*
X95378428Y-104970782D01*
G37*
D14*
X95200000Y-105500000D03*
D13*
G36*
X93478428Y-104970782D02*
X93494202Y-104973122D01*
X93509671Y-104976997D01*
X93524686Y-104982370D01*
X93539102Y-104989188D01*
X93552780Y-104997386D01*
X93565589Y-105006886D01*
X93577405Y-105017595D01*
X93588114Y-105029411D01*
X93597614Y-105042220D01*
X93605812Y-105055898D01*
X93612630Y-105070314D01*
X93618003Y-105085329D01*
X93621878Y-105100798D01*
X93624218Y-105116572D01*
X93625000Y-105132500D01*
X93625000Y-105867500D01*
X93624218Y-105883428D01*
X93621878Y-105899202D01*
X93618003Y-105914671D01*
X93612630Y-105929686D01*
X93605812Y-105944102D01*
X93597614Y-105957780D01*
X93588114Y-105970589D01*
X93577405Y-105982405D01*
X93565589Y-105993114D01*
X93552780Y-106002614D01*
X93539102Y-106010812D01*
X93524686Y-106017630D01*
X93509671Y-106023003D01*
X93494202Y-106026878D01*
X93478428Y-106029218D01*
X93462500Y-106030000D01*
X93137500Y-106030000D01*
X93121572Y-106029218D01*
X93105798Y-106026878D01*
X93090329Y-106023003D01*
X93075314Y-106017630D01*
X93060898Y-106010812D01*
X93047220Y-106002614D01*
X93034411Y-105993114D01*
X93022595Y-105982405D01*
X93011886Y-105970589D01*
X93002386Y-105957780D01*
X92994188Y-105944102D01*
X92987370Y-105929686D01*
X92981997Y-105914671D01*
X92978122Y-105899202D01*
X92975782Y-105883428D01*
X92975000Y-105867500D01*
X92975000Y-105132500D01*
X92975782Y-105116572D01*
X92978122Y-105100798D01*
X92981997Y-105085329D01*
X92987370Y-105070314D01*
X92994188Y-105055898D01*
X93002386Y-105042220D01*
X93011886Y-105029411D01*
X93022595Y-105017595D01*
X93034411Y-105006886D01*
X93047220Y-104997386D01*
X93060898Y-104989188D01*
X93075314Y-104982370D01*
X93090329Y-104976997D01*
X93105798Y-104973122D01*
X93121572Y-104970782D01*
X93137500Y-104970000D01*
X93462500Y-104970000D01*
X93478428Y-104970782D01*
X93478428Y-104970782D01*
G37*
D14*
X93300000Y-105500000D03*
D13*
G36*
X99395340Y-111363192D02*
X99409294Y-111365262D01*
X99422978Y-111368690D01*
X99436261Y-111373442D01*
X99449013Y-111379474D01*
X99461113Y-111386726D01*
X99472444Y-111395130D01*
X99482897Y-111404603D01*
X99492370Y-111415056D01*
X99500774Y-111426387D01*
X99508026Y-111438487D01*
X99514058Y-111451239D01*
X99518810Y-111464522D01*
X99522238Y-111478206D01*
X99524308Y-111492160D01*
X99525000Y-111506250D01*
X99525000Y-111793750D01*
X99524308Y-111807840D01*
X99522238Y-111821794D01*
X99518810Y-111835478D01*
X99514058Y-111848761D01*
X99508026Y-111861513D01*
X99500774Y-111873613D01*
X99492370Y-111884944D01*
X99482897Y-111895397D01*
X99472444Y-111904870D01*
X99461113Y-111913274D01*
X99449013Y-111920526D01*
X99436261Y-111926558D01*
X99422978Y-111931310D01*
X99409294Y-111934738D01*
X99395340Y-111936808D01*
X99381250Y-111937500D01*
X99018750Y-111937500D01*
X99004660Y-111936808D01*
X98990706Y-111934738D01*
X98977022Y-111931310D01*
X98963739Y-111926558D01*
X98950987Y-111920526D01*
X98938887Y-111913274D01*
X98927556Y-111904870D01*
X98917103Y-111895397D01*
X98907630Y-111884944D01*
X98899226Y-111873613D01*
X98891974Y-111861513D01*
X98885942Y-111848761D01*
X98881190Y-111835478D01*
X98877762Y-111821794D01*
X98875692Y-111807840D01*
X98875000Y-111793750D01*
X98875000Y-111506250D01*
X98875692Y-111492160D01*
X98877762Y-111478206D01*
X98881190Y-111464522D01*
X98885942Y-111451239D01*
X98891974Y-111438487D01*
X98899226Y-111426387D01*
X98907630Y-111415056D01*
X98917103Y-111404603D01*
X98927556Y-111395130D01*
X98938887Y-111386726D01*
X98950987Y-111379474D01*
X98963739Y-111373442D01*
X98977022Y-111368690D01*
X98990706Y-111365262D01*
X99004660Y-111363192D01*
X99018750Y-111362500D01*
X99381250Y-111362500D01*
X99395340Y-111363192D01*
X99395340Y-111363192D01*
G37*
D15*
X99200000Y-111650000D03*
D13*
G36*
X99395340Y-110463192D02*
X99409294Y-110465262D01*
X99422978Y-110468690D01*
X99436261Y-110473442D01*
X99449013Y-110479474D01*
X99461113Y-110486726D01*
X99472444Y-110495130D01*
X99482897Y-110504603D01*
X99492370Y-110515056D01*
X99500774Y-110526387D01*
X99508026Y-110538487D01*
X99514058Y-110551239D01*
X99518810Y-110564522D01*
X99522238Y-110578206D01*
X99524308Y-110592160D01*
X99525000Y-110606250D01*
X99525000Y-110893750D01*
X99524308Y-110907840D01*
X99522238Y-110921794D01*
X99518810Y-110935478D01*
X99514058Y-110948761D01*
X99508026Y-110961513D01*
X99500774Y-110973613D01*
X99492370Y-110984944D01*
X99482897Y-110995397D01*
X99472444Y-111004870D01*
X99461113Y-111013274D01*
X99449013Y-111020526D01*
X99436261Y-111026558D01*
X99422978Y-111031310D01*
X99409294Y-111034738D01*
X99395340Y-111036808D01*
X99381250Y-111037500D01*
X99018750Y-111037500D01*
X99004660Y-111036808D01*
X98990706Y-111034738D01*
X98977022Y-111031310D01*
X98963739Y-111026558D01*
X98950987Y-111020526D01*
X98938887Y-111013274D01*
X98927556Y-111004870D01*
X98917103Y-110995397D01*
X98907630Y-110984944D01*
X98899226Y-110973613D01*
X98891974Y-110961513D01*
X98885942Y-110948761D01*
X98881190Y-110935478D01*
X98877762Y-110921794D01*
X98875692Y-110907840D01*
X98875000Y-110893750D01*
X98875000Y-110606250D01*
X98875692Y-110592160D01*
X98877762Y-110578206D01*
X98881190Y-110564522D01*
X98885942Y-110551239D01*
X98891974Y-110538487D01*
X98899226Y-110526387D01*
X98907630Y-110515056D01*
X98917103Y-110504603D01*
X98927556Y-110495130D01*
X98938887Y-110486726D01*
X98950987Y-110479474D01*
X98963739Y-110473442D01*
X98977022Y-110468690D01*
X98990706Y-110465262D01*
X99004660Y-110463192D01*
X99018750Y-110462500D01*
X99381250Y-110462500D01*
X99395340Y-110463192D01*
X99395340Y-110463192D01*
G37*
D15*
X99200000Y-110750000D03*
D13*
G36*
X97095340Y-111675692D02*
X97109294Y-111677762D01*
X97122978Y-111681190D01*
X97136261Y-111685942D01*
X97149013Y-111691974D01*
X97161113Y-111699226D01*
X97172444Y-111707630D01*
X97182897Y-111717103D01*
X97192370Y-111727556D01*
X97200774Y-111738887D01*
X97208026Y-111750987D01*
X97214058Y-111763739D01*
X97218810Y-111777022D01*
X97222238Y-111790706D01*
X97224308Y-111804660D01*
X97225000Y-111818750D01*
X97225000Y-112181250D01*
X97224308Y-112195340D01*
X97222238Y-112209294D01*
X97218810Y-112222978D01*
X97214058Y-112236261D01*
X97208026Y-112249013D01*
X97200774Y-112261113D01*
X97192370Y-112272444D01*
X97182897Y-112282897D01*
X97172444Y-112292370D01*
X97161113Y-112300774D01*
X97149013Y-112308026D01*
X97136261Y-112314058D01*
X97122978Y-112318810D01*
X97109294Y-112322238D01*
X97095340Y-112324308D01*
X97081250Y-112325000D01*
X96793750Y-112325000D01*
X96779660Y-112324308D01*
X96765706Y-112322238D01*
X96752022Y-112318810D01*
X96738739Y-112314058D01*
X96725987Y-112308026D01*
X96713887Y-112300774D01*
X96702556Y-112292370D01*
X96692103Y-112282897D01*
X96682630Y-112272444D01*
X96674226Y-112261113D01*
X96666974Y-112249013D01*
X96660942Y-112236261D01*
X96656190Y-112222978D01*
X96652762Y-112209294D01*
X96650692Y-112195340D01*
X96650000Y-112181250D01*
X96650000Y-111818750D01*
X96650692Y-111804660D01*
X96652762Y-111790706D01*
X96656190Y-111777022D01*
X96660942Y-111763739D01*
X96666974Y-111750987D01*
X96674226Y-111738887D01*
X96682630Y-111727556D01*
X96692103Y-111717103D01*
X96702556Y-111707630D01*
X96713887Y-111699226D01*
X96725987Y-111691974D01*
X96738739Y-111685942D01*
X96752022Y-111681190D01*
X96765706Y-111677762D01*
X96779660Y-111675692D01*
X96793750Y-111675000D01*
X97081250Y-111675000D01*
X97095340Y-111675692D01*
X97095340Y-111675692D01*
G37*
D15*
X96937500Y-112000000D03*
D13*
G36*
X96195340Y-111675692D02*
X96209294Y-111677762D01*
X96222978Y-111681190D01*
X96236261Y-111685942D01*
X96249013Y-111691974D01*
X96261113Y-111699226D01*
X96272444Y-111707630D01*
X96282897Y-111717103D01*
X96292370Y-111727556D01*
X96300774Y-111738887D01*
X96308026Y-111750987D01*
X96314058Y-111763739D01*
X96318810Y-111777022D01*
X96322238Y-111790706D01*
X96324308Y-111804660D01*
X96325000Y-111818750D01*
X96325000Y-112181250D01*
X96324308Y-112195340D01*
X96322238Y-112209294D01*
X96318810Y-112222978D01*
X96314058Y-112236261D01*
X96308026Y-112249013D01*
X96300774Y-112261113D01*
X96292370Y-112272444D01*
X96282897Y-112282897D01*
X96272444Y-112292370D01*
X96261113Y-112300774D01*
X96249013Y-112308026D01*
X96236261Y-112314058D01*
X96222978Y-112318810D01*
X96209294Y-112322238D01*
X96195340Y-112324308D01*
X96181250Y-112325000D01*
X95893750Y-112325000D01*
X95879660Y-112324308D01*
X95865706Y-112322238D01*
X95852022Y-112318810D01*
X95838739Y-112314058D01*
X95825987Y-112308026D01*
X95813887Y-112300774D01*
X95802556Y-112292370D01*
X95792103Y-112282897D01*
X95782630Y-112272444D01*
X95774226Y-112261113D01*
X95766974Y-112249013D01*
X95760942Y-112236261D01*
X95756190Y-112222978D01*
X95752762Y-112209294D01*
X95750692Y-112195340D01*
X95750000Y-112181250D01*
X95750000Y-111818750D01*
X95750692Y-111804660D01*
X95752762Y-111790706D01*
X95756190Y-111777022D01*
X95760942Y-111763739D01*
X95766974Y-111750987D01*
X95774226Y-111738887D01*
X95782630Y-111727556D01*
X95792103Y-111717103D01*
X95802556Y-111707630D01*
X95813887Y-111699226D01*
X95825987Y-111691974D01*
X95838739Y-111685942D01*
X95852022Y-111681190D01*
X95865706Y-111677762D01*
X95879660Y-111675692D01*
X95893750Y-111675000D01*
X96181250Y-111675000D01*
X96195340Y-111675692D01*
X96195340Y-111675692D01*
G37*
D15*
X96037500Y-112000000D03*
D13*
G36*
X98095340Y-99675692D02*
X98109294Y-99677762D01*
X98122978Y-99681190D01*
X98136261Y-99685942D01*
X98149013Y-99691974D01*
X98161113Y-99699226D01*
X98172444Y-99707630D01*
X98182897Y-99717103D01*
X98192370Y-99727556D01*
X98200774Y-99738887D01*
X98208026Y-99750987D01*
X98214058Y-99763739D01*
X98218810Y-99777022D01*
X98222238Y-99790706D01*
X98224308Y-99804660D01*
X98225000Y-99818750D01*
X98225000Y-100181250D01*
X98224308Y-100195340D01*
X98222238Y-100209294D01*
X98218810Y-100222978D01*
X98214058Y-100236261D01*
X98208026Y-100249013D01*
X98200774Y-100261113D01*
X98192370Y-100272444D01*
X98182897Y-100282897D01*
X98172444Y-100292370D01*
X98161113Y-100300774D01*
X98149013Y-100308026D01*
X98136261Y-100314058D01*
X98122978Y-100318810D01*
X98109294Y-100322238D01*
X98095340Y-100324308D01*
X98081250Y-100325000D01*
X97793750Y-100325000D01*
X97779660Y-100324308D01*
X97765706Y-100322238D01*
X97752022Y-100318810D01*
X97738739Y-100314058D01*
X97725987Y-100308026D01*
X97713887Y-100300774D01*
X97702556Y-100292370D01*
X97692103Y-100282897D01*
X97682630Y-100272444D01*
X97674226Y-100261113D01*
X97666974Y-100249013D01*
X97660942Y-100236261D01*
X97656190Y-100222978D01*
X97652762Y-100209294D01*
X97650692Y-100195340D01*
X97650000Y-100181250D01*
X97650000Y-99818750D01*
X97650692Y-99804660D01*
X97652762Y-99790706D01*
X97656190Y-99777022D01*
X97660942Y-99763739D01*
X97666974Y-99750987D01*
X97674226Y-99738887D01*
X97682630Y-99727556D01*
X97692103Y-99717103D01*
X97702556Y-99707630D01*
X97713887Y-99699226D01*
X97725987Y-99691974D01*
X97738739Y-99685942D01*
X97752022Y-99681190D01*
X97765706Y-99677762D01*
X97779660Y-99675692D01*
X97793750Y-99675000D01*
X98081250Y-99675000D01*
X98095340Y-99675692D01*
X98095340Y-99675692D01*
G37*
D15*
X97937500Y-100000000D03*
D13*
G36*
X97195340Y-99675692D02*
X97209294Y-99677762D01*
X97222978Y-99681190D01*
X97236261Y-99685942D01*
X97249013Y-99691974D01*
X97261113Y-99699226D01*
X97272444Y-99707630D01*
X97282897Y-99717103D01*
X97292370Y-99727556D01*
X97300774Y-99738887D01*
X97308026Y-99750987D01*
X97314058Y-99763739D01*
X97318810Y-99777022D01*
X97322238Y-99790706D01*
X97324308Y-99804660D01*
X97325000Y-99818750D01*
X97325000Y-100181250D01*
X97324308Y-100195340D01*
X97322238Y-100209294D01*
X97318810Y-100222978D01*
X97314058Y-100236261D01*
X97308026Y-100249013D01*
X97300774Y-100261113D01*
X97292370Y-100272444D01*
X97282897Y-100282897D01*
X97272444Y-100292370D01*
X97261113Y-100300774D01*
X97249013Y-100308026D01*
X97236261Y-100314058D01*
X97222978Y-100318810D01*
X97209294Y-100322238D01*
X97195340Y-100324308D01*
X97181250Y-100325000D01*
X96893750Y-100325000D01*
X96879660Y-100324308D01*
X96865706Y-100322238D01*
X96852022Y-100318810D01*
X96838739Y-100314058D01*
X96825987Y-100308026D01*
X96813887Y-100300774D01*
X96802556Y-100292370D01*
X96792103Y-100282897D01*
X96782630Y-100272444D01*
X96774226Y-100261113D01*
X96766974Y-100249013D01*
X96760942Y-100236261D01*
X96756190Y-100222978D01*
X96752762Y-100209294D01*
X96750692Y-100195340D01*
X96750000Y-100181250D01*
X96750000Y-99818750D01*
X96750692Y-99804660D01*
X96752762Y-99790706D01*
X96756190Y-99777022D01*
X96760942Y-99763739D01*
X96766974Y-99750987D01*
X96774226Y-99738887D01*
X96782630Y-99727556D01*
X96792103Y-99717103D01*
X96802556Y-99707630D01*
X96813887Y-99699226D01*
X96825987Y-99691974D01*
X96838739Y-99685942D01*
X96852022Y-99681190D01*
X96865706Y-99677762D01*
X96879660Y-99675692D01*
X96893750Y-99675000D01*
X97181250Y-99675000D01*
X97195340Y-99675692D01*
X97195340Y-99675692D01*
G37*
D15*
X97037500Y-100000000D03*
D13*
G36*
X108207840Y-109675692D02*
X108221794Y-109677762D01*
X108235478Y-109681190D01*
X108248761Y-109685942D01*
X108261513Y-109691974D01*
X108273613Y-109699226D01*
X108284944Y-109707630D01*
X108295397Y-109717103D01*
X108304870Y-109727556D01*
X108313274Y-109738887D01*
X108320526Y-109750987D01*
X108326558Y-109763739D01*
X108331310Y-109777022D01*
X108334738Y-109790706D01*
X108336808Y-109804660D01*
X108337500Y-109818750D01*
X108337500Y-110181250D01*
X108336808Y-110195340D01*
X108334738Y-110209294D01*
X108331310Y-110222978D01*
X108326558Y-110236261D01*
X108320526Y-110249013D01*
X108313274Y-110261113D01*
X108304870Y-110272444D01*
X108295397Y-110282897D01*
X108284944Y-110292370D01*
X108273613Y-110300774D01*
X108261513Y-110308026D01*
X108248761Y-110314058D01*
X108235478Y-110318810D01*
X108221794Y-110322238D01*
X108207840Y-110324308D01*
X108193750Y-110325000D01*
X107906250Y-110325000D01*
X107892160Y-110324308D01*
X107878206Y-110322238D01*
X107864522Y-110318810D01*
X107851239Y-110314058D01*
X107838487Y-110308026D01*
X107826387Y-110300774D01*
X107815056Y-110292370D01*
X107804603Y-110282897D01*
X107795130Y-110272444D01*
X107786726Y-110261113D01*
X107779474Y-110249013D01*
X107773442Y-110236261D01*
X107768690Y-110222978D01*
X107765262Y-110209294D01*
X107763192Y-110195340D01*
X107762500Y-110181250D01*
X107762500Y-109818750D01*
X107763192Y-109804660D01*
X107765262Y-109790706D01*
X107768690Y-109777022D01*
X107773442Y-109763739D01*
X107779474Y-109750987D01*
X107786726Y-109738887D01*
X107795130Y-109727556D01*
X107804603Y-109717103D01*
X107815056Y-109707630D01*
X107826387Y-109699226D01*
X107838487Y-109691974D01*
X107851239Y-109685942D01*
X107864522Y-109681190D01*
X107878206Y-109677762D01*
X107892160Y-109675692D01*
X107906250Y-109675000D01*
X108193750Y-109675000D01*
X108207840Y-109675692D01*
X108207840Y-109675692D01*
G37*
D15*
X108050000Y-110000000D03*
D13*
G36*
X109107840Y-109675692D02*
X109121794Y-109677762D01*
X109135478Y-109681190D01*
X109148761Y-109685942D01*
X109161513Y-109691974D01*
X109173613Y-109699226D01*
X109184944Y-109707630D01*
X109195397Y-109717103D01*
X109204870Y-109727556D01*
X109213274Y-109738887D01*
X109220526Y-109750987D01*
X109226558Y-109763739D01*
X109231310Y-109777022D01*
X109234738Y-109790706D01*
X109236808Y-109804660D01*
X109237500Y-109818750D01*
X109237500Y-110181250D01*
X109236808Y-110195340D01*
X109234738Y-110209294D01*
X109231310Y-110222978D01*
X109226558Y-110236261D01*
X109220526Y-110249013D01*
X109213274Y-110261113D01*
X109204870Y-110272444D01*
X109195397Y-110282897D01*
X109184944Y-110292370D01*
X109173613Y-110300774D01*
X109161513Y-110308026D01*
X109148761Y-110314058D01*
X109135478Y-110318810D01*
X109121794Y-110322238D01*
X109107840Y-110324308D01*
X109093750Y-110325000D01*
X108806250Y-110325000D01*
X108792160Y-110324308D01*
X108778206Y-110322238D01*
X108764522Y-110318810D01*
X108751239Y-110314058D01*
X108738487Y-110308026D01*
X108726387Y-110300774D01*
X108715056Y-110292370D01*
X108704603Y-110282897D01*
X108695130Y-110272444D01*
X108686726Y-110261113D01*
X108679474Y-110249013D01*
X108673442Y-110236261D01*
X108668690Y-110222978D01*
X108665262Y-110209294D01*
X108663192Y-110195340D01*
X108662500Y-110181250D01*
X108662500Y-109818750D01*
X108663192Y-109804660D01*
X108665262Y-109790706D01*
X108668690Y-109777022D01*
X108673442Y-109763739D01*
X108679474Y-109750987D01*
X108686726Y-109738887D01*
X108695130Y-109727556D01*
X108704603Y-109717103D01*
X108715056Y-109707630D01*
X108726387Y-109699226D01*
X108738487Y-109691974D01*
X108751239Y-109685942D01*
X108764522Y-109681190D01*
X108778206Y-109677762D01*
X108792160Y-109675692D01*
X108806250Y-109675000D01*
X109093750Y-109675000D01*
X109107840Y-109675692D01*
X109107840Y-109675692D01*
G37*
D15*
X108950000Y-110000000D03*
D13*
G36*
X109107840Y-108675692D02*
X109121794Y-108677762D01*
X109135478Y-108681190D01*
X109148761Y-108685942D01*
X109161513Y-108691974D01*
X109173613Y-108699226D01*
X109184944Y-108707630D01*
X109195397Y-108717103D01*
X109204870Y-108727556D01*
X109213274Y-108738887D01*
X109220526Y-108750987D01*
X109226558Y-108763739D01*
X109231310Y-108777022D01*
X109234738Y-108790706D01*
X109236808Y-108804660D01*
X109237500Y-108818750D01*
X109237500Y-109181250D01*
X109236808Y-109195340D01*
X109234738Y-109209294D01*
X109231310Y-109222978D01*
X109226558Y-109236261D01*
X109220526Y-109249013D01*
X109213274Y-109261113D01*
X109204870Y-109272444D01*
X109195397Y-109282897D01*
X109184944Y-109292370D01*
X109173613Y-109300774D01*
X109161513Y-109308026D01*
X109148761Y-109314058D01*
X109135478Y-109318810D01*
X109121794Y-109322238D01*
X109107840Y-109324308D01*
X109093750Y-109325000D01*
X108806250Y-109325000D01*
X108792160Y-109324308D01*
X108778206Y-109322238D01*
X108764522Y-109318810D01*
X108751239Y-109314058D01*
X108738487Y-109308026D01*
X108726387Y-109300774D01*
X108715056Y-109292370D01*
X108704603Y-109282897D01*
X108695130Y-109272444D01*
X108686726Y-109261113D01*
X108679474Y-109249013D01*
X108673442Y-109236261D01*
X108668690Y-109222978D01*
X108665262Y-109209294D01*
X108663192Y-109195340D01*
X108662500Y-109181250D01*
X108662500Y-108818750D01*
X108663192Y-108804660D01*
X108665262Y-108790706D01*
X108668690Y-108777022D01*
X108673442Y-108763739D01*
X108679474Y-108750987D01*
X108686726Y-108738887D01*
X108695130Y-108727556D01*
X108704603Y-108717103D01*
X108715056Y-108707630D01*
X108726387Y-108699226D01*
X108738487Y-108691974D01*
X108751239Y-108685942D01*
X108764522Y-108681190D01*
X108778206Y-108677762D01*
X108792160Y-108675692D01*
X108806250Y-108675000D01*
X109093750Y-108675000D01*
X109107840Y-108675692D01*
X109107840Y-108675692D01*
G37*
D15*
X108950000Y-109000000D03*
D13*
G36*
X108207840Y-108675692D02*
X108221794Y-108677762D01*
X108235478Y-108681190D01*
X108248761Y-108685942D01*
X108261513Y-108691974D01*
X108273613Y-108699226D01*
X108284944Y-108707630D01*
X108295397Y-108717103D01*
X108304870Y-108727556D01*
X108313274Y-108738887D01*
X108320526Y-108750987D01*
X108326558Y-108763739D01*
X108331310Y-108777022D01*
X108334738Y-108790706D01*
X108336808Y-108804660D01*
X108337500Y-108818750D01*
X108337500Y-109181250D01*
X108336808Y-109195340D01*
X108334738Y-109209294D01*
X108331310Y-109222978D01*
X108326558Y-109236261D01*
X108320526Y-109249013D01*
X108313274Y-109261113D01*
X108304870Y-109272444D01*
X108295397Y-109282897D01*
X108284944Y-109292370D01*
X108273613Y-109300774D01*
X108261513Y-109308026D01*
X108248761Y-109314058D01*
X108235478Y-109318810D01*
X108221794Y-109322238D01*
X108207840Y-109324308D01*
X108193750Y-109325000D01*
X107906250Y-109325000D01*
X107892160Y-109324308D01*
X107878206Y-109322238D01*
X107864522Y-109318810D01*
X107851239Y-109314058D01*
X107838487Y-109308026D01*
X107826387Y-109300774D01*
X107815056Y-109292370D01*
X107804603Y-109282897D01*
X107795130Y-109272444D01*
X107786726Y-109261113D01*
X107779474Y-109249013D01*
X107773442Y-109236261D01*
X107768690Y-109222978D01*
X107765262Y-109209294D01*
X107763192Y-109195340D01*
X107762500Y-109181250D01*
X107762500Y-108818750D01*
X107763192Y-108804660D01*
X107765262Y-108790706D01*
X107768690Y-108777022D01*
X107773442Y-108763739D01*
X107779474Y-108750987D01*
X107786726Y-108738887D01*
X107795130Y-108727556D01*
X107804603Y-108717103D01*
X107815056Y-108707630D01*
X107826387Y-108699226D01*
X107838487Y-108691974D01*
X107851239Y-108685942D01*
X107864522Y-108681190D01*
X107878206Y-108677762D01*
X107892160Y-108675692D01*
X107906250Y-108675000D01*
X108193750Y-108675000D01*
X108207840Y-108675692D01*
X108207840Y-108675692D01*
G37*
D15*
X108050000Y-109000000D03*
D13*
G36*
X109107840Y-105675692D02*
X109121794Y-105677762D01*
X109135478Y-105681190D01*
X109148761Y-105685942D01*
X109161513Y-105691974D01*
X109173613Y-105699226D01*
X109184944Y-105707630D01*
X109195397Y-105717103D01*
X109204870Y-105727556D01*
X109213274Y-105738887D01*
X109220526Y-105750987D01*
X109226558Y-105763739D01*
X109231310Y-105777022D01*
X109234738Y-105790706D01*
X109236808Y-105804660D01*
X109237500Y-105818750D01*
X109237500Y-106181250D01*
X109236808Y-106195340D01*
X109234738Y-106209294D01*
X109231310Y-106222978D01*
X109226558Y-106236261D01*
X109220526Y-106249013D01*
X109213274Y-106261113D01*
X109204870Y-106272444D01*
X109195397Y-106282897D01*
X109184944Y-106292370D01*
X109173613Y-106300774D01*
X109161513Y-106308026D01*
X109148761Y-106314058D01*
X109135478Y-106318810D01*
X109121794Y-106322238D01*
X109107840Y-106324308D01*
X109093750Y-106325000D01*
X108806250Y-106325000D01*
X108792160Y-106324308D01*
X108778206Y-106322238D01*
X108764522Y-106318810D01*
X108751239Y-106314058D01*
X108738487Y-106308026D01*
X108726387Y-106300774D01*
X108715056Y-106292370D01*
X108704603Y-106282897D01*
X108695130Y-106272444D01*
X108686726Y-106261113D01*
X108679474Y-106249013D01*
X108673442Y-106236261D01*
X108668690Y-106222978D01*
X108665262Y-106209294D01*
X108663192Y-106195340D01*
X108662500Y-106181250D01*
X108662500Y-105818750D01*
X108663192Y-105804660D01*
X108665262Y-105790706D01*
X108668690Y-105777022D01*
X108673442Y-105763739D01*
X108679474Y-105750987D01*
X108686726Y-105738887D01*
X108695130Y-105727556D01*
X108704603Y-105717103D01*
X108715056Y-105707630D01*
X108726387Y-105699226D01*
X108738487Y-105691974D01*
X108751239Y-105685942D01*
X108764522Y-105681190D01*
X108778206Y-105677762D01*
X108792160Y-105675692D01*
X108806250Y-105675000D01*
X109093750Y-105675000D01*
X109107840Y-105675692D01*
X109107840Y-105675692D01*
G37*
D15*
X108950000Y-106000000D03*
D13*
G36*
X108207840Y-105675692D02*
X108221794Y-105677762D01*
X108235478Y-105681190D01*
X108248761Y-105685942D01*
X108261513Y-105691974D01*
X108273613Y-105699226D01*
X108284944Y-105707630D01*
X108295397Y-105717103D01*
X108304870Y-105727556D01*
X108313274Y-105738887D01*
X108320526Y-105750987D01*
X108326558Y-105763739D01*
X108331310Y-105777022D01*
X108334738Y-105790706D01*
X108336808Y-105804660D01*
X108337500Y-105818750D01*
X108337500Y-106181250D01*
X108336808Y-106195340D01*
X108334738Y-106209294D01*
X108331310Y-106222978D01*
X108326558Y-106236261D01*
X108320526Y-106249013D01*
X108313274Y-106261113D01*
X108304870Y-106272444D01*
X108295397Y-106282897D01*
X108284944Y-106292370D01*
X108273613Y-106300774D01*
X108261513Y-106308026D01*
X108248761Y-106314058D01*
X108235478Y-106318810D01*
X108221794Y-106322238D01*
X108207840Y-106324308D01*
X108193750Y-106325000D01*
X107906250Y-106325000D01*
X107892160Y-106324308D01*
X107878206Y-106322238D01*
X107864522Y-106318810D01*
X107851239Y-106314058D01*
X107838487Y-106308026D01*
X107826387Y-106300774D01*
X107815056Y-106292370D01*
X107804603Y-106282897D01*
X107795130Y-106272444D01*
X107786726Y-106261113D01*
X107779474Y-106249013D01*
X107773442Y-106236261D01*
X107768690Y-106222978D01*
X107765262Y-106209294D01*
X107763192Y-106195340D01*
X107762500Y-106181250D01*
X107762500Y-105818750D01*
X107763192Y-105804660D01*
X107765262Y-105790706D01*
X107768690Y-105777022D01*
X107773442Y-105763739D01*
X107779474Y-105750987D01*
X107786726Y-105738887D01*
X107795130Y-105727556D01*
X107804603Y-105717103D01*
X107815056Y-105707630D01*
X107826387Y-105699226D01*
X107838487Y-105691974D01*
X107851239Y-105685942D01*
X107864522Y-105681190D01*
X107878206Y-105677762D01*
X107892160Y-105675692D01*
X107906250Y-105675000D01*
X108193750Y-105675000D01*
X108207840Y-105675692D01*
X108207840Y-105675692D01*
G37*
D15*
X108050000Y-106000000D03*
D13*
G36*
X104695340Y-111363192D02*
X104709294Y-111365262D01*
X104722978Y-111368690D01*
X104736261Y-111373442D01*
X104749013Y-111379474D01*
X104761113Y-111386726D01*
X104772444Y-111395130D01*
X104782897Y-111404603D01*
X104792370Y-111415056D01*
X104800774Y-111426387D01*
X104808026Y-111438487D01*
X104814058Y-111451239D01*
X104818810Y-111464522D01*
X104822238Y-111478206D01*
X104824308Y-111492160D01*
X104825000Y-111506250D01*
X104825000Y-111793750D01*
X104824308Y-111807840D01*
X104822238Y-111821794D01*
X104818810Y-111835478D01*
X104814058Y-111848761D01*
X104808026Y-111861513D01*
X104800774Y-111873613D01*
X104792370Y-111884944D01*
X104782897Y-111895397D01*
X104772444Y-111904870D01*
X104761113Y-111913274D01*
X104749013Y-111920526D01*
X104736261Y-111926558D01*
X104722978Y-111931310D01*
X104709294Y-111934738D01*
X104695340Y-111936808D01*
X104681250Y-111937500D01*
X104318750Y-111937500D01*
X104304660Y-111936808D01*
X104290706Y-111934738D01*
X104277022Y-111931310D01*
X104263739Y-111926558D01*
X104250987Y-111920526D01*
X104238887Y-111913274D01*
X104227556Y-111904870D01*
X104217103Y-111895397D01*
X104207630Y-111884944D01*
X104199226Y-111873613D01*
X104191974Y-111861513D01*
X104185942Y-111848761D01*
X104181190Y-111835478D01*
X104177762Y-111821794D01*
X104175692Y-111807840D01*
X104175000Y-111793750D01*
X104175000Y-111506250D01*
X104175692Y-111492160D01*
X104177762Y-111478206D01*
X104181190Y-111464522D01*
X104185942Y-111451239D01*
X104191974Y-111438487D01*
X104199226Y-111426387D01*
X104207630Y-111415056D01*
X104217103Y-111404603D01*
X104227556Y-111395130D01*
X104238887Y-111386726D01*
X104250987Y-111379474D01*
X104263739Y-111373442D01*
X104277022Y-111368690D01*
X104290706Y-111365262D01*
X104304660Y-111363192D01*
X104318750Y-111362500D01*
X104681250Y-111362500D01*
X104695340Y-111363192D01*
X104695340Y-111363192D01*
G37*
D15*
X104500000Y-111650000D03*
D13*
G36*
X104695340Y-110463192D02*
X104709294Y-110465262D01*
X104722978Y-110468690D01*
X104736261Y-110473442D01*
X104749013Y-110479474D01*
X104761113Y-110486726D01*
X104772444Y-110495130D01*
X104782897Y-110504603D01*
X104792370Y-110515056D01*
X104800774Y-110526387D01*
X104808026Y-110538487D01*
X104814058Y-110551239D01*
X104818810Y-110564522D01*
X104822238Y-110578206D01*
X104824308Y-110592160D01*
X104825000Y-110606250D01*
X104825000Y-110893750D01*
X104824308Y-110907840D01*
X104822238Y-110921794D01*
X104818810Y-110935478D01*
X104814058Y-110948761D01*
X104808026Y-110961513D01*
X104800774Y-110973613D01*
X104792370Y-110984944D01*
X104782897Y-110995397D01*
X104772444Y-111004870D01*
X104761113Y-111013274D01*
X104749013Y-111020526D01*
X104736261Y-111026558D01*
X104722978Y-111031310D01*
X104709294Y-111034738D01*
X104695340Y-111036808D01*
X104681250Y-111037500D01*
X104318750Y-111037500D01*
X104304660Y-111036808D01*
X104290706Y-111034738D01*
X104277022Y-111031310D01*
X104263739Y-111026558D01*
X104250987Y-111020526D01*
X104238887Y-111013274D01*
X104227556Y-111004870D01*
X104217103Y-110995397D01*
X104207630Y-110984944D01*
X104199226Y-110973613D01*
X104191974Y-110961513D01*
X104185942Y-110948761D01*
X104181190Y-110935478D01*
X104177762Y-110921794D01*
X104175692Y-110907840D01*
X104175000Y-110893750D01*
X104175000Y-110606250D01*
X104175692Y-110592160D01*
X104177762Y-110578206D01*
X104181190Y-110564522D01*
X104185942Y-110551239D01*
X104191974Y-110538487D01*
X104199226Y-110526387D01*
X104207630Y-110515056D01*
X104217103Y-110504603D01*
X104227556Y-110495130D01*
X104238887Y-110486726D01*
X104250987Y-110479474D01*
X104263739Y-110473442D01*
X104277022Y-110468690D01*
X104290706Y-110465262D01*
X104304660Y-110463192D01*
X104318750Y-110462500D01*
X104681250Y-110462500D01*
X104695340Y-110463192D01*
X104695340Y-110463192D01*
G37*
D15*
X104500000Y-110750000D03*
D13*
G36*
X109107840Y-104675692D02*
X109121794Y-104677762D01*
X109135478Y-104681190D01*
X109148761Y-104685942D01*
X109161513Y-104691974D01*
X109173613Y-104699226D01*
X109184944Y-104707630D01*
X109195397Y-104717103D01*
X109204870Y-104727556D01*
X109213274Y-104738887D01*
X109220526Y-104750987D01*
X109226558Y-104763739D01*
X109231310Y-104777022D01*
X109234738Y-104790706D01*
X109236808Y-104804660D01*
X109237500Y-104818750D01*
X109237500Y-105181250D01*
X109236808Y-105195340D01*
X109234738Y-105209294D01*
X109231310Y-105222978D01*
X109226558Y-105236261D01*
X109220526Y-105249013D01*
X109213274Y-105261113D01*
X109204870Y-105272444D01*
X109195397Y-105282897D01*
X109184944Y-105292370D01*
X109173613Y-105300774D01*
X109161513Y-105308026D01*
X109148761Y-105314058D01*
X109135478Y-105318810D01*
X109121794Y-105322238D01*
X109107840Y-105324308D01*
X109093750Y-105325000D01*
X108806250Y-105325000D01*
X108792160Y-105324308D01*
X108778206Y-105322238D01*
X108764522Y-105318810D01*
X108751239Y-105314058D01*
X108738487Y-105308026D01*
X108726387Y-105300774D01*
X108715056Y-105292370D01*
X108704603Y-105282897D01*
X108695130Y-105272444D01*
X108686726Y-105261113D01*
X108679474Y-105249013D01*
X108673442Y-105236261D01*
X108668690Y-105222978D01*
X108665262Y-105209294D01*
X108663192Y-105195340D01*
X108662500Y-105181250D01*
X108662500Y-104818750D01*
X108663192Y-104804660D01*
X108665262Y-104790706D01*
X108668690Y-104777022D01*
X108673442Y-104763739D01*
X108679474Y-104750987D01*
X108686726Y-104738887D01*
X108695130Y-104727556D01*
X108704603Y-104717103D01*
X108715056Y-104707630D01*
X108726387Y-104699226D01*
X108738487Y-104691974D01*
X108751239Y-104685942D01*
X108764522Y-104681190D01*
X108778206Y-104677762D01*
X108792160Y-104675692D01*
X108806250Y-104675000D01*
X109093750Y-104675000D01*
X109107840Y-104675692D01*
X109107840Y-104675692D01*
G37*
D15*
X108950000Y-105000000D03*
D13*
G36*
X108207840Y-104675692D02*
X108221794Y-104677762D01*
X108235478Y-104681190D01*
X108248761Y-104685942D01*
X108261513Y-104691974D01*
X108273613Y-104699226D01*
X108284944Y-104707630D01*
X108295397Y-104717103D01*
X108304870Y-104727556D01*
X108313274Y-104738887D01*
X108320526Y-104750987D01*
X108326558Y-104763739D01*
X108331310Y-104777022D01*
X108334738Y-104790706D01*
X108336808Y-104804660D01*
X108337500Y-104818750D01*
X108337500Y-105181250D01*
X108336808Y-105195340D01*
X108334738Y-105209294D01*
X108331310Y-105222978D01*
X108326558Y-105236261D01*
X108320526Y-105249013D01*
X108313274Y-105261113D01*
X108304870Y-105272444D01*
X108295397Y-105282897D01*
X108284944Y-105292370D01*
X108273613Y-105300774D01*
X108261513Y-105308026D01*
X108248761Y-105314058D01*
X108235478Y-105318810D01*
X108221794Y-105322238D01*
X108207840Y-105324308D01*
X108193750Y-105325000D01*
X107906250Y-105325000D01*
X107892160Y-105324308D01*
X107878206Y-105322238D01*
X107864522Y-105318810D01*
X107851239Y-105314058D01*
X107838487Y-105308026D01*
X107826387Y-105300774D01*
X107815056Y-105292370D01*
X107804603Y-105282897D01*
X107795130Y-105272444D01*
X107786726Y-105261113D01*
X107779474Y-105249013D01*
X107773442Y-105236261D01*
X107768690Y-105222978D01*
X107765262Y-105209294D01*
X107763192Y-105195340D01*
X107762500Y-105181250D01*
X107762500Y-104818750D01*
X107763192Y-104804660D01*
X107765262Y-104790706D01*
X107768690Y-104777022D01*
X107773442Y-104763739D01*
X107779474Y-104750987D01*
X107786726Y-104738887D01*
X107795130Y-104727556D01*
X107804603Y-104717103D01*
X107815056Y-104707630D01*
X107826387Y-104699226D01*
X107838487Y-104691974D01*
X107851239Y-104685942D01*
X107864522Y-104681190D01*
X107878206Y-104677762D01*
X107892160Y-104675692D01*
X107906250Y-104675000D01*
X108193750Y-104675000D01*
X108207840Y-104675692D01*
X108207840Y-104675692D01*
G37*
D15*
X108050000Y-105000000D03*
D13*
G36*
X108207840Y-107675692D02*
X108221794Y-107677762D01*
X108235478Y-107681190D01*
X108248761Y-107685942D01*
X108261513Y-107691974D01*
X108273613Y-107699226D01*
X108284944Y-107707630D01*
X108295397Y-107717103D01*
X108304870Y-107727556D01*
X108313274Y-107738887D01*
X108320526Y-107750987D01*
X108326558Y-107763739D01*
X108331310Y-107777022D01*
X108334738Y-107790706D01*
X108336808Y-107804660D01*
X108337500Y-107818750D01*
X108337500Y-108181250D01*
X108336808Y-108195340D01*
X108334738Y-108209294D01*
X108331310Y-108222978D01*
X108326558Y-108236261D01*
X108320526Y-108249013D01*
X108313274Y-108261113D01*
X108304870Y-108272444D01*
X108295397Y-108282897D01*
X108284944Y-108292370D01*
X108273613Y-108300774D01*
X108261513Y-108308026D01*
X108248761Y-108314058D01*
X108235478Y-108318810D01*
X108221794Y-108322238D01*
X108207840Y-108324308D01*
X108193750Y-108325000D01*
X107906250Y-108325000D01*
X107892160Y-108324308D01*
X107878206Y-108322238D01*
X107864522Y-108318810D01*
X107851239Y-108314058D01*
X107838487Y-108308026D01*
X107826387Y-108300774D01*
X107815056Y-108292370D01*
X107804603Y-108282897D01*
X107795130Y-108272444D01*
X107786726Y-108261113D01*
X107779474Y-108249013D01*
X107773442Y-108236261D01*
X107768690Y-108222978D01*
X107765262Y-108209294D01*
X107763192Y-108195340D01*
X107762500Y-108181250D01*
X107762500Y-107818750D01*
X107763192Y-107804660D01*
X107765262Y-107790706D01*
X107768690Y-107777022D01*
X107773442Y-107763739D01*
X107779474Y-107750987D01*
X107786726Y-107738887D01*
X107795130Y-107727556D01*
X107804603Y-107717103D01*
X107815056Y-107707630D01*
X107826387Y-107699226D01*
X107838487Y-107691974D01*
X107851239Y-107685942D01*
X107864522Y-107681190D01*
X107878206Y-107677762D01*
X107892160Y-107675692D01*
X107906250Y-107675000D01*
X108193750Y-107675000D01*
X108207840Y-107675692D01*
X108207840Y-107675692D01*
G37*
D15*
X108050000Y-108000000D03*
D13*
G36*
X109107840Y-107675692D02*
X109121794Y-107677762D01*
X109135478Y-107681190D01*
X109148761Y-107685942D01*
X109161513Y-107691974D01*
X109173613Y-107699226D01*
X109184944Y-107707630D01*
X109195397Y-107717103D01*
X109204870Y-107727556D01*
X109213274Y-107738887D01*
X109220526Y-107750987D01*
X109226558Y-107763739D01*
X109231310Y-107777022D01*
X109234738Y-107790706D01*
X109236808Y-107804660D01*
X109237500Y-107818750D01*
X109237500Y-108181250D01*
X109236808Y-108195340D01*
X109234738Y-108209294D01*
X109231310Y-108222978D01*
X109226558Y-108236261D01*
X109220526Y-108249013D01*
X109213274Y-108261113D01*
X109204870Y-108272444D01*
X109195397Y-108282897D01*
X109184944Y-108292370D01*
X109173613Y-108300774D01*
X109161513Y-108308026D01*
X109148761Y-108314058D01*
X109135478Y-108318810D01*
X109121794Y-108322238D01*
X109107840Y-108324308D01*
X109093750Y-108325000D01*
X108806250Y-108325000D01*
X108792160Y-108324308D01*
X108778206Y-108322238D01*
X108764522Y-108318810D01*
X108751239Y-108314058D01*
X108738487Y-108308026D01*
X108726387Y-108300774D01*
X108715056Y-108292370D01*
X108704603Y-108282897D01*
X108695130Y-108272444D01*
X108686726Y-108261113D01*
X108679474Y-108249013D01*
X108673442Y-108236261D01*
X108668690Y-108222978D01*
X108665262Y-108209294D01*
X108663192Y-108195340D01*
X108662500Y-108181250D01*
X108662500Y-107818750D01*
X108663192Y-107804660D01*
X108665262Y-107790706D01*
X108668690Y-107777022D01*
X108673442Y-107763739D01*
X108679474Y-107750987D01*
X108686726Y-107738887D01*
X108695130Y-107727556D01*
X108704603Y-107717103D01*
X108715056Y-107707630D01*
X108726387Y-107699226D01*
X108738487Y-107691974D01*
X108751239Y-107685942D01*
X108764522Y-107681190D01*
X108778206Y-107677762D01*
X108792160Y-107675692D01*
X108806250Y-107675000D01*
X109093750Y-107675000D01*
X109107840Y-107675692D01*
X109107840Y-107675692D01*
G37*
D15*
X108950000Y-108000000D03*
D13*
G36*
X109107840Y-106675692D02*
X109121794Y-106677762D01*
X109135478Y-106681190D01*
X109148761Y-106685942D01*
X109161513Y-106691974D01*
X109173613Y-106699226D01*
X109184944Y-106707630D01*
X109195397Y-106717103D01*
X109204870Y-106727556D01*
X109213274Y-106738887D01*
X109220526Y-106750987D01*
X109226558Y-106763739D01*
X109231310Y-106777022D01*
X109234738Y-106790706D01*
X109236808Y-106804660D01*
X109237500Y-106818750D01*
X109237500Y-107181250D01*
X109236808Y-107195340D01*
X109234738Y-107209294D01*
X109231310Y-107222978D01*
X109226558Y-107236261D01*
X109220526Y-107249013D01*
X109213274Y-107261113D01*
X109204870Y-107272444D01*
X109195397Y-107282897D01*
X109184944Y-107292370D01*
X109173613Y-107300774D01*
X109161513Y-107308026D01*
X109148761Y-107314058D01*
X109135478Y-107318810D01*
X109121794Y-107322238D01*
X109107840Y-107324308D01*
X109093750Y-107325000D01*
X108806250Y-107325000D01*
X108792160Y-107324308D01*
X108778206Y-107322238D01*
X108764522Y-107318810D01*
X108751239Y-107314058D01*
X108738487Y-107308026D01*
X108726387Y-107300774D01*
X108715056Y-107292370D01*
X108704603Y-107282897D01*
X108695130Y-107272444D01*
X108686726Y-107261113D01*
X108679474Y-107249013D01*
X108673442Y-107236261D01*
X108668690Y-107222978D01*
X108665262Y-107209294D01*
X108663192Y-107195340D01*
X108662500Y-107181250D01*
X108662500Y-106818750D01*
X108663192Y-106804660D01*
X108665262Y-106790706D01*
X108668690Y-106777022D01*
X108673442Y-106763739D01*
X108679474Y-106750987D01*
X108686726Y-106738887D01*
X108695130Y-106727556D01*
X108704603Y-106717103D01*
X108715056Y-106707630D01*
X108726387Y-106699226D01*
X108738487Y-106691974D01*
X108751239Y-106685942D01*
X108764522Y-106681190D01*
X108778206Y-106677762D01*
X108792160Y-106675692D01*
X108806250Y-106675000D01*
X109093750Y-106675000D01*
X109107840Y-106675692D01*
X109107840Y-106675692D01*
G37*
D15*
X108950000Y-107000000D03*
D13*
G36*
X108207840Y-106675692D02*
X108221794Y-106677762D01*
X108235478Y-106681190D01*
X108248761Y-106685942D01*
X108261513Y-106691974D01*
X108273613Y-106699226D01*
X108284944Y-106707630D01*
X108295397Y-106717103D01*
X108304870Y-106727556D01*
X108313274Y-106738887D01*
X108320526Y-106750987D01*
X108326558Y-106763739D01*
X108331310Y-106777022D01*
X108334738Y-106790706D01*
X108336808Y-106804660D01*
X108337500Y-106818750D01*
X108337500Y-107181250D01*
X108336808Y-107195340D01*
X108334738Y-107209294D01*
X108331310Y-107222978D01*
X108326558Y-107236261D01*
X108320526Y-107249013D01*
X108313274Y-107261113D01*
X108304870Y-107272444D01*
X108295397Y-107282897D01*
X108284944Y-107292370D01*
X108273613Y-107300774D01*
X108261513Y-107308026D01*
X108248761Y-107314058D01*
X108235478Y-107318810D01*
X108221794Y-107322238D01*
X108207840Y-107324308D01*
X108193750Y-107325000D01*
X107906250Y-107325000D01*
X107892160Y-107324308D01*
X107878206Y-107322238D01*
X107864522Y-107318810D01*
X107851239Y-107314058D01*
X107838487Y-107308026D01*
X107826387Y-107300774D01*
X107815056Y-107292370D01*
X107804603Y-107282897D01*
X107795130Y-107272444D01*
X107786726Y-107261113D01*
X107779474Y-107249013D01*
X107773442Y-107236261D01*
X107768690Y-107222978D01*
X107765262Y-107209294D01*
X107763192Y-107195340D01*
X107762500Y-107181250D01*
X107762500Y-106818750D01*
X107763192Y-106804660D01*
X107765262Y-106790706D01*
X107768690Y-106777022D01*
X107773442Y-106763739D01*
X107779474Y-106750987D01*
X107786726Y-106738887D01*
X107795130Y-106727556D01*
X107804603Y-106717103D01*
X107815056Y-106707630D01*
X107826387Y-106699226D01*
X107838487Y-106691974D01*
X107851239Y-106685942D01*
X107864522Y-106681190D01*
X107878206Y-106677762D01*
X107892160Y-106675692D01*
X107906250Y-106675000D01*
X108193750Y-106675000D01*
X108207840Y-106675692D01*
X108207840Y-106675692D01*
G37*
D15*
X108050000Y-107000000D03*
D13*
G36*
X109107840Y-101925692D02*
X109121794Y-101927762D01*
X109135478Y-101931190D01*
X109148761Y-101935942D01*
X109161513Y-101941974D01*
X109173613Y-101949226D01*
X109184944Y-101957630D01*
X109195397Y-101967103D01*
X109204870Y-101977556D01*
X109213274Y-101988887D01*
X109220526Y-102000987D01*
X109226558Y-102013739D01*
X109231310Y-102027022D01*
X109234738Y-102040706D01*
X109236808Y-102054660D01*
X109237500Y-102068750D01*
X109237500Y-102431250D01*
X109236808Y-102445340D01*
X109234738Y-102459294D01*
X109231310Y-102472978D01*
X109226558Y-102486261D01*
X109220526Y-102499013D01*
X109213274Y-102511113D01*
X109204870Y-102522444D01*
X109195397Y-102532897D01*
X109184944Y-102542370D01*
X109173613Y-102550774D01*
X109161513Y-102558026D01*
X109148761Y-102564058D01*
X109135478Y-102568810D01*
X109121794Y-102572238D01*
X109107840Y-102574308D01*
X109093750Y-102575000D01*
X108806250Y-102575000D01*
X108792160Y-102574308D01*
X108778206Y-102572238D01*
X108764522Y-102568810D01*
X108751239Y-102564058D01*
X108738487Y-102558026D01*
X108726387Y-102550774D01*
X108715056Y-102542370D01*
X108704603Y-102532897D01*
X108695130Y-102522444D01*
X108686726Y-102511113D01*
X108679474Y-102499013D01*
X108673442Y-102486261D01*
X108668690Y-102472978D01*
X108665262Y-102459294D01*
X108663192Y-102445340D01*
X108662500Y-102431250D01*
X108662500Y-102068750D01*
X108663192Y-102054660D01*
X108665262Y-102040706D01*
X108668690Y-102027022D01*
X108673442Y-102013739D01*
X108679474Y-102000987D01*
X108686726Y-101988887D01*
X108695130Y-101977556D01*
X108704603Y-101967103D01*
X108715056Y-101957630D01*
X108726387Y-101949226D01*
X108738487Y-101941974D01*
X108751239Y-101935942D01*
X108764522Y-101931190D01*
X108778206Y-101927762D01*
X108792160Y-101925692D01*
X108806250Y-101925000D01*
X109093750Y-101925000D01*
X109107840Y-101925692D01*
X109107840Y-101925692D01*
G37*
D15*
X108950000Y-102250000D03*
D13*
G36*
X108207840Y-101925692D02*
X108221794Y-101927762D01*
X108235478Y-101931190D01*
X108248761Y-101935942D01*
X108261513Y-101941974D01*
X108273613Y-101949226D01*
X108284944Y-101957630D01*
X108295397Y-101967103D01*
X108304870Y-101977556D01*
X108313274Y-101988887D01*
X108320526Y-102000987D01*
X108326558Y-102013739D01*
X108331310Y-102027022D01*
X108334738Y-102040706D01*
X108336808Y-102054660D01*
X108337500Y-102068750D01*
X108337500Y-102431250D01*
X108336808Y-102445340D01*
X108334738Y-102459294D01*
X108331310Y-102472978D01*
X108326558Y-102486261D01*
X108320526Y-102499013D01*
X108313274Y-102511113D01*
X108304870Y-102522444D01*
X108295397Y-102532897D01*
X108284944Y-102542370D01*
X108273613Y-102550774D01*
X108261513Y-102558026D01*
X108248761Y-102564058D01*
X108235478Y-102568810D01*
X108221794Y-102572238D01*
X108207840Y-102574308D01*
X108193750Y-102575000D01*
X107906250Y-102575000D01*
X107892160Y-102574308D01*
X107878206Y-102572238D01*
X107864522Y-102568810D01*
X107851239Y-102564058D01*
X107838487Y-102558026D01*
X107826387Y-102550774D01*
X107815056Y-102542370D01*
X107804603Y-102532897D01*
X107795130Y-102522444D01*
X107786726Y-102511113D01*
X107779474Y-102499013D01*
X107773442Y-102486261D01*
X107768690Y-102472978D01*
X107765262Y-102459294D01*
X107763192Y-102445340D01*
X107762500Y-102431250D01*
X107762500Y-102068750D01*
X107763192Y-102054660D01*
X107765262Y-102040706D01*
X107768690Y-102027022D01*
X107773442Y-102013739D01*
X107779474Y-102000987D01*
X107786726Y-101988887D01*
X107795130Y-101977556D01*
X107804603Y-101967103D01*
X107815056Y-101957630D01*
X107826387Y-101949226D01*
X107838487Y-101941974D01*
X107851239Y-101935942D01*
X107864522Y-101931190D01*
X107878206Y-101927762D01*
X107892160Y-101925692D01*
X107906250Y-101925000D01*
X108193750Y-101925000D01*
X108207840Y-101925692D01*
X108207840Y-101925692D01*
G37*
D15*
X108050000Y-102250000D03*
D13*
G36*
X97207840Y-103975692D02*
X97221794Y-103977762D01*
X97235478Y-103981190D01*
X97248761Y-103985942D01*
X97261513Y-103991974D01*
X97273613Y-103999226D01*
X97284944Y-104007630D01*
X97295397Y-104017103D01*
X97304870Y-104027556D01*
X97313274Y-104038887D01*
X97320526Y-104050987D01*
X97326558Y-104063739D01*
X97331310Y-104077022D01*
X97334738Y-104090706D01*
X97336808Y-104104660D01*
X97337500Y-104118750D01*
X97337500Y-104481250D01*
X97336808Y-104495340D01*
X97334738Y-104509294D01*
X97331310Y-104522978D01*
X97326558Y-104536261D01*
X97320526Y-104549013D01*
X97313274Y-104561113D01*
X97304870Y-104572444D01*
X97295397Y-104582897D01*
X97284944Y-104592370D01*
X97273613Y-104600774D01*
X97261513Y-104608026D01*
X97248761Y-104614058D01*
X97235478Y-104618810D01*
X97221794Y-104622238D01*
X97207840Y-104624308D01*
X97193750Y-104625000D01*
X96906250Y-104625000D01*
X96892160Y-104624308D01*
X96878206Y-104622238D01*
X96864522Y-104618810D01*
X96851239Y-104614058D01*
X96838487Y-104608026D01*
X96826387Y-104600774D01*
X96815056Y-104592370D01*
X96804603Y-104582897D01*
X96795130Y-104572444D01*
X96786726Y-104561113D01*
X96779474Y-104549013D01*
X96773442Y-104536261D01*
X96768690Y-104522978D01*
X96765262Y-104509294D01*
X96763192Y-104495340D01*
X96762500Y-104481250D01*
X96762500Y-104118750D01*
X96763192Y-104104660D01*
X96765262Y-104090706D01*
X96768690Y-104077022D01*
X96773442Y-104063739D01*
X96779474Y-104050987D01*
X96786726Y-104038887D01*
X96795130Y-104027556D01*
X96804603Y-104017103D01*
X96815056Y-104007630D01*
X96826387Y-103999226D01*
X96838487Y-103991974D01*
X96851239Y-103985942D01*
X96864522Y-103981190D01*
X96878206Y-103977762D01*
X96892160Y-103975692D01*
X96906250Y-103975000D01*
X97193750Y-103975000D01*
X97207840Y-103975692D01*
X97207840Y-103975692D01*
G37*
D15*
X97050000Y-104300000D03*
D13*
G36*
X98107840Y-103975692D02*
X98121794Y-103977762D01*
X98135478Y-103981190D01*
X98148761Y-103985942D01*
X98161513Y-103991974D01*
X98173613Y-103999226D01*
X98184944Y-104007630D01*
X98195397Y-104017103D01*
X98204870Y-104027556D01*
X98213274Y-104038887D01*
X98220526Y-104050987D01*
X98226558Y-104063739D01*
X98231310Y-104077022D01*
X98234738Y-104090706D01*
X98236808Y-104104660D01*
X98237500Y-104118750D01*
X98237500Y-104481250D01*
X98236808Y-104495340D01*
X98234738Y-104509294D01*
X98231310Y-104522978D01*
X98226558Y-104536261D01*
X98220526Y-104549013D01*
X98213274Y-104561113D01*
X98204870Y-104572444D01*
X98195397Y-104582897D01*
X98184944Y-104592370D01*
X98173613Y-104600774D01*
X98161513Y-104608026D01*
X98148761Y-104614058D01*
X98135478Y-104618810D01*
X98121794Y-104622238D01*
X98107840Y-104624308D01*
X98093750Y-104625000D01*
X97806250Y-104625000D01*
X97792160Y-104624308D01*
X97778206Y-104622238D01*
X97764522Y-104618810D01*
X97751239Y-104614058D01*
X97738487Y-104608026D01*
X97726387Y-104600774D01*
X97715056Y-104592370D01*
X97704603Y-104582897D01*
X97695130Y-104572444D01*
X97686726Y-104561113D01*
X97679474Y-104549013D01*
X97673442Y-104536261D01*
X97668690Y-104522978D01*
X97665262Y-104509294D01*
X97663192Y-104495340D01*
X97662500Y-104481250D01*
X97662500Y-104118750D01*
X97663192Y-104104660D01*
X97665262Y-104090706D01*
X97668690Y-104077022D01*
X97673442Y-104063739D01*
X97679474Y-104050987D01*
X97686726Y-104038887D01*
X97695130Y-104027556D01*
X97704603Y-104017103D01*
X97715056Y-104007630D01*
X97726387Y-103999226D01*
X97738487Y-103991974D01*
X97751239Y-103985942D01*
X97764522Y-103981190D01*
X97778206Y-103977762D01*
X97792160Y-103975692D01*
X97806250Y-103975000D01*
X98093750Y-103975000D01*
X98107840Y-103975692D01*
X98107840Y-103975692D01*
G37*
D15*
X97950000Y-104300000D03*
D13*
G36*
X98107840Y-105875692D02*
X98121794Y-105877762D01*
X98135478Y-105881190D01*
X98148761Y-105885942D01*
X98161513Y-105891974D01*
X98173613Y-105899226D01*
X98184944Y-105907630D01*
X98195397Y-105917103D01*
X98204870Y-105927556D01*
X98213274Y-105938887D01*
X98220526Y-105950987D01*
X98226558Y-105963739D01*
X98231310Y-105977022D01*
X98234738Y-105990706D01*
X98236808Y-106004660D01*
X98237500Y-106018750D01*
X98237500Y-106381250D01*
X98236808Y-106395340D01*
X98234738Y-106409294D01*
X98231310Y-106422978D01*
X98226558Y-106436261D01*
X98220526Y-106449013D01*
X98213274Y-106461113D01*
X98204870Y-106472444D01*
X98195397Y-106482897D01*
X98184944Y-106492370D01*
X98173613Y-106500774D01*
X98161513Y-106508026D01*
X98148761Y-106514058D01*
X98135478Y-106518810D01*
X98121794Y-106522238D01*
X98107840Y-106524308D01*
X98093750Y-106525000D01*
X97806250Y-106525000D01*
X97792160Y-106524308D01*
X97778206Y-106522238D01*
X97764522Y-106518810D01*
X97751239Y-106514058D01*
X97738487Y-106508026D01*
X97726387Y-106500774D01*
X97715056Y-106492370D01*
X97704603Y-106482897D01*
X97695130Y-106472444D01*
X97686726Y-106461113D01*
X97679474Y-106449013D01*
X97673442Y-106436261D01*
X97668690Y-106422978D01*
X97665262Y-106409294D01*
X97663192Y-106395340D01*
X97662500Y-106381250D01*
X97662500Y-106018750D01*
X97663192Y-106004660D01*
X97665262Y-105990706D01*
X97668690Y-105977022D01*
X97673442Y-105963739D01*
X97679474Y-105950987D01*
X97686726Y-105938887D01*
X97695130Y-105927556D01*
X97704603Y-105917103D01*
X97715056Y-105907630D01*
X97726387Y-105899226D01*
X97738487Y-105891974D01*
X97751239Y-105885942D01*
X97764522Y-105881190D01*
X97778206Y-105877762D01*
X97792160Y-105875692D01*
X97806250Y-105875000D01*
X98093750Y-105875000D01*
X98107840Y-105875692D01*
X98107840Y-105875692D01*
G37*
D15*
X97950000Y-106200000D03*
D13*
G36*
X97207840Y-105875692D02*
X97221794Y-105877762D01*
X97235478Y-105881190D01*
X97248761Y-105885942D01*
X97261513Y-105891974D01*
X97273613Y-105899226D01*
X97284944Y-105907630D01*
X97295397Y-105917103D01*
X97304870Y-105927556D01*
X97313274Y-105938887D01*
X97320526Y-105950987D01*
X97326558Y-105963739D01*
X97331310Y-105977022D01*
X97334738Y-105990706D01*
X97336808Y-106004660D01*
X97337500Y-106018750D01*
X97337500Y-106381250D01*
X97336808Y-106395340D01*
X97334738Y-106409294D01*
X97331310Y-106422978D01*
X97326558Y-106436261D01*
X97320526Y-106449013D01*
X97313274Y-106461113D01*
X97304870Y-106472444D01*
X97295397Y-106482897D01*
X97284944Y-106492370D01*
X97273613Y-106500774D01*
X97261513Y-106508026D01*
X97248761Y-106514058D01*
X97235478Y-106518810D01*
X97221794Y-106522238D01*
X97207840Y-106524308D01*
X97193750Y-106525000D01*
X96906250Y-106525000D01*
X96892160Y-106524308D01*
X96878206Y-106522238D01*
X96864522Y-106518810D01*
X96851239Y-106514058D01*
X96838487Y-106508026D01*
X96826387Y-106500774D01*
X96815056Y-106492370D01*
X96804603Y-106482897D01*
X96795130Y-106472444D01*
X96786726Y-106461113D01*
X96779474Y-106449013D01*
X96773442Y-106436261D01*
X96768690Y-106422978D01*
X96765262Y-106409294D01*
X96763192Y-106395340D01*
X96762500Y-106381250D01*
X96762500Y-106018750D01*
X96763192Y-106004660D01*
X96765262Y-105990706D01*
X96768690Y-105977022D01*
X96773442Y-105963739D01*
X96779474Y-105950987D01*
X96786726Y-105938887D01*
X96795130Y-105927556D01*
X96804603Y-105917103D01*
X96815056Y-105907630D01*
X96826387Y-105899226D01*
X96838487Y-105891974D01*
X96851239Y-105885942D01*
X96864522Y-105881190D01*
X96878206Y-105877762D01*
X96892160Y-105875692D01*
X96906250Y-105875000D01*
X97193750Y-105875000D01*
X97207840Y-105875692D01*
X97207840Y-105875692D01*
G37*
D15*
X97050000Y-106200000D03*
D13*
G36*
X97207840Y-100675692D02*
X97221794Y-100677762D01*
X97235478Y-100681190D01*
X97248761Y-100685942D01*
X97261513Y-100691974D01*
X97273613Y-100699226D01*
X97284944Y-100707630D01*
X97295397Y-100717103D01*
X97304870Y-100727556D01*
X97313274Y-100738887D01*
X97320526Y-100750987D01*
X97326558Y-100763739D01*
X97331310Y-100777022D01*
X97334738Y-100790706D01*
X97336808Y-100804660D01*
X97337500Y-100818750D01*
X97337500Y-101181250D01*
X97336808Y-101195340D01*
X97334738Y-101209294D01*
X97331310Y-101222978D01*
X97326558Y-101236261D01*
X97320526Y-101249013D01*
X97313274Y-101261113D01*
X97304870Y-101272444D01*
X97295397Y-101282897D01*
X97284944Y-101292370D01*
X97273613Y-101300774D01*
X97261513Y-101308026D01*
X97248761Y-101314058D01*
X97235478Y-101318810D01*
X97221794Y-101322238D01*
X97207840Y-101324308D01*
X97193750Y-101325000D01*
X96906250Y-101325000D01*
X96892160Y-101324308D01*
X96878206Y-101322238D01*
X96864522Y-101318810D01*
X96851239Y-101314058D01*
X96838487Y-101308026D01*
X96826387Y-101300774D01*
X96815056Y-101292370D01*
X96804603Y-101282897D01*
X96795130Y-101272444D01*
X96786726Y-101261113D01*
X96779474Y-101249013D01*
X96773442Y-101236261D01*
X96768690Y-101222978D01*
X96765262Y-101209294D01*
X96763192Y-101195340D01*
X96762500Y-101181250D01*
X96762500Y-100818750D01*
X96763192Y-100804660D01*
X96765262Y-100790706D01*
X96768690Y-100777022D01*
X96773442Y-100763739D01*
X96779474Y-100750987D01*
X96786726Y-100738887D01*
X96795130Y-100727556D01*
X96804603Y-100717103D01*
X96815056Y-100707630D01*
X96826387Y-100699226D01*
X96838487Y-100691974D01*
X96851239Y-100685942D01*
X96864522Y-100681190D01*
X96878206Y-100677762D01*
X96892160Y-100675692D01*
X96906250Y-100675000D01*
X97193750Y-100675000D01*
X97207840Y-100675692D01*
X97207840Y-100675692D01*
G37*
D15*
X97050000Y-101000000D03*
D13*
G36*
X98107840Y-100675692D02*
X98121794Y-100677762D01*
X98135478Y-100681190D01*
X98148761Y-100685942D01*
X98161513Y-100691974D01*
X98173613Y-100699226D01*
X98184944Y-100707630D01*
X98195397Y-100717103D01*
X98204870Y-100727556D01*
X98213274Y-100738887D01*
X98220526Y-100750987D01*
X98226558Y-100763739D01*
X98231310Y-100777022D01*
X98234738Y-100790706D01*
X98236808Y-100804660D01*
X98237500Y-100818750D01*
X98237500Y-101181250D01*
X98236808Y-101195340D01*
X98234738Y-101209294D01*
X98231310Y-101222978D01*
X98226558Y-101236261D01*
X98220526Y-101249013D01*
X98213274Y-101261113D01*
X98204870Y-101272444D01*
X98195397Y-101282897D01*
X98184944Y-101292370D01*
X98173613Y-101300774D01*
X98161513Y-101308026D01*
X98148761Y-101314058D01*
X98135478Y-101318810D01*
X98121794Y-101322238D01*
X98107840Y-101324308D01*
X98093750Y-101325000D01*
X97806250Y-101325000D01*
X97792160Y-101324308D01*
X97778206Y-101322238D01*
X97764522Y-101318810D01*
X97751239Y-101314058D01*
X97738487Y-101308026D01*
X97726387Y-101300774D01*
X97715056Y-101292370D01*
X97704603Y-101282897D01*
X97695130Y-101272444D01*
X97686726Y-101261113D01*
X97679474Y-101249013D01*
X97673442Y-101236261D01*
X97668690Y-101222978D01*
X97665262Y-101209294D01*
X97663192Y-101195340D01*
X97662500Y-101181250D01*
X97662500Y-100818750D01*
X97663192Y-100804660D01*
X97665262Y-100790706D01*
X97668690Y-100777022D01*
X97673442Y-100763739D01*
X97679474Y-100750987D01*
X97686726Y-100738887D01*
X97695130Y-100727556D01*
X97704603Y-100717103D01*
X97715056Y-100707630D01*
X97726387Y-100699226D01*
X97738487Y-100691974D01*
X97751239Y-100685942D01*
X97764522Y-100681190D01*
X97778206Y-100677762D01*
X97792160Y-100675692D01*
X97806250Y-100675000D01*
X98093750Y-100675000D01*
X98107840Y-100675692D01*
X98107840Y-100675692D01*
G37*
D15*
X97950000Y-101000000D03*
D13*
G36*
X98107840Y-101675692D02*
X98121794Y-101677762D01*
X98135478Y-101681190D01*
X98148761Y-101685942D01*
X98161513Y-101691974D01*
X98173613Y-101699226D01*
X98184944Y-101707630D01*
X98195397Y-101717103D01*
X98204870Y-101727556D01*
X98213274Y-101738887D01*
X98220526Y-101750987D01*
X98226558Y-101763739D01*
X98231310Y-101777022D01*
X98234738Y-101790706D01*
X98236808Y-101804660D01*
X98237500Y-101818750D01*
X98237500Y-102181250D01*
X98236808Y-102195340D01*
X98234738Y-102209294D01*
X98231310Y-102222978D01*
X98226558Y-102236261D01*
X98220526Y-102249013D01*
X98213274Y-102261113D01*
X98204870Y-102272444D01*
X98195397Y-102282897D01*
X98184944Y-102292370D01*
X98173613Y-102300774D01*
X98161513Y-102308026D01*
X98148761Y-102314058D01*
X98135478Y-102318810D01*
X98121794Y-102322238D01*
X98107840Y-102324308D01*
X98093750Y-102325000D01*
X97806250Y-102325000D01*
X97792160Y-102324308D01*
X97778206Y-102322238D01*
X97764522Y-102318810D01*
X97751239Y-102314058D01*
X97738487Y-102308026D01*
X97726387Y-102300774D01*
X97715056Y-102292370D01*
X97704603Y-102282897D01*
X97695130Y-102272444D01*
X97686726Y-102261113D01*
X97679474Y-102249013D01*
X97673442Y-102236261D01*
X97668690Y-102222978D01*
X97665262Y-102209294D01*
X97663192Y-102195340D01*
X97662500Y-102181250D01*
X97662500Y-101818750D01*
X97663192Y-101804660D01*
X97665262Y-101790706D01*
X97668690Y-101777022D01*
X97673442Y-101763739D01*
X97679474Y-101750987D01*
X97686726Y-101738887D01*
X97695130Y-101727556D01*
X97704603Y-101717103D01*
X97715056Y-101707630D01*
X97726387Y-101699226D01*
X97738487Y-101691974D01*
X97751239Y-101685942D01*
X97764522Y-101681190D01*
X97778206Y-101677762D01*
X97792160Y-101675692D01*
X97806250Y-101675000D01*
X98093750Y-101675000D01*
X98107840Y-101675692D01*
X98107840Y-101675692D01*
G37*
D15*
X97950000Y-102000000D03*
D13*
G36*
X97207840Y-101675692D02*
X97221794Y-101677762D01*
X97235478Y-101681190D01*
X97248761Y-101685942D01*
X97261513Y-101691974D01*
X97273613Y-101699226D01*
X97284944Y-101707630D01*
X97295397Y-101717103D01*
X97304870Y-101727556D01*
X97313274Y-101738887D01*
X97320526Y-101750987D01*
X97326558Y-101763739D01*
X97331310Y-101777022D01*
X97334738Y-101790706D01*
X97336808Y-101804660D01*
X97337500Y-101818750D01*
X97337500Y-102181250D01*
X97336808Y-102195340D01*
X97334738Y-102209294D01*
X97331310Y-102222978D01*
X97326558Y-102236261D01*
X97320526Y-102249013D01*
X97313274Y-102261113D01*
X97304870Y-102272444D01*
X97295397Y-102282897D01*
X97284944Y-102292370D01*
X97273613Y-102300774D01*
X97261513Y-102308026D01*
X97248761Y-102314058D01*
X97235478Y-102318810D01*
X97221794Y-102322238D01*
X97207840Y-102324308D01*
X97193750Y-102325000D01*
X96906250Y-102325000D01*
X96892160Y-102324308D01*
X96878206Y-102322238D01*
X96864522Y-102318810D01*
X96851239Y-102314058D01*
X96838487Y-102308026D01*
X96826387Y-102300774D01*
X96815056Y-102292370D01*
X96804603Y-102282897D01*
X96795130Y-102272444D01*
X96786726Y-102261113D01*
X96779474Y-102249013D01*
X96773442Y-102236261D01*
X96768690Y-102222978D01*
X96765262Y-102209294D01*
X96763192Y-102195340D01*
X96762500Y-102181250D01*
X96762500Y-101818750D01*
X96763192Y-101804660D01*
X96765262Y-101790706D01*
X96768690Y-101777022D01*
X96773442Y-101763739D01*
X96779474Y-101750987D01*
X96786726Y-101738887D01*
X96795130Y-101727556D01*
X96804603Y-101717103D01*
X96815056Y-101707630D01*
X96826387Y-101699226D01*
X96838487Y-101691974D01*
X96851239Y-101685942D01*
X96864522Y-101681190D01*
X96878206Y-101677762D01*
X96892160Y-101675692D01*
X96906250Y-101675000D01*
X97193750Y-101675000D01*
X97207840Y-101675692D01*
X97207840Y-101675692D01*
G37*
D15*
X97050000Y-102000000D03*
D13*
G36*
X109107840Y-100925692D02*
X109121794Y-100927762D01*
X109135478Y-100931190D01*
X109148761Y-100935942D01*
X109161513Y-100941974D01*
X109173613Y-100949226D01*
X109184944Y-100957630D01*
X109195397Y-100967103D01*
X109204870Y-100977556D01*
X109213274Y-100988887D01*
X109220526Y-101000987D01*
X109226558Y-101013739D01*
X109231310Y-101027022D01*
X109234738Y-101040706D01*
X109236808Y-101054660D01*
X109237500Y-101068750D01*
X109237500Y-101431250D01*
X109236808Y-101445340D01*
X109234738Y-101459294D01*
X109231310Y-101472978D01*
X109226558Y-101486261D01*
X109220526Y-101499013D01*
X109213274Y-101511113D01*
X109204870Y-101522444D01*
X109195397Y-101532897D01*
X109184944Y-101542370D01*
X109173613Y-101550774D01*
X109161513Y-101558026D01*
X109148761Y-101564058D01*
X109135478Y-101568810D01*
X109121794Y-101572238D01*
X109107840Y-101574308D01*
X109093750Y-101575000D01*
X108806250Y-101575000D01*
X108792160Y-101574308D01*
X108778206Y-101572238D01*
X108764522Y-101568810D01*
X108751239Y-101564058D01*
X108738487Y-101558026D01*
X108726387Y-101550774D01*
X108715056Y-101542370D01*
X108704603Y-101532897D01*
X108695130Y-101522444D01*
X108686726Y-101511113D01*
X108679474Y-101499013D01*
X108673442Y-101486261D01*
X108668690Y-101472978D01*
X108665262Y-101459294D01*
X108663192Y-101445340D01*
X108662500Y-101431250D01*
X108662500Y-101068750D01*
X108663192Y-101054660D01*
X108665262Y-101040706D01*
X108668690Y-101027022D01*
X108673442Y-101013739D01*
X108679474Y-101000987D01*
X108686726Y-100988887D01*
X108695130Y-100977556D01*
X108704603Y-100967103D01*
X108715056Y-100957630D01*
X108726387Y-100949226D01*
X108738487Y-100941974D01*
X108751239Y-100935942D01*
X108764522Y-100931190D01*
X108778206Y-100927762D01*
X108792160Y-100925692D01*
X108806250Y-100925000D01*
X109093750Y-100925000D01*
X109107840Y-100925692D01*
X109107840Y-100925692D01*
G37*
D15*
X108950000Y-101250000D03*
D13*
G36*
X108207840Y-100925692D02*
X108221794Y-100927762D01*
X108235478Y-100931190D01*
X108248761Y-100935942D01*
X108261513Y-100941974D01*
X108273613Y-100949226D01*
X108284944Y-100957630D01*
X108295397Y-100967103D01*
X108304870Y-100977556D01*
X108313274Y-100988887D01*
X108320526Y-101000987D01*
X108326558Y-101013739D01*
X108331310Y-101027022D01*
X108334738Y-101040706D01*
X108336808Y-101054660D01*
X108337500Y-101068750D01*
X108337500Y-101431250D01*
X108336808Y-101445340D01*
X108334738Y-101459294D01*
X108331310Y-101472978D01*
X108326558Y-101486261D01*
X108320526Y-101499013D01*
X108313274Y-101511113D01*
X108304870Y-101522444D01*
X108295397Y-101532897D01*
X108284944Y-101542370D01*
X108273613Y-101550774D01*
X108261513Y-101558026D01*
X108248761Y-101564058D01*
X108235478Y-101568810D01*
X108221794Y-101572238D01*
X108207840Y-101574308D01*
X108193750Y-101575000D01*
X107906250Y-101575000D01*
X107892160Y-101574308D01*
X107878206Y-101572238D01*
X107864522Y-101568810D01*
X107851239Y-101564058D01*
X107838487Y-101558026D01*
X107826387Y-101550774D01*
X107815056Y-101542370D01*
X107804603Y-101532897D01*
X107795130Y-101522444D01*
X107786726Y-101511113D01*
X107779474Y-101499013D01*
X107773442Y-101486261D01*
X107768690Y-101472978D01*
X107765262Y-101459294D01*
X107763192Y-101445340D01*
X107762500Y-101431250D01*
X107762500Y-101068750D01*
X107763192Y-101054660D01*
X107765262Y-101040706D01*
X107768690Y-101027022D01*
X107773442Y-101013739D01*
X107779474Y-101000987D01*
X107786726Y-100988887D01*
X107795130Y-100977556D01*
X107804603Y-100967103D01*
X107815056Y-100957630D01*
X107826387Y-100949226D01*
X107838487Y-100941974D01*
X107851239Y-100935942D01*
X107864522Y-100931190D01*
X107878206Y-100927762D01*
X107892160Y-100925692D01*
X107906250Y-100925000D01*
X108193750Y-100925000D01*
X108207840Y-100925692D01*
X108207840Y-100925692D01*
G37*
D15*
X108050000Y-101250000D03*
D13*
G36*
X95108918Y-99500807D02*
X95125178Y-99503218D01*
X95141123Y-99507212D01*
X95156599Y-99512750D01*
X95171459Y-99519778D01*
X95185558Y-99528229D01*
X95198761Y-99538021D01*
X95210940Y-99549060D01*
X95221979Y-99561239D01*
X95231771Y-99574442D01*
X95240222Y-99588541D01*
X95247250Y-99603401D01*
X95252788Y-99618877D01*
X95256782Y-99634822D01*
X95259193Y-99651082D01*
X95260000Y-99667500D01*
X95260000Y-100332500D01*
X95259193Y-100348918D01*
X95256782Y-100365178D01*
X95252788Y-100381123D01*
X95247250Y-100396599D01*
X95240222Y-100411459D01*
X95231771Y-100425558D01*
X95221979Y-100438761D01*
X95210940Y-100450940D01*
X95198761Y-100461979D01*
X95185558Y-100471771D01*
X95171459Y-100480222D01*
X95156599Y-100487250D01*
X95141123Y-100492788D01*
X95125178Y-100496782D01*
X95108918Y-100499193D01*
X95092500Y-100500000D01*
X94757500Y-100500000D01*
X94741082Y-100499193D01*
X94724822Y-100496782D01*
X94708877Y-100492788D01*
X94693401Y-100487250D01*
X94678541Y-100480222D01*
X94664442Y-100471771D01*
X94651239Y-100461979D01*
X94639060Y-100450940D01*
X94628021Y-100438761D01*
X94618229Y-100425558D01*
X94609778Y-100411459D01*
X94602750Y-100396599D01*
X94597212Y-100381123D01*
X94593218Y-100365178D01*
X94590807Y-100348918D01*
X94590000Y-100332500D01*
X94590000Y-99667500D01*
X94590807Y-99651082D01*
X94593218Y-99634822D01*
X94597212Y-99618877D01*
X94602750Y-99603401D01*
X94609778Y-99588541D01*
X94618229Y-99574442D01*
X94628021Y-99561239D01*
X94639060Y-99549060D01*
X94651239Y-99538021D01*
X94664442Y-99528229D01*
X94678541Y-99519778D01*
X94693401Y-99512750D01*
X94708877Y-99507212D01*
X94724822Y-99503218D01*
X94741082Y-99500807D01*
X94757500Y-99500000D01*
X95092500Y-99500000D01*
X95108918Y-99500807D01*
X95108918Y-99500807D01*
G37*
D16*
X94925000Y-100000000D03*
D13*
G36*
X93508918Y-99500807D02*
X93525178Y-99503218D01*
X93541123Y-99507212D01*
X93556599Y-99512750D01*
X93571459Y-99519778D01*
X93585558Y-99528229D01*
X93598761Y-99538021D01*
X93610940Y-99549060D01*
X93621979Y-99561239D01*
X93631771Y-99574442D01*
X93640222Y-99588541D01*
X93647250Y-99603401D01*
X93652788Y-99618877D01*
X93656782Y-99634822D01*
X93659193Y-99651082D01*
X93660000Y-99667500D01*
X93660000Y-100332500D01*
X93659193Y-100348918D01*
X93656782Y-100365178D01*
X93652788Y-100381123D01*
X93647250Y-100396599D01*
X93640222Y-100411459D01*
X93631771Y-100425558D01*
X93621979Y-100438761D01*
X93610940Y-100450940D01*
X93598761Y-100461979D01*
X93585558Y-100471771D01*
X93571459Y-100480222D01*
X93556599Y-100487250D01*
X93541123Y-100492788D01*
X93525178Y-100496782D01*
X93508918Y-100499193D01*
X93492500Y-100500000D01*
X93157500Y-100500000D01*
X93141082Y-100499193D01*
X93124822Y-100496782D01*
X93108877Y-100492788D01*
X93093401Y-100487250D01*
X93078541Y-100480222D01*
X93064442Y-100471771D01*
X93051239Y-100461979D01*
X93039060Y-100450940D01*
X93028021Y-100438761D01*
X93018229Y-100425558D01*
X93009778Y-100411459D01*
X93002750Y-100396599D01*
X92997212Y-100381123D01*
X92993218Y-100365178D01*
X92990807Y-100348918D01*
X92990000Y-100332500D01*
X92990000Y-99667500D01*
X92990807Y-99651082D01*
X92993218Y-99634822D01*
X92997212Y-99618877D01*
X93002750Y-99603401D01*
X93009778Y-99588541D01*
X93018229Y-99574442D01*
X93028021Y-99561239D01*
X93039060Y-99549060D01*
X93051239Y-99538021D01*
X93064442Y-99528229D01*
X93078541Y-99519778D01*
X93093401Y-99512750D01*
X93108877Y-99507212D01*
X93124822Y-99503218D01*
X93141082Y-99500807D01*
X93157500Y-99500000D01*
X93492500Y-99500000D01*
X93508918Y-99500807D01*
X93508918Y-99500807D01*
G37*
D16*
X93325000Y-100000000D03*
D13*
G36*
X93508918Y-111500807D02*
X93525178Y-111503218D01*
X93541123Y-111507212D01*
X93556599Y-111512750D01*
X93571459Y-111519778D01*
X93585558Y-111528229D01*
X93598761Y-111538021D01*
X93610940Y-111549060D01*
X93621979Y-111561239D01*
X93631771Y-111574442D01*
X93640222Y-111588541D01*
X93647250Y-111603401D01*
X93652788Y-111618877D01*
X93656782Y-111634822D01*
X93659193Y-111651082D01*
X93660000Y-111667500D01*
X93660000Y-112332500D01*
X93659193Y-112348918D01*
X93656782Y-112365178D01*
X93652788Y-112381123D01*
X93647250Y-112396599D01*
X93640222Y-112411459D01*
X93631771Y-112425558D01*
X93621979Y-112438761D01*
X93610940Y-112450940D01*
X93598761Y-112461979D01*
X93585558Y-112471771D01*
X93571459Y-112480222D01*
X93556599Y-112487250D01*
X93541123Y-112492788D01*
X93525178Y-112496782D01*
X93508918Y-112499193D01*
X93492500Y-112500000D01*
X93157500Y-112500000D01*
X93141082Y-112499193D01*
X93124822Y-112496782D01*
X93108877Y-112492788D01*
X93093401Y-112487250D01*
X93078541Y-112480222D01*
X93064442Y-112471771D01*
X93051239Y-112461979D01*
X93039060Y-112450940D01*
X93028021Y-112438761D01*
X93018229Y-112425558D01*
X93009778Y-112411459D01*
X93002750Y-112396599D01*
X92997212Y-112381123D01*
X92993218Y-112365178D01*
X92990807Y-112348918D01*
X92990000Y-112332500D01*
X92990000Y-111667500D01*
X92990807Y-111651082D01*
X92993218Y-111634822D01*
X92997212Y-111618877D01*
X93002750Y-111603401D01*
X93009778Y-111588541D01*
X93018229Y-111574442D01*
X93028021Y-111561239D01*
X93039060Y-111549060D01*
X93051239Y-111538021D01*
X93064442Y-111528229D01*
X93078541Y-111519778D01*
X93093401Y-111512750D01*
X93108877Y-111507212D01*
X93124822Y-111503218D01*
X93141082Y-111500807D01*
X93157500Y-111500000D01*
X93492500Y-111500000D01*
X93508918Y-111500807D01*
X93508918Y-111500807D01*
G37*
D16*
X93325000Y-112000000D03*
D13*
G36*
X95108918Y-111500807D02*
X95125178Y-111503218D01*
X95141123Y-111507212D01*
X95156599Y-111512750D01*
X95171459Y-111519778D01*
X95185558Y-111528229D01*
X95198761Y-111538021D01*
X95210940Y-111549060D01*
X95221979Y-111561239D01*
X95231771Y-111574442D01*
X95240222Y-111588541D01*
X95247250Y-111603401D01*
X95252788Y-111618877D01*
X95256782Y-111634822D01*
X95259193Y-111651082D01*
X95260000Y-111667500D01*
X95260000Y-112332500D01*
X95259193Y-112348918D01*
X95256782Y-112365178D01*
X95252788Y-112381123D01*
X95247250Y-112396599D01*
X95240222Y-112411459D01*
X95231771Y-112425558D01*
X95221979Y-112438761D01*
X95210940Y-112450940D01*
X95198761Y-112461979D01*
X95185558Y-112471771D01*
X95171459Y-112480222D01*
X95156599Y-112487250D01*
X95141123Y-112492788D01*
X95125178Y-112496782D01*
X95108918Y-112499193D01*
X95092500Y-112500000D01*
X94757500Y-112500000D01*
X94741082Y-112499193D01*
X94724822Y-112496782D01*
X94708877Y-112492788D01*
X94693401Y-112487250D01*
X94678541Y-112480222D01*
X94664442Y-112471771D01*
X94651239Y-112461979D01*
X94639060Y-112450940D01*
X94628021Y-112438761D01*
X94618229Y-112425558D01*
X94609778Y-112411459D01*
X94602750Y-112396599D01*
X94597212Y-112381123D01*
X94593218Y-112365178D01*
X94590807Y-112348918D01*
X94590000Y-112332500D01*
X94590000Y-111667500D01*
X94590807Y-111651082D01*
X94593218Y-111634822D01*
X94597212Y-111618877D01*
X94602750Y-111603401D01*
X94609778Y-111588541D01*
X94618229Y-111574442D01*
X94628021Y-111561239D01*
X94639060Y-111549060D01*
X94651239Y-111538021D01*
X94664442Y-111528229D01*
X94678541Y-111519778D01*
X94693401Y-111512750D01*
X94708877Y-111507212D01*
X94724822Y-111503218D01*
X94741082Y-111500807D01*
X94757500Y-111500000D01*
X95092500Y-111500000D01*
X95108918Y-111500807D01*
X95108918Y-111500807D01*
G37*
D16*
X94925000Y-112000000D03*
D13*
G36*
X93558918Y-103500807D02*
X93575178Y-103503218D01*
X93591123Y-103507212D01*
X93606599Y-103512750D01*
X93621459Y-103519778D01*
X93635558Y-103528229D01*
X93648761Y-103538021D01*
X93660940Y-103549060D01*
X93671979Y-103561239D01*
X93681771Y-103574442D01*
X93690222Y-103588541D01*
X93697250Y-103603401D01*
X93702788Y-103618877D01*
X93706782Y-103634822D01*
X93709193Y-103651082D01*
X93710000Y-103667500D01*
X93710000Y-104332500D01*
X93709193Y-104348918D01*
X93706782Y-104365178D01*
X93702788Y-104381123D01*
X93697250Y-104396599D01*
X93690222Y-104411459D01*
X93681771Y-104425558D01*
X93671979Y-104438761D01*
X93660940Y-104450940D01*
X93648761Y-104461979D01*
X93635558Y-104471771D01*
X93621459Y-104480222D01*
X93606599Y-104487250D01*
X93591123Y-104492788D01*
X93575178Y-104496782D01*
X93558918Y-104499193D01*
X93542500Y-104500000D01*
X93207500Y-104500000D01*
X93191082Y-104499193D01*
X93174822Y-104496782D01*
X93158877Y-104492788D01*
X93143401Y-104487250D01*
X93128541Y-104480222D01*
X93114442Y-104471771D01*
X93101239Y-104461979D01*
X93089060Y-104450940D01*
X93078021Y-104438761D01*
X93068229Y-104425558D01*
X93059778Y-104411459D01*
X93052750Y-104396599D01*
X93047212Y-104381123D01*
X93043218Y-104365178D01*
X93040807Y-104348918D01*
X93040000Y-104332500D01*
X93040000Y-103667500D01*
X93040807Y-103651082D01*
X93043218Y-103634822D01*
X93047212Y-103618877D01*
X93052750Y-103603401D01*
X93059778Y-103588541D01*
X93068229Y-103574442D01*
X93078021Y-103561239D01*
X93089060Y-103549060D01*
X93101239Y-103538021D01*
X93114442Y-103528229D01*
X93128541Y-103519778D01*
X93143401Y-103512750D01*
X93158877Y-103507212D01*
X93174822Y-103503218D01*
X93191082Y-103500807D01*
X93207500Y-103500000D01*
X93542500Y-103500000D01*
X93558918Y-103500807D01*
X93558918Y-103500807D01*
G37*
D16*
X93375000Y-104000000D03*
D13*
G36*
X95308918Y-103500807D02*
X95325178Y-103503218D01*
X95341123Y-103507212D01*
X95356599Y-103512750D01*
X95371459Y-103519778D01*
X95385558Y-103528229D01*
X95398761Y-103538021D01*
X95410940Y-103549060D01*
X95421979Y-103561239D01*
X95431771Y-103574442D01*
X95440222Y-103588541D01*
X95447250Y-103603401D01*
X95452788Y-103618877D01*
X95456782Y-103634822D01*
X95459193Y-103651082D01*
X95460000Y-103667500D01*
X95460000Y-104332500D01*
X95459193Y-104348918D01*
X95456782Y-104365178D01*
X95452788Y-104381123D01*
X95447250Y-104396599D01*
X95440222Y-104411459D01*
X95431771Y-104425558D01*
X95421979Y-104438761D01*
X95410940Y-104450940D01*
X95398761Y-104461979D01*
X95385558Y-104471771D01*
X95371459Y-104480222D01*
X95356599Y-104487250D01*
X95341123Y-104492788D01*
X95325178Y-104496782D01*
X95308918Y-104499193D01*
X95292500Y-104500000D01*
X94957500Y-104500000D01*
X94941082Y-104499193D01*
X94924822Y-104496782D01*
X94908877Y-104492788D01*
X94893401Y-104487250D01*
X94878541Y-104480222D01*
X94864442Y-104471771D01*
X94851239Y-104461979D01*
X94839060Y-104450940D01*
X94828021Y-104438761D01*
X94818229Y-104425558D01*
X94809778Y-104411459D01*
X94802750Y-104396599D01*
X94797212Y-104381123D01*
X94793218Y-104365178D01*
X94790807Y-104348918D01*
X94790000Y-104332500D01*
X94790000Y-103667500D01*
X94790807Y-103651082D01*
X94793218Y-103634822D01*
X94797212Y-103618877D01*
X94802750Y-103603401D01*
X94809778Y-103588541D01*
X94818229Y-103574442D01*
X94828021Y-103561239D01*
X94839060Y-103549060D01*
X94851239Y-103538021D01*
X94864442Y-103528229D01*
X94878541Y-103519778D01*
X94893401Y-103512750D01*
X94908877Y-103507212D01*
X94924822Y-103503218D01*
X94941082Y-103500807D01*
X94957500Y-103500000D01*
X95292500Y-103500000D01*
X95308918Y-103500807D01*
X95308918Y-103500807D01*
G37*
D16*
X95125000Y-104000000D03*
D13*
G36*
X93558918Y-108900807D02*
X93575178Y-108903218D01*
X93591123Y-108907212D01*
X93606599Y-108912750D01*
X93621459Y-108919778D01*
X93635558Y-108928229D01*
X93648761Y-108938021D01*
X93660940Y-108949060D01*
X93671979Y-108961239D01*
X93681771Y-108974442D01*
X93690222Y-108988541D01*
X93697250Y-109003401D01*
X93702788Y-109018877D01*
X93706782Y-109034822D01*
X93709193Y-109051082D01*
X93710000Y-109067500D01*
X93710000Y-109732500D01*
X93709193Y-109748918D01*
X93706782Y-109765178D01*
X93702788Y-109781123D01*
X93697250Y-109796599D01*
X93690222Y-109811459D01*
X93681771Y-109825558D01*
X93671979Y-109838761D01*
X93660940Y-109850940D01*
X93648761Y-109861979D01*
X93635558Y-109871771D01*
X93621459Y-109880222D01*
X93606599Y-109887250D01*
X93591123Y-109892788D01*
X93575178Y-109896782D01*
X93558918Y-109899193D01*
X93542500Y-109900000D01*
X93207500Y-109900000D01*
X93191082Y-109899193D01*
X93174822Y-109896782D01*
X93158877Y-109892788D01*
X93143401Y-109887250D01*
X93128541Y-109880222D01*
X93114442Y-109871771D01*
X93101239Y-109861979D01*
X93089060Y-109850940D01*
X93078021Y-109838761D01*
X93068229Y-109825558D01*
X93059778Y-109811459D01*
X93052750Y-109796599D01*
X93047212Y-109781123D01*
X93043218Y-109765178D01*
X93040807Y-109748918D01*
X93040000Y-109732500D01*
X93040000Y-109067500D01*
X93040807Y-109051082D01*
X93043218Y-109034822D01*
X93047212Y-109018877D01*
X93052750Y-109003401D01*
X93059778Y-108988541D01*
X93068229Y-108974442D01*
X93078021Y-108961239D01*
X93089060Y-108949060D01*
X93101239Y-108938021D01*
X93114442Y-108928229D01*
X93128541Y-108919778D01*
X93143401Y-108912750D01*
X93158877Y-108907212D01*
X93174822Y-108903218D01*
X93191082Y-108900807D01*
X93207500Y-108900000D01*
X93542500Y-108900000D01*
X93558918Y-108900807D01*
X93558918Y-108900807D01*
G37*
D16*
X93375000Y-109400000D03*
D13*
G36*
X95308918Y-108900807D02*
X95325178Y-108903218D01*
X95341123Y-108907212D01*
X95356599Y-108912750D01*
X95371459Y-108919778D01*
X95385558Y-108928229D01*
X95398761Y-108938021D01*
X95410940Y-108949060D01*
X95421979Y-108961239D01*
X95431771Y-108974442D01*
X95440222Y-108988541D01*
X95447250Y-109003401D01*
X95452788Y-109018877D01*
X95456782Y-109034822D01*
X95459193Y-109051082D01*
X95460000Y-109067500D01*
X95460000Y-109732500D01*
X95459193Y-109748918D01*
X95456782Y-109765178D01*
X95452788Y-109781123D01*
X95447250Y-109796599D01*
X95440222Y-109811459D01*
X95431771Y-109825558D01*
X95421979Y-109838761D01*
X95410940Y-109850940D01*
X95398761Y-109861979D01*
X95385558Y-109871771D01*
X95371459Y-109880222D01*
X95356599Y-109887250D01*
X95341123Y-109892788D01*
X95325178Y-109896782D01*
X95308918Y-109899193D01*
X95292500Y-109900000D01*
X94957500Y-109900000D01*
X94941082Y-109899193D01*
X94924822Y-109896782D01*
X94908877Y-109892788D01*
X94893401Y-109887250D01*
X94878541Y-109880222D01*
X94864442Y-109871771D01*
X94851239Y-109861979D01*
X94839060Y-109850940D01*
X94828021Y-109838761D01*
X94818229Y-109825558D01*
X94809778Y-109811459D01*
X94802750Y-109796599D01*
X94797212Y-109781123D01*
X94793218Y-109765178D01*
X94790807Y-109748918D01*
X94790000Y-109732500D01*
X94790000Y-109067500D01*
X94790807Y-109051082D01*
X94793218Y-109034822D01*
X94797212Y-109018877D01*
X94802750Y-109003401D01*
X94809778Y-108988541D01*
X94818229Y-108974442D01*
X94828021Y-108961239D01*
X94839060Y-108949060D01*
X94851239Y-108938021D01*
X94864442Y-108928229D01*
X94878541Y-108919778D01*
X94893401Y-108912750D01*
X94908877Y-108907212D01*
X94924822Y-108903218D01*
X94941082Y-108900807D01*
X94957500Y-108900000D01*
X95292500Y-108900000D01*
X95308918Y-108900807D01*
X95308918Y-108900807D01*
G37*
D16*
X95125000Y-109400000D03*
D13*
G36*
X109107840Y-110675692D02*
X109121794Y-110677762D01*
X109135478Y-110681190D01*
X109148761Y-110685942D01*
X109161513Y-110691974D01*
X109173613Y-110699226D01*
X109184944Y-110707630D01*
X109195397Y-110717103D01*
X109204870Y-110727556D01*
X109213274Y-110738887D01*
X109220526Y-110750987D01*
X109226558Y-110763739D01*
X109231310Y-110777022D01*
X109234738Y-110790706D01*
X109236808Y-110804660D01*
X109237500Y-110818750D01*
X109237500Y-111181250D01*
X109236808Y-111195340D01*
X109234738Y-111209294D01*
X109231310Y-111222978D01*
X109226558Y-111236261D01*
X109220526Y-111249013D01*
X109213274Y-111261113D01*
X109204870Y-111272444D01*
X109195397Y-111282897D01*
X109184944Y-111292370D01*
X109173613Y-111300774D01*
X109161513Y-111308026D01*
X109148761Y-111314058D01*
X109135478Y-111318810D01*
X109121794Y-111322238D01*
X109107840Y-111324308D01*
X109093750Y-111325000D01*
X108806250Y-111325000D01*
X108792160Y-111324308D01*
X108778206Y-111322238D01*
X108764522Y-111318810D01*
X108751239Y-111314058D01*
X108738487Y-111308026D01*
X108726387Y-111300774D01*
X108715056Y-111292370D01*
X108704603Y-111282897D01*
X108695130Y-111272444D01*
X108686726Y-111261113D01*
X108679474Y-111249013D01*
X108673442Y-111236261D01*
X108668690Y-111222978D01*
X108665262Y-111209294D01*
X108663192Y-111195340D01*
X108662500Y-111181250D01*
X108662500Y-110818750D01*
X108663192Y-110804660D01*
X108665262Y-110790706D01*
X108668690Y-110777022D01*
X108673442Y-110763739D01*
X108679474Y-110750987D01*
X108686726Y-110738887D01*
X108695130Y-110727556D01*
X108704603Y-110717103D01*
X108715056Y-110707630D01*
X108726387Y-110699226D01*
X108738487Y-110691974D01*
X108751239Y-110685942D01*
X108764522Y-110681190D01*
X108778206Y-110677762D01*
X108792160Y-110675692D01*
X108806250Y-110675000D01*
X109093750Y-110675000D01*
X109107840Y-110675692D01*
X109107840Y-110675692D01*
G37*
D15*
X108950000Y-111000000D03*
D13*
G36*
X108207840Y-110675692D02*
X108221794Y-110677762D01*
X108235478Y-110681190D01*
X108248761Y-110685942D01*
X108261513Y-110691974D01*
X108273613Y-110699226D01*
X108284944Y-110707630D01*
X108295397Y-110717103D01*
X108304870Y-110727556D01*
X108313274Y-110738887D01*
X108320526Y-110750987D01*
X108326558Y-110763739D01*
X108331310Y-110777022D01*
X108334738Y-110790706D01*
X108336808Y-110804660D01*
X108337500Y-110818750D01*
X108337500Y-111181250D01*
X108336808Y-111195340D01*
X108334738Y-111209294D01*
X108331310Y-111222978D01*
X108326558Y-111236261D01*
X108320526Y-111249013D01*
X108313274Y-111261113D01*
X108304870Y-111272444D01*
X108295397Y-111282897D01*
X108284944Y-111292370D01*
X108273613Y-111300774D01*
X108261513Y-111308026D01*
X108248761Y-111314058D01*
X108235478Y-111318810D01*
X108221794Y-111322238D01*
X108207840Y-111324308D01*
X108193750Y-111325000D01*
X107906250Y-111325000D01*
X107892160Y-111324308D01*
X107878206Y-111322238D01*
X107864522Y-111318810D01*
X107851239Y-111314058D01*
X107838487Y-111308026D01*
X107826387Y-111300774D01*
X107815056Y-111292370D01*
X107804603Y-111282897D01*
X107795130Y-111272444D01*
X107786726Y-111261113D01*
X107779474Y-111249013D01*
X107773442Y-111236261D01*
X107768690Y-111222978D01*
X107765262Y-111209294D01*
X107763192Y-111195340D01*
X107762500Y-111181250D01*
X107762500Y-110818750D01*
X107763192Y-110804660D01*
X107765262Y-110790706D01*
X107768690Y-110777022D01*
X107773442Y-110763739D01*
X107779474Y-110750987D01*
X107786726Y-110738887D01*
X107795130Y-110727556D01*
X107804603Y-110717103D01*
X107815056Y-110707630D01*
X107826387Y-110699226D01*
X107838487Y-110691974D01*
X107851239Y-110685942D01*
X107864522Y-110681190D01*
X107878206Y-110677762D01*
X107892160Y-110675692D01*
X107906250Y-110675000D01*
X108193750Y-110675000D01*
X108207840Y-110675692D01*
X108207840Y-110675692D01*
G37*
D15*
X108050000Y-111000000D03*
D13*
G36*
X108207840Y-102925692D02*
X108221794Y-102927762D01*
X108235478Y-102931190D01*
X108248761Y-102935942D01*
X108261513Y-102941974D01*
X108273613Y-102949226D01*
X108284944Y-102957630D01*
X108295397Y-102967103D01*
X108304870Y-102977556D01*
X108313274Y-102988887D01*
X108320526Y-103000987D01*
X108326558Y-103013739D01*
X108331310Y-103027022D01*
X108334738Y-103040706D01*
X108336808Y-103054660D01*
X108337500Y-103068750D01*
X108337500Y-103431250D01*
X108336808Y-103445340D01*
X108334738Y-103459294D01*
X108331310Y-103472978D01*
X108326558Y-103486261D01*
X108320526Y-103499013D01*
X108313274Y-103511113D01*
X108304870Y-103522444D01*
X108295397Y-103532897D01*
X108284944Y-103542370D01*
X108273613Y-103550774D01*
X108261513Y-103558026D01*
X108248761Y-103564058D01*
X108235478Y-103568810D01*
X108221794Y-103572238D01*
X108207840Y-103574308D01*
X108193750Y-103575000D01*
X107906250Y-103575000D01*
X107892160Y-103574308D01*
X107878206Y-103572238D01*
X107864522Y-103568810D01*
X107851239Y-103564058D01*
X107838487Y-103558026D01*
X107826387Y-103550774D01*
X107815056Y-103542370D01*
X107804603Y-103532897D01*
X107795130Y-103522444D01*
X107786726Y-103511113D01*
X107779474Y-103499013D01*
X107773442Y-103486261D01*
X107768690Y-103472978D01*
X107765262Y-103459294D01*
X107763192Y-103445340D01*
X107762500Y-103431250D01*
X107762500Y-103068750D01*
X107763192Y-103054660D01*
X107765262Y-103040706D01*
X107768690Y-103027022D01*
X107773442Y-103013739D01*
X107779474Y-103000987D01*
X107786726Y-102988887D01*
X107795130Y-102977556D01*
X107804603Y-102967103D01*
X107815056Y-102957630D01*
X107826387Y-102949226D01*
X107838487Y-102941974D01*
X107851239Y-102935942D01*
X107864522Y-102931190D01*
X107878206Y-102927762D01*
X107892160Y-102925692D01*
X107906250Y-102925000D01*
X108193750Y-102925000D01*
X108207840Y-102925692D01*
X108207840Y-102925692D01*
G37*
D15*
X108050000Y-103250000D03*
D13*
G36*
X109107840Y-102925692D02*
X109121794Y-102927762D01*
X109135478Y-102931190D01*
X109148761Y-102935942D01*
X109161513Y-102941974D01*
X109173613Y-102949226D01*
X109184944Y-102957630D01*
X109195397Y-102967103D01*
X109204870Y-102977556D01*
X109213274Y-102988887D01*
X109220526Y-103000987D01*
X109226558Y-103013739D01*
X109231310Y-103027022D01*
X109234738Y-103040706D01*
X109236808Y-103054660D01*
X109237500Y-103068750D01*
X109237500Y-103431250D01*
X109236808Y-103445340D01*
X109234738Y-103459294D01*
X109231310Y-103472978D01*
X109226558Y-103486261D01*
X109220526Y-103499013D01*
X109213274Y-103511113D01*
X109204870Y-103522444D01*
X109195397Y-103532897D01*
X109184944Y-103542370D01*
X109173613Y-103550774D01*
X109161513Y-103558026D01*
X109148761Y-103564058D01*
X109135478Y-103568810D01*
X109121794Y-103572238D01*
X109107840Y-103574308D01*
X109093750Y-103575000D01*
X108806250Y-103575000D01*
X108792160Y-103574308D01*
X108778206Y-103572238D01*
X108764522Y-103568810D01*
X108751239Y-103564058D01*
X108738487Y-103558026D01*
X108726387Y-103550774D01*
X108715056Y-103542370D01*
X108704603Y-103532897D01*
X108695130Y-103522444D01*
X108686726Y-103511113D01*
X108679474Y-103499013D01*
X108673442Y-103486261D01*
X108668690Y-103472978D01*
X108665262Y-103459294D01*
X108663192Y-103445340D01*
X108662500Y-103431250D01*
X108662500Y-103068750D01*
X108663192Y-103054660D01*
X108665262Y-103040706D01*
X108668690Y-103027022D01*
X108673442Y-103013739D01*
X108679474Y-103000987D01*
X108686726Y-102988887D01*
X108695130Y-102977556D01*
X108704603Y-102967103D01*
X108715056Y-102957630D01*
X108726387Y-102949226D01*
X108738487Y-102941974D01*
X108751239Y-102935942D01*
X108764522Y-102931190D01*
X108778206Y-102927762D01*
X108792160Y-102925692D01*
X108806250Y-102925000D01*
X109093750Y-102925000D01*
X109107840Y-102925692D01*
X109107840Y-102925692D01*
G37*
D15*
X108950000Y-103250000D03*
D13*
G36*
X97220340Y-107925692D02*
X97234294Y-107927762D01*
X97247978Y-107931190D01*
X97261261Y-107935942D01*
X97274013Y-107941974D01*
X97286113Y-107949226D01*
X97297444Y-107957630D01*
X97307897Y-107967103D01*
X97317370Y-107977556D01*
X97325774Y-107988887D01*
X97333026Y-108000987D01*
X97339058Y-108013739D01*
X97343810Y-108027022D01*
X97347238Y-108040706D01*
X97349308Y-108054660D01*
X97350000Y-108068750D01*
X97350000Y-108431250D01*
X97349308Y-108445340D01*
X97347238Y-108459294D01*
X97343810Y-108472978D01*
X97339058Y-108486261D01*
X97333026Y-108499013D01*
X97325774Y-108511113D01*
X97317370Y-108522444D01*
X97307897Y-108532897D01*
X97297444Y-108542370D01*
X97286113Y-108550774D01*
X97274013Y-108558026D01*
X97261261Y-108564058D01*
X97247978Y-108568810D01*
X97234294Y-108572238D01*
X97220340Y-108574308D01*
X97206250Y-108575000D01*
X96918750Y-108575000D01*
X96904660Y-108574308D01*
X96890706Y-108572238D01*
X96877022Y-108568810D01*
X96863739Y-108564058D01*
X96850987Y-108558026D01*
X96838887Y-108550774D01*
X96827556Y-108542370D01*
X96817103Y-108532897D01*
X96807630Y-108522444D01*
X96799226Y-108511113D01*
X96791974Y-108499013D01*
X96785942Y-108486261D01*
X96781190Y-108472978D01*
X96777762Y-108459294D01*
X96775692Y-108445340D01*
X96775000Y-108431250D01*
X96775000Y-108068750D01*
X96775692Y-108054660D01*
X96777762Y-108040706D01*
X96781190Y-108027022D01*
X96785942Y-108013739D01*
X96791974Y-108000987D01*
X96799226Y-107988887D01*
X96807630Y-107977556D01*
X96817103Y-107967103D01*
X96827556Y-107957630D01*
X96838887Y-107949226D01*
X96850987Y-107941974D01*
X96863739Y-107935942D01*
X96877022Y-107931190D01*
X96890706Y-107927762D01*
X96904660Y-107925692D01*
X96918750Y-107925000D01*
X97206250Y-107925000D01*
X97220340Y-107925692D01*
X97220340Y-107925692D01*
G37*
D15*
X97062500Y-108250000D03*
D13*
G36*
X98120340Y-107925692D02*
X98134294Y-107927762D01*
X98147978Y-107931190D01*
X98161261Y-107935942D01*
X98174013Y-107941974D01*
X98186113Y-107949226D01*
X98197444Y-107957630D01*
X98207897Y-107967103D01*
X98217370Y-107977556D01*
X98225774Y-107988887D01*
X98233026Y-108000987D01*
X98239058Y-108013739D01*
X98243810Y-108027022D01*
X98247238Y-108040706D01*
X98249308Y-108054660D01*
X98250000Y-108068750D01*
X98250000Y-108431250D01*
X98249308Y-108445340D01*
X98247238Y-108459294D01*
X98243810Y-108472978D01*
X98239058Y-108486261D01*
X98233026Y-108499013D01*
X98225774Y-108511113D01*
X98217370Y-108522444D01*
X98207897Y-108532897D01*
X98197444Y-108542370D01*
X98186113Y-108550774D01*
X98174013Y-108558026D01*
X98161261Y-108564058D01*
X98147978Y-108568810D01*
X98134294Y-108572238D01*
X98120340Y-108574308D01*
X98106250Y-108575000D01*
X97818750Y-108575000D01*
X97804660Y-108574308D01*
X97790706Y-108572238D01*
X97777022Y-108568810D01*
X97763739Y-108564058D01*
X97750987Y-108558026D01*
X97738887Y-108550774D01*
X97727556Y-108542370D01*
X97717103Y-108532897D01*
X97707630Y-108522444D01*
X97699226Y-108511113D01*
X97691974Y-108499013D01*
X97685942Y-108486261D01*
X97681190Y-108472978D01*
X97677762Y-108459294D01*
X97675692Y-108445340D01*
X97675000Y-108431250D01*
X97675000Y-108068750D01*
X97675692Y-108054660D01*
X97677762Y-108040706D01*
X97681190Y-108027022D01*
X97685942Y-108013739D01*
X97691974Y-108000987D01*
X97699226Y-107988887D01*
X97707630Y-107977556D01*
X97717103Y-107967103D01*
X97727556Y-107957630D01*
X97738887Y-107949226D01*
X97750987Y-107941974D01*
X97763739Y-107935942D01*
X97777022Y-107931190D01*
X97790706Y-107927762D01*
X97804660Y-107925692D01*
X97818750Y-107925000D01*
X98106250Y-107925000D01*
X98120340Y-107925692D01*
X98120340Y-107925692D01*
G37*
D15*
X97962500Y-108250000D03*
D13*
G36*
X98107840Y-102975692D02*
X98121794Y-102977762D01*
X98135478Y-102981190D01*
X98148761Y-102985942D01*
X98161513Y-102991974D01*
X98173613Y-102999226D01*
X98184944Y-103007630D01*
X98195397Y-103017103D01*
X98204870Y-103027556D01*
X98213274Y-103038887D01*
X98220526Y-103050987D01*
X98226558Y-103063739D01*
X98231310Y-103077022D01*
X98234738Y-103090706D01*
X98236808Y-103104660D01*
X98237500Y-103118750D01*
X98237500Y-103481250D01*
X98236808Y-103495340D01*
X98234738Y-103509294D01*
X98231310Y-103522978D01*
X98226558Y-103536261D01*
X98220526Y-103549013D01*
X98213274Y-103561113D01*
X98204870Y-103572444D01*
X98195397Y-103582897D01*
X98184944Y-103592370D01*
X98173613Y-103600774D01*
X98161513Y-103608026D01*
X98148761Y-103614058D01*
X98135478Y-103618810D01*
X98121794Y-103622238D01*
X98107840Y-103624308D01*
X98093750Y-103625000D01*
X97806250Y-103625000D01*
X97792160Y-103624308D01*
X97778206Y-103622238D01*
X97764522Y-103618810D01*
X97751239Y-103614058D01*
X97738487Y-103608026D01*
X97726387Y-103600774D01*
X97715056Y-103592370D01*
X97704603Y-103582897D01*
X97695130Y-103572444D01*
X97686726Y-103561113D01*
X97679474Y-103549013D01*
X97673442Y-103536261D01*
X97668690Y-103522978D01*
X97665262Y-103509294D01*
X97663192Y-103495340D01*
X97662500Y-103481250D01*
X97662500Y-103118750D01*
X97663192Y-103104660D01*
X97665262Y-103090706D01*
X97668690Y-103077022D01*
X97673442Y-103063739D01*
X97679474Y-103050987D01*
X97686726Y-103038887D01*
X97695130Y-103027556D01*
X97704603Y-103017103D01*
X97715056Y-103007630D01*
X97726387Y-102999226D01*
X97738487Y-102991974D01*
X97751239Y-102985942D01*
X97764522Y-102981190D01*
X97778206Y-102977762D01*
X97792160Y-102975692D01*
X97806250Y-102975000D01*
X98093750Y-102975000D01*
X98107840Y-102975692D01*
X98107840Y-102975692D01*
G37*
D15*
X97950000Y-103300000D03*
D13*
G36*
X97207840Y-102975692D02*
X97221794Y-102977762D01*
X97235478Y-102981190D01*
X97248761Y-102985942D01*
X97261513Y-102991974D01*
X97273613Y-102999226D01*
X97284944Y-103007630D01*
X97295397Y-103017103D01*
X97304870Y-103027556D01*
X97313274Y-103038887D01*
X97320526Y-103050987D01*
X97326558Y-103063739D01*
X97331310Y-103077022D01*
X97334738Y-103090706D01*
X97336808Y-103104660D01*
X97337500Y-103118750D01*
X97337500Y-103481250D01*
X97336808Y-103495340D01*
X97334738Y-103509294D01*
X97331310Y-103522978D01*
X97326558Y-103536261D01*
X97320526Y-103549013D01*
X97313274Y-103561113D01*
X97304870Y-103572444D01*
X97295397Y-103582897D01*
X97284944Y-103592370D01*
X97273613Y-103600774D01*
X97261513Y-103608026D01*
X97248761Y-103614058D01*
X97235478Y-103618810D01*
X97221794Y-103622238D01*
X97207840Y-103624308D01*
X97193750Y-103625000D01*
X96906250Y-103625000D01*
X96892160Y-103624308D01*
X96878206Y-103622238D01*
X96864522Y-103618810D01*
X96851239Y-103614058D01*
X96838487Y-103608026D01*
X96826387Y-103600774D01*
X96815056Y-103592370D01*
X96804603Y-103582897D01*
X96795130Y-103572444D01*
X96786726Y-103561113D01*
X96779474Y-103549013D01*
X96773442Y-103536261D01*
X96768690Y-103522978D01*
X96765262Y-103509294D01*
X96763192Y-103495340D01*
X96762500Y-103481250D01*
X96762500Y-103118750D01*
X96763192Y-103104660D01*
X96765262Y-103090706D01*
X96768690Y-103077022D01*
X96773442Y-103063739D01*
X96779474Y-103050987D01*
X96786726Y-103038887D01*
X96795130Y-103027556D01*
X96804603Y-103017103D01*
X96815056Y-103007630D01*
X96826387Y-102999226D01*
X96838487Y-102991974D01*
X96851239Y-102985942D01*
X96864522Y-102981190D01*
X96878206Y-102977762D01*
X96892160Y-102975692D01*
X96906250Y-102975000D01*
X97193750Y-102975000D01*
X97207840Y-102975692D01*
X97207840Y-102975692D01*
G37*
D15*
X97050000Y-103300000D03*
D17*
X103300000Y-111200000D03*
X102100000Y-111200000D03*
X100900000Y-111200000D03*
M02*
