G04 #@! TF.GenerationSoftware,KiCad,Pcbnew,no-vcs-found-d3998a2~61~ubuntu16.04.1*
G04 #@! TF.CreationDate,2018-02-12T21:31:16+01:00*
G04 #@! TF.ProjectId,ubmp_v1r1,75626D705F763172312E6B696361645F,rev?*
G04 #@! TF.SameCoordinates,Original*
G04 #@! TF.FileFunction,Drawing*
%FSLAX46Y46*%
G04 Gerber Fmt 4.6, Leading zero omitted, Abs format (unit mm)*
G04 Created by KiCad (PCBNEW no-vcs-found-d3998a2~61~ubuntu16.04.1) date Mon Feb 12 21:31:16 2018*
%MOMM*%
%LPD*%
G01*
G04 APERTURE LIST*
%ADD10C,0.300000*%
G04 APERTURE END LIST*
D10*
X75085714Y-97478571D02*
X75085714Y-98478571D01*
X74728571Y-96907142D02*
X74371428Y-97978571D01*
X75300000Y-97978571D01*
X77800000Y-97050000D02*
X77657142Y-96978571D01*
X77442857Y-96978571D01*
X77228571Y-97050000D01*
X77085714Y-97192857D01*
X77014285Y-97335714D01*
X76942857Y-97621428D01*
X76942857Y-97835714D01*
X77014285Y-98121428D01*
X77085714Y-98264285D01*
X77228571Y-98407142D01*
X77442857Y-98478571D01*
X77585714Y-98478571D01*
X77800000Y-98407142D01*
X77871428Y-98335714D01*
X77871428Y-97835714D01*
X77585714Y-97835714D01*
X78728571Y-98478571D02*
X78585714Y-98407142D01*
X78514285Y-98335714D01*
X78442857Y-98192857D01*
X78442857Y-97764285D01*
X78514285Y-97621428D01*
X78585714Y-97550000D01*
X78728571Y-97478571D01*
X78942857Y-97478571D01*
X79085714Y-97550000D01*
X79157142Y-97621428D01*
X79228571Y-97764285D01*
X79228571Y-98192857D01*
X79157142Y-98335714D01*
X79085714Y-98407142D01*
X78942857Y-98478571D01*
X78728571Y-98478571D01*
X80085714Y-98478571D02*
X79942857Y-98407142D01*
X79871428Y-98264285D01*
X79871428Y-96978571D01*
X81300000Y-98478571D02*
X81300000Y-96978571D01*
X81300000Y-98407142D02*
X81157142Y-98478571D01*
X80871428Y-98478571D01*
X80728571Y-98407142D01*
X80657142Y-98335714D01*
X80585714Y-98192857D01*
X80585714Y-97764285D01*
X80657142Y-97621428D01*
X80728571Y-97550000D01*
X80871428Y-97478571D01*
X81157142Y-97478571D01*
X81300000Y-97550000D01*
X82942857Y-97478571D02*
X83514285Y-97478571D01*
X83157142Y-98478571D02*
X83157142Y-97192857D01*
X83228571Y-97050000D01*
X83371428Y-96978571D01*
X83514285Y-96978571D01*
X84014285Y-98478571D02*
X84014285Y-97478571D01*
X84014285Y-96978571D02*
X83942857Y-97050000D01*
X84014285Y-97121428D01*
X84085714Y-97050000D01*
X84014285Y-96978571D01*
X84014285Y-97121428D01*
X84728571Y-97478571D02*
X84728571Y-98478571D01*
X84728571Y-97621428D02*
X84800000Y-97550000D01*
X84942857Y-97478571D01*
X85157142Y-97478571D01*
X85300000Y-97550000D01*
X85371428Y-97692857D01*
X85371428Y-98478571D01*
X86728571Y-97478571D02*
X86728571Y-98692857D01*
X86657142Y-98835714D01*
X86585714Y-98907142D01*
X86442857Y-98978571D01*
X86228571Y-98978571D01*
X86085714Y-98907142D01*
X86728571Y-98407142D02*
X86585714Y-98478571D01*
X86300000Y-98478571D01*
X86157142Y-98407142D01*
X86085714Y-98335714D01*
X86014285Y-98192857D01*
X86014285Y-97764285D01*
X86085714Y-97621428D01*
X86157142Y-97550000D01*
X86300000Y-97478571D01*
X86585714Y-97478571D01*
X86728571Y-97550000D01*
X88014285Y-98407142D02*
X87871428Y-98478571D01*
X87585714Y-98478571D01*
X87442857Y-98407142D01*
X87371428Y-98264285D01*
X87371428Y-97692857D01*
X87442857Y-97550000D01*
X87585714Y-97478571D01*
X87871428Y-97478571D01*
X88014285Y-97550000D01*
X88085714Y-97692857D01*
X88085714Y-97835714D01*
X87371428Y-97978571D01*
X88728571Y-98478571D02*
X88728571Y-97478571D01*
X88728571Y-97764285D02*
X88800000Y-97621428D01*
X88871428Y-97550000D01*
X89014285Y-97478571D01*
X89157142Y-97478571D01*
X89585714Y-98407142D02*
X89728571Y-98478571D01*
X90014285Y-98478571D01*
X90157142Y-98407142D01*
X90228571Y-98264285D01*
X90228571Y-98192857D01*
X90157142Y-98050000D01*
X90014285Y-97978571D01*
X89800000Y-97978571D01*
X89657142Y-97907142D01*
X89585714Y-97764285D01*
X89585714Y-97692857D01*
X89657142Y-97550000D01*
X89800000Y-97478571D01*
X90014285Y-97478571D01*
X90157142Y-97550000D01*
X125987335Y-102024632D02*
X125981213Y-101167511D01*
X125984274Y-101596072D02*
X127484235Y-101585358D01*
X127268935Y-101444035D01*
X127125061Y-101302202D01*
X127052614Y-101159858D01*
X126996493Y-103303171D02*
X125996518Y-103310314D01*
X127565356Y-102941956D02*
X126491404Y-102592475D01*
X126498036Y-103521023D01*
X126074067Y-104166924D02*
X126002641Y-104167435D01*
X125859277Y-104097028D01*
X125787340Y-104026112D01*
X127509235Y-105085268D02*
X127510255Y-105228122D01*
X127439849Y-105371485D01*
X127368932Y-105443422D01*
X127226589Y-105515870D01*
X126941392Y-105589337D01*
X126584258Y-105591888D01*
X126298041Y-105522502D01*
X126154678Y-105452096D01*
X126082741Y-105381179D01*
X126010293Y-105238836D01*
X126009273Y-105095982D01*
X126079679Y-104952619D01*
X126150596Y-104880682D01*
X126292939Y-104808235D01*
X126578136Y-104734767D01*
X126935270Y-104732216D01*
X127221487Y-104801602D01*
X127364851Y-104872008D01*
X127436788Y-104942925D01*
X127509235Y-105085268D01*
X126025599Y-107381638D02*
X127025574Y-107374496D01*
X126882720Y-107375516D02*
X126954657Y-107446433D01*
X127027104Y-107588776D01*
X127028635Y-107803056D01*
X126958228Y-107946420D01*
X126815885Y-108018867D01*
X126030191Y-108024479D01*
X126815885Y-108018867D02*
X126959249Y-108089273D01*
X127031696Y-108231617D01*
X127033227Y-108445897D01*
X126962820Y-108589261D01*
X126820477Y-108661708D01*
X126034783Y-108667320D01*
X126039885Y-109381587D02*
X127039859Y-109374445D01*
X126897006Y-109375465D02*
X126968942Y-109446382D01*
X127041390Y-109588725D01*
X127042920Y-109803005D01*
X126972514Y-109946369D01*
X126830171Y-110018816D01*
X126044476Y-110024428D01*
X126830171Y-110018816D02*
X126973534Y-110089222D01*
X127045981Y-110231566D01*
X127047512Y-110445846D01*
X126977106Y-110589210D01*
X126834762Y-110661657D01*
X126049068Y-110667269D01*
X125393985Y-112957900D02*
X125293985Y-98957900D01*
X119500000Y-113000000D02*
X128093916Y-112938615D01*
X119400000Y-99000000D02*
X127993916Y-98938615D01*
X125293985Y-98957900D02*
X125888437Y-100080186D01*
X125293985Y-98957900D02*
X124715625Y-100088564D01*
X125393985Y-112957900D02*
X125972345Y-111827236D01*
X125393985Y-112957900D02*
X124799533Y-111835614D01*
X94678571Y-119028571D02*
X94678571Y-120028571D01*
X94321428Y-118457142D02*
X93964285Y-119528571D01*
X94892857Y-119528571D01*
X96250000Y-120028571D02*
X95392857Y-120028571D01*
X95821428Y-120028571D02*
X95821428Y-118528571D01*
X95678571Y-118742857D01*
X95535714Y-118885714D01*
X95392857Y-118957142D01*
X96964285Y-119957142D02*
X96964285Y-120028571D01*
X96892857Y-120171428D01*
X96821428Y-120242857D01*
X98321428Y-118528571D02*
X97607142Y-118528571D01*
X97535714Y-119242857D01*
X97607142Y-119171428D01*
X97750000Y-119100000D01*
X98107142Y-119100000D01*
X98250000Y-119171428D01*
X98321428Y-119242857D01*
X98392857Y-119385714D01*
X98392857Y-119742857D01*
X98321428Y-119885714D01*
X98250000Y-119957142D01*
X98107142Y-120028571D01*
X97750000Y-120028571D01*
X97607142Y-119957142D01*
X97535714Y-119885714D01*
X100178571Y-120028571D02*
X100178571Y-119028571D01*
X100178571Y-119171428D02*
X100250000Y-119100000D01*
X100392857Y-119028571D01*
X100607142Y-119028571D01*
X100750000Y-119100000D01*
X100821428Y-119242857D01*
X100821428Y-120028571D01*
X100821428Y-119242857D02*
X100892857Y-119100000D01*
X101035714Y-119028571D01*
X101250000Y-119028571D01*
X101392857Y-119100000D01*
X101464285Y-119242857D01*
X101464285Y-120028571D01*
X102178571Y-120028571D02*
X102178571Y-119028571D01*
X102178571Y-119171428D02*
X102250000Y-119100000D01*
X102392857Y-119028571D01*
X102607142Y-119028571D01*
X102750000Y-119100000D01*
X102821428Y-119242857D01*
X102821428Y-120028571D01*
X102821428Y-119242857D02*
X102892857Y-119100000D01*
X103035714Y-119028571D01*
X103250000Y-119028571D01*
X103392857Y-119100000D01*
X103464285Y-119242857D01*
X103464285Y-120028571D01*
X78000000Y-118000000D02*
X119500000Y-118000000D01*
X78000000Y-113000000D02*
X78000000Y-120700000D01*
X119500000Y-113000000D02*
X119500000Y-120700000D01*
X119500000Y-118000000D02*
X118373496Y-118586421D01*
X119500000Y-118000000D02*
X118373496Y-117413579D01*
X78000000Y-118000000D02*
X79126504Y-118586421D01*
X78000000Y-118000000D02*
X79126504Y-117413579D01*
M02*
