G04 #@! TF.GenerationSoftware,KiCad,Pcbnew,5.0.0-rc1-44a33f2~62~ubuntu16.04.1*
G04 #@! TF.CreationDate,2018-03-27T11:26:02+02:00*
G04 #@! TF.ProjectId,ubmp_v1_pcbusb,75626D705F76315F7063627573622E6B,rev?*
G04 #@! TF.SameCoordinates,Original*
G04 #@! TF.FileFunction,Drawing*
%FSLAX46Y46*%
G04 Gerber Fmt 4.6, Leading zero omitted, Abs format (unit mm)*
G04 Created by KiCad (PCBNEW 5.0.0-rc1-44a33f2~62~ubuntu16.04.1) date Tue Mar 27 11:26:02 2018*
%MOMM*%
%LPD*%
G01*
G04 APERTURE LIST*
%ADD10C,0.300000*%
G04 APERTURE END LIST*
D10*
X125987335Y-102024632D02*
X125981213Y-101167511D01*
X125984274Y-101596072D02*
X127484235Y-101585358D01*
X127268935Y-101444035D01*
X127125061Y-101302202D01*
X127052614Y-101159858D01*
X126996493Y-103303171D02*
X125996518Y-103310314D01*
X127565356Y-102941956D02*
X126491404Y-102592475D01*
X126498036Y-103521023D01*
X126074067Y-104166924D02*
X126002641Y-104167435D01*
X125859277Y-104097028D01*
X125787340Y-104026112D01*
X127509235Y-105085268D02*
X127510255Y-105228122D01*
X127439849Y-105371485D01*
X127368932Y-105443422D01*
X127226589Y-105515870D01*
X126941392Y-105589337D01*
X126584258Y-105591888D01*
X126298041Y-105522502D01*
X126154678Y-105452096D01*
X126082741Y-105381179D01*
X126010293Y-105238836D01*
X126009273Y-105095982D01*
X126079679Y-104952619D01*
X126150596Y-104880682D01*
X126292939Y-104808235D01*
X126578136Y-104734767D01*
X126935270Y-104732216D01*
X127221487Y-104801602D01*
X127364851Y-104872008D01*
X127436788Y-104942925D01*
X127509235Y-105085268D01*
X126025599Y-107381638D02*
X127025574Y-107374496D01*
X126882720Y-107375516D02*
X126954657Y-107446433D01*
X127027104Y-107588776D01*
X127028635Y-107803056D01*
X126958228Y-107946420D01*
X126815885Y-108018867D01*
X126030191Y-108024479D01*
X126815885Y-108018867D02*
X126959249Y-108089273D01*
X127031696Y-108231617D01*
X127033227Y-108445897D01*
X126962820Y-108589261D01*
X126820477Y-108661708D01*
X126034783Y-108667320D01*
X126039885Y-109381587D02*
X127039859Y-109374445D01*
X126897006Y-109375465D02*
X126968942Y-109446382D01*
X127041390Y-109588725D01*
X127042920Y-109803005D01*
X126972514Y-109946369D01*
X126830171Y-110018816D01*
X126044476Y-110024428D01*
X126830171Y-110018816D02*
X126973534Y-110089222D01*
X127045981Y-110231566D01*
X127047512Y-110445846D01*
X126977106Y-110589210D01*
X126834762Y-110661657D01*
X126049068Y-110667269D01*
X125393985Y-112957900D02*
X125293985Y-98957900D01*
X119500000Y-113000000D02*
X128093916Y-112938615D01*
X119400000Y-99000000D02*
X127993916Y-98938615D01*
X125293985Y-98957900D02*
X125888437Y-100080186D01*
X125293985Y-98957900D02*
X124715625Y-100088564D01*
X125393985Y-112957900D02*
X125972345Y-111827236D01*
X125393985Y-112957900D02*
X124799533Y-111835614D01*
X94000000Y-119028571D02*
X94000000Y-120028571D01*
X93642857Y-118457142D02*
X93285714Y-119528571D01*
X94214285Y-119528571D01*
X95071428Y-118528571D02*
X95214285Y-118528571D01*
X95357142Y-118600000D01*
X95428571Y-118671428D01*
X95500000Y-118814285D01*
X95571428Y-119100000D01*
X95571428Y-119457142D01*
X95500000Y-119742857D01*
X95428571Y-119885714D01*
X95357142Y-119957142D01*
X95214285Y-120028571D01*
X95071428Y-120028571D01*
X94928571Y-119957142D01*
X94857142Y-119885714D01*
X94785714Y-119742857D01*
X94714285Y-119457142D01*
X94714285Y-119100000D01*
X94785714Y-118814285D01*
X94857142Y-118671428D01*
X94928571Y-118600000D01*
X95071428Y-118528571D01*
X96285714Y-119957142D02*
X96285714Y-120028571D01*
X96214285Y-120171428D01*
X96142857Y-120242857D01*
X97214285Y-118528571D02*
X97357142Y-118528571D01*
X97500000Y-118600000D01*
X97571428Y-118671428D01*
X97642857Y-118814285D01*
X97714285Y-119100000D01*
X97714285Y-119457142D01*
X97642857Y-119742857D01*
X97571428Y-119885714D01*
X97500000Y-119957142D01*
X97357142Y-120028571D01*
X97214285Y-120028571D01*
X97071428Y-119957142D01*
X97000000Y-119885714D01*
X96928571Y-119742857D01*
X96857142Y-119457142D01*
X96857142Y-119100000D01*
X96928571Y-118814285D01*
X97000000Y-118671428D01*
X97071428Y-118600000D01*
X97214285Y-118528571D01*
X98642857Y-118528571D02*
X98785714Y-118528571D01*
X98928571Y-118600000D01*
X99000000Y-118671428D01*
X99071428Y-118814285D01*
X99142857Y-119100000D01*
X99142857Y-119457142D01*
X99071428Y-119742857D01*
X99000000Y-119885714D01*
X98928571Y-119957142D01*
X98785714Y-120028571D01*
X98642857Y-120028571D01*
X98500000Y-119957142D01*
X98428571Y-119885714D01*
X98357142Y-119742857D01*
X98285714Y-119457142D01*
X98285714Y-119100000D01*
X98357142Y-118814285D01*
X98428571Y-118671428D01*
X98500000Y-118600000D01*
X98642857Y-118528571D01*
X100071428Y-118528571D02*
X100214285Y-118528571D01*
X100357142Y-118600000D01*
X100428571Y-118671428D01*
X100500000Y-118814285D01*
X100571428Y-119100000D01*
X100571428Y-119457142D01*
X100500000Y-119742857D01*
X100428571Y-119885714D01*
X100357142Y-119957142D01*
X100214285Y-120028571D01*
X100071428Y-120028571D01*
X99928571Y-119957142D01*
X99857142Y-119885714D01*
X99785714Y-119742857D01*
X99714285Y-119457142D01*
X99714285Y-119100000D01*
X99785714Y-118814285D01*
X99857142Y-118671428D01*
X99928571Y-118600000D01*
X100071428Y-118528571D01*
X102357142Y-120028571D02*
X102357142Y-119028571D01*
X102357142Y-119171428D02*
X102428571Y-119100000D01*
X102571428Y-119028571D01*
X102785714Y-119028571D01*
X102928571Y-119100000D01*
X103000000Y-119242857D01*
X103000000Y-120028571D01*
X103000000Y-119242857D02*
X103071428Y-119100000D01*
X103214285Y-119028571D01*
X103428571Y-119028571D01*
X103571428Y-119100000D01*
X103642857Y-119242857D01*
X103642857Y-120028571D01*
X104357142Y-120028571D02*
X104357142Y-119028571D01*
X104357142Y-119171428D02*
X104428571Y-119100000D01*
X104571428Y-119028571D01*
X104785714Y-119028571D01*
X104928571Y-119100000D01*
X105000000Y-119242857D01*
X105000000Y-120028571D01*
X105000000Y-119242857D02*
X105071428Y-119100000D01*
X105214285Y-119028571D01*
X105428571Y-119028571D01*
X105571428Y-119100000D01*
X105642857Y-119242857D01*
X105642857Y-120028571D01*
X79500000Y-118000000D02*
X119500000Y-118000000D01*
X79500000Y-113000000D02*
X79500000Y-120700000D01*
X119500000Y-113000000D02*
X119500000Y-120700000D01*
X119500000Y-118000000D02*
X118373496Y-118586421D01*
X119500000Y-118000000D02*
X118373496Y-117413579D01*
X79500000Y-118000000D02*
X80626504Y-118586421D01*
X79500000Y-118000000D02*
X80626504Y-117413579D01*
M02*
