G04 #@! TF.GenerationSoftware,KiCad,Pcbnew,5.0.0-rc1-44a33f2~62~ubuntu16.04.1*
G04 #@! TF.CreationDate,2018-03-25T17:58:14+02:00*
G04 #@! TF.ProjectId,ubmp_v1r1,75626D705F763172312E6B696361645F,rev?*
G04 #@! TF.SameCoordinates,Original*
G04 #@! TF.FileFunction,Legend,Bot*
G04 #@! TF.FilePolarity,Positive*
%FSLAX46Y46*%
G04 Gerber Fmt 4.6, Leading zero omitted, Abs format (unit mm)*
G04 Created by KiCad (PCBNEW 5.0.0-rc1-44a33f2~62~ubuntu16.04.1) date Sun Mar 25 17:58:14 2018*
%MOMM*%
%LPD*%
G01*
G04 APERTURE LIST*
%ADD10C,0.150000*%
%ADD11C,0.300000*%
%ADD12C,0.400000*%
%ADD13C,0.120000*%
%ADD14C,0.010000*%
%ADD15C,1.360000*%
%ADD16O,3.660000X2.160000*%
%ADD17C,0.100000*%
%ADD18C,1.760000*%
%ADD19C,1.160000*%
G04 APERTURE END LIST*
D10*
X99233333Y-100683333D02*
X99133333Y-100716666D01*
X98966666Y-100716666D01*
X98900000Y-100683333D01*
X98866666Y-100650000D01*
X98833333Y-100583333D01*
X98833333Y-100516666D01*
X98866666Y-100450000D01*
X98900000Y-100416666D01*
X98966666Y-100383333D01*
X99100000Y-100350000D01*
X99166666Y-100316666D01*
X99200000Y-100283333D01*
X99233333Y-100216666D01*
X99233333Y-100150000D01*
X99200000Y-100083333D01*
X99166666Y-100050000D01*
X99100000Y-100016666D01*
X98933333Y-100016666D01*
X98833333Y-100050000D01*
X98600000Y-100016666D02*
X98433333Y-100716666D01*
X98300000Y-100216666D01*
X98166666Y-100716666D01*
X98000000Y-100016666D01*
X97733333Y-100716666D02*
X97733333Y-100016666D01*
X97566666Y-100016666D01*
X97466666Y-100050000D01*
X97400000Y-100116666D01*
X97366666Y-100183333D01*
X97333333Y-100316666D01*
X97333333Y-100416666D01*
X97366666Y-100550000D01*
X97400000Y-100616666D01*
X97466666Y-100683333D01*
X97566666Y-100716666D01*
X97733333Y-100716666D01*
X96500000Y-100716666D02*
X96500000Y-100016666D01*
X96233333Y-100016666D01*
X96166666Y-100050000D01*
X96133333Y-100083333D01*
X96100000Y-100150000D01*
X96100000Y-100250000D01*
X96133333Y-100316666D01*
X96166666Y-100350000D01*
X96233333Y-100383333D01*
X96500000Y-100383333D01*
X95400000Y-100716666D02*
X95633333Y-100383333D01*
X95800000Y-100716666D02*
X95800000Y-100016666D01*
X95533333Y-100016666D01*
X95466666Y-100050000D01*
X95433333Y-100083333D01*
X95400000Y-100150000D01*
X95400000Y-100250000D01*
X95433333Y-100316666D01*
X95466666Y-100350000D01*
X95533333Y-100383333D01*
X95800000Y-100383333D01*
X94966666Y-100016666D02*
X94833333Y-100016666D01*
X94766666Y-100050000D01*
X94700000Y-100116666D01*
X94666666Y-100250000D01*
X94666666Y-100483333D01*
X94700000Y-100616666D01*
X94766666Y-100683333D01*
X94833333Y-100716666D01*
X94966666Y-100716666D01*
X95033333Y-100683333D01*
X95100000Y-100616666D01*
X95133333Y-100483333D01*
X95133333Y-100250000D01*
X95100000Y-100116666D01*
X95033333Y-100050000D01*
X94966666Y-100016666D01*
X94000000Y-100050000D02*
X94066666Y-100016666D01*
X94166666Y-100016666D01*
X94266666Y-100050000D01*
X94333333Y-100116666D01*
X94366666Y-100183333D01*
X94400000Y-100316666D01*
X94400000Y-100416666D01*
X94366666Y-100550000D01*
X94333333Y-100616666D01*
X94266666Y-100683333D01*
X94166666Y-100716666D01*
X94100000Y-100716666D01*
X94000000Y-100683333D01*
X93966666Y-100650000D01*
X93966666Y-100416666D01*
X94100000Y-100416666D01*
D11*
X109407142Y-111492857D02*
X108907142Y-111492857D01*
X108692857Y-112278571D02*
X109407142Y-112278571D01*
X109407142Y-110778571D01*
X108692857Y-110778571D01*
X108050000Y-112278571D02*
X108050000Y-111278571D01*
X108050000Y-111421428D02*
X107978571Y-111350000D01*
X107835714Y-111278571D01*
X107621428Y-111278571D01*
X107478571Y-111350000D01*
X107407142Y-111492857D01*
X107407142Y-112278571D01*
X107407142Y-111492857D02*
X107335714Y-111350000D01*
X107192857Y-111278571D01*
X106978571Y-111278571D01*
X106835714Y-111350000D01*
X106764285Y-111492857D01*
X106764285Y-112278571D01*
X106050000Y-112278571D02*
X106050000Y-111278571D01*
X106050000Y-110778571D02*
X106121428Y-110850000D01*
X106050000Y-110921428D01*
X105978571Y-110850000D01*
X106050000Y-110778571D01*
X106050000Y-110921428D01*
X105121428Y-112278571D02*
X105264285Y-112207142D01*
X105335714Y-112064285D01*
X105335714Y-110778571D01*
X102907142Y-111492857D02*
X103407142Y-111492857D01*
X103407142Y-112278571D02*
X103407142Y-110778571D01*
X102692857Y-110778571D01*
X102121428Y-112278571D02*
X102121428Y-111278571D01*
X102121428Y-111564285D02*
X102050000Y-111421428D01*
X101978571Y-111350000D01*
X101835714Y-111278571D01*
X101692857Y-111278571D01*
X100621428Y-112207142D02*
X100764285Y-112278571D01*
X101050000Y-112278571D01*
X101192857Y-112207142D01*
X101264285Y-112064285D01*
X101264285Y-111492857D01*
X101192857Y-111350000D01*
X101050000Y-111278571D01*
X100764285Y-111278571D01*
X100621428Y-111350000D01*
X100550000Y-111492857D01*
X100550000Y-111635714D01*
X101264285Y-111778571D01*
X99978571Y-112207142D02*
X99835714Y-112278571D01*
X99550000Y-112278571D01*
X99407142Y-112207142D01*
X99335714Y-112064285D01*
X99335714Y-111992857D01*
X99407142Y-111850000D01*
X99550000Y-111778571D01*
X99764285Y-111778571D01*
X99907142Y-111707142D01*
X99978571Y-111564285D01*
X99978571Y-111492857D01*
X99907142Y-111350000D01*
X99764285Y-111278571D01*
X99550000Y-111278571D01*
X99407142Y-111350000D01*
X98692857Y-112278571D02*
X98692857Y-110778571D01*
X98550000Y-111707142D02*
X98121428Y-112278571D01*
X98121428Y-111278571D02*
X98692857Y-111850000D01*
D12*
X109419047Y-108171428D02*
X109419047Y-110171428D01*
X108466666Y-109219047D02*
X108371428Y-109409523D01*
X108180952Y-109504761D01*
X109419047Y-109219047D02*
X109323809Y-109409523D01*
X109133333Y-109504761D01*
X108752380Y-109504761D01*
X108561904Y-109409523D01*
X108466666Y-109219047D01*
X108466666Y-108171428D01*
X106657142Y-108457142D02*
X106371428Y-108552380D01*
X106276190Y-108647619D01*
X106180952Y-108838095D01*
X106180952Y-109123809D01*
X106276190Y-109314285D01*
X106371428Y-109409523D01*
X106561904Y-109504761D01*
X107323809Y-109504761D01*
X107323809Y-107504761D01*
X106657142Y-107504761D01*
X106466666Y-107600000D01*
X106371428Y-107695238D01*
X106276190Y-107885714D01*
X106276190Y-108076190D01*
X106371428Y-108266666D01*
X106466666Y-108361904D01*
X106657142Y-108457142D01*
X107323809Y-108457142D01*
X105323809Y-109504761D02*
X105323809Y-107504761D01*
X104657142Y-108933333D01*
X103990476Y-107504761D01*
X103990476Y-109504761D01*
X103038095Y-109504761D02*
X103038095Y-107504761D01*
X102276190Y-107504761D01*
X102085714Y-107600000D01*
X101990476Y-107695238D01*
X101895238Y-107885714D01*
X101895238Y-108171428D01*
X101990476Y-108361904D01*
X102085714Y-108457142D01*
X102276190Y-108552380D01*
X103038095Y-108552380D01*
X99704761Y-108171428D02*
X99228571Y-109504761D01*
X98752380Y-108171428D01*
X96942857Y-109504761D02*
X98085714Y-109504761D01*
X97514285Y-109504761D02*
X97514285Y-107504761D01*
X97704761Y-107790476D01*
X97895238Y-107980952D01*
X98085714Y-108076190D01*
X96085714Y-109314285D02*
X95990476Y-109409523D01*
X96085714Y-109504761D01*
X96180952Y-109409523D01*
X96085714Y-109314285D01*
X96085714Y-109504761D01*
X94752380Y-107504761D02*
X94561904Y-107504761D01*
X94371428Y-107600000D01*
X94276190Y-107695238D01*
X94180952Y-107885714D01*
X94085714Y-108266666D01*
X94085714Y-108742857D01*
X94180952Y-109123809D01*
X94276190Y-109314285D01*
X94371428Y-109409523D01*
X94561904Y-109504761D01*
X94752380Y-109504761D01*
X94942857Y-109409523D01*
X95038095Y-109314285D01*
X95133333Y-109123809D01*
X95228571Y-108742857D01*
X95228571Y-108266666D01*
X95133333Y-107885714D01*
X95038095Y-107695238D01*
X94942857Y-107600000D01*
X94752380Y-107504761D01*
D10*
X99333333Y-104050000D02*
X99366666Y-104083333D01*
X99466666Y-104116666D01*
X99533333Y-104116666D01*
X99633333Y-104083333D01*
X99700000Y-104016666D01*
X99733333Y-103950000D01*
X99766666Y-103816666D01*
X99766666Y-103716666D01*
X99733333Y-103583333D01*
X99700000Y-103516666D01*
X99633333Y-103450000D01*
X99533333Y-103416666D01*
X99466666Y-103416666D01*
X99366666Y-103450000D01*
X99333333Y-103483333D01*
X99033333Y-104116666D02*
X99033333Y-103416666D01*
X98633333Y-104116666D02*
X98933333Y-103716666D01*
X98633333Y-103416666D02*
X99033333Y-103816666D01*
X99466666Y-102116666D02*
X99466666Y-101416666D01*
X99000000Y-101416666D02*
X98866666Y-101416666D01*
X98800000Y-101450000D01*
X98733333Y-101516666D01*
X98700000Y-101650000D01*
X98700000Y-101883333D01*
X98733333Y-102016666D01*
X98800000Y-102083333D01*
X98866666Y-102116666D01*
X99000000Y-102116666D01*
X99066666Y-102083333D01*
X99133333Y-102016666D01*
X99166666Y-101883333D01*
X99166666Y-101650000D01*
X99133333Y-101516666D01*
X99066666Y-101450000D01*
X99000000Y-101416666D01*
X94333333Y-101450000D02*
X94400000Y-101416666D01*
X94500000Y-101416666D01*
X94600000Y-101450000D01*
X94666666Y-101516666D01*
X94700000Y-101583333D01*
X94733333Y-101716666D01*
X94733333Y-101816666D01*
X94700000Y-101950000D01*
X94666666Y-102016666D01*
X94600000Y-102083333D01*
X94500000Y-102116666D01*
X94433333Y-102116666D01*
X94333333Y-102083333D01*
X94300000Y-102050000D01*
X94300000Y-101816666D01*
X94433333Y-101816666D01*
X94000000Y-102116666D02*
X94000000Y-101416666D01*
X93600000Y-102116666D01*
X93600000Y-101416666D01*
X93266666Y-102116666D02*
X93266666Y-101416666D01*
X93100000Y-101416666D01*
X93000000Y-101450000D01*
X92933333Y-101516666D01*
X92900000Y-101583333D01*
X92866666Y-101716666D01*
X92866666Y-101816666D01*
X92900000Y-101950000D01*
X92933333Y-102016666D01*
X93000000Y-102083333D01*
X93100000Y-102116666D01*
X93266666Y-102116666D01*
X94333333Y-103416666D02*
X94666666Y-103416666D01*
X94700000Y-103750000D01*
X94666666Y-103716666D01*
X94600000Y-103683333D01*
X94433333Y-103683333D01*
X94366666Y-103716666D01*
X94333333Y-103750000D01*
X94300000Y-103816666D01*
X94300000Y-103983333D01*
X94333333Y-104050000D01*
X94366666Y-104083333D01*
X94433333Y-104116666D01*
X94600000Y-104116666D01*
X94666666Y-104083333D01*
X94700000Y-104050000D01*
X94100000Y-103416666D02*
X93866666Y-104116666D01*
X93633333Y-103416666D01*
D11*
X115671428Y-101607142D02*
X115457142Y-101678571D01*
X115100000Y-101678571D01*
X114957142Y-101607142D01*
X114885714Y-101535714D01*
X114814285Y-101392857D01*
X114814285Y-101250000D01*
X114885714Y-101107142D01*
X114957142Y-101035714D01*
X115100000Y-100964285D01*
X115385714Y-100892857D01*
X115528571Y-100821428D01*
X115600000Y-100750000D01*
X115671428Y-100607142D01*
X115671428Y-100464285D01*
X115600000Y-100321428D01*
X115528571Y-100250000D01*
X115385714Y-100178571D01*
X115028571Y-100178571D01*
X114814285Y-100250000D01*
X114314285Y-100178571D02*
X113957142Y-101678571D01*
X113671428Y-100607142D01*
X113385714Y-101678571D01*
X113028571Y-100178571D01*
X112171428Y-100178571D02*
X111885714Y-100178571D01*
X111742857Y-100250000D01*
X111600000Y-100392857D01*
X111528571Y-100678571D01*
X111528571Y-101178571D01*
X111600000Y-101464285D01*
X111742857Y-101607142D01*
X111885714Y-101678571D01*
X112171428Y-101678571D01*
X112314285Y-101607142D01*
X112457142Y-101464285D01*
X112528571Y-101178571D01*
X112528571Y-100678571D01*
X112457142Y-100392857D01*
X112314285Y-100250000D01*
X112171428Y-100178571D01*
X114721428Y-104178571D02*
X115221428Y-103464285D01*
X115578571Y-104178571D02*
X115578571Y-102678571D01*
X115007142Y-102678571D01*
X114864285Y-102750000D01*
X114792857Y-102821428D01*
X114721428Y-102964285D01*
X114721428Y-103178571D01*
X114792857Y-103321428D01*
X114864285Y-103392857D01*
X115007142Y-103464285D01*
X115578571Y-103464285D01*
X114150000Y-104107142D02*
X113935714Y-104178571D01*
X113578571Y-104178571D01*
X113435714Y-104107142D01*
X113364285Y-104035714D01*
X113292857Y-103892857D01*
X113292857Y-103750000D01*
X113364285Y-103607142D01*
X113435714Y-103535714D01*
X113578571Y-103464285D01*
X113864285Y-103392857D01*
X114007142Y-103321428D01*
X114078571Y-103250000D01*
X114150000Y-103107142D01*
X114150000Y-102964285D01*
X114078571Y-102821428D01*
X114007142Y-102750000D01*
X113864285Y-102678571D01*
X113507142Y-102678571D01*
X113292857Y-102750000D01*
X112864285Y-102678571D02*
X112007142Y-102678571D01*
X112435714Y-104178571D02*
X112435714Y-102678571D01*
X115664285Y-105178571D02*
X114807142Y-105178571D01*
X115235714Y-106678571D02*
X115235714Y-105178571D01*
X114307142Y-106678571D02*
X114307142Y-105178571D01*
X113950000Y-105178571D01*
X113735714Y-105250000D01*
X113592857Y-105392857D01*
X113521428Y-105535714D01*
X113450000Y-105821428D01*
X113450000Y-106035714D01*
X113521428Y-106321428D01*
X113592857Y-106464285D01*
X113735714Y-106607142D01*
X113950000Y-106678571D01*
X114307142Y-106678571D01*
X112521428Y-105178571D02*
X112235714Y-105178571D01*
X112092857Y-105250000D01*
X111950000Y-105392857D01*
X111878571Y-105678571D01*
X111878571Y-106178571D01*
X111950000Y-106464285D01*
X112092857Y-106607142D01*
X112235714Y-106678571D01*
X112521428Y-106678571D01*
X112664285Y-106607142D01*
X112807142Y-106464285D01*
X112878571Y-106178571D01*
X112878571Y-105678571D01*
X112807142Y-105392857D01*
X112664285Y-105250000D01*
X112521428Y-105178571D01*
X114750000Y-109278571D02*
X115250000Y-108564285D01*
X115607142Y-109278571D02*
X115607142Y-107778571D01*
X115035714Y-107778571D01*
X114892857Y-107850000D01*
X114821428Y-107921428D01*
X114750000Y-108064285D01*
X114750000Y-108278571D01*
X114821428Y-108421428D01*
X114892857Y-108492857D01*
X115035714Y-108564285D01*
X115607142Y-108564285D01*
X114250000Y-107778571D02*
X113250000Y-109278571D01*
X113250000Y-107778571D02*
X114250000Y-109278571D01*
X114742857Y-110450000D02*
X114885714Y-110378571D01*
X115100000Y-110378571D01*
X115314285Y-110450000D01*
X115457142Y-110592857D01*
X115528571Y-110735714D01*
X115600000Y-111021428D01*
X115600000Y-111235714D01*
X115528571Y-111521428D01*
X115457142Y-111664285D01*
X115314285Y-111807142D01*
X115100000Y-111878571D01*
X114957142Y-111878571D01*
X114742857Y-111807142D01*
X114671428Y-111735714D01*
X114671428Y-111235714D01*
X114957142Y-111235714D01*
X114028571Y-111878571D02*
X114028571Y-110378571D01*
X113171428Y-111878571D01*
X113171428Y-110378571D01*
X112457142Y-111878571D02*
X112457142Y-110378571D01*
X112100000Y-110378571D01*
X111885714Y-110450000D01*
X111742857Y-110592857D01*
X111671428Y-110735714D01*
X111600000Y-111021428D01*
X111600000Y-111235714D01*
X111671428Y-111521428D01*
X111742857Y-111664285D01*
X111885714Y-111807142D01*
X112100000Y-111878571D01*
X112457142Y-111878571D01*
D13*
X98400000Y-101800000D02*
G75*
G03X98400000Y-101800000I-700000J0D01*
G01*
X98400000Y-103800000D02*
G75*
G03X98400000Y-103800000I-700000J0D01*
G01*
X96400000Y-101800000D02*
G75*
G03X96400000Y-101800000I-700000J0D01*
G01*
X96400000Y-103800000D02*
G75*
G03X96400000Y-103800000I-700000J0D01*
G01*
D14*
G36*
X104860122Y-99287776D02*
X104754388Y-99288355D01*
X104677868Y-99289922D01*
X104625628Y-99292972D01*
X104592737Y-99297996D01*
X104574263Y-99305489D01*
X104565273Y-99315944D01*
X104560837Y-99329853D01*
X104560406Y-99331654D01*
X104553667Y-99364145D01*
X104541192Y-99428252D01*
X104524281Y-99517151D01*
X104504229Y-99624019D01*
X104482336Y-99742033D01*
X104481571Y-99746178D01*
X104459641Y-99861831D01*
X104439123Y-99964014D01*
X104421341Y-100046598D01*
X104407619Y-100103456D01*
X104399282Y-100128458D01*
X104398884Y-100128901D01*
X104374323Y-100141110D01*
X104323685Y-100161456D01*
X104257905Y-100185545D01*
X104257539Y-100185674D01*
X104174683Y-100216818D01*
X104077000Y-100256491D01*
X103984923Y-100296381D01*
X103980566Y-100298353D01*
X103830593Y-100366420D01*
X103498502Y-100139639D01*
X103396626Y-100070504D01*
X103304343Y-100008697D01*
X103226997Y-99957733D01*
X103169936Y-99921127D01*
X103138505Y-99902394D01*
X103135521Y-99901004D01*
X103112679Y-99907190D01*
X103070018Y-99937035D01*
X103005872Y-99991947D01*
X102918579Y-100073334D01*
X102829465Y-100159922D01*
X102743559Y-100245247D01*
X102666673Y-100323108D01*
X102603436Y-100388697D01*
X102558477Y-100437205D01*
X102536424Y-100463825D01*
X102535604Y-100465195D01*
X102533166Y-100483463D01*
X102542350Y-100513295D01*
X102565426Y-100558721D01*
X102604663Y-100623770D01*
X102662330Y-100712470D01*
X102739205Y-100826657D01*
X102807430Y-100927162D01*
X102868418Y-101017303D01*
X102918644Y-101091849D01*
X102954584Y-101145565D01*
X102972713Y-101173218D01*
X102973854Y-101175095D01*
X102971641Y-101201590D01*
X102954862Y-101253086D01*
X102926858Y-101319851D01*
X102916878Y-101341172D01*
X102873328Y-101436159D01*
X102826866Y-101543937D01*
X102789123Y-101637192D01*
X102761927Y-101706406D01*
X102740325Y-101759006D01*
X102727842Y-101786497D01*
X102726291Y-101788616D01*
X102703332Y-101792124D01*
X102649214Y-101801738D01*
X102571132Y-101816089D01*
X102476281Y-101833807D01*
X102371857Y-101853525D01*
X102265056Y-101873874D01*
X102163074Y-101893486D01*
X102073106Y-101910991D01*
X102002347Y-101925022D01*
X101957994Y-101934209D01*
X101947115Y-101936807D01*
X101935878Y-101943218D01*
X101927395Y-101957697D01*
X101921286Y-101985133D01*
X101917168Y-102030411D01*
X101914659Y-102098420D01*
X101913379Y-102194047D01*
X101912946Y-102322180D01*
X101912923Y-102374701D01*
X101912923Y-102801845D01*
X102015500Y-102822091D01*
X102072569Y-102833070D01*
X102157731Y-102849095D01*
X102260628Y-102868233D01*
X102370904Y-102888551D01*
X102401385Y-102894132D01*
X102503145Y-102913917D01*
X102591795Y-102933373D01*
X102659892Y-102950697D01*
X102699996Y-102964088D01*
X102706677Y-102968079D01*
X102723081Y-102996342D01*
X102746601Y-103051109D01*
X102772684Y-103121588D01*
X102777858Y-103136769D01*
X102812044Y-103230896D01*
X102854477Y-103337101D01*
X102896003Y-103432473D01*
X102896208Y-103432916D01*
X102965360Y-103582525D01*
X102510488Y-104251617D01*
X102802500Y-104544116D01*
X102890820Y-104631170D01*
X102971375Y-104707909D01*
X103039640Y-104770237D01*
X103091092Y-104814056D01*
X103121206Y-104835270D01*
X103125526Y-104836616D01*
X103150889Y-104826016D01*
X103202642Y-104796547D01*
X103275132Y-104751705D01*
X103362706Y-104694984D01*
X103457388Y-104631462D01*
X103553484Y-104566668D01*
X103639163Y-104510287D01*
X103708984Y-104465788D01*
X103757506Y-104436639D01*
X103779218Y-104426308D01*
X103805707Y-104435050D01*
X103855938Y-104458087D01*
X103919549Y-104490631D01*
X103926292Y-104494249D01*
X104011954Y-104537210D01*
X104070694Y-104558279D01*
X104107228Y-104558503D01*
X104126269Y-104538928D01*
X104126380Y-104538654D01*
X104135898Y-104515472D01*
X104158597Y-104460441D01*
X104192718Y-104377822D01*
X104236500Y-104271872D01*
X104288184Y-104146852D01*
X104346008Y-104007020D01*
X104402009Y-103871637D01*
X104463553Y-103722234D01*
X104520061Y-103583832D01*
X104569839Y-103460673D01*
X104611194Y-103357002D01*
X104642432Y-103277059D01*
X104661859Y-103225088D01*
X104667846Y-103205692D01*
X104652832Y-103183443D01*
X104613561Y-103147982D01*
X104561193Y-103108887D01*
X104412059Y-102985245D01*
X104295489Y-102843522D01*
X104212882Y-102686704D01*
X104165634Y-102517775D01*
X104155143Y-102339722D01*
X104162769Y-102257539D01*
X104204318Y-102087031D01*
X104275877Y-101936459D01*
X104373005Y-101807309D01*
X104491266Y-101701064D01*
X104626220Y-101619210D01*
X104773429Y-101563232D01*
X104928456Y-101534615D01*
X105086861Y-101534844D01*
X105244206Y-101565405D01*
X105396054Y-101627782D01*
X105537965Y-101723460D01*
X105597197Y-101777572D01*
X105710797Y-101916520D01*
X105789894Y-102068361D01*
X105835014Y-102228667D01*
X105846684Y-102393012D01*
X105825431Y-102556971D01*
X105771780Y-102716118D01*
X105686260Y-102866025D01*
X105569395Y-103002267D01*
X105438807Y-103108887D01*
X105384412Y-103149642D01*
X105345986Y-103184718D01*
X105332154Y-103205726D01*
X105339397Y-103228635D01*
X105359995Y-103283365D01*
X105392254Y-103365672D01*
X105434479Y-103471315D01*
X105484977Y-103596050D01*
X105542052Y-103735636D01*
X105598146Y-103871670D01*
X105660033Y-104021201D01*
X105717356Y-104159767D01*
X105768356Y-104283107D01*
X105811273Y-104386964D01*
X105844347Y-104467080D01*
X105865819Y-104519195D01*
X105873775Y-104538654D01*
X105892571Y-104558423D01*
X105928926Y-104558365D01*
X105987521Y-104537441D01*
X106073032Y-104494613D01*
X106073708Y-104494249D01*
X106138093Y-104461012D01*
X106190139Y-104436802D01*
X106219488Y-104426404D01*
X106220783Y-104426308D01*
X106242876Y-104436855D01*
X106291652Y-104466184D01*
X106361669Y-104510827D01*
X106447486Y-104567314D01*
X106542612Y-104631462D01*
X106639460Y-104696411D01*
X106726747Y-104752896D01*
X106798819Y-104797421D01*
X106850023Y-104826490D01*
X106874474Y-104836616D01*
X106896990Y-104823307D01*
X106942258Y-104786112D01*
X107005756Y-104729128D01*
X107082961Y-104656449D01*
X107169349Y-104572171D01*
X107197601Y-104544016D01*
X107489713Y-104251416D01*
X107267369Y-103925104D01*
X107199798Y-103824897D01*
X107140493Y-103734963D01*
X107092783Y-103660510D01*
X107059993Y-103606751D01*
X107045452Y-103578894D01*
X107045026Y-103576912D01*
X107052692Y-103550655D01*
X107073311Y-103497837D01*
X107103315Y-103427310D01*
X107124375Y-103380093D01*
X107163752Y-103289694D01*
X107200835Y-103198366D01*
X107229585Y-103121200D01*
X107237395Y-103097692D01*
X107259583Y-103034916D01*
X107281273Y-102986411D01*
X107293187Y-102968079D01*
X107319477Y-102956859D01*
X107376858Y-102940954D01*
X107457882Y-102922167D01*
X107555105Y-102902299D01*
X107598615Y-102894132D01*
X107709104Y-102873829D01*
X107815084Y-102854170D01*
X107906199Y-102837088D01*
X107972092Y-102824518D01*
X107984500Y-102822091D01*
X108087077Y-102801845D01*
X108087077Y-102374701D01*
X108086847Y-102234246D01*
X108085901Y-102127979D01*
X108083859Y-102051013D01*
X108080338Y-101998460D01*
X108074957Y-101965433D01*
X108067334Y-101947045D01*
X108057088Y-101938408D01*
X108052885Y-101936807D01*
X108027530Y-101931127D01*
X107971516Y-101919795D01*
X107892036Y-101904179D01*
X107796288Y-101885647D01*
X107691467Y-101865569D01*
X107584768Y-101845312D01*
X107483387Y-101826246D01*
X107394521Y-101809739D01*
X107325363Y-101797159D01*
X107283111Y-101789875D01*
X107273710Y-101788616D01*
X107265193Y-101771763D01*
X107246340Y-101726870D01*
X107220676Y-101662430D01*
X107210877Y-101637192D01*
X107171352Y-101539686D01*
X107124808Y-101431959D01*
X107083123Y-101341172D01*
X107052450Y-101271753D01*
X107032044Y-101214710D01*
X107025232Y-101179777D01*
X107026318Y-101175095D01*
X107040715Y-101152991D01*
X107073588Y-101103831D01*
X107121410Y-101032848D01*
X107180652Y-100945278D01*
X107247785Y-100846357D01*
X107261059Y-100826830D01*
X107338954Y-100711140D01*
X107396213Y-100623044D01*
X107435119Y-100558486D01*
X107457956Y-100513411D01*
X107467006Y-100483763D01*
X107464552Y-100465485D01*
X107464489Y-100465369D01*
X107445173Y-100441361D01*
X107402449Y-100394947D01*
X107340949Y-100330937D01*
X107265302Y-100254145D01*
X107180139Y-100169382D01*
X107170535Y-100159922D01*
X107063210Y-100055989D01*
X106980385Y-99979675D01*
X106920395Y-99929571D01*
X106881577Y-99904270D01*
X106864480Y-99901004D01*
X106839527Y-99915250D01*
X106787745Y-99948156D01*
X106714480Y-99996208D01*
X106625080Y-100055890D01*
X106524889Y-100123688D01*
X106501499Y-100139639D01*
X106169407Y-100366420D01*
X106019435Y-100298353D01*
X105928230Y-100258685D01*
X105830331Y-100218791D01*
X105746169Y-100186983D01*
X105742462Y-100185674D01*
X105676631Y-100161576D01*
X105625884Y-100141200D01*
X105601158Y-100128936D01*
X105601116Y-100128901D01*
X105593271Y-100106734D01*
X105579934Y-100052217D01*
X105562430Y-99971480D01*
X105542083Y-99870650D01*
X105520218Y-99755856D01*
X105518429Y-99746178D01*
X105496496Y-99627904D01*
X105476360Y-99520542D01*
X105459320Y-99430917D01*
X105446672Y-99365851D01*
X105439716Y-99332168D01*
X105439594Y-99331654D01*
X105435361Y-99317325D01*
X105427129Y-99306507D01*
X105409967Y-99298706D01*
X105378942Y-99293429D01*
X105329122Y-99290182D01*
X105255576Y-99288472D01*
X105153371Y-99287807D01*
X105017575Y-99287693D01*
X105000000Y-99287692D01*
X104860122Y-99287776D01*
X104860122Y-99287776D01*
G37*
X104860122Y-99287776D02*
X104754388Y-99288355D01*
X104677868Y-99289922D01*
X104625628Y-99292972D01*
X104592737Y-99297996D01*
X104574263Y-99305489D01*
X104565273Y-99315944D01*
X104560837Y-99329853D01*
X104560406Y-99331654D01*
X104553667Y-99364145D01*
X104541192Y-99428252D01*
X104524281Y-99517151D01*
X104504229Y-99624019D01*
X104482336Y-99742033D01*
X104481571Y-99746178D01*
X104459641Y-99861831D01*
X104439123Y-99964014D01*
X104421341Y-100046598D01*
X104407619Y-100103456D01*
X104399282Y-100128458D01*
X104398884Y-100128901D01*
X104374323Y-100141110D01*
X104323685Y-100161456D01*
X104257905Y-100185545D01*
X104257539Y-100185674D01*
X104174683Y-100216818D01*
X104077000Y-100256491D01*
X103984923Y-100296381D01*
X103980566Y-100298353D01*
X103830593Y-100366420D01*
X103498502Y-100139639D01*
X103396626Y-100070504D01*
X103304343Y-100008697D01*
X103226997Y-99957733D01*
X103169936Y-99921127D01*
X103138505Y-99902394D01*
X103135521Y-99901004D01*
X103112679Y-99907190D01*
X103070018Y-99937035D01*
X103005872Y-99991947D01*
X102918579Y-100073334D01*
X102829465Y-100159922D01*
X102743559Y-100245247D01*
X102666673Y-100323108D01*
X102603436Y-100388697D01*
X102558477Y-100437205D01*
X102536424Y-100463825D01*
X102535604Y-100465195D01*
X102533166Y-100483463D01*
X102542350Y-100513295D01*
X102565426Y-100558721D01*
X102604663Y-100623770D01*
X102662330Y-100712470D01*
X102739205Y-100826657D01*
X102807430Y-100927162D01*
X102868418Y-101017303D01*
X102918644Y-101091849D01*
X102954584Y-101145565D01*
X102972713Y-101173218D01*
X102973854Y-101175095D01*
X102971641Y-101201590D01*
X102954862Y-101253086D01*
X102926858Y-101319851D01*
X102916878Y-101341172D01*
X102873328Y-101436159D01*
X102826866Y-101543937D01*
X102789123Y-101637192D01*
X102761927Y-101706406D01*
X102740325Y-101759006D01*
X102727842Y-101786497D01*
X102726291Y-101788616D01*
X102703332Y-101792124D01*
X102649214Y-101801738D01*
X102571132Y-101816089D01*
X102476281Y-101833807D01*
X102371857Y-101853525D01*
X102265056Y-101873874D01*
X102163074Y-101893486D01*
X102073106Y-101910991D01*
X102002347Y-101925022D01*
X101957994Y-101934209D01*
X101947115Y-101936807D01*
X101935878Y-101943218D01*
X101927395Y-101957697D01*
X101921286Y-101985133D01*
X101917168Y-102030411D01*
X101914659Y-102098420D01*
X101913379Y-102194047D01*
X101912946Y-102322180D01*
X101912923Y-102374701D01*
X101912923Y-102801845D01*
X102015500Y-102822091D01*
X102072569Y-102833070D01*
X102157731Y-102849095D01*
X102260628Y-102868233D01*
X102370904Y-102888551D01*
X102401385Y-102894132D01*
X102503145Y-102913917D01*
X102591795Y-102933373D01*
X102659892Y-102950697D01*
X102699996Y-102964088D01*
X102706677Y-102968079D01*
X102723081Y-102996342D01*
X102746601Y-103051109D01*
X102772684Y-103121588D01*
X102777858Y-103136769D01*
X102812044Y-103230896D01*
X102854477Y-103337101D01*
X102896003Y-103432473D01*
X102896208Y-103432916D01*
X102965360Y-103582525D01*
X102510488Y-104251617D01*
X102802500Y-104544116D01*
X102890820Y-104631170D01*
X102971375Y-104707909D01*
X103039640Y-104770237D01*
X103091092Y-104814056D01*
X103121206Y-104835270D01*
X103125526Y-104836616D01*
X103150889Y-104826016D01*
X103202642Y-104796547D01*
X103275132Y-104751705D01*
X103362706Y-104694984D01*
X103457388Y-104631462D01*
X103553484Y-104566668D01*
X103639163Y-104510287D01*
X103708984Y-104465788D01*
X103757506Y-104436639D01*
X103779218Y-104426308D01*
X103805707Y-104435050D01*
X103855938Y-104458087D01*
X103919549Y-104490631D01*
X103926292Y-104494249D01*
X104011954Y-104537210D01*
X104070694Y-104558279D01*
X104107228Y-104558503D01*
X104126269Y-104538928D01*
X104126380Y-104538654D01*
X104135898Y-104515472D01*
X104158597Y-104460441D01*
X104192718Y-104377822D01*
X104236500Y-104271872D01*
X104288184Y-104146852D01*
X104346008Y-104007020D01*
X104402009Y-103871637D01*
X104463553Y-103722234D01*
X104520061Y-103583832D01*
X104569839Y-103460673D01*
X104611194Y-103357002D01*
X104642432Y-103277059D01*
X104661859Y-103225088D01*
X104667846Y-103205692D01*
X104652832Y-103183443D01*
X104613561Y-103147982D01*
X104561193Y-103108887D01*
X104412059Y-102985245D01*
X104295489Y-102843522D01*
X104212882Y-102686704D01*
X104165634Y-102517775D01*
X104155143Y-102339722D01*
X104162769Y-102257539D01*
X104204318Y-102087031D01*
X104275877Y-101936459D01*
X104373005Y-101807309D01*
X104491266Y-101701064D01*
X104626220Y-101619210D01*
X104773429Y-101563232D01*
X104928456Y-101534615D01*
X105086861Y-101534844D01*
X105244206Y-101565405D01*
X105396054Y-101627782D01*
X105537965Y-101723460D01*
X105597197Y-101777572D01*
X105710797Y-101916520D01*
X105789894Y-102068361D01*
X105835014Y-102228667D01*
X105846684Y-102393012D01*
X105825431Y-102556971D01*
X105771780Y-102716118D01*
X105686260Y-102866025D01*
X105569395Y-103002267D01*
X105438807Y-103108887D01*
X105384412Y-103149642D01*
X105345986Y-103184718D01*
X105332154Y-103205726D01*
X105339397Y-103228635D01*
X105359995Y-103283365D01*
X105392254Y-103365672D01*
X105434479Y-103471315D01*
X105484977Y-103596050D01*
X105542052Y-103735636D01*
X105598146Y-103871670D01*
X105660033Y-104021201D01*
X105717356Y-104159767D01*
X105768356Y-104283107D01*
X105811273Y-104386964D01*
X105844347Y-104467080D01*
X105865819Y-104519195D01*
X105873775Y-104538654D01*
X105892571Y-104558423D01*
X105928926Y-104558365D01*
X105987521Y-104537441D01*
X106073032Y-104494613D01*
X106073708Y-104494249D01*
X106138093Y-104461012D01*
X106190139Y-104436802D01*
X106219488Y-104426404D01*
X106220783Y-104426308D01*
X106242876Y-104436855D01*
X106291652Y-104466184D01*
X106361669Y-104510827D01*
X106447486Y-104567314D01*
X106542612Y-104631462D01*
X106639460Y-104696411D01*
X106726747Y-104752896D01*
X106798819Y-104797421D01*
X106850023Y-104826490D01*
X106874474Y-104836616D01*
X106896990Y-104823307D01*
X106942258Y-104786112D01*
X107005756Y-104729128D01*
X107082961Y-104656449D01*
X107169349Y-104572171D01*
X107197601Y-104544016D01*
X107489713Y-104251416D01*
X107267369Y-103925104D01*
X107199798Y-103824897D01*
X107140493Y-103734963D01*
X107092783Y-103660510D01*
X107059993Y-103606751D01*
X107045452Y-103578894D01*
X107045026Y-103576912D01*
X107052692Y-103550655D01*
X107073311Y-103497837D01*
X107103315Y-103427310D01*
X107124375Y-103380093D01*
X107163752Y-103289694D01*
X107200835Y-103198366D01*
X107229585Y-103121200D01*
X107237395Y-103097692D01*
X107259583Y-103034916D01*
X107281273Y-102986411D01*
X107293187Y-102968079D01*
X107319477Y-102956859D01*
X107376858Y-102940954D01*
X107457882Y-102922167D01*
X107555105Y-102902299D01*
X107598615Y-102894132D01*
X107709104Y-102873829D01*
X107815084Y-102854170D01*
X107906199Y-102837088D01*
X107972092Y-102824518D01*
X107984500Y-102822091D01*
X108087077Y-102801845D01*
X108087077Y-102374701D01*
X108086847Y-102234246D01*
X108085901Y-102127979D01*
X108083859Y-102051013D01*
X108080338Y-101998460D01*
X108074957Y-101965433D01*
X108067334Y-101947045D01*
X108057088Y-101938408D01*
X108052885Y-101936807D01*
X108027530Y-101931127D01*
X107971516Y-101919795D01*
X107892036Y-101904179D01*
X107796288Y-101885647D01*
X107691467Y-101865569D01*
X107584768Y-101845312D01*
X107483387Y-101826246D01*
X107394521Y-101809739D01*
X107325363Y-101797159D01*
X107283111Y-101789875D01*
X107273710Y-101788616D01*
X107265193Y-101771763D01*
X107246340Y-101726870D01*
X107220676Y-101662430D01*
X107210877Y-101637192D01*
X107171352Y-101539686D01*
X107124808Y-101431959D01*
X107083123Y-101341172D01*
X107052450Y-101271753D01*
X107032044Y-101214710D01*
X107025232Y-101179777D01*
X107026318Y-101175095D01*
X107040715Y-101152991D01*
X107073588Y-101103831D01*
X107121410Y-101032848D01*
X107180652Y-100945278D01*
X107247785Y-100846357D01*
X107261059Y-100826830D01*
X107338954Y-100711140D01*
X107396213Y-100623044D01*
X107435119Y-100558486D01*
X107457956Y-100513411D01*
X107467006Y-100483763D01*
X107464552Y-100465485D01*
X107464489Y-100465369D01*
X107445173Y-100441361D01*
X107402449Y-100394947D01*
X107340949Y-100330937D01*
X107265302Y-100254145D01*
X107180139Y-100169382D01*
X107170535Y-100159922D01*
X107063210Y-100055989D01*
X106980385Y-99979675D01*
X106920395Y-99929571D01*
X106881577Y-99904270D01*
X106864480Y-99901004D01*
X106839527Y-99915250D01*
X106787745Y-99948156D01*
X106714480Y-99996208D01*
X106625080Y-100055890D01*
X106524889Y-100123688D01*
X106501499Y-100139639D01*
X106169407Y-100366420D01*
X106019435Y-100298353D01*
X105928230Y-100258685D01*
X105830331Y-100218791D01*
X105746169Y-100186983D01*
X105742462Y-100185674D01*
X105676631Y-100161576D01*
X105625884Y-100141200D01*
X105601158Y-100128936D01*
X105601116Y-100128901D01*
X105593271Y-100106734D01*
X105579934Y-100052217D01*
X105562430Y-99971480D01*
X105542083Y-99870650D01*
X105520218Y-99755856D01*
X105518429Y-99746178D01*
X105496496Y-99627904D01*
X105476360Y-99520542D01*
X105459320Y-99430917D01*
X105446672Y-99365851D01*
X105439716Y-99332168D01*
X105439594Y-99331654D01*
X105435361Y-99317325D01*
X105427129Y-99306507D01*
X105409967Y-99298706D01*
X105378942Y-99293429D01*
X105329122Y-99290182D01*
X105255576Y-99288472D01*
X105153371Y-99287807D01*
X105017575Y-99287693D01*
X105000000Y-99287692D01*
X104860122Y-99287776D01*
G36*
X100754776Y-105647838D02*
X100677472Y-105698361D01*
X100640186Y-105743590D01*
X100610647Y-105825663D01*
X100608301Y-105890607D01*
X100613615Y-105977445D01*
X100813885Y-106065103D01*
X100911261Y-106109887D01*
X100974887Y-106145913D01*
X101007971Y-106177117D01*
X101013720Y-106207436D01*
X100995342Y-106240805D01*
X100975077Y-106262923D01*
X100916111Y-106298393D01*
X100851976Y-106300879D01*
X100793074Y-106273235D01*
X100749803Y-106218320D01*
X100742064Y-106198928D01*
X100704994Y-106138364D01*
X100662346Y-106112552D01*
X100603846Y-106090471D01*
X100603846Y-106174184D01*
X100609018Y-106231150D01*
X100629277Y-106279189D01*
X100671738Y-106334346D01*
X100678049Y-106341514D01*
X100725280Y-106390585D01*
X100765879Y-106416920D01*
X100816672Y-106429035D01*
X100858780Y-106433003D01*
X100934098Y-106433991D01*
X100987714Y-106421466D01*
X101021162Y-106402869D01*
X101073732Y-106361975D01*
X101110121Y-106317748D01*
X101133150Y-106262126D01*
X101145641Y-106187047D01*
X101150413Y-106084449D01*
X101150794Y-106032376D01*
X101149499Y-105969948D01*
X101031529Y-105969948D01*
X101030161Y-106003438D01*
X101026751Y-106008923D01*
X101004247Y-106001472D01*
X100955818Y-105981753D01*
X100891092Y-105953718D01*
X100877557Y-105947692D01*
X100795756Y-105906096D01*
X100750688Y-105869538D01*
X100740783Y-105835296D01*
X100764474Y-105800648D01*
X100784040Y-105785339D01*
X100854640Y-105754721D01*
X100920720Y-105759780D01*
X100976041Y-105797151D01*
X101014364Y-105863473D01*
X101026651Y-105916116D01*
X101031529Y-105969948D01*
X101149499Y-105969948D01*
X101148270Y-105910720D01*
X101138968Y-105820710D01*
X101120540Y-105755167D01*
X101090640Y-105706912D01*
X101046920Y-105668767D01*
X101027859Y-105656440D01*
X100941274Y-105624336D01*
X100846478Y-105622316D01*
X100754776Y-105647838D01*
X100754776Y-105647838D01*
G37*
X100754776Y-105647838D02*
X100677472Y-105698361D01*
X100640186Y-105743590D01*
X100610647Y-105825663D01*
X100608301Y-105890607D01*
X100613615Y-105977445D01*
X100813885Y-106065103D01*
X100911261Y-106109887D01*
X100974887Y-106145913D01*
X101007971Y-106177117D01*
X101013720Y-106207436D01*
X100995342Y-106240805D01*
X100975077Y-106262923D01*
X100916111Y-106298393D01*
X100851976Y-106300879D01*
X100793074Y-106273235D01*
X100749803Y-106218320D01*
X100742064Y-106198928D01*
X100704994Y-106138364D01*
X100662346Y-106112552D01*
X100603846Y-106090471D01*
X100603846Y-106174184D01*
X100609018Y-106231150D01*
X100629277Y-106279189D01*
X100671738Y-106334346D01*
X100678049Y-106341514D01*
X100725280Y-106390585D01*
X100765879Y-106416920D01*
X100816672Y-106429035D01*
X100858780Y-106433003D01*
X100934098Y-106433991D01*
X100987714Y-106421466D01*
X101021162Y-106402869D01*
X101073732Y-106361975D01*
X101110121Y-106317748D01*
X101133150Y-106262126D01*
X101145641Y-106187047D01*
X101150413Y-106084449D01*
X101150794Y-106032376D01*
X101149499Y-105969948D01*
X101031529Y-105969948D01*
X101030161Y-106003438D01*
X101026751Y-106008923D01*
X101004247Y-106001472D01*
X100955818Y-105981753D01*
X100891092Y-105953718D01*
X100877557Y-105947692D01*
X100795756Y-105906096D01*
X100750688Y-105869538D01*
X100740783Y-105835296D01*
X100764474Y-105800648D01*
X100784040Y-105785339D01*
X100854640Y-105754721D01*
X100920720Y-105759780D01*
X100976041Y-105797151D01*
X101014364Y-105863473D01*
X101026651Y-105916116D01*
X101031529Y-105969948D01*
X101149499Y-105969948D01*
X101148270Y-105910720D01*
X101138968Y-105820710D01*
X101120540Y-105755167D01*
X101090640Y-105706912D01*
X101046920Y-105668767D01*
X101027859Y-105656440D01*
X100941274Y-105624336D01*
X100846478Y-105622316D01*
X100754776Y-105647838D01*
G36*
X101429193Y-105636782D02*
X101405839Y-105646988D01*
X101350098Y-105691134D01*
X101302431Y-105754967D01*
X101272952Y-105823087D01*
X101268154Y-105856670D01*
X101284240Y-105903556D01*
X101319525Y-105928365D01*
X101357356Y-105943387D01*
X101374679Y-105946155D01*
X101383114Y-105926066D01*
X101399770Y-105882351D01*
X101407077Y-105862598D01*
X101448052Y-105794271D01*
X101507378Y-105760191D01*
X101583448Y-105761239D01*
X101589082Y-105762581D01*
X101629695Y-105781836D01*
X101659552Y-105819375D01*
X101679945Y-105879809D01*
X101692164Y-105967751D01*
X101697500Y-106087813D01*
X101698000Y-106151698D01*
X101698248Y-106252403D01*
X101699874Y-106321054D01*
X101704199Y-106364673D01*
X101712546Y-106390282D01*
X101726235Y-106404903D01*
X101746589Y-106415558D01*
X101747766Y-106416095D01*
X101786962Y-106432667D01*
X101806381Y-106438769D01*
X101809365Y-106420319D01*
X101811919Y-106369323D01*
X101813860Y-106292308D01*
X101815003Y-106195805D01*
X101815231Y-106125184D01*
X101814068Y-105988525D01*
X101809521Y-105884851D01*
X101800001Y-105808108D01*
X101783919Y-105752246D01*
X101759687Y-105711212D01*
X101725714Y-105678954D01*
X101692167Y-105656440D01*
X101611501Y-105626476D01*
X101517619Y-105619718D01*
X101429193Y-105636782D01*
X101429193Y-105636782D01*
G37*
X101429193Y-105636782D02*
X101405839Y-105646988D01*
X101350098Y-105691134D01*
X101302431Y-105754967D01*
X101272952Y-105823087D01*
X101268154Y-105856670D01*
X101284240Y-105903556D01*
X101319525Y-105928365D01*
X101357356Y-105943387D01*
X101374679Y-105946155D01*
X101383114Y-105926066D01*
X101399770Y-105882351D01*
X101407077Y-105862598D01*
X101448052Y-105794271D01*
X101507378Y-105760191D01*
X101583448Y-105761239D01*
X101589082Y-105762581D01*
X101629695Y-105781836D01*
X101659552Y-105819375D01*
X101679945Y-105879809D01*
X101692164Y-105967751D01*
X101697500Y-106087813D01*
X101698000Y-106151698D01*
X101698248Y-106252403D01*
X101699874Y-106321054D01*
X101704199Y-106364673D01*
X101712546Y-106390282D01*
X101726235Y-106404903D01*
X101746589Y-106415558D01*
X101747766Y-106416095D01*
X101786962Y-106432667D01*
X101806381Y-106438769D01*
X101809365Y-106420319D01*
X101811919Y-106369323D01*
X101813860Y-106292308D01*
X101815003Y-106195805D01*
X101815231Y-106125184D01*
X101814068Y-105988525D01*
X101809521Y-105884851D01*
X101800001Y-105808108D01*
X101783919Y-105752246D01*
X101759687Y-105711212D01*
X101725714Y-105678954D01*
X101692167Y-105656440D01*
X101611501Y-105626476D01*
X101517619Y-105619718D01*
X101429193Y-105636782D01*
G36*
X102112667Y-105633528D02*
X102056410Y-105659117D01*
X102012253Y-105690124D01*
X101979899Y-105724795D01*
X101957562Y-105769520D01*
X101943454Y-105830692D01*
X101935789Y-105914701D01*
X101932780Y-106027940D01*
X101932462Y-106102509D01*
X101932462Y-106393420D01*
X101982227Y-106416095D01*
X102021424Y-106432667D01*
X102040843Y-106438769D01*
X102044558Y-106420610D01*
X102047505Y-106371648D01*
X102049309Y-106300153D01*
X102049692Y-106243385D01*
X102051339Y-106161371D01*
X102055778Y-106096309D01*
X102062260Y-106056467D01*
X102067410Y-106048000D01*
X102102023Y-106056646D01*
X102156360Y-106078823D01*
X102219278Y-106108886D01*
X102279632Y-106141192D01*
X102326279Y-106170098D01*
X102348074Y-106189961D01*
X102348161Y-106190175D01*
X102346286Y-106226935D01*
X102329475Y-106262026D01*
X102299961Y-106290528D01*
X102256884Y-106300061D01*
X102220068Y-106298950D01*
X102167926Y-106298133D01*
X102140556Y-106310349D01*
X102124118Y-106342624D01*
X102122045Y-106348710D01*
X102114919Y-106394739D01*
X102133976Y-106422687D01*
X102183647Y-106436007D01*
X102237303Y-106438470D01*
X102333858Y-106420210D01*
X102383841Y-106394131D01*
X102445571Y-106332868D01*
X102478310Y-106257670D01*
X102481247Y-106178211D01*
X102453576Y-106104167D01*
X102411953Y-106057769D01*
X102370396Y-106031793D01*
X102305078Y-105998907D01*
X102228962Y-105965557D01*
X102216274Y-105960461D01*
X102132667Y-105923565D01*
X102084470Y-105891046D01*
X102068970Y-105858718D01*
X102083450Y-105822394D01*
X102108308Y-105794000D01*
X102167061Y-105759039D01*
X102231707Y-105756417D01*
X102290992Y-105783358D01*
X102333661Y-105837088D01*
X102339261Y-105850950D01*
X102371867Y-105901936D01*
X102419470Y-105939787D01*
X102479539Y-105970850D01*
X102479539Y-105882768D01*
X102476003Y-105828951D01*
X102460844Y-105786534D01*
X102427232Y-105741279D01*
X102394965Y-105706420D01*
X102344791Y-105657062D01*
X102305807Y-105630547D01*
X102263936Y-105619911D01*
X102216540Y-105618154D01*
X102112667Y-105633528D01*
X102112667Y-105633528D01*
G37*
X102112667Y-105633528D02*
X102056410Y-105659117D01*
X102012253Y-105690124D01*
X101979899Y-105724795D01*
X101957562Y-105769520D01*
X101943454Y-105830692D01*
X101935789Y-105914701D01*
X101932780Y-106027940D01*
X101932462Y-106102509D01*
X101932462Y-106393420D01*
X101982227Y-106416095D01*
X102021424Y-106432667D01*
X102040843Y-106438769D01*
X102044558Y-106420610D01*
X102047505Y-106371648D01*
X102049309Y-106300153D01*
X102049692Y-106243385D01*
X102051339Y-106161371D01*
X102055778Y-106096309D01*
X102062260Y-106056467D01*
X102067410Y-106048000D01*
X102102023Y-106056646D01*
X102156360Y-106078823D01*
X102219278Y-106108886D01*
X102279632Y-106141192D01*
X102326279Y-106170098D01*
X102348074Y-106189961D01*
X102348161Y-106190175D01*
X102346286Y-106226935D01*
X102329475Y-106262026D01*
X102299961Y-106290528D01*
X102256884Y-106300061D01*
X102220068Y-106298950D01*
X102167926Y-106298133D01*
X102140556Y-106310349D01*
X102124118Y-106342624D01*
X102122045Y-106348710D01*
X102114919Y-106394739D01*
X102133976Y-106422687D01*
X102183647Y-106436007D01*
X102237303Y-106438470D01*
X102333858Y-106420210D01*
X102383841Y-106394131D01*
X102445571Y-106332868D01*
X102478310Y-106257670D01*
X102481247Y-106178211D01*
X102453576Y-106104167D01*
X102411953Y-106057769D01*
X102370396Y-106031793D01*
X102305078Y-105998907D01*
X102228962Y-105965557D01*
X102216274Y-105960461D01*
X102132667Y-105923565D01*
X102084470Y-105891046D01*
X102068970Y-105858718D01*
X102083450Y-105822394D01*
X102108308Y-105794000D01*
X102167061Y-105759039D01*
X102231707Y-105756417D01*
X102290992Y-105783358D01*
X102333661Y-105837088D01*
X102339261Y-105850950D01*
X102371867Y-105901936D01*
X102419470Y-105939787D01*
X102479539Y-105970850D01*
X102479539Y-105882768D01*
X102476003Y-105828951D01*
X102460844Y-105786534D01*
X102427232Y-105741279D01*
X102394965Y-105706420D01*
X102344791Y-105657062D01*
X102305807Y-105630547D01*
X102263936Y-105619911D01*
X102216540Y-105618154D01*
X102112667Y-105633528D01*
G36*
X102604071Y-105636662D02*
X102601089Y-105688068D01*
X102598753Y-105766192D01*
X102597251Y-105864857D01*
X102596769Y-105968343D01*
X102596769Y-106318533D01*
X102658599Y-106380363D01*
X102701207Y-106418462D01*
X102738610Y-106433895D01*
X102789730Y-106432918D01*
X102810022Y-106430433D01*
X102873446Y-106423200D01*
X102925905Y-106419055D01*
X102938692Y-106418672D01*
X102981801Y-106421176D01*
X103043456Y-106427462D01*
X103067362Y-106430433D01*
X103126078Y-106435028D01*
X103165536Y-106425046D01*
X103204662Y-106394228D01*
X103218785Y-106380363D01*
X103280615Y-106318533D01*
X103280615Y-105663503D01*
X103230850Y-105640829D01*
X103187998Y-105624034D01*
X103162927Y-105618154D01*
X103156499Y-105636736D01*
X103150491Y-105688655D01*
X103145303Y-105768172D01*
X103141336Y-105869546D01*
X103139423Y-105955192D01*
X103134077Y-106292231D01*
X103087440Y-106298825D01*
X103045024Y-106294214D01*
X103024240Y-106279287D01*
X103018430Y-106251377D01*
X103013470Y-106191925D01*
X103009754Y-106108466D01*
X103007676Y-106008532D01*
X103007376Y-105957104D01*
X103007077Y-105661054D01*
X102945546Y-105639604D01*
X102901996Y-105625020D01*
X102878306Y-105618219D01*
X102877623Y-105618154D01*
X102875246Y-105636642D01*
X102872634Y-105687906D01*
X102870005Y-105765649D01*
X102867579Y-105863574D01*
X102865885Y-105955192D01*
X102860539Y-106292231D01*
X102743308Y-106292231D01*
X102737928Y-105984746D01*
X102732549Y-105677261D01*
X102675399Y-105647707D01*
X102633203Y-105627413D01*
X102608230Y-105618204D01*
X102607509Y-105618154D01*
X102604071Y-105636662D01*
X102604071Y-105636662D01*
G37*
X102604071Y-105636662D02*
X102601089Y-105688068D01*
X102598753Y-105766192D01*
X102597251Y-105864857D01*
X102596769Y-105968343D01*
X102596769Y-106318533D01*
X102658599Y-106380363D01*
X102701207Y-106418462D01*
X102738610Y-106433895D01*
X102789730Y-106432918D01*
X102810022Y-106430433D01*
X102873446Y-106423200D01*
X102925905Y-106419055D01*
X102938692Y-106418672D01*
X102981801Y-106421176D01*
X103043456Y-106427462D01*
X103067362Y-106430433D01*
X103126078Y-106435028D01*
X103165536Y-106425046D01*
X103204662Y-106394228D01*
X103218785Y-106380363D01*
X103280615Y-106318533D01*
X103280615Y-105663503D01*
X103230850Y-105640829D01*
X103187998Y-105624034D01*
X103162927Y-105618154D01*
X103156499Y-105636736D01*
X103150491Y-105688655D01*
X103145303Y-105768172D01*
X103141336Y-105869546D01*
X103139423Y-105955192D01*
X103134077Y-106292231D01*
X103087440Y-106298825D01*
X103045024Y-106294214D01*
X103024240Y-106279287D01*
X103018430Y-106251377D01*
X103013470Y-106191925D01*
X103009754Y-106108466D01*
X103007676Y-106008532D01*
X103007376Y-105957104D01*
X103007077Y-105661054D01*
X102945546Y-105639604D01*
X102901996Y-105625020D01*
X102878306Y-105618219D01*
X102877623Y-105618154D01*
X102875246Y-105636642D01*
X102872634Y-105687906D01*
X102870005Y-105765649D01*
X102867579Y-105863574D01*
X102865885Y-105955192D01*
X102860539Y-106292231D01*
X102743308Y-106292231D01*
X102737928Y-105984746D01*
X102732549Y-105677261D01*
X102675399Y-105647707D01*
X102633203Y-105627413D01*
X102608230Y-105618204D01*
X102607509Y-105618154D01*
X102604071Y-105636662D01*
G36*
X103397919Y-105780289D02*
X103398167Y-105926320D01*
X103399128Y-106038655D01*
X103401206Y-106122678D01*
X103404807Y-106183769D01*
X103410335Y-106227309D01*
X103418196Y-106258679D01*
X103428793Y-106283262D01*
X103436818Y-106297294D01*
X103503272Y-106373388D01*
X103587530Y-106421084D01*
X103680751Y-106438199D01*
X103774100Y-106422546D01*
X103829688Y-106394418D01*
X103888043Y-106345760D01*
X103927814Y-106286333D01*
X103951810Y-106208507D01*
X103962839Y-106104652D01*
X103964401Y-106028462D01*
X103964191Y-106022986D01*
X103827692Y-106022986D01*
X103826859Y-106110355D01*
X103823039Y-106168192D01*
X103814254Y-106206029D01*
X103798526Y-106233398D01*
X103779734Y-106254042D01*
X103716625Y-106293890D01*
X103648863Y-106297295D01*
X103584821Y-106264025D01*
X103579836Y-106259517D01*
X103558561Y-106236067D01*
X103545221Y-106208166D01*
X103537999Y-106166641D01*
X103535077Y-106102316D01*
X103534615Y-106031200D01*
X103535617Y-105941858D01*
X103539762Y-105882258D01*
X103548764Y-105843089D01*
X103564333Y-105815040D01*
X103577098Y-105800144D01*
X103636400Y-105762575D01*
X103704699Y-105758057D01*
X103769890Y-105786753D01*
X103782472Y-105797406D01*
X103803889Y-105821063D01*
X103817256Y-105849251D01*
X103824434Y-105891245D01*
X103827281Y-105956319D01*
X103827692Y-106022986D01*
X103964191Y-106022986D01*
X103959678Y-105905765D01*
X103943638Y-105813577D01*
X103913472Y-105744269D01*
X103866371Y-105690211D01*
X103829688Y-105662505D01*
X103763010Y-105632572D01*
X103685728Y-105618678D01*
X103613890Y-105622397D01*
X103573692Y-105637400D01*
X103557918Y-105641670D01*
X103547450Y-105625750D01*
X103540144Y-105583089D01*
X103534615Y-105518106D01*
X103528563Y-105445732D01*
X103520156Y-105402187D01*
X103504859Y-105377287D01*
X103478136Y-105360845D01*
X103461346Y-105353564D01*
X103397846Y-105326963D01*
X103397919Y-105780289D01*
X103397919Y-105780289D01*
G37*
X103397919Y-105780289D02*
X103398167Y-105926320D01*
X103399128Y-106038655D01*
X103401206Y-106122678D01*
X103404807Y-106183769D01*
X103410335Y-106227309D01*
X103418196Y-106258679D01*
X103428793Y-106283262D01*
X103436818Y-106297294D01*
X103503272Y-106373388D01*
X103587530Y-106421084D01*
X103680751Y-106438199D01*
X103774100Y-106422546D01*
X103829688Y-106394418D01*
X103888043Y-106345760D01*
X103927814Y-106286333D01*
X103951810Y-106208507D01*
X103962839Y-106104652D01*
X103964401Y-106028462D01*
X103964191Y-106022986D01*
X103827692Y-106022986D01*
X103826859Y-106110355D01*
X103823039Y-106168192D01*
X103814254Y-106206029D01*
X103798526Y-106233398D01*
X103779734Y-106254042D01*
X103716625Y-106293890D01*
X103648863Y-106297295D01*
X103584821Y-106264025D01*
X103579836Y-106259517D01*
X103558561Y-106236067D01*
X103545221Y-106208166D01*
X103537999Y-106166641D01*
X103535077Y-106102316D01*
X103534615Y-106031200D01*
X103535617Y-105941858D01*
X103539762Y-105882258D01*
X103548764Y-105843089D01*
X103564333Y-105815040D01*
X103577098Y-105800144D01*
X103636400Y-105762575D01*
X103704699Y-105758057D01*
X103769890Y-105786753D01*
X103782472Y-105797406D01*
X103803889Y-105821063D01*
X103817256Y-105849251D01*
X103824434Y-105891245D01*
X103827281Y-105956319D01*
X103827692Y-106022986D01*
X103964191Y-106022986D01*
X103959678Y-105905765D01*
X103943638Y-105813577D01*
X103913472Y-105744269D01*
X103866371Y-105690211D01*
X103829688Y-105662505D01*
X103763010Y-105632572D01*
X103685728Y-105618678D01*
X103613890Y-105622397D01*
X103573692Y-105637400D01*
X103557918Y-105641670D01*
X103547450Y-105625750D01*
X103540144Y-105583089D01*
X103534615Y-105518106D01*
X103528563Y-105445732D01*
X103520156Y-105402187D01*
X103504859Y-105377287D01*
X103478136Y-105360845D01*
X103461346Y-105353564D01*
X103397846Y-105326963D01*
X103397919Y-105780289D01*
G36*
X104286638Y-105624670D02*
X104197883Y-105657421D01*
X104125978Y-105715350D01*
X104097856Y-105756128D01*
X104067198Y-105830954D01*
X104067835Y-105885058D01*
X104100013Y-105921446D01*
X104111919Y-105927633D01*
X104163325Y-105946925D01*
X104189578Y-105941982D01*
X104198470Y-105909587D01*
X104198923Y-105891692D01*
X104215203Y-105825859D01*
X104257635Y-105779807D01*
X104316612Y-105757564D01*
X104382525Y-105763161D01*
X104436105Y-105792229D01*
X104454202Y-105808810D01*
X104467029Y-105828925D01*
X104475694Y-105859332D01*
X104481304Y-105906788D01*
X104484965Y-105978050D01*
X104487785Y-106079875D01*
X104488516Y-106112115D01*
X104491180Y-106222410D01*
X104494208Y-106300036D01*
X104498750Y-106351396D01*
X104505954Y-106382890D01*
X104516967Y-106400920D01*
X104532940Y-106411888D01*
X104543166Y-106416733D01*
X104586594Y-106433301D01*
X104612158Y-106438769D01*
X104620605Y-106420507D01*
X104625761Y-106365296D01*
X104627654Y-106272499D01*
X104626311Y-106141478D01*
X104625893Y-106121269D01*
X104622942Y-106001733D01*
X104619452Y-105914449D01*
X104614486Y-105852591D01*
X104607107Y-105809336D01*
X104596376Y-105777860D01*
X104581355Y-105751339D01*
X104573498Y-105739975D01*
X104528447Y-105689692D01*
X104478060Y-105650581D01*
X104471892Y-105647167D01*
X104381542Y-105620212D01*
X104286638Y-105624670D01*
X104286638Y-105624670D01*
G37*
X104286638Y-105624670D02*
X104197883Y-105657421D01*
X104125978Y-105715350D01*
X104097856Y-105756128D01*
X104067198Y-105830954D01*
X104067835Y-105885058D01*
X104100013Y-105921446D01*
X104111919Y-105927633D01*
X104163325Y-105946925D01*
X104189578Y-105941982D01*
X104198470Y-105909587D01*
X104198923Y-105891692D01*
X104215203Y-105825859D01*
X104257635Y-105779807D01*
X104316612Y-105757564D01*
X104382525Y-105763161D01*
X104436105Y-105792229D01*
X104454202Y-105808810D01*
X104467029Y-105828925D01*
X104475694Y-105859332D01*
X104481304Y-105906788D01*
X104484965Y-105978050D01*
X104487785Y-106079875D01*
X104488516Y-106112115D01*
X104491180Y-106222410D01*
X104494208Y-106300036D01*
X104498750Y-106351396D01*
X104505954Y-106382890D01*
X104516967Y-106400920D01*
X104532940Y-106411888D01*
X104543166Y-106416733D01*
X104586594Y-106433301D01*
X104612158Y-106438769D01*
X104620605Y-106420507D01*
X104625761Y-106365296D01*
X104627654Y-106272499D01*
X104626311Y-106141478D01*
X104625893Y-106121269D01*
X104622942Y-106001733D01*
X104619452Y-105914449D01*
X104614486Y-105852591D01*
X104607107Y-105809336D01*
X104596376Y-105777860D01*
X104581355Y-105751339D01*
X104573498Y-105739975D01*
X104528447Y-105689692D01*
X104478060Y-105650581D01*
X104471892Y-105647167D01*
X104381542Y-105620212D01*
X104286638Y-105624670D01*
G36*
X104946499Y-105626303D02*
X104869940Y-105654733D01*
X104869064Y-105655279D01*
X104821715Y-105690127D01*
X104786759Y-105730852D01*
X104762175Y-105783925D01*
X104745938Y-105855814D01*
X104736025Y-105952992D01*
X104730414Y-106081928D01*
X104729923Y-106100298D01*
X104722859Y-106377287D01*
X104782305Y-106408028D01*
X104825319Y-106428802D01*
X104851290Y-106438646D01*
X104852491Y-106438769D01*
X104856986Y-106420606D01*
X104860556Y-106371612D01*
X104862752Y-106300031D01*
X104863231Y-106242068D01*
X104863242Y-106148170D01*
X104867534Y-106089203D01*
X104882497Y-106061079D01*
X104914518Y-106059706D01*
X104969986Y-106080998D01*
X105053731Y-106120136D01*
X105115311Y-106152643D01*
X105146983Y-106180845D01*
X105156294Y-106211582D01*
X105156308Y-106213104D01*
X105140943Y-106266054D01*
X105095453Y-106294660D01*
X105025834Y-106298803D01*
X104975687Y-106298084D01*
X104949246Y-106312527D01*
X104932757Y-106347218D01*
X104923267Y-106391416D01*
X104936943Y-106416493D01*
X104942093Y-106420082D01*
X104990575Y-106434496D01*
X105058469Y-106436537D01*
X105128388Y-106426983D01*
X105177932Y-106409522D01*
X105246430Y-106351364D01*
X105285366Y-106270408D01*
X105293077Y-106207160D01*
X105287193Y-106150111D01*
X105265899Y-106103542D01*
X105223735Y-106062181D01*
X105155241Y-106020755D01*
X105054956Y-105973993D01*
X105048846Y-105971350D01*
X104958510Y-105929617D01*
X104902765Y-105895391D01*
X104878871Y-105864635D01*
X104884087Y-105833311D01*
X104915672Y-105797383D01*
X104925117Y-105789116D01*
X104988383Y-105757058D01*
X105053936Y-105758407D01*
X105111028Y-105789838D01*
X105148907Y-105848024D01*
X105152426Y-105859446D01*
X105186700Y-105914837D01*
X105230191Y-105941518D01*
X105293077Y-105967960D01*
X105293077Y-105899548D01*
X105273948Y-105800110D01*
X105217169Y-105708902D01*
X105187622Y-105678389D01*
X105120458Y-105639228D01*
X105035044Y-105621500D01*
X104946499Y-105626303D01*
X104946499Y-105626303D01*
G37*
X104946499Y-105626303D02*
X104869940Y-105654733D01*
X104869064Y-105655279D01*
X104821715Y-105690127D01*
X104786759Y-105730852D01*
X104762175Y-105783925D01*
X104745938Y-105855814D01*
X104736025Y-105952992D01*
X104730414Y-106081928D01*
X104729923Y-106100298D01*
X104722859Y-106377287D01*
X104782305Y-106408028D01*
X104825319Y-106428802D01*
X104851290Y-106438646D01*
X104852491Y-106438769D01*
X104856986Y-106420606D01*
X104860556Y-106371612D01*
X104862752Y-106300031D01*
X104863231Y-106242068D01*
X104863242Y-106148170D01*
X104867534Y-106089203D01*
X104882497Y-106061079D01*
X104914518Y-106059706D01*
X104969986Y-106080998D01*
X105053731Y-106120136D01*
X105115311Y-106152643D01*
X105146983Y-106180845D01*
X105156294Y-106211582D01*
X105156308Y-106213104D01*
X105140943Y-106266054D01*
X105095453Y-106294660D01*
X105025834Y-106298803D01*
X104975687Y-106298084D01*
X104949246Y-106312527D01*
X104932757Y-106347218D01*
X104923267Y-106391416D01*
X104936943Y-106416493D01*
X104942093Y-106420082D01*
X104990575Y-106434496D01*
X105058469Y-106436537D01*
X105128388Y-106426983D01*
X105177932Y-106409522D01*
X105246430Y-106351364D01*
X105285366Y-106270408D01*
X105293077Y-106207160D01*
X105287193Y-106150111D01*
X105265899Y-106103542D01*
X105223735Y-106062181D01*
X105155241Y-106020755D01*
X105054956Y-105973993D01*
X105048846Y-105971350D01*
X104958510Y-105929617D01*
X104902765Y-105895391D01*
X104878871Y-105864635D01*
X104884087Y-105833311D01*
X104915672Y-105797383D01*
X104925117Y-105789116D01*
X104988383Y-105757058D01*
X105053936Y-105758407D01*
X105111028Y-105789838D01*
X105148907Y-105848024D01*
X105152426Y-105859446D01*
X105186700Y-105914837D01*
X105230191Y-105941518D01*
X105293077Y-105967960D01*
X105293077Y-105899548D01*
X105273948Y-105800110D01*
X105217169Y-105708902D01*
X105187622Y-105678389D01*
X105120458Y-105639228D01*
X105035044Y-105621500D01*
X104946499Y-105626303D01*
G36*
X105840154Y-105492120D02*
X105834428Y-105571980D01*
X105827851Y-105619039D01*
X105818738Y-105639566D01*
X105805402Y-105639829D01*
X105801077Y-105637378D01*
X105743556Y-105619636D01*
X105668732Y-105620672D01*
X105592661Y-105638910D01*
X105545082Y-105662505D01*
X105496298Y-105700198D01*
X105460636Y-105742855D01*
X105436155Y-105797057D01*
X105420913Y-105869384D01*
X105412970Y-105966419D01*
X105410384Y-106094742D01*
X105410338Y-106119358D01*
X105410308Y-106395870D01*
X105471839Y-106417320D01*
X105515541Y-106431912D01*
X105539518Y-106438706D01*
X105540223Y-106438769D01*
X105542585Y-106420345D01*
X105544594Y-106369526D01*
X105546099Y-106292993D01*
X105546947Y-106197430D01*
X105547077Y-106139329D01*
X105547349Y-106024771D01*
X105548748Y-105942667D01*
X105552151Y-105886393D01*
X105558433Y-105849326D01*
X105568471Y-105824844D01*
X105583139Y-105806325D01*
X105592298Y-105797406D01*
X105655211Y-105761466D01*
X105723864Y-105758775D01*
X105786152Y-105789170D01*
X105797671Y-105800144D01*
X105814567Y-105820779D01*
X105826286Y-105845256D01*
X105833767Y-105880647D01*
X105837946Y-105934026D01*
X105839763Y-106012466D01*
X105840154Y-106120617D01*
X105840154Y-106395870D01*
X105901685Y-106417320D01*
X105945387Y-106431912D01*
X105969364Y-106438706D01*
X105970070Y-106438769D01*
X105971874Y-106420069D01*
X105973500Y-106367322D01*
X105974883Y-106285557D01*
X105975958Y-106179805D01*
X105976660Y-106055094D01*
X105976923Y-105916455D01*
X105976923Y-105381806D01*
X105849923Y-105328236D01*
X105840154Y-105492120D01*
X105840154Y-105492120D01*
G37*
X105840154Y-105492120D02*
X105834428Y-105571980D01*
X105827851Y-105619039D01*
X105818738Y-105639566D01*
X105805402Y-105639829D01*
X105801077Y-105637378D01*
X105743556Y-105619636D01*
X105668732Y-105620672D01*
X105592661Y-105638910D01*
X105545082Y-105662505D01*
X105496298Y-105700198D01*
X105460636Y-105742855D01*
X105436155Y-105797057D01*
X105420913Y-105869384D01*
X105412970Y-105966419D01*
X105410384Y-106094742D01*
X105410338Y-106119358D01*
X105410308Y-106395870D01*
X105471839Y-106417320D01*
X105515541Y-106431912D01*
X105539518Y-106438706D01*
X105540223Y-106438769D01*
X105542585Y-106420345D01*
X105544594Y-106369526D01*
X105546099Y-106292993D01*
X105546947Y-106197430D01*
X105547077Y-106139329D01*
X105547349Y-106024771D01*
X105548748Y-105942667D01*
X105552151Y-105886393D01*
X105558433Y-105849326D01*
X105568471Y-105824844D01*
X105583139Y-105806325D01*
X105592298Y-105797406D01*
X105655211Y-105761466D01*
X105723864Y-105758775D01*
X105786152Y-105789170D01*
X105797671Y-105800144D01*
X105814567Y-105820779D01*
X105826286Y-105845256D01*
X105833767Y-105880647D01*
X105837946Y-105934026D01*
X105839763Y-106012466D01*
X105840154Y-106120617D01*
X105840154Y-106395870D01*
X105901685Y-106417320D01*
X105945387Y-106431912D01*
X105969364Y-106438706D01*
X105970070Y-106438769D01*
X105971874Y-106420069D01*
X105973500Y-106367322D01*
X105974883Y-106285557D01*
X105975958Y-106179805D01*
X105976660Y-106055094D01*
X105976923Y-105916455D01*
X105976923Y-105381806D01*
X105849923Y-105328236D01*
X105840154Y-105492120D01*
G36*
X107465746Y-105599745D02*
X107388714Y-105651567D01*
X107329184Y-105726412D01*
X107293622Y-105821654D01*
X107286429Y-105891756D01*
X107287246Y-105921009D01*
X107294086Y-105943407D01*
X107312888Y-105963474D01*
X107349592Y-105985733D01*
X107410138Y-106014709D01*
X107500466Y-106054927D01*
X107500923Y-106055129D01*
X107584067Y-106093210D01*
X107652247Y-106127025D01*
X107698495Y-106152933D01*
X107715842Y-106167295D01*
X107715846Y-106167411D01*
X107700557Y-106198685D01*
X107664804Y-106233157D01*
X107623758Y-106257990D01*
X107602963Y-106262923D01*
X107546230Y-106245862D01*
X107497373Y-106203133D01*
X107473535Y-106156155D01*
X107450603Y-106121522D01*
X107405682Y-106082081D01*
X107352877Y-106048009D01*
X107306290Y-106029480D01*
X107296548Y-106028462D01*
X107285582Y-106045215D01*
X107284921Y-106088039D01*
X107292980Y-106145781D01*
X107308173Y-106207289D01*
X107328914Y-106261409D01*
X107329962Y-106263510D01*
X107392379Y-106350660D01*
X107473274Y-106409939D01*
X107565144Y-106439034D01*
X107660487Y-106435634D01*
X107751802Y-106397428D01*
X107755862Y-106394741D01*
X107827694Y-106329642D01*
X107874927Y-106244705D01*
X107901066Y-106133021D01*
X107904574Y-106101643D01*
X107910787Y-105953536D01*
X107903339Y-105884468D01*
X107715846Y-105884468D01*
X107713410Y-105927552D01*
X107700086Y-105940126D01*
X107666868Y-105930719D01*
X107614506Y-105908483D01*
X107555976Y-105880610D01*
X107554521Y-105879872D01*
X107504911Y-105853777D01*
X107485000Y-105836363D01*
X107489910Y-105818107D01*
X107510584Y-105794120D01*
X107563181Y-105759406D01*
X107619823Y-105756856D01*
X107670631Y-105782119D01*
X107705724Y-105830847D01*
X107715846Y-105884468D01*
X107903339Y-105884468D01*
X107898008Y-105835036D01*
X107865222Y-105741055D01*
X107819579Y-105675215D01*
X107737198Y-105608681D01*
X107646454Y-105575676D01*
X107553815Y-105573573D01*
X107465746Y-105599745D01*
X107465746Y-105599745D01*
G37*
X107465746Y-105599745D02*
X107388714Y-105651567D01*
X107329184Y-105726412D01*
X107293622Y-105821654D01*
X107286429Y-105891756D01*
X107287246Y-105921009D01*
X107294086Y-105943407D01*
X107312888Y-105963474D01*
X107349592Y-105985733D01*
X107410138Y-106014709D01*
X107500466Y-106054927D01*
X107500923Y-106055129D01*
X107584067Y-106093210D01*
X107652247Y-106127025D01*
X107698495Y-106152933D01*
X107715842Y-106167295D01*
X107715846Y-106167411D01*
X107700557Y-106198685D01*
X107664804Y-106233157D01*
X107623758Y-106257990D01*
X107602963Y-106262923D01*
X107546230Y-106245862D01*
X107497373Y-106203133D01*
X107473535Y-106156155D01*
X107450603Y-106121522D01*
X107405682Y-106082081D01*
X107352877Y-106048009D01*
X107306290Y-106029480D01*
X107296548Y-106028462D01*
X107285582Y-106045215D01*
X107284921Y-106088039D01*
X107292980Y-106145781D01*
X107308173Y-106207289D01*
X107328914Y-106261409D01*
X107329962Y-106263510D01*
X107392379Y-106350660D01*
X107473274Y-106409939D01*
X107565144Y-106439034D01*
X107660487Y-106435634D01*
X107751802Y-106397428D01*
X107755862Y-106394741D01*
X107827694Y-106329642D01*
X107874927Y-106244705D01*
X107901066Y-106133021D01*
X107904574Y-106101643D01*
X107910787Y-105953536D01*
X107903339Y-105884468D01*
X107715846Y-105884468D01*
X107713410Y-105927552D01*
X107700086Y-105940126D01*
X107666868Y-105930719D01*
X107614506Y-105908483D01*
X107555976Y-105880610D01*
X107554521Y-105879872D01*
X107504911Y-105853777D01*
X107485000Y-105836363D01*
X107489910Y-105818107D01*
X107510584Y-105794120D01*
X107563181Y-105759406D01*
X107619823Y-105756856D01*
X107670631Y-105782119D01*
X107705724Y-105830847D01*
X107715846Y-105884468D01*
X107903339Y-105884468D01*
X107898008Y-105835036D01*
X107865222Y-105741055D01*
X107819579Y-105675215D01*
X107737198Y-105608681D01*
X107646454Y-105575676D01*
X107553815Y-105573573D01*
X107465746Y-105599745D01*
G36*
X108983114Y-105587256D02*
X108891536Y-105635409D01*
X108823951Y-105712905D01*
X108799943Y-105762727D01*
X108781262Y-105837533D01*
X108771699Y-105932052D01*
X108770792Y-106035210D01*
X108778079Y-106135935D01*
X108793097Y-106223153D01*
X108815385Y-106285791D01*
X108822235Y-106296579D01*
X108903368Y-106377105D01*
X108999734Y-106425336D01*
X109104299Y-106439450D01*
X109210032Y-106417629D01*
X109239457Y-106404547D01*
X109296759Y-106364231D01*
X109347050Y-106310775D01*
X109351803Y-106303995D01*
X109371122Y-106271321D01*
X109383892Y-106236394D01*
X109391436Y-106190414D01*
X109395076Y-106124584D01*
X109396135Y-106030105D01*
X109396154Y-106008923D01*
X109396106Y-106002182D01*
X109200769Y-106002182D01*
X109199632Y-106091349D01*
X109195159Y-106150520D01*
X109185754Y-106188741D01*
X109169824Y-106215053D01*
X109161692Y-106223846D01*
X109114942Y-106257261D01*
X109069553Y-106255737D01*
X109023660Y-106226752D01*
X108996288Y-106195809D01*
X108980077Y-106150643D01*
X108970974Y-106079420D01*
X108970349Y-106071114D01*
X108968796Y-105942037D01*
X108985035Y-105846172D01*
X109018848Y-105784107D01*
X109070016Y-105756432D01*
X109088280Y-105754923D01*
X109136240Y-105762513D01*
X109169047Y-105788808D01*
X109189105Y-105839095D01*
X109198822Y-105918664D01*
X109200769Y-106002182D01*
X109396106Y-106002182D01*
X109395426Y-105908249D01*
X109392371Y-105837906D01*
X109385678Y-105789163D01*
X109374040Y-105753288D01*
X109356147Y-105721548D01*
X109352192Y-105715648D01*
X109285733Y-105636104D01*
X109213315Y-105589929D01*
X109125151Y-105571599D01*
X109095213Y-105570703D01*
X108983114Y-105587256D01*
X108983114Y-105587256D01*
G37*
X108983114Y-105587256D02*
X108891536Y-105635409D01*
X108823951Y-105712905D01*
X108799943Y-105762727D01*
X108781262Y-105837533D01*
X108771699Y-105932052D01*
X108770792Y-106035210D01*
X108778079Y-106135935D01*
X108793097Y-106223153D01*
X108815385Y-106285791D01*
X108822235Y-106296579D01*
X108903368Y-106377105D01*
X108999734Y-106425336D01*
X109104299Y-106439450D01*
X109210032Y-106417629D01*
X109239457Y-106404547D01*
X109296759Y-106364231D01*
X109347050Y-106310775D01*
X109351803Y-106303995D01*
X109371122Y-106271321D01*
X109383892Y-106236394D01*
X109391436Y-106190414D01*
X109395076Y-106124584D01*
X109396135Y-106030105D01*
X109396154Y-106008923D01*
X109396106Y-106002182D01*
X109200769Y-106002182D01*
X109199632Y-106091349D01*
X109195159Y-106150520D01*
X109185754Y-106188741D01*
X109169824Y-106215053D01*
X109161692Y-106223846D01*
X109114942Y-106257261D01*
X109069553Y-106255737D01*
X109023660Y-106226752D01*
X108996288Y-106195809D01*
X108980077Y-106150643D01*
X108970974Y-106079420D01*
X108970349Y-106071114D01*
X108968796Y-105942037D01*
X108985035Y-105846172D01*
X109018848Y-105784107D01*
X109070016Y-105756432D01*
X109088280Y-105754923D01*
X109136240Y-105762513D01*
X109169047Y-105788808D01*
X109189105Y-105839095D01*
X109198822Y-105918664D01*
X109200769Y-106002182D01*
X109396106Y-106002182D01*
X109395426Y-105908249D01*
X109392371Y-105837906D01*
X109385678Y-105789163D01*
X109374040Y-105753288D01*
X109356147Y-105721548D01*
X109352192Y-105715648D01*
X109285733Y-105636104D01*
X109213315Y-105589929D01*
X109125151Y-105571599D01*
X109095213Y-105570703D01*
X108983114Y-105587256D01*
G36*
X106728336Y-105595089D02*
X106665633Y-105631358D01*
X106622039Y-105667358D01*
X106590155Y-105705075D01*
X106568190Y-105751199D01*
X106554351Y-105812421D01*
X106546847Y-105895431D01*
X106543883Y-106006919D01*
X106543539Y-106087062D01*
X106543539Y-106382065D01*
X106709615Y-106456515D01*
X106719385Y-106133402D01*
X106723421Y-106012729D01*
X106727656Y-105925141D01*
X106732903Y-105864650D01*
X106739975Y-105825268D01*
X106749689Y-105801007D01*
X106762856Y-105785880D01*
X106767081Y-105782606D01*
X106831091Y-105757034D01*
X106895792Y-105767153D01*
X106934308Y-105794000D01*
X106949975Y-105813024D01*
X106960820Y-105837988D01*
X106967712Y-105875834D01*
X106971521Y-105933502D01*
X106973117Y-106017935D01*
X106973385Y-106105928D01*
X106973437Y-106216323D01*
X106975328Y-106294463D01*
X106981655Y-106347165D01*
X106995017Y-106381242D01*
X107018015Y-106403511D01*
X107053246Y-106420787D01*
X107100303Y-106438738D01*
X107151697Y-106458278D01*
X107145579Y-106111485D01*
X107143116Y-105986468D01*
X107140233Y-105894082D01*
X107136102Y-105827881D01*
X107129893Y-105781420D01*
X107120774Y-105748256D01*
X107107917Y-105721944D01*
X107092416Y-105698729D01*
X107017629Y-105624569D01*
X106926372Y-105581684D01*
X106827117Y-105571412D01*
X106728336Y-105595089D01*
X106728336Y-105595089D01*
G37*
X106728336Y-105595089D02*
X106665633Y-105631358D01*
X106622039Y-105667358D01*
X106590155Y-105705075D01*
X106568190Y-105751199D01*
X106554351Y-105812421D01*
X106546847Y-105895431D01*
X106543883Y-106006919D01*
X106543539Y-106087062D01*
X106543539Y-106382065D01*
X106709615Y-106456515D01*
X106719385Y-106133402D01*
X106723421Y-106012729D01*
X106727656Y-105925141D01*
X106732903Y-105864650D01*
X106739975Y-105825268D01*
X106749689Y-105801007D01*
X106762856Y-105785880D01*
X106767081Y-105782606D01*
X106831091Y-105757034D01*
X106895792Y-105767153D01*
X106934308Y-105794000D01*
X106949975Y-105813024D01*
X106960820Y-105837988D01*
X106967712Y-105875834D01*
X106971521Y-105933502D01*
X106973117Y-106017935D01*
X106973385Y-106105928D01*
X106973437Y-106216323D01*
X106975328Y-106294463D01*
X106981655Y-106347165D01*
X106995017Y-106381242D01*
X107018015Y-106403511D01*
X107053246Y-106420787D01*
X107100303Y-106438738D01*
X107151697Y-106458278D01*
X107145579Y-106111485D01*
X107143116Y-105986468D01*
X107140233Y-105894082D01*
X107136102Y-105827881D01*
X107129893Y-105781420D01*
X107120774Y-105748256D01*
X107107917Y-105721944D01*
X107092416Y-105698729D01*
X107017629Y-105624569D01*
X106926372Y-105581684D01*
X106827117Y-105571412D01*
X106728336Y-105595089D01*
G36*
X108231114Y-105584505D02*
X108156461Y-105621727D01*
X108090569Y-105690261D01*
X108072423Y-105715648D01*
X108052655Y-105748866D01*
X108039828Y-105784945D01*
X108032490Y-105833098D01*
X108029187Y-105902536D01*
X108028462Y-105994206D01*
X108031737Y-106119830D01*
X108043123Y-106214154D01*
X108064959Y-106284523D01*
X108099581Y-106338286D01*
X108149330Y-106382788D01*
X108152986Y-106385423D01*
X108202015Y-106412377D01*
X108261055Y-106425712D01*
X108336141Y-106429000D01*
X108458205Y-106429000D01*
X108458256Y-106547497D01*
X108459392Y-106613492D01*
X108466314Y-106652202D01*
X108484402Y-106675419D01*
X108519038Y-106694933D01*
X108527355Y-106698920D01*
X108566280Y-106717603D01*
X108596417Y-106729403D01*
X108618826Y-106730422D01*
X108634567Y-106716761D01*
X108644698Y-106684522D01*
X108650277Y-106629804D01*
X108652365Y-106548711D01*
X108652019Y-106437344D01*
X108650300Y-106291802D01*
X108649763Y-106248269D01*
X108647828Y-106098205D01*
X108646096Y-106000042D01*
X108458308Y-106000042D01*
X108457252Y-106083364D01*
X108452562Y-106137880D01*
X108441949Y-106173837D01*
X108423128Y-106201482D01*
X108410350Y-106214965D01*
X108358110Y-106254417D01*
X108311858Y-106257628D01*
X108264133Y-106225049D01*
X108262923Y-106223846D01*
X108243506Y-106198668D01*
X108231693Y-106164447D01*
X108225735Y-106111748D01*
X108223880Y-106031131D01*
X108223846Y-106013271D01*
X108228330Y-105902175D01*
X108242926Y-105825161D01*
X108269350Y-105778147D01*
X108309317Y-105757050D01*
X108332416Y-105754923D01*
X108387238Y-105764900D01*
X108424842Y-105797752D01*
X108447477Y-105857857D01*
X108457394Y-105949598D01*
X108458308Y-106000042D01*
X108646096Y-106000042D01*
X108645778Y-105982060D01*
X108643127Y-105894679D01*
X108639394Y-105830905D01*
X108634093Y-105785582D01*
X108626742Y-105753555D01*
X108616857Y-105729668D01*
X108603954Y-105708764D01*
X108598421Y-105700898D01*
X108525031Y-105626595D01*
X108432240Y-105584467D01*
X108324904Y-105572722D01*
X108231114Y-105584505D01*
X108231114Y-105584505D01*
G37*
X108231114Y-105584505D02*
X108156461Y-105621727D01*
X108090569Y-105690261D01*
X108072423Y-105715648D01*
X108052655Y-105748866D01*
X108039828Y-105784945D01*
X108032490Y-105833098D01*
X108029187Y-105902536D01*
X108028462Y-105994206D01*
X108031737Y-106119830D01*
X108043123Y-106214154D01*
X108064959Y-106284523D01*
X108099581Y-106338286D01*
X108149330Y-106382788D01*
X108152986Y-106385423D01*
X108202015Y-106412377D01*
X108261055Y-106425712D01*
X108336141Y-106429000D01*
X108458205Y-106429000D01*
X108458256Y-106547497D01*
X108459392Y-106613492D01*
X108466314Y-106652202D01*
X108484402Y-106675419D01*
X108519038Y-106694933D01*
X108527355Y-106698920D01*
X108566280Y-106717603D01*
X108596417Y-106729403D01*
X108618826Y-106730422D01*
X108634567Y-106716761D01*
X108644698Y-106684522D01*
X108650277Y-106629804D01*
X108652365Y-106548711D01*
X108652019Y-106437344D01*
X108650300Y-106291802D01*
X108649763Y-106248269D01*
X108647828Y-106098205D01*
X108646096Y-106000042D01*
X108458308Y-106000042D01*
X108457252Y-106083364D01*
X108452562Y-106137880D01*
X108441949Y-106173837D01*
X108423128Y-106201482D01*
X108410350Y-106214965D01*
X108358110Y-106254417D01*
X108311858Y-106257628D01*
X108264133Y-106225049D01*
X108262923Y-106223846D01*
X108243506Y-106198668D01*
X108231693Y-106164447D01*
X108225735Y-106111748D01*
X108223880Y-106031131D01*
X108223846Y-106013271D01*
X108228330Y-105902175D01*
X108242926Y-105825161D01*
X108269350Y-105778147D01*
X108309317Y-105757050D01*
X108332416Y-105754923D01*
X108387238Y-105764900D01*
X108424842Y-105797752D01*
X108447477Y-105857857D01*
X108457394Y-105949598D01*
X108458308Y-106000042D01*
X108646096Y-106000042D01*
X108645778Y-105982060D01*
X108643127Y-105894679D01*
X108639394Y-105830905D01*
X108634093Y-105785582D01*
X108626742Y-105753555D01*
X108616857Y-105729668D01*
X108603954Y-105708764D01*
X108598421Y-105700898D01*
X108525031Y-105626595D01*
X108432240Y-105584467D01*
X108324904Y-105572722D01*
X108231114Y-105584505D01*
%LPC*%
D15*
X87600000Y-103700000D03*
X87600000Y-108300000D03*
D16*
X87700000Y-111850000D03*
X87700000Y-100150000D03*
D17*
G36*
X118183128Y-110202119D02*
X118225840Y-110208454D01*
X118267725Y-110218946D01*
X118308381Y-110233493D01*
X118347415Y-110251955D01*
X118384451Y-110274153D01*
X118419133Y-110299875D01*
X118451127Y-110328873D01*
X118480125Y-110360867D01*
X118505847Y-110395549D01*
X118528045Y-110432585D01*
X118546507Y-110471619D01*
X118561054Y-110512275D01*
X118571546Y-110554160D01*
X118577881Y-110596872D01*
X118580000Y-110640000D01*
X118580000Y-111520000D01*
X118577881Y-111563128D01*
X118571546Y-111605840D01*
X118561054Y-111647725D01*
X118546507Y-111688381D01*
X118528045Y-111727415D01*
X118505847Y-111764451D01*
X118480125Y-111799133D01*
X118451127Y-111831127D01*
X118419133Y-111860125D01*
X118384451Y-111885847D01*
X118347415Y-111908045D01*
X118308381Y-111926507D01*
X118267725Y-111941054D01*
X118225840Y-111951546D01*
X118183128Y-111957881D01*
X118140000Y-111960000D01*
X116360000Y-111960000D01*
X116316872Y-111957881D01*
X116274160Y-111951546D01*
X116232275Y-111941054D01*
X116191619Y-111926507D01*
X116152585Y-111908045D01*
X116115549Y-111885847D01*
X116080867Y-111860125D01*
X116048873Y-111831127D01*
X116019875Y-111799133D01*
X115994153Y-111764451D01*
X115971955Y-111727415D01*
X115953493Y-111688381D01*
X115938946Y-111647725D01*
X115928454Y-111605840D01*
X115922119Y-111563128D01*
X115920000Y-111520000D01*
X115920000Y-110640000D01*
X115922119Y-110596872D01*
X115928454Y-110554160D01*
X115938946Y-110512275D01*
X115953493Y-110471619D01*
X115971955Y-110432585D01*
X115994153Y-110395549D01*
X116019875Y-110360867D01*
X116048873Y-110328873D01*
X116080867Y-110299875D01*
X116115549Y-110274153D01*
X116152585Y-110251955D01*
X116191619Y-110233493D01*
X116232275Y-110218946D01*
X116274160Y-110208454D01*
X116316872Y-110202119D01*
X116360000Y-110200000D01*
X118140000Y-110200000D01*
X118183128Y-110202119D01*
X118183128Y-110202119D01*
G37*
D18*
X117250000Y-111080000D03*
D17*
G36*
X118183128Y-100042119D02*
X118225840Y-100048454D01*
X118267725Y-100058946D01*
X118308381Y-100073493D01*
X118347415Y-100091955D01*
X118384451Y-100114153D01*
X118419133Y-100139875D01*
X118451127Y-100168873D01*
X118480125Y-100200867D01*
X118505847Y-100235549D01*
X118528045Y-100272585D01*
X118546507Y-100311619D01*
X118561054Y-100352275D01*
X118571546Y-100394160D01*
X118577881Y-100436872D01*
X118580000Y-100480000D01*
X118580000Y-101360000D01*
X118577881Y-101403128D01*
X118571546Y-101445840D01*
X118561054Y-101487725D01*
X118546507Y-101528381D01*
X118528045Y-101567415D01*
X118505847Y-101604451D01*
X118480125Y-101639133D01*
X118451127Y-101671127D01*
X118419133Y-101700125D01*
X118384451Y-101725847D01*
X118347415Y-101748045D01*
X118308381Y-101766507D01*
X118267725Y-101781054D01*
X118225840Y-101791546D01*
X118183128Y-101797881D01*
X118140000Y-101800000D01*
X116360000Y-101800000D01*
X116316872Y-101797881D01*
X116274160Y-101791546D01*
X116232275Y-101781054D01*
X116191619Y-101766507D01*
X116152585Y-101748045D01*
X116115549Y-101725847D01*
X116080867Y-101700125D01*
X116048873Y-101671127D01*
X116019875Y-101639133D01*
X115994153Y-101604451D01*
X115971955Y-101567415D01*
X115953493Y-101528381D01*
X115938946Y-101487725D01*
X115928454Y-101445840D01*
X115922119Y-101403128D01*
X115920000Y-101360000D01*
X115920000Y-100480000D01*
X115922119Y-100436872D01*
X115928454Y-100394160D01*
X115938946Y-100352275D01*
X115953493Y-100311619D01*
X115971955Y-100272585D01*
X115994153Y-100235549D01*
X116019875Y-100200867D01*
X116048873Y-100168873D01*
X116080867Y-100139875D01*
X116115549Y-100114153D01*
X116152585Y-100091955D01*
X116191619Y-100073493D01*
X116232275Y-100058946D01*
X116274160Y-100048454D01*
X116316872Y-100042119D01*
X116360000Y-100040000D01*
X118140000Y-100040000D01*
X118183128Y-100042119D01*
X118183128Y-100042119D01*
G37*
D18*
X117250000Y-100920000D03*
D17*
G36*
X118183128Y-105122119D02*
X118225840Y-105128454D01*
X118267725Y-105138946D01*
X118308381Y-105153493D01*
X118347415Y-105171955D01*
X118384451Y-105194153D01*
X118419133Y-105219875D01*
X118451127Y-105248873D01*
X118480125Y-105280867D01*
X118505847Y-105315549D01*
X118528045Y-105352585D01*
X118546507Y-105391619D01*
X118561054Y-105432275D01*
X118571546Y-105474160D01*
X118577881Y-105516872D01*
X118580000Y-105560000D01*
X118580000Y-106440000D01*
X118577881Y-106483128D01*
X118571546Y-106525840D01*
X118561054Y-106567725D01*
X118546507Y-106608381D01*
X118528045Y-106647415D01*
X118505847Y-106684451D01*
X118480125Y-106719133D01*
X118451127Y-106751127D01*
X118419133Y-106780125D01*
X118384451Y-106805847D01*
X118347415Y-106828045D01*
X118308381Y-106846507D01*
X118267725Y-106861054D01*
X118225840Y-106871546D01*
X118183128Y-106877881D01*
X118140000Y-106880000D01*
X116360000Y-106880000D01*
X116316872Y-106877881D01*
X116274160Y-106871546D01*
X116232275Y-106861054D01*
X116191619Y-106846507D01*
X116152585Y-106828045D01*
X116115549Y-106805847D01*
X116080867Y-106780125D01*
X116048873Y-106751127D01*
X116019875Y-106719133D01*
X115994153Y-106684451D01*
X115971955Y-106647415D01*
X115953493Y-106608381D01*
X115938946Y-106567725D01*
X115928454Y-106525840D01*
X115922119Y-106483128D01*
X115920000Y-106440000D01*
X115920000Y-105560000D01*
X115922119Y-105516872D01*
X115928454Y-105474160D01*
X115938946Y-105432275D01*
X115953493Y-105391619D01*
X115971955Y-105352585D01*
X115994153Y-105315549D01*
X116019875Y-105280867D01*
X116048873Y-105248873D01*
X116080867Y-105219875D01*
X116115549Y-105194153D01*
X116152585Y-105171955D01*
X116191619Y-105153493D01*
X116232275Y-105138946D01*
X116274160Y-105128454D01*
X116316872Y-105122119D01*
X116360000Y-105120000D01*
X118140000Y-105120000D01*
X118183128Y-105122119D01*
X118183128Y-105122119D01*
G37*
D18*
X117250000Y-106000000D03*
D17*
G36*
X118183128Y-102582119D02*
X118225840Y-102588454D01*
X118267725Y-102598946D01*
X118308381Y-102613493D01*
X118347415Y-102631955D01*
X118384451Y-102654153D01*
X118419133Y-102679875D01*
X118451127Y-102708873D01*
X118480125Y-102740867D01*
X118505847Y-102775549D01*
X118528045Y-102812585D01*
X118546507Y-102851619D01*
X118561054Y-102892275D01*
X118571546Y-102934160D01*
X118577881Y-102976872D01*
X118580000Y-103020000D01*
X118580000Y-103900000D01*
X118577881Y-103943128D01*
X118571546Y-103985840D01*
X118561054Y-104027725D01*
X118546507Y-104068381D01*
X118528045Y-104107415D01*
X118505847Y-104144451D01*
X118480125Y-104179133D01*
X118451127Y-104211127D01*
X118419133Y-104240125D01*
X118384451Y-104265847D01*
X118347415Y-104288045D01*
X118308381Y-104306507D01*
X118267725Y-104321054D01*
X118225840Y-104331546D01*
X118183128Y-104337881D01*
X118140000Y-104340000D01*
X116360000Y-104340000D01*
X116316872Y-104337881D01*
X116274160Y-104331546D01*
X116232275Y-104321054D01*
X116191619Y-104306507D01*
X116152585Y-104288045D01*
X116115549Y-104265847D01*
X116080867Y-104240125D01*
X116048873Y-104211127D01*
X116019875Y-104179133D01*
X115994153Y-104144451D01*
X115971955Y-104107415D01*
X115953493Y-104068381D01*
X115938946Y-104027725D01*
X115928454Y-103985840D01*
X115922119Y-103943128D01*
X115920000Y-103900000D01*
X115920000Y-103020000D01*
X115922119Y-102976872D01*
X115928454Y-102934160D01*
X115938946Y-102892275D01*
X115953493Y-102851619D01*
X115971955Y-102812585D01*
X115994153Y-102775549D01*
X116019875Y-102740867D01*
X116048873Y-102708873D01*
X116080867Y-102679875D01*
X116115549Y-102654153D01*
X116152585Y-102631955D01*
X116191619Y-102613493D01*
X116232275Y-102598946D01*
X116274160Y-102588454D01*
X116316872Y-102582119D01*
X116360000Y-102580000D01*
X118140000Y-102580000D01*
X118183128Y-102582119D01*
X118183128Y-102582119D01*
G37*
D18*
X117250000Y-103460000D03*
D17*
G36*
X118183128Y-107662119D02*
X118225840Y-107668454D01*
X118267725Y-107678946D01*
X118308381Y-107693493D01*
X118347415Y-107711955D01*
X118384451Y-107734153D01*
X118419133Y-107759875D01*
X118451127Y-107788873D01*
X118480125Y-107820867D01*
X118505847Y-107855549D01*
X118528045Y-107892585D01*
X118546507Y-107931619D01*
X118561054Y-107972275D01*
X118571546Y-108014160D01*
X118577881Y-108056872D01*
X118580000Y-108100000D01*
X118580000Y-108980000D01*
X118577881Y-109023128D01*
X118571546Y-109065840D01*
X118561054Y-109107725D01*
X118546507Y-109148381D01*
X118528045Y-109187415D01*
X118505847Y-109224451D01*
X118480125Y-109259133D01*
X118451127Y-109291127D01*
X118419133Y-109320125D01*
X118384451Y-109345847D01*
X118347415Y-109368045D01*
X118308381Y-109386507D01*
X118267725Y-109401054D01*
X118225840Y-109411546D01*
X118183128Y-109417881D01*
X118140000Y-109420000D01*
X116360000Y-109420000D01*
X116316872Y-109417881D01*
X116274160Y-109411546D01*
X116232275Y-109401054D01*
X116191619Y-109386507D01*
X116152585Y-109368045D01*
X116115549Y-109345847D01*
X116080867Y-109320125D01*
X116048873Y-109291127D01*
X116019875Y-109259133D01*
X115994153Y-109224451D01*
X115971955Y-109187415D01*
X115953493Y-109148381D01*
X115938946Y-109107725D01*
X115928454Y-109065840D01*
X115922119Y-109023128D01*
X115920000Y-108980000D01*
X115920000Y-108100000D01*
X115922119Y-108056872D01*
X115928454Y-108014160D01*
X115938946Y-107972275D01*
X115953493Y-107931619D01*
X115971955Y-107892585D01*
X115994153Y-107855549D01*
X116019875Y-107820867D01*
X116048873Y-107788873D01*
X116080867Y-107759875D01*
X116115549Y-107734153D01*
X116152585Y-107711955D01*
X116191619Y-107693493D01*
X116232275Y-107678946D01*
X116274160Y-107668454D01*
X116316872Y-107662119D01*
X116360000Y-107660000D01*
X118140000Y-107660000D01*
X118183128Y-107662119D01*
X118183128Y-107662119D01*
G37*
D18*
X117250000Y-108540000D03*
D19*
X97700000Y-101800000D03*
X97700000Y-103800000D03*
X95700000Y-101800000D03*
X95700000Y-103800000D03*
M02*
