G04 #@! TF.GenerationSoftware,KiCad,Pcbnew,5.0.0-rc1-44a33f2~62~ubuntu16.04.1*
G04 #@! TF.CreationDate,2018-03-25T17:58:14+02:00*
G04 #@! TF.ProjectId,ubmp_v1r1,75626D705F763172312E6B696361645F,rev?*
G04 #@! TF.SameCoordinates,Original*
G04 #@! TF.FileFunction,Soldermask,Bot*
G04 #@! TF.FilePolarity,Negative*
%FSLAX46Y46*%
G04 Gerber Fmt 4.6, Leading zero omitted, Abs format (unit mm)*
G04 Created by KiCad (PCBNEW 5.0.0-rc1-44a33f2~62~ubuntu16.04.1) date Sun Mar 25 17:58:14 2018*
%MOMM*%
%LPD*%
G01*
G04 APERTURE LIST*
%ADD10C,1.360000*%
%ADD11O,3.660000X2.160000*%
%ADD12C,0.100000*%
%ADD13C,1.760000*%
%ADD14C,1.160000*%
G04 APERTURE END LIST*
D10*
X87600000Y-103700000D03*
X87600000Y-108300000D03*
D11*
X87700000Y-111850000D03*
X87700000Y-100150000D03*
D12*
G36*
X118183128Y-110202119D02*
X118225840Y-110208454D01*
X118267725Y-110218946D01*
X118308381Y-110233493D01*
X118347415Y-110251955D01*
X118384451Y-110274153D01*
X118419133Y-110299875D01*
X118451127Y-110328873D01*
X118480125Y-110360867D01*
X118505847Y-110395549D01*
X118528045Y-110432585D01*
X118546507Y-110471619D01*
X118561054Y-110512275D01*
X118571546Y-110554160D01*
X118577881Y-110596872D01*
X118580000Y-110640000D01*
X118580000Y-111520000D01*
X118577881Y-111563128D01*
X118571546Y-111605840D01*
X118561054Y-111647725D01*
X118546507Y-111688381D01*
X118528045Y-111727415D01*
X118505847Y-111764451D01*
X118480125Y-111799133D01*
X118451127Y-111831127D01*
X118419133Y-111860125D01*
X118384451Y-111885847D01*
X118347415Y-111908045D01*
X118308381Y-111926507D01*
X118267725Y-111941054D01*
X118225840Y-111951546D01*
X118183128Y-111957881D01*
X118140000Y-111960000D01*
X116360000Y-111960000D01*
X116316872Y-111957881D01*
X116274160Y-111951546D01*
X116232275Y-111941054D01*
X116191619Y-111926507D01*
X116152585Y-111908045D01*
X116115549Y-111885847D01*
X116080867Y-111860125D01*
X116048873Y-111831127D01*
X116019875Y-111799133D01*
X115994153Y-111764451D01*
X115971955Y-111727415D01*
X115953493Y-111688381D01*
X115938946Y-111647725D01*
X115928454Y-111605840D01*
X115922119Y-111563128D01*
X115920000Y-111520000D01*
X115920000Y-110640000D01*
X115922119Y-110596872D01*
X115928454Y-110554160D01*
X115938946Y-110512275D01*
X115953493Y-110471619D01*
X115971955Y-110432585D01*
X115994153Y-110395549D01*
X116019875Y-110360867D01*
X116048873Y-110328873D01*
X116080867Y-110299875D01*
X116115549Y-110274153D01*
X116152585Y-110251955D01*
X116191619Y-110233493D01*
X116232275Y-110218946D01*
X116274160Y-110208454D01*
X116316872Y-110202119D01*
X116360000Y-110200000D01*
X118140000Y-110200000D01*
X118183128Y-110202119D01*
X118183128Y-110202119D01*
G37*
D13*
X117250000Y-111080000D03*
D12*
G36*
X118183128Y-100042119D02*
X118225840Y-100048454D01*
X118267725Y-100058946D01*
X118308381Y-100073493D01*
X118347415Y-100091955D01*
X118384451Y-100114153D01*
X118419133Y-100139875D01*
X118451127Y-100168873D01*
X118480125Y-100200867D01*
X118505847Y-100235549D01*
X118528045Y-100272585D01*
X118546507Y-100311619D01*
X118561054Y-100352275D01*
X118571546Y-100394160D01*
X118577881Y-100436872D01*
X118580000Y-100480000D01*
X118580000Y-101360000D01*
X118577881Y-101403128D01*
X118571546Y-101445840D01*
X118561054Y-101487725D01*
X118546507Y-101528381D01*
X118528045Y-101567415D01*
X118505847Y-101604451D01*
X118480125Y-101639133D01*
X118451127Y-101671127D01*
X118419133Y-101700125D01*
X118384451Y-101725847D01*
X118347415Y-101748045D01*
X118308381Y-101766507D01*
X118267725Y-101781054D01*
X118225840Y-101791546D01*
X118183128Y-101797881D01*
X118140000Y-101800000D01*
X116360000Y-101800000D01*
X116316872Y-101797881D01*
X116274160Y-101791546D01*
X116232275Y-101781054D01*
X116191619Y-101766507D01*
X116152585Y-101748045D01*
X116115549Y-101725847D01*
X116080867Y-101700125D01*
X116048873Y-101671127D01*
X116019875Y-101639133D01*
X115994153Y-101604451D01*
X115971955Y-101567415D01*
X115953493Y-101528381D01*
X115938946Y-101487725D01*
X115928454Y-101445840D01*
X115922119Y-101403128D01*
X115920000Y-101360000D01*
X115920000Y-100480000D01*
X115922119Y-100436872D01*
X115928454Y-100394160D01*
X115938946Y-100352275D01*
X115953493Y-100311619D01*
X115971955Y-100272585D01*
X115994153Y-100235549D01*
X116019875Y-100200867D01*
X116048873Y-100168873D01*
X116080867Y-100139875D01*
X116115549Y-100114153D01*
X116152585Y-100091955D01*
X116191619Y-100073493D01*
X116232275Y-100058946D01*
X116274160Y-100048454D01*
X116316872Y-100042119D01*
X116360000Y-100040000D01*
X118140000Y-100040000D01*
X118183128Y-100042119D01*
X118183128Y-100042119D01*
G37*
D13*
X117250000Y-100920000D03*
D12*
G36*
X118183128Y-105122119D02*
X118225840Y-105128454D01*
X118267725Y-105138946D01*
X118308381Y-105153493D01*
X118347415Y-105171955D01*
X118384451Y-105194153D01*
X118419133Y-105219875D01*
X118451127Y-105248873D01*
X118480125Y-105280867D01*
X118505847Y-105315549D01*
X118528045Y-105352585D01*
X118546507Y-105391619D01*
X118561054Y-105432275D01*
X118571546Y-105474160D01*
X118577881Y-105516872D01*
X118580000Y-105560000D01*
X118580000Y-106440000D01*
X118577881Y-106483128D01*
X118571546Y-106525840D01*
X118561054Y-106567725D01*
X118546507Y-106608381D01*
X118528045Y-106647415D01*
X118505847Y-106684451D01*
X118480125Y-106719133D01*
X118451127Y-106751127D01*
X118419133Y-106780125D01*
X118384451Y-106805847D01*
X118347415Y-106828045D01*
X118308381Y-106846507D01*
X118267725Y-106861054D01*
X118225840Y-106871546D01*
X118183128Y-106877881D01*
X118140000Y-106880000D01*
X116360000Y-106880000D01*
X116316872Y-106877881D01*
X116274160Y-106871546D01*
X116232275Y-106861054D01*
X116191619Y-106846507D01*
X116152585Y-106828045D01*
X116115549Y-106805847D01*
X116080867Y-106780125D01*
X116048873Y-106751127D01*
X116019875Y-106719133D01*
X115994153Y-106684451D01*
X115971955Y-106647415D01*
X115953493Y-106608381D01*
X115938946Y-106567725D01*
X115928454Y-106525840D01*
X115922119Y-106483128D01*
X115920000Y-106440000D01*
X115920000Y-105560000D01*
X115922119Y-105516872D01*
X115928454Y-105474160D01*
X115938946Y-105432275D01*
X115953493Y-105391619D01*
X115971955Y-105352585D01*
X115994153Y-105315549D01*
X116019875Y-105280867D01*
X116048873Y-105248873D01*
X116080867Y-105219875D01*
X116115549Y-105194153D01*
X116152585Y-105171955D01*
X116191619Y-105153493D01*
X116232275Y-105138946D01*
X116274160Y-105128454D01*
X116316872Y-105122119D01*
X116360000Y-105120000D01*
X118140000Y-105120000D01*
X118183128Y-105122119D01*
X118183128Y-105122119D01*
G37*
D13*
X117250000Y-106000000D03*
D12*
G36*
X118183128Y-102582119D02*
X118225840Y-102588454D01*
X118267725Y-102598946D01*
X118308381Y-102613493D01*
X118347415Y-102631955D01*
X118384451Y-102654153D01*
X118419133Y-102679875D01*
X118451127Y-102708873D01*
X118480125Y-102740867D01*
X118505847Y-102775549D01*
X118528045Y-102812585D01*
X118546507Y-102851619D01*
X118561054Y-102892275D01*
X118571546Y-102934160D01*
X118577881Y-102976872D01*
X118580000Y-103020000D01*
X118580000Y-103900000D01*
X118577881Y-103943128D01*
X118571546Y-103985840D01*
X118561054Y-104027725D01*
X118546507Y-104068381D01*
X118528045Y-104107415D01*
X118505847Y-104144451D01*
X118480125Y-104179133D01*
X118451127Y-104211127D01*
X118419133Y-104240125D01*
X118384451Y-104265847D01*
X118347415Y-104288045D01*
X118308381Y-104306507D01*
X118267725Y-104321054D01*
X118225840Y-104331546D01*
X118183128Y-104337881D01*
X118140000Y-104340000D01*
X116360000Y-104340000D01*
X116316872Y-104337881D01*
X116274160Y-104331546D01*
X116232275Y-104321054D01*
X116191619Y-104306507D01*
X116152585Y-104288045D01*
X116115549Y-104265847D01*
X116080867Y-104240125D01*
X116048873Y-104211127D01*
X116019875Y-104179133D01*
X115994153Y-104144451D01*
X115971955Y-104107415D01*
X115953493Y-104068381D01*
X115938946Y-104027725D01*
X115928454Y-103985840D01*
X115922119Y-103943128D01*
X115920000Y-103900000D01*
X115920000Y-103020000D01*
X115922119Y-102976872D01*
X115928454Y-102934160D01*
X115938946Y-102892275D01*
X115953493Y-102851619D01*
X115971955Y-102812585D01*
X115994153Y-102775549D01*
X116019875Y-102740867D01*
X116048873Y-102708873D01*
X116080867Y-102679875D01*
X116115549Y-102654153D01*
X116152585Y-102631955D01*
X116191619Y-102613493D01*
X116232275Y-102598946D01*
X116274160Y-102588454D01*
X116316872Y-102582119D01*
X116360000Y-102580000D01*
X118140000Y-102580000D01*
X118183128Y-102582119D01*
X118183128Y-102582119D01*
G37*
D13*
X117250000Y-103460000D03*
D12*
G36*
X118183128Y-107662119D02*
X118225840Y-107668454D01*
X118267725Y-107678946D01*
X118308381Y-107693493D01*
X118347415Y-107711955D01*
X118384451Y-107734153D01*
X118419133Y-107759875D01*
X118451127Y-107788873D01*
X118480125Y-107820867D01*
X118505847Y-107855549D01*
X118528045Y-107892585D01*
X118546507Y-107931619D01*
X118561054Y-107972275D01*
X118571546Y-108014160D01*
X118577881Y-108056872D01*
X118580000Y-108100000D01*
X118580000Y-108980000D01*
X118577881Y-109023128D01*
X118571546Y-109065840D01*
X118561054Y-109107725D01*
X118546507Y-109148381D01*
X118528045Y-109187415D01*
X118505847Y-109224451D01*
X118480125Y-109259133D01*
X118451127Y-109291127D01*
X118419133Y-109320125D01*
X118384451Y-109345847D01*
X118347415Y-109368045D01*
X118308381Y-109386507D01*
X118267725Y-109401054D01*
X118225840Y-109411546D01*
X118183128Y-109417881D01*
X118140000Y-109420000D01*
X116360000Y-109420000D01*
X116316872Y-109417881D01*
X116274160Y-109411546D01*
X116232275Y-109401054D01*
X116191619Y-109386507D01*
X116152585Y-109368045D01*
X116115549Y-109345847D01*
X116080867Y-109320125D01*
X116048873Y-109291127D01*
X116019875Y-109259133D01*
X115994153Y-109224451D01*
X115971955Y-109187415D01*
X115953493Y-109148381D01*
X115938946Y-109107725D01*
X115928454Y-109065840D01*
X115922119Y-109023128D01*
X115920000Y-108980000D01*
X115920000Y-108100000D01*
X115922119Y-108056872D01*
X115928454Y-108014160D01*
X115938946Y-107972275D01*
X115953493Y-107931619D01*
X115971955Y-107892585D01*
X115994153Y-107855549D01*
X116019875Y-107820867D01*
X116048873Y-107788873D01*
X116080867Y-107759875D01*
X116115549Y-107734153D01*
X116152585Y-107711955D01*
X116191619Y-107693493D01*
X116232275Y-107678946D01*
X116274160Y-107668454D01*
X116316872Y-107662119D01*
X116360000Y-107660000D01*
X118140000Y-107660000D01*
X118183128Y-107662119D01*
X118183128Y-107662119D01*
G37*
D13*
X117250000Y-108540000D03*
D14*
X97700000Y-101800000D03*
X97700000Y-103800000D03*
X95700000Y-101800000D03*
X95700000Y-103800000D03*
M02*
