M48
;DRILL file {KiCad 5.0.0-rc1-44a33f2~62~ubuntu16.04.1} date Sun Mar 25 17:58:25 2018
;FORMAT={-:-/ absolute / metric / decimal}
FMAT,2
METRIC,TZ
T1C0.300
T2C1.000
T3C1.200
%
G90
G05
M71
T1
X91.3Y-108.4
X91.3Y-110.7
X92.2Y-100.4
X92.2Y-101.975
X92.5Y-107.8
X92.8Y-101.1
X93.414Y-102.509
X94.2Y-106.6
X94.675Y-112.075
X94.7Y-102.8
X95.9Y-107.8
X96.Y-109.4
X96.45Y-111.05
X97.1Y-107.4
X97.15Y-111.95
X97.9Y-107.5
X98.6Y-105.3
X98.8Y-108.9
X99.6Y-102.3
X100.2Y-100.9
X100.75Y-105.5
X101.1Y-101.
X102.705Y-100.259
X103.Y-103.25
X103.Y-105.5
X103.Y-107.75
X103.1Y-109.85
X103.4Y-101.3
X103.45Y-111.3
X103.6Y-99.7
X105.25Y-105.5
X105.25Y-110.15
X106.45Y-101.3
X106.809Y-110.109
X107.1Y-102.4
X107.15Y-99.65
X107.25Y-107.65
X107.25Y-111.1
X107.3Y-104.4
X108.95Y-104.15
X109.75Y-111.45
X110.4Y-101.7
X110.547Y-106.813
X110.874Y-108.73
X114.4Y-101.65
X114.7Y-107.2
X114.8Y-112.3
X114.826Y-104.626
X115.076Y-109.376
X115.4Y-111.25
X118.8Y-99.7
X118.8Y-102.1
X118.8Y-104.8
X118.8Y-107.2
X118.8Y-109.8
X118.8Y-112.3
T3
X87.6Y-103.7
X87.6Y-108.3
T2
X88.45Y-100.15G85X86.95Y-100.15
G05
X88.45Y-111.85G85X86.95Y-111.85
G05
T0
M30
