G04 #@! TF.GenerationSoftware,KiCad,Pcbnew,5.0.0-rc1-44a33f2~62~ubuntu16.04.1*
G04 #@! TF.CreationDate,2018-03-25T18:08:04+02:00*
G04 #@! TF.ProjectId,ubmp_v1r1,75626D705F763172312E6B696361645F,rev?*
G04 #@! TF.SameCoordinates,Original*
G04 #@! TF.FileFunction,Paste,Top*
G04 #@! TF.FilePolarity,Positive*
%FSLAX46Y46*%
G04 Gerber Fmt 4.6, Leading zero omitted, Abs format (unit mm)*
G04 Created by KiCad (PCBNEW 5.0.0-rc1-44a33f2~62~ubuntu16.04.1) date Sun Mar 25 18:08:04 2018*
%MOMM*%
%LPD*%
G01*
G04 APERTURE LIST*
%ADD10C,0.100000*%
%ADD11C,0.575000*%
%ADD12C,0.750000*%
%ADD13R,1.500000X1.500000*%
%ADD14O,0.700000X0.250000*%
%ADD15O,0.250000X0.700000*%
%ADD16C,0.650000*%
%ADD17C,0.670000*%
%ADD18O,0.400000X1.900000*%
G04 APERTURE END LIST*
D10*
G36*
X99395340Y-110513192D02*
X99409294Y-110515262D01*
X99422978Y-110518690D01*
X99436261Y-110523442D01*
X99449013Y-110529474D01*
X99461113Y-110536726D01*
X99472444Y-110545130D01*
X99482897Y-110554603D01*
X99492370Y-110565056D01*
X99500774Y-110576387D01*
X99508026Y-110588487D01*
X99514058Y-110601239D01*
X99518810Y-110614522D01*
X99522238Y-110628206D01*
X99524308Y-110642160D01*
X99525000Y-110656250D01*
X99525000Y-110943750D01*
X99524308Y-110957840D01*
X99522238Y-110971794D01*
X99518810Y-110985478D01*
X99514058Y-110998761D01*
X99508026Y-111011513D01*
X99500774Y-111023613D01*
X99492370Y-111034944D01*
X99482897Y-111045397D01*
X99472444Y-111054870D01*
X99461113Y-111063274D01*
X99449013Y-111070526D01*
X99436261Y-111076558D01*
X99422978Y-111081310D01*
X99409294Y-111084738D01*
X99395340Y-111086808D01*
X99381250Y-111087500D01*
X99018750Y-111087500D01*
X99004660Y-111086808D01*
X98990706Y-111084738D01*
X98977022Y-111081310D01*
X98963739Y-111076558D01*
X98950987Y-111070526D01*
X98938887Y-111063274D01*
X98927556Y-111054870D01*
X98917103Y-111045397D01*
X98907630Y-111034944D01*
X98899226Y-111023613D01*
X98891974Y-111011513D01*
X98885942Y-110998761D01*
X98881190Y-110985478D01*
X98877762Y-110971794D01*
X98875692Y-110957840D01*
X98875000Y-110943750D01*
X98875000Y-110656250D01*
X98875692Y-110642160D01*
X98877762Y-110628206D01*
X98881190Y-110614522D01*
X98885942Y-110601239D01*
X98891974Y-110588487D01*
X98899226Y-110576387D01*
X98907630Y-110565056D01*
X98917103Y-110554603D01*
X98927556Y-110545130D01*
X98938887Y-110536726D01*
X98950987Y-110529474D01*
X98963739Y-110523442D01*
X98977022Y-110518690D01*
X98990706Y-110515262D01*
X99004660Y-110513192D01*
X99018750Y-110512500D01*
X99381250Y-110512500D01*
X99395340Y-110513192D01*
X99395340Y-110513192D01*
G37*
D11*
X99200000Y-110800000D03*
D10*
G36*
X99395340Y-111413192D02*
X99409294Y-111415262D01*
X99422978Y-111418690D01*
X99436261Y-111423442D01*
X99449013Y-111429474D01*
X99461113Y-111436726D01*
X99472444Y-111445130D01*
X99482897Y-111454603D01*
X99492370Y-111465056D01*
X99500774Y-111476387D01*
X99508026Y-111488487D01*
X99514058Y-111501239D01*
X99518810Y-111514522D01*
X99522238Y-111528206D01*
X99524308Y-111542160D01*
X99525000Y-111556250D01*
X99525000Y-111843750D01*
X99524308Y-111857840D01*
X99522238Y-111871794D01*
X99518810Y-111885478D01*
X99514058Y-111898761D01*
X99508026Y-111911513D01*
X99500774Y-111923613D01*
X99492370Y-111934944D01*
X99482897Y-111945397D01*
X99472444Y-111954870D01*
X99461113Y-111963274D01*
X99449013Y-111970526D01*
X99436261Y-111976558D01*
X99422978Y-111981310D01*
X99409294Y-111984738D01*
X99395340Y-111986808D01*
X99381250Y-111987500D01*
X99018750Y-111987500D01*
X99004660Y-111986808D01*
X98990706Y-111984738D01*
X98977022Y-111981310D01*
X98963739Y-111976558D01*
X98950987Y-111970526D01*
X98938887Y-111963274D01*
X98927556Y-111954870D01*
X98917103Y-111945397D01*
X98907630Y-111934944D01*
X98899226Y-111923613D01*
X98891974Y-111911513D01*
X98885942Y-111898761D01*
X98881190Y-111885478D01*
X98877762Y-111871794D01*
X98875692Y-111857840D01*
X98875000Y-111843750D01*
X98875000Y-111556250D01*
X98875692Y-111542160D01*
X98877762Y-111528206D01*
X98881190Y-111514522D01*
X98885942Y-111501239D01*
X98891974Y-111488487D01*
X98899226Y-111476387D01*
X98907630Y-111465056D01*
X98917103Y-111454603D01*
X98927556Y-111445130D01*
X98938887Y-111436726D01*
X98950987Y-111429474D01*
X98963739Y-111423442D01*
X98977022Y-111418690D01*
X98990706Y-111415262D01*
X99004660Y-111413192D01*
X99018750Y-111412500D01*
X99381250Y-111412500D01*
X99395340Y-111413192D01*
X99395340Y-111413192D01*
G37*
D11*
X99200000Y-111700000D03*
D10*
G36*
X93705878Y-110550903D02*
X93724079Y-110553603D01*
X93741928Y-110558074D01*
X93759253Y-110564273D01*
X93775887Y-110572140D01*
X93791669Y-110581599D01*
X93806449Y-110592561D01*
X93820083Y-110604917D01*
X93832439Y-110618551D01*
X93843401Y-110633331D01*
X93852860Y-110649113D01*
X93860727Y-110665747D01*
X93866926Y-110683072D01*
X93871397Y-110700921D01*
X93874097Y-110719122D01*
X93875000Y-110737500D01*
X93875000Y-111362500D01*
X93874097Y-111380878D01*
X93871397Y-111399079D01*
X93866926Y-111416928D01*
X93860727Y-111434253D01*
X93852860Y-111450887D01*
X93843401Y-111466669D01*
X93832439Y-111481449D01*
X93820083Y-111495083D01*
X93806449Y-111507439D01*
X93791669Y-111518401D01*
X93775887Y-111527860D01*
X93759253Y-111535727D01*
X93741928Y-111541926D01*
X93724079Y-111546397D01*
X93705878Y-111549097D01*
X93687500Y-111550000D01*
X93312500Y-111550000D01*
X93294122Y-111549097D01*
X93275921Y-111546397D01*
X93258072Y-111541926D01*
X93240747Y-111535727D01*
X93224113Y-111527860D01*
X93208331Y-111518401D01*
X93193551Y-111507439D01*
X93179917Y-111495083D01*
X93167561Y-111481449D01*
X93156599Y-111466669D01*
X93147140Y-111450887D01*
X93139273Y-111434253D01*
X93133074Y-111416928D01*
X93128603Y-111399079D01*
X93125903Y-111380878D01*
X93125000Y-111362500D01*
X93125000Y-110737500D01*
X93125903Y-110719122D01*
X93128603Y-110700921D01*
X93133074Y-110683072D01*
X93139273Y-110665747D01*
X93147140Y-110649113D01*
X93156599Y-110633331D01*
X93167561Y-110618551D01*
X93179917Y-110604917D01*
X93193551Y-110592561D01*
X93208331Y-110581599D01*
X93224113Y-110572140D01*
X93240747Y-110564273D01*
X93258072Y-110558074D01*
X93275921Y-110553603D01*
X93294122Y-110550903D01*
X93312500Y-110550000D01*
X93687500Y-110550000D01*
X93705878Y-110550903D01*
X93705878Y-110550903D01*
G37*
D12*
X93500000Y-111050000D03*
D10*
G36*
X95205878Y-110550903D02*
X95224079Y-110553603D01*
X95241928Y-110558074D01*
X95259253Y-110564273D01*
X95275887Y-110572140D01*
X95291669Y-110581599D01*
X95306449Y-110592561D01*
X95320083Y-110604917D01*
X95332439Y-110618551D01*
X95343401Y-110633331D01*
X95352860Y-110649113D01*
X95360727Y-110665747D01*
X95366926Y-110683072D01*
X95371397Y-110700921D01*
X95374097Y-110719122D01*
X95375000Y-110737500D01*
X95375000Y-111362500D01*
X95374097Y-111380878D01*
X95371397Y-111399079D01*
X95366926Y-111416928D01*
X95360727Y-111434253D01*
X95352860Y-111450887D01*
X95343401Y-111466669D01*
X95332439Y-111481449D01*
X95320083Y-111495083D01*
X95306449Y-111507439D01*
X95291669Y-111518401D01*
X95275887Y-111527860D01*
X95259253Y-111535727D01*
X95241928Y-111541926D01*
X95224079Y-111546397D01*
X95205878Y-111549097D01*
X95187500Y-111550000D01*
X94812500Y-111550000D01*
X94794122Y-111549097D01*
X94775921Y-111546397D01*
X94758072Y-111541926D01*
X94740747Y-111535727D01*
X94724113Y-111527860D01*
X94708331Y-111518401D01*
X94693551Y-111507439D01*
X94679917Y-111495083D01*
X94667561Y-111481449D01*
X94656599Y-111466669D01*
X94647140Y-111450887D01*
X94639273Y-111434253D01*
X94633074Y-111416928D01*
X94628603Y-111399079D01*
X94625903Y-111380878D01*
X94625000Y-111362500D01*
X94625000Y-110737500D01*
X94625903Y-110719122D01*
X94628603Y-110700921D01*
X94633074Y-110683072D01*
X94639273Y-110665747D01*
X94647140Y-110649113D01*
X94656599Y-110633331D01*
X94667561Y-110618551D01*
X94679917Y-110604917D01*
X94693551Y-110592561D01*
X94708331Y-110581599D01*
X94724113Y-110572140D01*
X94740747Y-110564273D01*
X94758072Y-110558074D01*
X94775921Y-110553603D01*
X94794122Y-110550903D01*
X94812500Y-110550000D01*
X95187500Y-110550000D01*
X95205878Y-110550903D01*
X95205878Y-110550903D01*
G37*
D12*
X95000000Y-111050000D03*
D10*
G36*
X106545340Y-110563192D02*
X106559294Y-110565262D01*
X106572978Y-110568690D01*
X106586261Y-110573442D01*
X106599013Y-110579474D01*
X106611113Y-110586726D01*
X106622444Y-110595130D01*
X106632897Y-110604603D01*
X106642370Y-110615056D01*
X106650774Y-110626387D01*
X106658026Y-110638487D01*
X106664058Y-110651239D01*
X106668810Y-110664522D01*
X106672238Y-110678206D01*
X106674308Y-110692160D01*
X106675000Y-110706250D01*
X106675000Y-110993750D01*
X106674308Y-111007840D01*
X106672238Y-111021794D01*
X106668810Y-111035478D01*
X106664058Y-111048761D01*
X106658026Y-111061513D01*
X106650774Y-111073613D01*
X106642370Y-111084944D01*
X106632897Y-111095397D01*
X106622444Y-111104870D01*
X106611113Y-111113274D01*
X106599013Y-111120526D01*
X106586261Y-111126558D01*
X106572978Y-111131310D01*
X106559294Y-111134738D01*
X106545340Y-111136808D01*
X106531250Y-111137500D01*
X106168750Y-111137500D01*
X106154660Y-111136808D01*
X106140706Y-111134738D01*
X106127022Y-111131310D01*
X106113739Y-111126558D01*
X106100987Y-111120526D01*
X106088887Y-111113274D01*
X106077556Y-111104870D01*
X106067103Y-111095397D01*
X106057630Y-111084944D01*
X106049226Y-111073613D01*
X106041974Y-111061513D01*
X106035942Y-111048761D01*
X106031190Y-111035478D01*
X106027762Y-111021794D01*
X106025692Y-111007840D01*
X106025000Y-110993750D01*
X106025000Y-110706250D01*
X106025692Y-110692160D01*
X106027762Y-110678206D01*
X106031190Y-110664522D01*
X106035942Y-110651239D01*
X106041974Y-110638487D01*
X106049226Y-110626387D01*
X106057630Y-110615056D01*
X106067103Y-110604603D01*
X106077556Y-110595130D01*
X106088887Y-110586726D01*
X106100987Y-110579474D01*
X106113739Y-110573442D01*
X106127022Y-110568690D01*
X106140706Y-110565262D01*
X106154660Y-110563192D01*
X106168750Y-110562500D01*
X106531250Y-110562500D01*
X106545340Y-110563192D01*
X106545340Y-110563192D01*
G37*
D11*
X106350000Y-110850000D03*
D10*
G36*
X106545340Y-111463192D02*
X106559294Y-111465262D01*
X106572978Y-111468690D01*
X106586261Y-111473442D01*
X106599013Y-111479474D01*
X106611113Y-111486726D01*
X106622444Y-111495130D01*
X106632897Y-111504603D01*
X106642370Y-111515056D01*
X106650774Y-111526387D01*
X106658026Y-111538487D01*
X106664058Y-111551239D01*
X106668810Y-111564522D01*
X106672238Y-111578206D01*
X106674308Y-111592160D01*
X106675000Y-111606250D01*
X106675000Y-111893750D01*
X106674308Y-111907840D01*
X106672238Y-111921794D01*
X106668810Y-111935478D01*
X106664058Y-111948761D01*
X106658026Y-111961513D01*
X106650774Y-111973613D01*
X106642370Y-111984944D01*
X106632897Y-111995397D01*
X106622444Y-112004870D01*
X106611113Y-112013274D01*
X106599013Y-112020526D01*
X106586261Y-112026558D01*
X106572978Y-112031310D01*
X106559294Y-112034738D01*
X106545340Y-112036808D01*
X106531250Y-112037500D01*
X106168750Y-112037500D01*
X106154660Y-112036808D01*
X106140706Y-112034738D01*
X106127022Y-112031310D01*
X106113739Y-112026558D01*
X106100987Y-112020526D01*
X106088887Y-112013274D01*
X106077556Y-112004870D01*
X106067103Y-111995397D01*
X106057630Y-111984944D01*
X106049226Y-111973613D01*
X106041974Y-111961513D01*
X106035942Y-111948761D01*
X106031190Y-111935478D01*
X106027762Y-111921794D01*
X106025692Y-111907840D01*
X106025000Y-111893750D01*
X106025000Y-111606250D01*
X106025692Y-111592160D01*
X106027762Y-111578206D01*
X106031190Y-111564522D01*
X106035942Y-111551239D01*
X106041974Y-111538487D01*
X106049226Y-111526387D01*
X106057630Y-111515056D01*
X106067103Y-111504603D01*
X106077556Y-111495130D01*
X106088887Y-111486726D01*
X106100987Y-111479474D01*
X106113739Y-111473442D01*
X106127022Y-111468690D01*
X106140706Y-111465262D01*
X106154660Y-111463192D01*
X106168750Y-111462500D01*
X106531250Y-111462500D01*
X106545340Y-111463192D01*
X106545340Y-111463192D01*
G37*
D11*
X106350000Y-111750000D03*
D10*
G36*
X105445340Y-111463192D02*
X105459294Y-111465262D01*
X105472978Y-111468690D01*
X105486261Y-111473442D01*
X105499013Y-111479474D01*
X105511113Y-111486726D01*
X105522444Y-111495130D01*
X105532897Y-111504603D01*
X105542370Y-111515056D01*
X105550774Y-111526387D01*
X105558026Y-111538487D01*
X105564058Y-111551239D01*
X105568810Y-111564522D01*
X105572238Y-111578206D01*
X105574308Y-111592160D01*
X105575000Y-111606250D01*
X105575000Y-111893750D01*
X105574308Y-111907840D01*
X105572238Y-111921794D01*
X105568810Y-111935478D01*
X105564058Y-111948761D01*
X105558026Y-111961513D01*
X105550774Y-111973613D01*
X105542370Y-111984944D01*
X105532897Y-111995397D01*
X105522444Y-112004870D01*
X105511113Y-112013274D01*
X105499013Y-112020526D01*
X105486261Y-112026558D01*
X105472978Y-112031310D01*
X105459294Y-112034738D01*
X105445340Y-112036808D01*
X105431250Y-112037500D01*
X105068750Y-112037500D01*
X105054660Y-112036808D01*
X105040706Y-112034738D01*
X105027022Y-112031310D01*
X105013739Y-112026558D01*
X105000987Y-112020526D01*
X104988887Y-112013274D01*
X104977556Y-112004870D01*
X104967103Y-111995397D01*
X104957630Y-111984944D01*
X104949226Y-111973613D01*
X104941974Y-111961513D01*
X104935942Y-111948761D01*
X104931190Y-111935478D01*
X104927762Y-111921794D01*
X104925692Y-111907840D01*
X104925000Y-111893750D01*
X104925000Y-111606250D01*
X104925692Y-111592160D01*
X104927762Y-111578206D01*
X104931190Y-111564522D01*
X104935942Y-111551239D01*
X104941974Y-111538487D01*
X104949226Y-111526387D01*
X104957630Y-111515056D01*
X104967103Y-111504603D01*
X104977556Y-111495130D01*
X104988887Y-111486726D01*
X105000987Y-111479474D01*
X105013739Y-111473442D01*
X105027022Y-111468690D01*
X105040706Y-111465262D01*
X105054660Y-111463192D01*
X105068750Y-111462500D01*
X105431250Y-111462500D01*
X105445340Y-111463192D01*
X105445340Y-111463192D01*
G37*
D11*
X105250000Y-111750000D03*
D10*
G36*
X105445340Y-110563192D02*
X105459294Y-110565262D01*
X105472978Y-110568690D01*
X105486261Y-110573442D01*
X105499013Y-110579474D01*
X105511113Y-110586726D01*
X105522444Y-110595130D01*
X105532897Y-110604603D01*
X105542370Y-110615056D01*
X105550774Y-110626387D01*
X105558026Y-110638487D01*
X105564058Y-110651239D01*
X105568810Y-110664522D01*
X105572238Y-110678206D01*
X105574308Y-110692160D01*
X105575000Y-110706250D01*
X105575000Y-110993750D01*
X105574308Y-111007840D01*
X105572238Y-111021794D01*
X105568810Y-111035478D01*
X105564058Y-111048761D01*
X105558026Y-111061513D01*
X105550774Y-111073613D01*
X105542370Y-111084944D01*
X105532897Y-111095397D01*
X105522444Y-111104870D01*
X105511113Y-111113274D01*
X105499013Y-111120526D01*
X105486261Y-111126558D01*
X105472978Y-111131310D01*
X105459294Y-111134738D01*
X105445340Y-111136808D01*
X105431250Y-111137500D01*
X105068750Y-111137500D01*
X105054660Y-111136808D01*
X105040706Y-111134738D01*
X105027022Y-111131310D01*
X105013739Y-111126558D01*
X105000987Y-111120526D01*
X104988887Y-111113274D01*
X104977556Y-111104870D01*
X104967103Y-111095397D01*
X104957630Y-111084944D01*
X104949226Y-111073613D01*
X104941974Y-111061513D01*
X104935942Y-111048761D01*
X104931190Y-111035478D01*
X104927762Y-111021794D01*
X104925692Y-111007840D01*
X104925000Y-110993750D01*
X104925000Y-110706250D01*
X104925692Y-110692160D01*
X104927762Y-110678206D01*
X104931190Y-110664522D01*
X104935942Y-110651239D01*
X104941974Y-110638487D01*
X104949226Y-110626387D01*
X104957630Y-110615056D01*
X104967103Y-110604603D01*
X104977556Y-110595130D01*
X104988887Y-110586726D01*
X105000987Y-110579474D01*
X105013739Y-110573442D01*
X105027022Y-110568690D01*
X105040706Y-110565262D01*
X105054660Y-110563192D01*
X105068750Y-110562500D01*
X105431250Y-110562500D01*
X105445340Y-110563192D01*
X105445340Y-110563192D01*
G37*
D11*
X105250000Y-110850000D03*
D13*
X101970000Y-104470000D03*
X101970000Y-106530000D03*
X104030000Y-104470000D03*
X104030000Y-106530000D03*
D14*
X99600000Y-108250000D03*
X99600000Y-107750000D03*
X99600000Y-107250000D03*
X99600000Y-106750000D03*
X99600000Y-106250000D03*
X99600000Y-105750000D03*
X99600000Y-105250000D03*
X99600000Y-104750000D03*
X99600000Y-104250000D03*
X99600000Y-103750000D03*
X99600000Y-103250000D03*
X99600000Y-102750000D03*
D15*
X100250000Y-102100000D03*
X100750000Y-102100000D03*
X101250000Y-102100000D03*
X101750000Y-102100000D03*
X102250000Y-102100000D03*
X102750000Y-102100000D03*
X103250000Y-102100000D03*
X103750000Y-102100000D03*
X104250000Y-102100000D03*
X104750000Y-102100000D03*
X105250000Y-102100000D03*
X105750000Y-102100000D03*
D14*
X106400000Y-102750000D03*
X106400000Y-103250000D03*
X106400000Y-103750000D03*
X106400000Y-104250000D03*
X106400000Y-104750000D03*
X106400000Y-105250000D03*
X106400000Y-105750000D03*
X106400000Y-106250000D03*
X106400000Y-106750000D03*
X106400000Y-107250000D03*
X106400000Y-107750000D03*
X106400000Y-108250000D03*
D15*
X105750000Y-108900000D03*
X105250000Y-108900000D03*
X104750000Y-108900000D03*
X104250000Y-108900000D03*
X103750000Y-108900000D03*
X103250000Y-108900000D03*
X102750000Y-108900000D03*
X102250000Y-108900000D03*
X101750000Y-108900000D03*
X101250000Y-108900000D03*
X100750000Y-108900000D03*
X100250000Y-108900000D03*
D10*
G36*
X93478428Y-104970782D02*
X93494202Y-104973122D01*
X93509671Y-104976997D01*
X93524686Y-104982370D01*
X93539102Y-104989188D01*
X93552780Y-104997386D01*
X93565589Y-105006886D01*
X93577405Y-105017595D01*
X93588114Y-105029411D01*
X93597614Y-105042220D01*
X93605812Y-105055898D01*
X93612630Y-105070314D01*
X93618003Y-105085329D01*
X93621878Y-105100798D01*
X93624218Y-105116572D01*
X93625000Y-105132500D01*
X93625000Y-105867500D01*
X93624218Y-105883428D01*
X93621878Y-105899202D01*
X93618003Y-105914671D01*
X93612630Y-105929686D01*
X93605812Y-105944102D01*
X93597614Y-105957780D01*
X93588114Y-105970589D01*
X93577405Y-105982405D01*
X93565589Y-105993114D01*
X93552780Y-106002614D01*
X93539102Y-106010812D01*
X93524686Y-106017630D01*
X93509671Y-106023003D01*
X93494202Y-106026878D01*
X93478428Y-106029218D01*
X93462500Y-106030000D01*
X93137500Y-106030000D01*
X93121572Y-106029218D01*
X93105798Y-106026878D01*
X93090329Y-106023003D01*
X93075314Y-106017630D01*
X93060898Y-106010812D01*
X93047220Y-106002614D01*
X93034411Y-105993114D01*
X93022595Y-105982405D01*
X93011886Y-105970589D01*
X93002386Y-105957780D01*
X92994188Y-105944102D01*
X92987370Y-105929686D01*
X92981997Y-105914671D01*
X92978122Y-105899202D01*
X92975782Y-105883428D01*
X92975000Y-105867500D01*
X92975000Y-105132500D01*
X92975782Y-105116572D01*
X92978122Y-105100798D01*
X92981997Y-105085329D01*
X92987370Y-105070314D01*
X92994188Y-105055898D01*
X93002386Y-105042220D01*
X93011886Y-105029411D01*
X93022595Y-105017595D01*
X93034411Y-105006886D01*
X93047220Y-104997386D01*
X93060898Y-104989188D01*
X93075314Y-104982370D01*
X93090329Y-104976997D01*
X93105798Y-104973122D01*
X93121572Y-104970782D01*
X93137500Y-104970000D01*
X93462500Y-104970000D01*
X93478428Y-104970782D01*
X93478428Y-104970782D01*
G37*
D16*
X93300000Y-105500000D03*
D10*
G36*
X95378428Y-104970782D02*
X95394202Y-104973122D01*
X95409671Y-104976997D01*
X95424686Y-104982370D01*
X95439102Y-104989188D01*
X95452780Y-104997386D01*
X95465589Y-105006886D01*
X95477405Y-105017595D01*
X95488114Y-105029411D01*
X95497614Y-105042220D01*
X95505812Y-105055898D01*
X95512630Y-105070314D01*
X95518003Y-105085329D01*
X95521878Y-105100798D01*
X95524218Y-105116572D01*
X95525000Y-105132500D01*
X95525000Y-105867500D01*
X95524218Y-105883428D01*
X95521878Y-105899202D01*
X95518003Y-105914671D01*
X95512630Y-105929686D01*
X95505812Y-105944102D01*
X95497614Y-105957780D01*
X95488114Y-105970589D01*
X95477405Y-105982405D01*
X95465589Y-105993114D01*
X95452780Y-106002614D01*
X95439102Y-106010812D01*
X95424686Y-106017630D01*
X95409671Y-106023003D01*
X95394202Y-106026878D01*
X95378428Y-106029218D01*
X95362500Y-106030000D01*
X95037500Y-106030000D01*
X95021572Y-106029218D01*
X95005798Y-106026878D01*
X94990329Y-106023003D01*
X94975314Y-106017630D01*
X94960898Y-106010812D01*
X94947220Y-106002614D01*
X94934411Y-105993114D01*
X94922595Y-105982405D01*
X94911886Y-105970589D01*
X94902386Y-105957780D01*
X94894188Y-105944102D01*
X94887370Y-105929686D01*
X94881997Y-105914671D01*
X94878122Y-105899202D01*
X94875782Y-105883428D01*
X94875000Y-105867500D01*
X94875000Y-105132500D01*
X94875782Y-105116572D01*
X94878122Y-105100798D01*
X94881997Y-105085329D01*
X94887370Y-105070314D01*
X94894188Y-105055898D01*
X94902386Y-105042220D01*
X94911886Y-105029411D01*
X94922595Y-105017595D01*
X94934411Y-105006886D01*
X94947220Y-104997386D01*
X94960898Y-104989188D01*
X94975314Y-104982370D01*
X94990329Y-104976997D01*
X95005798Y-104973122D01*
X95021572Y-104970782D01*
X95037500Y-104970000D01*
X95362500Y-104970000D01*
X95378428Y-104970782D01*
X95378428Y-104970782D01*
G37*
D16*
X95200000Y-105500000D03*
D10*
G36*
X95378428Y-107370782D02*
X95394202Y-107373122D01*
X95409671Y-107376997D01*
X95424686Y-107382370D01*
X95439102Y-107389188D01*
X95452780Y-107397386D01*
X95465589Y-107406886D01*
X95477405Y-107417595D01*
X95488114Y-107429411D01*
X95497614Y-107442220D01*
X95505812Y-107455898D01*
X95512630Y-107470314D01*
X95518003Y-107485329D01*
X95521878Y-107500798D01*
X95524218Y-107516572D01*
X95525000Y-107532500D01*
X95525000Y-108267500D01*
X95524218Y-108283428D01*
X95521878Y-108299202D01*
X95518003Y-108314671D01*
X95512630Y-108329686D01*
X95505812Y-108344102D01*
X95497614Y-108357780D01*
X95488114Y-108370589D01*
X95477405Y-108382405D01*
X95465589Y-108393114D01*
X95452780Y-108402614D01*
X95439102Y-108410812D01*
X95424686Y-108417630D01*
X95409671Y-108423003D01*
X95394202Y-108426878D01*
X95378428Y-108429218D01*
X95362500Y-108430000D01*
X95037500Y-108430000D01*
X95021572Y-108429218D01*
X95005798Y-108426878D01*
X94990329Y-108423003D01*
X94975314Y-108417630D01*
X94960898Y-108410812D01*
X94947220Y-108402614D01*
X94934411Y-108393114D01*
X94922595Y-108382405D01*
X94911886Y-108370589D01*
X94902386Y-108357780D01*
X94894188Y-108344102D01*
X94887370Y-108329686D01*
X94881997Y-108314671D01*
X94878122Y-108299202D01*
X94875782Y-108283428D01*
X94875000Y-108267500D01*
X94875000Y-107532500D01*
X94875782Y-107516572D01*
X94878122Y-107500798D01*
X94881997Y-107485329D01*
X94887370Y-107470314D01*
X94894188Y-107455898D01*
X94902386Y-107442220D01*
X94911886Y-107429411D01*
X94922595Y-107417595D01*
X94934411Y-107406886D01*
X94947220Y-107397386D01*
X94960898Y-107389188D01*
X94975314Y-107382370D01*
X94990329Y-107376997D01*
X95005798Y-107373122D01*
X95021572Y-107370782D01*
X95037500Y-107370000D01*
X95362500Y-107370000D01*
X95378428Y-107370782D01*
X95378428Y-107370782D01*
G37*
D16*
X95200000Y-107900000D03*
D10*
G36*
X94428428Y-107370782D02*
X94444202Y-107373122D01*
X94459671Y-107376997D01*
X94474686Y-107382370D01*
X94489102Y-107389188D01*
X94502780Y-107397386D01*
X94515589Y-107406886D01*
X94527405Y-107417595D01*
X94538114Y-107429411D01*
X94547614Y-107442220D01*
X94555812Y-107455898D01*
X94562630Y-107470314D01*
X94568003Y-107485329D01*
X94571878Y-107500798D01*
X94574218Y-107516572D01*
X94575000Y-107532500D01*
X94575000Y-108267500D01*
X94574218Y-108283428D01*
X94571878Y-108299202D01*
X94568003Y-108314671D01*
X94562630Y-108329686D01*
X94555812Y-108344102D01*
X94547614Y-108357780D01*
X94538114Y-108370589D01*
X94527405Y-108382405D01*
X94515589Y-108393114D01*
X94502780Y-108402614D01*
X94489102Y-108410812D01*
X94474686Y-108417630D01*
X94459671Y-108423003D01*
X94444202Y-108426878D01*
X94428428Y-108429218D01*
X94412500Y-108430000D01*
X94087500Y-108430000D01*
X94071572Y-108429218D01*
X94055798Y-108426878D01*
X94040329Y-108423003D01*
X94025314Y-108417630D01*
X94010898Y-108410812D01*
X93997220Y-108402614D01*
X93984411Y-108393114D01*
X93972595Y-108382405D01*
X93961886Y-108370589D01*
X93952386Y-108357780D01*
X93944188Y-108344102D01*
X93937370Y-108329686D01*
X93931997Y-108314671D01*
X93928122Y-108299202D01*
X93925782Y-108283428D01*
X93925000Y-108267500D01*
X93925000Y-107532500D01*
X93925782Y-107516572D01*
X93928122Y-107500798D01*
X93931997Y-107485329D01*
X93937370Y-107470314D01*
X93944188Y-107455898D01*
X93952386Y-107442220D01*
X93961886Y-107429411D01*
X93972595Y-107417595D01*
X93984411Y-107406886D01*
X93997220Y-107397386D01*
X94010898Y-107389188D01*
X94025314Y-107382370D01*
X94040329Y-107376997D01*
X94055798Y-107373122D01*
X94071572Y-107370782D01*
X94087500Y-107370000D01*
X94412500Y-107370000D01*
X94428428Y-107370782D01*
X94428428Y-107370782D01*
G37*
D16*
X94250000Y-107900000D03*
D10*
G36*
X93478428Y-107370782D02*
X93494202Y-107373122D01*
X93509671Y-107376997D01*
X93524686Y-107382370D01*
X93539102Y-107389188D01*
X93552780Y-107397386D01*
X93565589Y-107406886D01*
X93577405Y-107417595D01*
X93588114Y-107429411D01*
X93597614Y-107442220D01*
X93605812Y-107455898D01*
X93612630Y-107470314D01*
X93618003Y-107485329D01*
X93621878Y-107500798D01*
X93624218Y-107516572D01*
X93625000Y-107532500D01*
X93625000Y-108267500D01*
X93624218Y-108283428D01*
X93621878Y-108299202D01*
X93618003Y-108314671D01*
X93612630Y-108329686D01*
X93605812Y-108344102D01*
X93597614Y-108357780D01*
X93588114Y-108370589D01*
X93577405Y-108382405D01*
X93565589Y-108393114D01*
X93552780Y-108402614D01*
X93539102Y-108410812D01*
X93524686Y-108417630D01*
X93509671Y-108423003D01*
X93494202Y-108426878D01*
X93478428Y-108429218D01*
X93462500Y-108430000D01*
X93137500Y-108430000D01*
X93121572Y-108429218D01*
X93105798Y-108426878D01*
X93090329Y-108423003D01*
X93075314Y-108417630D01*
X93060898Y-108410812D01*
X93047220Y-108402614D01*
X93034411Y-108393114D01*
X93022595Y-108382405D01*
X93011886Y-108370589D01*
X93002386Y-108357780D01*
X92994188Y-108344102D01*
X92987370Y-108329686D01*
X92981997Y-108314671D01*
X92978122Y-108299202D01*
X92975782Y-108283428D01*
X92975000Y-108267500D01*
X92975000Y-107532500D01*
X92975782Y-107516572D01*
X92978122Y-107500798D01*
X92981997Y-107485329D01*
X92987370Y-107470314D01*
X92994188Y-107455898D01*
X93002386Y-107442220D01*
X93011886Y-107429411D01*
X93022595Y-107417595D01*
X93034411Y-107406886D01*
X93047220Y-107397386D01*
X93060898Y-107389188D01*
X93075314Y-107382370D01*
X93090329Y-107376997D01*
X93105798Y-107373122D01*
X93121572Y-107370782D01*
X93137500Y-107370000D01*
X93462500Y-107370000D01*
X93478428Y-107370782D01*
X93478428Y-107370782D01*
G37*
D16*
X93300000Y-107900000D03*
D10*
G36*
X98395340Y-111413192D02*
X98409294Y-111415262D01*
X98422978Y-111418690D01*
X98436261Y-111423442D01*
X98449013Y-111429474D01*
X98461113Y-111436726D01*
X98472444Y-111445130D01*
X98482897Y-111454603D01*
X98492370Y-111465056D01*
X98500774Y-111476387D01*
X98508026Y-111488487D01*
X98514058Y-111501239D01*
X98518810Y-111514522D01*
X98522238Y-111528206D01*
X98524308Y-111542160D01*
X98525000Y-111556250D01*
X98525000Y-111843750D01*
X98524308Y-111857840D01*
X98522238Y-111871794D01*
X98518810Y-111885478D01*
X98514058Y-111898761D01*
X98508026Y-111911513D01*
X98500774Y-111923613D01*
X98492370Y-111934944D01*
X98482897Y-111945397D01*
X98472444Y-111954870D01*
X98461113Y-111963274D01*
X98449013Y-111970526D01*
X98436261Y-111976558D01*
X98422978Y-111981310D01*
X98409294Y-111984738D01*
X98395340Y-111986808D01*
X98381250Y-111987500D01*
X98018750Y-111987500D01*
X98004660Y-111986808D01*
X97990706Y-111984738D01*
X97977022Y-111981310D01*
X97963739Y-111976558D01*
X97950987Y-111970526D01*
X97938887Y-111963274D01*
X97927556Y-111954870D01*
X97917103Y-111945397D01*
X97907630Y-111934944D01*
X97899226Y-111923613D01*
X97891974Y-111911513D01*
X97885942Y-111898761D01*
X97881190Y-111885478D01*
X97877762Y-111871794D01*
X97875692Y-111857840D01*
X97875000Y-111843750D01*
X97875000Y-111556250D01*
X97875692Y-111542160D01*
X97877762Y-111528206D01*
X97881190Y-111514522D01*
X97885942Y-111501239D01*
X97891974Y-111488487D01*
X97899226Y-111476387D01*
X97907630Y-111465056D01*
X97917103Y-111454603D01*
X97927556Y-111445130D01*
X97938887Y-111436726D01*
X97950987Y-111429474D01*
X97963739Y-111423442D01*
X97977022Y-111418690D01*
X97990706Y-111415262D01*
X98004660Y-111413192D01*
X98018750Y-111412500D01*
X98381250Y-111412500D01*
X98395340Y-111413192D01*
X98395340Y-111413192D01*
G37*
D11*
X98200000Y-111700000D03*
D10*
G36*
X98395340Y-110513192D02*
X98409294Y-110515262D01*
X98422978Y-110518690D01*
X98436261Y-110523442D01*
X98449013Y-110529474D01*
X98461113Y-110536726D01*
X98472444Y-110545130D01*
X98482897Y-110554603D01*
X98492370Y-110565056D01*
X98500774Y-110576387D01*
X98508026Y-110588487D01*
X98514058Y-110601239D01*
X98518810Y-110614522D01*
X98522238Y-110628206D01*
X98524308Y-110642160D01*
X98525000Y-110656250D01*
X98525000Y-110943750D01*
X98524308Y-110957840D01*
X98522238Y-110971794D01*
X98518810Y-110985478D01*
X98514058Y-110998761D01*
X98508026Y-111011513D01*
X98500774Y-111023613D01*
X98492370Y-111034944D01*
X98482897Y-111045397D01*
X98472444Y-111054870D01*
X98461113Y-111063274D01*
X98449013Y-111070526D01*
X98436261Y-111076558D01*
X98422978Y-111081310D01*
X98409294Y-111084738D01*
X98395340Y-111086808D01*
X98381250Y-111087500D01*
X98018750Y-111087500D01*
X98004660Y-111086808D01*
X97990706Y-111084738D01*
X97977022Y-111081310D01*
X97963739Y-111076558D01*
X97950987Y-111070526D01*
X97938887Y-111063274D01*
X97927556Y-111054870D01*
X97917103Y-111045397D01*
X97907630Y-111034944D01*
X97899226Y-111023613D01*
X97891974Y-111011513D01*
X97885942Y-110998761D01*
X97881190Y-110985478D01*
X97877762Y-110971794D01*
X97875692Y-110957840D01*
X97875000Y-110943750D01*
X97875000Y-110656250D01*
X97875692Y-110642160D01*
X97877762Y-110628206D01*
X97881190Y-110614522D01*
X97885942Y-110601239D01*
X97891974Y-110588487D01*
X97899226Y-110576387D01*
X97907630Y-110565056D01*
X97917103Y-110554603D01*
X97927556Y-110545130D01*
X97938887Y-110536726D01*
X97950987Y-110529474D01*
X97963739Y-110523442D01*
X97977022Y-110518690D01*
X97990706Y-110515262D01*
X98004660Y-110513192D01*
X98018750Y-110512500D01*
X98381250Y-110512500D01*
X98395340Y-110513192D01*
X98395340Y-110513192D01*
G37*
D11*
X98200000Y-110800000D03*
D10*
G36*
X109107840Y-102025692D02*
X109121794Y-102027762D01*
X109135478Y-102031190D01*
X109148761Y-102035942D01*
X109161513Y-102041974D01*
X109173613Y-102049226D01*
X109184944Y-102057630D01*
X109195397Y-102067103D01*
X109204870Y-102077556D01*
X109213274Y-102088887D01*
X109220526Y-102100987D01*
X109226558Y-102113739D01*
X109231310Y-102127022D01*
X109234738Y-102140706D01*
X109236808Y-102154660D01*
X109237500Y-102168750D01*
X109237500Y-102531250D01*
X109236808Y-102545340D01*
X109234738Y-102559294D01*
X109231310Y-102572978D01*
X109226558Y-102586261D01*
X109220526Y-102599013D01*
X109213274Y-102611113D01*
X109204870Y-102622444D01*
X109195397Y-102632897D01*
X109184944Y-102642370D01*
X109173613Y-102650774D01*
X109161513Y-102658026D01*
X109148761Y-102664058D01*
X109135478Y-102668810D01*
X109121794Y-102672238D01*
X109107840Y-102674308D01*
X109093750Y-102675000D01*
X108806250Y-102675000D01*
X108792160Y-102674308D01*
X108778206Y-102672238D01*
X108764522Y-102668810D01*
X108751239Y-102664058D01*
X108738487Y-102658026D01*
X108726387Y-102650774D01*
X108715056Y-102642370D01*
X108704603Y-102632897D01*
X108695130Y-102622444D01*
X108686726Y-102611113D01*
X108679474Y-102599013D01*
X108673442Y-102586261D01*
X108668690Y-102572978D01*
X108665262Y-102559294D01*
X108663192Y-102545340D01*
X108662500Y-102531250D01*
X108662500Y-102168750D01*
X108663192Y-102154660D01*
X108665262Y-102140706D01*
X108668690Y-102127022D01*
X108673442Y-102113739D01*
X108679474Y-102100987D01*
X108686726Y-102088887D01*
X108695130Y-102077556D01*
X108704603Y-102067103D01*
X108715056Y-102057630D01*
X108726387Y-102049226D01*
X108738487Y-102041974D01*
X108751239Y-102035942D01*
X108764522Y-102031190D01*
X108778206Y-102027762D01*
X108792160Y-102025692D01*
X108806250Y-102025000D01*
X109093750Y-102025000D01*
X109107840Y-102025692D01*
X109107840Y-102025692D01*
G37*
D11*
X108950000Y-102350000D03*
D10*
G36*
X108207840Y-102025692D02*
X108221794Y-102027762D01*
X108235478Y-102031190D01*
X108248761Y-102035942D01*
X108261513Y-102041974D01*
X108273613Y-102049226D01*
X108284944Y-102057630D01*
X108295397Y-102067103D01*
X108304870Y-102077556D01*
X108313274Y-102088887D01*
X108320526Y-102100987D01*
X108326558Y-102113739D01*
X108331310Y-102127022D01*
X108334738Y-102140706D01*
X108336808Y-102154660D01*
X108337500Y-102168750D01*
X108337500Y-102531250D01*
X108336808Y-102545340D01*
X108334738Y-102559294D01*
X108331310Y-102572978D01*
X108326558Y-102586261D01*
X108320526Y-102599013D01*
X108313274Y-102611113D01*
X108304870Y-102622444D01*
X108295397Y-102632897D01*
X108284944Y-102642370D01*
X108273613Y-102650774D01*
X108261513Y-102658026D01*
X108248761Y-102664058D01*
X108235478Y-102668810D01*
X108221794Y-102672238D01*
X108207840Y-102674308D01*
X108193750Y-102675000D01*
X107906250Y-102675000D01*
X107892160Y-102674308D01*
X107878206Y-102672238D01*
X107864522Y-102668810D01*
X107851239Y-102664058D01*
X107838487Y-102658026D01*
X107826387Y-102650774D01*
X107815056Y-102642370D01*
X107804603Y-102632897D01*
X107795130Y-102622444D01*
X107786726Y-102611113D01*
X107779474Y-102599013D01*
X107773442Y-102586261D01*
X107768690Y-102572978D01*
X107765262Y-102559294D01*
X107763192Y-102545340D01*
X107762500Y-102531250D01*
X107762500Y-102168750D01*
X107763192Y-102154660D01*
X107765262Y-102140706D01*
X107768690Y-102127022D01*
X107773442Y-102113739D01*
X107779474Y-102100987D01*
X107786726Y-102088887D01*
X107795130Y-102077556D01*
X107804603Y-102067103D01*
X107815056Y-102057630D01*
X107826387Y-102049226D01*
X107838487Y-102041974D01*
X107851239Y-102035942D01*
X107864522Y-102031190D01*
X107878206Y-102027762D01*
X107892160Y-102025692D01*
X107906250Y-102025000D01*
X108193750Y-102025000D01*
X108207840Y-102025692D01*
X108207840Y-102025692D01*
G37*
D11*
X108050000Y-102350000D03*
D10*
G36*
X97195340Y-99675692D02*
X97209294Y-99677762D01*
X97222978Y-99681190D01*
X97236261Y-99685942D01*
X97249013Y-99691974D01*
X97261113Y-99699226D01*
X97272444Y-99707630D01*
X97282897Y-99717103D01*
X97292370Y-99727556D01*
X97300774Y-99738887D01*
X97308026Y-99750987D01*
X97314058Y-99763739D01*
X97318810Y-99777022D01*
X97322238Y-99790706D01*
X97324308Y-99804660D01*
X97325000Y-99818750D01*
X97325000Y-100181250D01*
X97324308Y-100195340D01*
X97322238Y-100209294D01*
X97318810Y-100222978D01*
X97314058Y-100236261D01*
X97308026Y-100249013D01*
X97300774Y-100261113D01*
X97292370Y-100272444D01*
X97282897Y-100282897D01*
X97272444Y-100292370D01*
X97261113Y-100300774D01*
X97249013Y-100308026D01*
X97236261Y-100314058D01*
X97222978Y-100318810D01*
X97209294Y-100322238D01*
X97195340Y-100324308D01*
X97181250Y-100325000D01*
X96893750Y-100325000D01*
X96879660Y-100324308D01*
X96865706Y-100322238D01*
X96852022Y-100318810D01*
X96838739Y-100314058D01*
X96825987Y-100308026D01*
X96813887Y-100300774D01*
X96802556Y-100292370D01*
X96792103Y-100282897D01*
X96782630Y-100272444D01*
X96774226Y-100261113D01*
X96766974Y-100249013D01*
X96760942Y-100236261D01*
X96756190Y-100222978D01*
X96752762Y-100209294D01*
X96750692Y-100195340D01*
X96750000Y-100181250D01*
X96750000Y-99818750D01*
X96750692Y-99804660D01*
X96752762Y-99790706D01*
X96756190Y-99777022D01*
X96760942Y-99763739D01*
X96766974Y-99750987D01*
X96774226Y-99738887D01*
X96782630Y-99727556D01*
X96792103Y-99717103D01*
X96802556Y-99707630D01*
X96813887Y-99699226D01*
X96825987Y-99691974D01*
X96838739Y-99685942D01*
X96852022Y-99681190D01*
X96865706Y-99677762D01*
X96879660Y-99675692D01*
X96893750Y-99675000D01*
X97181250Y-99675000D01*
X97195340Y-99675692D01*
X97195340Y-99675692D01*
G37*
D11*
X97037500Y-100000000D03*
D10*
G36*
X98095340Y-99675692D02*
X98109294Y-99677762D01*
X98122978Y-99681190D01*
X98136261Y-99685942D01*
X98149013Y-99691974D01*
X98161113Y-99699226D01*
X98172444Y-99707630D01*
X98182897Y-99717103D01*
X98192370Y-99727556D01*
X98200774Y-99738887D01*
X98208026Y-99750987D01*
X98214058Y-99763739D01*
X98218810Y-99777022D01*
X98222238Y-99790706D01*
X98224308Y-99804660D01*
X98225000Y-99818750D01*
X98225000Y-100181250D01*
X98224308Y-100195340D01*
X98222238Y-100209294D01*
X98218810Y-100222978D01*
X98214058Y-100236261D01*
X98208026Y-100249013D01*
X98200774Y-100261113D01*
X98192370Y-100272444D01*
X98182897Y-100282897D01*
X98172444Y-100292370D01*
X98161113Y-100300774D01*
X98149013Y-100308026D01*
X98136261Y-100314058D01*
X98122978Y-100318810D01*
X98109294Y-100322238D01*
X98095340Y-100324308D01*
X98081250Y-100325000D01*
X97793750Y-100325000D01*
X97779660Y-100324308D01*
X97765706Y-100322238D01*
X97752022Y-100318810D01*
X97738739Y-100314058D01*
X97725987Y-100308026D01*
X97713887Y-100300774D01*
X97702556Y-100292370D01*
X97692103Y-100282897D01*
X97682630Y-100272444D01*
X97674226Y-100261113D01*
X97666974Y-100249013D01*
X97660942Y-100236261D01*
X97656190Y-100222978D01*
X97652762Y-100209294D01*
X97650692Y-100195340D01*
X97650000Y-100181250D01*
X97650000Y-99818750D01*
X97650692Y-99804660D01*
X97652762Y-99790706D01*
X97656190Y-99777022D01*
X97660942Y-99763739D01*
X97666974Y-99750987D01*
X97674226Y-99738887D01*
X97682630Y-99727556D01*
X97692103Y-99717103D01*
X97702556Y-99707630D01*
X97713887Y-99699226D01*
X97725987Y-99691974D01*
X97738739Y-99685942D01*
X97752022Y-99681190D01*
X97765706Y-99677762D01*
X97779660Y-99675692D01*
X97793750Y-99675000D01*
X98081250Y-99675000D01*
X98095340Y-99675692D01*
X98095340Y-99675692D01*
G37*
D11*
X97937500Y-100000000D03*
D10*
G36*
X108207840Y-109675692D02*
X108221794Y-109677762D01*
X108235478Y-109681190D01*
X108248761Y-109685942D01*
X108261513Y-109691974D01*
X108273613Y-109699226D01*
X108284944Y-109707630D01*
X108295397Y-109717103D01*
X108304870Y-109727556D01*
X108313274Y-109738887D01*
X108320526Y-109750987D01*
X108326558Y-109763739D01*
X108331310Y-109777022D01*
X108334738Y-109790706D01*
X108336808Y-109804660D01*
X108337500Y-109818750D01*
X108337500Y-110181250D01*
X108336808Y-110195340D01*
X108334738Y-110209294D01*
X108331310Y-110222978D01*
X108326558Y-110236261D01*
X108320526Y-110249013D01*
X108313274Y-110261113D01*
X108304870Y-110272444D01*
X108295397Y-110282897D01*
X108284944Y-110292370D01*
X108273613Y-110300774D01*
X108261513Y-110308026D01*
X108248761Y-110314058D01*
X108235478Y-110318810D01*
X108221794Y-110322238D01*
X108207840Y-110324308D01*
X108193750Y-110325000D01*
X107906250Y-110325000D01*
X107892160Y-110324308D01*
X107878206Y-110322238D01*
X107864522Y-110318810D01*
X107851239Y-110314058D01*
X107838487Y-110308026D01*
X107826387Y-110300774D01*
X107815056Y-110292370D01*
X107804603Y-110282897D01*
X107795130Y-110272444D01*
X107786726Y-110261113D01*
X107779474Y-110249013D01*
X107773442Y-110236261D01*
X107768690Y-110222978D01*
X107765262Y-110209294D01*
X107763192Y-110195340D01*
X107762500Y-110181250D01*
X107762500Y-109818750D01*
X107763192Y-109804660D01*
X107765262Y-109790706D01*
X107768690Y-109777022D01*
X107773442Y-109763739D01*
X107779474Y-109750987D01*
X107786726Y-109738887D01*
X107795130Y-109727556D01*
X107804603Y-109717103D01*
X107815056Y-109707630D01*
X107826387Y-109699226D01*
X107838487Y-109691974D01*
X107851239Y-109685942D01*
X107864522Y-109681190D01*
X107878206Y-109677762D01*
X107892160Y-109675692D01*
X107906250Y-109675000D01*
X108193750Y-109675000D01*
X108207840Y-109675692D01*
X108207840Y-109675692D01*
G37*
D11*
X108050000Y-110000000D03*
D10*
G36*
X109107840Y-109675692D02*
X109121794Y-109677762D01*
X109135478Y-109681190D01*
X109148761Y-109685942D01*
X109161513Y-109691974D01*
X109173613Y-109699226D01*
X109184944Y-109707630D01*
X109195397Y-109717103D01*
X109204870Y-109727556D01*
X109213274Y-109738887D01*
X109220526Y-109750987D01*
X109226558Y-109763739D01*
X109231310Y-109777022D01*
X109234738Y-109790706D01*
X109236808Y-109804660D01*
X109237500Y-109818750D01*
X109237500Y-110181250D01*
X109236808Y-110195340D01*
X109234738Y-110209294D01*
X109231310Y-110222978D01*
X109226558Y-110236261D01*
X109220526Y-110249013D01*
X109213274Y-110261113D01*
X109204870Y-110272444D01*
X109195397Y-110282897D01*
X109184944Y-110292370D01*
X109173613Y-110300774D01*
X109161513Y-110308026D01*
X109148761Y-110314058D01*
X109135478Y-110318810D01*
X109121794Y-110322238D01*
X109107840Y-110324308D01*
X109093750Y-110325000D01*
X108806250Y-110325000D01*
X108792160Y-110324308D01*
X108778206Y-110322238D01*
X108764522Y-110318810D01*
X108751239Y-110314058D01*
X108738487Y-110308026D01*
X108726387Y-110300774D01*
X108715056Y-110292370D01*
X108704603Y-110282897D01*
X108695130Y-110272444D01*
X108686726Y-110261113D01*
X108679474Y-110249013D01*
X108673442Y-110236261D01*
X108668690Y-110222978D01*
X108665262Y-110209294D01*
X108663192Y-110195340D01*
X108662500Y-110181250D01*
X108662500Y-109818750D01*
X108663192Y-109804660D01*
X108665262Y-109790706D01*
X108668690Y-109777022D01*
X108673442Y-109763739D01*
X108679474Y-109750987D01*
X108686726Y-109738887D01*
X108695130Y-109727556D01*
X108704603Y-109717103D01*
X108715056Y-109707630D01*
X108726387Y-109699226D01*
X108738487Y-109691974D01*
X108751239Y-109685942D01*
X108764522Y-109681190D01*
X108778206Y-109677762D01*
X108792160Y-109675692D01*
X108806250Y-109675000D01*
X109093750Y-109675000D01*
X109107840Y-109675692D01*
X109107840Y-109675692D01*
G37*
D11*
X108950000Y-110000000D03*
D10*
G36*
X108207840Y-108675692D02*
X108221794Y-108677762D01*
X108235478Y-108681190D01*
X108248761Y-108685942D01*
X108261513Y-108691974D01*
X108273613Y-108699226D01*
X108284944Y-108707630D01*
X108295397Y-108717103D01*
X108304870Y-108727556D01*
X108313274Y-108738887D01*
X108320526Y-108750987D01*
X108326558Y-108763739D01*
X108331310Y-108777022D01*
X108334738Y-108790706D01*
X108336808Y-108804660D01*
X108337500Y-108818750D01*
X108337500Y-109181250D01*
X108336808Y-109195340D01*
X108334738Y-109209294D01*
X108331310Y-109222978D01*
X108326558Y-109236261D01*
X108320526Y-109249013D01*
X108313274Y-109261113D01*
X108304870Y-109272444D01*
X108295397Y-109282897D01*
X108284944Y-109292370D01*
X108273613Y-109300774D01*
X108261513Y-109308026D01*
X108248761Y-109314058D01*
X108235478Y-109318810D01*
X108221794Y-109322238D01*
X108207840Y-109324308D01*
X108193750Y-109325000D01*
X107906250Y-109325000D01*
X107892160Y-109324308D01*
X107878206Y-109322238D01*
X107864522Y-109318810D01*
X107851239Y-109314058D01*
X107838487Y-109308026D01*
X107826387Y-109300774D01*
X107815056Y-109292370D01*
X107804603Y-109282897D01*
X107795130Y-109272444D01*
X107786726Y-109261113D01*
X107779474Y-109249013D01*
X107773442Y-109236261D01*
X107768690Y-109222978D01*
X107765262Y-109209294D01*
X107763192Y-109195340D01*
X107762500Y-109181250D01*
X107762500Y-108818750D01*
X107763192Y-108804660D01*
X107765262Y-108790706D01*
X107768690Y-108777022D01*
X107773442Y-108763739D01*
X107779474Y-108750987D01*
X107786726Y-108738887D01*
X107795130Y-108727556D01*
X107804603Y-108717103D01*
X107815056Y-108707630D01*
X107826387Y-108699226D01*
X107838487Y-108691974D01*
X107851239Y-108685942D01*
X107864522Y-108681190D01*
X107878206Y-108677762D01*
X107892160Y-108675692D01*
X107906250Y-108675000D01*
X108193750Y-108675000D01*
X108207840Y-108675692D01*
X108207840Y-108675692D01*
G37*
D11*
X108050000Y-109000000D03*
D10*
G36*
X109107840Y-108675692D02*
X109121794Y-108677762D01*
X109135478Y-108681190D01*
X109148761Y-108685942D01*
X109161513Y-108691974D01*
X109173613Y-108699226D01*
X109184944Y-108707630D01*
X109195397Y-108717103D01*
X109204870Y-108727556D01*
X109213274Y-108738887D01*
X109220526Y-108750987D01*
X109226558Y-108763739D01*
X109231310Y-108777022D01*
X109234738Y-108790706D01*
X109236808Y-108804660D01*
X109237500Y-108818750D01*
X109237500Y-109181250D01*
X109236808Y-109195340D01*
X109234738Y-109209294D01*
X109231310Y-109222978D01*
X109226558Y-109236261D01*
X109220526Y-109249013D01*
X109213274Y-109261113D01*
X109204870Y-109272444D01*
X109195397Y-109282897D01*
X109184944Y-109292370D01*
X109173613Y-109300774D01*
X109161513Y-109308026D01*
X109148761Y-109314058D01*
X109135478Y-109318810D01*
X109121794Y-109322238D01*
X109107840Y-109324308D01*
X109093750Y-109325000D01*
X108806250Y-109325000D01*
X108792160Y-109324308D01*
X108778206Y-109322238D01*
X108764522Y-109318810D01*
X108751239Y-109314058D01*
X108738487Y-109308026D01*
X108726387Y-109300774D01*
X108715056Y-109292370D01*
X108704603Y-109282897D01*
X108695130Y-109272444D01*
X108686726Y-109261113D01*
X108679474Y-109249013D01*
X108673442Y-109236261D01*
X108668690Y-109222978D01*
X108665262Y-109209294D01*
X108663192Y-109195340D01*
X108662500Y-109181250D01*
X108662500Y-108818750D01*
X108663192Y-108804660D01*
X108665262Y-108790706D01*
X108668690Y-108777022D01*
X108673442Y-108763739D01*
X108679474Y-108750987D01*
X108686726Y-108738887D01*
X108695130Y-108727556D01*
X108704603Y-108717103D01*
X108715056Y-108707630D01*
X108726387Y-108699226D01*
X108738487Y-108691974D01*
X108751239Y-108685942D01*
X108764522Y-108681190D01*
X108778206Y-108677762D01*
X108792160Y-108675692D01*
X108806250Y-108675000D01*
X109093750Y-108675000D01*
X109107840Y-108675692D01*
X109107840Y-108675692D01*
G37*
D11*
X108950000Y-109000000D03*
D10*
G36*
X108207840Y-105675692D02*
X108221794Y-105677762D01*
X108235478Y-105681190D01*
X108248761Y-105685942D01*
X108261513Y-105691974D01*
X108273613Y-105699226D01*
X108284944Y-105707630D01*
X108295397Y-105717103D01*
X108304870Y-105727556D01*
X108313274Y-105738887D01*
X108320526Y-105750987D01*
X108326558Y-105763739D01*
X108331310Y-105777022D01*
X108334738Y-105790706D01*
X108336808Y-105804660D01*
X108337500Y-105818750D01*
X108337500Y-106181250D01*
X108336808Y-106195340D01*
X108334738Y-106209294D01*
X108331310Y-106222978D01*
X108326558Y-106236261D01*
X108320526Y-106249013D01*
X108313274Y-106261113D01*
X108304870Y-106272444D01*
X108295397Y-106282897D01*
X108284944Y-106292370D01*
X108273613Y-106300774D01*
X108261513Y-106308026D01*
X108248761Y-106314058D01*
X108235478Y-106318810D01*
X108221794Y-106322238D01*
X108207840Y-106324308D01*
X108193750Y-106325000D01*
X107906250Y-106325000D01*
X107892160Y-106324308D01*
X107878206Y-106322238D01*
X107864522Y-106318810D01*
X107851239Y-106314058D01*
X107838487Y-106308026D01*
X107826387Y-106300774D01*
X107815056Y-106292370D01*
X107804603Y-106282897D01*
X107795130Y-106272444D01*
X107786726Y-106261113D01*
X107779474Y-106249013D01*
X107773442Y-106236261D01*
X107768690Y-106222978D01*
X107765262Y-106209294D01*
X107763192Y-106195340D01*
X107762500Y-106181250D01*
X107762500Y-105818750D01*
X107763192Y-105804660D01*
X107765262Y-105790706D01*
X107768690Y-105777022D01*
X107773442Y-105763739D01*
X107779474Y-105750987D01*
X107786726Y-105738887D01*
X107795130Y-105727556D01*
X107804603Y-105717103D01*
X107815056Y-105707630D01*
X107826387Y-105699226D01*
X107838487Y-105691974D01*
X107851239Y-105685942D01*
X107864522Y-105681190D01*
X107878206Y-105677762D01*
X107892160Y-105675692D01*
X107906250Y-105675000D01*
X108193750Y-105675000D01*
X108207840Y-105675692D01*
X108207840Y-105675692D01*
G37*
D11*
X108050000Y-106000000D03*
D10*
G36*
X109107840Y-105675692D02*
X109121794Y-105677762D01*
X109135478Y-105681190D01*
X109148761Y-105685942D01*
X109161513Y-105691974D01*
X109173613Y-105699226D01*
X109184944Y-105707630D01*
X109195397Y-105717103D01*
X109204870Y-105727556D01*
X109213274Y-105738887D01*
X109220526Y-105750987D01*
X109226558Y-105763739D01*
X109231310Y-105777022D01*
X109234738Y-105790706D01*
X109236808Y-105804660D01*
X109237500Y-105818750D01*
X109237500Y-106181250D01*
X109236808Y-106195340D01*
X109234738Y-106209294D01*
X109231310Y-106222978D01*
X109226558Y-106236261D01*
X109220526Y-106249013D01*
X109213274Y-106261113D01*
X109204870Y-106272444D01*
X109195397Y-106282897D01*
X109184944Y-106292370D01*
X109173613Y-106300774D01*
X109161513Y-106308026D01*
X109148761Y-106314058D01*
X109135478Y-106318810D01*
X109121794Y-106322238D01*
X109107840Y-106324308D01*
X109093750Y-106325000D01*
X108806250Y-106325000D01*
X108792160Y-106324308D01*
X108778206Y-106322238D01*
X108764522Y-106318810D01*
X108751239Y-106314058D01*
X108738487Y-106308026D01*
X108726387Y-106300774D01*
X108715056Y-106292370D01*
X108704603Y-106282897D01*
X108695130Y-106272444D01*
X108686726Y-106261113D01*
X108679474Y-106249013D01*
X108673442Y-106236261D01*
X108668690Y-106222978D01*
X108665262Y-106209294D01*
X108663192Y-106195340D01*
X108662500Y-106181250D01*
X108662500Y-105818750D01*
X108663192Y-105804660D01*
X108665262Y-105790706D01*
X108668690Y-105777022D01*
X108673442Y-105763739D01*
X108679474Y-105750987D01*
X108686726Y-105738887D01*
X108695130Y-105727556D01*
X108704603Y-105717103D01*
X108715056Y-105707630D01*
X108726387Y-105699226D01*
X108738487Y-105691974D01*
X108751239Y-105685942D01*
X108764522Y-105681190D01*
X108778206Y-105677762D01*
X108792160Y-105675692D01*
X108806250Y-105675000D01*
X109093750Y-105675000D01*
X109107840Y-105675692D01*
X109107840Y-105675692D01*
G37*
D11*
X108950000Y-106000000D03*
D10*
G36*
X108207840Y-110675692D02*
X108221794Y-110677762D01*
X108235478Y-110681190D01*
X108248761Y-110685942D01*
X108261513Y-110691974D01*
X108273613Y-110699226D01*
X108284944Y-110707630D01*
X108295397Y-110717103D01*
X108304870Y-110727556D01*
X108313274Y-110738887D01*
X108320526Y-110750987D01*
X108326558Y-110763739D01*
X108331310Y-110777022D01*
X108334738Y-110790706D01*
X108336808Y-110804660D01*
X108337500Y-110818750D01*
X108337500Y-111181250D01*
X108336808Y-111195340D01*
X108334738Y-111209294D01*
X108331310Y-111222978D01*
X108326558Y-111236261D01*
X108320526Y-111249013D01*
X108313274Y-111261113D01*
X108304870Y-111272444D01*
X108295397Y-111282897D01*
X108284944Y-111292370D01*
X108273613Y-111300774D01*
X108261513Y-111308026D01*
X108248761Y-111314058D01*
X108235478Y-111318810D01*
X108221794Y-111322238D01*
X108207840Y-111324308D01*
X108193750Y-111325000D01*
X107906250Y-111325000D01*
X107892160Y-111324308D01*
X107878206Y-111322238D01*
X107864522Y-111318810D01*
X107851239Y-111314058D01*
X107838487Y-111308026D01*
X107826387Y-111300774D01*
X107815056Y-111292370D01*
X107804603Y-111282897D01*
X107795130Y-111272444D01*
X107786726Y-111261113D01*
X107779474Y-111249013D01*
X107773442Y-111236261D01*
X107768690Y-111222978D01*
X107765262Y-111209294D01*
X107763192Y-111195340D01*
X107762500Y-111181250D01*
X107762500Y-110818750D01*
X107763192Y-110804660D01*
X107765262Y-110790706D01*
X107768690Y-110777022D01*
X107773442Y-110763739D01*
X107779474Y-110750987D01*
X107786726Y-110738887D01*
X107795130Y-110727556D01*
X107804603Y-110717103D01*
X107815056Y-110707630D01*
X107826387Y-110699226D01*
X107838487Y-110691974D01*
X107851239Y-110685942D01*
X107864522Y-110681190D01*
X107878206Y-110677762D01*
X107892160Y-110675692D01*
X107906250Y-110675000D01*
X108193750Y-110675000D01*
X108207840Y-110675692D01*
X108207840Y-110675692D01*
G37*
D11*
X108050000Y-111000000D03*
D10*
G36*
X109107840Y-110675692D02*
X109121794Y-110677762D01*
X109135478Y-110681190D01*
X109148761Y-110685942D01*
X109161513Y-110691974D01*
X109173613Y-110699226D01*
X109184944Y-110707630D01*
X109195397Y-110717103D01*
X109204870Y-110727556D01*
X109213274Y-110738887D01*
X109220526Y-110750987D01*
X109226558Y-110763739D01*
X109231310Y-110777022D01*
X109234738Y-110790706D01*
X109236808Y-110804660D01*
X109237500Y-110818750D01*
X109237500Y-111181250D01*
X109236808Y-111195340D01*
X109234738Y-111209294D01*
X109231310Y-111222978D01*
X109226558Y-111236261D01*
X109220526Y-111249013D01*
X109213274Y-111261113D01*
X109204870Y-111272444D01*
X109195397Y-111282897D01*
X109184944Y-111292370D01*
X109173613Y-111300774D01*
X109161513Y-111308026D01*
X109148761Y-111314058D01*
X109135478Y-111318810D01*
X109121794Y-111322238D01*
X109107840Y-111324308D01*
X109093750Y-111325000D01*
X108806250Y-111325000D01*
X108792160Y-111324308D01*
X108778206Y-111322238D01*
X108764522Y-111318810D01*
X108751239Y-111314058D01*
X108738487Y-111308026D01*
X108726387Y-111300774D01*
X108715056Y-111292370D01*
X108704603Y-111282897D01*
X108695130Y-111272444D01*
X108686726Y-111261113D01*
X108679474Y-111249013D01*
X108673442Y-111236261D01*
X108668690Y-111222978D01*
X108665262Y-111209294D01*
X108663192Y-111195340D01*
X108662500Y-111181250D01*
X108662500Y-110818750D01*
X108663192Y-110804660D01*
X108665262Y-110790706D01*
X108668690Y-110777022D01*
X108673442Y-110763739D01*
X108679474Y-110750987D01*
X108686726Y-110738887D01*
X108695130Y-110727556D01*
X108704603Y-110717103D01*
X108715056Y-110707630D01*
X108726387Y-110699226D01*
X108738487Y-110691974D01*
X108751239Y-110685942D01*
X108764522Y-110681190D01*
X108778206Y-110677762D01*
X108792160Y-110675692D01*
X108806250Y-110675000D01*
X109093750Y-110675000D01*
X109107840Y-110675692D01*
X109107840Y-110675692D01*
G37*
D11*
X108950000Y-111000000D03*
D10*
G36*
X108207840Y-104675692D02*
X108221794Y-104677762D01*
X108235478Y-104681190D01*
X108248761Y-104685942D01*
X108261513Y-104691974D01*
X108273613Y-104699226D01*
X108284944Y-104707630D01*
X108295397Y-104717103D01*
X108304870Y-104727556D01*
X108313274Y-104738887D01*
X108320526Y-104750987D01*
X108326558Y-104763739D01*
X108331310Y-104777022D01*
X108334738Y-104790706D01*
X108336808Y-104804660D01*
X108337500Y-104818750D01*
X108337500Y-105181250D01*
X108336808Y-105195340D01*
X108334738Y-105209294D01*
X108331310Y-105222978D01*
X108326558Y-105236261D01*
X108320526Y-105249013D01*
X108313274Y-105261113D01*
X108304870Y-105272444D01*
X108295397Y-105282897D01*
X108284944Y-105292370D01*
X108273613Y-105300774D01*
X108261513Y-105308026D01*
X108248761Y-105314058D01*
X108235478Y-105318810D01*
X108221794Y-105322238D01*
X108207840Y-105324308D01*
X108193750Y-105325000D01*
X107906250Y-105325000D01*
X107892160Y-105324308D01*
X107878206Y-105322238D01*
X107864522Y-105318810D01*
X107851239Y-105314058D01*
X107838487Y-105308026D01*
X107826387Y-105300774D01*
X107815056Y-105292370D01*
X107804603Y-105282897D01*
X107795130Y-105272444D01*
X107786726Y-105261113D01*
X107779474Y-105249013D01*
X107773442Y-105236261D01*
X107768690Y-105222978D01*
X107765262Y-105209294D01*
X107763192Y-105195340D01*
X107762500Y-105181250D01*
X107762500Y-104818750D01*
X107763192Y-104804660D01*
X107765262Y-104790706D01*
X107768690Y-104777022D01*
X107773442Y-104763739D01*
X107779474Y-104750987D01*
X107786726Y-104738887D01*
X107795130Y-104727556D01*
X107804603Y-104717103D01*
X107815056Y-104707630D01*
X107826387Y-104699226D01*
X107838487Y-104691974D01*
X107851239Y-104685942D01*
X107864522Y-104681190D01*
X107878206Y-104677762D01*
X107892160Y-104675692D01*
X107906250Y-104675000D01*
X108193750Y-104675000D01*
X108207840Y-104675692D01*
X108207840Y-104675692D01*
G37*
D11*
X108050000Y-105000000D03*
D10*
G36*
X109107840Y-104675692D02*
X109121794Y-104677762D01*
X109135478Y-104681190D01*
X109148761Y-104685942D01*
X109161513Y-104691974D01*
X109173613Y-104699226D01*
X109184944Y-104707630D01*
X109195397Y-104717103D01*
X109204870Y-104727556D01*
X109213274Y-104738887D01*
X109220526Y-104750987D01*
X109226558Y-104763739D01*
X109231310Y-104777022D01*
X109234738Y-104790706D01*
X109236808Y-104804660D01*
X109237500Y-104818750D01*
X109237500Y-105181250D01*
X109236808Y-105195340D01*
X109234738Y-105209294D01*
X109231310Y-105222978D01*
X109226558Y-105236261D01*
X109220526Y-105249013D01*
X109213274Y-105261113D01*
X109204870Y-105272444D01*
X109195397Y-105282897D01*
X109184944Y-105292370D01*
X109173613Y-105300774D01*
X109161513Y-105308026D01*
X109148761Y-105314058D01*
X109135478Y-105318810D01*
X109121794Y-105322238D01*
X109107840Y-105324308D01*
X109093750Y-105325000D01*
X108806250Y-105325000D01*
X108792160Y-105324308D01*
X108778206Y-105322238D01*
X108764522Y-105318810D01*
X108751239Y-105314058D01*
X108738487Y-105308026D01*
X108726387Y-105300774D01*
X108715056Y-105292370D01*
X108704603Y-105282897D01*
X108695130Y-105272444D01*
X108686726Y-105261113D01*
X108679474Y-105249013D01*
X108673442Y-105236261D01*
X108668690Y-105222978D01*
X108665262Y-105209294D01*
X108663192Y-105195340D01*
X108662500Y-105181250D01*
X108662500Y-104818750D01*
X108663192Y-104804660D01*
X108665262Y-104790706D01*
X108668690Y-104777022D01*
X108673442Y-104763739D01*
X108679474Y-104750987D01*
X108686726Y-104738887D01*
X108695130Y-104727556D01*
X108704603Y-104717103D01*
X108715056Y-104707630D01*
X108726387Y-104699226D01*
X108738487Y-104691974D01*
X108751239Y-104685942D01*
X108764522Y-104681190D01*
X108778206Y-104677762D01*
X108792160Y-104675692D01*
X108806250Y-104675000D01*
X109093750Y-104675000D01*
X109107840Y-104675692D01*
X109107840Y-104675692D01*
G37*
D11*
X108950000Y-105000000D03*
D10*
G36*
X109107840Y-107675692D02*
X109121794Y-107677762D01*
X109135478Y-107681190D01*
X109148761Y-107685942D01*
X109161513Y-107691974D01*
X109173613Y-107699226D01*
X109184944Y-107707630D01*
X109195397Y-107717103D01*
X109204870Y-107727556D01*
X109213274Y-107738887D01*
X109220526Y-107750987D01*
X109226558Y-107763739D01*
X109231310Y-107777022D01*
X109234738Y-107790706D01*
X109236808Y-107804660D01*
X109237500Y-107818750D01*
X109237500Y-108181250D01*
X109236808Y-108195340D01*
X109234738Y-108209294D01*
X109231310Y-108222978D01*
X109226558Y-108236261D01*
X109220526Y-108249013D01*
X109213274Y-108261113D01*
X109204870Y-108272444D01*
X109195397Y-108282897D01*
X109184944Y-108292370D01*
X109173613Y-108300774D01*
X109161513Y-108308026D01*
X109148761Y-108314058D01*
X109135478Y-108318810D01*
X109121794Y-108322238D01*
X109107840Y-108324308D01*
X109093750Y-108325000D01*
X108806250Y-108325000D01*
X108792160Y-108324308D01*
X108778206Y-108322238D01*
X108764522Y-108318810D01*
X108751239Y-108314058D01*
X108738487Y-108308026D01*
X108726387Y-108300774D01*
X108715056Y-108292370D01*
X108704603Y-108282897D01*
X108695130Y-108272444D01*
X108686726Y-108261113D01*
X108679474Y-108249013D01*
X108673442Y-108236261D01*
X108668690Y-108222978D01*
X108665262Y-108209294D01*
X108663192Y-108195340D01*
X108662500Y-108181250D01*
X108662500Y-107818750D01*
X108663192Y-107804660D01*
X108665262Y-107790706D01*
X108668690Y-107777022D01*
X108673442Y-107763739D01*
X108679474Y-107750987D01*
X108686726Y-107738887D01*
X108695130Y-107727556D01*
X108704603Y-107717103D01*
X108715056Y-107707630D01*
X108726387Y-107699226D01*
X108738487Y-107691974D01*
X108751239Y-107685942D01*
X108764522Y-107681190D01*
X108778206Y-107677762D01*
X108792160Y-107675692D01*
X108806250Y-107675000D01*
X109093750Y-107675000D01*
X109107840Y-107675692D01*
X109107840Y-107675692D01*
G37*
D11*
X108950000Y-108000000D03*
D10*
G36*
X108207840Y-107675692D02*
X108221794Y-107677762D01*
X108235478Y-107681190D01*
X108248761Y-107685942D01*
X108261513Y-107691974D01*
X108273613Y-107699226D01*
X108284944Y-107707630D01*
X108295397Y-107717103D01*
X108304870Y-107727556D01*
X108313274Y-107738887D01*
X108320526Y-107750987D01*
X108326558Y-107763739D01*
X108331310Y-107777022D01*
X108334738Y-107790706D01*
X108336808Y-107804660D01*
X108337500Y-107818750D01*
X108337500Y-108181250D01*
X108336808Y-108195340D01*
X108334738Y-108209294D01*
X108331310Y-108222978D01*
X108326558Y-108236261D01*
X108320526Y-108249013D01*
X108313274Y-108261113D01*
X108304870Y-108272444D01*
X108295397Y-108282897D01*
X108284944Y-108292370D01*
X108273613Y-108300774D01*
X108261513Y-108308026D01*
X108248761Y-108314058D01*
X108235478Y-108318810D01*
X108221794Y-108322238D01*
X108207840Y-108324308D01*
X108193750Y-108325000D01*
X107906250Y-108325000D01*
X107892160Y-108324308D01*
X107878206Y-108322238D01*
X107864522Y-108318810D01*
X107851239Y-108314058D01*
X107838487Y-108308026D01*
X107826387Y-108300774D01*
X107815056Y-108292370D01*
X107804603Y-108282897D01*
X107795130Y-108272444D01*
X107786726Y-108261113D01*
X107779474Y-108249013D01*
X107773442Y-108236261D01*
X107768690Y-108222978D01*
X107765262Y-108209294D01*
X107763192Y-108195340D01*
X107762500Y-108181250D01*
X107762500Y-107818750D01*
X107763192Y-107804660D01*
X107765262Y-107790706D01*
X107768690Y-107777022D01*
X107773442Y-107763739D01*
X107779474Y-107750987D01*
X107786726Y-107738887D01*
X107795130Y-107727556D01*
X107804603Y-107717103D01*
X107815056Y-107707630D01*
X107826387Y-107699226D01*
X107838487Y-107691974D01*
X107851239Y-107685942D01*
X107864522Y-107681190D01*
X107878206Y-107677762D01*
X107892160Y-107675692D01*
X107906250Y-107675000D01*
X108193750Y-107675000D01*
X108207840Y-107675692D01*
X108207840Y-107675692D01*
G37*
D11*
X108050000Y-108000000D03*
D10*
G36*
X109107840Y-106675692D02*
X109121794Y-106677762D01*
X109135478Y-106681190D01*
X109148761Y-106685942D01*
X109161513Y-106691974D01*
X109173613Y-106699226D01*
X109184944Y-106707630D01*
X109195397Y-106717103D01*
X109204870Y-106727556D01*
X109213274Y-106738887D01*
X109220526Y-106750987D01*
X109226558Y-106763739D01*
X109231310Y-106777022D01*
X109234738Y-106790706D01*
X109236808Y-106804660D01*
X109237500Y-106818750D01*
X109237500Y-107181250D01*
X109236808Y-107195340D01*
X109234738Y-107209294D01*
X109231310Y-107222978D01*
X109226558Y-107236261D01*
X109220526Y-107249013D01*
X109213274Y-107261113D01*
X109204870Y-107272444D01*
X109195397Y-107282897D01*
X109184944Y-107292370D01*
X109173613Y-107300774D01*
X109161513Y-107308026D01*
X109148761Y-107314058D01*
X109135478Y-107318810D01*
X109121794Y-107322238D01*
X109107840Y-107324308D01*
X109093750Y-107325000D01*
X108806250Y-107325000D01*
X108792160Y-107324308D01*
X108778206Y-107322238D01*
X108764522Y-107318810D01*
X108751239Y-107314058D01*
X108738487Y-107308026D01*
X108726387Y-107300774D01*
X108715056Y-107292370D01*
X108704603Y-107282897D01*
X108695130Y-107272444D01*
X108686726Y-107261113D01*
X108679474Y-107249013D01*
X108673442Y-107236261D01*
X108668690Y-107222978D01*
X108665262Y-107209294D01*
X108663192Y-107195340D01*
X108662500Y-107181250D01*
X108662500Y-106818750D01*
X108663192Y-106804660D01*
X108665262Y-106790706D01*
X108668690Y-106777022D01*
X108673442Y-106763739D01*
X108679474Y-106750987D01*
X108686726Y-106738887D01*
X108695130Y-106727556D01*
X108704603Y-106717103D01*
X108715056Y-106707630D01*
X108726387Y-106699226D01*
X108738487Y-106691974D01*
X108751239Y-106685942D01*
X108764522Y-106681190D01*
X108778206Y-106677762D01*
X108792160Y-106675692D01*
X108806250Y-106675000D01*
X109093750Y-106675000D01*
X109107840Y-106675692D01*
X109107840Y-106675692D01*
G37*
D11*
X108950000Y-107000000D03*
D10*
G36*
X108207840Y-106675692D02*
X108221794Y-106677762D01*
X108235478Y-106681190D01*
X108248761Y-106685942D01*
X108261513Y-106691974D01*
X108273613Y-106699226D01*
X108284944Y-106707630D01*
X108295397Y-106717103D01*
X108304870Y-106727556D01*
X108313274Y-106738887D01*
X108320526Y-106750987D01*
X108326558Y-106763739D01*
X108331310Y-106777022D01*
X108334738Y-106790706D01*
X108336808Y-106804660D01*
X108337500Y-106818750D01*
X108337500Y-107181250D01*
X108336808Y-107195340D01*
X108334738Y-107209294D01*
X108331310Y-107222978D01*
X108326558Y-107236261D01*
X108320526Y-107249013D01*
X108313274Y-107261113D01*
X108304870Y-107272444D01*
X108295397Y-107282897D01*
X108284944Y-107292370D01*
X108273613Y-107300774D01*
X108261513Y-107308026D01*
X108248761Y-107314058D01*
X108235478Y-107318810D01*
X108221794Y-107322238D01*
X108207840Y-107324308D01*
X108193750Y-107325000D01*
X107906250Y-107325000D01*
X107892160Y-107324308D01*
X107878206Y-107322238D01*
X107864522Y-107318810D01*
X107851239Y-107314058D01*
X107838487Y-107308026D01*
X107826387Y-107300774D01*
X107815056Y-107292370D01*
X107804603Y-107282897D01*
X107795130Y-107272444D01*
X107786726Y-107261113D01*
X107779474Y-107249013D01*
X107773442Y-107236261D01*
X107768690Y-107222978D01*
X107765262Y-107209294D01*
X107763192Y-107195340D01*
X107762500Y-107181250D01*
X107762500Y-106818750D01*
X107763192Y-106804660D01*
X107765262Y-106790706D01*
X107768690Y-106777022D01*
X107773442Y-106763739D01*
X107779474Y-106750987D01*
X107786726Y-106738887D01*
X107795130Y-106727556D01*
X107804603Y-106717103D01*
X107815056Y-106707630D01*
X107826387Y-106699226D01*
X107838487Y-106691974D01*
X107851239Y-106685942D01*
X107864522Y-106681190D01*
X107878206Y-106677762D01*
X107892160Y-106675692D01*
X107906250Y-106675000D01*
X108193750Y-106675000D01*
X108207840Y-106675692D01*
X108207840Y-106675692D01*
G37*
D11*
X108050000Y-107000000D03*
D10*
G36*
X109107840Y-100925692D02*
X109121794Y-100927762D01*
X109135478Y-100931190D01*
X109148761Y-100935942D01*
X109161513Y-100941974D01*
X109173613Y-100949226D01*
X109184944Y-100957630D01*
X109195397Y-100967103D01*
X109204870Y-100977556D01*
X109213274Y-100988887D01*
X109220526Y-101000987D01*
X109226558Y-101013739D01*
X109231310Y-101027022D01*
X109234738Y-101040706D01*
X109236808Y-101054660D01*
X109237500Y-101068750D01*
X109237500Y-101431250D01*
X109236808Y-101445340D01*
X109234738Y-101459294D01*
X109231310Y-101472978D01*
X109226558Y-101486261D01*
X109220526Y-101499013D01*
X109213274Y-101511113D01*
X109204870Y-101522444D01*
X109195397Y-101532897D01*
X109184944Y-101542370D01*
X109173613Y-101550774D01*
X109161513Y-101558026D01*
X109148761Y-101564058D01*
X109135478Y-101568810D01*
X109121794Y-101572238D01*
X109107840Y-101574308D01*
X109093750Y-101575000D01*
X108806250Y-101575000D01*
X108792160Y-101574308D01*
X108778206Y-101572238D01*
X108764522Y-101568810D01*
X108751239Y-101564058D01*
X108738487Y-101558026D01*
X108726387Y-101550774D01*
X108715056Y-101542370D01*
X108704603Y-101532897D01*
X108695130Y-101522444D01*
X108686726Y-101511113D01*
X108679474Y-101499013D01*
X108673442Y-101486261D01*
X108668690Y-101472978D01*
X108665262Y-101459294D01*
X108663192Y-101445340D01*
X108662500Y-101431250D01*
X108662500Y-101068750D01*
X108663192Y-101054660D01*
X108665262Y-101040706D01*
X108668690Y-101027022D01*
X108673442Y-101013739D01*
X108679474Y-101000987D01*
X108686726Y-100988887D01*
X108695130Y-100977556D01*
X108704603Y-100967103D01*
X108715056Y-100957630D01*
X108726387Y-100949226D01*
X108738487Y-100941974D01*
X108751239Y-100935942D01*
X108764522Y-100931190D01*
X108778206Y-100927762D01*
X108792160Y-100925692D01*
X108806250Y-100925000D01*
X109093750Y-100925000D01*
X109107840Y-100925692D01*
X109107840Y-100925692D01*
G37*
D11*
X108950000Y-101250000D03*
D10*
G36*
X108207840Y-100925692D02*
X108221794Y-100927762D01*
X108235478Y-100931190D01*
X108248761Y-100935942D01*
X108261513Y-100941974D01*
X108273613Y-100949226D01*
X108284944Y-100957630D01*
X108295397Y-100967103D01*
X108304870Y-100977556D01*
X108313274Y-100988887D01*
X108320526Y-101000987D01*
X108326558Y-101013739D01*
X108331310Y-101027022D01*
X108334738Y-101040706D01*
X108336808Y-101054660D01*
X108337500Y-101068750D01*
X108337500Y-101431250D01*
X108336808Y-101445340D01*
X108334738Y-101459294D01*
X108331310Y-101472978D01*
X108326558Y-101486261D01*
X108320526Y-101499013D01*
X108313274Y-101511113D01*
X108304870Y-101522444D01*
X108295397Y-101532897D01*
X108284944Y-101542370D01*
X108273613Y-101550774D01*
X108261513Y-101558026D01*
X108248761Y-101564058D01*
X108235478Y-101568810D01*
X108221794Y-101572238D01*
X108207840Y-101574308D01*
X108193750Y-101575000D01*
X107906250Y-101575000D01*
X107892160Y-101574308D01*
X107878206Y-101572238D01*
X107864522Y-101568810D01*
X107851239Y-101564058D01*
X107838487Y-101558026D01*
X107826387Y-101550774D01*
X107815056Y-101542370D01*
X107804603Y-101532897D01*
X107795130Y-101522444D01*
X107786726Y-101511113D01*
X107779474Y-101499013D01*
X107773442Y-101486261D01*
X107768690Y-101472978D01*
X107765262Y-101459294D01*
X107763192Y-101445340D01*
X107762500Y-101431250D01*
X107762500Y-101068750D01*
X107763192Y-101054660D01*
X107765262Y-101040706D01*
X107768690Y-101027022D01*
X107773442Y-101013739D01*
X107779474Y-101000987D01*
X107786726Y-100988887D01*
X107795130Y-100977556D01*
X107804603Y-100967103D01*
X107815056Y-100957630D01*
X107826387Y-100949226D01*
X107838487Y-100941974D01*
X107851239Y-100935942D01*
X107864522Y-100931190D01*
X107878206Y-100927762D01*
X107892160Y-100925692D01*
X107906250Y-100925000D01*
X108193750Y-100925000D01*
X108207840Y-100925692D01*
X108207840Y-100925692D01*
G37*
D11*
X108050000Y-101250000D03*
D10*
G36*
X97207840Y-103975692D02*
X97221794Y-103977762D01*
X97235478Y-103981190D01*
X97248761Y-103985942D01*
X97261513Y-103991974D01*
X97273613Y-103999226D01*
X97284944Y-104007630D01*
X97295397Y-104017103D01*
X97304870Y-104027556D01*
X97313274Y-104038887D01*
X97320526Y-104050987D01*
X97326558Y-104063739D01*
X97331310Y-104077022D01*
X97334738Y-104090706D01*
X97336808Y-104104660D01*
X97337500Y-104118750D01*
X97337500Y-104481250D01*
X97336808Y-104495340D01*
X97334738Y-104509294D01*
X97331310Y-104522978D01*
X97326558Y-104536261D01*
X97320526Y-104549013D01*
X97313274Y-104561113D01*
X97304870Y-104572444D01*
X97295397Y-104582897D01*
X97284944Y-104592370D01*
X97273613Y-104600774D01*
X97261513Y-104608026D01*
X97248761Y-104614058D01*
X97235478Y-104618810D01*
X97221794Y-104622238D01*
X97207840Y-104624308D01*
X97193750Y-104625000D01*
X96906250Y-104625000D01*
X96892160Y-104624308D01*
X96878206Y-104622238D01*
X96864522Y-104618810D01*
X96851239Y-104614058D01*
X96838487Y-104608026D01*
X96826387Y-104600774D01*
X96815056Y-104592370D01*
X96804603Y-104582897D01*
X96795130Y-104572444D01*
X96786726Y-104561113D01*
X96779474Y-104549013D01*
X96773442Y-104536261D01*
X96768690Y-104522978D01*
X96765262Y-104509294D01*
X96763192Y-104495340D01*
X96762500Y-104481250D01*
X96762500Y-104118750D01*
X96763192Y-104104660D01*
X96765262Y-104090706D01*
X96768690Y-104077022D01*
X96773442Y-104063739D01*
X96779474Y-104050987D01*
X96786726Y-104038887D01*
X96795130Y-104027556D01*
X96804603Y-104017103D01*
X96815056Y-104007630D01*
X96826387Y-103999226D01*
X96838487Y-103991974D01*
X96851239Y-103985942D01*
X96864522Y-103981190D01*
X96878206Y-103977762D01*
X96892160Y-103975692D01*
X96906250Y-103975000D01*
X97193750Y-103975000D01*
X97207840Y-103975692D01*
X97207840Y-103975692D01*
G37*
D11*
X97050000Y-104300000D03*
D10*
G36*
X98107840Y-103975692D02*
X98121794Y-103977762D01*
X98135478Y-103981190D01*
X98148761Y-103985942D01*
X98161513Y-103991974D01*
X98173613Y-103999226D01*
X98184944Y-104007630D01*
X98195397Y-104017103D01*
X98204870Y-104027556D01*
X98213274Y-104038887D01*
X98220526Y-104050987D01*
X98226558Y-104063739D01*
X98231310Y-104077022D01*
X98234738Y-104090706D01*
X98236808Y-104104660D01*
X98237500Y-104118750D01*
X98237500Y-104481250D01*
X98236808Y-104495340D01*
X98234738Y-104509294D01*
X98231310Y-104522978D01*
X98226558Y-104536261D01*
X98220526Y-104549013D01*
X98213274Y-104561113D01*
X98204870Y-104572444D01*
X98195397Y-104582897D01*
X98184944Y-104592370D01*
X98173613Y-104600774D01*
X98161513Y-104608026D01*
X98148761Y-104614058D01*
X98135478Y-104618810D01*
X98121794Y-104622238D01*
X98107840Y-104624308D01*
X98093750Y-104625000D01*
X97806250Y-104625000D01*
X97792160Y-104624308D01*
X97778206Y-104622238D01*
X97764522Y-104618810D01*
X97751239Y-104614058D01*
X97738487Y-104608026D01*
X97726387Y-104600774D01*
X97715056Y-104592370D01*
X97704603Y-104582897D01*
X97695130Y-104572444D01*
X97686726Y-104561113D01*
X97679474Y-104549013D01*
X97673442Y-104536261D01*
X97668690Y-104522978D01*
X97665262Y-104509294D01*
X97663192Y-104495340D01*
X97662500Y-104481250D01*
X97662500Y-104118750D01*
X97663192Y-104104660D01*
X97665262Y-104090706D01*
X97668690Y-104077022D01*
X97673442Y-104063739D01*
X97679474Y-104050987D01*
X97686726Y-104038887D01*
X97695130Y-104027556D01*
X97704603Y-104017103D01*
X97715056Y-104007630D01*
X97726387Y-103999226D01*
X97738487Y-103991974D01*
X97751239Y-103985942D01*
X97764522Y-103981190D01*
X97778206Y-103977762D01*
X97792160Y-103975692D01*
X97806250Y-103975000D01*
X98093750Y-103975000D01*
X98107840Y-103975692D01*
X98107840Y-103975692D01*
G37*
D11*
X97950000Y-104300000D03*
D10*
G36*
X97207840Y-105875692D02*
X97221794Y-105877762D01*
X97235478Y-105881190D01*
X97248761Y-105885942D01*
X97261513Y-105891974D01*
X97273613Y-105899226D01*
X97284944Y-105907630D01*
X97295397Y-105917103D01*
X97304870Y-105927556D01*
X97313274Y-105938887D01*
X97320526Y-105950987D01*
X97326558Y-105963739D01*
X97331310Y-105977022D01*
X97334738Y-105990706D01*
X97336808Y-106004660D01*
X97337500Y-106018750D01*
X97337500Y-106381250D01*
X97336808Y-106395340D01*
X97334738Y-106409294D01*
X97331310Y-106422978D01*
X97326558Y-106436261D01*
X97320526Y-106449013D01*
X97313274Y-106461113D01*
X97304870Y-106472444D01*
X97295397Y-106482897D01*
X97284944Y-106492370D01*
X97273613Y-106500774D01*
X97261513Y-106508026D01*
X97248761Y-106514058D01*
X97235478Y-106518810D01*
X97221794Y-106522238D01*
X97207840Y-106524308D01*
X97193750Y-106525000D01*
X96906250Y-106525000D01*
X96892160Y-106524308D01*
X96878206Y-106522238D01*
X96864522Y-106518810D01*
X96851239Y-106514058D01*
X96838487Y-106508026D01*
X96826387Y-106500774D01*
X96815056Y-106492370D01*
X96804603Y-106482897D01*
X96795130Y-106472444D01*
X96786726Y-106461113D01*
X96779474Y-106449013D01*
X96773442Y-106436261D01*
X96768690Y-106422978D01*
X96765262Y-106409294D01*
X96763192Y-106395340D01*
X96762500Y-106381250D01*
X96762500Y-106018750D01*
X96763192Y-106004660D01*
X96765262Y-105990706D01*
X96768690Y-105977022D01*
X96773442Y-105963739D01*
X96779474Y-105950987D01*
X96786726Y-105938887D01*
X96795130Y-105927556D01*
X96804603Y-105917103D01*
X96815056Y-105907630D01*
X96826387Y-105899226D01*
X96838487Y-105891974D01*
X96851239Y-105885942D01*
X96864522Y-105881190D01*
X96878206Y-105877762D01*
X96892160Y-105875692D01*
X96906250Y-105875000D01*
X97193750Y-105875000D01*
X97207840Y-105875692D01*
X97207840Y-105875692D01*
G37*
D11*
X97050000Y-106200000D03*
D10*
G36*
X98107840Y-105875692D02*
X98121794Y-105877762D01*
X98135478Y-105881190D01*
X98148761Y-105885942D01*
X98161513Y-105891974D01*
X98173613Y-105899226D01*
X98184944Y-105907630D01*
X98195397Y-105917103D01*
X98204870Y-105927556D01*
X98213274Y-105938887D01*
X98220526Y-105950987D01*
X98226558Y-105963739D01*
X98231310Y-105977022D01*
X98234738Y-105990706D01*
X98236808Y-106004660D01*
X98237500Y-106018750D01*
X98237500Y-106381250D01*
X98236808Y-106395340D01*
X98234738Y-106409294D01*
X98231310Y-106422978D01*
X98226558Y-106436261D01*
X98220526Y-106449013D01*
X98213274Y-106461113D01*
X98204870Y-106472444D01*
X98195397Y-106482897D01*
X98184944Y-106492370D01*
X98173613Y-106500774D01*
X98161513Y-106508026D01*
X98148761Y-106514058D01*
X98135478Y-106518810D01*
X98121794Y-106522238D01*
X98107840Y-106524308D01*
X98093750Y-106525000D01*
X97806250Y-106525000D01*
X97792160Y-106524308D01*
X97778206Y-106522238D01*
X97764522Y-106518810D01*
X97751239Y-106514058D01*
X97738487Y-106508026D01*
X97726387Y-106500774D01*
X97715056Y-106492370D01*
X97704603Y-106482897D01*
X97695130Y-106472444D01*
X97686726Y-106461113D01*
X97679474Y-106449013D01*
X97673442Y-106436261D01*
X97668690Y-106422978D01*
X97665262Y-106409294D01*
X97663192Y-106395340D01*
X97662500Y-106381250D01*
X97662500Y-106018750D01*
X97663192Y-106004660D01*
X97665262Y-105990706D01*
X97668690Y-105977022D01*
X97673442Y-105963739D01*
X97679474Y-105950987D01*
X97686726Y-105938887D01*
X97695130Y-105927556D01*
X97704603Y-105917103D01*
X97715056Y-105907630D01*
X97726387Y-105899226D01*
X97738487Y-105891974D01*
X97751239Y-105885942D01*
X97764522Y-105881190D01*
X97778206Y-105877762D01*
X97792160Y-105875692D01*
X97806250Y-105875000D01*
X98093750Y-105875000D01*
X98107840Y-105875692D01*
X98107840Y-105875692D01*
G37*
D11*
X97950000Y-106200000D03*
D10*
G36*
X98107840Y-100675692D02*
X98121794Y-100677762D01*
X98135478Y-100681190D01*
X98148761Y-100685942D01*
X98161513Y-100691974D01*
X98173613Y-100699226D01*
X98184944Y-100707630D01*
X98195397Y-100717103D01*
X98204870Y-100727556D01*
X98213274Y-100738887D01*
X98220526Y-100750987D01*
X98226558Y-100763739D01*
X98231310Y-100777022D01*
X98234738Y-100790706D01*
X98236808Y-100804660D01*
X98237500Y-100818750D01*
X98237500Y-101181250D01*
X98236808Y-101195340D01*
X98234738Y-101209294D01*
X98231310Y-101222978D01*
X98226558Y-101236261D01*
X98220526Y-101249013D01*
X98213274Y-101261113D01*
X98204870Y-101272444D01*
X98195397Y-101282897D01*
X98184944Y-101292370D01*
X98173613Y-101300774D01*
X98161513Y-101308026D01*
X98148761Y-101314058D01*
X98135478Y-101318810D01*
X98121794Y-101322238D01*
X98107840Y-101324308D01*
X98093750Y-101325000D01*
X97806250Y-101325000D01*
X97792160Y-101324308D01*
X97778206Y-101322238D01*
X97764522Y-101318810D01*
X97751239Y-101314058D01*
X97738487Y-101308026D01*
X97726387Y-101300774D01*
X97715056Y-101292370D01*
X97704603Y-101282897D01*
X97695130Y-101272444D01*
X97686726Y-101261113D01*
X97679474Y-101249013D01*
X97673442Y-101236261D01*
X97668690Y-101222978D01*
X97665262Y-101209294D01*
X97663192Y-101195340D01*
X97662500Y-101181250D01*
X97662500Y-100818750D01*
X97663192Y-100804660D01*
X97665262Y-100790706D01*
X97668690Y-100777022D01*
X97673442Y-100763739D01*
X97679474Y-100750987D01*
X97686726Y-100738887D01*
X97695130Y-100727556D01*
X97704603Y-100717103D01*
X97715056Y-100707630D01*
X97726387Y-100699226D01*
X97738487Y-100691974D01*
X97751239Y-100685942D01*
X97764522Y-100681190D01*
X97778206Y-100677762D01*
X97792160Y-100675692D01*
X97806250Y-100675000D01*
X98093750Y-100675000D01*
X98107840Y-100675692D01*
X98107840Y-100675692D01*
G37*
D11*
X97950000Y-101000000D03*
D10*
G36*
X97207840Y-100675692D02*
X97221794Y-100677762D01*
X97235478Y-100681190D01*
X97248761Y-100685942D01*
X97261513Y-100691974D01*
X97273613Y-100699226D01*
X97284944Y-100707630D01*
X97295397Y-100717103D01*
X97304870Y-100727556D01*
X97313274Y-100738887D01*
X97320526Y-100750987D01*
X97326558Y-100763739D01*
X97331310Y-100777022D01*
X97334738Y-100790706D01*
X97336808Y-100804660D01*
X97337500Y-100818750D01*
X97337500Y-101181250D01*
X97336808Y-101195340D01*
X97334738Y-101209294D01*
X97331310Y-101222978D01*
X97326558Y-101236261D01*
X97320526Y-101249013D01*
X97313274Y-101261113D01*
X97304870Y-101272444D01*
X97295397Y-101282897D01*
X97284944Y-101292370D01*
X97273613Y-101300774D01*
X97261513Y-101308026D01*
X97248761Y-101314058D01*
X97235478Y-101318810D01*
X97221794Y-101322238D01*
X97207840Y-101324308D01*
X97193750Y-101325000D01*
X96906250Y-101325000D01*
X96892160Y-101324308D01*
X96878206Y-101322238D01*
X96864522Y-101318810D01*
X96851239Y-101314058D01*
X96838487Y-101308026D01*
X96826387Y-101300774D01*
X96815056Y-101292370D01*
X96804603Y-101282897D01*
X96795130Y-101272444D01*
X96786726Y-101261113D01*
X96779474Y-101249013D01*
X96773442Y-101236261D01*
X96768690Y-101222978D01*
X96765262Y-101209294D01*
X96763192Y-101195340D01*
X96762500Y-101181250D01*
X96762500Y-100818750D01*
X96763192Y-100804660D01*
X96765262Y-100790706D01*
X96768690Y-100777022D01*
X96773442Y-100763739D01*
X96779474Y-100750987D01*
X96786726Y-100738887D01*
X96795130Y-100727556D01*
X96804603Y-100717103D01*
X96815056Y-100707630D01*
X96826387Y-100699226D01*
X96838487Y-100691974D01*
X96851239Y-100685942D01*
X96864522Y-100681190D01*
X96878206Y-100677762D01*
X96892160Y-100675692D01*
X96906250Y-100675000D01*
X97193750Y-100675000D01*
X97207840Y-100675692D01*
X97207840Y-100675692D01*
G37*
D11*
X97050000Y-101000000D03*
D10*
G36*
X98107840Y-101675692D02*
X98121794Y-101677762D01*
X98135478Y-101681190D01*
X98148761Y-101685942D01*
X98161513Y-101691974D01*
X98173613Y-101699226D01*
X98184944Y-101707630D01*
X98195397Y-101717103D01*
X98204870Y-101727556D01*
X98213274Y-101738887D01*
X98220526Y-101750987D01*
X98226558Y-101763739D01*
X98231310Y-101777022D01*
X98234738Y-101790706D01*
X98236808Y-101804660D01*
X98237500Y-101818750D01*
X98237500Y-102181250D01*
X98236808Y-102195340D01*
X98234738Y-102209294D01*
X98231310Y-102222978D01*
X98226558Y-102236261D01*
X98220526Y-102249013D01*
X98213274Y-102261113D01*
X98204870Y-102272444D01*
X98195397Y-102282897D01*
X98184944Y-102292370D01*
X98173613Y-102300774D01*
X98161513Y-102308026D01*
X98148761Y-102314058D01*
X98135478Y-102318810D01*
X98121794Y-102322238D01*
X98107840Y-102324308D01*
X98093750Y-102325000D01*
X97806250Y-102325000D01*
X97792160Y-102324308D01*
X97778206Y-102322238D01*
X97764522Y-102318810D01*
X97751239Y-102314058D01*
X97738487Y-102308026D01*
X97726387Y-102300774D01*
X97715056Y-102292370D01*
X97704603Y-102282897D01*
X97695130Y-102272444D01*
X97686726Y-102261113D01*
X97679474Y-102249013D01*
X97673442Y-102236261D01*
X97668690Y-102222978D01*
X97665262Y-102209294D01*
X97663192Y-102195340D01*
X97662500Y-102181250D01*
X97662500Y-101818750D01*
X97663192Y-101804660D01*
X97665262Y-101790706D01*
X97668690Y-101777022D01*
X97673442Y-101763739D01*
X97679474Y-101750987D01*
X97686726Y-101738887D01*
X97695130Y-101727556D01*
X97704603Y-101717103D01*
X97715056Y-101707630D01*
X97726387Y-101699226D01*
X97738487Y-101691974D01*
X97751239Y-101685942D01*
X97764522Y-101681190D01*
X97778206Y-101677762D01*
X97792160Y-101675692D01*
X97806250Y-101675000D01*
X98093750Y-101675000D01*
X98107840Y-101675692D01*
X98107840Y-101675692D01*
G37*
D11*
X97950000Y-102000000D03*
D10*
G36*
X97207840Y-101675692D02*
X97221794Y-101677762D01*
X97235478Y-101681190D01*
X97248761Y-101685942D01*
X97261513Y-101691974D01*
X97273613Y-101699226D01*
X97284944Y-101707630D01*
X97295397Y-101717103D01*
X97304870Y-101727556D01*
X97313274Y-101738887D01*
X97320526Y-101750987D01*
X97326558Y-101763739D01*
X97331310Y-101777022D01*
X97334738Y-101790706D01*
X97336808Y-101804660D01*
X97337500Y-101818750D01*
X97337500Y-102181250D01*
X97336808Y-102195340D01*
X97334738Y-102209294D01*
X97331310Y-102222978D01*
X97326558Y-102236261D01*
X97320526Y-102249013D01*
X97313274Y-102261113D01*
X97304870Y-102272444D01*
X97295397Y-102282897D01*
X97284944Y-102292370D01*
X97273613Y-102300774D01*
X97261513Y-102308026D01*
X97248761Y-102314058D01*
X97235478Y-102318810D01*
X97221794Y-102322238D01*
X97207840Y-102324308D01*
X97193750Y-102325000D01*
X96906250Y-102325000D01*
X96892160Y-102324308D01*
X96878206Y-102322238D01*
X96864522Y-102318810D01*
X96851239Y-102314058D01*
X96838487Y-102308026D01*
X96826387Y-102300774D01*
X96815056Y-102292370D01*
X96804603Y-102282897D01*
X96795130Y-102272444D01*
X96786726Y-102261113D01*
X96779474Y-102249013D01*
X96773442Y-102236261D01*
X96768690Y-102222978D01*
X96765262Y-102209294D01*
X96763192Y-102195340D01*
X96762500Y-102181250D01*
X96762500Y-101818750D01*
X96763192Y-101804660D01*
X96765262Y-101790706D01*
X96768690Y-101777022D01*
X96773442Y-101763739D01*
X96779474Y-101750987D01*
X96786726Y-101738887D01*
X96795130Y-101727556D01*
X96804603Y-101717103D01*
X96815056Y-101707630D01*
X96826387Y-101699226D01*
X96838487Y-101691974D01*
X96851239Y-101685942D01*
X96864522Y-101681190D01*
X96878206Y-101677762D01*
X96892160Y-101675692D01*
X96906250Y-101675000D01*
X97193750Y-101675000D01*
X97207840Y-101675692D01*
X97207840Y-101675692D01*
G37*
D11*
X97050000Y-102000000D03*
D10*
G36*
X109107840Y-99925692D02*
X109121794Y-99927762D01*
X109135478Y-99931190D01*
X109148761Y-99935942D01*
X109161513Y-99941974D01*
X109173613Y-99949226D01*
X109184944Y-99957630D01*
X109195397Y-99967103D01*
X109204870Y-99977556D01*
X109213274Y-99988887D01*
X109220526Y-100000987D01*
X109226558Y-100013739D01*
X109231310Y-100027022D01*
X109234738Y-100040706D01*
X109236808Y-100054660D01*
X109237500Y-100068750D01*
X109237500Y-100431250D01*
X109236808Y-100445340D01*
X109234738Y-100459294D01*
X109231310Y-100472978D01*
X109226558Y-100486261D01*
X109220526Y-100499013D01*
X109213274Y-100511113D01*
X109204870Y-100522444D01*
X109195397Y-100532897D01*
X109184944Y-100542370D01*
X109173613Y-100550774D01*
X109161513Y-100558026D01*
X109148761Y-100564058D01*
X109135478Y-100568810D01*
X109121794Y-100572238D01*
X109107840Y-100574308D01*
X109093750Y-100575000D01*
X108806250Y-100575000D01*
X108792160Y-100574308D01*
X108778206Y-100572238D01*
X108764522Y-100568810D01*
X108751239Y-100564058D01*
X108738487Y-100558026D01*
X108726387Y-100550774D01*
X108715056Y-100542370D01*
X108704603Y-100532897D01*
X108695130Y-100522444D01*
X108686726Y-100511113D01*
X108679474Y-100499013D01*
X108673442Y-100486261D01*
X108668690Y-100472978D01*
X108665262Y-100459294D01*
X108663192Y-100445340D01*
X108662500Y-100431250D01*
X108662500Y-100068750D01*
X108663192Y-100054660D01*
X108665262Y-100040706D01*
X108668690Y-100027022D01*
X108673442Y-100013739D01*
X108679474Y-100000987D01*
X108686726Y-99988887D01*
X108695130Y-99977556D01*
X108704603Y-99967103D01*
X108715056Y-99957630D01*
X108726387Y-99949226D01*
X108738487Y-99941974D01*
X108751239Y-99935942D01*
X108764522Y-99931190D01*
X108778206Y-99927762D01*
X108792160Y-99925692D01*
X108806250Y-99925000D01*
X109093750Y-99925000D01*
X109107840Y-99925692D01*
X109107840Y-99925692D01*
G37*
D11*
X108950000Y-100250000D03*
D10*
G36*
X108207840Y-99925692D02*
X108221794Y-99927762D01*
X108235478Y-99931190D01*
X108248761Y-99935942D01*
X108261513Y-99941974D01*
X108273613Y-99949226D01*
X108284944Y-99957630D01*
X108295397Y-99967103D01*
X108304870Y-99977556D01*
X108313274Y-99988887D01*
X108320526Y-100000987D01*
X108326558Y-100013739D01*
X108331310Y-100027022D01*
X108334738Y-100040706D01*
X108336808Y-100054660D01*
X108337500Y-100068750D01*
X108337500Y-100431250D01*
X108336808Y-100445340D01*
X108334738Y-100459294D01*
X108331310Y-100472978D01*
X108326558Y-100486261D01*
X108320526Y-100499013D01*
X108313274Y-100511113D01*
X108304870Y-100522444D01*
X108295397Y-100532897D01*
X108284944Y-100542370D01*
X108273613Y-100550774D01*
X108261513Y-100558026D01*
X108248761Y-100564058D01*
X108235478Y-100568810D01*
X108221794Y-100572238D01*
X108207840Y-100574308D01*
X108193750Y-100575000D01*
X107906250Y-100575000D01*
X107892160Y-100574308D01*
X107878206Y-100572238D01*
X107864522Y-100568810D01*
X107851239Y-100564058D01*
X107838487Y-100558026D01*
X107826387Y-100550774D01*
X107815056Y-100542370D01*
X107804603Y-100532897D01*
X107795130Y-100522444D01*
X107786726Y-100511113D01*
X107779474Y-100499013D01*
X107773442Y-100486261D01*
X107768690Y-100472978D01*
X107765262Y-100459294D01*
X107763192Y-100445340D01*
X107762500Y-100431250D01*
X107762500Y-100068750D01*
X107763192Y-100054660D01*
X107765262Y-100040706D01*
X107768690Y-100027022D01*
X107773442Y-100013739D01*
X107779474Y-100000987D01*
X107786726Y-99988887D01*
X107795130Y-99977556D01*
X107804603Y-99967103D01*
X107815056Y-99957630D01*
X107826387Y-99949226D01*
X107838487Y-99941974D01*
X107851239Y-99935942D01*
X107864522Y-99931190D01*
X107878206Y-99927762D01*
X107892160Y-99925692D01*
X107906250Y-99925000D01*
X108193750Y-99925000D01*
X108207840Y-99925692D01*
X108207840Y-99925692D01*
G37*
D11*
X108050000Y-100250000D03*
D10*
G36*
X95108918Y-99500807D02*
X95125178Y-99503218D01*
X95141123Y-99507212D01*
X95156599Y-99512750D01*
X95171459Y-99519778D01*
X95185558Y-99528229D01*
X95198761Y-99538021D01*
X95210940Y-99549060D01*
X95221979Y-99561239D01*
X95231771Y-99574442D01*
X95240222Y-99588541D01*
X95247250Y-99603401D01*
X95252788Y-99618877D01*
X95256782Y-99634822D01*
X95259193Y-99651082D01*
X95260000Y-99667500D01*
X95260000Y-100332500D01*
X95259193Y-100348918D01*
X95256782Y-100365178D01*
X95252788Y-100381123D01*
X95247250Y-100396599D01*
X95240222Y-100411459D01*
X95231771Y-100425558D01*
X95221979Y-100438761D01*
X95210940Y-100450940D01*
X95198761Y-100461979D01*
X95185558Y-100471771D01*
X95171459Y-100480222D01*
X95156599Y-100487250D01*
X95141123Y-100492788D01*
X95125178Y-100496782D01*
X95108918Y-100499193D01*
X95092500Y-100500000D01*
X94757500Y-100500000D01*
X94741082Y-100499193D01*
X94724822Y-100496782D01*
X94708877Y-100492788D01*
X94693401Y-100487250D01*
X94678541Y-100480222D01*
X94664442Y-100471771D01*
X94651239Y-100461979D01*
X94639060Y-100450940D01*
X94628021Y-100438761D01*
X94618229Y-100425558D01*
X94609778Y-100411459D01*
X94602750Y-100396599D01*
X94597212Y-100381123D01*
X94593218Y-100365178D01*
X94590807Y-100348918D01*
X94590000Y-100332500D01*
X94590000Y-99667500D01*
X94590807Y-99651082D01*
X94593218Y-99634822D01*
X94597212Y-99618877D01*
X94602750Y-99603401D01*
X94609778Y-99588541D01*
X94618229Y-99574442D01*
X94628021Y-99561239D01*
X94639060Y-99549060D01*
X94651239Y-99538021D01*
X94664442Y-99528229D01*
X94678541Y-99519778D01*
X94693401Y-99512750D01*
X94708877Y-99507212D01*
X94724822Y-99503218D01*
X94741082Y-99500807D01*
X94757500Y-99500000D01*
X95092500Y-99500000D01*
X95108918Y-99500807D01*
X95108918Y-99500807D01*
G37*
D17*
X94925000Y-100000000D03*
D10*
G36*
X93508918Y-99500807D02*
X93525178Y-99503218D01*
X93541123Y-99507212D01*
X93556599Y-99512750D01*
X93571459Y-99519778D01*
X93585558Y-99528229D01*
X93598761Y-99538021D01*
X93610940Y-99549060D01*
X93621979Y-99561239D01*
X93631771Y-99574442D01*
X93640222Y-99588541D01*
X93647250Y-99603401D01*
X93652788Y-99618877D01*
X93656782Y-99634822D01*
X93659193Y-99651082D01*
X93660000Y-99667500D01*
X93660000Y-100332500D01*
X93659193Y-100348918D01*
X93656782Y-100365178D01*
X93652788Y-100381123D01*
X93647250Y-100396599D01*
X93640222Y-100411459D01*
X93631771Y-100425558D01*
X93621979Y-100438761D01*
X93610940Y-100450940D01*
X93598761Y-100461979D01*
X93585558Y-100471771D01*
X93571459Y-100480222D01*
X93556599Y-100487250D01*
X93541123Y-100492788D01*
X93525178Y-100496782D01*
X93508918Y-100499193D01*
X93492500Y-100500000D01*
X93157500Y-100500000D01*
X93141082Y-100499193D01*
X93124822Y-100496782D01*
X93108877Y-100492788D01*
X93093401Y-100487250D01*
X93078541Y-100480222D01*
X93064442Y-100471771D01*
X93051239Y-100461979D01*
X93039060Y-100450940D01*
X93028021Y-100438761D01*
X93018229Y-100425558D01*
X93009778Y-100411459D01*
X93002750Y-100396599D01*
X92997212Y-100381123D01*
X92993218Y-100365178D01*
X92990807Y-100348918D01*
X92990000Y-100332500D01*
X92990000Y-99667500D01*
X92990807Y-99651082D01*
X92993218Y-99634822D01*
X92997212Y-99618877D01*
X93002750Y-99603401D01*
X93009778Y-99588541D01*
X93018229Y-99574442D01*
X93028021Y-99561239D01*
X93039060Y-99549060D01*
X93051239Y-99538021D01*
X93064442Y-99528229D01*
X93078541Y-99519778D01*
X93093401Y-99512750D01*
X93108877Y-99507212D01*
X93124822Y-99503218D01*
X93141082Y-99500807D01*
X93157500Y-99500000D01*
X93492500Y-99500000D01*
X93508918Y-99500807D01*
X93508918Y-99500807D01*
G37*
D17*
X93325000Y-100000000D03*
D10*
G36*
X95255878Y-103500903D02*
X95274079Y-103503603D01*
X95291928Y-103508074D01*
X95309253Y-103514273D01*
X95325887Y-103522140D01*
X95341669Y-103531599D01*
X95356449Y-103542561D01*
X95370083Y-103554917D01*
X95382439Y-103568551D01*
X95393401Y-103583331D01*
X95402860Y-103599113D01*
X95410727Y-103615747D01*
X95416926Y-103633072D01*
X95421397Y-103650921D01*
X95424097Y-103669122D01*
X95425000Y-103687500D01*
X95425000Y-104312500D01*
X95424097Y-104330878D01*
X95421397Y-104349079D01*
X95416926Y-104366928D01*
X95410727Y-104384253D01*
X95402860Y-104400887D01*
X95393401Y-104416669D01*
X95382439Y-104431449D01*
X95370083Y-104445083D01*
X95356449Y-104457439D01*
X95341669Y-104468401D01*
X95325887Y-104477860D01*
X95309253Y-104485727D01*
X95291928Y-104491926D01*
X95274079Y-104496397D01*
X95255878Y-104499097D01*
X95237500Y-104500000D01*
X94862500Y-104500000D01*
X94844122Y-104499097D01*
X94825921Y-104496397D01*
X94808072Y-104491926D01*
X94790747Y-104485727D01*
X94774113Y-104477860D01*
X94758331Y-104468401D01*
X94743551Y-104457439D01*
X94729917Y-104445083D01*
X94717561Y-104431449D01*
X94706599Y-104416669D01*
X94697140Y-104400887D01*
X94689273Y-104384253D01*
X94683074Y-104366928D01*
X94678603Y-104349079D01*
X94675903Y-104330878D01*
X94675000Y-104312500D01*
X94675000Y-103687500D01*
X94675903Y-103669122D01*
X94678603Y-103650921D01*
X94683074Y-103633072D01*
X94689273Y-103615747D01*
X94697140Y-103599113D01*
X94706599Y-103583331D01*
X94717561Y-103568551D01*
X94729917Y-103554917D01*
X94743551Y-103542561D01*
X94758331Y-103531599D01*
X94774113Y-103522140D01*
X94790747Y-103514273D01*
X94808072Y-103508074D01*
X94825921Y-103503603D01*
X94844122Y-103500903D01*
X94862500Y-103500000D01*
X95237500Y-103500000D01*
X95255878Y-103500903D01*
X95255878Y-103500903D01*
G37*
D12*
X95050000Y-104000000D03*
D10*
G36*
X93655878Y-103500903D02*
X93674079Y-103503603D01*
X93691928Y-103508074D01*
X93709253Y-103514273D01*
X93725887Y-103522140D01*
X93741669Y-103531599D01*
X93756449Y-103542561D01*
X93770083Y-103554917D01*
X93782439Y-103568551D01*
X93793401Y-103583331D01*
X93802860Y-103599113D01*
X93810727Y-103615747D01*
X93816926Y-103633072D01*
X93821397Y-103650921D01*
X93824097Y-103669122D01*
X93825000Y-103687500D01*
X93825000Y-104312500D01*
X93824097Y-104330878D01*
X93821397Y-104349079D01*
X93816926Y-104366928D01*
X93810727Y-104384253D01*
X93802860Y-104400887D01*
X93793401Y-104416669D01*
X93782439Y-104431449D01*
X93770083Y-104445083D01*
X93756449Y-104457439D01*
X93741669Y-104468401D01*
X93725887Y-104477860D01*
X93709253Y-104485727D01*
X93691928Y-104491926D01*
X93674079Y-104496397D01*
X93655878Y-104499097D01*
X93637500Y-104500000D01*
X93262500Y-104500000D01*
X93244122Y-104499097D01*
X93225921Y-104496397D01*
X93208072Y-104491926D01*
X93190747Y-104485727D01*
X93174113Y-104477860D01*
X93158331Y-104468401D01*
X93143551Y-104457439D01*
X93129917Y-104445083D01*
X93117561Y-104431449D01*
X93106599Y-104416669D01*
X93097140Y-104400887D01*
X93089273Y-104384253D01*
X93083074Y-104366928D01*
X93078603Y-104349079D01*
X93075903Y-104330878D01*
X93075000Y-104312500D01*
X93075000Y-103687500D01*
X93075903Y-103669122D01*
X93078603Y-103650921D01*
X93083074Y-103633072D01*
X93089273Y-103615747D01*
X93097140Y-103599113D01*
X93106599Y-103583331D01*
X93117561Y-103568551D01*
X93129917Y-103554917D01*
X93143551Y-103542561D01*
X93158331Y-103531599D01*
X93174113Y-103522140D01*
X93190747Y-103514273D01*
X93208072Y-103508074D01*
X93225921Y-103503603D01*
X93244122Y-103500903D01*
X93262500Y-103500000D01*
X93637500Y-103500000D01*
X93655878Y-103500903D01*
X93655878Y-103500903D01*
G37*
D12*
X93450000Y-104000000D03*
D10*
G36*
X93655878Y-108900903D02*
X93674079Y-108903603D01*
X93691928Y-108908074D01*
X93709253Y-108914273D01*
X93725887Y-108922140D01*
X93741669Y-108931599D01*
X93756449Y-108942561D01*
X93770083Y-108954917D01*
X93782439Y-108968551D01*
X93793401Y-108983331D01*
X93802860Y-108999113D01*
X93810727Y-109015747D01*
X93816926Y-109033072D01*
X93821397Y-109050921D01*
X93824097Y-109069122D01*
X93825000Y-109087500D01*
X93825000Y-109712500D01*
X93824097Y-109730878D01*
X93821397Y-109749079D01*
X93816926Y-109766928D01*
X93810727Y-109784253D01*
X93802860Y-109800887D01*
X93793401Y-109816669D01*
X93782439Y-109831449D01*
X93770083Y-109845083D01*
X93756449Y-109857439D01*
X93741669Y-109868401D01*
X93725887Y-109877860D01*
X93709253Y-109885727D01*
X93691928Y-109891926D01*
X93674079Y-109896397D01*
X93655878Y-109899097D01*
X93637500Y-109900000D01*
X93262500Y-109900000D01*
X93244122Y-109899097D01*
X93225921Y-109896397D01*
X93208072Y-109891926D01*
X93190747Y-109885727D01*
X93174113Y-109877860D01*
X93158331Y-109868401D01*
X93143551Y-109857439D01*
X93129917Y-109845083D01*
X93117561Y-109831449D01*
X93106599Y-109816669D01*
X93097140Y-109800887D01*
X93089273Y-109784253D01*
X93083074Y-109766928D01*
X93078603Y-109749079D01*
X93075903Y-109730878D01*
X93075000Y-109712500D01*
X93075000Y-109087500D01*
X93075903Y-109069122D01*
X93078603Y-109050921D01*
X93083074Y-109033072D01*
X93089273Y-109015747D01*
X93097140Y-108999113D01*
X93106599Y-108983331D01*
X93117561Y-108968551D01*
X93129917Y-108954917D01*
X93143551Y-108942561D01*
X93158331Y-108931599D01*
X93174113Y-108922140D01*
X93190747Y-108914273D01*
X93208072Y-108908074D01*
X93225921Y-108903603D01*
X93244122Y-108900903D01*
X93262500Y-108900000D01*
X93637500Y-108900000D01*
X93655878Y-108900903D01*
X93655878Y-108900903D01*
G37*
D12*
X93450000Y-109400000D03*
D10*
G36*
X95255878Y-108900903D02*
X95274079Y-108903603D01*
X95291928Y-108908074D01*
X95309253Y-108914273D01*
X95325887Y-108922140D01*
X95341669Y-108931599D01*
X95356449Y-108942561D01*
X95370083Y-108954917D01*
X95382439Y-108968551D01*
X95393401Y-108983331D01*
X95402860Y-108999113D01*
X95410727Y-109015747D01*
X95416926Y-109033072D01*
X95421397Y-109050921D01*
X95424097Y-109069122D01*
X95425000Y-109087500D01*
X95425000Y-109712500D01*
X95424097Y-109730878D01*
X95421397Y-109749079D01*
X95416926Y-109766928D01*
X95410727Y-109784253D01*
X95402860Y-109800887D01*
X95393401Y-109816669D01*
X95382439Y-109831449D01*
X95370083Y-109845083D01*
X95356449Y-109857439D01*
X95341669Y-109868401D01*
X95325887Y-109877860D01*
X95309253Y-109885727D01*
X95291928Y-109891926D01*
X95274079Y-109896397D01*
X95255878Y-109899097D01*
X95237500Y-109900000D01*
X94862500Y-109900000D01*
X94844122Y-109899097D01*
X94825921Y-109896397D01*
X94808072Y-109891926D01*
X94790747Y-109885727D01*
X94774113Y-109877860D01*
X94758331Y-109868401D01*
X94743551Y-109857439D01*
X94729917Y-109845083D01*
X94717561Y-109831449D01*
X94706599Y-109816669D01*
X94697140Y-109800887D01*
X94689273Y-109784253D01*
X94683074Y-109766928D01*
X94678603Y-109749079D01*
X94675903Y-109730878D01*
X94675000Y-109712500D01*
X94675000Y-109087500D01*
X94675903Y-109069122D01*
X94678603Y-109050921D01*
X94683074Y-109033072D01*
X94689273Y-109015747D01*
X94697140Y-108999113D01*
X94706599Y-108983331D01*
X94717561Y-108968551D01*
X94729917Y-108954917D01*
X94743551Y-108942561D01*
X94758331Y-108931599D01*
X94774113Y-108922140D01*
X94790747Y-108914273D01*
X94808072Y-108908074D01*
X94825921Y-108903603D01*
X94844122Y-108900903D01*
X94862500Y-108900000D01*
X95237500Y-108900000D01*
X95255878Y-108900903D01*
X95255878Y-108900903D01*
G37*
D12*
X95050000Y-109400000D03*
D10*
G36*
X104445340Y-111463192D02*
X104459294Y-111465262D01*
X104472978Y-111468690D01*
X104486261Y-111473442D01*
X104499013Y-111479474D01*
X104511113Y-111486726D01*
X104522444Y-111495130D01*
X104532897Y-111504603D01*
X104542370Y-111515056D01*
X104550774Y-111526387D01*
X104558026Y-111538487D01*
X104564058Y-111551239D01*
X104568810Y-111564522D01*
X104572238Y-111578206D01*
X104574308Y-111592160D01*
X104575000Y-111606250D01*
X104575000Y-111893750D01*
X104574308Y-111907840D01*
X104572238Y-111921794D01*
X104568810Y-111935478D01*
X104564058Y-111948761D01*
X104558026Y-111961513D01*
X104550774Y-111973613D01*
X104542370Y-111984944D01*
X104532897Y-111995397D01*
X104522444Y-112004870D01*
X104511113Y-112013274D01*
X104499013Y-112020526D01*
X104486261Y-112026558D01*
X104472978Y-112031310D01*
X104459294Y-112034738D01*
X104445340Y-112036808D01*
X104431250Y-112037500D01*
X104068750Y-112037500D01*
X104054660Y-112036808D01*
X104040706Y-112034738D01*
X104027022Y-112031310D01*
X104013739Y-112026558D01*
X104000987Y-112020526D01*
X103988887Y-112013274D01*
X103977556Y-112004870D01*
X103967103Y-111995397D01*
X103957630Y-111984944D01*
X103949226Y-111973613D01*
X103941974Y-111961513D01*
X103935942Y-111948761D01*
X103931190Y-111935478D01*
X103927762Y-111921794D01*
X103925692Y-111907840D01*
X103925000Y-111893750D01*
X103925000Y-111606250D01*
X103925692Y-111592160D01*
X103927762Y-111578206D01*
X103931190Y-111564522D01*
X103935942Y-111551239D01*
X103941974Y-111538487D01*
X103949226Y-111526387D01*
X103957630Y-111515056D01*
X103967103Y-111504603D01*
X103977556Y-111495130D01*
X103988887Y-111486726D01*
X104000987Y-111479474D01*
X104013739Y-111473442D01*
X104027022Y-111468690D01*
X104040706Y-111465262D01*
X104054660Y-111463192D01*
X104068750Y-111462500D01*
X104431250Y-111462500D01*
X104445340Y-111463192D01*
X104445340Y-111463192D01*
G37*
D11*
X104250000Y-111750000D03*
D10*
G36*
X104445340Y-110563192D02*
X104459294Y-110565262D01*
X104472978Y-110568690D01*
X104486261Y-110573442D01*
X104499013Y-110579474D01*
X104511113Y-110586726D01*
X104522444Y-110595130D01*
X104532897Y-110604603D01*
X104542370Y-110615056D01*
X104550774Y-110626387D01*
X104558026Y-110638487D01*
X104564058Y-110651239D01*
X104568810Y-110664522D01*
X104572238Y-110678206D01*
X104574308Y-110692160D01*
X104575000Y-110706250D01*
X104575000Y-110993750D01*
X104574308Y-111007840D01*
X104572238Y-111021794D01*
X104568810Y-111035478D01*
X104564058Y-111048761D01*
X104558026Y-111061513D01*
X104550774Y-111073613D01*
X104542370Y-111084944D01*
X104532897Y-111095397D01*
X104522444Y-111104870D01*
X104511113Y-111113274D01*
X104499013Y-111120526D01*
X104486261Y-111126558D01*
X104472978Y-111131310D01*
X104459294Y-111134738D01*
X104445340Y-111136808D01*
X104431250Y-111137500D01*
X104068750Y-111137500D01*
X104054660Y-111136808D01*
X104040706Y-111134738D01*
X104027022Y-111131310D01*
X104013739Y-111126558D01*
X104000987Y-111120526D01*
X103988887Y-111113274D01*
X103977556Y-111104870D01*
X103967103Y-111095397D01*
X103957630Y-111084944D01*
X103949226Y-111073613D01*
X103941974Y-111061513D01*
X103935942Y-111048761D01*
X103931190Y-111035478D01*
X103927762Y-111021794D01*
X103925692Y-111007840D01*
X103925000Y-110993750D01*
X103925000Y-110706250D01*
X103925692Y-110692160D01*
X103927762Y-110678206D01*
X103931190Y-110664522D01*
X103935942Y-110651239D01*
X103941974Y-110638487D01*
X103949226Y-110626387D01*
X103957630Y-110615056D01*
X103967103Y-110604603D01*
X103977556Y-110595130D01*
X103988887Y-110586726D01*
X104000987Y-110579474D01*
X104013739Y-110573442D01*
X104027022Y-110568690D01*
X104040706Y-110565262D01*
X104054660Y-110563192D01*
X104068750Y-110562500D01*
X104431250Y-110562500D01*
X104445340Y-110563192D01*
X104445340Y-110563192D01*
G37*
D11*
X104250000Y-110850000D03*
D10*
G36*
X109107840Y-103025692D02*
X109121794Y-103027762D01*
X109135478Y-103031190D01*
X109148761Y-103035942D01*
X109161513Y-103041974D01*
X109173613Y-103049226D01*
X109184944Y-103057630D01*
X109195397Y-103067103D01*
X109204870Y-103077556D01*
X109213274Y-103088887D01*
X109220526Y-103100987D01*
X109226558Y-103113739D01*
X109231310Y-103127022D01*
X109234738Y-103140706D01*
X109236808Y-103154660D01*
X109237500Y-103168750D01*
X109237500Y-103531250D01*
X109236808Y-103545340D01*
X109234738Y-103559294D01*
X109231310Y-103572978D01*
X109226558Y-103586261D01*
X109220526Y-103599013D01*
X109213274Y-103611113D01*
X109204870Y-103622444D01*
X109195397Y-103632897D01*
X109184944Y-103642370D01*
X109173613Y-103650774D01*
X109161513Y-103658026D01*
X109148761Y-103664058D01*
X109135478Y-103668810D01*
X109121794Y-103672238D01*
X109107840Y-103674308D01*
X109093750Y-103675000D01*
X108806250Y-103675000D01*
X108792160Y-103674308D01*
X108778206Y-103672238D01*
X108764522Y-103668810D01*
X108751239Y-103664058D01*
X108738487Y-103658026D01*
X108726387Y-103650774D01*
X108715056Y-103642370D01*
X108704603Y-103632897D01*
X108695130Y-103622444D01*
X108686726Y-103611113D01*
X108679474Y-103599013D01*
X108673442Y-103586261D01*
X108668690Y-103572978D01*
X108665262Y-103559294D01*
X108663192Y-103545340D01*
X108662500Y-103531250D01*
X108662500Y-103168750D01*
X108663192Y-103154660D01*
X108665262Y-103140706D01*
X108668690Y-103127022D01*
X108673442Y-103113739D01*
X108679474Y-103100987D01*
X108686726Y-103088887D01*
X108695130Y-103077556D01*
X108704603Y-103067103D01*
X108715056Y-103057630D01*
X108726387Y-103049226D01*
X108738487Y-103041974D01*
X108751239Y-103035942D01*
X108764522Y-103031190D01*
X108778206Y-103027762D01*
X108792160Y-103025692D01*
X108806250Y-103025000D01*
X109093750Y-103025000D01*
X109107840Y-103025692D01*
X109107840Y-103025692D01*
G37*
D11*
X108950000Y-103350000D03*
D10*
G36*
X108207840Y-103025692D02*
X108221794Y-103027762D01*
X108235478Y-103031190D01*
X108248761Y-103035942D01*
X108261513Y-103041974D01*
X108273613Y-103049226D01*
X108284944Y-103057630D01*
X108295397Y-103067103D01*
X108304870Y-103077556D01*
X108313274Y-103088887D01*
X108320526Y-103100987D01*
X108326558Y-103113739D01*
X108331310Y-103127022D01*
X108334738Y-103140706D01*
X108336808Y-103154660D01*
X108337500Y-103168750D01*
X108337500Y-103531250D01*
X108336808Y-103545340D01*
X108334738Y-103559294D01*
X108331310Y-103572978D01*
X108326558Y-103586261D01*
X108320526Y-103599013D01*
X108313274Y-103611113D01*
X108304870Y-103622444D01*
X108295397Y-103632897D01*
X108284944Y-103642370D01*
X108273613Y-103650774D01*
X108261513Y-103658026D01*
X108248761Y-103664058D01*
X108235478Y-103668810D01*
X108221794Y-103672238D01*
X108207840Y-103674308D01*
X108193750Y-103675000D01*
X107906250Y-103675000D01*
X107892160Y-103674308D01*
X107878206Y-103672238D01*
X107864522Y-103668810D01*
X107851239Y-103664058D01*
X107838487Y-103658026D01*
X107826387Y-103650774D01*
X107815056Y-103642370D01*
X107804603Y-103632897D01*
X107795130Y-103622444D01*
X107786726Y-103611113D01*
X107779474Y-103599013D01*
X107773442Y-103586261D01*
X107768690Y-103572978D01*
X107765262Y-103559294D01*
X107763192Y-103545340D01*
X107762500Y-103531250D01*
X107762500Y-103168750D01*
X107763192Y-103154660D01*
X107765262Y-103140706D01*
X107768690Y-103127022D01*
X107773442Y-103113739D01*
X107779474Y-103100987D01*
X107786726Y-103088887D01*
X107795130Y-103077556D01*
X107804603Y-103067103D01*
X107815056Y-103057630D01*
X107826387Y-103049226D01*
X107838487Y-103041974D01*
X107851239Y-103035942D01*
X107864522Y-103031190D01*
X107878206Y-103027762D01*
X107892160Y-103025692D01*
X107906250Y-103025000D01*
X108193750Y-103025000D01*
X108207840Y-103025692D01*
X108207840Y-103025692D01*
G37*
D11*
X108050000Y-103350000D03*
D10*
G36*
X97220340Y-107925692D02*
X97234294Y-107927762D01*
X97247978Y-107931190D01*
X97261261Y-107935942D01*
X97274013Y-107941974D01*
X97286113Y-107949226D01*
X97297444Y-107957630D01*
X97307897Y-107967103D01*
X97317370Y-107977556D01*
X97325774Y-107988887D01*
X97333026Y-108000987D01*
X97339058Y-108013739D01*
X97343810Y-108027022D01*
X97347238Y-108040706D01*
X97349308Y-108054660D01*
X97350000Y-108068750D01*
X97350000Y-108431250D01*
X97349308Y-108445340D01*
X97347238Y-108459294D01*
X97343810Y-108472978D01*
X97339058Y-108486261D01*
X97333026Y-108499013D01*
X97325774Y-108511113D01*
X97317370Y-108522444D01*
X97307897Y-108532897D01*
X97297444Y-108542370D01*
X97286113Y-108550774D01*
X97274013Y-108558026D01*
X97261261Y-108564058D01*
X97247978Y-108568810D01*
X97234294Y-108572238D01*
X97220340Y-108574308D01*
X97206250Y-108575000D01*
X96918750Y-108575000D01*
X96904660Y-108574308D01*
X96890706Y-108572238D01*
X96877022Y-108568810D01*
X96863739Y-108564058D01*
X96850987Y-108558026D01*
X96838887Y-108550774D01*
X96827556Y-108542370D01*
X96817103Y-108532897D01*
X96807630Y-108522444D01*
X96799226Y-108511113D01*
X96791974Y-108499013D01*
X96785942Y-108486261D01*
X96781190Y-108472978D01*
X96777762Y-108459294D01*
X96775692Y-108445340D01*
X96775000Y-108431250D01*
X96775000Y-108068750D01*
X96775692Y-108054660D01*
X96777762Y-108040706D01*
X96781190Y-108027022D01*
X96785942Y-108013739D01*
X96791974Y-108000987D01*
X96799226Y-107988887D01*
X96807630Y-107977556D01*
X96817103Y-107967103D01*
X96827556Y-107957630D01*
X96838887Y-107949226D01*
X96850987Y-107941974D01*
X96863739Y-107935942D01*
X96877022Y-107931190D01*
X96890706Y-107927762D01*
X96904660Y-107925692D01*
X96918750Y-107925000D01*
X97206250Y-107925000D01*
X97220340Y-107925692D01*
X97220340Y-107925692D01*
G37*
D11*
X97062500Y-108250000D03*
D10*
G36*
X98120340Y-107925692D02*
X98134294Y-107927762D01*
X98147978Y-107931190D01*
X98161261Y-107935942D01*
X98174013Y-107941974D01*
X98186113Y-107949226D01*
X98197444Y-107957630D01*
X98207897Y-107967103D01*
X98217370Y-107977556D01*
X98225774Y-107988887D01*
X98233026Y-108000987D01*
X98239058Y-108013739D01*
X98243810Y-108027022D01*
X98247238Y-108040706D01*
X98249308Y-108054660D01*
X98250000Y-108068750D01*
X98250000Y-108431250D01*
X98249308Y-108445340D01*
X98247238Y-108459294D01*
X98243810Y-108472978D01*
X98239058Y-108486261D01*
X98233026Y-108499013D01*
X98225774Y-108511113D01*
X98217370Y-108522444D01*
X98207897Y-108532897D01*
X98197444Y-108542370D01*
X98186113Y-108550774D01*
X98174013Y-108558026D01*
X98161261Y-108564058D01*
X98147978Y-108568810D01*
X98134294Y-108572238D01*
X98120340Y-108574308D01*
X98106250Y-108575000D01*
X97818750Y-108575000D01*
X97804660Y-108574308D01*
X97790706Y-108572238D01*
X97777022Y-108568810D01*
X97763739Y-108564058D01*
X97750987Y-108558026D01*
X97738887Y-108550774D01*
X97727556Y-108542370D01*
X97717103Y-108532897D01*
X97707630Y-108522444D01*
X97699226Y-108511113D01*
X97691974Y-108499013D01*
X97685942Y-108486261D01*
X97681190Y-108472978D01*
X97677762Y-108459294D01*
X97675692Y-108445340D01*
X97675000Y-108431250D01*
X97675000Y-108068750D01*
X97675692Y-108054660D01*
X97677762Y-108040706D01*
X97681190Y-108027022D01*
X97685942Y-108013739D01*
X97691974Y-108000987D01*
X97699226Y-107988887D01*
X97707630Y-107977556D01*
X97717103Y-107967103D01*
X97727556Y-107957630D01*
X97738887Y-107949226D01*
X97750987Y-107941974D01*
X97763739Y-107935942D01*
X97777022Y-107931190D01*
X97790706Y-107927762D01*
X97804660Y-107925692D01*
X97818750Y-107925000D01*
X98106250Y-107925000D01*
X98120340Y-107925692D01*
X98120340Y-107925692D01*
G37*
D11*
X97962500Y-108250000D03*
D10*
G36*
X97207840Y-102975692D02*
X97221794Y-102977762D01*
X97235478Y-102981190D01*
X97248761Y-102985942D01*
X97261513Y-102991974D01*
X97273613Y-102999226D01*
X97284944Y-103007630D01*
X97295397Y-103017103D01*
X97304870Y-103027556D01*
X97313274Y-103038887D01*
X97320526Y-103050987D01*
X97326558Y-103063739D01*
X97331310Y-103077022D01*
X97334738Y-103090706D01*
X97336808Y-103104660D01*
X97337500Y-103118750D01*
X97337500Y-103481250D01*
X97336808Y-103495340D01*
X97334738Y-103509294D01*
X97331310Y-103522978D01*
X97326558Y-103536261D01*
X97320526Y-103549013D01*
X97313274Y-103561113D01*
X97304870Y-103572444D01*
X97295397Y-103582897D01*
X97284944Y-103592370D01*
X97273613Y-103600774D01*
X97261513Y-103608026D01*
X97248761Y-103614058D01*
X97235478Y-103618810D01*
X97221794Y-103622238D01*
X97207840Y-103624308D01*
X97193750Y-103625000D01*
X96906250Y-103625000D01*
X96892160Y-103624308D01*
X96878206Y-103622238D01*
X96864522Y-103618810D01*
X96851239Y-103614058D01*
X96838487Y-103608026D01*
X96826387Y-103600774D01*
X96815056Y-103592370D01*
X96804603Y-103582897D01*
X96795130Y-103572444D01*
X96786726Y-103561113D01*
X96779474Y-103549013D01*
X96773442Y-103536261D01*
X96768690Y-103522978D01*
X96765262Y-103509294D01*
X96763192Y-103495340D01*
X96762500Y-103481250D01*
X96762500Y-103118750D01*
X96763192Y-103104660D01*
X96765262Y-103090706D01*
X96768690Y-103077022D01*
X96773442Y-103063739D01*
X96779474Y-103050987D01*
X96786726Y-103038887D01*
X96795130Y-103027556D01*
X96804603Y-103017103D01*
X96815056Y-103007630D01*
X96826387Y-102999226D01*
X96838487Y-102991974D01*
X96851239Y-102985942D01*
X96864522Y-102981190D01*
X96878206Y-102977762D01*
X96892160Y-102975692D01*
X96906250Y-102975000D01*
X97193750Y-102975000D01*
X97207840Y-102975692D01*
X97207840Y-102975692D01*
G37*
D11*
X97050000Y-103300000D03*
D10*
G36*
X98107840Y-102975692D02*
X98121794Y-102977762D01*
X98135478Y-102981190D01*
X98148761Y-102985942D01*
X98161513Y-102991974D01*
X98173613Y-102999226D01*
X98184944Y-103007630D01*
X98195397Y-103017103D01*
X98204870Y-103027556D01*
X98213274Y-103038887D01*
X98220526Y-103050987D01*
X98226558Y-103063739D01*
X98231310Y-103077022D01*
X98234738Y-103090706D01*
X98236808Y-103104660D01*
X98237500Y-103118750D01*
X98237500Y-103481250D01*
X98236808Y-103495340D01*
X98234738Y-103509294D01*
X98231310Y-103522978D01*
X98226558Y-103536261D01*
X98220526Y-103549013D01*
X98213274Y-103561113D01*
X98204870Y-103572444D01*
X98195397Y-103582897D01*
X98184944Y-103592370D01*
X98173613Y-103600774D01*
X98161513Y-103608026D01*
X98148761Y-103614058D01*
X98135478Y-103618810D01*
X98121794Y-103622238D01*
X98107840Y-103624308D01*
X98093750Y-103625000D01*
X97806250Y-103625000D01*
X97792160Y-103624308D01*
X97778206Y-103622238D01*
X97764522Y-103618810D01*
X97751239Y-103614058D01*
X97738487Y-103608026D01*
X97726387Y-103600774D01*
X97715056Y-103592370D01*
X97704603Y-103582897D01*
X97695130Y-103572444D01*
X97686726Y-103561113D01*
X97679474Y-103549013D01*
X97673442Y-103536261D01*
X97668690Y-103522978D01*
X97665262Y-103509294D01*
X97663192Y-103495340D01*
X97662500Y-103481250D01*
X97662500Y-103118750D01*
X97663192Y-103104660D01*
X97665262Y-103090706D01*
X97668690Y-103077022D01*
X97673442Y-103063739D01*
X97679474Y-103050987D01*
X97686726Y-103038887D01*
X97695130Y-103027556D01*
X97704603Y-103017103D01*
X97715056Y-103007630D01*
X97726387Y-102999226D01*
X97738487Y-102991974D01*
X97751239Y-102985942D01*
X97764522Y-102981190D01*
X97778206Y-102977762D01*
X97792160Y-102975692D01*
X97806250Y-102975000D01*
X98093750Y-102975000D01*
X98107840Y-102975692D01*
X98107840Y-102975692D01*
G37*
D11*
X97950000Y-103300000D03*
D18*
X102750000Y-111300000D03*
X101550000Y-111300000D03*
X100350000Y-111300000D03*
M02*
