G04 #@! TF.GenerationSoftware,KiCad,Pcbnew,no-vcs-found-d3998a2~61~ubuntu16.04.1*
G04 #@! TF.CreationDate,2018-02-12T21:35:37+01:00*
G04 #@! TF.ProjectId,ubmp_v1r1,75626D705F763172312E6B696361645F,rev?*
G04 #@! TF.SameCoordinates,Original*
G04 #@! TF.FileFunction,Legend,Top*
G04 #@! TF.FilePolarity,Positive*
%FSLAX46Y46*%
G04 Gerber Fmt 4.6, Leading zero omitted, Abs format (unit mm)*
G04 Created by KiCad (PCBNEW no-vcs-found-d3998a2~61~ubuntu16.04.1) date Mon Feb 12 21:35:37 2018*
%MOMM*%
%LPD*%
G01*
G04 APERTURE LIST*
%ADD10C,0.300000*%
%ADD11C,0.500000*%
%ADD12C,0.250000*%
%ADD13C,0.150000*%
%ADD14C,0.120000*%
%ADD15O,0.560000X2.060000*%
%ADD16C,0.100000*%
%ADD17C,1.760000*%
%ADD18C,0.735000*%
%ADD19C,0.830000*%
%ADD20O,0.410000X0.860000*%
%ADD21O,0.860000X0.410000*%
%ADD22C,5.310000*%
%ADD23C,0.810000*%
G04 APERTURE END LIST*
D10*
X112528571Y-101607142D02*
X112742857Y-101678571D01*
X113100000Y-101678571D01*
X113242857Y-101607142D01*
X113314285Y-101535714D01*
X113385714Y-101392857D01*
X113385714Y-101250000D01*
X113314285Y-101107142D01*
X113242857Y-101035714D01*
X113100000Y-100964285D01*
X112814285Y-100892857D01*
X112671428Y-100821428D01*
X112600000Y-100750000D01*
X112528571Y-100607142D01*
X112528571Y-100464285D01*
X112600000Y-100321428D01*
X112671428Y-100250000D01*
X112814285Y-100178571D01*
X113171428Y-100178571D01*
X113385714Y-100250000D01*
X114028571Y-101678571D02*
X114028571Y-100178571D01*
X115028571Y-100178571D02*
X115314285Y-100178571D01*
X115457142Y-100250000D01*
X115600000Y-100392857D01*
X115671428Y-100678571D01*
X115671428Y-101178571D01*
X115600000Y-101464285D01*
X115457142Y-101607142D01*
X115314285Y-101678571D01*
X115028571Y-101678571D01*
X114885714Y-101607142D01*
X114742857Y-101464285D01*
X114671428Y-101178571D01*
X114671428Y-100678571D01*
X114742857Y-100392857D01*
X114885714Y-100250000D01*
X115028571Y-100178571D01*
X112764285Y-102678571D02*
X113621428Y-102678571D01*
X113192857Y-104178571D02*
X113192857Y-102678571D01*
X114121428Y-104178571D02*
X114121428Y-102678571D01*
X114478571Y-102678571D01*
X114692857Y-102750000D01*
X114835714Y-102892857D01*
X114907142Y-103035714D01*
X114978571Y-103321428D01*
X114978571Y-103535714D01*
X114907142Y-103821428D01*
X114835714Y-103964285D01*
X114692857Y-104107142D01*
X114478571Y-104178571D01*
X114121428Y-104178571D01*
X115621428Y-104178571D02*
X115621428Y-102678571D01*
X112907142Y-106535714D02*
X112835714Y-106607142D01*
X112621428Y-106678571D01*
X112478571Y-106678571D01*
X112264285Y-106607142D01*
X112121428Y-106464285D01*
X112050000Y-106321428D01*
X111978571Y-106035714D01*
X111978571Y-105821428D01*
X112050000Y-105535714D01*
X112121428Y-105392857D01*
X112264285Y-105250000D01*
X112478571Y-105178571D01*
X112621428Y-105178571D01*
X112835714Y-105250000D01*
X112907142Y-105321428D01*
X114264285Y-106678571D02*
X113550000Y-106678571D01*
X113550000Y-105178571D01*
X114764285Y-106678571D02*
X114764285Y-105178571D01*
X115621428Y-106678571D02*
X114978571Y-105821428D01*
X115621428Y-105178571D02*
X114764285Y-106035714D01*
X113357142Y-107778571D02*
X114214285Y-107778571D01*
X113785714Y-109278571D02*
X113785714Y-107778571D01*
X114571428Y-107778571D02*
X115571428Y-109278571D01*
X115571428Y-107778571D02*
X114571428Y-109278571D01*
D11*
X92000000Y-101000000D02*
X92000000Y-111000000D01*
D12*
X103361904Y-99452380D02*
X103980952Y-99452380D01*
X103647619Y-99833333D01*
X103790476Y-99833333D01*
X103885714Y-99880952D01*
X103933333Y-99928571D01*
X103980952Y-100023809D01*
X103980952Y-100261904D01*
X103933333Y-100357142D01*
X103885714Y-100404761D01*
X103790476Y-100452380D01*
X103504761Y-100452380D01*
X103409523Y-100404761D01*
X103361904Y-100357142D01*
X104409523Y-100357142D02*
X104457142Y-100404761D01*
X104409523Y-100452380D01*
X104361904Y-100404761D01*
X104409523Y-100357142D01*
X104409523Y-100452380D01*
X104790476Y-99452380D02*
X105409523Y-99452380D01*
X105076190Y-99833333D01*
X105219047Y-99833333D01*
X105314285Y-99880952D01*
X105361904Y-99928571D01*
X105409523Y-100023809D01*
X105409523Y-100261904D01*
X105361904Y-100357142D01*
X105314285Y-100404761D01*
X105219047Y-100452380D01*
X104933333Y-100452380D01*
X104838095Y-100404761D01*
X104790476Y-100357142D01*
X105695238Y-99452380D02*
X106028571Y-100452380D01*
X106361904Y-99452380D01*
X107647619Y-99452380D02*
X107838095Y-99452380D01*
X107933333Y-99500000D01*
X108028571Y-99595238D01*
X108076190Y-99785714D01*
X108076190Y-100119047D01*
X108028571Y-100309523D01*
X107933333Y-100404761D01*
X107838095Y-100452380D01*
X107647619Y-100452380D01*
X107552380Y-100404761D01*
X107457142Y-100309523D01*
X107409523Y-100119047D01*
X107409523Y-99785714D01*
X107457142Y-99595238D01*
X107552380Y-99500000D01*
X107647619Y-99452380D01*
X108504761Y-100452380D02*
X108504761Y-99452380D01*
X109076190Y-100452380D01*
X109076190Y-99452380D01*
X110028571Y-100452380D02*
X109552380Y-100452380D01*
X109552380Y-99452380D01*
X110552380Y-99976190D02*
X110552380Y-100452380D01*
X110219047Y-99452380D02*
X110552380Y-99976190D01*
X110885714Y-99452380D01*
D10*
X89878571Y-108785714D02*
X91378571Y-108785714D01*
X90664285Y-108071428D02*
X90807142Y-108000000D01*
X90878571Y-107857142D01*
X90664285Y-108785714D02*
X90807142Y-108714285D01*
X90878571Y-108571428D01*
X90878571Y-108285714D01*
X90807142Y-108142857D01*
X90664285Y-108071428D01*
X89878571Y-108071428D01*
X90092857Y-106714285D02*
X90164285Y-106500000D01*
X90235714Y-106428571D01*
X90378571Y-106357142D01*
X90592857Y-106357142D01*
X90735714Y-106428571D01*
X90807142Y-106500000D01*
X90878571Y-106642857D01*
X90878571Y-107214285D01*
X89378571Y-107214285D01*
X89378571Y-106714285D01*
X89450000Y-106571428D01*
X89521428Y-106500000D01*
X89664285Y-106428571D01*
X89807142Y-106428571D01*
X89950000Y-106500000D01*
X90021428Y-106571428D01*
X90092857Y-106714285D01*
X90092857Y-107214285D01*
X90878571Y-105714285D02*
X89378571Y-105714285D01*
X90450000Y-105214285D01*
X89378571Y-104714285D01*
X90878571Y-104714285D01*
X90878571Y-104000000D02*
X89378571Y-104000000D01*
X89378571Y-103428571D01*
X89450000Y-103285714D01*
X89521428Y-103214285D01*
X89664285Y-103142857D01*
X89878571Y-103142857D01*
X90021428Y-103214285D01*
X90092857Y-103285714D01*
X90164285Y-103428571D01*
X90164285Y-104000000D01*
X114114285Y-110378571D02*
X113400000Y-110378571D01*
X113328571Y-111092857D01*
X113400000Y-111021428D01*
X113542857Y-110950000D01*
X113900000Y-110950000D01*
X114042857Y-111021428D01*
X114114285Y-111092857D01*
X114185714Y-111235714D01*
X114185714Y-111592857D01*
X114114285Y-111735714D01*
X114042857Y-111807142D01*
X113900000Y-111878571D01*
X113542857Y-111878571D01*
X113400000Y-111807142D01*
X113328571Y-111735714D01*
X114614285Y-110378571D02*
X115114285Y-111878571D01*
X115614285Y-110378571D01*
D13*
X103800000Y-112000000D02*
X103700000Y-112000000D01*
X103800000Y-110400000D02*
X103800000Y-112000000D01*
X103700000Y-110400000D02*
X103800000Y-110400000D01*
X100400000Y-112000000D02*
X100500000Y-112000000D01*
X100400000Y-110400000D02*
X100400000Y-112000000D01*
X100500000Y-110400000D02*
X100400000Y-110400000D01*
D14*
X94030000Y-108890000D02*
X94470000Y-108890000D01*
X94030000Y-109910000D02*
X94470000Y-109910000D01*
X94470000Y-103490000D02*
X94030000Y-103490000D01*
X94470000Y-104510000D02*
X94030000Y-104510000D01*
X94925000Y-111240000D02*
X92655000Y-111240000D01*
X92655000Y-111240000D02*
X92655000Y-112760000D01*
X92655000Y-112760000D02*
X94925000Y-112760000D01*
X92655000Y-100760000D02*
X94925000Y-100760000D01*
X92655000Y-99240000D02*
X92655000Y-100760000D01*
X94925000Y-99240000D02*
X92655000Y-99240000D01*
D13*
X99375000Y-101875000D02*
X99900000Y-101875000D01*
X106625000Y-109125000D02*
X106100000Y-109125000D01*
X106625000Y-101875000D02*
X106100000Y-101875000D01*
X99375000Y-109125000D02*
X99375000Y-108600000D01*
X106625000Y-109125000D02*
X106625000Y-108600000D01*
X106625000Y-101875000D02*
X106625000Y-102400000D01*
X99375000Y-101875000D02*
X99375000Y-102400000D01*
D14*
X95860000Y-107600000D02*
X95860000Y-105800000D01*
X92640000Y-105800000D02*
X92640000Y-108250000D01*
D13*
X101914285Y-109785714D02*
X101914285Y-110071428D01*
X101714285Y-109471428D02*
X101914285Y-109785714D01*
X102114285Y-109471428D01*
X102628571Y-110071428D02*
X102285714Y-110071428D01*
X102457142Y-110071428D02*
X102457142Y-109471428D01*
X102400000Y-109557142D01*
X102342857Y-109614285D01*
X102285714Y-109642857D01*
X110150000Y-111214285D02*
X110121428Y-111242857D01*
X110035714Y-111271428D01*
X109978571Y-111271428D01*
X109892857Y-111242857D01*
X109835714Y-111185714D01*
X109807142Y-111128571D01*
X109778571Y-111014285D01*
X109778571Y-110928571D01*
X109807142Y-110814285D01*
X109835714Y-110757142D01*
X109892857Y-110700000D01*
X109978571Y-110671428D01*
X110035714Y-110671428D01*
X110121428Y-110700000D01*
X110150000Y-110728571D01*
X110721428Y-111271428D02*
X110378571Y-111271428D01*
X110550000Y-111271428D02*
X110550000Y-110671428D01*
X110492857Y-110757142D01*
X110435714Y-110814285D01*
X110378571Y-110842857D01*
X95900000Y-103214285D02*
X95871428Y-103242857D01*
X95785714Y-103271428D01*
X95728571Y-103271428D01*
X95642857Y-103242857D01*
X95585714Y-103185714D01*
X95557142Y-103128571D01*
X95528571Y-103014285D01*
X95528571Y-102928571D01*
X95557142Y-102814285D01*
X95585714Y-102757142D01*
X95642857Y-102700000D01*
X95728571Y-102671428D01*
X95785714Y-102671428D01*
X95871428Y-102700000D01*
X95900000Y-102728571D01*
X96128571Y-102728571D02*
X96157142Y-102700000D01*
X96214285Y-102671428D01*
X96357142Y-102671428D01*
X96414285Y-102700000D01*
X96442857Y-102728571D01*
X96471428Y-102785714D01*
X96471428Y-102842857D01*
X96442857Y-102928571D01*
X96100000Y-103271428D01*
X96471428Y-103271428D01*
X97400000Y-109464285D02*
X97371428Y-109492857D01*
X97285714Y-109521428D01*
X97228571Y-109521428D01*
X97142857Y-109492857D01*
X97085714Y-109435714D01*
X97057142Y-109378571D01*
X97028571Y-109264285D01*
X97028571Y-109178571D01*
X97057142Y-109064285D01*
X97085714Y-109007142D01*
X97142857Y-108950000D01*
X97228571Y-108921428D01*
X97285714Y-108921428D01*
X97371428Y-108950000D01*
X97400000Y-108978571D01*
X97600000Y-108921428D02*
X97971428Y-108921428D01*
X97771428Y-109150000D01*
X97857142Y-109150000D01*
X97914285Y-109178571D01*
X97942857Y-109207142D01*
X97971428Y-109264285D01*
X97971428Y-109407142D01*
X97942857Y-109464285D01*
X97914285Y-109492857D01*
X97857142Y-109521428D01*
X97685714Y-109521428D01*
X97628571Y-109492857D01*
X97600000Y-109464285D01*
X110150000Y-103464285D02*
X110121428Y-103492857D01*
X110035714Y-103521428D01*
X109978571Y-103521428D01*
X109892857Y-103492857D01*
X109835714Y-103435714D01*
X109807142Y-103378571D01*
X109778571Y-103264285D01*
X109778571Y-103178571D01*
X109807142Y-103064285D01*
X109835714Y-103007142D01*
X109892857Y-102950000D01*
X109978571Y-102921428D01*
X110035714Y-102921428D01*
X110121428Y-102950000D01*
X110150000Y-102978571D01*
X110664285Y-103121428D02*
X110664285Y-103521428D01*
X110521428Y-102892857D02*
X110378571Y-103321428D01*
X110750000Y-103321428D01*
X94400000Y-110814285D02*
X94371428Y-110842857D01*
X94285714Y-110871428D01*
X94228571Y-110871428D01*
X94142857Y-110842857D01*
X94085714Y-110785714D01*
X94057142Y-110728571D01*
X94028571Y-110614285D01*
X94028571Y-110528571D01*
X94057142Y-110414285D01*
X94085714Y-110357142D01*
X94142857Y-110300000D01*
X94228571Y-110271428D01*
X94285714Y-110271428D01*
X94371428Y-110300000D01*
X94400000Y-110328571D01*
X94942857Y-110271428D02*
X94657142Y-110271428D01*
X94628571Y-110557142D01*
X94657142Y-110528571D01*
X94714285Y-110500000D01*
X94857142Y-110500000D01*
X94914285Y-110528571D01*
X94942857Y-110557142D01*
X94971428Y-110614285D01*
X94971428Y-110757142D01*
X94942857Y-110814285D01*
X94914285Y-110842857D01*
X94857142Y-110871428D01*
X94714285Y-110871428D01*
X94657142Y-110842857D01*
X94628571Y-110814285D01*
X93400000Y-103014285D02*
X93371428Y-103042857D01*
X93285714Y-103071428D01*
X93228571Y-103071428D01*
X93142857Y-103042857D01*
X93085714Y-102985714D01*
X93057142Y-102928571D01*
X93028571Y-102814285D01*
X93028571Y-102728571D01*
X93057142Y-102614285D01*
X93085714Y-102557142D01*
X93142857Y-102500000D01*
X93228571Y-102471428D01*
X93285714Y-102471428D01*
X93371428Y-102500000D01*
X93400000Y-102528571D01*
X93914285Y-102471428D02*
X93800000Y-102471428D01*
X93742857Y-102500000D01*
X93714285Y-102528571D01*
X93657142Y-102614285D01*
X93628571Y-102728571D01*
X93628571Y-102957142D01*
X93657142Y-103014285D01*
X93685714Y-103042857D01*
X93742857Y-103071428D01*
X93857142Y-103071428D01*
X93914285Y-103042857D01*
X93942857Y-103014285D01*
X93971428Y-102957142D01*
X93971428Y-102814285D01*
X93942857Y-102757142D01*
X93914285Y-102728571D01*
X93857142Y-102700000D01*
X93742857Y-102700000D01*
X93685714Y-102728571D01*
X93657142Y-102757142D01*
X93628571Y-102814285D01*
X92757142Y-110971428D02*
X92757142Y-110371428D01*
X92900000Y-110371428D01*
X92985714Y-110400000D01*
X93042857Y-110457142D01*
X93071428Y-110514285D01*
X93100000Y-110628571D01*
X93100000Y-110714285D01*
X93071428Y-110828571D01*
X93042857Y-110885714D01*
X92985714Y-110942857D01*
X92900000Y-110971428D01*
X92757142Y-110971428D01*
X93671428Y-110971428D02*
X93328571Y-110971428D01*
X93500000Y-110971428D02*
X93500000Y-110371428D01*
X93442857Y-110457142D01*
X93385714Y-110514285D01*
X93328571Y-110542857D01*
X92807142Y-101771428D02*
X92807142Y-101171428D01*
X92950000Y-101171428D01*
X93035714Y-101200000D01*
X93092857Y-101257142D01*
X93121428Y-101314285D01*
X93150000Y-101428571D01*
X93150000Y-101514285D01*
X93121428Y-101628571D01*
X93092857Y-101685714D01*
X93035714Y-101742857D01*
X92950000Y-101771428D01*
X92807142Y-101771428D01*
X93378571Y-101228571D02*
X93407142Y-101200000D01*
X93464285Y-101171428D01*
X93607142Y-101171428D01*
X93664285Y-101200000D01*
X93692857Y-101228571D01*
X93721428Y-101285714D01*
X93721428Y-101342857D01*
X93692857Y-101428571D01*
X93350000Y-101771428D01*
X93721428Y-101771428D01*
X96400000Y-111271428D02*
X96200000Y-110985714D01*
X96057142Y-111271428D02*
X96057142Y-110671428D01*
X96285714Y-110671428D01*
X96342857Y-110700000D01*
X96371428Y-110728571D01*
X96400000Y-110785714D01*
X96400000Y-110871428D01*
X96371428Y-110928571D01*
X96342857Y-110957142D01*
X96285714Y-110985714D01*
X96057142Y-110985714D01*
X96971428Y-111271428D02*
X96628571Y-111271428D01*
X96800000Y-111271428D02*
X96800000Y-110671428D01*
X96742857Y-110757142D01*
X96685714Y-110814285D01*
X96628571Y-110842857D01*
X99150000Y-100271428D02*
X98950000Y-99985714D01*
X98807142Y-100271428D02*
X98807142Y-99671428D01*
X99035714Y-99671428D01*
X99092857Y-99700000D01*
X99121428Y-99728571D01*
X99150000Y-99785714D01*
X99150000Y-99871428D01*
X99121428Y-99928571D01*
X99092857Y-99957142D01*
X99035714Y-99985714D01*
X98807142Y-99985714D01*
X99378571Y-99728571D02*
X99407142Y-99700000D01*
X99464285Y-99671428D01*
X99607142Y-99671428D01*
X99664285Y-99700000D01*
X99692857Y-99728571D01*
X99721428Y-99785714D01*
X99721428Y-99842857D01*
X99692857Y-99928571D01*
X99350000Y-100271428D01*
X99721428Y-100271428D01*
X110150000Y-110271428D02*
X109950000Y-109985714D01*
X109807142Y-110271428D02*
X109807142Y-109671428D01*
X110035714Y-109671428D01*
X110092857Y-109700000D01*
X110121428Y-109728571D01*
X110150000Y-109785714D01*
X110150000Y-109871428D01*
X110121428Y-109928571D01*
X110092857Y-109957142D01*
X110035714Y-109985714D01*
X109807142Y-109985714D01*
X110350000Y-109671428D02*
X110721428Y-109671428D01*
X110521428Y-109900000D01*
X110607142Y-109900000D01*
X110664285Y-109928571D01*
X110692857Y-109957142D01*
X110721428Y-110014285D01*
X110721428Y-110157142D01*
X110692857Y-110214285D01*
X110664285Y-110242857D01*
X110607142Y-110271428D01*
X110435714Y-110271428D01*
X110378571Y-110242857D01*
X110350000Y-110214285D01*
X110150000Y-109271428D02*
X109950000Y-108985714D01*
X109807142Y-109271428D02*
X109807142Y-108671428D01*
X110035714Y-108671428D01*
X110092857Y-108700000D01*
X110121428Y-108728571D01*
X110150000Y-108785714D01*
X110150000Y-108871428D01*
X110121428Y-108928571D01*
X110092857Y-108957142D01*
X110035714Y-108985714D01*
X109807142Y-108985714D01*
X110664285Y-108871428D02*
X110664285Y-109271428D01*
X110521428Y-108642857D02*
X110378571Y-109071428D01*
X110750000Y-109071428D01*
X110150000Y-106271428D02*
X109950000Y-105985714D01*
X109807142Y-106271428D02*
X109807142Y-105671428D01*
X110035714Y-105671428D01*
X110092857Y-105700000D01*
X110121428Y-105728571D01*
X110150000Y-105785714D01*
X110150000Y-105871428D01*
X110121428Y-105928571D01*
X110092857Y-105957142D01*
X110035714Y-105985714D01*
X109807142Y-105985714D01*
X110692857Y-105671428D02*
X110407142Y-105671428D01*
X110378571Y-105957142D01*
X110407142Y-105928571D01*
X110464285Y-105900000D01*
X110607142Y-105900000D01*
X110664285Y-105928571D01*
X110692857Y-105957142D01*
X110721428Y-106014285D01*
X110721428Y-106157142D01*
X110692857Y-106214285D01*
X110664285Y-106242857D01*
X110607142Y-106271428D01*
X110464285Y-106271428D01*
X110407142Y-106242857D01*
X110378571Y-106214285D01*
X104400000Y-110271428D02*
X104200000Y-109985714D01*
X104057142Y-110271428D02*
X104057142Y-109671428D01*
X104285714Y-109671428D01*
X104342857Y-109700000D01*
X104371428Y-109728571D01*
X104400000Y-109785714D01*
X104400000Y-109871428D01*
X104371428Y-109928571D01*
X104342857Y-109957142D01*
X104285714Y-109985714D01*
X104057142Y-109985714D01*
X104914285Y-109671428D02*
X104800000Y-109671428D01*
X104742857Y-109700000D01*
X104714285Y-109728571D01*
X104657142Y-109814285D01*
X104628571Y-109928571D01*
X104628571Y-110157142D01*
X104657142Y-110214285D01*
X104685714Y-110242857D01*
X104742857Y-110271428D01*
X104857142Y-110271428D01*
X104914285Y-110242857D01*
X104942857Y-110214285D01*
X104971428Y-110157142D01*
X104971428Y-110014285D01*
X104942857Y-109957142D01*
X104914285Y-109928571D01*
X104857142Y-109900000D01*
X104742857Y-109900000D01*
X104685714Y-109928571D01*
X104657142Y-109957142D01*
X104628571Y-110014285D01*
X97400000Y-107521428D02*
X97200000Y-107235714D01*
X97057142Y-107521428D02*
X97057142Y-106921428D01*
X97285714Y-106921428D01*
X97342857Y-106950000D01*
X97371428Y-106978571D01*
X97400000Y-107035714D01*
X97400000Y-107121428D01*
X97371428Y-107178571D01*
X97342857Y-107207142D01*
X97285714Y-107235714D01*
X97057142Y-107235714D01*
X97600000Y-106921428D02*
X98000000Y-106921428D01*
X97742857Y-107521428D01*
X98521428Y-111350000D02*
X98235714Y-111550000D01*
X98521428Y-111692857D02*
X97921428Y-111692857D01*
X97921428Y-111464285D01*
X97950000Y-111407142D01*
X97978571Y-111378571D01*
X98035714Y-111350000D01*
X98121428Y-111350000D01*
X98178571Y-111378571D01*
X98207142Y-111407142D01*
X98235714Y-111464285D01*
X98235714Y-111692857D01*
X98178571Y-111007142D02*
X98150000Y-111064285D01*
X98121428Y-111092857D01*
X98064285Y-111121428D01*
X98035714Y-111121428D01*
X97978571Y-111092857D01*
X97950000Y-111064285D01*
X97921428Y-111007142D01*
X97921428Y-110892857D01*
X97950000Y-110835714D01*
X97978571Y-110807142D01*
X98035714Y-110778571D01*
X98064285Y-110778571D01*
X98121428Y-110807142D01*
X98150000Y-110835714D01*
X98178571Y-110892857D01*
X98178571Y-111007142D01*
X98207142Y-111064285D01*
X98235714Y-111092857D01*
X98292857Y-111121428D01*
X98407142Y-111121428D01*
X98464285Y-111092857D01*
X98492857Y-111064285D01*
X98521428Y-111007142D01*
X98521428Y-110892857D01*
X98492857Y-110835714D01*
X98464285Y-110807142D01*
X98407142Y-110778571D01*
X98292857Y-110778571D01*
X98235714Y-110807142D01*
X98207142Y-110835714D01*
X98178571Y-110892857D01*
X110150000Y-105271428D02*
X109950000Y-104985714D01*
X109807142Y-105271428D02*
X109807142Y-104671428D01*
X110035714Y-104671428D01*
X110092857Y-104700000D01*
X110121428Y-104728571D01*
X110150000Y-104785714D01*
X110150000Y-104871428D01*
X110121428Y-104928571D01*
X110092857Y-104957142D01*
X110035714Y-104985714D01*
X109807142Y-104985714D01*
X110435714Y-105271428D02*
X110550000Y-105271428D01*
X110607142Y-105242857D01*
X110635714Y-105214285D01*
X110692857Y-105128571D01*
X110721428Y-105014285D01*
X110721428Y-104785714D01*
X110692857Y-104728571D01*
X110664285Y-104700000D01*
X110607142Y-104671428D01*
X110492857Y-104671428D01*
X110435714Y-104700000D01*
X110407142Y-104728571D01*
X110378571Y-104785714D01*
X110378571Y-104928571D01*
X110407142Y-104985714D01*
X110435714Y-105014285D01*
X110492857Y-105042857D01*
X110607142Y-105042857D01*
X110664285Y-105014285D01*
X110692857Y-104985714D01*
X110721428Y-104928571D01*
X109864285Y-101521428D02*
X109664285Y-101235714D01*
X109521428Y-101521428D02*
X109521428Y-100921428D01*
X109750000Y-100921428D01*
X109807142Y-100950000D01*
X109835714Y-100978571D01*
X109864285Y-101035714D01*
X109864285Y-101121428D01*
X109835714Y-101178571D01*
X109807142Y-101207142D01*
X109750000Y-101235714D01*
X109521428Y-101235714D01*
X110435714Y-101521428D02*
X110092857Y-101521428D01*
X110264285Y-101521428D02*
X110264285Y-100921428D01*
X110207142Y-101007142D01*
X110150000Y-101064285D01*
X110092857Y-101092857D01*
X110807142Y-100921428D02*
X110864285Y-100921428D01*
X110921428Y-100950000D01*
X110950000Y-100978571D01*
X110978571Y-101035714D01*
X111007142Y-101150000D01*
X111007142Y-101292857D01*
X110978571Y-101407142D01*
X110950000Y-101464285D01*
X110921428Y-101492857D01*
X110864285Y-101521428D01*
X110807142Y-101521428D01*
X110750000Y-101492857D01*
X110721428Y-101464285D01*
X110692857Y-101407142D01*
X110664285Y-101292857D01*
X110664285Y-101150000D01*
X110692857Y-101035714D01*
X110721428Y-100978571D01*
X110750000Y-100950000D01*
X110807142Y-100921428D01*
X109864285Y-108271428D02*
X109664285Y-107985714D01*
X109521428Y-108271428D02*
X109521428Y-107671428D01*
X109750000Y-107671428D01*
X109807142Y-107700000D01*
X109835714Y-107728571D01*
X109864285Y-107785714D01*
X109864285Y-107871428D01*
X109835714Y-107928571D01*
X109807142Y-107957142D01*
X109750000Y-107985714D01*
X109521428Y-107985714D01*
X110435714Y-108271428D02*
X110092857Y-108271428D01*
X110264285Y-108271428D02*
X110264285Y-107671428D01*
X110207142Y-107757142D01*
X110150000Y-107814285D01*
X110092857Y-107842857D01*
X111007142Y-108271428D02*
X110664285Y-108271428D01*
X110835714Y-108271428D02*
X110835714Y-107671428D01*
X110778571Y-107757142D01*
X110721428Y-107814285D01*
X110664285Y-107842857D01*
X109864285Y-107271428D02*
X109664285Y-106985714D01*
X109521428Y-107271428D02*
X109521428Y-106671428D01*
X109750000Y-106671428D01*
X109807142Y-106700000D01*
X109835714Y-106728571D01*
X109864285Y-106785714D01*
X109864285Y-106871428D01*
X109835714Y-106928571D01*
X109807142Y-106957142D01*
X109750000Y-106985714D01*
X109521428Y-106985714D01*
X110435714Y-107271428D02*
X110092857Y-107271428D01*
X110264285Y-107271428D02*
X110264285Y-106671428D01*
X110207142Y-106757142D01*
X110150000Y-106814285D01*
X110092857Y-106842857D01*
X110664285Y-106728571D02*
X110692857Y-106700000D01*
X110750000Y-106671428D01*
X110892857Y-106671428D01*
X110950000Y-106700000D01*
X110978571Y-106728571D01*
X111007142Y-106785714D01*
X111007142Y-106842857D01*
X110978571Y-106928571D01*
X110635714Y-107271428D01*
X111007142Y-107271428D01*
X109864285Y-102521428D02*
X109664285Y-102235714D01*
X109521428Y-102521428D02*
X109521428Y-101921428D01*
X109750000Y-101921428D01*
X109807142Y-101950000D01*
X109835714Y-101978571D01*
X109864285Y-102035714D01*
X109864285Y-102121428D01*
X109835714Y-102178571D01*
X109807142Y-102207142D01*
X109750000Y-102235714D01*
X109521428Y-102235714D01*
X110435714Y-102521428D02*
X110092857Y-102521428D01*
X110264285Y-102521428D02*
X110264285Y-101921428D01*
X110207142Y-102007142D01*
X110150000Y-102064285D01*
X110092857Y-102092857D01*
X110635714Y-101921428D02*
X111007142Y-101921428D01*
X110807142Y-102150000D01*
X110892857Y-102150000D01*
X110950000Y-102178571D01*
X110978571Y-102207142D01*
X111007142Y-102264285D01*
X111007142Y-102407142D01*
X110978571Y-102464285D01*
X110950000Y-102492857D01*
X110892857Y-102521428D01*
X110721428Y-102521428D01*
X110664285Y-102492857D01*
X110635714Y-102464285D01*
X97114285Y-105521428D02*
X96914285Y-105235714D01*
X96771428Y-105521428D02*
X96771428Y-104921428D01*
X97000000Y-104921428D01*
X97057142Y-104950000D01*
X97085714Y-104978571D01*
X97114285Y-105035714D01*
X97114285Y-105121428D01*
X97085714Y-105178571D01*
X97057142Y-105207142D01*
X97000000Y-105235714D01*
X96771428Y-105235714D01*
X97685714Y-105521428D02*
X97342857Y-105521428D01*
X97514285Y-105521428D02*
X97514285Y-104921428D01*
X97457142Y-105007142D01*
X97400000Y-105064285D01*
X97342857Y-105092857D01*
X98200000Y-105121428D02*
X98200000Y-105521428D01*
X98057142Y-104892857D02*
X97914285Y-105321428D01*
X98285714Y-105321428D01*
X98864285Y-101271428D02*
X98664285Y-100985714D01*
X98521428Y-101271428D02*
X98521428Y-100671428D01*
X98750000Y-100671428D01*
X98807142Y-100700000D01*
X98835714Y-100728571D01*
X98864285Y-100785714D01*
X98864285Y-100871428D01*
X98835714Y-100928571D01*
X98807142Y-100957142D01*
X98750000Y-100985714D01*
X98521428Y-100985714D01*
X99435714Y-101271428D02*
X99092857Y-101271428D01*
X99264285Y-101271428D02*
X99264285Y-100671428D01*
X99207142Y-100757142D01*
X99150000Y-100814285D01*
X99092857Y-100842857D01*
X99978571Y-100671428D02*
X99692857Y-100671428D01*
X99664285Y-100957142D01*
X99692857Y-100928571D01*
X99750000Y-100900000D01*
X99892857Y-100900000D01*
X99950000Y-100928571D01*
X99978571Y-100957142D01*
X100007142Y-101014285D01*
X100007142Y-101157142D01*
X99978571Y-101214285D01*
X99950000Y-101242857D01*
X99892857Y-101271428D01*
X99750000Y-101271428D01*
X99692857Y-101242857D01*
X99664285Y-101214285D01*
X95314285Y-102271428D02*
X95114285Y-101985714D01*
X94971428Y-102271428D02*
X94971428Y-101671428D01*
X95200000Y-101671428D01*
X95257142Y-101700000D01*
X95285714Y-101728571D01*
X95314285Y-101785714D01*
X95314285Y-101871428D01*
X95285714Y-101928571D01*
X95257142Y-101957142D01*
X95200000Y-101985714D01*
X94971428Y-101985714D01*
X95885714Y-102271428D02*
X95542857Y-102271428D01*
X95714285Y-102271428D02*
X95714285Y-101671428D01*
X95657142Y-101757142D01*
X95600000Y-101814285D01*
X95542857Y-101842857D01*
X96400000Y-101671428D02*
X96285714Y-101671428D01*
X96228571Y-101700000D01*
X96200000Y-101728571D01*
X96142857Y-101814285D01*
X96114285Y-101928571D01*
X96114285Y-102157142D01*
X96142857Y-102214285D01*
X96171428Y-102242857D01*
X96228571Y-102271428D01*
X96342857Y-102271428D01*
X96400000Y-102242857D01*
X96428571Y-102214285D01*
X96457142Y-102157142D01*
X96457142Y-102014285D01*
X96428571Y-101957142D01*
X96400000Y-101928571D01*
X96342857Y-101900000D01*
X96228571Y-101900000D01*
X96171428Y-101928571D01*
X96142857Y-101957142D01*
X96114285Y-102014285D01*
X101792857Y-100921428D02*
X101792857Y-101407142D01*
X101821428Y-101464285D01*
X101850000Y-101492857D01*
X101907142Y-101521428D01*
X102021428Y-101521428D01*
X102078571Y-101492857D01*
X102107142Y-101464285D01*
X102135714Y-101407142D01*
X102135714Y-100921428D01*
X102735714Y-101521428D02*
X102392857Y-101521428D01*
X102564285Y-101521428D02*
X102564285Y-100921428D01*
X102507142Y-101007142D01*
X102450000Y-101064285D01*
X102392857Y-101092857D01*
X96171428Y-107707142D02*
X96657142Y-107707142D01*
X96714285Y-107678571D01*
X96742857Y-107650000D01*
X96771428Y-107592857D01*
X96771428Y-107478571D01*
X96742857Y-107421428D01*
X96714285Y-107392857D01*
X96657142Y-107364285D01*
X96171428Y-107364285D01*
X96228571Y-107107142D02*
X96200000Y-107078571D01*
X96171428Y-107021428D01*
X96171428Y-106878571D01*
X96200000Y-106821428D01*
X96228571Y-106792857D01*
X96285714Y-106764285D01*
X96342857Y-106764285D01*
X96428571Y-106792857D01*
X96771428Y-107135714D01*
X96771428Y-106764285D01*
%LPC*%
G36*
X79800000Y-110600000D02*
X79800000Y-108500000D01*
X80800000Y-108300000D01*
X80800000Y-103800000D01*
X79800000Y-103500000D01*
X79800000Y-101400000D01*
X88200000Y-101400000D01*
X88500000Y-101700000D01*
X88500000Y-110300000D01*
X88200000Y-110600000D01*
X79800000Y-110600000D01*
G37*
X79800000Y-110600000D02*
X79800000Y-108500000D01*
X80800000Y-108300000D01*
X80800000Y-103800000D01*
X79800000Y-103500000D01*
X79800000Y-101400000D01*
X88200000Y-101400000D01*
X88500000Y-101700000D01*
X88500000Y-110300000D01*
X88200000Y-110600000D01*
X79800000Y-110600000D01*
D15*
X103300000Y-111200000D03*
X102100000Y-111200000D03*
X100900000Y-111200000D03*
D16*
G36*
X118183128Y-107662119D02*
X118225840Y-107668454D01*
X118267725Y-107678946D01*
X118308381Y-107693493D01*
X118347415Y-107711955D01*
X118384451Y-107734153D01*
X118419133Y-107759875D01*
X118451127Y-107788873D01*
X118480125Y-107820867D01*
X118505847Y-107855549D01*
X118528045Y-107892585D01*
X118546507Y-107931619D01*
X118561054Y-107972275D01*
X118571546Y-108014160D01*
X118577881Y-108056872D01*
X118580000Y-108100000D01*
X118580000Y-108980000D01*
X118577881Y-109023128D01*
X118571546Y-109065840D01*
X118561054Y-109107725D01*
X118546507Y-109148381D01*
X118528045Y-109187415D01*
X118505847Y-109224451D01*
X118480125Y-109259133D01*
X118451127Y-109291127D01*
X118419133Y-109320125D01*
X118384451Y-109345847D01*
X118347415Y-109368045D01*
X118308381Y-109386507D01*
X118267725Y-109401054D01*
X118225840Y-109411546D01*
X118183128Y-109417881D01*
X118140000Y-109420000D01*
X116360000Y-109420000D01*
X116316872Y-109417881D01*
X116274160Y-109411546D01*
X116232275Y-109401054D01*
X116191619Y-109386507D01*
X116152585Y-109368045D01*
X116115549Y-109345847D01*
X116080867Y-109320125D01*
X116048873Y-109291127D01*
X116019875Y-109259133D01*
X115994153Y-109224451D01*
X115971955Y-109187415D01*
X115953493Y-109148381D01*
X115938946Y-109107725D01*
X115928454Y-109065840D01*
X115922119Y-109023128D01*
X115920000Y-108980000D01*
X115920000Y-108100000D01*
X115922119Y-108056872D01*
X115928454Y-108014160D01*
X115938946Y-107972275D01*
X115953493Y-107931619D01*
X115971955Y-107892585D01*
X115994153Y-107855549D01*
X116019875Y-107820867D01*
X116048873Y-107788873D01*
X116080867Y-107759875D01*
X116115549Y-107734153D01*
X116152585Y-107711955D01*
X116191619Y-107693493D01*
X116232275Y-107678946D01*
X116274160Y-107668454D01*
X116316872Y-107662119D01*
X116360000Y-107660000D01*
X118140000Y-107660000D01*
X118183128Y-107662119D01*
X118183128Y-107662119D01*
G37*
D17*
X117250000Y-108540000D03*
D16*
G36*
X118183128Y-102582119D02*
X118225840Y-102588454D01*
X118267725Y-102598946D01*
X118308381Y-102613493D01*
X118347415Y-102631955D01*
X118384451Y-102654153D01*
X118419133Y-102679875D01*
X118451127Y-102708873D01*
X118480125Y-102740867D01*
X118505847Y-102775549D01*
X118528045Y-102812585D01*
X118546507Y-102851619D01*
X118561054Y-102892275D01*
X118571546Y-102934160D01*
X118577881Y-102976872D01*
X118580000Y-103020000D01*
X118580000Y-103900000D01*
X118577881Y-103943128D01*
X118571546Y-103985840D01*
X118561054Y-104027725D01*
X118546507Y-104068381D01*
X118528045Y-104107415D01*
X118505847Y-104144451D01*
X118480125Y-104179133D01*
X118451127Y-104211127D01*
X118419133Y-104240125D01*
X118384451Y-104265847D01*
X118347415Y-104288045D01*
X118308381Y-104306507D01*
X118267725Y-104321054D01*
X118225840Y-104331546D01*
X118183128Y-104337881D01*
X118140000Y-104340000D01*
X116360000Y-104340000D01*
X116316872Y-104337881D01*
X116274160Y-104331546D01*
X116232275Y-104321054D01*
X116191619Y-104306507D01*
X116152585Y-104288045D01*
X116115549Y-104265847D01*
X116080867Y-104240125D01*
X116048873Y-104211127D01*
X116019875Y-104179133D01*
X115994153Y-104144451D01*
X115971955Y-104107415D01*
X115953493Y-104068381D01*
X115938946Y-104027725D01*
X115928454Y-103985840D01*
X115922119Y-103943128D01*
X115920000Y-103900000D01*
X115920000Y-103020000D01*
X115922119Y-102976872D01*
X115928454Y-102934160D01*
X115938946Y-102892275D01*
X115953493Y-102851619D01*
X115971955Y-102812585D01*
X115994153Y-102775549D01*
X116019875Y-102740867D01*
X116048873Y-102708873D01*
X116080867Y-102679875D01*
X116115549Y-102654153D01*
X116152585Y-102631955D01*
X116191619Y-102613493D01*
X116232275Y-102598946D01*
X116274160Y-102588454D01*
X116316872Y-102582119D01*
X116360000Y-102580000D01*
X118140000Y-102580000D01*
X118183128Y-102582119D01*
X118183128Y-102582119D01*
G37*
D17*
X117250000Y-103460000D03*
D16*
G36*
X118183128Y-110202119D02*
X118225840Y-110208454D01*
X118267725Y-110218946D01*
X118308381Y-110233493D01*
X118347415Y-110251955D01*
X118384451Y-110274153D01*
X118419133Y-110299875D01*
X118451127Y-110328873D01*
X118480125Y-110360867D01*
X118505847Y-110395549D01*
X118528045Y-110432585D01*
X118546507Y-110471619D01*
X118561054Y-110512275D01*
X118571546Y-110554160D01*
X118577881Y-110596872D01*
X118580000Y-110640000D01*
X118580000Y-111520000D01*
X118577881Y-111563128D01*
X118571546Y-111605840D01*
X118561054Y-111647725D01*
X118546507Y-111688381D01*
X118528045Y-111727415D01*
X118505847Y-111764451D01*
X118480125Y-111799133D01*
X118451127Y-111831127D01*
X118419133Y-111860125D01*
X118384451Y-111885847D01*
X118347415Y-111908045D01*
X118308381Y-111926507D01*
X118267725Y-111941054D01*
X118225840Y-111951546D01*
X118183128Y-111957881D01*
X118140000Y-111960000D01*
X116360000Y-111960000D01*
X116316872Y-111957881D01*
X116274160Y-111951546D01*
X116232275Y-111941054D01*
X116191619Y-111926507D01*
X116152585Y-111908045D01*
X116115549Y-111885847D01*
X116080867Y-111860125D01*
X116048873Y-111831127D01*
X116019875Y-111799133D01*
X115994153Y-111764451D01*
X115971955Y-111727415D01*
X115953493Y-111688381D01*
X115938946Y-111647725D01*
X115928454Y-111605840D01*
X115922119Y-111563128D01*
X115920000Y-111520000D01*
X115920000Y-110640000D01*
X115922119Y-110596872D01*
X115928454Y-110554160D01*
X115938946Y-110512275D01*
X115953493Y-110471619D01*
X115971955Y-110432585D01*
X115994153Y-110395549D01*
X116019875Y-110360867D01*
X116048873Y-110328873D01*
X116080867Y-110299875D01*
X116115549Y-110274153D01*
X116152585Y-110251955D01*
X116191619Y-110233493D01*
X116232275Y-110218946D01*
X116274160Y-110208454D01*
X116316872Y-110202119D01*
X116360000Y-110200000D01*
X118140000Y-110200000D01*
X118183128Y-110202119D01*
X118183128Y-110202119D01*
G37*
D17*
X117250000Y-111080000D03*
D16*
G36*
X118183128Y-100042119D02*
X118225840Y-100048454D01*
X118267725Y-100058946D01*
X118308381Y-100073493D01*
X118347415Y-100091955D01*
X118384451Y-100114153D01*
X118419133Y-100139875D01*
X118451127Y-100168873D01*
X118480125Y-100200867D01*
X118505847Y-100235549D01*
X118528045Y-100272585D01*
X118546507Y-100311619D01*
X118561054Y-100352275D01*
X118571546Y-100394160D01*
X118577881Y-100436872D01*
X118580000Y-100480000D01*
X118580000Y-101360000D01*
X118577881Y-101403128D01*
X118571546Y-101445840D01*
X118561054Y-101487725D01*
X118546507Y-101528381D01*
X118528045Y-101567415D01*
X118505847Y-101604451D01*
X118480125Y-101639133D01*
X118451127Y-101671127D01*
X118419133Y-101700125D01*
X118384451Y-101725847D01*
X118347415Y-101748045D01*
X118308381Y-101766507D01*
X118267725Y-101781054D01*
X118225840Y-101791546D01*
X118183128Y-101797881D01*
X118140000Y-101800000D01*
X116360000Y-101800000D01*
X116316872Y-101797881D01*
X116274160Y-101791546D01*
X116232275Y-101781054D01*
X116191619Y-101766507D01*
X116152585Y-101748045D01*
X116115549Y-101725847D01*
X116080867Y-101700125D01*
X116048873Y-101671127D01*
X116019875Y-101639133D01*
X115994153Y-101604451D01*
X115971955Y-101567415D01*
X115953493Y-101528381D01*
X115938946Y-101487725D01*
X115928454Y-101445840D01*
X115922119Y-101403128D01*
X115920000Y-101360000D01*
X115920000Y-100480000D01*
X115922119Y-100436872D01*
X115928454Y-100394160D01*
X115938946Y-100352275D01*
X115953493Y-100311619D01*
X115971955Y-100272585D01*
X115994153Y-100235549D01*
X116019875Y-100200867D01*
X116048873Y-100168873D01*
X116080867Y-100139875D01*
X116115549Y-100114153D01*
X116152585Y-100091955D01*
X116191619Y-100073493D01*
X116232275Y-100058946D01*
X116274160Y-100048454D01*
X116316872Y-100042119D01*
X116360000Y-100040000D01*
X118140000Y-100040000D01*
X118183128Y-100042119D01*
X118183128Y-100042119D01*
G37*
D17*
X117250000Y-100920000D03*
D16*
G36*
X118183128Y-105122119D02*
X118225840Y-105128454D01*
X118267725Y-105138946D01*
X118308381Y-105153493D01*
X118347415Y-105171955D01*
X118384451Y-105194153D01*
X118419133Y-105219875D01*
X118451127Y-105248873D01*
X118480125Y-105280867D01*
X118505847Y-105315549D01*
X118528045Y-105352585D01*
X118546507Y-105391619D01*
X118561054Y-105432275D01*
X118571546Y-105474160D01*
X118577881Y-105516872D01*
X118580000Y-105560000D01*
X118580000Y-106440000D01*
X118577881Y-106483128D01*
X118571546Y-106525840D01*
X118561054Y-106567725D01*
X118546507Y-106608381D01*
X118528045Y-106647415D01*
X118505847Y-106684451D01*
X118480125Y-106719133D01*
X118451127Y-106751127D01*
X118419133Y-106780125D01*
X118384451Y-106805847D01*
X118347415Y-106828045D01*
X118308381Y-106846507D01*
X118267725Y-106861054D01*
X118225840Y-106871546D01*
X118183128Y-106877881D01*
X118140000Y-106880000D01*
X116360000Y-106880000D01*
X116316872Y-106877881D01*
X116274160Y-106871546D01*
X116232275Y-106861054D01*
X116191619Y-106846507D01*
X116152585Y-106828045D01*
X116115549Y-106805847D01*
X116080867Y-106780125D01*
X116048873Y-106751127D01*
X116019875Y-106719133D01*
X115994153Y-106684451D01*
X115971955Y-106647415D01*
X115953493Y-106608381D01*
X115938946Y-106567725D01*
X115928454Y-106525840D01*
X115922119Y-106483128D01*
X115920000Y-106440000D01*
X115920000Y-105560000D01*
X115922119Y-105516872D01*
X115928454Y-105474160D01*
X115938946Y-105432275D01*
X115953493Y-105391619D01*
X115971955Y-105352585D01*
X115994153Y-105315549D01*
X116019875Y-105280867D01*
X116048873Y-105248873D01*
X116080867Y-105219875D01*
X116115549Y-105194153D01*
X116152585Y-105171955D01*
X116191619Y-105153493D01*
X116232275Y-105138946D01*
X116274160Y-105128454D01*
X116316872Y-105122119D01*
X116360000Y-105120000D01*
X118140000Y-105120000D01*
X118183128Y-105122119D01*
X118183128Y-105122119D01*
G37*
D17*
X117250000Y-106000000D03*
D16*
G36*
X109151761Y-110595885D02*
X109169598Y-110598531D01*
X109187090Y-110602912D01*
X109204068Y-110608987D01*
X109220369Y-110616697D01*
X109235836Y-110625967D01*
X109250320Y-110636709D01*
X109263681Y-110648819D01*
X109275791Y-110662180D01*
X109286533Y-110676664D01*
X109295803Y-110692131D01*
X109303513Y-110708432D01*
X109309588Y-110725410D01*
X109313969Y-110742902D01*
X109316615Y-110760739D01*
X109317500Y-110778750D01*
X109317500Y-111221250D01*
X109316615Y-111239261D01*
X109313969Y-111257098D01*
X109309588Y-111274590D01*
X109303513Y-111291568D01*
X109295803Y-111307869D01*
X109286533Y-111323336D01*
X109275791Y-111337820D01*
X109263681Y-111351181D01*
X109250320Y-111363291D01*
X109235836Y-111374033D01*
X109220369Y-111383303D01*
X109204068Y-111391013D01*
X109187090Y-111397088D01*
X109169598Y-111401469D01*
X109151761Y-111404115D01*
X109133750Y-111405000D01*
X108766250Y-111405000D01*
X108748239Y-111404115D01*
X108730402Y-111401469D01*
X108712910Y-111397088D01*
X108695932Y-111391013D01*
X108679631Y-111383303D01*
X108664164Y-111374033D01*
X108649680Y-111363291D01*
X108636319Y-111351181D01*
X108624209Y-111337820D01*
X108613467Y-111323336D01*
X108604197Y-111307869D01*
X108596487Y-111291568D01*
X108590412Y-111274590D01*
X108586031Y-111257098D01*
X108583385Y-111239261D01*
X108582500Y-111221250D01*
X108582500Y-110778750D01*
X108583385Y-110760739D01*
X108586031Y-110742902D01*
X108590412Y-110725410D01*
X108596487Y-110708432D01*
X108604197Y-110692131D01*
X108613467Y-110676664D01*
X108624209Y-110662180D01*
X108636319Y-110648819D01*
X108649680Y-110636709D01*
X108664164Y-110625967D01*
X108679631Y-110616697D01*
X108695932Y-110608987D01*
X108712910Y-110602912D01*
X108730402Y-110598531D01*
X108748239Y-110595885D01*
X108766250Y-110595000D01*
X109133750Y-110595000D01*
X109151761Y-110595885D01*
X109151761Y-110595885D01*
G37*
D18*
X108950000Y-111000000D03*
D16*
G36*
X108251761Y-110595885D02*
X108269598Y-110598531D01*
X108287090Y-110602912D01*
X108304068Y-110608987D01*
X108320369Y-110616697D01*
X108335836Y-110625967D01*
X108350320Y-110636709D01*
X108363681Y-110648819D01*
X108375791Y-110662180D01*
X108386533Y-110676664D01*
X108395803Y-110692131D01*
X108403513Y-110708432D01*
X108409588Y-110725410D01*
X108413969Y-110742902D01*
X108416615Y-110760739D01*
X108417500Y-110778750D01*
X108417500Y-111221250D01*
X108416615Y-111239261D01*
X108413969Y-111257098D01*
X108409588Y-111274590D01*
X108403513Y-111291568D01*
X108395803Y-111307869D01*
X108386533Y-111323336D01*
X108375791Y-111337820D01*
X108363681Y-111351181D01*
X108350320Y-111363291D01*
X108335836Y-111374033D01*
X108320369Y-111383303D01*
X108304068Y-111391013D01*
X108287090Y-111397088D01*
X108269598Y-111401469D01*
X108251761Y-111404115D01*
X108233750Y-111405000D01*
X107866250Y-111405000D01*
X107848239Y-111404115D01*
X107830402Y-111401469D01*
X107812910Y-111397088D01*
X107795932Y-111391013D01*
X107779631Y-111383303D01*
X107764164Y-111374033D01*
X107749680Y-111363291D01*
X107736319Y-111351181D01*
X107724209Y-111337820D01*
X107713467Y-111323336D01*
X107704197Y-111307869D01*
X107696487Y-111291568D01*
X107690412Y-111274590D01*
X107686031Y-111257098D01*
X107683385Y-111239261D01*
X107682500Y-111221250D01*
X107682500Y-110778750D01*
X107683385Y-110760739D01*
X107686031Y-110742902D01*
X107690412Y-110725410D01*
X107696487Y-110708432D01*
X107704197Y-110692131D01*
X107713467Y-110676664D01*
X107724209Y-110662180D01*
X107736319Y-110648819D01*
X107749680Y-110636709D01*
X107764164Y-110625967D01*
X107779631Y-110616697D01*
X107795932Y-110608987D01*
X107812910Y-110602912D01*
X107830402Y-110598531D01*
X107848239Y-110595885D01*
X107866250Y-110595000D01*
X108233750Y-110595000D01*
X108251761Y-110595885D01*
X108251761Y-110595885D01*
G37*
D18*
X108050000Y-111000000D03*
D16*
G36*
X98151761Y-102895885D02*
X98169598Y-102898531D01*
X98187090Y-102902912D01*
X98204068Y-102908987D01*
X98220369Y-102916697D01*
X98235836Y-102925967D01*
X98250320Y-102936709D01*
X98263681Y-102948819D01*
X98275791Y-102962180D01*
X98286533Y-102976664D01*
X98295803Y-102992131D01*
X98303513Y-103008432D01*
X98309588Y-103025410D01*
X98313969Y-103042902D01*
X98316615Y-103060739D01*
X98317500Y-103078750D01*
X98317500Y-103521250D01*
X98316615Y-103539261D01*
X98313969Y-103557098D01*
X98309588Y-103574590D01*
X98303513Y-103591568D01*
X98295803Y-103607869D01*
X98286533Y-103623336D01*
X98275791Y-103637820D01*
X98263681Y-103651181D01*
X98250320Y-103663291D01*
X98235836Y-103674033D01*
X98220369Y-103683303D01*
X98204068Y-103691013D01*
X98187090Y-103697088D01*
X98169598Y-103701469D01*
X98151761Y-103704115D01*
X98133750Y-103705000D01*
X97766250Y-103705000D01*
X97748239Y-103704115D01*
X97730402Y-103701469D01*
X97712910Y-103697088D01*
X97695932Y-103691013D01*
X97679631Y-103683303D01*
X97664164Y-103674033D01*
X97649680Y-103663291D01*
X97636319Y-103651181D01*
X97624209Y-103637820D01*
X97613467Y-103623336D01*
X97604197Y-103607869D01*
X97596487Y-103591568D01*
X97590412Y-103574590D01*
X97586031Y-103557098D01*
X97583385Y-103539261D01*
X97582500Y-103521250D01*
X97582500Y-103078750D01*
X97583385Y-103060739D01*
X97586031Y-103042902D01*
X97590412Y-103025410D01*
X97596487Y-103008432D01*
X97604197Y-102992131D01*
X97613467Y-102976664D01*
X97624209Y-102962180D01*
X97636319Y-102948819D01*
X97649680Y-102936709D01*
X97664164Y-102925967D01*
X97679631Y-102916697D01*
X97695932Y-102908987D01*
X97712910Y-102902912D01*
X97730402Y-102898531D01*
X97748239Y-102895885D01*
X97766250Y-102895000D01*
X98133750Y-102895000D01*
X98151761Y-102895885D01*
X98151761Y-102895885D01*
G37*
D18*
X97950000Y-103300000D03*
D16*
G36*
X97251761Y-102895885D02*
X97269598Y-102898531D01*
X97287090Y-102902912D01*
X97304068Y-102908987D01*
X97320369Y-102916697D01*
X97335836Y-102925967D01*
X97350320Y-102936709D01*
X97363681Y-102948819D01*
X97375791Y-102962180D01*
X97386533Y-102976664D01*
X97395803Y-102992131D01*
X97403513Y-103008432D01*
X97409588Y-103025410D01*
X97413969Y-103042902D01*
X97416615Y-103060739D01*
X97417500Y-103078750D01*
X97417500Y-103521250D01*
X97416615Y-103539261D01*
X97413969Y-103557098D01*
X97409588Y-103574590D01*
X97403513Y-103591568D01*
X97395803Y-103607869D01*
X97386533Y-103623336D01*
X97375791Y-103637820D01*
X97363681Y-103651181D01*
X97350320Y-103663291D01*
X97335836Y-103674033D01*
X97320369Y-103683303D01*
X97304068Y-103691013D01*
X97287090Y-103697088D01*
X97269598Y-103701469D01*
X97251761Y-103704115D01*
X97233750Y-103705000D01*
X96866250Y-103705000D01*
X96848239Y-103704115D01*
X96830402Y-103701469D01*
X96812910Y-103697088D01*
X96795932Y-103691013D01*
X96779631Y-103683303D01*
X96764164Y-103674033D01*
X96749680Y-103663291D01*
X96736319Y-103651181D01*
X96724209Y-103637820D01*
X96713467Y-103623336D01*
X96704197Y-103607869D01*
X96696487Y-103591568D01*
X96690412Y-103574590D01*
X96686031Y-103557098D01*
X96683385Y-103539261D01*
X96682500Y-103521250D01*
X96682500Y-103078750D01*
X96683385Y-103060739D01*
X96686031Y-103042902D01*
X96690412Y-103025410D01*
X96696487Y-103008432D01*
X96704197Y-102992131D01*
X96713467Y-102976664D01*
X96724209Y-102962180D01*
X96736319Y-102948819D01*
X96749680Y-102936709D01*
X96764164Y-102925967D01*
X96779631Y-102916697D01*
X96795932Y-102908987D01*
X96812910Y-102902912D01*
X96830402Y-102898531D01*
X96848239Y-102895885D01*
X96866250Y-102895000D01*
X97233750Y-102895000D01*
X97251761Y-102895885D01*
X97251761Y-102895885D01*
G37*
D18*
X97050000Y-103300000D03*
D16*
G36*
X97264261Y-107845885D02*
X97282098Y-107848531D01*
X97299590Y-107852912D01*
X97316568Y-107858987D01*
X97332869Y-107866697D01*
X97348336Y-107875967D01*
X97362820Y-107886709D01*
X97376181Y-107898819D01*
X97388291Y-107912180D01*
X97399033Y-107926664D01*
X97408303Y-107942131D01*
X97416013Y-107958432D01*
X97422088Y-107975410D01*
X97426469Y-107992902D01*
X97429115Y-108010739D01*
X97430000Y-108028750D01*
X97430000Y-108471250D01*
X97429115Y-108489261D01*
X97426469Y-108507098D01*
X97422088Y-108524590D01*
X97416013Y-108541568D01*
X97408303Y-108557869D01*
X97399033Y-108573336D01*
X97388291Y-108587820D01*
X97376181Y-108601181D01*
X97362820Y-108613291D01*
X97348336Y-108624033D01*
X97332869Y-108633303D01*
X97316568Y-108641013D01*
X97299590Y-108647088D01*
X97282098Y-108651469D01*
X97264261Y-108654115D01*
X97246250Y-108655000D01*
X96878750Y-108655000D01*
X96860739Y-108654115D01*
X96842902Y-108651469D01*
X96825410Y-108647088D01*
X96808432Y-108641013D01*
X96792131Y-108633303D01*
X96776664Y-108624033D01*
X96762180Y-108613291D01*
X96748819Y-108601181D01*
X96736709Y-108587820D01*
X96725967Y-108573336D01*
X96716697Y-108557869D01*
X96708987Y-108541568D01*
X96702912Y-108524590D01*
X96698531Y-108507098D01*
X96695885Y-108489261D01*
X96695000Y-108471250D01*
X96695000Y-108028750D01*
X96695885Y-108010739D01*
X96698531Y-107992902D01*
X96702912Y-107975410D01*
X96708987Y-107958432D01*
X96716697Y-107942131D01*
X96725967Y-107926664D01*
X96736709Y-107912180D01*
X96748819Y-107898819D01*
X96762180Y-107886709D01*
X96776664Y-107875967D01*
X96792131Y-107866697D01*
X96808432Y-107858987D01*
X96825410Y-107852912D01*
X96842902Y-107848531D01*
X96860739Y-107845885D01*
X96878750Y-107845000D01*
X97246250Y-107845000D01*
X97264261Y-107845885D01*
X97264261Y-107845885D01*
G37*
D18*
X97062500Y-108250000D03*
D16*
G36*
X98164261Y-107845885D02*
X98182098Y-107848531D01*
X98199590Y-107852912D01*
X98216568Y-107858987D01*
X98232869Y-107866697D01*
X98248336Y-107875967D01*
X98262820Y-107886709D01*
X98276181Y-107898819D01*
X98288291Y-107912180D01*
X98299033Y-107926664D01*
X98308303Y-107942131D01*
X98316013Y-107958432D01*
X98322088Y-107975410D01*
X98326469Y-107992902D01*
X98329115Y-108010739D01*
X98330000Y-108028750D01*
X98330000Y-108471250D01*
X98329115Y-108489261D01*
X98326469Y-108507098D01*
X98322088Y-108524590D01*
X98316013Y-108541568D01*
X98308303Y-108557869D01*
X98299033Y-108573336D01*
X98288291Y-108587820D01*
X98276181Y-108601181D01*
X98262820Y-108613291D01*
X98248336Y-108624033D01*
X98232869Y-108633303D01*
X98216568Y-108641013D01*
X98199590Y-108647088D01*
X98182098Y-108651469D01*
X98164261Y-108654115D01*
X98146250Y-108655000D01*
X97778750Y-108655000D01*
X97760739Y-108654115D01*
X97742902Y-108651469D01*
X97725410Y-108647088D01*
X97708432Y-108641013D01*
X97692131Y-108633303D01*
X97676664Y-108624033D01*
X97662180Y-108613291D01*
X97648819Y-108601181D01*
X97636709Y-108587820D01*
X97625967Y-108573336D01*
X97616697Y-108557869D01*
X97608987Y-108541568D01*
X97602912Y-108524590D01*
X97598531Y-108507098D01*
X97595885Y-108489261D01*
X97595000Y-108471250D01*
X97595000Y-108028750D01*
X97595885Y-108010739D01*
X97598531Y-107992902D01*
X97602912Y-107975410D01*
X97608987Y-107958432D01*
X97616697Y-107942131D01*
X97625967Y-107926664D01*
X97636709Y-107912180D01*
X97648819Y-107898819D01*
X97662180Y-107886709D01*
X97676664Y-107875967D01*
X97692131Y-107866697D01*
X97708432Y-107858987D01*
X97725410Y-107852912D01*
X97742902Y-107848531D01*
X97760739Y-107845885D01*
X97778750Y-107845000D01*
X98146250Y-107845000D01*
X98164261Y-107845885D01*
X98164261Y-107845885D01*
G37*
D18*
X97962500Y-108250000D03*
D16*
G36*
X108251761Y-102845885D02*
X108269598Y-102848531D01*
X108287090Y-102852912D01*
X108304068Y-102858987D01*
X108320369Y-102866697D01*
X108335836Y-102875967D01*
X108350320Y-102886709D01*
X108363681Y-102898819D01*
X108375791Y-102912180D01*
X108386533Y-102926664D01*
X108395803Y-102942131D01*
X108403513Y-102958432D01*
X108409588Y-102975410D01*
X108413969Y-102992902D01*
X108416615Y-103010739D01*
X108417500Y-103028750D01*
X108417500Y-103471250D01*
X108416615Y-103489261D01*
X108413969Y-103507098D01*
X108409588Y-103524590D01*
X108403513Y-103541568D01*
X108395803Y-103557869D01*
X108386533Y-103573336D01*
X108375791Y-103587820D01*
X108363681Y-103601181D01*
X108350320Y-103613291D01*
X108335836Y-103624033D01*
X108320369Y-103633303D01*
X108304068Y-103641013D01*
X108287090Y-103647088D01*
X108269598Y-103651469D01*
X108251761Y-103654115D01*
X108233750Y-103655000D01*
X107866250Y-103655000D01*
X107848239Y-103654115D01*
X107830402Y-103651469D01*
X107812910Y-103647088D01*
X107795932Y-103641013D01*
X107779631Y-103633303D01*
X107764164Y-103624033D01*
X107749680Y-103613291D01*
X107736319Y-103601181D01*
X107724209Y-103587820D01*
X107713467Y-103573336D01*
X107704197Y-103557869D01*
X107696487Y-103541568D01*
X107690412Y-103524590D01*
X107686031Y-103507098D01*
X107683385Y-103489261D01*
X107682500Y-103471250D01*
X107682500Y-103028750D01*
X107683385Y-103010739D01*
X107686031Y-102992902D01*
X107690412Y-102975410D01*
X107696487Y-102958432D01*
X107704197Y-102942131D01*
X107713467Y-102926664D01*
X107724209Y-102912180D01*
X107736319Y-102898819D01*
X107749680Y-102886709D01*
X107764164Y-102875967D01*
X107779631Y-102866697D01*
X107795932Y-102858987D01*
X107812910Y-102852912D01*
X107830402Y-102848531D01*
X107848239Y-102845885D01*
X107866250Y-102845000D01*
X108233750Y-102845000D01*
X108251761Y-102845885D01*
X108251761Y-102845885D01*
G37*
D18*
X108050000Y-103250000D03*
D16*
G36*
X109151761Y-102845885D02*
X109169598Y-102848531D01*
X109187090Y-102852912D01*
X109204068Y-102858987D01*
X109220369Y-102866697D01*
X109235836Y-102875967D01*
X109250320Y-102886709D01*
X109263681Y-102898819D01*
X109275791Y-102912180D01*
X109286533Y-102926664D01*
X109295803Y-102942131D01*
X109303513Y-102958432D01*
X109309588Y-102975410D01*
X109313969Y-102992902D01*
X109316615Y-103010739D01*
X109317500Y-103028750D01*
X109317500Y-103471250D01*
X109316615Y-103489261D01*
X109313969Y-103507098D01*
X109309588Y-103524590D01*
X109303513Y-103541568D01*
X109295803Y-103557869D01*
X109286533Y-103573336D01*
X109275791Y-103587820D01*
X109263681Y-103601181D01*
X109250320Y-103613291D01*
X109235836Y-103624033D01*
X109220369Y-103633303D01*
X109204068Y-103641013D01*
X109187090Y-103647088D01*
X109169598Y-103651469D01*
X109151761Y-103654115D01*
X109133750Y-103655000D01*
X108766250Y-103655000D01*
X108748239Y-103654115D01*
X108730402Y-103651469D01*
X108712910Y-103647088D01*
X108695932Y-103641013D01*
X108679631Y-103633303D01*
X108664164Y-103624033D01*
X108649680Y-103613291D01*
X108636319Y-103601181D01*
X108624209Y-103587820D01*
X108613467Y-103573336D01*
X108604197Y-103557869D01*
X108596487Y-103541568D01*
X108590412Y-103524590D01*
X108586031Y-103507098D01*
X108583385Y-103489261D01*
X108582500Y-103471250D01*
X108582500Y-103028750D01*
X108583385Y-103010739D01*
X108586031Y-102992902D01*
X108590412Y-102975410D01*
X108596487Y-102958432D01*
X108604197Y-102942131D01*
X108613467Y-102926664D01*
X108624209Y-102912180D01*
X108636319Y-102898819D01*
X108649680Y-102886709D01*
X108664164Y-102875967D01*
X108679631Y-102866697D01*
X108695932Y-102858987D01*
X108712910Y-102852912D01*
X108730402Y-102848531D01*
X108748239Y-102845885D01*
X108766250Y-102845000D01*
X109133750Y-102845000D01*
X109151761Y-102845885D01*
X109151761Y-102845885D01*
G37*
D18*
X108950000Y-103250000D03*
D16*
G36*
X93602839Y-108820999D02*
X93622981Y-108823987D01*
X93642734Y-108828935D01*
X93661907Y-108835795D01*
X93680315Y-108844501D01*
X93697781Y-108854970D01*
X93714137Y-108867100D01*
X93729225Y-108880775D01*
X93742900Y-108895863D01*
X93755030Y-108912219D01*
X93765499Y-108929685D01*
X93774205Y-108948093D01*
X93781065Y-108967266D01*
X93786013Y-108987019D01*
X93789001Y-109007161D01*
X93790000Y-109027500D01*
X93790000Y-109772500D01*
X93789001Y-109792839D01*
X93786013Y-109812981D01*
X93781065Y-109832734D01*
X93774205Y-109851907D01*
X93765499Y-109870315D01*
X93755030Y-109887781D01*
X93742900Y-109904137D01*
X93729225Y-109919225D01*
X93714137Y-109932900D01*
X93697781Y-109945030D01*
X93680315Y-109955499D01*
X93661907Y-109964205D01*
X93642734Y-109971065D01*
X93622981Y-109976013D01*
X93602839Y-109979001D01*
X93582500Y-109980000D01*
X93167500Y-109980000D01*
X93147161Y-109979001D01*
X93127019Y-109976013D01*
X93107266Y-109971065D01*
X93088093Y-109964205D01*
X93069685Y-109955499D01*
X93052219Y-109945030D01*
X93035863Y-109932900D01*
X93020775Y-109919225D01*
X93007100Y-109904137D01*
X92994970Y-109887781D01*
X92984501Y-109870315D01*
X92975795Y-109851907D01*
X92968935Y-109832734D01*
X92963987Y-109812981D01*
X92960999Y-109792839D01*
X92960000Y-109772500D01*
X92960000Y-109027500D01*
X92960999Y-109007161D01*
X92963987Y-108987019D01*
X92968935Y-108967266D01*
X92975795Y-108948093D01*
X92984501Y-108929685D01*
X92994970Y-108912219D01*
X93007100Y-108895863D01*
X93020775Y-108880775D01*
X93035863Y-108867100D01*
X93052219Y-108854970D01*
X93069685Y-108844501D01*
X93088093Y-108835795D01*
X93107266Y-108828935D01*
X93127019Y-108823987D01*
X93147161Y-108820999D01*
X93167500Y-108820000D01*
X93582500Y-108820000D01*
X93602839Y-108820999D01*
X93602839Y-108820999D01*
G37*
D19*
X93375000Y-109400000D03*
D16*
G36*
X95352839Y-108820999D02*
X95372981Y-108823987D01*
X95392734Y-108828935D01*
X95411907Y-108835795D01*
X95430315Y-108844501D01*
X95447781Y-108854970D01*
X95464137Y-108867100D01*
X95479225Y-108880775D01*
X95492900Y-108895863D01*
X95505030Y-108912219D01*
X95515499Y-108929685D01*
X95524205Y-108948093D01*
X95531065Y-108967266D01*
X95536013Y-108987019D01*
X95539001Y-109007161D01*
X95540000Y-109027500D01*
X95540000Y-109772500D01*
X95539001Y-109792839D01*
X95536013Y-109812981D01*
X95531065Y-109832734D01*
X95524205Y-109851907D01*
X95515499Y-109870315D01*
X95505030Y-109887781D01*
X95492900Y-109904137D01*
X95479225Y-109919225D01*
X95464137Y-109932900D01*
X95447781Y-109945030D01*
X95430315Y-109955499D01*
X95411907Y-109964205D01*
X95392734Y-109971065D01*
X95372981Y-109976013D01*
X95352839Y-109979001D01*
X95332500Y-109980000D01*
X94917500Y-109980000D01*
X94897161Y-109979001D01*
X94877019Y-109976013D01*
X94857266Y-109971065D01*
X94838093Y-109964205D01*
X94819685Y-109955499D01*
X94802219Y-109945030D01*
X94785863Y-109932900D01*
X94770775Y-109919225D01*
X94757100Y-109904137D01*
X94744970Y-109887781D01*
X94734501Y-109870315D01*
X94725795Y-109851907D01*
X94718935Y-109832734D01*
X94713987Y-109812981D01*
X94710999Y-109792839D01*
X94710000Y-109772500D01*
X94710000Y-109027500D01*
X94710999Y-109007161D01*
X94713987Y-108987019D01*
X94718935Y-108967266D01*
X94725795Y-108948093D01*
X94734501Y-108929685D01*
X94744970Y-108912219D01*
X94757100Y-108895863D01*
X94770775Y-108880775D01*
X94785863Y-108867100D01*
X94802219Y-108854970D01*
X94819685Y-108844501D01*
X94838093Y-108835795D01*
X94857266Y-108828935D01*
X94877019Y-108823987D01*
X94897161Y-108820999D01*
X94917500Y-108820000D01*
X95332500Y-108820000D01*
X95352839Y-108820999D01*
X95352839Y-108820999D01*
G37*
D19*
X95125000Y-109400000D03*
D16*
G36*
X93602839Y-103420999D02*
X93622981Y-103423987D01*
X93642734Y-103428935D01*
X93661907Y-103435795D01*
X93680315Y-103444501D01*
X93697781Y-103454970D01*
X93714137Y-103467100D01*
X93729225Y-103480775D01*
X93742900Y-103495863D01*
X93755030Y-103512219D01*
X93765499Y-103529685D01*
X93774205Y-103548093D01*
X93781065Y-103567266D01*
X93786013Y-103587019D01*
X93789001Y-103607161D01*
X93790000Y-103627500D01*
X93790000Y-104372500D01*
X93789001Y-104392839D01*
X93786013Y-104412981D01*
X93781065Y-104432734D01*
X93774205Y-104451907D01*
X93765499Y-104470315D01*
X93755030Y-104487781D01*
X93742900Y-104504137D01*
X93729225Y-104519225D01*
X93714137Y-104532900D01*
X93697781Y-104545030D01*
X93680315Y-104555499D01*
X93661907Y-104564205D01*
X93642734Y-104571065D01*
X93622981Y-104576013D01*
X93602839Y-104579001D01*
X93582500Y-104580000D01*
X93167500Y-104580000D01*
X93147161Y-104579001D01*
X93127019Y-104576013D01*
X93107266Y-104571065D01*
X93088093Y-104564205D01*
X93069685Y-104555499D01*
X93052219Y-104545030D01*
X93035863Y-104532900D01*
X93020775Y-104519225D01*
X93007100Y-104504137D01*
X92994970Y-104487781D01*
X92984501Y-104470315D01*
X92975795Y-104451907D01*
X92968935Y-104432734D01*
X92963987Y-104412981D01*
X92960999Y-104392839D01*
X92960000Y-104372500D01*
X92960000Y-103627500D01*
X92960999Y-103607161D01*
X92963987Y-103587019D01*
X92968935Y-103567266D01*
X92975795Y-103548093D01*
X92984501Y-103529685D01*
X92994970Y-103512219D01*
X93007100Y-103495863D01*
X93020775Y-103480775D01*
X93035863Y-103467100D01*
X93052219Y-103454970D01*
X93069685Y-103444501D01*
X93088093Y-103435795D01*
X93107266Y-103428935D01*
X93127019Y-103423987D01*
X93147161Y-103420999D01*
X93167500Y-103420000D01*
X93582500Y-103420000D01*
X93602839Y-103420999D01*
X93602839Y-103420999D01*
G37*
D19*
X93375000Y-104000000D03*
D16*
G36*
X95352839Y-103420999D02*
X95372981Y-103423987D01*
X95392734Y-103428935D01*
X95411907Y-103435795D01*
X95430315Y-103444501D01*
X95447781Y-103454970D01*
X95464137Y-103467100D01*
X95479225Y-103480775D01*
X95492900Y-103495863D01*
X95505030Y-103512219D01*
X95515499Y-103529685D01*
X95524205Y-103548093D01*
X95531065Y-103567266D01*
X95536013Y-103587019D01*
X95539001Y-103607161D01*
X95540000Y-103627500D01*
X95540000Y-104372500D01*
X95539001Y-104392839D01*
X95536013Y-104412981D01*
X95531065Y-104432734D01*
X95524205Y-104451907D01*
X95515499Y-104470315D01*
X95505030Y-104487781D01*
X95492900Y-104504137D01*
X95479225Y-104519225D01*
X95464137Y-104532900D01*
X95447781Y-104545030D01*
X95430315Y-104555499D01*
X95411907Y-104564205D01*
X95392734Y-104571065D01*
X95372981Y-104576013D01*
X95352839Y-104579001D01*
X95332500Y-104580000D01*
X94917500Y-104580000D01*
X94897161Y-104579001D01*
X94877019Y-104576013D01*
X94857266Y-104571065D01*
X94838093Y-104564205D01*
X94819685Y-104555499D01*
X94802219Y-104545030D01*
X94785863Y-104532900D01*
X94770775Y-104519225D01*
X94757100Y-104504137D01*
X94744970Y-104487781D01*
X94734501Y-104470315D01*
X94725795Y-104451907D01*
X94718935Y-104432734D01*
X94713987Y-104412981D01*
X94710999Y-104392839D01*
X94710000Y-104372500D01*
X94710000Y-103627500D01*
X94710999Y-103607161D01*
X94713987Y-103587019D01*
X94718935Y-103567266D01*
X94725795Y-103548093D01*
X94734501Y-103529685D01*
X94744970Y-103512219D01*
X94757100Y-103495863D01*
X94770775Y-103480775D01*
X94785863Y-103467100D01*
X94802219Y-103454970D01*
X94819685Y-103444501D01*
X94838093Y-103435795D01*
X94857266Y-103428935D01*
X94877019Y-103423987D01*
X94897161Y-103420999D01*
X94917500Y-103420000D01*
X95332500Y-103420000D01*
X95352839Y-103420999D01*
X95352839Y-103420999D01*
G37*
D19*
X95125000Y-104000000D03*
D16*
G36*
X93552839Y-111420999D02*
X93572981Y-111423987D01*
X93592734Y-111428935D01*
X93611907Y-111435795D01*
X93630315Y-111444501D01*
X93647781Y-111454970D01*
X93664137Y-111467100D01*
X93679225Y-111480775D01*
X93692900Y-111495863D01*
X93705030Y-111512219D01*
X93715499Y-111529685D01*
X93724205Y-111548093D01*
X93731065Y-111567266D01*
X93736013Y-111587019D01*
X93739001Y-111607161D01*
X93740000Y-111627500D01*
X93740000Y-112372500D01*
X93739001Y-112392839D01*
X93736013Y-112412981D01*
X93731065Y-112432734D01*
X93724205Y-112451907D01*
X93715499Y-112470315D01*
X93705030Y-112487781D01*
X93692900Y-112504137D01*
X93679225Y-112519225D01*
X93664137Y-112532900D01*
X93647781Y-112545030D01*
X93630315Y-112555499D01*
X93611907Y-112564205D01*
X93592734Y-112571065D01*
X93572981Y-112576013D01*
X93552839Y-112579001D01*
X93532500Y-112580000D01*
X93117500Y-112580000D01*
X93097161Y-112579001D01*
X93077019Y-112576013D01*
X93057266Y-112571065D01*
X93038093Y-112564205D01*
X93019685Y-112555499D01*
X93002219Y-112545030D01*
X92985863Y-112532900D01*
X92970775Y-112519225D01*
X92957100Y-112504137D01*
X92944970Y-112487781D01*
X92934501Y-112470315D01*
X92925795Y-112451907D01*
X92918935Y-112432734D01*
X92913987Y-112412981D01*
X92910999Y-112392839D01*
X92910000Y-112372500D01*
X92910000Y-111627500D01*
X92910999Y-111607161D01*
X92913987Y-111587019D01*
X92918935Y-111567266D01*
X92925795Y-111548093D01*
X92934501Y-111529685D01*
X92944970Y-111512219D01*
X92957100Y-111495863D01*
X92970775Y-111480775D01*
X92985863Y-111467100D01*
X93002219Y-111454970D01*
X93019685Y-111444501D01*
X93038093Y-111435795D01*
X93057266Y-111428935D01*
X93077019Y-111423987D01*
X93097161Y-111420999D01*
X93117500Y-111420000D01*
X93532500Y-111420000D01*
X93552839Y-111420999D01*
X93552839Y-111420999D01*
G37*
D19*
X93325000Y-112000000D03*
D16*
G36*
X95152839Y-111420999D02*
X95172981Y-111423987D01*
X95192734Y-111428935D01*
X95211907Y-111435795D01*
X95230315Y-111444501D01*
X95247781Y-111454970D01*
X95264137Y-111467100D01*
X95279225Y-111480775D01*
X95292900Y-111495863D01*
X95305030Y-111512219D01*
X95315499Y-111529685D01*
X95324205Y-111548093D01*
X95331065Y-111567266D01*
X95336013Y-111587019D01*
X95339001Y-111607161D01*
X95340000Y-111627500D01*
X95340000Y-112372500D01*
X95339001Y-112392839D01*
X95336013Y-112412981D01*
X95331065Y-112432734D01*
X95324205Y-112451907D01*
X95315499Y-112470315D01*
X95305030Y-112487781D01*
X95292900Y-112504137D01*
X95279225Y-112519225D01*
X95264137Y-112532900D01*
X95247781Y-112545030D01*
X95230315Y-112555499D01*
X95211907Y-112564205D01*
X95192734Y-112571065D01*
X95172981Y-112576013D01*
X95152839Y-112579001D01*
X95132500Y-112580000D01*
X94717500Y-112580000D01*
X94697161Y-112579001D01*
X94677019Y-112576013D01*
X94657266Y-112571065D01*
X94638093Y-112564205D01*
X94619685Y-112555499D01*
X94602219Y-112545030D01*
X94585863Y-112532900D01*
X94570775Y-112519225D01*
X94557100Y-112504137D01*
X94544970Y-112487781D01*
X94534501Y-112470315D01*
X94525795Y-112451907D01*
X94518935Y-112432734D01*
X94513987Y-112412981D01*
X94510999Y-112392839D01*
X94510000Y-112372500D01*
X94510000Y-111627500D01*
X94510999Y-111607161D01*
X94513987Y-111587019D01*
X94518935Y-111567266D01*
X94525795Y-111548093D01*
X94534501Y-111529685D01*
X94544970Y-111512219D01*
X94557100Y-111495863D01*
X94570775Y-111480775D01*
X94585863Y-111467100D01*
X94602219Y-111454970D01*
X94619685Y-111444501D01*
X94638093Y-111435795D01*
X94657266Y-111428935D01*
X94677019Y-111423987D01*
X94697161Y-111420999D01*
X94717500Y-111420000D01*
X95132500Y-111420000D01*
X95152839Y-111420999D01*
X95152839Y-111420999D01*
G37*
D19*
X94925000Y-112000000D03*
D16*
G36*
X95152839Y-99420999D02*
X95172981Y-99423987D01*
X95192734Y-99428935D01*
X95211907Y-99435795D01*
X95230315Y-99444501D01*
X95247781Y-99454970D01*
X95264137Y-99467100D01*
X95279225Y-99480775D01*
X95292900Y-99495863D01*
X95305030Y-99512219D01*
X95315499Y-99529685D01*
X95324205Y-99548093D01*
X95331065Y-99567266D01*
X95336013Y-99587019D01*
X95339001Y-99607161D01*
X95340000Y-99627500D01*
X95340000Y-100372500D01*
X95339001Y-100392839D01*
X95336013Y-100412981D01*
X95331065Y-100432734D01*
X95324205Y-100451907D01*
X95315499Y-100470315D01*
X95305030Y-100487781D01*
X95292900Y-100504137D01*
X95279225Y-100519225D01*
X95264137Y-100532900D01*
X95247781Y-100545030D01*
X95230315Y-100555499D01*
X95211907Y-100564205D01*
X95192734Y-100571065D01*
X95172981Y-100576013D01*
X95152839Y-100579001D01*
X95132500Y-100580000D01*
X94717500Y-100580000D01*
X94697161Y-100579001D01*
X94677019Y-100576013D01*
X94657266Y-100571065D01*
X94638093Y-100564205D01*
X94619685Y-100555499D01*
X94602219Y-100545030D01*
X94585863Y-100532900D01*
X94570775Y-100519225D01*
X94557100Y-100504137D01*
X94544970Y-100487781D01*
X94534501Y-100470315D01*
X94525795Y-100451907D01*
X94518935Y-100432734D01*
X94513987Y-100412981D01*
X94510999Y-100392839D01*
X94510000Y-100372500D01*
X94510000Y-99627500D01*
X94510999Y-99607161D01*
X94513987Y-99587019D01*
X94518935Y-99567266D01*
X94525795Y-99548093D01*
X94534501Y-99529685D01*
X94544970Y-99512219D01*
X94557100Y-99495863D01*
X94570775Y-99480775D01*
X94585863Y-99467100D01*
X94602219Y-99454970D01*
X94619685Y-99444501D01*
X94638093Y-99435795D01*
X94657266Y-99428935D01*
X94677019Y-99423987D01*
X94697161Y-99420999D01*
X94717500Y-99420000D01*
X95132500Y-99420000D01*
X95152839Y-99420999D01*
X95152839Y-99420999D01*
G37*
D19*
X94925000Y-100000000D03*
D16*
G36*
X93552839Y-99420999D02*
X93572981Y-99423987D01*
X93592734Y-99428935D01*
X93611907Y-99435795D01*
X93630315Y-99444501D01*
X93647781Y-99454970D01*
X93664137Y-99467100D01*
X93679225Y-99480775D01*
X93692900Y-99495863D01*
X93705030Y-99512219D01*
X93715499Y-99529685D01*
X93724205Y-99548093D01*
X93731065Y-99567266D01*
X93736013Y-99587019D01*
X93739001Y-99607161D01*
X93740000Y-99627500D01*
X93740000Y-100372500D01*
X93739001Y-100392839D01*
X93736013Y-100412981D01*
X93731065Y-100432734D01*
X93724205Y-100451907D01*
X93715499Y-100470315D01*
X93705030Y-100487781D01*
X93692900Y-100504137D01*
X93679225Y-100519225D01*
X93664137Y-100532900D01*
X93647781Y-100545030D01*
X93630315Y-100555499D01*
X93611907Y-100564205D01*
X93592734Y-100571065D01*
X93572981Y-100576013D01*
X93552839Y-100579001D01*
X93532500Y-100580000D01*
X93117500Y-100580000D01*
X93097161Y-100579001D01*
X93077019Y-100576013D01*
X93057266Y-100571065D01*
X93038093Y-100564205D01*
X93019685Y-100555499D01*
X93002219Y-100545030D01*
X92985863Y-100532900D01*
X92970775Y-100519225D01*
X92957100Y-100504137D01*
X92944970Y-100487781D01*
X92934501Y-100470315D01*
X92925795Y-100451907D01*
X92918935Y-100432734D01*
X92913987Y-100412981D01*
X92910999Y-100392839D01*
X92910000Y-100372500D01*
X92910000Y-99627500D01*
X92910999Y-99607161D01*
X92913987Y-99587019D01*
X92918935Y-99567266D01*
X92925795Y-99548093D01*
X92934501Y-99529685D01*
X92944970Y-99512219D01*
X92957100Y-99495863D01*
X92970775Y-99480775D01*
X92985863Y-99467100D01*
X93002219Y-99454970D01*
X93019685Y-99444501D01*
X93038093Y-99435795D01*
X93057266Y-99428935D01*
X93077019Y-99423987D01*
X93097161Y-99420999D01*
X93117500Y-99420000D01*
X93532500Y-99420000D01*
X93552839Y-99420999D01*
X93552839Y-99420999D01*
G37*
D19*
X93325000Y-100000000D03*
D16*
G36*
X97139261Y-111595885D02*
X97157098Y-111598531D01*
X97174590Y-111602912D01*
X97191568Y-111608987D01*
X97207869Y-111616697D01*
X97223336Y-111625967D01*
X97237820Y-111636709D01*
X97251181Y-111648819D01*
X97263291Y-111662180D01*
X97274033Y-111676664D01*
X97283303Y-111692131D01*
X97291013Y-111708432D01*
X97297088Y-111725410D01*
X97301469Y-111742902D01*
X97304115Y-111760739D01*
X97305000Y-111778750D01*
X97305000Y-112221250D01*
X97304115Y-112239261D01*
X97301469Y-112257098D01*
X97297088Y-112274590D01*
X97291013Y-112291568D01*
X97283303Y-112307869D01*
X97274033Y-112323336D01*
X97263291Y-112337820D01*
X97251181Y-112351181D01*
X97237820Y-112363291D01*
X97223336Y-112374033D01*
X97207869Y-112383303D01*
X97191568Y-112391013D01*
X97174590Y-112397088D01*
X97157098Y-112401469D01*
X97139261Y-112404115D01*
X97121250Y-112405000D01*
X96753750Y-112405000D01*
X96735739Y-112404115D01*
X96717902Y-112401469D01*
X96700410Y-112397088D01*
X96683432Y-112391013D01*
X96667131Y-112383303D01*
X96651664Y-112374033D01*
X96637180Y-112363291D01*
X96623819Y-112351181D01*
X96611709Y-112337820D01*
X96600967Y-112323336D01*
X96591697Y-112307869D01*
X96583987Y-112291568D01*
X96577912Y-112274590D01*
X96573531Y-112257098D01*
X96570885Y-112239261D01*
X96570000Y-112221250D01*
X96570000Y-111778750D01*
X96570885Y-111760739D01*
X96573531Y-111742902D01*
X96577912Y-111725410D01*
X96583987Y-111708432D01*
X96591697Y-111692131D01*
X96600967Y-111676664D01*
X96611709Y-111662180D01*
X96623819Y-111648819D01*
X96637180Y-111636709D01*
X96651664Y-111625967D01*
X96667131Y-111616697D01*
X96683432Y-111608987D01*
X96700410Y-111602912D01*
X96717902Y-111598531D01*
X96735739Y-111595885D01*
X96753750Y-111595000D01*
X97121250Y-111595000D01*
X97139261Y-111595885D01*
X97139261Y-111595885D01*
G37*
D18*
X96937500Y-112000000D03*
D16*
G36*
X96239261Y-111595885D02*
X96257098Y-111598531D01*
X96274590Y-111602912D01*
X96291568Y-111608987D01*
X96307869Y-111616697D01*
X96323336Y-111625967D01*
X96337820Y-111636709D01*
X96351181Y-111648819D01*
X96363291Y-111662180D01*
X96374033Y-111676664D01*
X96383303Y-111692131D01*
X96391013Y-111708432D01*
X96397088Y-111725410D01*
X96401469Y-111742902D01*
X96404115Y-111760739D01*
X96405000Y-111778750D01*
X96405000Y-112221250D01*
X96404115Y-112239261D01*
X96401469Y-112257098D01*
X96397088Y-112274590D01*
X96391013Y-112291568D01*
X96383303Y-112307869D01*
X96374033Y-112323336D01*
X96363291Y-112337820D01*
X96351181Y-112351181D01*
X96337820Y-112363291D01*
X96323336Y-112374033D01*
X96307869Y-112383303D01*
X96291568Y-112391013D01*
X96274590Y-112397088D01*
X96257098Y-112401469D01*
X96239261Y-112404115D01*
X96221250Y-112405000D01*
X95853750Y-112405000D01*
X95835739Y-112404115D01*
X95817902Y-112401469D01*
X95800410Y-112397088D01*
X95783432Y-112391013D01*
X95767131Y-112383303D01*
X95751664Y-112374033D01*
X95737180Y-112363291D01*
X95723819Y-112351181D01*
X95711709Y-112337820D01*
X95700967Y-112323336D01*
X95691697Y-112307869D01*
X95683987Y-112291568D01*
X95677912Y-112274590D01*
X95673531Y-112257098D01*
X95670885Y-112239261D01*
X95670000Y-112221250D01*
X95670000Y-111778750D01*
X95670885Y-111760739D01*
X95673531Y-111742902D01*
X95677912Y-111725410D01*
X95683987Y-111708432D01*
X95691697Y-111692131D01*
X95700967Y-111676664D01*
X95711709Y-111662180D01*
X95723819Y-111648819D01*
X95737180Y-111636709D01*
X95751664Y-111625967D01*
X95767131Y-111616697D01*
X95783432Y-111608987D01*
X95800410Y-111602912D01*
X95817902Y-111598531D01*
X95835739Y-111595885D01*
X95853750Y-111595000D01*
X96221250Y-111595000D01*
X96239261Y-111595885D01*
X96239261Y-111595885D01*
G37*
D18*
X96037500Y-112000000D03*
D16*
G36*
X98139261Y-99595885D02*
X98157098Y-99598531D01*
X98174590Y-99602912D01*
X98191568Y-99608987D01*
X98207869Y-99616697D01*
X98223336Y-99625967D01*
X98237820Y-99636709D01*
X98251181Y-99648819D01*
X98263291Y-99662180D01*
X98274033Y-99676664D01*
X98283303Y-99692131D01*
X98291013Y-99708432D01*
X98297088Y-99725410D01*
X98301469Y-99742902D01*
X98304115Y-99760739D01*
X98305000Y-99778750D01*
X98305000Y-100221250D01*
X98304115Y-100239261D01*
X98301469Y-100257098D01*
X98297088Y-100274590D01*
X98291013Y-100291568D01*
X98283303Y-100307869D01*
X98274033Y-100323336D01*
X98263291Y-100337820D01*
X98251181Y-100351181D01*
X98237820Y-100363291D01*
X98223336Y-100374033D01*
X98207869Y-100383303D01*
X98191568Y-100391013D01*
X98174590Y-100397088D01*
X98157098Y-100401469D01*
X98139261Y-100404115D01*
X98121250Y-100405000D01*
X97753750Y-100405000D01*
X97735739Y-100404115D01*
X97717902Y-100401469D01*
X97700410Y-100397088D01*
X97683432Y-100391013D01*
X97667131Y-100383303D01*
X97651664Y-100374033D01*
X97637180Y-100363291D01*
X97623819Y-100351181D01*
X97611709Y-100337820D01*
X97600967Y-100323336D01*
X97591697Y-100307869D01*
X97583987Y-100291568D01*
X97577912Y-100274590D01*
X97573531Y-100257098D01*
X97570885Y-100239261D01*
X97570000Y-100221250D01*
X97570000Y-99778750D01*
X97570885Y-99760739D01*
X97573531Y-99742902D01*
X97577912Y-99725410D01*
X97583987Y-99708432D01*
X97591697Y-99692131D01*
X97600967Y-99676664D01*
X97611709Y-99662180D01*
X97623819Y-99648819D01*
X97637180Y-99636709D01*
X97651664Y-99625967D01*
X97667131Y-99616697D01*
X97683432Y-99608987D01*
X97700410Y-99602912D01*
X97717902Y-99598531D01*
X97735739Y-99595885D01*
X97753750Y-99595000D01*
X98121250Y-99595000D01*
X98139261Y-99595885D01*
X98139261Y-99595885D01*
G37*
D18*
X97937500Y-100000000D03*
D16*
G36*
X97239261Y-99595885D02*
X97257098Y-99598531D01*
X97274590Y-99602912D01*
X97291568Y-99608987D01*
X97307869Y-99616697D01*
X97323336Y-99625967D01*
X97337820Y-99636709D01*
X97351181Y-99648819D01*
X97363291Y-99662180D01*
X97374033Y-99676664D01*
X97383303Y-99692131D01*
X97391013Y-99708432D01*
X97397088Y-99725410D01*
X97401469Y-99742902D01*
X97404115Y-99760739D01*
X97405000Y-99778750D01*
X97405000Y-100221250D01*
X97404115Y-100239261D01*
X97401469Y-100257098D01*
X97397088Y-100274590D01*
X97391013Y-100291568D01*
X97383303Y-100307869D01*
X97374033Y-100323336D01*
X97363291Y-100337820D01*
X97351181Y-100351181D01*
X97337820Y-100363291D01*
X97323336Y-100374033D01*
X97307869Y-100383303D01*
X97291568Y-100391013D01*
X97274590Y-100397088D01*
X97257098Y-100401469D01*
X97239261Y-100404115D01*
X97221250Y-100405000D01*
X96853750Y-100405000D01*
X96835739Y-100404115D01*
X96817902Y-100401469D01*
X96800410Y-100397088D01*
X96783432Y-100391013D01*
X96767131Y-100383303D01*
X96751664Y-100374033D01*
X96737180Y-100363291D01*
X96723819Y-100351181D01*
X96711709Y-100337820D01*
X96700967Y-100323336D01*
X96691697Y-100307869D01*
X96683987Y-100291568D01*
X96677912Y-100274590D01*
X96673531Y-100257098D01*
X96670885Y-100239261D01*
X96670000Y-100221250D01*
X96670000Y-99778750D01*
X96670885Y-99760739D01*
X96673531Y-99742902D01*
X96677912Y-99725410D01*
X96683987Y-99708432D01*
X96691697Y-99692131D01*
X96700967Y-99676664D01*
X96711709Y-99662180D01*
X96723819Y-99648819D01*
X96737180Y-99636709D01*
X96751664Y-99625967D01*
X96767131Y-99616697D01*
X96783432Y-99608987D01*
X96800410Y-99602912D01*
X96817902Y-99598531D01*
X96835739Y-99595885D01*
X96853750Y-99595000D01*
X97221250Y-99595000D01*
X97239261Y-99595885D01*
X97239261Y-99595885D01*
G37*
D18*
X97037500Y-100000000D03*
D16*
G36*
X108251761Y-109595885D02*
X108269598Y-109598531D01*
X108287090Y-109602912D01*
X108304068Y-109608987D01*
X108320369Y-109616697D01*
X108335836Y-109625967D01*
X108350320Y-109636709D01*
X108363681Y-109648819D01*
X108375791Y-109662180D01*
X108386533Y-109676664D01*
X108395803Y-109692131D01*
X108403513Y-109708432D01*
X108409588Y-109725410D01*
X108413969Y-109742902D01*
X108416615Y-109760739D01*
X108417500Y-109778750D01*
X108417500Y-110221250D01*
X108416615Y-110239261D01*
X108413969Y-110257098D01*
X108409588Y-110274590D01*
X108403513Y-110291568D01*
X108395803Y-110307869D01*
X108386533Y-110323336D01*
X108375791Y-110337820D01*
X108363681Y-110351181D01*
X108350320Y-110363291D01*
X108335836Y-110374033D01*
X108320369Y-110383303D01*
X108304068Y-110391013D01*
X108287090Y-110397088D01*
X108269598Y-110401469D01*
X108251761Y-110404115D01*
X108233750Y-110405000D01*
X107866250Y-110405000D01*
X107848239Y-110404115D01*
X107830402Y-110401469D01*
X107812910Y-110397088D01*
X107795932Y-110391013D01*
X107779631Y-110383303D01*
X107764164Y-110374033D01*
X107749680Y-110363291D01*
X107736319Y-110351181D01*
X107724209Y-110337820D01*
X107713467Y-110323336D01*
X107704197Y-110307869D01*
X107696487Y-110291568D01*
X107690412Y-110274590D01*
X107686031Y-110257098D01*
X107683385Y-110239261D01*
X107682500Y-110221250D01*
X107682500Y-109778750D01*
X107683385Y-109760739D01*
X107686031Y-109742902D01*
X107690412Y-109725410D01*
X107696487Y-109708432D01*
X107704197Y-109692131D01*
X107713467Y-109676664D01*
X107724209Y-109662180D01*
X107736319Y-109648819D01*
X107749680Y-109636709D01*
X107764164Y-109625967D01*
X107779631Y-109616697D01*
X107795932Y-109608987D01*
X107812910Y-109602912D01*
X107830402Y-109598531D01*
X107848239Y-109595885D01*
X107866250Y-109595000D01*
X108233750Y-109595000D01*
X108251761Y-109595885D01*
X108251761Y-109595885D01*
G37*
D18*
X108050000Y-110000000D03*
D16*
G36*
X109151761Y-109595885D02*
X109169598Y-109598531D01*
X109187090Y-109602912D01*
X109204068Y-109608987D01*
X109220369Y-109616697D01*
X109235836Y-109625967D01*
X109250320Y-109636709D01*
X109263681Y-109648819D01*
X109275791Y-109662180D01*
X109286533Y-109676664D01*
X109295803Y-109692131D01*
X109303513Y-109708432D01*
X109309588Y-109725410D01*
X109313969Y-109742902D01*
X109316615Y-109760739D01*
X109317500Y-109778750D01*
X109317500Y-110221250D01*
X109316615Y-110239261D01*
X109313969Y-110257098D01*
X109309588Y-110274590D01*
X109303513Y-110291568D01*
X109295803Y-110307869D01*
X109286533Y-110323336D01*
X109275791Y-110337820D01*
X109263681Y-110351181D01*
X109250320Y-110363291D01*
X109235836Y-110374033D01*
X109220369Y-110383303D01*
X109204068Y-110391013D01*
X109187090Y-110397088D01*
X109169598Y-110401469D01*
X109151761Y-110404115D01*
X109133750Y-110405000D01*
X108766250Y-110405000D01*
X108748239Y-110404115D01*
X108730402Y-110401469D01*
X108712910Y-110397088D01*
X108695932Y-110391013D01*
X108679631Y-110383303D01*
X108664164Y-110374033D01*
X108649680Y-110363291D01*
X108636319Y-110351181D01*
X108624209Y-110337820D01*
X108613467Y-110323336D01*
X108604197Y-110307869D01*
X108596487Y-110291568D01*
X108590412Y-110274590D01*
X108586031Y-110257098D01*
X108583385Y-110239261D01*
X108582500Y-110221250D01*
X108582500Y-109778750D01*
X108583385Y-109760739D01*
X108586031Y-109742902D01*
X108590412Y-109725410D01*
X108596487Y-109708432D01*
X108604197Y-109692131D01*
X108613467Y-109676664D01*
X108624209Y-109662180D01*
X108636319Y-109648819D01*
X108649680Y-109636709D01*
X108664164Y-109625967D01*
X108679631Y-109616697D01*
X108695932Y-109608987D01*
X108712910Y-109602912D01*
X108730402Y-109598531D01*
X108748239Y-109595885D01*
X108766250Y-109595000D01*
X109133750Y-109595000D01*
X109151761Y-109595885D01*
X109151761Y-109595885D01*
G37*
D18*
X108950000Y-110000000D03*
D16*
G36*
X109151761Y-108595885D02*
X109169598Y-108598531D01*
X109187090Y-108602912D01*
X109204068Y-108608987D01*
X109220369Y-108616697D01*
X109235836Y-108625967D01*
X109250320Y-108636709D01*
X109263681Y-108648819D01*
X109275791Y-108662180D01*
X109286533Y-108676664D01*
X109295803Y-108692131D01*
X109303513Y-108708432D01*
X109309588Y-108725410D01*
X109313969Y-108742902D01*
X109316615Y-108760739D01*
X109317500Y-108778750D01*
X109317500Y-109221250D01*
X109316615Y-109239261D01*
X109313969Y-109257098D01*
X109309588Y-109274590D01*
X109303513Y-109291568D01*
X109295803Y-109307869D01*
X109286533Y-109323336D01*
X109275791Y-109337820D01*
X109263681Y-109351181D01*
X109250320Y-109363291D01*
X109235836Y-109374033D01*
X109220369Y-109383303D01*
X109204068Y-109391013D01*
X109187090Y-109397088D01*
X109169598Y-109401469D01*
X109151761Y-109404115D01*
X109133750Y-109405000D01*
X108766250Y-109405000D01*
X108748239Y-109404115D01*
X108730402Y-109401469D01*
X108712910Y-109397088D01*
X108695932Y-109391013D01*
X108679631Y-109383303D01*
X108664164Y-109374033D01*
X108649680Y-109363291D01*
X108636319Y-109351181D01*
X108624209Y-109337820D01*
X108613467Y-109323336D01*
X108604197Y-109307869D01*
X108596487Y-109291568D01*
X108590412Y-109274590D01*
X108586031Y-109257098D01*
X108583385Y-109239261D01*
X108582500Y-109221250D01*
X108582500Y-108778750D01*
X108583385Y-108760739D01*
X108586031Y-108742902D01*
X108590412Y-108725410D01*
X108596487Y-108708432D01*
X108604197Y-108692131D01*
X108613467Y-108676664D01*
X108624209Y-108662180D01*
X108636319Y-108648819D01*
X108649680Y-108636709D01*
X108664164Y-108625967D01*
X108679631Y-108616697D01*
X108695932Y-108608987D01*
X108712910Y-108602912D01*
X108730402Y-108598531D01*
X108748239Y-108595885D01*
X108766250Y-108595000D01*
X109133750Y-108595000D01*
X109151761Y-108595885D01*
X109151761Y-108595885D01*
G37*
D18*
X108950000Y-109000000D03*
D16*
G36*
X108251761Y-108595885D02*
X108269598Y-108598531D01*
X108287090Y-108602912D01*
X108304068Y-108608987D01*
X108320369Y-108616697D01*
X108335836Y-108625967D01*
X108350320Y-108636709D01*
X108363681Y-108648819D01*
X108375791Y-108662180D01*
X108386533Y-108676664D01*
X108395803Y-108692131D01*
X108403513Y-108708432D01*
X108409588Y-108725410D01*
X108413969Y-108742902D01*
X108416615Y-108760739D01*
X108417500Y-108778750D01*
X108417500Y-109221250D01*
X108416615Y-109239261D01*
X108413969Y-109257098D01*
X108409588Y-109274590D01*
X108403513Y-109291568D01*
X108395803Y-109307869D01*
X108386533Y-109323336D01*
X108375791Y-109337820D01*
X108363681Y-109351181D01*
X108350320Y-109363291D01*
X108335836Y-109374033D01*
X108320369Y-109383303D01*
X108304068Y-109391013D01*
X108287090Y-109397088D01*
X108269598Y-109401469D01*
X108251761Y-109404115D01*
X108233750Y-109405000D01*
X107866250Y-109405000D01*
X107848239Y-109404115D01*
X107830402Y-109401469D01*
X107812910Y-109397088D01*
X107795932Y-109391013D01*
X107779631Y-109383303D01*
X107764164Y-109374033D01*
X107749680Y-109363291D01*
X107736319Y-109351181D01*
X107724209Y-109337820D01*
X107713467Y-109323336D01*
X107704197Y-109307869D01*
X107696487Y-109291568D01*
X107690412Y-109274590D01*
X107686031Y-109257098D01*
X107683385Y-109239261D01*
X107682500Y-109221250D01*
X107682500Y-108778750D01*
X107683385Y-108760739D01*
X107686031Y-108742902D01*
X107690412Y-108725410D01*
X107696487Y-108708432D01*
X107704197Y-108692131D01*
X107713467Y-108676664D01*
X107724209Y-108662180D01*
X107736319Y-108648819D01*
X107749680Y-108636709D01*
X107764164Y-108625967D01*
X107779631Y-108616697D01*
X107795932Y-108608987D01*
X107812910Y-108602912D01*
X107830402Y-108598531D01*
X107848239Y-108595885D01*
X107866250Y-108595000D01*
X108233750Y-108595000D01*
X108251761Y-108595885D01*
X108251761Y-108595885D01*
G37*
D18*
X108050000Y-109000000D03*
D16*
G36*
X109151761Y-105595885D02*
X109169598Y-105598531D01*
X109187090Y-105602912D01*
X109204068Y-105608987D01*
X109220369Y-105616697D01*
X109235836Y-105625967D01*
X109250320Y-105636709D01*
X109263681Y-105648819D01*
X109275791Y-105662180D01*
X109286533Y-105676664D01*
X109295803Y-105692131D01*
X109303513Y-105708432D01*
X109309588Y-105725410D01*
X109313969Y-105742902D01*
X109316615Y-105760739D01*
X109317500Y-105778750D01*
X109317500Y-106221250D01*
X109316615Y-106239261D01*
X109313969Y-106257098D01*
X109309588Y-106274590D01*
X109303513Y-106291568D01*
X109295803Y-106307869D01*
X109286533Y-106323336D01*
X109275791Y-106337820D01*
X109263681Y-106351181D01*
X109250320Y-106363291D01*
X109235836Y-106374033D01*
X109220369Y-106383303D01*
X109204068Y-106391013D01*
X109187090Y-106397088D01*
X109169598Y-106401469D01*
X109151761Y-106404115D01*
X109133750Y-106405000D01*
X108766250Y-106405000D01*
X108748239Y-106404115D01*
X108730402Y-106401469D01*
X108712910Y-106397088D01*
X108695932Y-106391013D01*
X108679631Y-106383303D01*
X108664164Y-106374033D01*
X108649680Y-106363291D01*
X108636319Y-106351181D01*
X108624209Y-106337820D01*
X108613467Y-106323336D01*
X108604197Y-106307869D01*
X108596487Y-106291568D01*
X108590412Y-106274590D01*
X108586031Y-106257098D01*
X108583385Y-106239261D01*
X108582500Y-106221250D01*
X108582500Y-105778750D01*
X108583385Y-105760739D01*
X108586031Y-105742902D01*
X108590412Y-105725410D01*
X108596487Y-105708432D01*
X108604197Y-105692131D01*
X108613467Y-105676664D01*
X108624209Y-105662180D01*
X108636319Y-105648819D01*
X108649680Y-105636709D01*
X108664164Y-105625967D01*
X108679631Y-105616697D01*
X108695932Y-105608987D01*
X108712910Y-105602912D01*
X108730402Y-105598531D01*
X108748239Y-105595885D01*
X108766250Y-105595000D01*
X109133750Y-105595000D01*
X109151761Y-105595885D01*
X109151761Y-105595885D01*
G37*
D18*
X108950000Y-106000000D03*
D16*
G36*
X108251761Y-105595885D02*
X108269598Y-105598531D01*
X108287090Y-105602912D01*
X108304068Y-105608987D01*
X108320369Y-105616697D01*
X108335836Y-105625967D01*
X108350320Y-105636709D01*
X108363681Y-105648819D01*
X108375791Y-105662180D01*
X108386533Y-105676664D01*
X108395803Y-105692131D01*
X108403513Y-105708432D01*
X108409588Y-105725410D01*
X108413969Y-105742902D01*
X108416615Y-105760739D01*
X108417500Y-105778750D01*
X108417500Y-106221250D01*
X108416615Y-106239261D01*
X108413969Y-106257098D01*
X108409588Y-106274590D01*
X108403513Y-106291568D01*
X108395803Y-106307869D01*
X108386533Y-106323336D01*
X108375791Y-106337820D01*
X108363681Y-106351181D01*
X108350320Y-106363291D01*
X108335836Y-106374033D01*
X108320369Y-106383303D01*
X108304068Y-106391013D01*
X108287090Y-106397088D01*
X108269598Y-106401469D01*
X108251761Y-106404115D01*
X108233750Y-106405000D01*
X107866250Y-106405000D01*
X107848239Y-106404115D01*
X107830402Y-106401469D01*
X107812910Y-106397088D01*
X107795932Y-106391013D01*
X107779631Y-106383303D01*
X107764164Y-106374033D01*
X107749680Y-106363291D01*
X107736319Y-106351181D01*
X107724209Y-106337820D01*
X107713467Y-106323336D01*
X107704197Y-106307869D01*
X107696487Y-106291568D01*
X107690412Y-106274590D01*
X107686031Y-106257098D01*
X107683385Y-106239261D01*
X107682500Y-106221250D01*
X107682500Y-105778750D01*
X107683385Y-105760739D01*
X107686031Y-105742902D01*
X107690412Y-105725410D01*
X107696487Y-105708432D01*
X107704197Y-105692131D01*
X107713467Y-105676664D01*
X107724209Y-105662180D01*
X107736319Y-105648819D01*
X107749680Y-105636709D01*
X107764164Y-105625967D01*
X107779631Y-105616697D01*
X107795932Y-105608987D01*
X107812910Y-105602912D01*
X107830402Y-105598531D01*
X107848239Y-105595885D01*
X107866250Y-105595000D01*
X108233750Y-105595000D01*
X108251761Y-105595885D01*
X108251761Y-105595885D01*
G37*
D18*
X108050000Y-106000000D03*
D16*
G36*
X104739261Y-111283385D02*
X104757098Y-111286031D01*
X104774590Y-111290412D01*
X104791568Y-111296487D01*
X104807869Y-111304197D01*
X104823336Y-111313467D01*
X104837820Y-111324209D01*
X104851181Y-111336319D01*
X104863291Y-111349680D01*
X104874033Y-111364164D01*
X104883303Y-111379631D01*
X104891013Y-111395932D01*
X104897088Y-111412910D01*
X104901469Y-111430402D01*
X104904115Y-111448239D01*
X104905000Y-111466250D01*
X104905000Y-111833750D01*
X104904115Y-111851761D01*
X104901469Y-111869598D01*
X104897088Y-111887090D01*
X104891013Y-111904068D01*
X104883303Y-111920369D01*
X104874033Y-111935836D01*
X104863291Y-111950320D01*
X104851181Y-111963681D01*
X104837820Y-111975791D01*
X104823336Y-111986533D01*
X104807869Y-111995803D01*
X104791568Y-112003513D01*
X104774590Y-112009588D01*
X104757098Y-112013969D01*
X104739261Y-112016615D01*
X104721250Y-112017500D01*
X104278750Y-112017500D01*
X104260739Y-112016615D01*
X104242902Y-112013969D01*
X104225410Y-112009588D01*
X104208432Y-112003513D01*
X104192131Y-111995803D01*
X104176664Y-111986533D01*
X104162180Y-111975791D01*
X104148819Y-111963681D01*
X104136709Y-111950320D01*
X104125967Y-111935836D01*
X104116697Y-111920369D01*
X104108987Y-111904068D01*
X104102912Y-111887090D01*
X104098531Y-111869598D01*
X104095885Y-111851761D01*
X104095000Y-111833750D01*
X104095000Y-111466250D01*
X104095885Y-111448239D01*
X104098531Y-111430402D01*
X104102912Y-111412910D01*
X104108987Y-111395932D01*
X104116697Y-111379631D01*
X104125967Y-111364164D01*
X104136709Y-111349680D01*
X104148819Y-111336319D01*
X104162180Y-111324209D01*
X104176664Y-111313467D01*
X104192131Y-111304197D01*
X104208432Y-111296487D01*
X104225410Y-111290412D01*
X104242902Y-111286031D01*
X104260739Y-111283385D01*
X104278750Y-111282500D01*
X104721250Y-111282500D01*
X104739261Y-111283385D01*
X104739261Y-111283385D01*
G37*
D18*
X104500000Y-111650000D03*
D16*
G36*
X104739261Y-110383385D02*
X104757098Y-110386031D01*
X104774590Y-110390412D01*
X104791568Y-110396487D01*
X104807869Y-110404197D01*
X104823336Y-110413467D01*
X104837820Y-110424209D01*
X104851181Y-110436319D01*
X104863291Y-110449680D01*
X104874033Y-110464164D01*
X104883303Y-110479631D01*
X104891013Y-110495932D01*
X104897088Y-110512910D01*
X104901469Y-110530402D01*
X104904115Y-110548239D01*
X104905000Y-110566250D01*
X104905000Y-110933750D01*
X104904115Y-110951761D01*
X104901469Y-110969598D01*
X104897088Y-110987090D01*
X104891013Y-111004068D01*
X104883303Y-111020369D01*
X104874033Y-111035836D01*
X104863291Y-111050320D01*
X104851181Y-111063681D01*
X104837820Y-111075791D01*
X104823336Y-111086533D01*
X104807869Y-111095803D01*
X104791568Y-111103513D01*
X104774590Y-111109588D01*
X104757098Y-111113969D01*
X104739261Y-111116615D01*
X104721250Y-111117500D01*
X104278750Y-111117500D01*
X104260739Y-111116615D01*
X104242902Y-111113969D01*
X104225410Y-111109588D01*
X104208432Y-111103513D01*
X104192131Y-111095803D01*
X104176664Y-111086533D01*
X104162180Y-111075791D01*
X104148819Y-111063681D01*
X104136709Y-111050320D01*
X104125967Y-111035836D01*
X104116697Y-111020369D01*
X104108987Y-111004068D01*
X104102912Y-110987090D01*
X104098531Y-110969598D01*
X104095885Y-110951761D01*
X104095000Y-110933750D01*
X104095000Y-110566250D01*
X104095885Y-110548239D01*
X104098531Y-110530402D01*
X104102912Y-110512910D01*
X104108987Y-110495932D01*
X104116697Y-110479631D01*
X104125967Y-110464164D01*
X104136709Y-110449680D01*
X104148819Y-110436319D01*
X104162180Y-110424209D01*
X104176664Y-110413467D01*
X104192131Y-110404197D01*
X104208432Y-110396487D01*
X104225410Y-110390412D01*
X104242902Y-110386031D01*
X104260739Y-110383385D01*
X104278750Y-110382500D01*
X104721250Y-110382500D01*
X104739261Y-110383385D01*
X104739261Y-110383385D01*
G37*
D18*
X104500000Y-110750000D03*
D16*
G36*
X98151761Y-105795885D02*
X98169598Y-105798531D01*
X98187090Y-105802912D01*
X98204068Y-105808987D01*
X98220369Y-105816697D01*
X98235836Y-105825967D01*
X98250320Y-105836709D01*
X98263681Y-105848819D01*
X98275791Y-105862180D01*
X98286533Y-105876664D01*
X98295803Y-105892131D01*
X98303513Y-105908432D01*
X98309588Y-105925410D01*
X98313969Y-105942902D01*
X98316615Y-105960739D01*
X98317500Y-105978750D01*
X98317500Y-106421250D01*
X98316615Y-106439261D01*
X98313969Y-106457098D01*
X98309588Y-106474590D01*
X98303513Y-106491568D01*
X98295803Y-106507869D01*
X98286533Y-106523336D01*
X98275791Y-106537820D01*
X98263681Y-106551181D01*
X98250320Y-106563291D01*
X98235836Y-106574033D01*
X98220369Y-106583303D01*
X98204068Y-106591013D01*
X98187090Y-106597088D01*
X98169598Y-106601469D01*
X98151761Y-106604115D01*
X98133750Y-106605000D01*
X97766250Y-106605000D01*
X97748239Y-106604115D01*
X97730402Y-106601469D01*
X97712910Y-106597088D01*
X97695932Y-106591013D01*
X97679631Y-106583303D01*
X97664164Y-106574033D01*
X97649680Y-106563291D01*
X97636319Y-106551181D01*
X97624209Y-106537820D01*
X97613467Y-106523336D01*
X97604197Y-106507869D01*
X97596487Y-106491568D01*
X97590412Y-106474590D01*
X97586031Y-106457098D01*
X97583385Y-106439261D01*
X97582500Y-106421250D01*
X97582500Y-105978750D01*
X97583385Y-105960739D01*
X97586031Y-105942902D01*
X97590412Y-105925410D01*
X97596487Y-105908432D01*
X97604197Y-105892131D01*
X97613467Y-105876664D01*
X97624209Y-105862180D01*
X97636319Y-105848819D01*
X97649680Y-105836709D01*
X97664164Y-105825967D01*
X97679631Y-105816697D01*
X97695932Y-105808987D01*
X97712910Y-105802912D01*
X97730402Y-105798531D01*
X97748239Y-105795885D01*
X97766250Y-105795000D01*
X98133750Y-105795000D01*
X98151761Y-105795885D01*
X98151761Y-105795885D01*
G37*
D18*
X97950000Y-106200000D03*
D16*
G36*
X97251761Y-105795885D02*
X97269598Y-105798531D01*
X97287090Y-105802912D01*
X97304068Y-105808987D01*
X97320369Y-105816697D01*
X97335836Y-105825967D01*
X97350320Y-105836709D01*
X97363681Y-105848819D01*
X97375791Y-105862180D01*
X97386533Y-105876664D01*
X97395803Y-105892131D01*
X97403513Y-105908432D01*
X97409588Y-105925410D01*
X97413969Y-105942902D01*
X97416615Y-105960739D01*
X97417500Y-105978750D01*
X97417500Y-106421250D01*
X97416615Y-106439261D01*
X97413969Y-106457098D01*
X97409588Y-106474590D01*
X97403513Y-106491568D01*
X97395803Y-106507869D01*
X97386533Y-106523336D01*
X97375791Y-106537820D01*
X97363681Y-106551181D01*
X97350320Y-106563291D01*
X97335836Y-106574033D01*
X97320369Y-106583303D01*
X97304068Y-106591013D01*
X97287090Y-106597088D01*
X97269598Y-106601469D01*
X97251761Y-106604115D01*
X97233750Y-106605000D01*
X96866250Y-106605000D01*
X96848239Y-106604115D01*
X96830402Y-106601469D01*
X96812910Y-106597088D01*
X96795932Y-106591013D01*
X96779631Y-106583303D01*
X96764164Y-106574033D01*
X96749680Y-106563291D01*
X96736319Y-106551181D01*
X96724209Y-106537820D01*
X96713467Y-106523336D01*
X96704197Y-106507869D01*
X96696487Y-106491568D01*
X96690412Y-106474590D01*
X96686031Y-106457098D01*
X96683385Y-106439261D01*
X96682500Y-106421250D01*
X96682500Y-105978750D01*
X96683385Y-105960739D01*
X96686031Y-105942902D01*
X96690412Y-105925410D01*
X96696487Y-105908432D01*
X96704197Y-105892131D01*
X96713467Y-105876664D01*
X96724209Y-105862180D01*
X96736319Y-105848819D01*
X96749680Y-105836709D01*
X96764164Y-105825967D01*
X96779631Y-105816697D01*
X96795932Y-105808987D01*
X96812910Y-105802912D01*
X96830402Y-105798531D01*
X96848239Y-105795885D01*
X96866250Y-105795000D01*
X97233750Y-105795000D01*
X97251761Y-105795885D01*
X97251761Y-105795885D01*
G37*
D18*
X97050000Y-106200000D03*
D16*
G36*
X99439261Y-111283385D02*
X99457098Y-111286031D01*
X99474590Y-111290412D01*
X99491568Y-111296487D01*
X99507869Y-111304197D01*
X99523336Y-111313467D01*
X99537820Y-111324209D01*
X99551181Y-111336319D01*
X99563291Y-111349680D01*
X99574033Y-111364164D01*
X99583303Y-111379631D01*
X99591013Y-111395932D01*
X99597088Y-111412910D01*
X99601469Y-111430402D01*
X99604115Y-111448239D01*
X99605000Y-111466250D01*
X99605000Y-111833750D01*
X99604115Y-111851761D01*
X99601469Y-111869598D01*
X99597088Y-111887090D01*
X99591013Y-111904068D01*
X99583303Y-111920369D01*
X99574033Y-111935836D01*
X99563291Y-111950320D01*
X99551181Y-111963681D01*
X99537820Y-111975791D01*
X99523336Y-111986533D01*
X99507869Y-111995803D01*
X99491568Y-112003513D01*
X99474590Y-112009588D01*
X99457098Y-112013969D01*
X99439261Y-112016615D01*
X99421250Y-112017500D01*
X98978750Y-112017500D01*
X98960739Y-112016615D01*
X98942902Y-112013969D01*
X98925410Y-112009588D01*
X98908432Y-112003513D01*
X98892131Y-111995803D01*
X98876664Y-111986533D01*
X98862180Y-111975791D01*
X98848819Y-111963681D01*
X98836709Y-111950320D01*
X98825967Y-111935836D01*
X98816697Y-111920369D01*
X98808987Y-111904068D01*
X98802912Y-111887090D01*
X98798531Y-111869598D01*
X98795885Y-111851761D01*
X98795000Y-111833750D01*
X98795000Y-111466250D01*
X98795885Y-111448239D01*
X98798531Y-111430402D01*
X98802912Y-111412910D01*
X98808987Y-111395932D01*
X98816697Y-111379631D01*
X98825967Y-111364164D01*
X98836709Y-111349680D01*
X98848819Y-111336319D01*
X98862180Y-111324209D01*
X98876664Y-111313467D01*
X98892131Y-111304197D01*
X98908432Y-111296487D01*
X98925410Y-111290412D01*
X98942902Y-111286031D01*
X98960739Y-111283385D01*
X98978750Y-111282500D01*
X99421250Y-111282500D01*
X99439261Y-111283385D01*
X99439261Y-111283385D01*
G37*
D18*
X99200000Y-111650000D03*
D16*
G36*
X99439261Y-110383385D02*
X99457098Y-110386031D01*
X99474590Y-110390412D01*
X99491568Y-110396487D01*
X99507869Y-110404197D01*
X99523336Y-110413467D01*
X99537820Y-110424209D01*
X99551181Y-110436319D01*
X99563291Y-110449680D01*
X99574033Y-110464164D01*
X99583303Y-110479631D01*
X99591013Y-110495932D01*
X99597088Y-110512910D01*
X99601469Y-110530402D01*
X99604115Y-110548239D01*
X99605000Y-110566250D01*
X99605000Y-110933750D01*
X99604115Y-110951761D01*
X99601469Y-110969598D01*
X99597088Y-110987090D01*
X99591013Y-111004068D01*
X99583303Y-111020369D01*
X99574033Y-111035836D01*
X99563291Y-111050320D01*
X99551181Y-111063681D01*
X99537820Y-111075791D01*
X99523336Y-111086533D01*
X99507869Y-111095803D01*
X99491568Y-111103513D01*
X99474590Y-111109588D01*
X99457098Y-111113969D01*
X99439261Y-111116615D01*
X99421250Y-111117500D01*
X98978750Y-111117500D01*
X98960739Y-111116615D01*
X98942902Y-111113969D01*
X98925410Y-111109588D01*
X98908432Y-111103513D01*
X98892131Y-111095803D01*
X98876664Y-111086533D01*
X98862180Y-111075791D01*
X98848819Y-111063681D01*
X98836709Y-111050320D01*
X98825967Y-111035836D01*
X98816697Y-111020369D01*
X98808987Y-111004068D01*
X98802912Y-110987090D01*
X98798531Y-110969598D01*
X98795885Y-110951761D01*
X98795000Y-110933750D01*
X98795000Y-110566250D01*
X98795885Y-110548239D01*
X98798531Y-110530402D01*
X98802912Y-110512910D01*
X98808987Y-110495932D01*
X98816697Y-110479631D01*
X98825967Y-110464164D01*
X98836709Y-110449680D01*
X98848819Y-110436319D01*
X98862180Y-110424209D01*
X98876664Y-110413467D01*
X98892131Y-110404197D01*
X98908432Y-110396487D01*
X98925410Y-110390412D01*
X98942902Y-110386031D01*
X98960739Y-110383385D01*
X98978750Y-110382500D01*
X99421250Y-110382500D01*
X99439261Y-110383385D01*
X99439261Y-110383385D01*
G37*
D18*
X99200000Y-110750000D03*
D16*
G36*
X109151761Y-104595885D02*
X109169598Y-104598531D01*
X109187090Y-104602912D01*
X109204068Y-104608987D01*
X109220369Y-104616697D01*
X109235836Y-104625967D01*
X109250320Y-104636709D01*
X109263681Y-104648819D01*
X109275791Y-104662180D01*
X109286533Y-104676664D01*
X109295803Y-104692131D01*
X109303513Y-104708432D01*
X109309588Y-104725410D01*
X109313969Y-104742902D01*
X109316615Y-104760739D01*
X109317500Y-104778750D01*
X109317500Y-105221250D01*
X109316615Y-105239261D01*
X109313969Y-105257098D01*
X109309588Y-105274590D01*
X109303513Y-105291568D01*
X109295803Y-105307869D01*
X109286533Y-105323336D01*
X109275791Y-105337820D01*
X109263681Y-105351181D01*
X109250320Y-105363291D01*
X109235836Y-105374033D01*
X109220369Y-105383303D01*
X109204068Y-105391013D01*
X109187090Y-105397088D01*
X109169598Y-105401469D01*
X109151761Y-105404115D01*
X109133750Y-105405000D01*
X108766250Y-105405000D01*
X108748239Y-105404115D01*
X108730402Y-105401469D01*
X108712910Y-105397088D01*
X108695932Y-105391013D01*
X108679631Y-105383303D01*
X108664164Y-105374033D01*
X108649680Y-105363291D01*
X108636319Y-105351181D01*
X108624209Y-105337820D01*
X108613467Y-105323336D01*
X108604197Y-105307869D01*
X108596487Y-105291568D01*
X108590412Y-105274590D01*
X108586031Y-105257098D01*
X108583385Y-105239261D01*
X108582500Y-105221250D01*
X108582500Y-104778750D01*
X108583385Y-104760739D01*
X108586031Y-104742902D01*
X108590412Y-104725410D01*
X108596487Y-104708432D01*
X108604197Y-104692131D01*
X108613467Y-104676664D01*
X108624209Y-104662180D01*
X108636319Y-104648819D01*
X108649680Y-104636709D01*
X108664164Y-104625967D01*
X108679631Y-104616697D01*
X108695932Y-104608987D01*
X108712910Y-104602912D01*
X108730402Y-104598531D01*
X108748239Y-104595885D01*
X108766250Y-104595000D01*
X109133750Y-104595000D01*
X109151761Y-104595885D01*
X109151761Y-104595885D01*
G37*
D18*
X108950000Y-105000000D03*
D16*
G36*
X108251761Y-104595885D02*
X108269598Y-104598531D01*
X108287090Y-104602912D01*
X108304068Y-104608987D01*
X108320369Y-104616697D01*
X108335836Y-104625967D01*
X108350320Y-104636709D01*
X108363681Y-104648819D01*
X108375791Y-104662180D01*
X108386533Y-104676664D01*
X108395803Y-104692131D01*
X108403513Y-104708432D01*
X108409588Y-104725410D01*
X108413969Y-104742902D01*
X108416615Y-104760739D01*
X108417500Y-104778750D01*
X108417500Y-105221250D01*
X108416615Y-105239261D01*
X108413969Y-105257098D01*
X108409588Y-105274590D01*
X108403513Y-105291568D01*
X108395803Y-105307869D01*
X108386533Y-105323336D01*
X108375791Y-105337820D01*
X108363681Y-105351181D01*
X108350320Y-105363291D01*
X108335836Y-105374033D01*
X108320369Y-105383303D01*
X108304068Y-105391013D01*
X108287090Y-105397088D01*
X108269598Y-105401469D01*
X108251761Y-105404115D01*
X108233750Y-105405000D01*
X107866250Y-105405000D01*
X107848239Y-105404115D01*
X107830402Y-105401469D01*
X107812910Y-105397088D01*
X107795932Y-105391013D01*
X107779631Y-105383303D01*
X107764164Y-105374033D01*
X107749680Y-105363291D01*
X107736319Y-105351181D01*
X107724209Y-105337820D01*
X107713467Y-105323336D01*
X107704197Y-105307869D01*
X107696487Y-105291568D01*
X107690412Y-105274590D01*
X107686031Y-105257098D01*
X107683385Y-105239261D01*
X107682500Y-105221250D01*
X107682500Y-104778750D01*
X107683385Y-104760739D01*
X107686031Y-104742902D01*
X107690412Y-104725410D01*
X107696487Y-104708432D01*
X107704197Y-104692131D01*
X107713467Y-104676664D01*
X107724209Y-104662180D01*
X107736319Y-104648819D01*
X107749680Y-104636709D01*
X107764164Y-104625967D01*
X107779631Y-104616697D01*
X107795932Y-104608987D01*
X107812910Y-104602912D01*
X107830402Y-104598531D01*
X107848239Y-104595885D01*
X107866250Y-104595000D01*
X108233750Y-104595000D01*
X108251761Y-104595885D01*
X108251761Y-104595885D01*
G37*
D18*
X108050000Y-105000000D03*
D16*
G36*
X109151761Y-100845885D02*
X109169598Y-100848531D01*
X109187090Y-100852912D01*
X109204068Y-100858987D01*
X109220369Y-100866697D01*
X109235836Y-100875967D01*
X109250320Y-100886709D01*
X109263681Y-100898819D01*
X109275791Y-100912180D01*
X109286533Y-100926664D01*
X109295803Y-100942131D01*
X109303513Y-100958432D01*
X109309588Y-100975410D01*
X109313969Y-100992902D01*
X109316615Y-101010739D01*
X109317500Y-101028750D01*
X109317500Y-101471250D01*
X109316615Y-101489261D01*
X109313969Y-101507098D01*
X109309588Y-101524590D01*
X109303513Y-101541568D01*
X109295803Y-101557869D01*
X109286533Y-101573336D01*
X109275791Y-101587820D01*
X109263681Y-101601181D01*
X109250320Y-101613291D01*
X109235836Y-101624033D01*
X109220369Y-101633303D01*
X109204068Y-101641013D01*
X109187090Y-101647088D01*
X109169598Y-101651469D01*
X109151761Y-101654115D01*
X109133750Y-101655000D01*
X108766250Y-101655000D01*
X108748239Y-101654115D01*
X108730402Y-101651469D01*
X108712910Y-101647088D01*
X108695932Y-101641013D01*
X108679631Y-101633303D01*
X108664164Y-101624033D01*
X108649680Y-101613291D01*
X108636319Y-101601181D01*
X108624209Y-101587820D01*
X108613467Y-101573336D01*
X108604197Y-101557869D01*
X108596487Y-101541568D01*
X108590412Y-101524590D01*
X108586031Y-101507098D01*
X108583385Y-101489261D01*
X108582500Y-101471250D01*
X108582500Y-101028750D01*
X108583385Y-101010739D01*
X108586031Y-100992902D01*
X108590412Y-100975410D01*
X108596487Y-100958432D01*
X108604197Y-100942131D01*
X108613467Y-100926664D01*
X108624209Y-100912180D01*
X108636319Y-100898819D01*
X108649680Y-100886709D01*
X108664164Y-100875967D01*
X108679631Y-100866697D01*
X108695932Y-100858987D01*
X108712910Y-100852912D01*
X108730402Y-100848531D01*
X108748239Y-100845885D01*
X108766250Y-100845000D01*
X109133750Y-100845000D01*
X109151761Y-100845885D01*
X109151761Y-100845885D01*
G37*
D18*
X108950000Y-101250000D03*
D16*
G36*
X108251761Y-100845885D02*
X108269598Y-100848531D01*
X108287090Y-100852912D01*
X108304068Y-100858987D01*
X108320369Y-100866697D01*
X108335836Y-100875967D01*
X108350320Y-100886709D01*
X108363681Y-100898819D01*
X108375791Y-100912180D01*
X108386533Y-100926664D01*
X108395803Y-100942131D01*
X108403513Y-100958432D01*
X108409588Y-100975410D01*
X108413969Y-100992902D01*
X108416615Y-101010739D01*
X108417500Y-101028750D01*
X108417500Y-101471250D01*
X108416615Y-101489261D01*
X108413969Y-101507098D01*
X108409588Y-101524590D01*
X108403513Y-101541568D01*
X108395803Y-101557869D01*
X108386533Y-101573336D01*
X108375791Y-101587820D01*
X108363681Y-101601181D01*
X108350320Y-101613291D01*
X108335836Y-101624033D01*
X108320369Y-101633303D01*
X108304068Y-101641013D01*
X108287090Y-101647088D01*
X108269598Y-101651469D01*
X108251761Y-101654115D01*
X108233750Y-101655000D01*
X107866250Y-101655000D01*
X107848239Y-101654115D01*
X107830402Y-101651469D01*
X107812910Y-101647088D01*
X107795932Y-101641013D01*
X107779631Y-101633303D01*
X107764164Y-101624033D01*
X107749680Y-101613291D01*
X107736319Y-101601181D01*
X107724209Y-101587820D01*
X107713467Y-101573336D01*
X107704197Y-101557869D01*
X107696487Y-101541568D01*
X107690412Y-101524590D01*
X107686031Y-101507098D01*
X107683385Y-101489261D01*
X107682500Y-101471250D01*
X107682500Y-101028750D01*
X107683385Y-101010739D01*
X107686031Y-100992902D01*
X107690412Y-100975410D01*
X107696487Y-100958432D01*
X107704197Y-100942131D01*
X107713467Y-100926664D01*
X107724209Y-100912180D01*
X107736319Y-100898819D01*
X107749680Y-100886709D01*
X107764164Y-100875967D01*
X107779631Y-100866697D01*
X107795932Y-100858987D01*
X107812910Y-100852912D01*
X107830402Y-100848531D01*
X107848239Y-100845885D01*
X107866250Y-100845000D01*
X108233750Y-100845000D01*
X108251761Y-100845885D01*
X108251761Y-100845885D01*
G37*
D18*
X108050000Y-101250000D03*
D16*
G36*
X108251761Y-107595885D02*
X108269598Y-107598531D01*
X108287090Y-107602912D01*
X108304068Y-107608987D01*
X108320369Y-107616697D01*
X108335836Y-107625967D01*
X108350320Y-107636709D01*
X108363681Y-107648819D01*
X108375791Y-107662180D01*
X108386533Y-107676664D01*
X108395803Y-107692131D01*
X108403513Y-107708432D01*
X108409588Y-107725410D01*
X108413969Y-107742902D01*
X108416615Y-107760739D01*
X108417500Y-107778750D01*
X108417500Y-108221250D01*
X108416615Y-108239261D01*
X108413969Y-108257098D01*
X108409588Y-108274590D01*
X108403513Y-108291568D01*
X108395803Y-108307869D01*
X108386533Y-108323336D01*
X108375791Y-108337820D01*
X108363681Y-108351181D01*
X108350320Y-108363291D01*
X108335836Y-108374033D01*
X108320369Y-108383303D01*
X108304068Y-108391013D01*
X108287090Y-108397088D01*
X108269598Y-108401469D01*
X108251761Y-108404115D01*
X108233750Y-108405000D01*
X107866250Y-108405000D01*
X107848239Y-108404115D01*
X107830402Y-108401469D01*
X107812910Y-108397088D01*
X107795932Y-108391013D01*
X107779631Y-108383303D01*
X107764164Y-108374033D01*
X107749680Y-108363291D01*
X107736319Y-108351181D01*
X107724209Y-108337820D01*
X107713467Y-108323336D01*
X107704197Y-108307869D01*
X107696487Y-108291568D01*
X107690412Y-108274590D01*
X107686031Y-108257098D01*
X107683385Y-108239261D01*
X107682500Y-108221250D01*
X107682500Y-107778750D01*
X107683385Y-107760739D01*
X107686031Y-107742902D01*
X107690412Y-107725410D01*
X107696487Y-107708432D01*
X107704197Y-107692131D01*
X107713467Y-107676664D01*
X107724209Y-107662180D01*
X107736319Y-107648819D01*
X107749680Y-107636709D01*
X107764164Y-107625967D01*
X107779631Y-107616697D01*
X107795932Y-107608987D01*
X107812910Y-107602912D01*
X107830402Y-107598531D01*
X107848239Y-107595885D01*
X107866250Y-107595000D01*
X108233750Y-107595000D01*
X108251761Y-107595885D01*
X108251761Y-107595885D01*
G37*
D18*
X108050000Y-108000000D03*
D16*
G36*
X109151761Y-107595885D02*
X109169598Y-107598531D01*
X109187090Y-107602912D01*
X109204068Y-107608987D01*
X109220369Y-107616697D01*
X109235836Y-107625967D01*
X109250320Y-107636709D01*
X109263681Y-107648819D01*
X109275791Y-107662180D01*
X109286533Y-107676664D01*
X109295803Y-107692131D01*
X109303513Y-107708432D01*
X109309588Y-107725410D01*
X109313969Y-107742902D01*
X109316615Y-107760739D01*
X109317500Y-107778750D01*
X109317500Y-108221250D01*
X109316615Y-108239261D01*
X109313969Y-108257098D01*
X109309588Y-108274590D01*
X109303513Y-108291568D01*
X109295803Y-108307869D01*
X109286533Y-108323336D01*
X109275791Y-108337820D01*
X109263681Y-108351181D01*
X109250320Y-108363291D01*
X109235836Y-108374033D01*
X109220369Y-108383303D01*
X109204068Y-108391013D01*
X109187090Y-108397088D01*
X109169598Y-108401469D01*
X109151761Y-108404115D01*
X109133750Y-108405000D01*
X108766250Y-108405000D01*
X108748239Y-108404115D01*
X108730402Y-108401469D01*
X108712910Y-108397088D01*
X108695932Y-108391013D01*
X108679631Y-108383303D01*
X108664164Y-108374033D01*
X108649680Y-108363291D01*
X108636319Y-108351181D01*
X108624209Y-108337820D01*
X108613467Y-108323336D01*
X108604197Y-108307869D01*
X108596487Y-108291568D01*
X108590412Y-108274590D01*
X108586031Y-108257098D01*
X108583385Y-108239261D01*
X108582500Y-108221250D01*
X108582500Y-107778750D01*
X108583385Y-107760739D01*
X108586031Y-107742902D01*
X108590412Y-107725410D01*
X108596487Y-107708432D01*
X108604197Y-107692131D01*
X108613467Y-107676664D01*
X108624209Y-107662180D01*
X108636319Y-107648819D01*
X108649680Y-107636709D01*
X108664164Y-107625967D01*
X108679631Y-107616697D01*
X108695932Y-107608987D01*
X108712910Y-107602912D01*
X108730402Y-107598531D01*
X108748239Y-107595885D01*
X108766250Y-107595000D01*
X109133750Y-107595000D01*
X109151761Y-107595885D01*
X109151761Y-107595885D01*
G37*
D18*
X108950000Y-108000000D03*
D16*
G36*
X109151761Y-106595885D02*
X109169598Y-106598531D01*
X109187090Y-106602912D01*
X109204068Y-106608987D01*
X109220369Y-106616697D01*
X109235836Y-106625967D01*
X109250320Y-106636709D01*
X109263681Y-106648819D01*
X109275791Y-106662180D01*
X109286533Y-106676664D01*
X109295803Y-106692131D01*
X109303513Y-106708432D01*
X109309588Y-106725410D01*
X109313969Y-106742902D01*
X109316615Y-106760739D01*
X109317500Y-106778750D01*
X109317500Y-107221250D01*
X109316615Y-107239261D01*
X109313969Y-107257098D01*
X109309588Y-107274590D01*
X109303513Y-107291568D01*
X109295803Y-107307869D01*
X109286533Y-107323336D01*
X109275791Y-107337820D01*
X109263681Y-107351181D01*
X109250320Y-107363291D01*
X109235836Y-107374033D01*
X109220369Y-107383303D01*
X109204068Y-107391013D01*
X109187090Y-107397088D01*
X109169598Y-107401469D01*
X109151761Y-107404115D01*
X109133750Y-107405000D01*
X108766250Y-107405000D01*
X108748239Y-107404115D01*
X108730402Y-107401469D01*
X108712910Y-107397088D01*
X108695932Y-107391013D01*
X108679631Y-107383303D01*
X108664164Y-107374033D01*
X108649680Y-107363291D01*
X108636319Y-107351181D01*
X108624209Y-107337820D01*
X108613467Y-107323336D01*
X108604197Y-107307869D01*
X108596487Y-107291568D01*
X108590412Y-107274590D01*
X108586031Y-107257098D01*
X108583385Y-107239261D01*
X108582500Y-107221250D01*
X108582500Y-106778750D01*
X108583385Y-106760739D01*
X108586031Y-106742902D01*
X108590412Y-106725410D01*
X108596487Y-106708432D01*
X108604197Y-106692131D01*
X108613467Y-106676664D01*
X108624209Y-106662180D01*
X108636319Y-106648819D01*
X108649680Y-106636709D01*
X108664164Y-106625967D01*
X108679631Y-106616697D01*
X108695932Y-106608987D01*
X108712910Y-106602912D01*
X108730402Y-106598531D01*
X108748239Y-106595885D01*
X108766250Y-106595000D01*
X109133750Y-106595000D01*
X109151761Y-106595885D01*
X109151761Y-106595885D01*
G37*
D18*
X108950000Y-107000000D03*
D16*
G36*
X108251761Y-106595885D02*
X108269598Y-106598531D01*
X108287090Y-106602912D01*
X108304068Y-106608987D01*
X108320369Y-106616697D01*
X108335836Y-106625967D01*
X108350320Y-106636709D01*
X108363681Y-106648819D01*
X108375791Y-106662180D01*
X108386533Y-106676664D01*
X108395803Y-106692131D01*
X108403513Y-106708432D01*
X108409588Y-106725410D01*
X108413969Y-106742902D01*
X108416615Y-106760739D01*
X108417500Y-106778750D01*
X108417500Y-107221250D01*
X108416615Y-107239261D01*
X108413969Y-107257098D01*
X108409588Y-107274590D01*
X108403513Y-107291568D01*
X108395803Y-107307869D01*
X108386533Y-107323336D01*
X108375791Y-107337820D01*
X108363681Y-107351181D01*
X108350320Y-107363291D01*
X108335836Y-107374033D01*
X108320369Y-107383303D01*
X108304068Y-107391013D01*
X108287090Y-107397088D01*
X108269598Y-107401469D01*
X108251761Y-107404115D01*
X108233750Y-107405000D01*
X107866250Y-107405000D01*
X107848239Y-107404115D01*
X107830402Y-107401469D01*
X107812910Y-107397088D01*
X107795932Y-107391013D01*
X107779631Y-107383303D01*
X107764164Y-107374033D01*
X107749680Y-107363291D01*
X107736319Y-107351181D01*
X107724209Y-107337820D01*
X107713467Y-107323336D01*
X107704197Y-107307869D01*
X107696487Y-107291568D01*
X107690412Y-107274590D01*
X107686031Y-107257098D01*
X107683385Y-107239261D01*
X107682500Y-107221250D01*
X107682500Y-106778750D01*
X107683385Y-106760739D01*
X107686031Y-106742902D01*
X107690412Y-106725410D01*
X107696487Y-106708432D01*
X107704197Y-106692131D01*
X107713467Y-106676664D01*
X107724209Y-106662180D01*
X107736319Y-106648819D01*
X107749680Y-106636709D01*
X107764164Y-106625967D01*
X107779631Y-106616697D01*
X107795932Y-106608987D01*
X107812910Y-106602912D01*
X107830402Y-106598531D01*
X107848239Y-106595885D01*
X107866250Y-106595000D01*
X108233750Y-106595000D01*
X108251761Y-106595885D01*
X108251761Y-106595885D01*
G37*
D18*
X108050000Y-107000000D03*
D16*
G36*
X109151761Y-101845885D02*
X109169598Y-101848531D01*
X109187090Y-101852912D01*
X109204068Y-101858987D01*
X109220369Y-101866697D01*
X109235836Y-101875967D01*
X109250320Y-101886709D01*
X109263681Y-101898819D01*
X109275791Y-101912180D01*
X109286533Y-101926664D01*
X109295803Y-101942131D01*
X109303513Y-101958432D01*
X109309588Y-101975410D01*
X109313969Y-101992902D01*
X109316615Y-102010739D01*
X109317500Y-102028750D01*
X109317500Y-102471250D01*
X109316615Y-102489261D01*
X109313969Y-102507098D01*
X109309588Y-102524590D01*
X109303513Y-102541568D01*
X109295803Y-102557869D01*
X109286533Y-102573336D01*
X109275791Y-102587820D01*
X109263681Y-102601181D01*
X109250320Y-102613291D01*
X109235836Y-102624033D01*
X109220369Y-102633303D01*
X109204068Y-102641013D01*
X109187090Y-102647088D01*
X109169598Y-102651469D01*
X109151761Y-102654115D01*
X109133750Y-102655000D01*
X108766250Y-102655000D01*
X108748239Y-102654115D01*
X108730402Y-102651469D01*
X108712910Y-102647088D01*
X108695932Y-102641013D01*
X108679631Y-102633303D01*
X108664164Y-102624033D01*
X108649680Y-102613291D01*
X108636319Y-102601181D01*
X108624209Y-102587820D01*
X108613467Y-102573336D01*
X108604197Y-102557869D01*
X108596487Y-102541568D01*
X108590412Y-102524590D01*
X108586031Y-102507098D01*
X108583385Y-102489261D01*
X108582500Y-102471250D01*
X108582500Y-102028750D01*
X108583385Y-102010739D01*
X108586031Y-101992902D01*
X108590412Y-101975410D01*
X108596487Y-101958432D01*
X108604197Y-101942131D01*
X108613467Y-101926664D01*
X108624209Y-101912180D01*
X108636319Y-101898819D01*
X108649680Y-101886709D01*
X108664164Y-101875967D01*
X108679631Y-101866697D01*
X108695932Y-101858987D01*
X108712910Y-101852912D01*
X108730402Y-101848531D01*
X108748239Y-101845885D01*
X108766250Y-101845000D01*
X109133750Y-101845000D01*
X109151761Y-101845885D01*
X109151761Y-101845885D01*
G37*
D18*
X108950000Y-102250000D03*
D16*
G36*
X108251761Y-101845885D02*
X108269598Y-101848531D01*
X108287090Y-101852912D01*
X108304068Y-101858987D01*
X108320369Y-101866697D01*
X108335836Y-101875967D01*
X108350320Y-101886709D01*
X108363681Y-101898819D01*
X108375791Y-101912180D01*
X108386533Y-101926664D01*
X108395803Y-101942131D01*
X108403513Y-101958432D01*
X108409588Y-101975410D01*
X108413969Y-101992902D01*
X108416615Y-102010739D01*
X108417500Y-102028750D01*
X108417500Y-102471250D01*
X108416615Y-102489261D01*
X108413969Y-102507098D01*
X108409588Y-102524590D01*
X108403513Y-102541568D01*
X108395803Y-102557869D01*
X108386533Y-102573336D01*
X108375791Y-102587820D01*
X108363681Y-102601181D01*
X108350320Y-102613291D01*
X108335836Y-102624033D01*
X108320369Y-102633303D01*
X108304068Y-102641013D01*
X108287090Y-102647088D01*
X108269598Y-102651469D01*
X108251761Y-102654115D01*
X108233750Y-102655000D01*
X107866250Y-102655000D01*
X107848239Y-102654115D01*
X107830402Y-102651469D01*
X107812910Y-102647088D01*
X107795932Y-102641013D01*
X107779631Y-102633303D01*
X107764164Y-102624033D01*
X107749680Y-102613291D01*
X107736319Y-102601181D01*
X107724209Y-102587820D01*
X107713467Y-102573336D01*
X107704197Y-102557869D01*
X107696487Y-102541568D01*
X107690412Y-102524590D01*
X107686031Y-102507098D01*
X107683385Y-102489261D01*
X107682500Y-102471250D01*
X107682500Y-102028750D01*
X107683385Y-102010739D01*
X107686031Y-101992902D01*
X107690412Y-101975410D01*
X107696487Y-101958432D01*
X107704197Y-101942131D01*
X107713467Y-101926664D01*
X107724209Y-101912180D01*
X107736319Y-101898819D01*
X107749680Y-101886709D01*
X107764164Y-101875967D01*
X107779631Y-101866697D01*
X107795932Y-101858987D01*
X107812910Y-101852912D01*
X107830402Y-101848531D01*
X107848239Y-101845885D01*
X107866250Y-101845000D01*
X108233750Y-101845000D01*
X108251761Y-101845885D01*
X108251761Y-101845885D01*
G37*
D18*
X108050000Y-102250000D03*
D16*
G36*
X97251761Y-103895885D02*
X97269598Y-103898531D01*
X97287090Y-103902912D01*
X97304068Y-103908987D01*
X97320369Y-103916697D01*
X97335836Y-103925967D01*
X97350320Y-103936709D01*
X97363681Y-103948819D01*
X97375791Y-103962180D01*
X97386533Y-103976664D01*
X97395803Y-103992131D01*
X97403513Y-104008432D01*
X97409588Y-104025410D01*
X97413969Y-104042902D01*
X97416615Y-104060739D01*
X97417500Y-104078750D01*
X97417500Y-104521250D01*
X97416615Y-104539261D01*
X97413969Y-104557098D01*
X97409588Y-104574590D01*
X97403513Y-104591568D01*
X97395803Y-104607869D01*
X97386533Y-104623336D01*
X97375791Y-104637820D01*
X97363681Y-104651181D01*
X97350320Y-104663291D01*
X97335836Y-104674033D01*
X97320369Y-104683303D01*
X97304068Y-104691013D01*
X97287090Y-104697088D01*
X97269598Y-104701469D01*
X97251761Y-104704115D01*
X97233750Y-104705000D01*
X96866250Y-104705000D01*
X96848239Y-104704115D01*
X96830402Y-104701469D01*
X96812910Y-104697088D01*
X96795932Y-104691013D01*
X96779631Y-104683303D01*
X96764164Y-104674033D01*
X96749680Y-104663291D01*
X96736319Y-104651181D01*
X96724209Y-104637820D01*
X96713467Y-104623336D01*
X96704197Y-104607869D01*
X96696487Y-104591568D01*
X96690412Y-104574590D01*
X96686031Y-104557098D01*
X96683385Y-104539261D01*
X96682500Y-104521250D01*
X96682500Y-104078750D01*
X96683385Y-104060739D01*
X96686031Y-104042902D01*
X96690412Y-104025410D01*
X96696487Y-104008432D01*
X96704197Y-103992131D01*
X96713467Y-103976664D01*
X96724209Y-103962180D01*
X96736319Y-103948819D01*
X96749680Y-103936709D01*
X96764164Y-103925967D01*
X96779631Y-103916697D01*
X96795932Y-103908987D01*
X96812910Y-103902912D01*
X96830402Y-103898531D01*
X96848239Y-103895885D01*
X96866250Y-103895000D01*
X97233750Y-103895000D01*
X97251761Y-103895885D01*
X97251761Y-103895885D01*
G37*
D18*
X97050000Y-104300000D03*
D16*
G36*
X98151761Y-103895885D02*
X98169598Y-103898531D01*
X98187090Y-103902912D01*
X98204068Y-103908987D01*
X98220369Y-103916697D01*
X98235836Y-103925967D01*
X98250320Y-103936709D01*
X98263681Y-103948819D01*
X98275791Y-103962180D01*
X98286533Y-103976664D01*
X98295803Y-103992131D01*
X98303513Y-104008432D01*
X98309588Y-104025410D01*
X98313969Y-104042902D01*
X98316615Y-104060739D01*
X98317500Y-104078750D01*
X98317500Y-104521250D01*
X98316615Y-104539261D01*
X98313969Y-104557098D01*
X98309588Y-104574590D01*
X98303513Y-104591568D01*
X98295803Y-104607869D01*
X98286533Y-104623336D01*
X98275791Y-104637820D01*
X98263681Y-104651181D01*
X98250320Y-104663291D01*
X98235836Y-104674033D01*
X98220369Y-104683303D01*
X98204068Y-104691013D01*
X98187090Y-104697088D01*
X98169598Y-104701469D01*
X98151761Y-104704115D01*
X98133750Y-104705000D01*
X97766250Y-104705000D01*
X97748239Y-104704115D01*
X97730402Y-104701469D01*
X97712910Y-104697088D01*
X97695932Y-104691013D01*
X97679631Y-104683303D01*
X97664164Y-104674033D01*
X97649680Y-104663291D01*
X97636319Y-104651181D01*
X97624209Y-104637820D01*
X97613467Y-104623336D01*
X97604197Y-104607869D01*
X97596487Y-104591568D01*
X97590412Y-104574590D01*
X97586031Y-104557098D01*
X97583385Y-104539261D01*
X97582500Y-104521250D01*
X97582500Y-104078750D01*
X97583385Y-104060739D01*
X97586031Y-104042902D01*
X97590412Y-104025410D01*
X97596487Y-104008432D01*
X97604197Y-103992131D01*
X97613467Y-103976664D01*
X97624209Y-103962180D01*
X97636319Y-103948819D01*
X97649680Y-103936709D01*
X97664164Y-103925967D01*
X97679631Y-103916697D01*
X97695932Y-103908987D01*
X97712910Y-103902912D01*
X97730402Y-103898531D01*
X97748239Y-103895885D01*
X97766250Y-103895000D01*
X98133750Y-103895000D01*
X98151761Y-103895885D01*
X98151761Y-103895885D01*
G37*
D18*
X97950000Y-104300000D03*
D16*
G36*
X97251761Y-100595885D02*
X97269598Y-100598531D01*
X97287090Y-100602912D01*
X97304068Y-100608987D01*
X97320369Y-100616697D01*
X97335836Y-100625967D01*
X97350320Y-100636709D01*
X97363681Y-100648819D01*
X97375791Y-100662180D01*
X97386533Y-100676664D01*
X97395803Y-100692131D01*
X97403513Y-100708432D01*
X97409588Y-100725410D01*
X97413969Y-100742902D01*
X97416615Y-100760739D01*
X97417500Y-100778750D01*
X97417500Y-101221250D01*
X97416615Y-101239261D01*
X97413969Y-101257098D01*
X97409588Y-101274590D01*
X97403513Y-101291568D01*
X97395803Y-101307869D01*
X97386533Y-101323336D01*
X97375791Y-101337820D01*
X97363681Y-101351181D01*
X97350320Y-101363291D01*
X97335836Y-101374033D01*
X97320369Y-101383303D01*
X97304068Y-101391013D01*
X97287090Y-101397088D01*
X97269598Y-101401469D01*
X97251761Y-101404115D01*
X97233750Y-101405000D01*
X96866250Y-101405000D01*
X96848239Y-101404115D01*
X96830402Y-101401469D01*
X96812910Y-101397088D01*
X96795932Y-101391013D01*
X96779631Y-101383303D01*
X96764164Y-101374033D01*
X96749680Y-101363291D01*
X96736319Y-101351181D01*
X96724209Y-101337820D01*
X96713467Y-101323336D01*
X96704197Y-101307869D01*
X96696487Y-101291568D01*
X96690412Y-101274590D01*
X96686031Y-101257098D01*
X96683385Y-101239261D01*
X96682500Y-101221250D01*
X96682500Y-100778750D01*
X96683385Y-100760739D01*
X96686031Y-100742902D01*
X96690412Y-100725410D01*
X96696487Y-100708432D01*
X96704197Y-100692131D01*
X96713467Y-100676664D01*
X96724209Y-100662180D01*
X96736319Y-100648819D01*
X96749680Y-100636709D01*
X96764164Y-100625967D01*
X96779631Y-100616697D01*
X96795932Y-100608987D01*
X96812910Y-100602912D01*
X96830402Y-100598531D01*
X96848239Y-100595885D01*
X96866250Y-100595000D01*
X97233750Y-100595000D01*
X97251761Y-100595885D01*
X97251761Y-100595885D01*
G37*
D18*
X97050000Y-101000000D03*
D16*
G36*
X98151761Y-100595885D02*
X98169598Y-100598531D01*
X98187090Y-100602912D01*
X98204068Y-100608987D01*
X98220369Y-100616697D01*
X98235836Y-100625967D01*
X98250320Y-100636709D01*
X98263681Y-100648819D01*
X98275791Y-100662180D01*
X98286533Y-100676664D01*
X98295803Y-100692131D01*
X98303513Y-100708432D01*
X98309588Y-100725410D01*
X98313969Y-100742902D01*
X98316615Y-100760739D01*
X98317500Y-100778750D01*
X98317500Y-101221250D01*
X98316615Y-101239261D01*
X98313969Y-101257098D01*
X98309588Y-101274590D01*
X98303513Y-101291568D01*
X98295803Y-101307869D01*
X98286533Y-101323336D01*
X98275791Y-101337820D01*
X98263681Y-101351181D01*
X98250320Y-101363291D01*
X98235836Y-101374033D01*
X98220369Y-101383303D01*
X98204068Y-101391013D01*
X98187090Y-101397088D01*
X98169598Y-101401469D01*
X98151761Y-101404115D01*
X98133750Y-101405000D01*
X97766250Y-101405000D01*
X97748239Y-101404115D01*
X97730402Y-101401469D01*
X97712910Y-101397088D01*
X97695932Y-101391013D01*
X97679631Y-101383303D01*
X97664164Y-101374033D01*
X97649680Y-101363291D01*
X97636319Y-101351181D01*
X97624209Y-101337820D01*
X97613467Y-101323336D01*
X97604197Y-101307869D01*
X97596487Y-101291568D01*
X97590412Y-101274590D01*
X97586031Y-101257098D01*
X97583385Y-101239261D01*
X97582500Y-101221250D01*
X97582500Y-100778750D01*
X97583385Y-100760739D01*
X97586031Y-100742902D01*
X97590412Y-100725410D01*
X97596487Y-100708432D01*
X97604197Y-100692131D01*
X97613467Y-100676664D01*
X97624209Y-100662180D01*
X97636319Y-100648819D01*
X97649680Y-100636709D01*
X97664164Y-100625967D01*
X97679631Y-100616697D01*
X97695932Y-100608987D01*
X97712910Y-100602912D01*
X97730402Y-100598531D01*
X97748239Y-100595885D01*
X97766250Y-100595000D01*
X98133750Y-100595000D01*
X98151761Y-100595885D01*
X98151761Y-100595885D01*
G37*
D18*
X97950000Y-101000000D03*
D16*
G36*
X98151761Y-101595885D02*
X98169598Y-101598531D01*
X98187090Y-101602912D01*
X98204068Y-101608987D01*
X98220369Y-101616697D01*
X98235836Y-101625967D01*
X98250320Y-101636709D01*
X98263681Y-101648819D01*
X98275791Y-101662180D01*
X98286533Y-101676664D01*
X98295803Y-101692131D01*
X98303513Y-101708432D01*
X98309588Y-101725410D01*
X98313969Y-101742902D01*
X98316615Y-101760739D01*
X98317500Y-101778750D01*
X98317500Y-102221250D01*
X98316615Y-102239261D01*
X98313969Y-102257098D01*
X98309588Y-102274590D01*
X98303513Y-102291568D01*
X98295803Y-102307869D01*
X98286533Y-102323336D01*
X98275791Y-102337820D01*
X98263681Y-102351181D01*
X98250320Y-102363291D01*
X98235836Y-102374033D01*
X98220369Y-102383303D01*
X98204068Y-102391013D01*
X98187090Y-102397088D01*
X98169598Y-102401469D01*
X98151761Y-102404115D01*
X98133750Y-102405000D01*
X97766250Y-102405000D01*
X97748239Y-102404115D01*
X97730402Y-102401469D01*
X97712910Y-102397088D01*
X97695932Y-102391013D01*
X97679631Y-102383303D01*
X97664164Y-102374033D01*
X97649680Y-102363291D01*
X97636319Y-102351181D01*
X97624209Y-102337820D01*
X97613467Y-102323336D01*
X97604197Y-102307869D01*
X97596487Y-102291568D01*
X97590412Y-102274590D01*
X97586031Y-102257098D01*
X97583385Y-102239261D01*
X97582500Y-102221250D01*
X97582500Y-101778750D01*
X97583385Y-101760739D01*
X97586031Y-101742902D01*
X97590412Y-101725410D01*
X97596487Y-101708432D01*
X97604197Y-101692131D01*
X97613467Y-101676664D01*
X97624209Y-101662180D01*
X97636319Y-101648819D01*
X97649680Y-101636709D01*
X97664164Y-101625967D01*
X97679631Y-101616697D01*
X97695932Y-101608987D01*
X97712910Y-101602912D01*
X97730402Y-101598531D01*
X97748239Y-101595885D01*
X97766250Y-101595000D01*
X98133750Y-101595000D01*
X98151761Y-101595885D01*
X98151761Y-101595885D01*
G37*
D18*
X97950000Y-102000000D03*
D16*
G36*
X97251761Y-101595885D02*
X97269598Y-101598531D01*
X97287090Y-101602912D01*
X97304068Y-101608987D01*
X97320369Y-101616697D01*
X97335836Y-101625967D01*
X97350320Y-101636709D01*
X97363681Y-101648819D01*
X97375791Y-101662180D01*
X97386533Y-101676664D01*
X97395803Y-101692131D01*
X97403513Y-101708432D01*
X97409588Y-101725410D01*
X97413969Y-101742902D01*
X97416615Y-101760739D01*
X97417500Y-101778750D01*
X97417500Y-102221250D01*
X97416615Y-102239261D01*
X97413969Y-102257098D01*
X97409588Y-102274590D01*
X97403513Y-102291568D01*
X97395803Y-102307869D01*
X97386533Y-102323336D01*
X97375791Y-102337820D01*
X97363681Y-102351181D01*
X97350320Y-102363291D01*
X97335836Y-102374033D01*
X97320369Y-102383303D01*
X97304068Y-102391013D01*
X97287090Y-102397088D01*
X97269598Y-102401469D01*
X97251761Y-102404115D01*
X97233750Y-102405000D01*
X96866250Y-102405000D01*
X96848239Y-102404115D01*
X96830402Y-102401469D01*
X96812910Y-102397088D01*
X96795932Y-102391013D01*
X96779631Y-102383303D01*
X96764164Y-102374033D01*
X96749680Y-102363291D01*
X96736319Y-102351181D01*
X96724209Y-102337820D01*
X96713467Y-102323336D01*
X96704197Y-102307869D01*
X96696487Y-102291568D01*
X96690412Y-102274590D01*
X96686031Y-102257098D01*
X96683385Y-102239261D01*
X96682500Y-102221250D01*
X96682500Y-101778750D01*
X96683385Y-101760739D01*
X96686031Y-101742902D01*
X96690412Y-101725410D01*
X96696487Y-101708432D01*
X96704197Y-101692131D01*
X96713467Y-101676664D01*
X96724209Y-101662180D01*
X96736319Y-101648819D01*
X96749680Y-101636709D01*
X96764164Y-101625967D01*
X96779631Y-101616697D01*
X96795932Y-101608987D01*
X96812910Y-101602912D01*
X96830402Y-101598531D01*
X96848239Y-101595885D01*
X96866250Y-101595000D01*
X97233750Y-101595000D01*
X97251761Y-101595885D01*
X97251761Y-101595885D01*
G37*
D18*
X97050000Y-102000000D03*
D20*
X100250000Y-108900000D03*
X100750000Y-108900000D03*
X101250000Y-108900000D03*
X101750000Y-108900000D03*
X102250000Y-108900000D03*
X102750000Y-108900000D03*
X103250000Y-108900000D03*
X103750000Y-108900000D03*
X104250000Y-108900000D03*
X104750000Y-108900000D03*
X105250000Y-108900000D03*
X105750000Y-108900000D03*
D21*
X106400000Y-108250000D03*
X106400000Y-107750000D03*
X106400000Y-107250000D03*
X106400000Y-106750000D03*
X106400000Y-106250000D03*
X106400000Y-105750000D03*
X106400000Y-105250000D03*
X106400000Y-104750000D03*
X106400000Y-104250000D03*
X106400000Y-103750000D03*
X106400000Y-103250000D03*
X106400000Y-102750000D03*
D20*
X105750000Y-102100000D03*
X105250000Y-102100000D03*
X104750000Y-102100000D03*
X104250000Y-102100000D03*
X103750000Y-102100000D03*
X103250000Y-102100000D03*
X102750000Y-102100000D03*
X102250000Y-102100000D03*
X101750000Y-102100000D03*
X101250000Y-102100000D03*
X100750000Y-102100000D03*
X100250000Y-102100000D03*
D21*
X99600000Y-102750000D03*
X99600000Y-103250000D03*
X99600000Y-103750000D03*
X99600000Y-104250000D03*
X99600000Y-104750000D03*
X99600000Y-105250000D03*
X99600000Y-105750000D03*
X99600000Y-106250000D03*
X99600000Y-106750000D03*
X99600000Y-107250000D03*
X99600000Y-107750000D03*
X99600000Y-108250000D03*
D16*
G36*
X105176047Y-102847557D02*
X105227593Y-102855203D01*
X105278141Y-102867865D01*
X105327205Y-102885420D01*
X105374312Y-102907700D01*
X105419008Y-102934490D01*
X105460863Y-102965531D01*
X105499474Y-103000526D01*
X105534469Y-103039137D01*
X105565510Y-103080992D01*
X105592300Y-103125688D01*
X105614580Y-103172795D01*
X105632135Y-103221859D01*
X105644797Y-103272407D01*
X105652443Y-103323953D01*
X105655000Y-103376000D01*
X105655000Y-107624000D01*
X105652443Y-107676047D01*
X105644797Y-107727593D01*
X105632135Y-107778141D01*
X105614580Y-107827205D01*
X105592300Y-107874312D01*
X105565510Y-107919008D01*
X105534469Y-107960863D01*
X105499474Y-107999474D01*
X105460863Y-108034469D01*
X105419008Y-108065510D01*
X105374312Y-108092300D01*
X105327205Y-108114580D01*
X105278141Y-108132135D01*
X105227593Y-108144797D01*
X105176047Y-108152443D01*
X105124000Y-108155000D01*
X100876000Y-108155000D01*
X100823953Y-108152443D01*
X100772407Y-108144797D01*
X100721859Y-108132135D01*
X100672795Y-108114580D01*
X100625688Y-108092300D01*
X100580992Y-108065510D01*
X100539137Y-108034469D01*
X100500526Y-107999474D01*
X100465531Y-107960863D01*
X100434490Y-107919008D01*
X100407700Y-107874312D01*
X100385420Y-107827205D01*
X100367865Y-107778141D01*
X100355203Y-107727593D01*
X100347557Y-107676047D01*
X100345000Y-107624000D01*
X100345000Y-103376000D01*
X100347557Y-103323953D01*
X100355203Y-103272407D01*
X100367865Y-103221859D01*
X100385420Y-103172795D01*
X100407700Y-103125688D01*
X100434490Y-103080992D01*
X100465531Y-103039137D01*
X100500526Y-103000526D01*
X100539137Y-102965531D01*
X100580992Y-102934490D01*
X100625688Y-102907700D01*
X100672795Y-102885420D01*
X100721859Y-102867865D01*
X100772407Y-102855203D01*
X100823953Y-102847557D01*
X100876000Y-102845000D01*
X105124000Y-102845000D01*
X105176047Y-102847557D01*
X105176047Y-102847557D01*
G37*
D22*
X103000000Y-105500000D03*
D16*
G36*
X93522348Y-107290975D02*
X93542006Y-107293891D01*
X93561283Y-107298720D01*
X93579993Y-107305414D01*
X93597958Y-107313911D01*
X93615003Y-107324127D01*
X93630965Y-107335965D01*
X93645689Y-107349311D01*
X93659035Y-107364035D01*
X93670873Y-107379997D01*
X93681089Y-107397042D01*
X93689586Y-107415007D01*
X93696280Y-107433717D01*
X93701109Y-107452994D01*
X93704025Y-107472652D01*
X93705000Y-107492500D01*
X93705000Y-108307500D01*
X93704025Y-108327348D01*
X93701109Y-108347006D01*
X93696280Y-108366283D01*
X93689586Y-108384993D01*
X93681089Y-108402958D01*
X93670873Y-108420003D01*
X93659035Y-108435965D01*
X93645689Y-108450689D01*
X93630965Y-108464035D01*
X93615003Y-108475873D01*
X93597958Y-108486089D01*
X93579993Y-108494586D01*
X93561283Y-108501280D01*
X93542006Y-108506109D01*
X93522348Y-108509025D01*
X93502500Y-108510000D01*
X93097500Y-108510000D01*
X93077652Y-108509025D01*
X93057994Y-108506109D01*
X93038717Y-108501280D01*
X93020007Y-108494586D01*
X93002042Y-108486089D01*
X92984997Y-108475873D01*
X92969035Y-108464035D01*
X92954311Y-108450689D01*
X92940965Y-108435965D01*
X92929127Y-108420003D01*
X92918911Y-108402958D01*
X92910414Y-108384993D01*
X92903720Y-108366283D01*
X92898891Y-108347006D01*
X92895975Y-108327348D01*
X92895000Y-108307500D01*
X92895000Y-107492500D01*
X92895975Y-107472652D01*
X92898891Y-107452994D01*
X92903720Y-107433717D01*
X92910414Y-107415007D01*
X92918911Y-107397042D01*
X92929127Y-107379997D01*
X92940965Y-107364035D01*
X92954311Y-107349311D01*
X92969035Y-107335965D01*
X92984997Y-107324127D01*
X93002042Y-107313911D01*
X93020007Y-107305414D01*
X93038717Y-107298720D01*
X93057994Y-107293891D01*
X93077652Y-107290975D01*
X93097500Y-107290000D01*
X93502500Y-107290000D01*
X93522348Y-107290975D01*
X93522348Y-107290975D01*
G37*
D23*
X93300000Y-107900000D03*
D16*
G36*
X94472348Y-107290975D02*
X94492006Y-107293891D01*
X94511283Y-107298720D01*
X94529993Y-107305414D01*
X94547958Y-107313911D01*
X94565003Y-107324127D01*
X94580965Y-107335965D01*
X94595689Y-107349311D01*
X94609035Y-107364035D01*
X94620873Y-107379997D01*
X94631089Y-107397042D01*
X94639586Y-107415007D01*
X94646280Y-107433717D01*
X94651109Y-107452994D01*
X94654025Y-107472652D01*
X94655000Y-107492500D01*
X94655000Y-108307500D01*
X94654025Y-108327348D01*
X94651109Y-108347006D01*
X94646280Y-108366283D01*
X94639586Y-108384993D01*
X94631089Y-108402958D01*
X94620873Y-108420003D01*
X94609035Y-108435965D01*
X94595689Y-108450689D01*
X94580965Y-108464035D01*
X94565003Y-108475873D01*
X94547958Y-108486089D01*
X94529993Y-108494586D01*
X94511283Y-108501280D01*
X94492006Y-108506109D01*
X94472348Y-108509025D01*
X94452500Y-108510000D01*
X94047500Y-108510000D01*
X94027652Y-108509025D01*
X94007994Y-108506109D01*
X93988717Y-108501280D01*
X93970007Y-108494586D01*
X93952042Y-108486089D01*
X93934997Y-108475873D01*
X93919035Y-108464035D01*
X93904311Y-108450689D01*
X93890965Y-108435965D01*
X93879127Y-108420003D01*
X93868911Y-108402958D01*
X93860414Y-108384993D01*
X93853720Y-108366283D01*
X93848891Y-108347006D01*
X93845975Y-108327348D01*
X93845000Y-108307500D01*
X93845000Y-107492500D01*
X93845975Y-107472652D01*
X93848891Y-107452994D01*
X93853720Y-107433717D01*
X93860414Y-107415007D01*
X93868911Y-107397042D01*
X93879127Y-107379997D01*
X93890965Y-107364035D01*
X93904311Y-107349311D01*
X93919035Y-107335965D01*
X93934997Y-107324127D01*
X93952042Y-107313911D01*
X93970007Y-107305414D01*
X93988717Y-107298720D01*
X94007994Y-107293891D01*
X94027652Y-107290975D01*
X94047500Y-107290000D01*
X94452500Y-107290000D01*
X94472348Y-107290975D01*
X94472348Y-107290975D01*
G37*
D23*
X94250000Y-107900000D03*
D16*
G36*
X95422348Y-107290975D02*
X95442006Y-107293891D01*
X95461283Y-107298720D01*
X95479993Y-107305414D01*
X95497958Y-107313911D01*
X95515003Y-107324127D01*
X95530965Y-107335965D01*
X95545689Y-107349311D01*
X95559035Y-107364035D01*
X95570873Y-107379997D01*
X95581089Y-107397042D01*
X95589586Y-107415007D01*
X95596280Y-107433717D01*
X95601109Y-107452994D01*
X95604025Y-107472652D01*
X95605000Y-107492500D01*
X95605000Y-108307500D01*
X95604025Y-108327348D01*
X95601109Y-108347006D01*
X95596280Y-108366283D01*
X95589586Y-108384993D01*
X95581089Y-108402958D01*
X95570873Y-108420003D01*
X95559035Y-108435965D01*
X95545689Y-108450689D01*
X95530965Y-108464035D01*
X95515003Y-108475873D01*
X95497958Y-108486089D01*
X95479993Y-108494586D01*
X95461283Y-108501280D01*
X95442006Y-108506109D01*
X95422348Y-108509025D01*
X95402500Y-108510000D01*
X94997500Y-108510000D01*
X94977652Y-108509025D01*
X94957994Y-108506109D01*
X94938717Y-108501280D01*
X94920007Y-108494586D01*
X94902042Y-108486089D01*
X94884997Y-108475873D01*
X94869035Y-108464035D01*
X94854311Y-108450689D01*
X94840965Y-108435965D01*
X94829127Y-108420003D01*
X94818911Y-108402958D01*
X94810414Y-108384993D01*
X94803720Y-108366283D01*
X94798891Y-108347006D01*
X94795975Y-108327348D01*
X94795000Y-108307500D01*
X94795000Y-107492500D01*
X94795975Y-107472652D01*
X94798891Y-107452994D01*
X94803720Y-107433717D01*
X94810414Y-107415007D01*
X94818911Y-107397042D01*
X94829127Y-107379997D01*
X94840965Y-107364035D01*
X94854311Y-107349311D01*
X94869035Y-107335965D01*
X94884997Y-107324127D01*
X94902042Y-107313911D01*
X94920007Y-107305414D01*
X94938717Y-107298720D01*
X94957994Y-107293891D01*
X94977652Y-107290975D01*
X94997500Y-107290000D01*
X95402500Y-107290000D01*
X95422348Y-107290975D01*
X95422348Y-107290975D01*
G37*
D23*
X95200000Y-107900000D03*
D16*
G36*
X95422348Y-104890975D02*
X95442006Y-104893891D01*
X95461283Y-104898720D01*
X95479993Y-104905414D01*
X95497958Y-104913911D01*
X95515003Y-104924127D01*
X95530965Y-104935965D01*
X95545689Y-104949311D01*
X95559035Y-104964035D01*
X95570873Y-104979997D01*
X95581089Y-104997042D01*
X95589586Y-105015007D01*
X95596280Y-105033717D01*
X95601109Y-105052994D01*
X95604025Y-105072652D01*
X95605000Y-105092500D01*
X95605000Y-105907500D01*
X95604025Y-105927348D01*
X95601109Y-105947006D01*
X95596280Y-105966283D01*
X95589586Y-105984993D01*
X95581089Y-106002958D01*
X95570873Y-106020003D01*
X95559035Y-106035965D01*
X95545689Y-106050689D01*
X95530965Y-106064035D01*
X95515003Y-106075873D01*
X95497958Y-106086089D01*
X95479993Y-106094586D01*
X95461283Y-106101280D01*
X95442006Y-106106109D01*
X95422348Y-106109025D01*
X95402500Y-106110000D01*
X94997500Y-106110000D01*
X94977652Y-106109025D01*
X94957994Y-106106109D01*
X94938717Y-106101280D01*
X94920007Y-106094586D01*
X94902042Y-106086089D01*
X94884997Y-106075873D01*
X94869035Y-106064035D01*
X94854311Y-106050689D01*
X94840965Y-106035965D01*
X94829127Y-106020003D01*
X94818911Y-106002958D01*
X94810414Y-105984993D01*
X94803720Y-105966283D01*
X94798891Y-105947006D01*
X94795975Y-105927348D01*
X94795000Y-105907500D01*
X94795000Y-105092500D01*
X94795975Y-105072652D01*
X94798891Y-105052994D01*
X94803720Y-105033717D01*
X94810414Y-105015007D01*
X94818911Y-104997042D01*
X94829127Y-104979997D01*
X94840965Y-104964035D01*
X94854311Y-104949311D01*
X94869035Y-104935965D01*
X94884997Y-104924127D01*
X94902042Y-104913911D01*
X94920007Y-104905414D01*
X94938717Y-104898720D01*
X94957994Y-104893891D01*
X94977652Y-104890975D01*
X94997500Y-104890000D01*
X95402500Y-104890000D01*
X95422348Y-104890975D01*
X95422348Y-104890975D01*
G37*
D23*
X95200000Y-105500000D03*
D16*
G36*
X93522348Y-104890975D02*
X93542006Y-104893891D01*
X93561283Y-104898720D01*
X93579993Y-104905414D01*
X93597958Y-104913911D01*
X93615003Y-104924127D01*
X93630965Y-104935965D01*
X93645689Y-104949311D01*
X93659035Y-104964035D01*
X93670873Y-104979997D01*
X93681089Y-104997042D01*
X93689586Y-105015007D01*
X93696280Y-105033717D01*
X93701109Y-105052994D01*
X93704025Y-105072652D01*
X93705000Y-105092500D01*
X93705000Y-105907500D01*
X93704025Y-105927348D01*
X93701109Y-105947006D01*
X93696280Y-105966283D01*
X93689586Y-105984993D01*
X93681089Y-106002958D01*
X93670873Y-106020003D01*
X93659035Y-106035965D01*
X93645689Y-106050689D01*
X93630965Y-106064035D01*
X93615003Y-106075873D01*
X93597958Y-106086089D01*
X93579993Y-106094586D01*
X93561283Y-106101280D01*
X93542006Y-106106109D01*
X93522348Y-106109025D01*
X93502500Y-106110000D01*
X93097500Y-106110000D01*
X93077652Y-106109025D01*
X93057994Y-106106109D01*
X93038717Y-106101280D01*
X93020007Y-106094586D01*
X93002042Y-106086089D01*
X92984997Y-106075873D01*
X92969035Y-106064035D01*
X92954311Y-106050689D01*
X92940965Y-106035965D01*
X92929127Y-106020003D01*
X92918911Y-106002958D01*
X92910414Y-105984993D01*
X92903720Y-105966283D01*
X92898891Y-105947006D01*
X92895975Y-105927348D01*
X92895000Y-105907500D01*
X92895000Y-105092500D01*
X92895975Y-105072652D01*
X92898891Y-105052994D01*
X92903720Y-105033717D01*
X92910414Y-105015007D01*
X92918911Y-104997042D01*
X92929127Y-104979997D01*
X92940965Y-104964035D01*
X92954311Y-104949311D01*
X92969035Y-104935965D01*
X92984997Y-104924127D01*
X93002042Y-104913911D01*
X93020007Y-104905414D01*
X93038717Y-104898720D01*
X93057994Y-104893891D01*
X93077652Y-104890975D01*
X93097500Y-104890000D01*
X93502500Y-104890000D01*
X93522348Y-104890975D01*
X93522348Y-104890975D01*
G37*
D23*
X93300000Y-105500000D03*
M02*
