G04 #@! TF.GenerationSoftware,KiCad,Pcbnew,5.0.0-rc1-44a33f2~62~ubuntu16.04.1*
G04 #@! TF.CreationDate,2018-03-27T11:26:02+02:00*
G04 #@! TF.ProjectId,ubmp_v1_pcbusb,75626D705F76315F7063627573622E6B,rev?*
G04 #@! TF.SameCoordinates,Original*
G04 #@! TF.FileFunction,Copper,L2,Bot,Signal*
G04 #@! TF.FilePolarity,Positive*
%FSLAX46Y46*%
G04 Gerber Fmt 4.6, Leading zero omitted, Abs format (unit mm)*
G04 Created by KiCad (PCBNEW 5.0.0-rc1-44a33f2~62~ubuntu16.04.1) date Tue Mar 27 11:26:02 2018*
%MOMM*%
%LPD*%
G01*
G04 APERTURE LIST*
%ADD10C,0.100000*%
%ADD11C,1.600000*%
%ADD12C,1.000000*%
%ADD13C,0.600000*%
%ADD14C,0.600000*%
%ADD15C,0.200000*%
G04 APERTURE END LIST*
D10*
G36*
X118139207Y-110281926D02*
X118178036Y-110287686D01*
X118216114Y-110297224D01*
X118253073Y-110310448D01*
X118288559Y-110327231D01*
X118322228Y-110347412D01*
X118353757Y-110370796D01*
X118382843Y-110397157D01*
X118409204Y-110426243D01*
X118432588Y-110457772D01*
X118452769Y-110491441D01*
X118469552Y-110526927D01*
X118482776Y-110563886D01*
X118492314Y-110601964D01*
X118498074Y-110640793D01*
X118500000Y-110680000D01*
X118500000Y-111480000D01*
X118498074Y-111519207D01*
X118492314Y-111558036D01*
X118482776Y-111596114D01*
X118469552Y-111633073D01*
X118452769Y-111668559D01*
X118432588Y-111702228D01*
X118409204Y-111733757D01*
X118382843Y-111762843D01*
X118353757Y-111789204D01*
X118322228Y-111812588D01*
X118288559Y-111832769D01*
X118253073Y-111849552D01*
X118216114Y-111862776D01*
X118178036Y-111872314D01*
X118139207Y-111878074D01*
X118100000Y-111880000D01*
X116400000Y-111880000D01*
X116360793Y-111878074D01*
X116321964Y-111872314D01*
X116283886Y-111862776D01*
X116246927Y-111849552D01*
X116211441Y-111832769D01*
X116177772Y-111812588D01*
X116146243Y-111789204D01*
X116117157Y-111762843D01*
X116090796Y-111733757D01*
X116067412Y-111702228D01*
X116047231Y-111668559D01*
X116030448Y-111633073D01*
X116017224Y-111596114D01*
X116007686Y-111558036D01*
X116001926Y-111519207D01*
X116000000Y-111480000D01*
X116000000Y-110680000D01*
X116001926Y-110640793D01*
X116007686Y-110601964D01*
X116017224Y-110563886D01*
X116030448Y-110526927D01*
X116047231Y-110491441D01*
X116067412Y-110457772D01*
X116090796Y-110426243D01*
X116117157Y-110397157D01*
X116146243Y-110370796D01*
X116177772Y-110347412D01*
X116211441Y-110327231D01*
X116246927Y-110310448D01*
X116283886Y-110297224D01*
X116321964Y-110287686D01*
X116360793Y-110281926D01*
X116400000Y-110280000D01*
X118100000Y-110280000D01*
X118139207Y-110281926D01*
X118139207Y-110281926D01*
G37*
D11*
X117250000Y-111080000D03*
D10*
G36*
X118139207Y-100121926D02*
X118178036Y-100127686D01*
X118216114Y-100137224D01*
X118253073Y-100150448D01*
X118288559Y-100167231D01*
X118322228Y-100187412D01*
X118353757Y-100210796D01*
X118382843Y-100237157D01*
X118409204Y-100266243D01*
X118432588Y-100297772D01*
X118452769Y-100331441D01*
X118469552Y-100366927D01*
X118482776Y-100403886D01*
X118492314Y-100441964D01*
X118498074Y-100480793D01*
X118500000Y-100520000D01*
X118500000Y-101320000D01*
X118498074Y-101359207D01*
X118492314Y-101398036D01*
X118482776Y-101436114D01*
X118469552Y-101473073D01*
X118452769Y-101508559D01*
X118432588Y-101542228D01*
X118409204Y-101573757D01*
X118382843Y-101602843D01*
X118353757Y-101629204D01*
X118322228Y-101652588D01*
X118288559Y-101672769D01*
X118253073Y-101689552D01*
X118216114Y-101702776D01*
X118178036Y-101712314D01*
X118139207Y-101718074D01*
X118100000Y-101720000D01*
X116400000Y-101720000D01*
X116360793Y-101718074D01*
X116321964Y-101712314D01*
X116283886Y-101702776D01*
X116246927Y-101689552D01*
X116211441Y-101672769D01*
X116177772Y-101652588D01*
X116146243Y-101629204D01*
X116117157Y-101602843D01*
X116090796Y-101573757D01*
X116067412Y-101542228D01*
X116047231Y-101508559D01*
X116030448Y-101473073D01*
X116017224Y-101436114D01*
X116007686Y-101398036D01*
X116001926Y-101359207D01*
X116000000Y-101320000D01*
X116000000Y-100520000D01*
X116001926Y-100480793D01*
X116007686Y-100441964D01*
X116017224Y-100403886D01*
X116030448Y-100366927D01*
X116047231Y-100331441D01*
X116067412Y-100297772D01*
X116090796Y-100266243D01*
X116117157Y-100237157D01*
X116146243Y-100210796D01*
X116177772Y-100187412D01*
X116211441Y-100167231D01*
X116246927Y-100150448D01*
X116283886Y-100137224D01*
X116321964Y-100127686D01*
X116360793Y-100121926D01*
X116400000Y-100120000D01*
X118100000Y-100120000D01*
X118139207Y-100121926D01*
X118139207Y-100121926D01*
G37*
D11*
X117250000Y-100920000D03*
D10*
G36*
X118139207Y-105201926D02*
X118178036Y-105207686D01*
X118216114Y-105217224D01*
X118253073Y-105230448D01*
X118288559Y-105247231D01*
X118322228Y-105267412D01*
X118353757Y-105290796D01*
X118382843Y-105317157D01*
X118409204Y-105346243D01*
X118432588Y-105377772D01*
X118452769Y-105411441D01*
X118469552Y-105446927D01*
X118482776Y-105483886D01*
X118492314Y-105521964D01*
X118498074Y-105560793D01*
X118500000Y-105600000D01*
X118500000Y-106400000D01*
X118498074Y-106439207D01*
X118492314Y-106478036D01*
X118482776Y-106516114D01*
X118469552Y-106553073D01*
X118452769Y-106588559D01*
X118432588Y-106622228D01*
X118409204Y-106653757D01*
X118382843Y-106682843D01*
X118353757Y-106709204D01*
X118322228Y-106732588D01*
X118288559Y-106752769D01*
X118253073Y-106769552D01*
X118216114Y-106782776D01*
X118178036Y-106792314D01*
X118139207Y-106798074D01*
X118100000Y-106800000D01*
X116400000Y-106800000D01*
X116360793Y-106798074D01*
X116321964Y-106792314D01*
X116283886Y-106782776D01*
X116246927Y-106769552D01*
X116211441Y-106752769D01*
X116177772Y-106732588D01*
X116146243Y-106709204D01*
X116117157Y-106682843D01*
X116090796Y-106653757D01*
X116067412Y-106622228D01*
X116047231Y-106588559D01*
X116030448Y-106553073D01*
X116017224Y-106516114D01*
X116007686Y-106478036D01*
X116001926Y-106439207D01*
X116000000Y-106400000D01*
X116000000Y-105600000D01*
X116001926Y-105560793D01*
X116007686Y-105521964D01*
X116017224Y-105483886D01*
X116030448Y-105446927D01*
X116047231Y-105411441D01*
X116067412Y-105377772D01*
X116090796Y-105346243D01*
X116117157Y-105317157D01*
X116146243Y-105290796D01*
X116177772Y-105267412D01*
X116211441Y-105247231D01*
X116246927Y-105230448D01*
X116283886Y-105217224D01*
X116321964Y-105207686D01*
X116360793Y-105201926D01*
X116400000Y-105200000D01*
X118100000Y-105200000D01*
X118139207Y-105201926D01*
X118139207Y-105201926D01*
G37*
D11*
X117250000Y-106000000D03*
D10*
G36*
X118139207Y-102661926D02*
X118178036Y-102667686D01*
X118216114Y-102677224D01*
X118253073Y-102690448D01*
X118288559Y-102707231D01*
X118322228Y-102727412D01*
X118353757Y-102750796D01*
X118382843Y-102777157D01*
X118409204Y-102806243D01*
X118432588Y-102837772D01*
X118452769Y-102871441D01*
X118469552Y-102906927D01*
X118482776Y-102943886D01*
X118492314Y-102981964D01*
X118498074Y-103020793D01*
X118500000Y-103060000D01*
X118500000Y-103860000D01*
X118498074Y-103899207D01*
X118492314Y-103938036D01*
X118482776Y-103976114D01*
X118469552Y-104013073D01*
X118452769Y-104048559D01*
X118432588Y-104082228D01*
X118409204Y-104113757D01*
X118382843Y-104142843D01*
X118353757Y-104169204D01*
X118322228Y-104192588D01*
X118288559Y-104212769D01*
X118253073Y-104229552D01*
X118216114Y-104242776D01*
X118178036Y-104252314D01*
X118139207Y-104258074D01*
X118100000Y-104260000D01*
X116400000Y-104260000D01*
X116360793Y-104258074D01*
X116321964Y-104252314D01*
X116283886Y-104242776D01*
X116246927Y-104229552D01*
X116211441Y-104212769D01*
X116177772Y-104192588D01*
X116146243Y-104169204D01*
X116117157Y-104142843D01*
X116090796Y-104113757D01*
X116067412Y-104082228D01*
X116047231Y-104048559D01*
X116030448Y-104013073D01*
X116017224Y-103976114D01*
X116007686Y-103938036D01*
X116001926Y-103899207D01*
X116000000Y-103860000D01*
X116000000Y-103060000D01*
X116001926Y-103020793D01*
X116007686Y-102981964D01*
X116017224Y-102943886D01*
X116030448Y-102906927D01*
X116047231Y-102871441D01*
X116067412Y-102837772D01*
X116090796Y-102806243D01*
X116117157Y-102777157D01*
X116146243Y-102750796D01*
X116177772Y-102727412D01*
X116211441Y-102707231D01*
X116246927Y-102690448D01*
X116283886Y-102677224D01*
X116321964Y-102667686D01*
X116360793Y-102661926D01*
X116400000Y-102660000D01*
X118100000Y-102660000D01*
X118139207Y-102661926D01*
X118139207Y-102661926D01*
G37*
D11*
X117250000Y-103460000D03*
D10*
G36*
X118139207Y-107741926D02*
X118178036Y-107747686D01*
X118216114Y-107757224D01*
X118253073Y-107770448D01*
X118288559Y-107787231D01*
X118322228Y-107807412D01*
X118353757Y-107830796D01*
X118382843Y-107857157D01*
X118409204Y-107886243D01*
X118432588Y-107917772D01*
X118452769Y-107951441D01*
X118469552Y-107986927D01*
X118482776Y-108023886D01*
X118492314Y-108061964D01*
X118498074Y-108100793D01*
X118500000Y-108140000D01*
X118500000Y-108940000D01*
X118498074Y-108979207D01*
X118492314Y-109018036D01*
X118482776Y-109056114D01*
X118469552Y-109093073D01*
X118452769Y-109128559D01*
X118432588Y-109162228D01*
X118409204Y-109193757D01*
X118382843Y-109222843D01*
X118353757Y-109249204D01*
X118322228Y-109272588D01*
X118288559Y-109292769D01*
X118253073Y-109309552D01*
X118216114Y-109322776D01*
X118178036Y-109332314D01*
X118139207Y-109338074D01*
X118100000Y-109340000D01*
X116400000Y-109340000D01*
X116360793Y-109338074D01*
X116321964Y-109332314D01*
X116283886Y-109322776D01*
X116246927Y-109309552D01*
X116211441Y-109292769D01*
X116177772Y-109272588D01*
X116146243Y-109249204D01*
X116117157Y-109222843D01*
X116090796Y-109193757D01*
X116067412Y-109162228D01*
X116047231Y-109128559D01*
X116030448Y-109093073D01*
X116017224Y-109056114D01*
X116007686Y-109018036D01*
X116001926Y-108979207D01*
X116000000Y-108940000D01*
X116000000Y-108140000D01*
X116001926Y-108100793D01*
X116007686Y-108061964D01*
X116017224Y-108023886D01*
X116030448Y-107986927D01*
X116047231Y-107951441D01*
X116067412Y-107917772D01*
X116090796Y-107886243D01*
X116117157Y-107857157D01*
X116146243Y-107830796D01*
X116177772Y-107807412D01*
X116211441Y-107787231D01*
X116246927Y-107770448D01*
X116283886Y-107757224D01*
X116321964Y-107747686D01*
X116360793Y-107741926D01*
X116400000Y-107740000D01*
X118100000Y-107740000D01*
X118139207Y-107741926D01*
X118139207Y-107741926D01*
G37*
D11*
X117250000Y-108540000D03*
D12*
X97700000Y-101800000D03*
X97700000Y-103800000D03*
X95700000Y-101800000D03*
X95700000Y-103800000D03*
D13*
X90400000Y-101800000D03*
X90400000Y-104000000D03*
X105500000Y-109800000D03*
X107100000Y-102400000D03*
X100200000Y-100900021D03*
X110500000Y-103500000D03*
X107200000Y-111500000D03*
X115400000Y-111250000D03*
X105100000Y-111400000D03*
X110547156Y-106812820D03*
X110874252Y-108730100D03*
X103600000Y-99700000D03*
X94675000Y-112075000D03*
X105250000Y-105500000D03*
X100750000Y-105500000D03*
X103000000Y-107750000D03*
X103000000Y-103250000D03*
X103000000Y-105500000D03*
X97900000Y-107499998D03*
X98600000Y-105300000D03*
X96000000Y-109400000D03*
X118800000Y-99700000D03*
X118800000Y-104800000D03*
X118800000Y-107200000D03*
X118800000Y-112300000D03*
X107150000Y-99650000D03*
X91300000Y-108400000D03*
X91300000Y-110700000D03*
X98800000Y-108900000D03*
X107400000Y-104400000D03*
X112000000Y-100700000D03*
X118800000Y-109800000D03*
X118800000Y-102100000D03*
X92800000Y-101100000D03*
X97100000Y-107400000D03*
X94200000Y-106600000D03*
X94700000Y-102800000D03*
X92200000Y-100400000D03*
X97150000Y-111950000D03*
X96000000Y-107800000D03*
X92200000Y-101975000D03*
X103600000Y-101100000D03*
X102678530Y-100072946D03*
X96449996Y-111050000D03*
X114800000Y-112300000D03*
X92500000Y-107800000D03*
X93414403Y-102508875D03*
X101100000Y-101000004D03*
X99600000Y-102300024D03*
X114400000Y-101650000D03*
X115075735Y-109375735D03*
X114825735Y-104625735D03*
X114700000Y-107200000D03*
D14*
X105500000Y-109375736D02*
X105500000Y-109800000D01*
X105500000Y-108500000D02*
X105500000Y-109375736D01*
X103750000Y-106750000D02*
X105500000Y-108500000D01*
X103850000Y-106650000D02*
X103850000Y-104900000D01*
X103750000Y-106750000D02*
X103850000Y-106650000D01*
X103850000Y-104900000D02*
X106350000Y-102400000D01*
X106350000Y-102400000D02*
X107100000Y-102400000D01*
X98700000Y-105400000D02*
X98700000Y-107050000D01*
X98600000Y-105300000D02*
X98700000Y-105400000D01*
X98700000Y-107050000D02*
X98250002Y-107499998D01*
X99000000Y-106750000D02*
X103750000Y-106750000D01*
X98250002Y-107499998D02*
X99000000Y-106750000D01*
X98250002Y-107499998D02*
X97900000Y-107499998D01*
X98250002Y-107499998D02*
X98000000Y-107499998D01*
X98000000Y-107499998D02*
X97900000Y-107499998D01*
D15*
X95700000Y-101800000D02*
X94700000Y-102800000D01*
D14*
X92500000Y-107800000D02*
X95800000Y-107800000D01*
X95500000Y-107800000D02*
X95800000Y-107800000D01*
X95800000Y-107800000D02*
X96000000Y-107800000D01*
D15*
X92499999Y-102274999D02*
X92200000Y-101975000D01*
X93414403Y-102508875D02*
X92733875Y-102508875D01*
X92733875Y-102508875D02*
X92499999Y-102274999D01*
X98407106Y-101800000D02*
X97700000Y-101800000D01*
X101100000Y-101000004D02*
X100599982Y-101500022D01*
X100599982Y-101500022D02*
X98707084Y-101500022D01*
X98707084Y-101500022D02*
X98407106Y-101800000D01*
X103600000Y-100994416D02*
X103600000Y-101100000D01*
X102678530Y-100072946D02*
X103600000Y-100994416D01*
D14*
X97400000Y-111050000D02*
X96874260Y-111050000D01*
X96874260Y-111050000D02*
X96449996Y-111050000D01*
X98650000Y-112300000D02*
X97400000Y-111050000D01*
X114800000Y-112300000D02*
X98650000Y-112300000D01*
X95700000Y-103800000D02*
X95200001Y-104299999D01*
X95200001Y-104299999D02*
X95200001Y-107799999D01*
X95200001Y-107799999D02*
X95200000Y-107800000D01*
D15*
X98300025Y-103599999D02*
X99300001Y-102600023D01*
X97700000Y-103599999D02*
X98300025Y-103599999D01*
X99300001Y-102600023D02*
X99600000Y-102300024D01*
X116050000Y-101650000D02*
X116780000Y-100920000D01*
X114400000Y-101650000D02*
X116050000Y-101650000D01*
X116780000Y-100920000D02*
X117250000Y-100920000D01*
X115924265Y-109375735D02*
X116760000Y-108540000D01*
X115075735Y-109375735D02*
X115924265Y-109375735D01*
X116760000Y-108540000D02*
X117250000Y-108540000D01*
X115674265Y-104625735D02*
X116840000Y-103460000D01*
X114825735Y-104625735D02*
X115674265Y-104625735D01*
X116840000Y-103460000D02*
X117250000Y-103460000D01*
X115600000Y-107200000D02*
X116800000Y-106000000D01*
X114700000Y-107200000D02*
X115600000Y-107200000D01*
X116800000Y-106000000D02*
X117250000Y-106000000D01*
G36*
X118621045Y-99388667D02*
X118737483Y-99423821D01*
X118844876Y-99480923D01*
X118939128Y-99557793D01*
X119016657Y-99651508D01*
X119074507Y-99758501D01*
X119110472Y-99874688D01*
X119125001Y-100012914D01*
X119125000Y-111981663D01*
X119111333Y-112121044D01*
X119076178Y-112237485D01*
X119019077Y-112344876D01*
X118942207Y-112439128D01*
X118848488Y-112516659D01*
X118741498Y-112574508D01*
X118625316Y-112610472D01*
X118487096Y-112625000D01*
X115306617Y-112625000D01*
X115315259Y-112608832D01*
X115331713Y-112584207D01*
X115343047Y-112556844D01*
X115357010Y-112530721D01*
X115365608Y-112502377D01*
X115376942Y-112475014D01*
X115382721Y-112445963D01*
X115391318Y-112417621D01*
X115394221Y-112388148D01*
X115400000Y-112359095D01*
X115400000Y-112329474D01*
X115402903Y-112300000D01*
X115400000Y-112270526D01*
X115400000Y-112240905D01*
X115394221Y-112211852D01*
X115391318Y-112182379D01*
X115382721Y-112154037D01*
X115376942Y-112124986D01*
X115365608Y-112097623D01*
X115357010Y-112069279D01*
X115343047Y-112043156D01*
X115331713Y-112015793D01*
X115315259Y-111991168D01*
X115301296Y-111965045D01*
X115282504Y-111942147D01*
X115266050Y-111917522D01*
X115245109Y-111896581D01*
X115226317Y-111873683D01*
X115203419Y-111854891D01*
X115182478Y-111833950D01*
X115157853Y-111817496D01*
X115134955Y-111798704D01*
X115108832Y-111784741D01*
X115084207Y-111768287D01*
X115056844Y-111756953D01*
X115030721Y-111742990D01*
X115002377Y-111734392D01*
X114975014Y-111723058D01*
X114945963Y-111717279D01*
X114917621Y-111708682D01*
X114888148Y-111705779D01*
X114859095Y-111700000D01*
X98898528Y-111700000D01*
X98358528Y-111160000D01*
X115700000Y-111160000D01*
X115700000Y-111909547D01*
X115711529Y-111967506D01*
X115734143Y-112022103D01*
X115766975Y-112071239D01*
X115808761Y-112113025D01*
X115857896Y-112145856D01*
X115912493Y-112168471D01*
X115970452Y-112180000D01*
X117170000Y-112180000D01*
X117245000Y-112105000D01*
X117245000Y-111085000D01*
X117255000Y-111085000D01*
X117255000Y-112105000D01*
X117330000Y-112180000D01*
X118529548Y-112180000D01*
X118587507Y-112168471D01*
X118642104Y-112145856D01*
X118691239Y-112113025D01*
X118733025Y-112071239D01*
X118765857Y-112022103D01*
X118788471Y-111967506D01*
X118800000Y-111909547D01*
X118800000Y-111160000D01*
X118725000Y-111085000D01*
X117255000Y-111085000D01*
X117245000Y-111085000D01*
X115775000Y-111085000D01*
X115700000Y-111160000D01*
X98358528Y-111160000D01*
X97845113Y-110646586D01*
X97826317Y-110623683D01*
X97734955Y-110548704D01*
X97630721Y-110492990D01*
X97517621Y-110458682D01*
X97429474Y-110450000D01*
X97400000Y-110447097D01*
X97370526Y-110450000D01*
X96390901Y-110450000D01*
X96361848Y-110455779D01*
X96332375Y-110458682D01*
X96304033Y-110467279D01*
X96274982Y-110473058D01*
X96247619Y-110484392D01*
X96219275Y-110492990D01*
X96193152Y-110506953D01*
X96165789Y-110518287D01*
X96141164Y-110534741D01*
X96115041Y-110548704D01*
X96092143Y-110567496D01*
X96067518Y-110583950D01*
X96046577Y-110604891D01*
X96023679Y-110623683D01*
X96004887Y-110646581D01*
X95983946Y-110667522D01*
X95967492Y-110692147D01*
X95948700Y-110715045D01*
X95934737Y-110741168D01*
X95918283Y-110765793D01*
X95906949Y-110793156D01*
X95892986Y-110819279D01*
X95884388Y-110847623D01*
X95873054Y-110874986D01*
X95867275Y-110904037D01*
X95858678Y-110932379D01*
X95855775Y-110961852D01*
X95849996Y-110990905D01*
X95849996Y-111020526D01*
X95847093Y-111050000D01*
X95849996Y-111079474D01*
X95849996Y-111109095D01*
X95855775Y-111138148D01*
X95858678Y-111167621D01*
X95867275Y-111195963D01*
X95873054Y-111225014D01*
X95884388Y-111252377D01*
X95892986Y-111280721D01*
X95906949Y-111306844D01*
X95918283Y-111334207D01*
X95934737Y-111358832D01*
X95948700Y-111384955D01*
X95967492Y-111407853D01*
X95983946Y-111432478D01*
X96004887Y-111453419D01*
X96023679Y-111476317D01*
X96046577Y-111495109D01*
X96067518Y-111516050D01*
X96092143Y-111532504D01*
X96115041Y-111551296D01*
X96141164Y-111565259D01*
X96165789Y-111581713D01*
X96193152Y-111593047D01*
X96219275Y-111607010D01*
X96247619Y-111615608D01*
X96274982Y-111626942D01*
X96304033Y-111632721D01*
X96332375Y-111641318D01*
X96361848Y-111644221D01*
X96390901Y-111650000D01*
X97151473Y-111650000D01*
X98126472Y-112625000D01*
X92555331Y-112625000D01*
X91478195Y-111547866D01*
X91466448Y-111533552D01*
X91409347Y-111486691D01*
X91344200Y-111451869D01*
X91273513Y-111430426D01*
X91218419Y-111425000D01*
X91218416Y-111425000D01*
X91200000Y-111423186D01*
X91181584Y-111425000D01*
X80555330Y-111425000D01*
X79775000Y-110644671D01*
X79775000Y-107800000D01*
X91897097Y-107800000D01*
X91900000Y-107829473D01*
X91900000Y-107859095D01*
X91905779Y-107888148D01*
X91908682Y-107917621D01*
X91917279Y-107945963D01*
X91923058Y-107975014D01*
X91934392Y-108002377D01*
X91942990Y-108030721D01*
X91956953Y-108056844D01*
X91968287Y-108084207D01*
X91984741Y-108108832D01*
X91998704Y-108134955D01*
X92017496Y-108157853D01*
X92033950Y-108182478D01*
X92054891Y-108203419D01*
X92073683Y-108226317D01*
X92096581Y-108245109D01*
X92117522Y-108266050D01*
X92142147Y-108282504D01*
X92165045Y-108301296D01*
X92191168Y-108315259D01*
X92215793Y-108331713D01*
X92243156Y-108343047D01*
X92269279Y-108357010D01*
X92297623Y-108365608D01*
X92324986Y-108376942D01*
X92354037Y-108382721D01*
X92382379Y-108391318D01*
X92411852Y-108394221D01*
X92440905Y-108400000D01*
X95170526Y-108400000D01*
X95200000Y-108402903D01*
X95229474Y-108400000D01*
X96059095Y-108400000D01*
X96088148Y-108394221D01*
X96117621Y-108391318D01*
X96145963Y-108382721D01*
X96175014Y-108376942D01*
X96202377Y-108365608D01*
X96230721Y-108357010D01*
X96256844Y-108343047D01*
X96284207Y-108331713D01*
X96308832Y-108315259D01*
X96334955Y-108301296D01*
X96357853Y-108282504D01*
X96382478Y-108266050D01*
X96403419Y-108245109D01*
X96426317Y-108226317D01*
X96445109Y-108203419D01*
X96466050Y-108182478D01*
X96482504Y-108157853D01*
X96501296Y-108134955D01*
X96515259Y-108108832D01*
X96531713Y-108084207D01*
X96543047Y-108056844D01*
X96557010Y-108030721D01*
X96565608Y-108002377D01*
X96576942Y-107975014D01*
X96582721Y-107945963D01*
X96591318Y-107917621D01*
X96594221Y-107888148D01*
X96600000Y-107859095D01*
X96600000Y-107829473D01*
X96602903Y-107800000D01*
X96600000Y-107770526D01*
X96600000Y-107740905D01*
X96594221Y-107711852D01*
X96591318Y-107682379D01*
X96582721Y-107654037D01*
X96576942Y-107624986D01*
X96565608Y-107597623D01*
X96557010Y-107569279D01*
X96543047Y-107543156D01*
X96531713Y-107515793D01*
X96521160Y-107499998D01*
X97297097Y-107499998D01*
X97300000Y-107529472D01*
X97300000Y-107559093D01*
X97305779Y-107588146D01*
X97308682Y-107617619D01*
X97317279Y-107645961D01*
X97323058Y-107675012D01*
X97334392Y-107702375D01*
X97342990Y-107730719D01*
X97356953Y-107756842D01*
X97368287Y-107784205D01*
X97384741Y-107808830D01*
X97398704Y-107834953D01*
X97417496Y-107857851D01*
X97433950Y-107882476D01*
X97454891Y-107903417D01*
X97473683Y-107926315D01*
X97496581Y-107945107D01*
X97517522Y-107966048D01*
X97542147Y-107982502D01*
X97565045Y-108001294D01*
X97591168Y-108015257D01*
X97615793Y-108031711D01*
X97643156Y-108043045D01*
X97669279Y-108057008D01*
X97697623Y-108065606D01*
X97724986Y-108076940D01*
X97754037Y-108082719D01*
X97782379Y-108091316D01*
X97811852Y-108094219D01*
X97840905Y-108099998D01*
X98220528Y-108099998D01*
X98250002Y-108102901D01*
X98279476Y-108099998D01*
X98367623Y-108091316D01*
X98480723Y-108057008D01*
X98584957Y-108001294D01*
X98676319Y-107926315D01*
X98695115Y-107903412D01*
X98848232Y-107750295D01*
X99103420Y-107495108D01*
X99126317Y-107476317D01*
X99145108Y-107453421D01*
X99248529Y-107350000D01*
X103501473Y-107350000D01*
X104900000Y-108748528D01*
X104900000Y-109859095D01*
X104905779Y-109888148D01*
X104908682Y-109917621D01*
X104917279Y-109945963D01*
X104923058Y-109975014D01*
X104934392Y-110002377D01*
X104942990Y-110030721D01*
X104956952Y-110056842D01*
X104968287Y-110084207D01*
X104984745Y-110108838D01*
X104998705Y-110134955D01*
X105017492Y-110157847D01*
X105033950Y-110182478D01*
X105054897Y-110203425D01*
X105073684Y-110226317D01*
X105096576Y-110245104D01*
X105117522Y-110266050D01*
X105142152Y-110282507D01*
X105165046Y-110301296D01*
X105191164Y-110315256D01*
X105215793Y-110331713D01*
X105243161Y-110343049D01*
X105269280Y-110357010D01*
X105297620Y-110365607D01*
X105324986Y-110376942D01*
X105354040Y-110382721D01*
X105382380Y-110391318D01*
X105411851Y-110394221D01*
X105440905Y-110400000D01*
X105470526Y-110400000D01*
X105500000Y-110402903D01*
X105529474Y-110400000D01*
X105559095Y-110400000D01*
X105588148Y-110394221D01*
X105617621Y-110391318D01*
X105645963Y-110382721D01*
X105675014Y-110376942D01*
X105702377Y-110365608D01*
X105730721Y-110357010D01*
X105756844Y-110343047D01*
X105784207Y-110331713D01*
X105808832Y-110315259D01*
X105834955Y-110301296D01*
X105857853Y-110282504D01*
X105882478Y-110266050D01*
X105898075Y-110250453D01*
X115700000Y-110250453D01*
X115700000Y-111000000D01*
X115775000Y-111075000D01*
X117245000Y-111075000D01*
X117245000Y-110055000D01*
X117255000Y-110055000D01*
X117255000Y-111075000D01*
X118725000Y-111075000D01*
X118800000Y-111000000D01*
X118800000Y-110250453D01*
X118788471Y-110192494D01*
X118765857Y-110137897D01*
X118733025Y-110088761D01*
X118691239Y-110046975D01*
X118642104Y-110014144D01*
X118587507Y-109991529D01*
X118529548Y-109980000D01*
X117330000Y-109980000D01*
X117255000Y-110055000D01*
X117245000Y-110055000D01*
X117170000Y-109980000D01*
X115970452Y-109980000D01*
X115912493Y-109991529D01*
X115857896Y-110014144D01*
X115808761Y-110046975D01*
X115766975Y-110088761D01*
X115734143Y-110137897D01*
X115711529Y-110192494D01*
X115700000Y-110250453D01*
X105898075Y-110250453D01*
X105903419Y-110245109D01*
X105926317Y-110226317D01*
X105945109Y-110203419D01*
X105966050Y-110182478D01*
X105982504Y-110157853D01*
X106001296Y-110134955D01*
X106015259Y-110108832D01*
X106031713Y-110084207D01*
X106043047Y-110056844D01*
X106057010Y-110030721D01*
X106065608Y-110002377D01*
X106076942Y-109975014D01*
X106082721Y-109945963D01*
X106091318Y-109917621D01*
X106094221Y-109888148D01*
X106100000Y-109859095D01*
X106100000Y-109316640D01*
X114475735Y-109316640D01*
X114475735Y-109434830D01*
X114498793Y-109550749D01*
X114544022Y-109659942D01*
X114609685Y-109758213D01*
X114693257Y-109841785D01*
X114791528Y-109907448D01*
X114900721Y-109952677D01*
X115016640Y-109975735D01*
X115134830Y-109975735D01*
X115250749Y-109952677D01*
X115359942Y-109907448D01*
X115458213Y-109841785D01*
X115524263Y-109775735D01*
X115904619Y-109775735D01*
X115924265Y-109777670D01*
X115943911Y-109775735D01*
X115943912Y-109775735D01*
X116002679Y-109769947D01*
X116078079Y-109747075D01*
X116147568Y-109709932D01*
X116208476Y-109659946D01*
X116221002Y-109644683D01*
X116243634Y-109622052D01*
X116263154Y-109627973D01*
X116400000Y-109641451D01*
X118100000Y-109641451D01*
X118236846Y-109627973D01*
X118368434Y-109588056D01*
X118489705Y-109523235D01*
X118596001Y-109436001D01*
X118683235Y-109329705D01*
X118748056Y-109208434D01*
X118787973Y-109076846D01*
X118801451Y-108940000D01*
X118801451Y-108140000D01*
X118787973Y-108003154D01*
X118748056Y-107871566D01*
X118683235Y-107750295D01*
X118596001Y-107643999D01*
X118489705Y-107556765D01*
X118368434Y-107491944D01*
X118236846Y-107452027D01*
X118100000Y-107438549D01*
X116400000Y-107438549D01*
X116263154Y-107452027D01*
X116131566Y-107491944D01*
X116010295Y-107556765D01*
X115903999Y-107643999D01*
X115816765Y-107750295D01*
X115751944Y-107871566D01*
X115712027Y-108003154D01*
X115698549Y-108140000D01*
X115698549Y-108940000D01*
X115702069Y-108975735D01*
X115524263Y-108975735D01*
X115458213Y-108909685D01*
X115359942Y-108844022D01*
X115250749Y-108798793D01*
X115134830Y-108775735D01*
X115016640Y-108775735D01*
X114900721Y-108798793D01*
X114791528Y-108844022D01*
X114693257Y-108909685D01*
X114609685Y-108993257D01*
X114544022Y-109091528D01*
X114498793Y-109200721D01*
X114475735Y-109316640D01*
X106100000Y-109316640D01*
X106100000Y-108529474D01*
X106102903Y-108500000D01*
X106093340Y-108402903D01*
X106091318Y-108382379D01*
X106057010Y-108269279D01*
X106001296Y-108165045D01*
X105926317Y-108073683D01*
X105903420Y-108054892D01*
X104989433Y-107140905D01*
X114100000Y-107140905D01*
X114100000Y-107259095D01*
X114123058Y-107375014D01*
X114168287Y-107484207D01*
X114233950Y-107582478D01*
X114317522Y-107666050D01*
X114415793Y-107731713D01*
X114524986Y-107776942D01*
X114640905Y-107800000D01*
X114759095Y-107800000D01*
X114875014Y-107776942D01*
X114984207Y-107731713D01*
X115082478Y-107666050D01*
X115148528Y-107600000D01*
X115580354Y-107600000D01*
X115600000Y-107601935D01*
X115619646Y-107600000D01*
X115619647Y-107600000D01*
X115678414Y-107594212D01*
X115753814Y-107571340D01*
X115823303Y-107534197D01*
X115884211Y-107484211D01*
X115896737Y-107468948D01*
X116276407Y-107089278D01*
X116400000Y-107101451D01*
X118100000Y-107101451D01*
X118236846Y-107087973D01*
X118368434Y-107048056D01*
X118489705Y-106983235D01*
X118596001Y-106896001D01*
X118683235Y-106789705D01*
X118748056Y-106668434D01*
X118787973Y-106536846D01*
X118801451Y-106400000D01*
X118801451Y-105600000D01*
X118787973Y-105463154D01*
X118748056Y-105331566D01*
X118683235Y-105210295D01*
X118596001Y-105103999D01*
X118489705Y-105016765D01*
X118368434Y-104951944D01*
X118236846Y-104912027D01*
X118100000Y-104898549D01*
X116400000Y-104898549D01*
X116263154Y-104912027D01*
X116131566Y-104951944D01*
X116010295Y-105016765D01*
X115903999Y-105103999D01*
X115816765Y-105210295D01*
X115751944Y-105331566D01*
X115712027Y-105463154D01*
X115698549Y-105600000D01*
X115698549Y-106400000D01*
X115710722Y-106523593D01*
X115434315Y-106800000D01*
X115148528Y-106800000D01*
X115082478Y-106733950D01*
X114984207Y-106668287D01*
X114875014Y-106623058D01*
X114759095Y-106600000D01*
X114640905Y-106600000D01*
X114524986Y-106623058D01*
X114415793Y-106668287D01*
X114317522Y-106733950D01*
X114233950Y-106817522D01*
X114168287Y-106915793D01*
X114123058Y-107024986D01*
X114100000Y-107140905D01*
X104989433Y-107140905D01*
X104450000Y-106601473D01*
X104450000Y-105148527D01*
X105031887Y-104566640D01*
X114225735Y-104566640D01*
X114225735Y-104684830D01*
X114248793Y-104800749D01*
X114294022Y-104909942D01*
X114359685Y-105008213D01*
X114443257Y-105091785D01*
X114541528Y-105157448D01*
X114650721Y-105202677D01*
X114766640Y-105225735D01*
X114884830Y-105225735D01*
X115000749Y-105202677D01*
X115109942Y-105157448D01*
X115208213Y-105091785D01*
X115274263Y-105025735D01*
X115654619Y-105025735D01*
X115674265Y-105027670D01*
X115693911Y-105025735D01*
X115693912Y-105025735D01*
X115752679Y-105019947D01*
X115828079Y-104997075D01*
X115897568Y-104959932D01*
X115958476Y-104909946D01*
X115971002Y-104894683D01*
X116312821Y-104552865D01*
X116400000Y-104561451D01*
X118100000Y-104561451D01*
X118236846Y-104547973D01*
X118368434Y-104508056D01*
X118489705Y-104443235D01*
X118596001Y-104356001D01*
X118683235Y-104249705D01*
X118748056Y-104128434D01*
X118787973Y-103996846D01*
X118801451Y-103860000D01*
X118801451Y-103060000D01*
X118787973Y-102923154D01*
X118748056Y-102791566D01*
X118683235Y-102670295D01*
X118596001Y-102563999D01*
X118489705Y-102476765D01*
X118368434Y-102411944D01*
X118236846Y-102372027D01*
X118100000Y-102358549D01*
X116400000Y-102358549D01*
X116263154Y-102372027D01*
X116131566Y-102411944D01*
X116010295Y-102476765D01*
X115903999Y-102563999D01*
X115816765Y-102670295D01*
X115751944Y-102791566D01*
X115712027Y-102923154D01*
X115698549Y-103060000D01*
X115698549Y-103860000D01*
X115712027Y-103996846D01*
X115717948Y-104016366D01*
X115508580Y-104225735D01*
X115274263Y-104225735D01*
X115208213Y-104159685D01*
X115109942Y-104094022D01*
X115000749Y-104048793D01*
X114884830Y-104025735D01*
X114766640Y-104025735D01*
X114650721Y-104048793D01*
X114541528Y-104094022D01*
X114443257Y-104159685D01*
X114359685Y-104243257D01*
X114294022Y-104341528D01*
X114248793Y-104450721D01*
X114225735Y-104566640D01*
X105031887Y-104566640D01*
X106598528Y-103000000D01*
X107159095Y-103000000D01*
X107188148Y-102994221D01*
X107217621Y-102991318D01*
X107245963Y-102982721D01*
X107275014Y-102976942D01*
X107302377Y-102965608D01*
X107330721Y-102957010D01*
X107356844Y-102943047D01*
X107384207Y-102931713D01*
X107408832Y-102915259D01*
X107434955Y-102901296D01*
X107457853Y-102882504D01*
X107482478Y-102866050D01*
X107503419Y-102845109D01*
X107526317Y-102826317D01*
X107545109Y-102803419D01*
X107566050Y-102782478D01*
X107582504Y-102757853D01*
X107601296Y-102734955D01*
X107615259Y-102708832D01*
X107631713Y-102684207D01*
X107643047Y-102656844D01*
X107657010Y-102630721D01*
X107665608Y-102602377D01*
X107676942Y-102575014D01*
X107682721Y-102545963D01*
X107691318Y-102517621D01*
X107694221Y-102488148D01*
X107700000Y-102459095D01*
X107700000Y-102429474D01*
X107702903Y-102400000D01*
X107700000Y-102370526D01*
X107700000Y-102340905D01*
X107694221Y-102311852D01*
X107691318Y-102282379D01*
X107682721Y-102254037D01*
X107676942Y-102224986D01*
X107665608Y-102197623D01*
X107657010Y-102169279D01*
X107643047Y-102143156D01*
X107631713Y-102115793D01*
X107615259Y-102091168D01*
X107601296Y-102065045D01*
X107582504Y-102042147D01*
X107566050Y-102017522D01*
X107545109Y-101996581D01*
X107526317Y-101973683D01*
X107503419Y-101954891D01*
X107482478Y-101933950D01*
X107457853Y-101917496D01*
X107434955Y-101898704D01*
X107408832Y-101884741D01*
X107384207Y-101868287D01*
X107356844Y-101856953D01*
X107330721Y-101842990D01*
X107302377Y-101834392D01*
X107275014Y-101823058D01*
X107245963Y-101817279D01*
X107217621Y-101808682D01*
X107188148Y-101805779D01*
X107159095Y-101800000D01*
X106379474Y-101800000D01*
X106350000Y-101797097D01*
X106320526Y-101800000D01*
X106232379Y-101808682D01*
X106119279Y-101842990D01*
X106015045Y-101898704D01*
X105923683Y-101973683D01*
X105904891Y-101996581D01*
X103446582Y-104454891D01*
X103423684Y-104473683D01*
X103348705Y-104565045D01*
X103316266Y-104625735D01*
X103292991Y-104669279D01*
X103258682Y-104782380D01*
X103247097Y-104900000D01*
X103250001Y-104929483D01*
X103250000Y-106150000D01*
X99300000Y-106150000D01*
X99300000Y-105429473D01*
X99302903Y-105399999D01*
X99291318Y-105282379D01*
X99274135Y-105225735D01*
X99257010Y-105169279D01*
X99201296Y-105065045D01*
X99126317Y-104973683D01*
X99103419Y-104954891D01*
X99066051Y-104917524D01*
X99066050Y-104917522D01*
X98982478Y-104833950D01*
X98957842Y-104817489D01*
X98934954Y-104798705D01*
X98908843Y-104784748D01*
X98884207Y-104768287D01*
X98856834Y-104756949D01*
X98830721Y-104742991D01*
X98802384Y-104734395D01*
X98775014Y-104723058D01*
X98745958Y-104717278D01*
X98717620Y-104708682D01*
X98688149Y-104705779D01*
X98659095Y-104700000D01*
X98629474Y-104700000D01*
X98600000Y-104697097D01*
X98570526Y-104700000D01*
X98540905Y-104700000D01*
X98511851Y-104705779D01*
X98482380Y-104708682D01*
X98454042Y-104717278D01*
X98424986Y-104723058D01*
X98397616Y-104734395D01*
X98369279Y-104742991D01*
X98343166Y-104756949D01*
X98315793Y-104768287D01*
X98291157Y-104784748D01*
X98265046Y-104798705D01*
X98242159Y-104817488D01*
X98217522Y-104833950D01*
X98196571Y-104854901D01*
X98173684Y-104873684D01*
X98154901Y-104896571D01*
X98133950Y-104917522D01*
X98117488Y-104942159D01*
X98098705Y-104965046D01*
X98084748Y-104991157D01*
X98068287Y-105015793D01*
X98056949Y-105043166D01*
X98042991Y-105069279D01*
X98034395Y-105097616D01*
X98023058Y-105124986D01*
X98017278Y-105154042D01*
X98008682Y-105182380D01*
X98005779Y-105211851D01*
X98000000Y-105240905D01*
X98000000Y-105270526D01*
X97997097Y-105300000D01*
X98000000Y-105329474D01*
X98000000Y-105359095D01*
X98005779Y-105388149D01*
X98008682Y-105417620D01*
X98017278Y-105445958D01*
X98023058Y-105475014D01*
X98034395Y-105502384D01*
X98042991Y-105530721D01*
X98056949Y-105556834D01*
X98068287Y-105584207D01*
X98084748Y-105608843D01*
X98098705Y-105634954D01*
X98100000Y-105636532D01*
X98100001Y-106801471D01*
X98001475Y-106899998D01*
X97840905Y-106899998D01*
X97811852Y-106905777D01*
X97782379Y-106908680D01*
X97754037Y-106917277D01*
X97724986Y-106923056D01*
X97697623Y-106934390D01*
X97669279Y-106942988D01*
X97643156Y-106956951D01*
X97615793Y-106968285D01*
X97591168Y-106984739D01*
X97565045Y-106998702D01*
X97542147Y-107017494D01*
X97517522Y-107033948D01*
X97496581Y-107054889D01*
X97473683Y-107073681D01*
X97454894Y-107096576D01*
X97433950Y-107117520D01*
X97417496Y-107142145D01*
X97398704Y-107165043D01*
X97384741Y-107191166D01*
X97368287Y-107215791D01*
X97356953Y-107243154D01*
X97342990Y-107269277D01*
X97334392Y-107297621D01*
X97323058Y-107324984D01*
X97317279Y-107354035D01*
X97308682Y-107382377D01*
X97305779Y-107411850D01*
X97300000Y-107440903D01*
X97300000Y-107470524D01*
X97297097Y-107499998D01*
X96521160Y-107499998D01*
X96515259Y-107491168D01*
X96501296Y-107465045D01*
X96482504Y-107442147D01*
X96466050Y-107417522D01*
X96445106Y-107396578D01*
X96426317Y-107373683D01*
X96403419Y-107354891D01*
X96382478Y-107333950D01*
X96357853Y-107317496D01*
X96334955Y-107298704D01*
X96308832Y-107284741D01*
X96284207Y-107268287D01*
X96256844Y-107256953D01*
X96230721Y-107242990D01*
X96202377Y-107234392D01*
X96175014Y-107223058D01*
X96145963Y-107217279D01*
X96117621Y-107208682D01*
X96088148Y-107205779D01*
X96059095Y-107200000D01*
X95800001Y-107200000D01*
X95800001Y-104595782D01*
X95933351Y-104569257D01*
X96078942Y-104508951D01*
X96209970Y-104421401D01*
X96321401Y-104309970D01*
X96408951Y-104178942D01*
X96469257Y-104033351D01*
X96500000Y-103878793D01*
X96500000Y-103721207D01*
X96469257Y-103566649D01*
X96408951Y-103421058D01*
X96321401Y-103290030D01*
X96209970Y-103178599D01*
X96078942Y-103091049D01*
X95933351Y-103030743D01*
X95778793Y-103000000D01*
X95621207Y-103000000D01*
X95466649Y-103030743D01*
X95321058Y-103091049D01*
X95190030Y-103178599D01*
X95078599Y-103290030D01*
X94991049Y-103421058D01*
X94930743Y-103566649D01*
X94900000Y-103721207D01*
X94900000Y-103751472D01*
X94796586Y-103854886D01*
X94773684Y-103873682D01*
X94698705Y-103965045D01*
X94642991Y-104069279D01*
X94625047Y-104128434D01*
X94608683Y-104182379D01*
X94597098Y-104299999D01*
X94600001Y-104329473D01*
X94600002Y-107200000D01*
X92440905Y-107200000D01*
X92411852Y-107205779D01*
X92382379Y-107208682D01*
X92354037Y-107217279D01*
X92324986Y-107223058D01*
X92297623Y-107234392D01*
X92269279Y-107242990D01*
X92243156Y-107256953D01*
X92215793Y-107268287D01*
X92191168Y-107284741D01*
X92165045Y-107298704D01*
X92142147Y-107317496D01*
X92117522Y-107333950D01*
X92096581Y-107354891D01*
X92073683Y-107373683D01*
X92054894Y-107396578D01*
X92033950Y-107417522D01*
X92017496Y-107442147D01*
X91998704Y-107465045D01*
X91984741Y-107491168D01*
X91968287Y-107515793D01*
X91956953Y-107543156D01*
X91942990Y-107569279D01*
X91934392Y-107597623D01*
X91923058Y-107624986D01*
X91917279Y-107654037D01*
X91908682Y-107682379D01*
X91905779Y-107711852D01*
X91900000Y-107740905D01*
X91900000Y-107770526D01*
X91897097Y-107800000D01*
X79775000Y-107800000D01*
X79775000Y-101915905D01*
X91600000Y-101915905D01*
X91600000Y-102034095D01*
X91623058Y-102150014D01*
X91668287Y-102259207D01*
X91733950Y-102357478D01*
X91817522Y-102441050D01*
X91915793Y-102506713D01*
X92024986Y-102551942D01*
X92140905Y-102575000D01*
X92234315Y-102575000D01*
X92437134Y-102777818D01*
X92449664Y-102793086D01*
X92510572Y-102843072D01*
X92580061Y-102880215D01*
X92655461Y-102903087D01*
X92733875Y-102910810D01*
X92753522Y-102908875D01*
X92965875Y-102908875D01*
X93031925Y-102974925D01*
X93130196Y-103040588D01*
X93239389Y-103085817D01*
X93355308Y-103108875D01*
X93473498Y-103108875D01*
X93589417Y-103085817D01*
X93698610Y-103040588D01*
X93796881Y-102974925D01*
X93880453Y-102891353D01*
X93946116Y-102793082D01*
X93991345Y-102683889D01*
X94014403Y-102567970D01*
X94014403Y-102449780D01*
X93991345Y-102333861D01*
X93985154Y-102318913D01*
X95188158Y-102318913D01*
X95231551Y-102453271D01*
X95367999Y-102532109D01*
X95517206Y-102582811D01*
X95673438Y-102603431D01*
X95830690Y-102593175D01*
X95982919Y-102552438D01*
X96124276Y-102482786D01*
X96168449Y-102453271D01*
X96211842Y-102318913D01*
X95700000Y-101807071D01*
X95188158Y-102318913D01*
X93985154Y-102318913D01*
X93946116Y-102224668D01*
X93880453Y-102126397D01*
X93796881Y-102042825D01*
X93698610Y-101977162D01*
X93589417Y-101931933D01*
X93473498Y-101908875D01*
X93355308Y-101908875D01*
X93239389Y-101931933D01*
X93130196Y-101977162D01*
X93031925Y-102042825D01*
X92965875Y-102108875D01*
X92899560Y-102108875D01*
X92800000Y-102009315D01*
X92800000Y-101915905D01*
X92776942Y-101799986D01*
X92765946Y-101773438D01*
X94896569Y-101773438D01*
X94906825Y-101930690D01*
X94947562Y-102082919D01*
X95017214Y-102224276D01*
X95046729Y-102268449D01*
X95181087Y-102311842D01*
X95692929Y-101800000D01*
X95707071Y-101800000D01*
X96218913Y-102311842D01*
X96353271Y-102268449D01*
X96432109Y-102132001D01*
X96482811Y-101982794D01*
X96503431Y-101826562D01*
X96496560Y-101721207D01*
X96900000Y-101721207D01*
X96900000Y-101878793D01*
X96930743Y-102033351D01*
X96991049Y-102178942D01*
X97078599Y-102309970D01*
X97190030Y-102421401D01*
X97321058Y-102508951D01*
X97466649Y-102569257D01*
X97621207Y-102600000D01*
X97778793Y-102600000D01*
X97933351Y-102569257D01*
X98078942Y-102508951D01*
X98209970Y-102421401D01*
X98321401Y-102309970D01*
X98394422Y-102200686D01*
X98407106Y-102201935D01*
X98426752Y-102200000D01*
X98426753Y-102200000D01*
X98485520Y-102194212D01*
X98560920Y-102171340D01*
X98630409Y-102134197D01*
X98691317Y-102084211D01*
X98703843Y-102068948D01*
X98872770Y-101900022D01*
X99151474Y-101900022D01*
X99133950Y-101917546D01*
X99068287Y-102015817D01*
X99023058Y-102125010D01*
X99000000Y-102240929D01*
X99000000Y-102334339D01*
X98177461Y-103156878D01*
X98078942Y-103091049D01*
X97933351Y-103030743D01*
X97778793Y-103000000D01*
X97621207Y-103000000D01*
X97466649Y-103030743D01*
X97321058Y-103091049D01*
X97190030Y-103178599D01*
X97078599Y-103290030D01*
X96991049Y-103421058D01*
X96930743Y-103566649D01*
X96900000Y-103721207D01*
X96900000Y-103878793D01*
X96930743Y-104033351D01*
X96991049Y-104178942D01*
X97078599Y-104309970D01*
X97190030Y-104421401D01*
X97321058Y-104508951D01*
X97466649Y-104569257D01*
X97621207Y-104600000D01*
X97778793Y-104600000D01*
X97933351Y-104569257D01*
X98078942Y-104508951D01*
X98209970Y-104421401D01*
X98321401Y-104309970D01*
X98408951Y-104178942D01*
X98469257Y-104033351D01*
X98484893Y-103954740D01*
X98523328Y-103934196D01*
X98584236Y-103884210D01*
X98596762Y-103868947D01*
X99565685Y-102900024D01*
X99659095Y-102900024D01*
X99775014Y-102876966D01*
X99884207Y-102831737D01*
X99982478Y-102766074D01*
X100066050Y-102682502D01*
X100131713Y-102584231D01*
X100176942Y-102475038D01*
X100200000Y-102359119D01*
X100200000Y-102240929D01*
X100176942Y-102125010D01*
X100131713Y-102015817D01*
X100066050Y-101917546D01*
X100048526Y-101900022D01*
X100580336Y-101900022D01*
X100599982Y-101901957D01*
X100619628Y-101900022D01*
X100619629Y-101900022D01*
X100678396Y-101894234D01*
X100753796Y-101871362D01*
X100823285Y-101834219D01*
X100884193Y-101784233D01*
X100896719Y-101768970D01*
X101065685Y-101600004D01*
X101159095Y-101600004D01*
X101275014Y-101576946D01*
X101384207Y-101531717D01*
X101482478Y-101466054D01*
X101566050Y-101382482D01*
X101631713Y-101284211D01*
X101676942Y-101175018D01*
X101700000Y-101059099D01*
X101700000Y-100940909D01*
X101676942Y-100824990D01*
X101631713Y-100715797D01*
X101566050Y-100617526D01*
X101482478Y-100533954D01*
X101384207Y-100468291D01*
X101275014Y-100423062D01*
X101159095Y-100400004D01*
X101040905Y-100400004D01*
X100924986Y-100423062D01*
X100815793Y-100468291D01*
X100717522Y-100533954D01*
X100633950Y-100617526D01*
X100568287Y-100715797D01*
X100523058Y-100824990D01*
X100500000Y-100940909D01*
X100500000Y-101034319D01*
X100434297Y-101100022D01*
X98726730Y-101100022D01*
X98707084Y-101098087D01*
X98687437Y-101100022D01*
X98628670Y-101105810D01*
X98553270Y-101128682D01*
X98496372Y-101159095D01*
X98483781Y-101165825D01*
X98438133Y-101203287D01*
X98438131Y-101203289D01*
X98422873Y-101215811D01*
X98410351Y-101231069D01*
X98333413Y-101308007D01*
X98321401Y-101290030D01*
X98209970Y-101178599D01*
X98078942Y-101091049D01*
X97933351Y-101030743D01*
X97778793Y-101000000D01*
X97621207Y-101000000D01*
X97466649Y-101030743D01*
X97321058Y-101091049D01*
X97190030Y-101178599D01*
X97078599Y-101290030D01*
X96991049Y-101421058D01*
X96930743Y-101566649D01*
X96900000Y-101721207D01*
X96496560Y-101721207D01*
X96493175Y-101669310D01*
X96452438Y-101517081D01*
X96382786Y-101375724D01*
X96353271Y-101331551D01*
X96218913Y-101288158D01*
X95707071Y-101800000D01*
X95692929Y-101800000D01*
X95181087Y-101288158D01*
X95046729Y-101331551D01*
X94967891Y-101467999D01*
X94917189Y-101617206D01*
X94896569Y-101773438D01*
X92765946Y-101773438D01*
X92731713Y-101690793D01*
X92666050Y-101592522D01*
X92582478Y-101508950D01*
X92484207Y-101443287D01*
X92375014Y-101398058D01*
X92259095Y-101375000D01*
X92140905Y-101375000D01*
X92024986Y-101398058D01*
X91915793Y-101443287D01*
X91817522Y-101508950D01*
X91733950Y-101592522D01*
X91668287Y-101690793D01*
X91623058Y-101799986D01*
X91600000Y-101915905D01*
X79775000Y-101915905D01*
X79775000Y-101355329D01*
X79849242Y-101281087D01*
X95188158Y-101281087D01*
X95700000Y-101792929D01*
X96211842Y-101281087D01*
X96168449Y-101146729D01*
X96032001Y-101067891D01*
X95882794Y-101017189D01*
X95726562Y-100996569D01*
X95569310Y-101006825D01*
X95417081Y-101047562D01*
X95275724Y-101117214D01*
X95231551Y-101146729D01*
X95188158Y-101281087D01*
X79849242Y-101281087D01*
X80555330Y-100575000D01*
X91181584Y-100575000D01*
X91200000Y-100576814D01*
X91218416Y-100575000D01*
X91218419Y-100575000D01*
X91273513Y-100569574D01*
X91344200Y-100548131D01*
X91409347Y-100513309D01*
X91466448Y-100466448D01*
X91478195Y-100452134D01*
X91916478Y-100013851D01*
X102078530Y-100013851D01*
X102078530Y-100132041D01*
X102101588Y-100247960D01*
X102146817Y-100357153D01*
X102212480Y-100455424D01*
X102296052Y-100538996D01*
X102394323Y-100604659D01*
X102503516Y-100649888D01*
X102619435Y-100672946D01*
X102712845Y-100672946D01*
X103013406Y-100973507D01*
X103000000Y-101040905D01*
X103000000Y-101159095D01*
X103023058Y-101275014D01*
X103068287Y-101384207D01*
X103133950Y-101482478D01*
X103217522Y-101566050D01*
X103315793Y-101631713D01*
X103424986Y-101676942D01*
X103540905Y-101700000D01*
X103659095Y-101700000D01*
X103775014Y-101676942D01*
X103884207Y-101631713D01*
X103945280Y-101590905D01*
X113800000Y-101590905D01*
X113800000Y-101709095D01*
X113823058Y-101825014D01*
X113868287Y-101934207D01*
X113933950Y-102032478D01*
X114017522Y-102116050D01*
X114115793Y-102181713D01*
X114224986Y-102226942D01*
X114340905Y-102250000D01*
X114459095Y-102250000D01*
X114575014Y-102226942D01*
X114684207Y-102181713D01*
X114782478Y-102116050D01*
X114848528Y-102050000D01*
X116030354Y-102050000D01*
X116050000Y-102051935D01*
X116069646Y-102050000D01*
X116069647Y-102050000D01*
X116128414Y-102044212D01*
X116203814Y-102021340D01*
X116241252Y-102001329D01*
X116263154Y-102007973D01*
X116400000Y-102021451D01*
X118100000Y-102021451D01*
X118236846Y-102007973D01*
X118368434Y-101968056D01*
X118489705Y-101903235D01*
X118596001Y-101816001D01*
X118683235Y-101709705D01*
X118748056Y-101588434D01*
X118787973Y-101456846D01*
X118801451Y-101320000D01*
X118801451Y-100520000D01*
X118787973Y-100383154D01*
X118748056Y-100251566D01*
X118683235Y-100130295D01*
X118596001Y-100023999D01*
X118489705Y-99936765D01*
X118368434Y-99871944D01*
X118236846Y-99832027D01*
X118100000Y-99818549D01*
X116400000Y-99818549D01*
X116263154Y-99832027D01*
X116131566Y-99871944D01*
X116010295Y-99936765D01*
X115903999Y-100023999D01*
X115816765Y-100130295D01*
X115751944Y-100251566D01*
X115712027Y-100383154D01*
X115698549Y-100520000D01*
X115698549Y-101250000D01*
X114848528Y-101250000D01*
X114782478Y-101183950D01*
X114684207Y-101118287D01*
X114575014Y-101073058D01*
X114459095Y-101050000D01*
X114340905Y-101050000D01*
X114224986Y-101073058D01*
X114115793Y-101118287D01*
X114017522Y-101183950D01*
X113933950Y-101267522D01*
X113868287Y-101365793D01*
X113823058Y-101474986D01*
X113800000Y-101590905D01*
X103945280Y-101590905D01*
X103982478Y-101566050D01*
X104066050Y-101482478D01*
X104131713Y-101384207D01*
X104176942Y-101275014D01*
X104200000Y-101159095D01*
X104200000Y-101040905D01*
X104176942Y-100924986D01*
X104131713Y-100815793D01*
X104066050Y-100717522D01*
X103982478Y-100633950D01*
X103884207Y-100568287D01*
X103775014Y-100523058D01*
X103674292Y-100503023D01*
X103278530Y-100107261D01*
X103278530Y-100013851D01*
X103255472Y-99897932D01*
X103210243Y-99788739D01*
X103144580Y-99690468D01*
X103061008Y-99606896D01*
X102962737Y-99541233D01*
X102853544Y-99496004D01*
X102737625Y-99472946D01*
X102619435Y-99472946D01*
X102503516Y-99496004D01*
X102394323Y-99541233D01*
X102296052Y-99606896D01*
X102212480Y-99690468D01*
X102146817Y-99788739D01*
X102101588Y-99897932D01*
X102078530Y-100013851D01*
X91916478Y-100013851D01*
X92555331Y-99375000D01*
X118481662Y-99375000D01*
X118621045Y-99388667D01*
X118621045Y-99388667D01*
G37*
X118621045Y-99388667D02*
X118737483Y-99423821D01*
X118844876Y-99480923D01*
X118939128Y-99557793D01*
X119016657Y-99651508D01*
X119074507Y-99758501D01*
X119110472Y-99874688D01*
X119125001Y-100012914D01*
X119125000Y-111981663D01*
X119111333Y-112121044D01*
X119076178Y-112237485D01*
X119019077Y-112344876D01*
X118942207Y-112439128D01*
X118848488Y-112516659D01*
X118741498Y-112574508D01*
X118625316Y-112610472D01*
X118487096Y-112625000D01*
X115306617Y-112625000D01*
X115315259Y-112608832D01*
X115331713Y-112584207D01*
X115343047Y-112556844D01*
X115357010Y-112530721D01*
X115365608Y-112502377D01*
X115376942Y-112475014D01*
X115382721Y-112445963D01*
X115391318Y-112417621D01*
X115394221Y-112388148D01*
X115400000Y-112359095D01*
X115400000Y-112329474D01*
X115402903Y-112300000D01*
X115400000Y-112270526D01*
X115400000Y-112240905D01*
X115394221Y-112211852D01*
X115391318Y-112182379D01*
X115382721Y-112154037D01*
X115376942Y-112124986D01*
X115365608Y-112097623D01*
X115357010Y-112069279D01*
X115343047Y-112043156D01*
X115331713Y-112015793D01*
X115315259Y-111991168D01*
X115301296Y-111965045D01*
X115282504Y-111942147D01*
X115266050Y-111917522D01*
X115245109Y-111896581D01*
X115226317Y-111873683D01*
X115203419Y-111854891D01*
X115182478Y-111833950D01*
X115157853Y-111817496D01*
X115134955Y-111798704D01*
X115108832Y-111784741D01*
X115084207Y-111768287D01*
X115056844Y-111756953D01*
X115030721Y-111742990D01*
X115002377Y-111734392D01*
X114975014Y-111723058D01*
X114945963Y-111717279D01*
X114917621Y-111708682D01*
X114888148Y-111705779D01*
X114859095Y-111700000D01*
X98898528Y-111700000D01*
X98358528Y-111160000D01*
X115700000Y-111160000D01*
X115700000Y-111909547D01*
X115711529Y-111967506D01*
X115734143Y-112022103D01*
X115766975Y-112071239D01*
X115808761Y-112113025D01*
X115857896Y-112145856D01*
X115912493Y-112168471D01*
X115970452Y-112180000D01*
X117170000Y-112180000D01*
X117245000Y-112105000D01*
X117245000Y-111085000D01*
X117255000Y-111085000D01*
X117255000Y-112105000D01*
X117330000Y-112180000D01*
X118529548Y-112180000D01*
X118587507Y-112168471D01*
X118642104Y-112145856D01*
X118691239Y-112113025D01*
X118733025Y-112071239D01*
X118765857Y-112022103D01*
X118788471Y-111967506D01*
X118800000Y-111909547D01*
X118800000Y-111160000D01*
X118725000Y-111085000D01*
X117255000Y-111085000D01*
X117245000Y-111085000D01*
X115775000Y-111085000D01*
X115700000Y-111160000D01*
X98358528Y-111160000D01*
X97845113Y-110646586D01*
X97826317Y-110623683D01*
X97734955Y-110548704D01*
X97630721Y-110492990D01*
X97517621Y-110458682D01*
X97429474Y-110450000D01*
X97400000Y-110447097D01*
X97370526Y-110450000D01*
X96390901Y-110450000D01*
X96361848Y-110455779D01*
X96332375Y-110458682D01*
X96304033Y-110467279D01*
X96274982Y-110473058D01*
X96247619Y-110484392D01*
X96219275Y-110492990D01*
X96193152Y-110506953D01*
X96165789Y-110518287D01*
X96141164Y-110534741D01*
X96115041Y-110548704D01*
X96092143Y-110567496D01*
X96067518Y-110583950D01*
X96046577Y-110604891D01*
X96023679Y-110623683D01*
X96004887Y-110646581D01*
X95983946Y-110667522D01*
X95967492Y-110692147D01*
X95948700Y-110715045D01*
X95934737Y-110741168D01*
X95918283Y-110765793D01*
X95906949Y-110793156D01*
X95892986Y-110819279D01*
X95884388Y-110847623D01*
X95873054Y-110874986D01*
X95867275Y-110904037D01*
X95858678Y-110932379D01*
X95855775Y-110961852D01*
X95849996Y-110990905D01*
X95849996Y-111020526D01*
X95847093Y-111050000D01*
X95849996Y-111079474D01*
X95849996Y-111109095D01*
X95855775Y-111138148D01*
X95858678Y-111167621D01*
X95867275Y-111195963D01*
X95873054Y-111225014D01*
X95884388Y-111252377D01*
X95892986Y-111280721D01*
X95906949Y-111306844D01*
X95918283Y-111334207D01*
X95934737Y-111358832D01*
X95948700Y-111384955D01*
X95967492Y-111407853D01*
X95983946Y-111432478D01*
X96004887Y-111453419D01*
X96023679Y-111476317D01*
X96046577Y-111495109D01*
X96067518Y-111516050D01*
X96092143Y-111532504D01*
X96115041Y-111551296D01*
X96141164Y-111565259D01*
X96165789Y-111581713D01*
X96193152Y-111593047D01*
X96219275Y-111607010D01*
X96247619Y-111615608D01*
X96274982Y-111626942D01*
X96304033Y-111632721D01*
X96332375Y-111641318D01*
X96361848Y-111644221D01*
X96390901Y-111650000D01*
X97151473Y-111650000D01*
X98126472Y-112625000D01*
X92555331Y-112625000D01*
X91478195Y-111547866D01*
X91466448Y-111533552D01*
X91409347Y-111486691D01*
X91344200Y-111451869D01*
X91273513Y-111430426D01*
X91218419Y-111425000D01*
X91218416Y-111425000D01*
X91200000Y-111423186D01*
X91181584Y-111425000D01*
X80555330Y-111425000D01*
X79775000Y-110644671D01*
X79775000Y-107800000D01*
X91897097Y-107800000D01*
X91900000Y-107829473D01*
X91900000Y-107859095D01*
X91905779Y-107888148D01*
X91908682Y-107917621D01*
X91917279Y-107945963D01*
X91923058Y-107975014D01*
X91934392Y-108002377D01*
X91942990Y-108030721D01*
X91956953Y-108056844D01*
X91968287Y-108084207D01*
X91984741Y-108108832D01*
X91998704Y-108134955D01*
X92017496Y-108157853D01*
X92033950Y-108182478D01*
X92054891Y-108203419D01*
X92073683Y-108226317D01*
X92096581Y-108245109D01*
X92117522Y-108266050D01*
X92142147Y-108282504D01*
X92165045Y-108301296D01*
X92191168Y-108315259D01*
X92215793Y-108331713D01*
X92243156Y-108343047D01*
X92269279Y-108357010D01*
X92297623Y-108365608D01*
X92324986Y-108376942D01*
X92354037Y-108382721D01*
X92382379Y-108391318D01*
X92411852Y-108394221D01*
X92440905Y-108400000D01*
X95170526Y-108400000D01*
X95200000Y-108402903D01*
X95229474Y-108400000D01*
X96059095Y-108400000D01*
X96088148Y-108394221D01*
X96117621Y-108391318D01*
X96145963Y-108382721D01*
X96175014Y-108376942D01*
X96202377Y-108365608D01*
X96230721Y-108357010D01*
X96256844Y-108343047D01*
X96284207Y-108331713D01*
X96308832Y-108315259D01*
X96334955Y-108301296D01*
X96357853Y-108282504D01*
X96382478Y-108266050D01*
X96403419Y-108245109D01*
X96426317Y-108226317D01*
X96445109Y-108203419D01*
X96466050Y-108182478D01*
X96482504Y-108157853D01*
X96501296Y-108134955D01*
X96515259Y-108108832D01*
X96531713Y-108084207D01*
X96543047Y-108056844D01*
X96557010Y-108030721D01*
X96565608Y-108002377D01*
X96576942Y-107975014D01*
X96582721Y-107945963D01*
X96591318Y-107917621D01*
X96594221Y-107888148D01*
X96600000Y-107859095D01*
X96600000Y-107829473D01*
X96602903Y-107800000D01*
X96600000Y-107770526D01*
X96600000Y-107740905D01*
X96594221Y-107711852D01*
X96591318Y-107682379D01*
X96582721Y-107654037D01*
X96576942Y-107624986D01*
X96565608Y-107597623D01*
X96557010Y-107569279D01*
X96543047Y-107543156D01*
X96531713Y-107515793D01*
X96521160Y-107499998D01*
X97297097Y-107499998D01*
X97300000Y-107529472D01*
X97300000Y-107559093D01*
X97305779Y-107588146D01*
X97308682Y-107617619D01*
X97317279Y-107645961D01*
X97323058Y-107675012D01*
X97334392Y-107702375D01*
X97342990Y-107730719D01*
X97356953Y-107756842D01*
X97368287Y-107784205D01*
X97384741Y-107808830D01*
X97398704Y-107834953D01*
X97417496Y-107857851D01*
X97433950Y-107882476D01*
X97454891Y-107903417D01*
X97473683Y-107926315D01*
X97496581Y-107945107D01*
X97517522Y-107966048D01*
X97542147Y-107982502D01*
X97565045Y-108001294D01*
X97591168Y-108015257D01*
X97615793Y-108031711D01*
X97643156Y-108043045D01*
X97669279Y-108057008D01*
X97697623Y-108065606D01*
X97724986Y-108076940D01*
X97754037Y-108082719D01*
X97782379Y-108091316D01*
X97811852Y-108094219D01*
X97840905Y-108099998D01*
X98220528Y-108099998D01*
X98250002Y-108102901D01*
X98279476Y-108099998D01*
X98367623Y-108091316D01*
X98480723Y-108057008D01*
X98584957Y-108001294D01*
X98676319Y-107926315D01*
X98695115Y-107903412D01*
X98848232Y-107750295D01*
X99103420Y-107495108D01*
X99126317Y-107476317D01*
X99145108Y-107453421D01*
X99248529Y-107350000D01*
X103501473Y-107350000D01*
X104900000Y-108748528D01*
X104900000Y-109859095D01*
X104905779Y-109888148D01*
X104908682Y-109917621D01*
X104917279Y-109945963D01*
X104923058Y-109975014D01*
X104934392Y-110002377D01*
X104942990Y-110030721D01*
X104956952Y-110056842D01*
X104968287Y-110084207D01*
X104984745Y-110108838D01*
X104998705Y-110134955D01*
X105017492Y-110157847D01*
X105033950Y-110182478D01*
X105054897Y-110203425D01*
X105073684Y-110226317D01*
X105096576Y-110245104D01*
X105117522Y-110266050D01*
X105142152Y-110282507D01*
X105165046Y-110301296D01*
X105191164Y-110315256D01*
X105215793Y-110331713D01*
X105243161Y-110343049D01*
X105269280Y-110357010D01*
X105297620Y-110365607D01*
X105324986Y-110376942D01*
X105354040Y-110382721D01*
X105382380Y-110391318D01*
X105411851Y-110394221D01*
X105440905Y-110400000D01*
X105470526Y-110400000D01*
X105500000Y-110402903D01*
X105529474Y-110400000D01*
X105559095Y-110400000D01*
X105588148Y-110394221D01*
X105617621Y-110391318D01*
X105645963Y-110382721D01*
X105675014Y-110376942D01*
X105702377Y-110365608D01*
X105730721Y-110357010D01*
X105756844Y-110343047D01*
X105784207Y-110331713D01*
X105808832Y-110315259D01*
X105834955Y-110301296D01*
X105857853Y-110282504D01*
X105882478Y-110266050D01*
X105898075Y-110250453D01*
X115700000Y-110250453D01*
X115700000Y-111000000D01*
X115775000Y-111075000D01*
X117245000Y-111075000D01*
X117245000Y-110055000D01*
X117255000Y-110055000D01*
X117255000Y-111075000D01*
X118725000Y-111075000D01*
X118800000Y-111000000D01*
X118800000Y-110250453D01*
X118788471Y-110192494D01*
X118765857Y-110137897D01*
X118733025Y-110088761D01*
X118691239Y-110046975D01*
X118642104Y-110014144D01*
X118587507Y-109991529D01*
X118529548Y-109980000D01*
X117330000Y-109980000D01*
X117255000Y-110055000D01*
X117245000Y-110055000D01*
X117170000Y-109980000D01*
X115970452Y-109980000D01*
X115912493Y-109991529D01*
X115857896Y-110014144D01*
X115808761Y-110046975D01*
X115766975Y-110088761D01*
X115734143Y-110137897D01*
X115711529Y-110192494D01*
X115700000Y-110250453D01*
X105898075Y-110250453D01*
X105903419Y-110245109D01*
X105926317Y-110226317D01*
X105945109Y-110203419D01*
X105966050Y-110182478D01*
X105982504Y-110157853D01*
X106001296Y-110134955D01*
X106015259Y-110108832D01*
X106031713Y-110084207D01*
X106043047Y-110056844D01*
X106057010Y-110030721D01*
X106065608Y-110002377D01*
X106076942Y-109975014D01*
X106082721Y-109945963D01*
X106091318Y-109917621D01*
X106094221Y-109888148D01*
X106100000Y-109859095D01*
X106100000Y-109316640D01*
X114475735Y-109316640D01*
X114475735Y-109434830D01*
X114498793Y-109550749D01*
X114544022Y-109659942D01*
X114609685Y-109758213D01*
X114693257Y-109841785D01*
X114791528Y-109907448D01*
X114900721Y-109952677D01*
X115016640Y-109975735D01*
X115134830Y-109975735D01*
X115250749Y-109952677D01*
X115359942Y-109907448D01*
X115458213Y-109841785D01*
X115524263Y-109775735D01*
X115904619Y-109775735D01*
X115924265Y-109777670D01*
X115943911Y-109775735D01*
X115943912Y-109775735D01*
X116002679Y-109769947D01*
X116078079Y-109747075D01*
X116147568Y-109709932D01*
X116208476Y-109659946D01*
X116221002Y-109644683D01*
X116243634Y-109622052D01*
X116263154Y-109627973D01*
X116400000Y-109641451D01*
X118100000Y-109641451D01*
X118236846Y-109627973D01*
X118368434Y-109588056D01*
X118489705Y-109523235D01*
X118596001Y-109436001D01*
X118683235Y-109329705D01*
X118748056Y-109208434D01*
X118787973Y-109076846D01*
X118801451Y-108940000D01*
X118801451Y-108140000D01*
X118787973Y-108003154D01*
X118748056Y-107871566D01*
X118683235Y-107750295D01*
X118596001Y-107643999D01*
X118489705Y-107556765D01*
X118368434Y-107491944D01*
X118236846Y-107452027D01*
X118100000Y-107438549D01*
X116400000Y-107438549D01*
X116263154Y-107452027D01*
X116131566Y-107491944D01*
X116010295Y-107556765D01*
X115903999Y-107643999D01*
X115816765Y-107750295D01*
X115751944Y-107871566D01*
X115712027Y-108003154D01*
X115698549Y-108140000D01*
X115698549Y-108940000D01*
X115702069Y-108975735D01*
X115524263Y-108975735D01*
X115458213Y-108909685D01*
X115359942Y-108844022D01*
X115250749Y-108798793D01*
X115134830Y-108775735D01*
X115016640Y-108775735D01*
X114900721Y-108798793D01*
X114791528Y-108844022D01*
X114693257Y-108909685D01*
X114609685Y-108993257D01*
X114544022Y-109091528D01*
X114498793Y-109200721D01*
X114475735Y-109316640D01*
X106100000Y-109316640D01*
X106100000Y-108529474D01*
X106102903Y-108500000D01*
X106093340Y-108402903D01*
X106091318Y-108382379D01*
X106057010Y-108269279D01*
X106001296Y-108165045D01*
X105926317Y-108073683D01*
X105903420Y-108054892D01*
X104989433Y-107140905D01*
X114100000Y-107140905D01*
X114100000Y-107259095D01*
X114123058Y-107375014D01*
X114168287Y-107484207D01*
X114233950Y-107582478D01*
X114317522Y-107666050D01*
X114415793Y-107731713D01*
X114524986Y-107776942D01*
X114640905Y-107800000D01*
X114759095Y-107800000D01*
X114875014Y-107776942D01*
X114984207Y-107731713D01*
X115082478Y-107666050D01*
X115148528Y-107600000D01*
X115580354Y-107600000D01*
X115600000Y-107601935D01*
X115619646Y-107600000D01*
X115619647Y-107600000D01*
X115678414Y-107594212D01*
X115753814Y-107571340D01*
X115823303Y-107534197D01*
X115884211Y-107484211D01*
X115896737Y-107468948D01*
X116276407Y-107089278D01*
X116400000Y-107101451D01*
X118100000Y-107101451D01*
X118236846Y-107087973D01*
X118368434Y-107048056D01*
X118489705Y-106983235D01*
X118596001Y-106896001D01*
X118683235Y-106789705D01*
X118748056Y-106668434D01*
X118787973Y-106536846D01*
X118801451Y-106400000D01*
X118801451Y-105600000D01*
X118787973Y-105463154D01*
X118748056Y-105331566D01*
X118683235Y-105210295D01*
X118596001Y-105103999D01*
X118489705Y-105016765D01*
X118368434Y-104951944D01*
X118236846Y-104912027D01*
X118100000Y-104898549D01*
X116400000Y-104898549D01*
X116263154Y-104912027D01*
X116131566Y-104951944D01*
X116010295Y-105016765D01*
X115903999Y-105103999D01*
X115816765Y-105210295D01*
X115751944Y-105331566D01*
X115712027Y-105463154D01*
X115698549Y-105600000D01*
X115698549Y-106400000D01*
X115710722Y-106523593D01*
X115434315Y-106800000D01*
X115148528Y-106800000D01*
X115082478Y-106733950D01*
X114984207Y-106668287D01*
X114875014Y-106623058D01*
X114759095Y-106600000D01*
X114640905Y-106600000D01*
X114524986Y-106623058D01*
X114415793Y-106668287D01*
X114317522Y-106733950D01*
X114233950Y-106817522D01*
X114168287Y-106915793D01*
X114123058Y-107024986D01*
X114100000Y-107140905D01*
X104989433Y-107140905D01*
X104450000Y-106601473D01*
X104450000Y-105148527D01*
X105031887Y-104566640D01*
X114225735Y-104566640D01*
X114225735Y-104684830D01*
X114248793Y-104800749D01*
X114294022Y-104909942D01*
X114359685Y-105008213D01*
X114443257Y-105091785D01*
X114541528Y-105157448D01*
X114650721Y-105202677D01*
X114766640Y-105225735D01*
X114884830Y-105225735D01*
X115000749Y-105202677D01*
X115109942Y-105157448D01*
X115208213Y-105091785D01*
X115274263Y-105025735D01*
X115654619Y-105025735D01*
X115674265Y-105027670D01*
X115693911Y-105025735D01*
X115693912Y-105025735D01*
X115752679Y-105019947D01*
X115828079Y-104997075D01*
X115897568Y-104959932D01*
X115958476Y-104909946D01*
X115971002Y-104894683D01*
X116312821Y-104552865D01*
X116400000Y-104561451D01*
X118100000Y-104561451D01*
X118236846Y-104547973D01*
X118368434Y-104508056D01*
X118489705Y-104443235D01*
X118596001Y-104356001D01*
X118683235Y-104249705D01*
X118748056Y-104128434D01*
X118787973Y-103996846D01*
X118801451Y-103860000D01*
X118801451Y-103060000D01*
X118787973Y-102923154D01*
X118748056Y-102791566D01*
X118683235Y-102670295D01*
X118596001Y-102563999D01*
X118489705Y-102476765D01*
X118368434Y-102411944D01*
X118236846Y-102372027D01*
X118100000Y-102358549D01*
X116400000Y-102358549D01*
X116263154Y-102372027D01*
X116131566Y-102411944D01*
X116010295Y-102476765D01*
X115903999Y-102563999D01*
X115816765Y-102670295D01*
X115751944Y-102791566D01*
X115712027Y-102923154D01*
X115698549Y-103060000D01*
X115698549Y-103860000D01*
X115712027Y-103996846D01*
X115717948Y-104016366D01*
X115508580Y-104225735D01*
X115274263Y-104225735D01*
X115208213Y-104159685D01*
X115109942Y-104094022D01*
X115000749Y-104048793D01*
X114884830Y-104025735D01*
X114766640Y-104025735D01*
X114650721Y-104048793D01*
X114541528Y-104094022D01*
X114443257Y-104159685D01*
X114359685Y-104243257D01*
X114294022Y-104341528D01*
X114248793Y-104450721D01*
X114225735Y-104566640D01*
X105031887Y-104566640D01*
X106598528Y-103000000D01*
X107159095Y-103000000D01*
X107188148Y-102994221D01*
X107217621Y-102991318D01*
X107245963Y-102982721D01*
X107275014Y-102976942D01*
X107302377Y-102965608D01*
X107330721Y-102957010D01*
X107356844Y-102943047D01*
X107384207Y-102931713D01*
X107408832Y-102915259D01*
X107434955Y-102901296D01*
X107457853Y-102882504D01*
X107482478Y-102866050D01*
X107503419Y-102845109D01*
X107526317Y-102826317D01*
X107545109Y-102803419D01*
X107566050Y-102782478D01*
X107582504Y-102757853D01*
X107601296Y-102734955D01*
X107615259Y-102708832D01*
X107631713Y-102684207D01*
X107643047Y-102656844D01*
X107657010Y-102630721D01*
X107665608Y-102602377D01*
X107676942Y-102575014D01*
X107682721Y-102545963D01*
X107691318Y-102517621D01*
X107694221Y-102488148D01*
X107700000Y-102459095D01*
X107700000Y-102429474D01*
X107702903Y-102400000D01*
X107700000Y-102370526D01*
X107700000Y-102340905D01*
X107694221Y-102311852D01*
X107691318Y-102282379D01*
X107682721Y-102254037D01*
X107676942Y-102224986D01*
X107665608Y-102197623D01*
X107657010Y-102169279D01*
X107643047Y-102143156D01*
X107631713Y-102115793D01*
X107615259Y-102091168D01*
X107601296Y-102065045D01*
X107582504Y-102042147D01*
X107566050Y-102017522D01*
X107545109Y-101996581D01*
X107526317Y-101973683D01*
X107503419Y-101954891D01*
X107482478Y-101933950D01*
X107457853Y-101917496D01*
X107434955Y-101898704D01*
X107408832Y-101884741D01*
X107384207Y-101868287D01*
X107356844Y-101856953D01*
X107330721Y-101842990D01*
X107302377Y-101834392D01*
X107275014Y-101823058D01*
X107245963Y-101817279D01*
X107217621Y-101808682D01*
X107188148Y-101805779D01*
X107159095Y-101800000D01*
X106379474Y-101800000D01*
X106350000Y-101797097D01*
X106320526Y-101800000D01*
X106232379Y-101808682D01*
X106119279Y-101842990D01*
X106015045Y-101898704D01*
X105923683Y-101973683D01*
X105904891Y-101996581D01*
X103446582Y-104454891D01*
X103423684Y-104473683D01*
X103348705Y-104565045D01*
X103316266Y-104625735D01*
X103292991Y-104669279D01*
X103258682Y-104782380D01*
X103247097Y-104900000D01*
X103250001Y-104929483D01*
X103250000Y-106150000D01*
X99300000Y-106150000D01*
X99300000Y-105429473D01*
X99302903Y-105399999D01*
X99291318Y-105282379D01*
X99274135Y-105225735D01*
X99257010Y-105169279D01*
X99201296Y-105065045D01*
X99126317Y-104973683D01*
X99103419Y-104954891D01*
X99066051Y-104917524D01*
X99066050Y-104917522D01*
X98982478Y-104833950D01*
X98957842Y-104817489D01*
X98934954Y-104798705D01*
X98908843Y-104784748D01*
X98884207Y-104768287D01*
X98856834Y-104756949D01*
X98830721Y-104742991D01*
X98802384Y-104734395D01*
X98775014Y-104723058D01*
X98745958Y-104717278D01*
X98717620Y-104708682D01*
X98688149Y-104705779D01*
X98659095Y-104700000D01*
X98629474Y-104700000D01*
X98600000Y-104697097D01*
X98570526Y-104700000D01*
X98540905Y-104700000D01*
X98511851Y-104705779D01*
X98482380Y-104708682D01*
X98454042Y-104717278D01*
X98424986Y-104723058D01*
X98397616Y-104734395D01*
X98369279Y-104742991D01*
X98343166Y-104756949D01*
X98315793Y-104768287D01*
X98291157Y-104784748D01*
X98265046Y-104798705D01*
X98242159Y-104817488D01*
X98217522Y-104833950D01*
X98196571Y-104854901D01*
X98173684Y-104873684D01*
X98154901Y-104896571D01*
X98133950Y-104917522D01*
X98117488Y-104942159D01*
X98098705Y-104965046D01*
X98084748Y-104991157D01*
X98068287Y-105015793D01*
X98056949Y-105043166D01*
X98042991Y-105069279D01*
X98034395Y-105097616D01*
X98023058Y-105124986D01*
X98017278Y-105154042D01*
X98008682Y-105182380D01*
X98005779Y-105211851D01*
X98000000Y-105240905D01*
X98000000Y-105270526D01*
X97997097Y-105300000D01*
X98000000Y-105329474D01*
X98000000Y-105359095D01*
X98005779Y-105388149D01*
X98008682Y-105417620D01*
X98017278Y-105445958D01*
X98023058Y-105475014D01*
X98034395Y-105502384D01*
X98042991Y-105530721D01*
X98056949Y-105556834D01*
X98068287Y-105584207D01*
X98084748Y-105608843D01*
X98098705Y-105634954D01*
X98100000Y-105636532D01*
X98100001Y-106801471D01*
X98001475Y-106899998D01*
X97840905Y-106899998D01*
X97811852Y-106905777D01*
X97782379Y-106908680D01*
X97754037Y-106917277D01*
X97724986Y-106923056D01*
X97697623Y-106934390D01*
X97669279Y-106942988D01*
X97643156Y-106956951D01*
X97615793Y-106968285D01*
X97591168Y-106984739D01*
X97565045Y-106998702D01*
X97542147Y-107017494D01*
X97517522Y-107033948D01*
X97496581Y-107054889D01*
X97473683Y-107073681D01*
X97454894Y-107096576D01*
X97433950Y-107117520D01*
X97417496Y-107142145D01*
X97398704Y-107165043D01*
X97384741Y-107191166D01*
X97368287Y-107215791D01*
X97356953Y-107243154D01*
X97342990Y-107269277D01*
X97334392Y-107297621D01*
X97323058Y-107324984D01*
X97317279Y-107354035D01*
X97308682Y-107382377D01*
X97305779Y-107411850D01*
X97300000Y-107440903D01*
X97300000Y-107470524D01*
X97297097Y-107499998D01*
X96521160Y-107499998D01*
X96515259Y-107491168D01*
X96501296Y-107465045D01*
X96482504Y-107442147D01*
X96466050Y-107417522D01*
X96445106Y-107396578D01*
X96426317Y-107373683D01*
X96403419Y-107354891D01*
X96382478Y-107333950D01*
X96357853Y-107317496D01*
X96334955Y-107298704D01*
X96308832Y-107284741D01*
X96284207Y-107268287D01*
X96256844Y-107256953D01*
X96230721Y-107242990D01*
X96202377Y-107234392D01*
X96175014Y-107223058D01*
X96145963Y-107217279D01*
X96117621Y-107208682D01*
X96088148Y-107205779D01*
X96059095Y-107200000D01*
X95800001Y-107200000D01*
X95800001Y-104595782D01*
X95933351Y-104569257D01*
X96078942Y-104508951D01*
X96209970Y-104421401D01*
X96321401Y-104309970D01*
X96408951Y-104178942D01*
X96469257Y-104033351D01*
X96500000Y-103878793D01*
X96500000Y-103721207D01*
X96469257Y-103566649D01*
X96408951Y-103421058D01*
X96321401Y-103290030D01*
X96209970Y-103178599D01*
X96078942Y-103091049D01*
X95933351Y-103030743D01*
X95778793Y-103000000D01*
X95621207Y-103000000D01*
X95466649Y-103030743D01*
X95321058Y-103091049D01*
X95190030Y-103178599D01*
X95078599Y-103290030D01*
X94991049Y-103421058D01*
X94930743Y-103566649D01*
X94900000Y-103721207D01*
X94900000Y-103751472D01*
X94796586Y-103854886D01*
X94773684Y-103873682D01*
X94698705Y-103965045D01*
X94642991Y-104069279D01*
X94625047Y-104128434D01*
X94608683Y-104182379D01*
X94597098Y-104299999D01*
X94600001Y-104329473D01*
X94600002Y-107200000D01*
X92440905Y-107200000D01*
X92411852Y-107205779D01*
X92382379Y-107208682D01*
X92354037Y-107217279D01*
X92324986Y-107223058D01*
X92297623Y-107234392D01*
X92269279Y-107242990D01*
X92243156Y-107256953D01*
X92215793Y-107268287D01*
X92191168Y-107284741D01*
X92165045Y-107298704D01*
X92142147Y-107317496D01*
X92117522Y-107333950D01*
X92096581Y-107354891D01*
X92073683Y-107373683D01*
X92054894Y-107396578D01*
X92033950Y-107417522D01*
X92017496Y-107442147D01*
X91998704Y-107465045D01*
X91984741Y-107491168D01*
X91968287Y-107515793D01*
X91956953Y-107543156D01*
X91942990Y-107569279D01*
X91934392Y-107597623D01*
X91923058Y-107624986D01*
X91917279Y-107654037D01*
X91908682Y-107682379D01*
X91905779Y-107711852D01*
X91900000Y-107740905D01*
X91900000Y-107770526D01*
X91897097Y-107800000D01*
X79775000Y-107800000D01*
X79775000Y-101915905D01*
X91600000Y-101915905D01*
X91600000Y-102034095D01*
X91623058Y-102150014D01*
X91668287Y-102259207D01*
X91733950Y-102357478D01*
X91817522Y-102441050D01*
X91915793Y-102506713D01*
X92024986Y-102551942D01*
X92140905Y-102575000D01*
X92234315Y-102575000D01*
X92437134Y-102777818D01*
X92449664Y-102793086D01*
X92510572Y-102843072D01*
X92580061Y-102880215D01*
X92655461Y-102903087D01*
X92733875Y-102910810D01*
X92753522Y-102908875D01*
X92965875Y-102908875D01*
X93031925Y-102974925D01*
X93130196Y-103040588D01*
X93239389Y-103085817D01*
X93355308Y-103108875D01*
X93473498Y-103108875D01*
X93589417Y-103085817D01*
X93698610Y-103040588D01*
X93796881Y-102974925D01*
X93880453Y-102891353D01*
X93946116Y-102793082D01*
X93991345Y-102683889D01*
X94014403Y-102567970D01*
X94014403Y-102449780D01*
X93991345Y-102333861D01*
X93985154Y-102318913D01*
X95188158Y-102318913D01*
X95231551Y-102453271D01*
X95367999Y-102532109D01*
X95517206Y-102582811D01*
X95673438Y-102603431D01*
X95830690Y-102593175D01*
X95982919Y-102552438D01*
X96124276Y-102482786D01*
X96168449Y-102453271D01*
X96211842Y-102318913D01*
X95700000Y-101807071D01*
X95188158Y-102318913D01*
X93985154Y-102318913D01*
X93946116Y-102224668D01*
X93880453Y-102126397D01*
X93796881Y-102042825D01*
X93698610Y-101977162D01*
X93589417Y-101931933D01*
X93473498Y-101908875D01*
X93355308Y-101908875D01*
X93239389Y-101931933D01*
X93130196Y-101977162D01*
X93031925Y-102042825D01*
X92965875Y-102108875D01*
X92899560Y-102108875D01*
X92800000Y-102009315D01*
X92800000Y-101915905D01*
X92776942Y-101799986D01*
X92765946Y-101773438D01*
X94896569Y-101773438D01*
X94906825Y-101930690D01*
X94947562Y-102082919D01*
X95017214Y-102224276D01*
X95046729Y-102268449D01*
X95181087Y-102311842D01*
X95692929Y-101800000D01*
X95707071Y-101800000D01*
X96218913Y-102311842D01*
X96353271Y-102268449D01*
X96432109Y-102132001D01*
X96482811Y-101982794D01*
X96503431Y-101826562D01*
X96496560Y-101721207D01*
X96900000Y-101721207D01*
X96900000Y-101878793D01*
X96930743Y-102033351D01*
X96991049Y-102178942D01*
X97078599Y-102309970D01*
X97190030Y-102421401D01*
X97321058Y-102508951D01*
X97466649Y-102569257D01*
X97621207Y-102600000D01*
X97778793Y-102600000D01*
X97933351Y-102569257D01*
X98078942Y-102508951D01*
X98209970Y-102421401D01*
X98321401Y-102309970D01*
X98394422Y-102200686D01*
X98407106Y-102201935D01*
X98426752Y-102200000D01*
X98426753Y-102200000D01*
X98485520Y-102194212D01*
X98560920Y-102171340D01*
X98630409Y-102134197D01*
X98691317Y-102084211D01*
X98703843Y-102068948D01*
X98872770Y-101900022D01*
X99151474Y-101900022D01*
X99133950Y-101917546D01*
X99068287Y-102015817D01*
X99023058Y-102125010D01*
X99000000Y-102240929D01*
X99000000Y-102334339D01*
X98177461Y-103156878D01*
X98078942Y-103091049D01*
X97933351Y-103030743D01*
X97778793Y-103000000D01*
X97621207Y-103000000D01*
X97466649Y-103030743D01*
X97321058Y-103091049D01*
X97190030Y-103178599D01*
X97078599Y-103290030D01*
X96991049Y-103421058D01*
X96930743Y-103566649D01*
X96900000Y-103721207D01*
X96900000Y-103878793D01*
X96930743Y-104033351D01*
X96991049Y-104178942D01*
X97078599Y-104309970D01*
X97190030Y-104421401D01*
X97321058Y-104508951D01*
X97466649Y-104569257D01*
X97621207Y-104600000D01*
X97778793Y-104600000D01*
X97933351Y-104569257D01*
X98078942Y-104508951D01*
X98209970Y-104421401D01*
X98321401Y-104309970D01*
X98408951Y-104178942D01*
X98469257Y-104033351D01*
X98484893Y-103954740D01*
X98523328Y-103934196D01*
X98584236Y-103884210D01*
X98596762Y-103868947D01*
X99565685Y-102900024D01*
X99659095Y-102900024D01*
X99775014Y-102876966D01*
X99884207Y-102831737D01*
X99982478Y-102766074D01*
X100066050Y-102682502D01*
X100131713Y-102584231D01*
X100176942Y-102475038D01*
X100200000Y-102359119D01*
X100200000Y-102240929D01*
X100176942Y-102125010D01*
X100131713Y-102015817D01*
X100066050Y-101917546D01*
X100048526Y-101900022D01*
X100580336Y-101900022D01*
X100599982Y-101901957D01*
X100619628Y-101900022D01*
X100619629Y-101900022D01*
X100678396Y-101894234D01*
X100753796Y-101871362D01*
X100823285Y-101834219D01*
X100884193Y-101784233D01*
X100896719Y-101768970D01*
X101065685Y-101600004D01*
X101159095Y-101600004D01*
X101275014Y-101576946D01*
X101384207Y-101531717D01*
X101482478Y-101466054D01*
X101566050Y-101382482D01*
X101631713Y-101284211D01*
X101676942Y-101175018D01*
X101700000Y-101059099D01*
X101700000Y-100940909D01*
X101676942Y-100824990D01*
X101631713Y-100715797D01*
X101566050Y-100617526D01*
X101482478Y-100533954D01*
X101384207Y-100468291D01*
X101275014Y-100423062D01*
X101159095Y-100400004D01*
X101040905Y-100400004D01*
X100924986Y-100423062D01*
X100815793Y-100468291D01*
X100717522Y-100533954D01*
X100633950Y-100617526D01*
X100568287Y-100715797D01*
X100523058Y-100824990D01*
X100500000Y-100940909D01*
X100500000Y-101034319D01*
X100434297Y-101100022D01*
X98726730Y-101100022D01*
X98707084Y-101098087D01*
X98687437Y-101100022D01*
X98628670Y-101105810D01*
X98553270Y-101128682D01*
X98496372Y-101159095D01*
X98483781Y-101165825D01*
X98438133Y-101203287D01*
X98438131Y-101203289D01*
X98422873Y-101215811D01*
X98410351Y-101231069D01*
X98333413Y-101308007D01*
X98321401Y-101290030D01*
X98209970Y-101178599D01*
X98078942Y-101091049D01*
X97933351Y-101030743D01*
X97778793Y-101000000D01*
X97621207Y-101000000D01*
X97466649Y-101030743D01*
X97321058Y-101091049D01*
X97190030Y-101178599D01*
X97078599Y-101290030D01*
X96991049Y-101421058D01*
X96930743Y-101566649D01*
X96900000Y-101721207D01*
X96496560Y-101721207D01*
X96493175Y-101669310D01*
X96452438Y-101517081D01*
X96382786Y-101375724D01*
X96353271Y-101331551D01*
X96218913Y-101288158D01*
X95707071Y-101800000D01*
X95692929Y-101800000D01*
X95181087Y-101288158D01*
X95046729Y-101331551D01*
X94967891Y-101467999D01*
X94917189Y-101617206D01*
X94896569Y-101773438D01*
X92765946Y-101773438D01*
X92731713Y-101690793D01*
X92666050Y-101592522D01*
X92582478Y-101508950D01*
X92484207Y-101443287D01*
X92375014Y-101398058D01*
X92259095Y-101375000D01*
X92140905Y-101375000D01*
X92024986Y-101398058D01*
X91915793Y-101443287D01*
X91817522Y-101508950D01*
X91733950Y-101592522D01*
X91668287Y-101690793D01*
X91623058Y-101799986D01*
X91600000Y-101915905D01*
X79775000Y-101915905D01*
X79775000Y-101355329D01*
X79849242Y-101281087D01*
X95188158Y-101281087D01*
X95700000Y-101792929D01*
X96211842Y-101281087D01*
X96168449Y-101146729D01*
X96032001Y-101067891D01*
X95882794Y-101017189D01*
X95726562Y-100996569D01*
X95569310Y-101006825D01*
X95417081Y-101047562D01*
X95275724Y-101117214D01*
X95231551Y-101146729D01*
X95188158Y-101281087D01*
X79849242Y-101281087D01*
X80555330Y-100575000D01*
X91181584Y-100575000D01*
X91200000Y-100576814D01*
X91218416Y-100575000D01*
X91218419Y-100575000D01*
X91273513Y-100569574D01*
X91344200Y-100548131D01*
X91409347Y-100513309D01*
X91466448Y-100466448D01*
X91478195Y-100452134D01*
X91916478Y-100013851D01*
X102078530Y-100013851D01*
X102078530Y-100132041D01*
X102101588Y-100247960D01*
X102146817Y-100357153D01*
X102212480Y-100455424D01*
X102296052Y-100538996D01*
X102394323Y-100604659D01*
X102503516Y-100649888D01*
X102619435Y-100672946D01*
X102712845Y-100672946D01*
X103013406Y-100973507D01*
X103000000Y-101040905D01*
X103000000Y-101159095D01*
X103023058Y-101275014D01*
X103068287Y-101384207D01*
X103133950Y-101482478D01*
X103217522Y-101566050D01*
X103315793Y-101631713D01*
X103424986Y-101676942D01*
X103540905Y-101700000D01*
X103659095Y-101700000D01*
X103775014Y-101676942D01*
X103884207Y-101631713D01*
X103945280Y-101590905D01*
X113800000Y-101590905D01*
X113800000Y-101709095D01*
X113823058Y-101825014D01*
X113868287Y-101934207D01*
X113933950Y-102032478D01*
X114017522Y-102116050D01*
X114115793Y-102181713D01*
X114224986Y-102226942D01*
X114340905Y-102250000D01*
X114459095Y-102250000D01*
X114575014Y-102226942D01*
X114684207Y-102181713D01*
X114782478Y-102116050D01*
X114848528Y-102050000D01*
X116030354Y-102050000D01*
X116050000Y-102051935D01*
X116069646Y-102050000D01*
X116069647Y-102050000D01*
X116128414Y-102044212D01*
X116203814Y-102021340D01*
X116241252Y-102001329D01*
X116263154Y-102007973D01*
X116400000Y-102021451D01*
X118100000Y-102021451D01*
X118236846Y-102007973D01*
X118368434Y-101968056D01*
X118489705Y-101903235D01*
X118596001Y-101816001D01*
X118683235Y-101709705D01*
X118748056Y-101588434D01*
X118787973Y-101456846D01*
X118801451Y-101320000D01*
X118801451Y-100520000D01*
X118787973Y-100383154D01*
X118748056Y-100251566D01*
X118683235Y-100130295D01*
X118596001Y-100023999D01*
X118489705Y-99936765D01*
X118368434Y-99871944D01*
X118236846Y-99832027D01*
X118100000Y-99818549D01*
X116400000Y-99818549D01*
X116263154Y-99832027D01*
X116131566Y-99871944D01*
X116010295Y-99936765D01*
X115903999Y-100023999D01*
X115816765Y-100130295D01*
X115751944Y-100251566D01*
X115712027Y-100383154D01*
X115698549Y-100520000D01*
X115698549Y-101250000D01*
X114848528Y-101250000D01*
X114782478Y-101183950D01*
X114684207Y-101118287D01*
X114575014Y-101073058D01*
X114459095Y-101050000D01*
X114340905Y-101050000D01*
X114224986Y-101073058D01*
X114115793Y-101118287D01*
X114017522Y-101183950D01*
X113933950Y-101267522D01*
X113868287Y-101365793D01*
X113823058Y-101474986D01*
X113800000Y-101590905D01*
X103945280Y-101590905D01*
X103982478Y-101566050D01*
X104066050Y-101482478D01*
X104131713Y-101384207D01*
X104176942Y-101275014D01*
X104200000Y-101159095D01*
X104200000Y-101040905D01*
X104176942Y-100924986D01*
X104131713Y-100815793D01*
X104066050Y-100717522D01*
X103982478Y-100633950D01*
X103884207Y-100568287D01*
X103775014Y-100523058D01*
X103674292Y-100503023D01*
X103278530Y-100107261D01*
X103278530Y-100013851D01*
X103255472Y-99897932D01*
X103210243Y-99788739D01*
X103144580Y-99690468D01*
X103061008Y-99606896D01*
X102962737Y-99541233D01*
X102853544Y-99496004D01*
X102737625Y-99472946D01*
X102619435Y-99472946D01*
X102503516Y-99496004D01*
X102394323Y-99541233D01*
X102296052Y-99606896D01*
X102212480Y-99690468D01*
X102146817Y-99788739D01*
X102101588Y-99897932D01*
X102078530Y-100013851D01*
X91916478Y-100013851D01*
X92555331Y-99375000D01*
X118481662Y-99375000D01*
X118621045Y-99388667D01*
M02*
