G04 #@! TF.GenerationSoftware,KiCad,Pcbnew,no-vcs-found-826efab~61~ubuntu16.04.1*
G04 #@! TF.CreationDate,2018-02-09T13:54:05+01:00*
G04 #@! TF.ProjectId,ubmp_v1r1,75626D705F763172312E6B696361645F,rev?*
G04 #@! TF.SameCoordinates,Original*
G04 #@! TF.FileFunction,Paste,Top*
G04 #@! TF.FilePolarity,Positive*
%FSLAX46Y46*%
G04 Gerber Fmt 4.6, Leading zero omitted, Abs format (unit mm)*
G04 Created by KiCad (PCBNEW no-vcs-found-826efab~61~ubuntu16.04.1) date Fri Feb  9 13:54:05 2018*
%MOMM*%
%LPD*%
G01*
G04 APERTURE LIST*
%ADD10R,0.650000X0.575000*%
%ADD11R,0.575000X0.650000*%
%ADD12R,0.670000X1.000000*%
%ADD13R,0.250000X0.700000*%
%ADD14R,0.700000X0.250000*%
%ADD15R,0.830000X0.830000*%
%ADD16R,0.650000X1.060000*%
%ADD17O,0.400000X1.900000*%
G04 APERTURE END LIST*
D10*
X106000000Y-111587500D03*
X106000000Y-110812500D03*
D11*
X97112500Y-103300000D03*
X97887500Y-103300000D03*
X97900000Y-108250000D03*
X97125000Y-108250000D03*
X108887500Y-103250000D03*
X108112500Y-103250000D03*
D12*
X95125000Y-109400000D03*
X93375000Y-109400000D03*
X95125000Y-104000000D03*
X93375000Y-104000000D03*
X93250000Y-112000000D03*
X95000000Y-112000000D03*
X95000000Y-100000000D03*
X93250000Y-100000000D03*
D11*
X96875000Y-112000000D03*
X96100000Y-112000000D03*
X97875000Y-100000000D03*
X97100000Y-100000000D03*
X108112500Y-110000000D03*
X108887500Y-110000000D03*
X108887500Y-109000000D03*
X108112500Y-109000000D03*
X108887500Y-106000000D03*
X108112500Y-106000000D03*
D10*
X104500000Y-110812500D03*
X104500000Y-111587500D03*
D11*
X97112500Y-106200000D03*
X97887500Y-106200000D03*
D10*
X99200000Y-111587500D03*
X99200000Y-110812500D03*
D11*
X108112500Y-105000000D03*
X108887500Y-105000000D03*
X108112500Y-101250000D03*
X108887500Y-101250000D03*
X108112500Y-108000000D03*
X108887500Y-108000000D03*
X108887500Y-107000000D03*
X108112500Y-107000000D03*
X108887500Y-102250000D03*
X108112500Y-102250000D03*
X97112500Y-104300000D03*
X97887500Y-104300000D03*
X97887500Y-101000000D03*
X97112500Y-101000000D03*
X97112500Y-102000000D03*
X97887500Y-102000000D03*
D13*
X100250000Y-108900000D03*
X100750000Y-108900000D03*
X101250000Y-108900000D03*
X101750000Y-108900000D03*
X102250000Y-108900000D03*
X102750000Y-108900000D03*
X103250000Y-108900000D03*
X103750000Y-108900000D03*
X104250000Y-108900000D03*
X104750000Y-108900000D03*
X105250000Y-108900000D03*
X105750000Y-108900000D03*
D14*
X106400000Y-108250000D03*
X106400000Y-107750000D03*
X106400000Y-107250000D03*
X106400000Y-106750000D03*
X106400000Y-106250000D03*
X106400000Y-105750000D03*
X106400000Y-105250000D03*
X106400000Y-104750000D03*
X106400000Y-104250000D03*
X106400000Y-103750000D03*
X106400000Y-103250000D03*
X106400000Y-102750000D03*
D13*
X105750000Y-102100000D03*
X105250000Y-102100000D03*
X104750000Y-102100000D03*
X104250000Y-102100000D03*
X103750000Y-102100000D03*
X103250000Y-102100000D03*
X102750000Y-102100000D03*
X102250000Y-102100000D03*
X101750000Y-102100000D03*
X101250000Y-102100000D03*
X100750000Y-102100000D03*
X100250000Y-102100000D03*
D14*
X99600000Y-102750000D03*
X99600000Y-103250000D03*
X99600000Y-103750000D03*
X99600000Y-104250000D03*
X99600000Y-104750000D03*
X99600000Y-105250000D03*
X99600000Y-105750000D03*
X99600000Y-106250000D03*
X99600000Y-106750000D03*
X99600000Y-107250000D03*
X99600000Y-107750000D03*
X99600000Y-108250000D03*
D15*
X105060000Y-103440000D03*
X105060000Y-104470000D03*
X105060000Y-105500000D03*
X105060000Y-106530000D03*
X105060000Y-107560000D03*
X104030000Y-107560000D03*
X104030000Y-106530000D03*
X104030000Y-105500000D03*
X104030000Y-104470000D03*
X104030000Y-103440000D03*
X103000000Y-107560000D03*
X103000000Y-106530000D03*
X103000000Y-105500000D03*
X103000000Y-104470000D03*
X103000000Y-103440000D03*
X101970000Y-107560000D03*
X101970000Y-106530000D03*
X101970000Y-105500000D03*
X101970000Y-104470000D03*
X101970000Y-103440000D03*
X100940000Y-107560000D03*
X100940000Y-106530000D03*
X100940000Y-105500000D03*
X100940000Y-104470000D03*
X100940000Y-103440000D03*
D16*
X93300000Y-107800000D03*
X94250000Y-107800000D03*
X95200000Y-107800000D03*
X95200000Y-105600000D03*
X93300000Y-105600000D03*
D17*
X100900000Y-111200000D03*
X102100000Y-111200000D03*
X103300000Y-111200000D03*
M02*
