G04 #@! TF.GenerationSoftware,KiCad,Pcbnew,no-vcs-found-826efab~61~ubuntu16.04.1*
G04 #@! TF.CreationDate,2018-02-09T15:50:45+01:00*
G04 #@! TF.ProjectId,ubmp_v1r1,75626D705F763172312E6B696361645F,rev?*
G04 #@! TF.SameCoordinates,Original*
G04 #@! TF.FileFunction,Copper,L2,Bot,Signal*
G04 #@! TF.FilePolarity,Positive*
%FSLAX46Y46*%
G04 Gerber Fmt 4.6, Leading zero omitted, Abs format (unit mm)*
G04 Created by KiCad (PCBNEW no-vcs-found-826efab~61~ubuntu16.04.1) date Fri Feb  9 15:50:45 2018*
%MOMM*%
%LPD*%
G01*
G04 APERTURE LIST*
%ADD10C,0.100000*%
%ADD11C,1.600000*%
%ADD12C,1.000000*%
%ADD13C,0.600000*%
%ADD14C,0.600000*%
%ADD15C,0.200000*%
G04 APERTURE END LIST*
D10*
G36*
X118139207Y-110281926D02*
X118178036Y-110287686D01*
X118216114Y-110297224D01*
X118253073Y-110310448D01*
X118288559Y-110327231D01*
X118322228Y-110347412D01*
X118353757Y-110370796D01*
X118382843Y-110397157D01*
X118409204Y-110426243D01*
X118432588Y-110457772D01*
X118452769Y-110491441D01*
X118469552Y-110526927D01*
X118482776Y-110563886D01*
X118492314Y-110601964D01*
X118498074Y-110640793D01*
X118500000Y-110680000D01*
X118500000Y-111480000D01*
X118498074Y-111519207D01*
X118492314Y-111558036D01*
X118482776Y-111596114D01*
X118469552Y-111633073D01*
X118452769Y-111668559D01*
X118432588Y-111702228D01*
X118409204Y-111733757D01*
X118382843Y-111762843D01*
X118353757Y-111789204D01*
X118322228Y-111812588D01*
X118288559Y-111832769D01*
X118253073Y-111849552D01*
X118216114Y-111862776D01*
X118178036Y-111872314D01*
X118139207Y-111878074D01*
X118100000Y-111880000D01*
X116400000Y-111880000D01*
X116360793Y-111878074D01*
X116321964Y-111872314D01*
X116283886Y-111862776D01*
X116246927Y-111849552D01*
X116211441Y-111832769D01*
X116177772Y-111812588D01*
X116146243Y-111789204D01*
X116117157Y-111762843D01*
X116090796Y-111733757D01*
X116067412Y-111702228D01*
X116047231Y-111668559D01*
X116030448Y-111633073D01*
X116017224Y-111596114D01*
X116007686Y-111558036D01*
X116001926Y-111519207D01*
X116000000Y-111480000D01*
X116000000Y-110680000D01*
X116001926Y-110640793D01*
X116007686Y-110601964D01*
X116017224Y-110563886D01*
X116030448Y-110526927D01*
X116047231Y-110491441D01*
X116067412Y-110457772D01*
X116090796Y-110426243D01*
X116117157Y-110397157D01*
X116146243Y-110370796D01*
X116177772Y-110347412D01*
X116211441Y-110327231D01*
X116246927Y-110310448D01*
X116283886Y-110297224D01*
X116321964Y-110287686D01*
X116360793Y-110281926D01*
X116400000Y-110280000D01*
X118100000Y-110280000D01*
X118139207Y-110281926D01*
X118139207Y-110281926D01*
G37*
D11*
X117250000Y-111080000D03*
D10*
G36*
X118139207Y-100121926D02*
X118178036Y-100127686D01*
X118216114Y-100137224D01*
X118253073Y-100150448D01*
X118288559Y-100167231D01*
X118322228Y-100187412D01*
X118353757Y-100210796D01*
X118382843Y-100237157D01*
X118409204Y-100266243D01*
X118432588Y-100297772D01*
X118452769Y-100331441D01*
X118469552Y-100366927D01*
X118482776Y-100403886D01*
X118492314Y-100441964D01*
X118498074Y-100480793D01*
X118500000Y-100520000D01*
X118500000Y-101320000D01*
X118498074Y-101359207D01*
X118492314Y-101398036D01*
X118482776Y-101436114D01*
X118469552Y-101473073D01*
X118452769Y-101508559D01*
X118432588Y-101542228D01*
X118409204Y-101573757D01*
X118382843Y-101602843D01*
X118353757Y-101629204D01*
X118322228Y-101652588D01*
X118288559Y-101672769D01*
X118253073Y-101689552D01*
X118216114Y-101702776D01*
X118178036Y-101712314D01*
X118139207Y-101718074D01*
X118100000Y-101720000D01*
X116400000Y-101720000D01*
X116360793Y-101718074D01*
X116321964Y-101712314D01*
X116283886Y-101702776D01*
X116246927Y-101689552D01*
X116211441Y-101672769D01*
X116177772Y-101652588D01*
X116146243Y-101629204D01*
X116117157Y-101602843D01*
X116090796Y-101573757D01*
X116067412Y-101542228D01*
X116047231Y-101508559D01*
X116030448Y-101473073D01*
X116017224Y-101436114D01*
X116007686Y-101398036D01*
X116001926Y-101359207D01*
X116000000Y-101320000D01*
X116000000Y-100520000D01*
X116001926Y-100480793D01*
X116007686Y-100441964D01*
X116017224Y-100403886D01*
X116030448Y-100366927D01*
X116047231Y-100331441D01*
X116067412Y-100297772D01*
X116090796Y-100266243D01*
X116117157Y-100237157D01*
X116146243Y-100210796D01*
X116177772Y-100187412D01*
X116211441Y-100167231D01*
X116246927Y-100150448D01*
X116283886Y-100137224D01*
X116321964Y-100127686D01*
X116360793Y-100121926D01*
X116400000Y-100120000D01*
X118100000Y-100120000D01*
X118139207Y-100121926D01*
X118139207Y-100121926D01*
G37*
D11*
X117250000Y-100920000D03*
D10*
G36*
X118139207Y-105201926D02*
X118178036Y-105207686D01*
X118216114Y-105217224D01*
X118253073Y-105230448D01*
X118288559Y-105247231D01*
X118322228Y-105267412D01*
X118353757Y-105290796D01*
X118382843Y-105317157D01*
X118409204Y-105346243D01*
X118432588Y-105377772D01*
X118452769Y-105411441D01*
X118469552Y-105446927D01*
X118482776Y-105483886D01*
X118492314Y-105521964D01*
X118498074Y-105560793D01*
X118500000Y-105600000D01*
X118500000Y-106400000D01*
X118498074Y-106439207D01*
X118492314Y-106478036D01*
X118482776Y-106516114D01*
X118469552Y-106553073D01*
X118452769Y-106588559D01*
X118432588Y-106622228D01*
X118409204Y-106653757D01*
X118382843Y-106682843D01*
X118353757Y-106709204D01*
X118322228Y-106732588D01*
X118288559Y-106752769D01*
X118253073Y-106769552D01*
X118216114Y-106782776D01*
X118178036Y-106792314D01*
X118139207Y-106798074D01*
X118100000Y-106800000D01*
X116400000Y-106800000D01*
X116360793Y-106798074D01*
X116321964Y-106792314D01*
X116283886Y-106782776D01*
X116246927Y-106769552D01*
X116211441Y-106752769D01*
X116177772Y-106732588D01*
X116146243Y-106709204D01*
X116117157Y-106682843D01*
X116090796Y-106653757D01*
X116067412Y-106622228D01*
X116047231Y-106588559D01*
X116030448Y-106553073D01*
X116017224Y-106516114D01*
X116007686Y-106478036D01*
X116001926Y-106439207D01*
X116000000Y-106400000D01*
X116000000Y-105600000D01*
X116001926Y-105560793D01*
X116007686Y-105521964D01*
X116017224Y-105483886D01*
X116030448Y-105446927D01*
X116047231Y-105411441D01*
X116067412Y-105377772D01*
X116090796Y-105346243D01*
X116117157Y-105317157D01*
X116146243Y-105290796D01*
X116177772Y-105267412D01*
X116211441Y-105247231D01*
X116246927Y-105230448D01*
X116283886Y-105217224D01*
X116321964Y-105207686D01*
X116360793Y-105201926D01*
X116400000Y-105200000D01*
X118100000Y-105200000D01*
X118139207Y-105201926D01*
X118139207Y-105201926D01*
G37*
D11*
X117250000Y-106000000D03*
D10*
G36*
X118139207Y-102661926D02*
X118178036Y-102667686D01*
X118216114Y-102677224D01*
X118253073Y-102690448D01*
X118288559Y-102707231D01*
X118322228Y-102727412D01*
X118353757Y-102750796D01*
X118382843Y-102777157D01*
X118409204Y-102806243D01*
X118432588Y-102837772D01*
X118452769Y-102871441D01*
X118469552Y-102906927D01*
X118482776Y-102943886D01*
X118492314Y-102981964D01*
X118498074Y-103020793D01*
X118500000Y-103060000D01*
X118500000Y-103860000D01*
X118498074Y-103899207D01*
X118492314Y-103938036D01*
X118482776Y-103976114D01*
X118469552Y-104013073D01*
X118452769Y-104048559D01*
X118432588Y-104082228D01*
X118409204Y-104113757D01*
X118382843Y-104142843D01*
X118353757Y-104169204D01*
X118322228Y-104192588D01*
X118288559Y-104212769D01*
X118253073Y-104229552D01*
X118216114Y-104242776D01*
X118178036Y-104252314D01*
X118139207Y-104258074D01*
X118100000Y-104260000D01*
X116400000Y-104260000D01*
X116360793Y-104258074D01*
X116321964Y-104252314D01*
X116283886Y-104242776D01*
X116246927Y-104229552D01*
X116211441Y-104212769D01*
X116177772Y-104192588D01*
X116146243Y-104169204D01*
X116117157Y-104142843D01*
X116090796Y-104113757D01*
X116067412Y-104082228D01*
X116047231Y-104048559D01*
X116030448Y-104013073D01*
X116017224Y-103976114D01*
X116007686Y-103938036D01*
X116001926Y-103899207D01*
X116000000Y-103860000D01*
X116000000Y-103060000D01*
X116001926Y-103020793D01*
X116007686Y-102981964D01*
X116017224Y-102943886D01*
X116030448Y-102906927D01*
X116047231Y-102871441D01*
X116067412Y-102837772D01*
X116090796Y-102806243D01*
X116117157Y-102777157D01*
X116146243Y-102750796D01*
X116177772Y-102727412D01*
X116211441Y-102707231D01*
X116246927Y-102690448D01*
X116283886Y-102677224D01*
X116321964Y-102667686D01*
X116360793Y-102661926D01*
X116400000Y-102660000D01*
X118100000Y-102660000D01*
X118139207Y-102661926D01*
X118139207Y-102661926D01*
G37*
D11*
X117250000Y-103460000D03*
D10*
G36*
X118139207Y-107741926D02*
X118178036Y-107747686D01*
X118216114Y-107757224D01*
X118253073Y-107770448D01*
X118288559Y-107787231D01*
X118322228Y-107807412D01*
X118353757Y-107830796D01*
X118382843Y-107857157D01*
X118409204Y-107886243D01*
X118432588Y-107917772D01*
X118452769Y-107951441D01*
X118469552Y-107986927D01*
X118482776Y-108023886D01*
X118492314Y-108061964D01*
X118498074Y-108100793D01*
X118500000Y-108140000D01*
X118500000Y-108940000D01*
X118498074Y-108979207D01*
X118492314Y-109018036D01*
X118482776Y-109056114D01*
X118469552Y-109093073D01*
X118452769Y-109128559D01*
X118432588Y-109162228D01*
X118409204Y-109193757D01*
X118382843Y-109222843D01*
X118353757Y-109249204D01*
X118322228Y-109272588D01*
X118288559Y-109292769D01*
X118253073Y-109309552D01*
X118216114Y-109322776D01*
X118178036Y-109332314D01*
X118139207Y-109338074D01*
X118100000Y-109340000D01*
X116400000Y-109340000D01*
X116360793Y-109338074D01*
X116321964Y-109332314D01*
X116283886Y-109322776D01*
X116246927Y-109309552D01*
X116211441Y-109292769D01*
X116177772Y-109272588D01*
X116146243Y-109249204D01*
X116117157Y-109222843D01*
X116090796Y-109193757D01*
X116067412Y-109162228D01*
X116047231Y-109128559D01*
X116030448Y-109093073D01*
X116017224Y-109056114D01*
X116007686Y-109018036D01*
X116001926Y-108979207D01*
X116000000Y-108940000D01*
X116000000Y-108140000D01*
X116001926Y-108100793D01*
X116007686Y-108061964D01*
X116017224Y-108023886D01*
X116030448Y-107986927D01*
X116047231Y-107951441D01*
X116067412Y-107917772D01*
X116090796Y-107886243D01*
X116117157Y-107857157D01*
X116146243Y-107830796D01*
X116177772Y-107807412D01*
X116211441Y-107787231D01*
X116246927Y-107770448D01*
X116283886Y-107757224D01*
X116321964Y-107747686D01*
X116360793Y-107741926D01*
X116400000Y-107740000D01*
X118100000Y-107740000D01*
X118139207Y-107741926D01*
X118139207Y-107741926D01*
G37*
D11*
X117250000Y-108540000D03*
D12*
X97700000Y-101800000D03*
X97700000Y-103800000D03*
X95700000Y-101800000D03*
X95700000Y-103800000D03*
D13*
X97900000Y-107499998D03*
X98600000Y-105300000D03*
X107300000Y-102600000D03*
X106900000Y-110800000D03*
X96000000Y-109400000D03*
X92500000Y-104000006D03*
X118800000Y-99700000D03*
X118800000Y-104800000D03*
X118800000Y-107200000D03*
X118800000Y-112300000D03*
X108100000Y-99700000D03*
X91300000Y-108600000D03*
X91300000Y-110400000D03*
X98800000Y-108900000D03*
X107600000Y-111400000D03*
X107300000Y-104400000D03*
X110400000Y-101200000D03*
X103600000Y-99700000D03*
X110400000Y-108800000D03*
X110300000Y-106800000D03*
X118800000Y-109800000D03*
X118800000Y-102100000D03*
X92600000Y-101300000D03*
X91400000Y-101500000D03*
X94100000Y-112000000D03*
X108900000Y-104100000D03*
X97100000Y-107400000D03*
X94200000Y-106600000D03*
X94700000Y-102800000D03*
X92200000Y-100400000D03*
X101599996Y-112200000D03*
X98300000Y-111600000D03*
X100200000Y-100900000D03*
X105204969Y-110200000D03*
X114800000Y-112300000D03*
X95900000Y-107800000D03*
X97600000Y-110600000D03*
X92500000Y-107800000D03*
X91600014Y-102500000D03*
X93399978Y-102500000D03*
X101100000Y-101000004D03*
X99599264Y-102349265D03*
X97600000Y-112000000D03*
X100100000Y-110200000D03*
X102705127Y-100259027D03*
X103400000Y-101300000D03*
X114400000Y-101650000D03*
X115075735Y-109375735D03*
X114825735Y-104625735D03*
X114700000Y-107200000D03*
D14*
X98600000Y-105300000D02*
X98600000Y-107499998D01*
X98600000Y-107499998D02*
X97900000Y-107499998D01*
X103924264Y-107400000D02*
X103824266Y-107499998D01*
X98324264Y-107499998D02*
X97900000Y-107499998D01*
X103824266Y-107499998D02*
X98324264Y-107499998D01*
X107300000Y-102600000D02*
X107300000Y-103024264D01*
X107300000Y-103024264D02*
X103924264Y-106400000D01*
X103924264Y-106400000D02*
X103924264Y-107400000D01*
X103924264Y-107400000D02*
X106900000Y-110375736D01*
X106900000Y-110375736D02*
X106900000Y-110800000D01*
D15*
X95700000Y-101800000D02*
X94700000Y-102800000D01*
D14*
X101199999Y-109399999D02*
X104100000Y-112300000D01*
X114375736Y-112300000D02*
X114800000Y-112300000D01*
X99715999Y-109399999D02*
X101199999Y-109399999D01*
X97600000Y-110600000D02*
X98515998Y-110600000D01*
X104100000Y-112300000D02*
X114375736Y-112300000D01*
X98515998Y-110600000D02*
X99715999Y-109399999D01*
X95700000Y-103800000D02*
X95200001Y-104299999D01*
X95200001Y-104299999D02*
X95200001Y-107799999D01*
X95200001Y-107799999D02*
X95200000Y-107800000D01*
X95500000Y-107800000D02*
X95900000Y-107800000D01*
X95500000Y-107800000D02*
X92500000Y-107800000D01*
D15*
X93399978Y-102500000D02*
X91600014Y-102500000D01*
X101100000Y-101000004D02*
X100600003Y-101500001D01*
X100600003Y-101500001D02*
X98707105Y-101500001D01*
X98707105Y-101500001D02*
X98407106Y-101800000D01*
X98407106Y-101800000D02*
X97700000Y-101800000D01*
X99599264Y-102349265D02*
X98348530Y-103599999D01*
X98348530Y-103599999D02*
X98188001Y-103599999D01*
X98188001Y-103599999D02*
X97700000Y-103599999D01*
X97600000Y-112000000D02*
X97800001Y-112200001D01*
X97800001Y-112200001D02*
X98588001Y-112200001D01*
X98588001Y-112200001D02*
X100100000Y-110688002D01*
X100100000Y-110688002D02*
X100100000Y-110624264D01*
X100100000Y-110624264D02*
X100100000Y-110200000D01*
X102705127Y-100259027D02*
X102705127Y-100605127D01*
X102705127Y-100605127D02*
X103400000Y-101300000D01*
X116050000Y-101650000D02*
X116780000Y-100920000D01*
X114400000Y-101650000D02*
X116050000Y-101650000D01*
X116780000Y-100920000D02*
X117250000Y-100920000D01*
X115924265Y-109375735D02*
X116760000Y-108540000D01*
X115075735Y-109375735D02*
X115924265Y-109375735D01*
X116760000Y-108540000D02*
X117250000Y-108540000D01*
X115674265Y-104625735D02*
X116840000Y-103460000D01*
X114825735Y-104625735D02*
X115674265Y-104625735D01*
X116840000Y-103460000D02*
X117250000Y-103460000D01*
X115600000Y-107200000D02*
X116800000Y-106000000D01*
X114700000Y-107200000D02*
X115600000Y-107200000D01*
X116800000Y-106000000D02*
X117250000Y-106000000D01*
G36*
X118621045Y-99388667D02*
X118737483Y-99423821D01*
X118844876Y-99480923D01*
X118939128Y-99557793D01*
X119016657Y-99651508D01*
X119074507Y-99758501D01*
X119110472Y-99874688D01*
X119125001Y-100012914D01*
X119125000Y-111981663D01*
X119111333Y-112121044D01*
X119076178Y-112237485D01*
X119019077Y-112344876D01*
X118942207Y-112439128D01*
X118848488Y-112516659D01*
X118741498Y-112574508D01*
X118625316Y-112610472D01*
X118487096Y-112625000D01*
X115306393Y-112625000D01*
X115314607Y-112609808D01*
X115331713Y-112584207D01*
X115342401Y-112558404D01*
X115355794Y-112533634D01*
X115365061Y-112503698D01*
X115376942Y-112475014D01*
X115382339Y-112447881D01*
X115390589Y-112421230D01*
X115393892Y-112389800D01*
X115400000Y-112359095D01*
X115400000Y-112331687D01*
X115402888Y-112304209D01*
X115400000Y-112272474D01*
X115400000Y-112240905D01*
X115394704Y-112214282D01*
X115392224Y-112187027D01*
X115383151Y-112156199D01*
X115376942Y-112124986D01*
X115366654Y-112100149D01*
X115359002Y-112074149D01*
X115343992Y-112045437D01*
X115331713Y-112015793D01*
X115316923Y-111993659D01*
X115304488Y-111969872D01*
X115284017Y-111944412D01*
X115266050Y-111917522D01*
X115247411Y-111898883D01*
X115230758Y-111878171D01*
X115205533Y-111857005D01*
X115182478Y-111833950D01*
X115160772Y-111819447D01*
X115140620Y-111802537D01*
X115111537Y-111786548D01*
X115084207Y-111768287D01*
X115060329Y-111758396D01*
X115037509Y-111745851D01*
X115005617Y-111735734D01*
X114975014Y-111723058D01*
X114949925Y-111718067D01*
X114925351Y-111710272D01*
X114894360Y-111707015D01*
X114859095Y-111700000D01*
X104348528Y-111700000D01*
X101647414Y-108998887D01*
X101630757Y-108978170D01*
X101605525Y-108956998D01*
X101603327Y-108954800D01*
X101583326Y-108938371D01*
X101540619Y-108902536D01*
X101537839Y-108901007D01*
X101535391Y-108898997D01*
X101486328Y-108872689D01*
X101437508Y-108845850D01*
X101434487Y-108844892D01*
X101431692Y-108843393D01*
X101378446Y-108827114D01*
X101325350Y-108810271D01*
X101322308Y-108809951D01*
X101319167Y-108808991D01*
X101202103Y-108797100D01*
X101171437Y-108799999D01*
X99748731Y-108799999D01*
X99722312Y-108797129D01*
X99689510Y-108799999D01*
X99686392Y-108799999D01*
X99660542Y-108802534D01*
X99605094Y-108807385D01*
X99602054Y-108808268D01*
X99598895Y-108808578D01*
X99545502Y-108824698D01*
X99492100Y-108840213D01*
X99489290Y-108841669D01*
X99486251Y-108842587D01*
X99437031Y-108868758D01*
X99387635Y-108894362D01*
X99385261Y-108896284D01*
X99382358Y-108897828D01*
X99291173Y-108972197D01*
X99271536Y-108995934D01*
X98267471Y-110000000D01*
X97540905Y-110000000D01*
X97512240Y-110005702D01*
X97482896Y-110008579D01*
X97454160Y-110017255D01*
X97424986Y-110023058D01*
X97398227Y-110034142D01*
X97370252Y-110042588D01*
X97343516Y-110056804D01*
X97315793Y-110068287D01*
X97291924Y-110084236D01*
X97266359Y-110097829D01*
X97242689Y-110117134D01*
X97217522Y-110133950D01*
X97197406Y-110154066D01*
X97175174Y-110172198D01*
X97155537Y-110195935D01*
X97133950Y-110217522D01*
X97118289Y-110240960D01*
X97100171Y-110262861D01*
X97085393Y-110290192D01*
X97068287Y-110315793D01*
X97057599Y-110341596D01*
X97044206Y-110366366D01*
X97034939Y-110396302D01*
X97023058Y-110424986D01*
X97017661Y-110452119D01*
X97009411Y-110478770D01*
X97006108Y-110510200D01*
X97000000Y-110540905D01*
X97000000Y-110568313D01*
X96997112Y-110595791D01*
X97000000Y-110627526D01*
X97000000Y-110659095D01*
X97005296Y-110685718D01*
X97007776Y-110712973D01*
X97016849Y-110743801D01*
X97023058Y-110775014D01*
X97033346Y-110799851D01*
X97040998Y-110825851D01*
X97056008Y-110854563D01*
X97068287Y-110884207D01*
X97083077Y-110906341D01*
X97095512Y-110930128D01*
X97115983Y-110955588D01*
X97133950Y-110982478D01*
X97152589Y-111001117D01*
X97169242Y-111021829D01*
X97194467Y-111042995D01*
X97217522Y-111066050D01*
X97239228Y-111080553D01*
X97259380Y-111097463D01*
X97288463Y-111113452D01*
X97315793Y-111131713D01*
X97339671Y-111141604D01*
X97362491Y-111154149D01*
X97394383Y-111164266D01*
X97424986Y-111176942D01*
X97450075Y-111181933D01*
X97474649Y-111189728D01*
X97505640Y-111192985D01*
X97540905Y-111200000D01*
X98483266Y-111200000D01*
X98509685Y-111202870D01*
X98542487Y-111200000D01*
X98545605Y-111200000D01*
X98571460Y-111197465D01*
X98626902Y-111192614D01*
X98629942Y-111191731D01*
X98633102Y-111191421D01*
X98686520Y-111175293D01*
X98739896Y-111159786D01*
X98742704Y-111158330D01*
X98745746Y-111157412D01*
X98794984Y-111131232D01*
X98844362Y-111105637D01*
X98846736Y-111103715D01*
X98849639Y-111102171D01*
X98940824Y-111027802D01*
X98960465Y-111004060D01*
X99542522Y-110422004D01*
X99568287Y-110484207D01*
X99633950Y-110582478D01*
X99636895Y-110585423D01*
X98422317Y-111800001D01*
X98166593Y-111800001D01*
X98131713Y-111715793D01*
X98066050Y-111617522D01*
X97982478Y-111533950D01*
X97884207Y-111468287D01*
X97775014Y-111423058D01*
X97659095Y-111400000D01*
X97540905Y-111400000D01*
X97424986Y-111423058D01*
X97315793Y-111468287D01*
X97217522Y-111533950D01*
X97133950Y-111617522D01*
X97068287Y-111715793D01*
X97023058Y-111824986D01*
X97000000Y-111940905D01*
X97000000Y-112059095D01*
X97023058Y-112175014D01*
X97068287Y-112284207D01*
X97133950Y-112382478D01*
X97217522Y-112466050D01*
X97315793Y-112531713D01*
X97424986Y-112576942D01*
X97540905Y-112600000D01*
X97659095Y-112600000D01*
X97707602Y-112590351D01*
X97716434Y-112593153D01*
X97718467Y-112593367D01*
X97720555Y-112594005D01*
X97798598Y-112601933D01*
X97819034Y-112600001D01*
X98566183Y-112600001D01*
X98583792Y-112601914D01*
X98605657Y-112600001D01*
X98607735Y-112600001D01*
X98624949Y-112598313D01*
X98661937Y-112595077D01*
X98663967Y-112594487D01*
X98666071Y-112594281D01*
X98701617Y-112583549D01*
X98737266Y-112573192D01*
X98739143Y-112572219D01*
X98741167Y-112571608D01*
X98773951Y-112554176D01*
X98806910Y-112537092D01*
X98808494Y-112535809D01*
X98810428Y-112534781D01*
X98871218Y-112485202D01*
X98884308Y-112469379D01*
X100367417Y-110986271D01*
X100381219Y-110975174D01*
X100395325Y-110958363D01*
X100396796Y-110956892D01*
X100407775Y-110943526D01*
X100431642Y-110915082D01*
X100432661Y-110913228D01*
X100434001Y-110911597D01*
X100451521Y-110878923D01*
X100469433Y-110846341D01*
X100470073Y-110844323D01*
X100471070Y-110842464D01*
X100481897Y-110807048D01*
X100493152Y-110771569D01*
X100493366Y-110769536D01*
X100494004Y-110767448D01*
X100501931Y-110689406D01*
X100500000Y-110668977D01*
X100500000Y-110648528D01*
X100566050Y-110582478D01*
X100631713Y-110484207D01*
X100676942Y-110375014D01*
X100700000Y-110259095D01*
X100700000Y-110140905D01*
X100676942Y-110024986D01*
X100666592Y-109999999D01*
X100951472Y-109999999D01*
X103576472Y-112625000D01*
X92655331Y-112625000D01*
X91779631Y-111749302D01*
X91769223Y-111736357D01*
X91753456Y-111723127D01*
X91752082Y-111721753D01*
X91739569Y-111711475D01*
X91712887Y-111689086D01*
X91711151Y-111688132D01*
X91709620Y-111686874D01*
X91678982Y-111670446D01*
X91648443Y-111653657D01*
X91646550Y-111653056D01*
X91644807Y-111652122D01*
X91611621Y-111641976D01*
X91578344Y-111631420D01*
X91576437Y-111631220D01*
X91574479Y-111630621D01*
X91501315Y-111623189D01*
X91482155Y-111625000D01*
X79018337Y-111625000D01*
X78878956Y-111611333D01*
X78762515Y-111576178D01*
X78655124Y-111519077D01*
X78560872Y-111442207D01*
X78483341Y-111348488D01*
X78425492Y-111241498D01*
X78389528Y-111125316D01*
X78375000Y-110987096D01*
X78375000Y-107795791D01*
X91897112Y-107795791D01*
X91900000Y-107827526D01*
X91900000Y-107859095D01*
X91905296Y-107885718D01*
X91907776Y-107912973D01*
X91916847Y-107943792D01*
X91923058Y-107975014D01*
X91933346Y-107999851D01*
X91940998Y-108025851D01*
X91956008Y-108054563D01*
X91968287Y-108084207D01*
X91983077Y-108106341D01*
X91995512Y-108130128D01*
X92015983Y-108155588D01*
X92033950Y-108182478D01*
X92052589Y-108201117D01*
X92069242Y-108221829D01*
X92094467Y-108242995D01*
X92117522Y-108266050D01*
X92139228Y-108280553D01*
X92159380Y-108297463D01*
X92188463Y-108313452D01*
X92215793Y-108331713D01*
X92239671Y-108341604D01*
X92262491Y-108354149D01*
X92294383Y-108364266D01*
X92324986Y-108376942D01*
X92350075Y-108381933D01*
X92374649Y-108389728D01*
X92405640Y-108392985D01*
X92440905Y-108400000D01*
X95167268Y-108400000D01*
X95193687Y-108402870D01*
X95194748Y-108402777D01*
X95195793Y-108402887D01*
X95227517Y-108400000D01*
X95959095Y-108400000D01*
X95987760Y-108394298D01*
X96017104Y-108391421D01*
X96045840Y-108382745D01*
X96075014Y-108376942D01*
X96101773Y-108365858D01*
X96129748Y-108357412D01*
X96156484Y-108343196D01*
X96184207Y-108331713D01*
X96208076Y-108315764D01*
X96233641Y-108302171D01*
X96257311Y-108282866D01*
X96282478Y-108266050D01*
X96302594Y-108245934D01*
X96324826Y-108227802D01*
X96344463Y-108204065D01*
X96366050Y-108182478D01*
X96381711Y-108159040D01*
X96399829Y-108137139D01*
X96414607Y-108109808D01*
X96431713Y-108084207D01*
X96442401Y-108058404D01*
X96455794Y-108033634D01*
X96465061Y-108003698D01*
X96476942Y-107975014D01*
X96482339Y-107947881D01*
X96490589Y-107921230D01*
X96493892Y-107889800D01*
X96500000Y-107859095D01*
X96500000Y-107831687D01*
X96502888Y-107804209D01*
X96500000Y-107772474D01*
X96500000Y-107740905D01*
X96494704Y-107714282D01*
X96492224Y-107687027D01*
X96483151Y-107656199D01*
X96476942Y-107624986D01*
X96466654Y-107600149D01*
X96459002Y-107574149D01*
X96443992Y-107545437D01*
X96431713Y-107515793D01*
X96418347Y-107495789D01*
X97297112Y-107495789D01*
X97300000Y-107527524D01*
X97300000Y-107559093D01*
X97305296Y-107585716D01*
X97307776Y-107612971D01*
X97316849Y-107643799D01*
X97323058Y-107675012D01*
X97333346Y-107699849D01*
X97340998Y-107725849D01*
X97356008Y-107754561D01*
X97368287Y-107784205D01*
X97383077Y-107806339D01*
X97395512Y-107830126D01*
X97415983Y-107855586D01*
X97433950Y-107882476D01*
X97452589Y-107901115D01*
X97469242Y-107921827D01*
X97494467Y-107942993D01*
X97517522Y-107966048D01*
X97539228Y-107980551D01*
X97559380Y-107997461D01*
X97588463Y-108013450D01*
X97615793Y-108031711D01*
X97639671Y-108041602D01*
X97662491Y-108054147D01*
X97694383Y-108064264D01*
X97724986Y-108076940D01*
X97750075Y-108081931D01*
X97774649Y-108089726D01*
X97805640Y-108092983D01*
X97840905Y-108099998D01*
X98568314Y-108099998D01*
X98595792Y-108102886D01*
X98627527Y-108099998D01*
X103775735Y-108099998D01*
X106300000Y-110624264D01*
X106300000Y-110859095D01*
X106305702Y-110887760D01*
X106308579Y-110917104D01*
X106317255Y-110945840D01*
X106323058Y-110975014D01*
X106334142Y-111001773D01*
X106342588Y-111029748D01*
X106356803Y-111056482D01*
X106368287Y-111084207D01*
X106384239Y-111108081D01*
X106397830Y-111133641D01*
X106417129Y-111157304D01*
X106433950Y-111182478D01*
X106454071Y-111202599D01*
X106472199Y-111224826D01*
X106495930Y-111244458D01*
X106517522Y-111266050D01*
X106540965Y-111281714D01*
X106562862Y-111299829D01*
X106590188Y-111314604D01*
X106615793Y-111331713D01*
X106641600Y-111342403D01*
X106666367Y-111355794D01*
X106696299Y-111365060D01*
X106724986Y-111376942D01*
X106752122Y-111382340D01*
X106778771Y-111390589D01*
X106810199Y-111393892D01*
X106840905Y-111400000D01*
X106868314Y-111400000D01*
X106895792Y-111402888D01*
X106927527Y-111400000D01*
X106959095Y-111400000D01*
X106985718Y-111394704D01*
X107012973Y-111392224D01*
X107043801Y-111383151D01*
X107075014Y-111376942D01*
X107099851Y-111366654D01*
X107125851Y-111359002D01*
X107154563Y-111343992D01*
X107184207Y-111331713D01*
X107206341Y-111316923D01*
X107230128Y-111304488D01*
X107255588Y-111284017D01*
X107282478Y-111266050D01*
X107301117Y-111247411D01*
X107321829Y-111230758D01*
X107342995Y-111205533D01*
X107366050Y-111182478D01*
X107380553Y-111160772D01*
X107381200Y-111160000D01*
X115700000Y-111160000D01*
X115700000Y-111909547D01*
X115711529Y-111967506D01*
X115734143Y-112022103D01*
X115766975Y-112071239D01*
X115808761Y-112113025D01*
X115857896Y-112145856D01*
X115912493Y-112168471D01*
X115970452Y-112180000D01*
X117170000Y-112180000D01*
X117245000Y-112105000D01*
X117245000Y-111085000D01*
X117255000Y-111085000D01*
X117255000Y-112105000D01*
X117330000Y-112180000D01*
X118529548Y-112180000D01*
X118587507Y-112168471D01*
X118642104Y-112145856D01*
X118691239Y-112113025D01*
X118733025Y-112071239D01*
X118765857Y-112022103D01*
X118788471Y-111967506D01*
X118800000Y-111909547D01*
X118800000Y-111160000D01*
X118725000Y-111085000D01*
X117255000Y-111085000D01*
X117245000Y-111085000D01*
X115775000Y-111085000D01*
X115700000Y-111160000D01*
X107381200Y-111160000D01*
X107397463Y-111140620D01*
X107413452Y-111111537D01*
X107431713Y-111084207D01*
X107441604Y-111060329D01*
X107454149Y-111037509D01*
X107464266Y-111005617D01*
X107476942Y-110975014D01*
X107481933Y-110949925D01*
X107489728Y-110925351D01*
X107492985Y-110894360D01*
X107500000Y-110859095D01*
X107500000Y-110408460D01*
X107502869Y-110382049D01*
X107500000Y-110349255D01*
X107500000Y-110346129D01*
X107497461Y-110320234D01*
X107492614Y-110264831D01*
X107491731Y-110261791D01*
X107491421Y-110258632D01*
X107488952Y-110250453D01*
X115700000Y-110250453D01*
X115700000Y-111000000D01*
X115775000Y-111075000D01*
X117245000Y-111075000D01*
X117245000Y-110055000D01*
X117255000Y-110055000D01*
X117255000Y-111075000D01*
X118725000Y-111075000D01*
X118800000Y-111000000D01*
X118800000Y-110250453D01*
X118788471Y-110192494D01*
X118765857Y-110137897D01*
X118733025Y-110088761D01*
X118691239Y-110046975D01*
X118642104Y-110014144D01*
X118587507Y-109991529D01*
X118529548Y-109980000D01*
X117330000Y-109980000D01*
X117255000Y-110055000D01*
X117245000Y-110055000D01*
X117170000Y-109980000D01*
X115970452Y-109980000D01*
X115912493Y-109991529D01*
X115857896Y-110014144D01*
X115808761Y-110046975D01*
X115766975Y-110088761D01*
X115734143Y-110137897D01*
X115711529Y-110192494D01*
X115700000Y-110250453D01*
X107488952Y-110250453D01*
X107475301Y-110205239D01*
X107459786Y-110151837D01*
X107458330Y-110149027D01*
X107457412Y-110145988D01*
X107431252Y-110096789D01*
X107405637Y-110047371D01*
X107403713Y-110044995D01*
X107402171Y-110042095D01*
X107327802Y-109950910D01*
X107304066Y-109931274D01*
X106689432Y-109316640D01*
X114475735Y-109316640D01*
X114475735Y-109434830D01*
X114498793Y-109550749D01*
X114544022Y-109659942D01*
X114609685Y-109758213D01*
X114693257Y-109841785D01*
X114791528Y-109907448D01*
X114900721Y-109952677D01*
X115016640Y-109975735D01*
X115134830Y-109975735D01*
X115250749Y-109952677D01*
X115359942Y-109907448D01*
X115458213Y-109841785D01*
X115524263Y-109775735D01*
X115902447Y-109775735D01*
X115920056Y-109777648D01*
X115941921Y-109775735D01*
X115943999Y-109775735D01*
X115961213Y-109774047D01*
X115998201Y-109770811D01*
X116000231Y-109770221D01*
X116002335Y-109770015D01*
X116037881Y-109759283D01*
X116073530Y-109748926D01*
X116075407Y-109747953D01*
X116077431Y-109747342D01*
X116110215Y-109729910D01*
X116143174Y-109712826D01*
X116144758Y-109711543D01*
X116146692Y-109710515D01*
X116207482Y-109660936D01*
X116220572Y-109645113D01*
X116243634Y-109622051D01*
X116263154Y-109627973D01*
X116400000Y-109641451D01*
X118100000Y-109641451D01*
X118236846Y-109627973D01*
X118368434Y-109588056D01*
X118489705Y-109523235D01*
X118596001Y-109436001D01*
X118683235Y-109329705D01*
X118748056Y-109208434D01*
X118787973Y-109076846D01*
X118801451Y-108940000D01*
X118801451Y-108140000D01*
X118787973Y-108003154D01*
X118748056Y-107871566D01*
X118683235Y-107750295D01*
X118596001Y-107643999D01*
X118489705Y-107556765D01*
X118368434Y-107491944D01*
X118236846Y-107452027D01*
X118100000Y-107438549D01*
X116400000Y-107438549D01*
X116263154Y-107452027D01*
X116131566Y-107491944D01*
X116010295Y-107556765D01*
X115903999Y-107643999D01*
X115816765Y-107750295D01*
X115751944Y-107871566D01*
X115712027Y-108003154D01*
X115698549Y-108140000D01*
X115698549Y-108940000D01*
X115702069Y-108975735D01*
X115524263Y-108975735D01*
X115458213Y-108909685D01*
X115359942Y-108844022D01*
X115250749Y-108798793D01*
X115134830Y-108775735D01*
X115016640Y-108775735D01*
X114900721Y-108798793D01*
X114791528Y-108844022D01*
X114693257Y-108909685D01*
X114609685Y-108993257D01*
X114544022Y-109091528D01*
X114498793Y-109200721D01*
X114475735Y-109316640D01*
X106689432Y-109316640D01*
X104524264Y-107151473D01*
X104524264Y-107140905D01*
X114100000Y-107140905D01*
X114100000Y-107259095D01*
X114123058Y-107375014D01*
X114168287Y-107484207D01*
X114233950Y-107582478D01*
X114317522Y-107666050D01*
X114415793Y-107731713D01*
X114524986Y-107776942D01*
X114640905Y-107800000D01*
X114759095Y-107800000D01*
X114875014Y-107776942D01*
X114984207Y-107731713D01*
X115082478Y-107666050D01*
X115148528Y-107600000D01*
X115578182Y-107600000D01*
X115595791Y-107601913D01*
X115617656Y-107600000D01*
X115619734Y-107600000D01*
X115636948Y-107598312D01*
X115673936Y-107595076D01*
X115675966Y-107594486D01*
X115678070Y-107594280D01*
X115713616Y-107583548D01*
X115749265Y-107573191D01*
X115751142Y-107572218D01*
X115753166Y-107571607D01*
X115785950Y-107554175D01*
X115818909Y-107537091D01*
X115820493Y-107535808D01*
X115822427Y-107534780D01*
X115883217Y-107485201D01*
X115896307Y-107469378D01*
X116276407Y-107089278D01*
X116400000Y-107101451D01*
X118100000Y-107101451D01*
X118236846Y-107087973D01*
X118368434Y-107048056D01*
X118489705Y-106983235D01*
X118596001Y-106896001D01*
X118683235Y-106789705D01*
X118748056Y-106668434D01*
X118787973Y-106536846D01*
X118801451Y-106400000D01*
X118801451Y-105600000D01*
X118787973Y-105463154D01*
X118748056Y-105331566D01*
X118683235Y-105210295D01*
X118596001Y-105103999D01*
X118489705Y-105016765D01*
X118368434Y-104951944D01*
X118236846Y-104912027D01*
X118100000Y-104898549D01*
X116400000Y-104898549D01*
X116263154Y-104912027D01*
X116131566Y-104951944D01*
X116010295Y-105016765D01*
X115903999Y-105103999D01*
X115816765Y-105210295D01*
X115751944Y-105331566D01*
X115712027Y-105463154D01*
X115698549Y-105600000D01*
X115698549Y-106400000D01*
X115710722Y-106523594D01*
X115434316Y-106800000D01*
X115148528Y-106800000D01*
X115082478Y-106733950D01*
X114984207Y-106668287D01*
X114875014Y-106623058D01*
X114759095Y-106600000D01*
X114640905Y-106600000D01*
X114524986Y-106623058D01*
X114415793Y-106668287D01*
X114317522Y-106733950D01*
X114233950Y-106817522D01*
X114168287Y-106915793D01*
X114123058Y-107024986D01*
X114100000Y-107140905D01*
X104524264Y-107140905D01*
X104524264Y-106648527D01*
X106606151Y-104566640D01*
X114225735Y-104566640D01*
X114225735Y-104684830D01*
X114248793Y-104800749D01*
X114294022Y-104909942D01*
X114359685Y-105008213D01*
X114443257Y-105091785D01*
X114541528Y-105157448D01*
X114650721Y-105202677D01*
X114766640Y-105225735D01*
X114884830Y-105225735D01*
X115000749Y-105202677D01*
X115109942Y-105157448D01*
X115208213Y-105091785D01*
X115274263Y-105025735D01*
X115652447Y-105025735D01*
X115670056Y-105027648D01*
X115691921Y-105025735D01*
X115693999Y-105025735D01*
X115711213Y-105024047D01*
X115748201Y-105020811D01*
X115750231Y-105020221D01*
X115752335Y-105020015D01*
X115787881Y-105009283D01*
X115823530Y-104998926D01*
X115825407Y-104997953D01*
X115827431Y-104997342D01*
X115860215Y-104979910D01*
X115893174Y-104962826D01*
X115894758Y-104961543D01*
X115896692Y-104960515D01*
X115957482Y-104910936D01*
X115970572Y-104895113D01*
X116312820Y-104552865D01*
X116400000Y-104561451D01*
X118100000Y-104561451D01*
X118236846Y-104547973D01*
X118368434Y-104508056D01*
X118489705Y-104443235D01*
X118596001Y-104356001D01*
X118683235Y-104249705D01*
X118748056Y-104128434D01*
X118787973Y-103996846D01*
X118801451Y-103860000D01*
X118801451Y-103060000D01*
X118787973Y-102923154D01*
X118748056Y-102791566D01*
X118683235Y-102670295D01*
X118596001Y-102563999D01*
X118489705Y-102476765D01*
X118368434Y-102411944D01*
X118236846Y-102372027D01*
X118100000Y-102358549D01*
X116400000Y-102358549D01*
X116263154Y-102372027D01*
X116131566Y-102411944D01*
X116010295Y-102476765D01*
X115903999Y-102563999D01*
X115816765Y-102670295D01*
X115751944Y-102791566D01*
X115712027Y-102923154D01*
X115698549Y-103060000D01*
X115698549Y-103860000D01*
X115712027Y-103996846D01*
X115717949Y-104016367D01*
X115508581Y-104225735D01*
X115274263Y-104225735D01*
X115208213Y-104159685D01*
X115109942Y-104094022D01*
X115000749Y-104048793D01*
X114884830Y-104025735D01*
X114766640Y-104025735D01*
X114650721Y-104048793D01*
X114541528Y-104094022D01*
X114443257Y-104159685D01*
X114359685Y-104243257D01*
X114294022Y-104341528D01*
X114248793Y-104450721D01*
X114225735Y-104566640D01*
X106606151Y-104566640D01*
X107701117Y-103471675D01*
X107721829Y-103455022D01*
X107742995Y-103429797D01*
X107745199Y-103427593D01*
X107761681Y-103407528D01*
X107797463Y-103364884D01*
X107798988Y-103362110D01*
X107801003Y-103359657D01*
X107827353Y-103310514D01*
X107854149Y-103261773D01*
X107855107Y-103258754D01*
X107856606Y-103255958D01*
X107872893Y-103202684D01*
X107889728Y-103149615D01*
X107890048Y-103146574D01*
X107891008Y-103143433D01*
X107902899Y-103026369D01*
X107900000Y-102995700D01*
X107900000Y-102540905D01*
X107894298Y-102512240D01*
X107891421Y-102482896D01*
X107882745Y-102454160D01*
X107876942Y-102424986D01*
X107865858Y-102398227D01*
X107857412Y-102370252D01*
X107843196Y-102343516D01*
X107831713Y-102315793D01*
X107815764Y-102291924D01*
X107802171Y-102266359D01*
X107782866Y-102242689D01*
X107766050Y-102217522D01*
X107745934Y-102197406D01*
X107727802Y-102175174D01*
X107704066Y-102155538D01*
X107682478Y-102133950D01*
X107659036Y-102118287D01*
X107637138Y-102100171D01*
X107609812Y-102085396D01*
X107584207Y-102068287D01*
X107558400Y-102057597D01*
X107533633Y-102044206D01*
X107503701Y-102034940D01*
X107475014Y-102023058D01*
X107447878Y-102017660D01*
X107421229Y-102009411D01*
X107389801Y-102006108D01*
X107359095Y-102000000D01*
X107331686Y-102000000D01*
X107304208Y-101997112D01*
X107272473Y-102000000D01*
X107240905Y-102000000D01*
X107214282Y-102005296D01*
X107187027Y-102007776D01*
X107156199Y-102016849D01*
X107124986Y-102023058D01*
X107100149Y-102033346D01*
X107074149Y-102040998D01*
X107045437Y-102056008D01*
X107015793Y-102068287D01*
X106993659Y-102083077D01*
X106969872Y-102095512D01*
X106944412Y-102115983D01*
X106917522Y-102133950D01*
X106898883Y-102152589D01*
X106878171Y-102169242D01*
X106857006Y-102194466D01*
X106833950Y-102217522D01*
X106819444Y-102239231D01*
X106802537Y-102259381D01*
X106786551Y-102288459D01*
X106768287Y-102315793D01*
X106758395Y-102339675D01*
X106745851Y-102362492D01*
X106735736Y-102394379D01*
X106723058Y-102424986D01*
X106718067Y-102450078D01*
X106710272Y-102474650D01*
X106707015Y-102505639D01*
X106700000Y-102540905D01*
X106700000Y-102775736D01*
X103523152Y-105952585D01*
X103502435Y-105969242D01*
X103481265Y-105994472D01*
X103479065Y-105996672D01*
X103462616Y-106016698D01*
X103426801Y-106059381D01*
X103425274Y-106062158D01*
X103423262Y-106064608D01*
X103396932Y-106113712D01*
X103370115Y-106162492D01*
X103369157Y-106165511D01*
X103367658Y-106168307D01*
X103351371Y-106221581D01*
X103334536Y-106274650D01*
X103334216Y-106277691D01*
X103333256Y-106280832D01*
X103321365Y-106397896D01*
X103324264Y-106428563D01*
X103324264Y-106899998D01*
X99200000Y-106899998D01*
X99200000Y-105240905D01*
X99194298Y-105212240D01*
X99191421Y-105182896D01*
X99182745Y-105154160D01*
X99176942Y-105124986D01*
X99165858Y-105098227D01*
X99157412Y-105070252D01*
X99143196Y-105043516D01*
X99131713Y-105015793D01*
X99115764Y-104991924D01*
X99102171Y-104966359D01*
X99082866Y-104942689D01*
X99066050Y-104917522D01*
X99045934Y-104897406D01*
X99027802Y-104875174D01*
X99004066Y-104855538D01*
X98982478Y-104833950D01*
X98959036Y-104818287D01*
X98937138Y-104800171D01*
X98909812Y-104785396D01*
X98884207Y-104768287D01*
X98858400Y-104757597D01*
X98833633Y-104744206D01*
X98803701Y-104734940D01*
X98775014Y-104723058D01*
X98747878Y-104717660D01*
X98721229Y-104709411D01*
X98689801Y-104706108D01*
X98659095Y-104700000D01*
X98631686Y-104700000D01*
X98604208Y-104697112D01*
X98572473Y-104700000D01*
X98540905Y-104700000D01*
X98514282Y-104705296D01*
X98487027Y-104707776D01*
X98456199Y-104716849D01*
X98424986Y-104723058D01*
X98400149Y-104733346D01*
X98374149Y-104740998D01*
X98345437Y-104756008D01*
X98315793Y-104768287D01*
X98293659Y-104783077D01*
X98269872Y-104795512D01*
X98244412Y-104815983D01*
X98217522Y-104833950D01*
X98198883Y-104852589D01*
X98178171Y-104869242D01*
X98157006Y-104894466D01*
X98133950Y-104917522D01*
X98119444Y-104939231D01*
X98102537Y-104959381D01*
X98086551Y-104988459D01*
X98068287Y-105015793D01*
X98058395Y-105039675D01*
X98045851Y-105062492D01*
X98035736Y-105094379D01*
X98023058Y-105124986D01*
X98018067Y-105150078D01*
X98010272Y-105174650D01*
X98007015Y-105205639D01*
X98000000Y-105240905D01*
X98000000Y-105272381D01*
X98000001Y-106899998D01*
X97840905Y-106899998D01*
X97812240Y-106905700D01*
X97782896Y-106908577D01*
X97754160Y-106917253D01*
X97724986Y-106923056D01*
X97698227Y-106934140D01*
X97670252Y-106942586D01*
X97643516Y-106956802D01*
X97615793Y-106968285D01*
X97591924Y-106984234D01*
X97566359Y-106997827D01*
X97542689Y-107017132D01*
X97517522Y-107033948D01*
X97497406Y-107054064D01*
X97475174Y-107072196D01*
X97455537Y-107095933D01*
X97433950Y-107117520D01*
X97418289Y-107140958D01*
X97400171Y-107162859D01*
X97385393Y-107190190D01*
X97368287Y-107215791D01*
X97357599Y-107241594D01*
X97344206Y-107266364D01*
X97334939Y-107296300D01*
X97323058Y-107324984D01*
X97317661Y-107352117D01*
X97309411Y-107378768D01*
X97306108Y-107410198D01*
X97300000Y-107440903D01*
X97300000Y-107468311D01*
X97297112Y-107495789D01*
X96418347Y-107495789D01*
X96416923Y-107493659D01*
X96404488Y-107469872D01*
X96384017Y-107444412D01*
X96366050Y-107417522D01*
X96347411Y-107398883D01*
X96330758Y-107378171D01*
X96305533Y-107357005D01*
X96282478Y-107333950D01*
X96260772Y-107319447D01*
X96240620Y-107302537D01*
X96211537Y-107286548D01*
X96184207Y-107268287D01*
X96160329Y-107258396D01*
X96137509Y-107245851D01*
X96105617Y-107235734D01*
X96075014Y-107223058D01*
X96049925Y-107218067D01*
X96025351Y-107210272D01*
X95994360Y-107207015D01*
X95959095Y-107200000D01*
X95800001Y-107200000D01*
X95800001Y-104595782D01*
X95933351Y-104569257D01*
X96078942Y-104508951D01*
X96209970Y-104421401D01*
X96321401Y-104309970D01*
X96408951Y-104178942D01*
X96469257Y-104033351D01*
X96500000Y-103878793D01*
X96500000Y-103721207D01*
X96469257Y-103566649D01*
X96408951Y-103421058D01*
X96321401Y-103290030D01*
X96209970Y-103178599D01*
X96078942Y-103091049D01*
X95933351Y-103030743D01*
X95778793Y-103000000D01*
X95621207Y-103000000D01*
X95466649Y-103030743D01*
X95321058Y-103091049D01*
X95190030Y-103178599D01*
X95078599Y-103290030D01*
X94991049Y-103421058D01*
X94930743Y-103566649D01*
X94900000Y-103721207D01*
X94900000Y-103751472D01*
X94798888Y-103852585D01*
X94778172Y-103869241D01*
X94757002Y-103894471D01*
X94754802Y-103896671D01*
X94738353Y-103916697D01*
X94702538Y-103959380D01*
X94701011Y-103962157D01*
X94698999Y-103964607D01*
X94672669Y-104013711D01*
X94645852Y-104062491D01*
X94644894Y-104065510D01*
X94643395Y-104068306D01*
X94627108Y-104121580D01*
X94610273Y-104174649D01*
X94609953Y-104177690D01*
X94608993Y-104180831D01*
X94597102Y-104297895D01*
X94600001Y-104328561D01*
X94600002Y-107200000D01*
X92440905Y-107200000D01*
X92412240Y-107205702D01*
X92382896Y-107208579D01*
X92354160Y-107217255D01*
X92324986Y-107223058D01*
X92298227Y-107234142D01*
X92270252Y-107242588D01*
X92243516Y-107256804D01*
X92215793Y-107268287D01*
X92191924Y-107284236D01*
X92166359Y-107297829D01*
X92142689Y-107317134D01*
X92117522Y-107333950D01*
X92097406Y-107354066D01*
X92075174Y-107372198D01*
X92055537Y-107395935D01*
X92033950Y-107417522D01*
X92018289Y-107440960D01*
X92000171Y-107462861D01*
X91985393Y-107490192D01*
X91968287Y-107515793D01*
X91957599Y-107541596D01*
X91944206Y-107566366D01*
X91934939Y-107596302D01*
X91923058Y-107624986D01*
X91917661Y-107652119D01*
X91909411Y-107678770D01*
X91906108Y-107710200D01*
X91900000Y-107740905D01*
X91900000Y-107768313D01*
X91897112Y-107795791D01*
X78375000Y-107795791D01*
X78375000Y-102440905D01*
X91000014Y-102440905D01*
X91000014Y-102559095D01*
X91023072Y-102675014D01*
X91068301Y-102784207D01*
X91133964Y-102882478D01*
X91217536Y-102966050D01*
X91315807Y-103031713D01*
X91425000Y-103076942D01*
X91540919Y-103100000D01*
X91659109Y-103100000D01*
X91775028Y-103076942D01*
X91884221Y-103031713D01*
X91982492Y-102966050D01*
X92048542Y-102900000D01*
X92951450Y-102900000D01*
X93017500Y-102966050D01*
X93115771Y-103031713D01*
X93224964Y-103076942D01*
X93340883Y-103100000D01*
X93459073Y-103100000D01*
X93574992Y-103076942D01*
X93684185Y-103031713D01*
X93782456Y-102966050D01*
X93866028Y-102882478D01*
X93931691Y-102784207D01*
X93976920Y-102675014D01*
X93999978Y-102559095D01*
X93999978Y-102440905D01*
X93976920Y-102324986D01*
X93974405Y-102318913D01*
X95188158Y-102318913D01*
X95231551Y-102453271D01*
X95367999Y-102532109D01*
X95517206Y-102582811D01*
X95673438Y-102603431D01*
X95830690Y-102593175D01*
X95982919Y-102552438D01*
X96124276Y-102482786D01*
X96168449Y-102453271D01*
X96211842Y-102318913D01*
X95700000Y-101807071D01*
X95188158Y-102318913D01*
X93974405Y-102318913D01*
X93931691Y-102215793D01*
X93866028Y-102117522D01*
X93782456Y-102033950D01*
X93684185Y-101968287D01*
X93574992Y-101923058D01*
X93459073Y-101900000D01*
X93340883Y-101900000D01*
X93224964Y-101923058D01*
X93115771Y-101968287D01*
X93017500Y-102033950D01*
X92951450Y-102100000D01*
X92048542Y-102100000D01*
X91982492Y-102033950D01*
X91884221Y-101968287D01*
X91775028Y-101923058D01*
X91659109Y-101900000D01*
X91540919Y-101900000D01*
X91425000Y-101923058D01*
X91315807Y-101968287D01*
X91217536Y-102033950D01*
X91133964Y-102117522D01*
X91068301Y-102215793D01*
X91023072Y-102324986D01*
X91000014Y-102440905D01*
X78375000Y-102440905D01*
X78375000Y-101773438D01*
X94896569Y-101773438D01*
X94906825Y-101930690D01*
X94947562Y-102082919D01*
X95017214Y-102224276D01*
X95046729Y-102268449D01*
X95181087Y-102311842D01*
X95692929Y-101800000D01*
X95707071Y-101800000D01*
X96218913Y-102311842D01*
X96353271Y-102268449D01*
X96432109Y-102132001D01*
X96482811Y-101982794D01*
X96503431Y-101826562D01*
X96496560Y-101721207D01*
X96900000Y-101721207D01*
X96900000Y-101878793D01*
X96930743Y-102033351D01*
X96991049Y-102178942D01*
X97078599Y-102309970D01*
X97190030Y-102421401D01*
X97321058Y-102508951D01*
X97466649Y-102569257D01*
X97621207Y-102600000D01*
X97778793Y-102600000D01*
X97933351Y-102569257D01*
X98078942Y-102508951D01*
X98209970Y-102421401D01*
X98321401Y-102309970D01*
X98394231Y-102200972D01*
X98402897Y-102201913D01*
X98424762Y-102200000D01*
X98426840Y-102200000D01*
X98444054Y-102198312D01*
X98481042Y-102195076D01*
X98483072Y-102194486D01*
X98485176Y-102194280D01*
X98520722Y-102183548D01*
X98556371Y-102173191D01*
X98558248Y-102172218D01*
X98560272Y-102171607D01*
X98593056Y-102154175D01*
X98626015Y-102137091D01*
X98627599Y-102135808D01*
X98629533Y-102134780D01*
X98690323Y-102085201D01*
X98703412Y-102069379D01*
X98872791Y-101900001D01*
X99200000Y-101900001D01*
X99133214Y-101966787D01*
X99067551Y-102065058D01*
X99022322Y-102174251D01*
X98999264Y-102290170D01*
X98999264Y-102383580D01*
X98206539Y-103176306D01*
X98078942Y-103091049D01*
X97933351Y-103030743D01*
X97778793Y-103000000D01*
X97621207Y-103000000D01*
X97466649Y-103030743D01*
X97321058Y-103091049D01*
X97190030Y-103178599D01*
X97078599Y-103290030D01*
X96991049Y-103421058D01*
X96930743Y-103566649D01*
X96900000Y-103721207D01*
X96900000Y-103878793D01*
X96930743Y-104033351D01*
X96991049Y-104178942D01*
X97078599Y-104309970D01*
X97190030Y-104421401D01*
X97321058Y-104508951D01*
X97466649Y-104569257D01*
X97621207Y-104600000D01*
X97778793Y-104600000D01*
X97933351Y-104569257D01*
X98078942Y-104508951D01*
X98209970Y-104421401D01*
X98321401Y-104309970D01*
X98408951Y-104178942D01*
X98469257Y-104033351D01*
X98480207Y-103978300D01*
X98497795Y-103973190D01*
X98499672Y-103972217D01*
X98501696Y-103971606D01*
X98534480Y-103954174D01*
X98567439Y-103937090D01*
X98569023Y-103935807D01*
X98570957Y-103934779D01*
X98631747Y-103885200D01*
X98644837Y-103869377D01*
X99564949Y-102949265D01*
X99658359Y-102949265D01*
X99774278Y-102926207D01*
X99883471Y-102880978D01*
X99981742Y-102815315D01*
X100065314Y-102731743D01*
X100130977Y-102633472D01*
X100176206Y-102524279D01*
X100199264Y-102408360D01*
X100199264Y-102290170D01*
X100176206Y-102174251D01*
X100130977Y-102065058D01*
X100065314Y-101966787D01*
X99998528Y-101900001D01*
X100578185Y-101900001D01*
X100595794Y-101901914D01*
X100617659Y-101900001D01*
X100619737Y-101900001D01*
X100636951Y-101898313D01*
X100673939Y-101895077D01*
X100675969Y-101894487D01*
X100678073Y-101894281D01*
X100713619Y-101883549D01*
X100749268Y-101873192D01*
X100751145Y-101872219D01*
X100753169Y-101871608D01*
X100785953Y-101854176D01*
X100818912Y-101837092D01*
X100820496Y-101835809D01*
X100822430Y-101834781D01*
X100883220Y-101785202D01*
X100896309Y-101769380D01*
X101065685Y-101600004D01*
X101159095Y-101600004D01*
X101275014Y-101576946D01*
X101384207Y-101531717D01*
X101482478Y-101466054D01*
X101566050Y-101382482D01*
X101631713Y-101284211D01*
X101676942Y-101175018D01*
X101700000Y-101059099D01*
X101700000Y-100940909D01*
X101676942Y-100824990D01*
X101631713Y-100715797D01*
X101566050Y-100617526D01*
X101482478Y-100533954D01*
X101384207Y-100468291D01*
X101275014Y-100423062D01*
X101159095Y-100400004D01*
X101040905Y-100400004D01*
X100924986Y-100423062D01*
X100815793Y-100468291D01*
X100717522Y-100533954D01*
X100633950Y-100617526D01*
X100568287Y-100715797D01*
X100523058Y-100824990D01*
X100500000Y-100940909D01*
X100500000Y-101034320D01*
X100434319Y-101100001D01*
X98728923Y-101100001D01*
X98711314Y-101098088D01*
X98689449Y-101100001D01*
X98687371Y-101100001D01*
X98670162Y-101101688D01*
X98633168Y-101104925D01*
X98631138Y-101105515D01*
X98629035Y-101105721D01*
X98593515Y-101116445D01*
X98557839Y-101126810D01*
X98555961Y-101127784D01*
X98553939Y-101128394D01*
X98521194Y-101145805D01*
X98488195Y-101162910D01*
X98486609Y-101164194D01*
X98484678Y-101165221D01*
X98423888Y-101214800D01*
X98410798Y-101230623D01*
X98333413Y-101308008D01*
X98321401Y-101290030D01*
X98209970Y-101178599D01*
X98078942Y-101091049D01*
X97933351Y-101030743D01*
X97778793Y-101000000D01*
X97621207Y-101000000D01*
X97466649Y-101030743D01*
X97321058Y-101091049D01*
X97190030Y-101178599D01*
X97078599Y-101290030D01*
X96991049Y-101421058D01*
X96930743Y-101566649D01*
X96900000Y-101721207D01*
X96496560Y-101721207D01*
X96493175Y-101669310D01*
X96452438Y-101517081D01*
X96382786Y-101375724D01*
X96353271Y-101331551D01*
X96218913Y-101288158D01*
X95707071Y-101800000D01*
X95692929Y-101800000D01*
X95181087Y-101288158D01*
X95046729Y-101331551D01*
X94967891Y-101467999D01*
X94917189Y-101617206D01*
X94896569Y-101773438D01*
X78375000Y-101773438D01*
X78375000Y-101281087D01*
X95188158Y-101281087D01*
X95700000Y-101792929D01*
X96211842Y-101281087D01*
X96168449Y-101146729D01*
X96032001Y-101067891D01*
X95882794Y-101017189D01*
X95726562Y-100996569D01*
X95569310Y-101006825D01*
X95417081Y-101047562D01*
X95275724Y-101117214D01*
X95231551Y-101146729D01*
X95188158Y-101281087D01*
X78375000Y-101281087D01*
X78375000Y-101018338D01*
X78388667Y-100878955D01*
X78423821Y-100762517D01*
X78480923Y-100655124D01*
X78557793Y-100560872D01*
X78651508Y-100483343D01*
X78758501Y-100425493D01*
X78874688Y-100389528D01*
X79012904Y-100375000D01*
X91479551Y-100375000D01*
X91496055Y-100376793D01*
X91516547Y-100375000D01*
X91518501Y-100375000D01*
X91534707Y-100373411D01*
X91569315Y-100370383D01*
X91571212Y-100369832D01*
X91573190Y-100369638D01*
X91606602Y-100359550D01*
X91639936Y-100349866D01*
X91641691Y-100348956D01*
X91643593Y-100348382D01*
X91674401Y-100332001D01*
X91705227Y-100316022D01*
X91706708Y-100314823D01*
X91708526Y-100313856D01*
X91765516Y-100267376D01*
X91777792Y-100252537D01*
X91830397Y-100199932D01*
X102105127Y-100199932D01*
X102105127Y-100318122D01*
X102128185Y-100434041D01*
X102173414Y-100543234D01*
X102239077Y-100641505D01*
X102322649Y-100725077D01*
X102323605Y-100725716D01*
X102331936Y-100754392D01*
X102332911Y-100756273D01*
X102333521Y-100758293D01*
X102350913Y-100791002D01*
X102368036Y-100824036D01*
X102369322Y-100825623D01*
X102370348Y-100827554D01*
X102419927Y-100888344D01*
X102435744Y-100901429D01*
X102800000Y-101265685D01*
X102800000Y-101359095D01*
X102823058Y-101475014D01*
X102868287Y-101584207D01*
X102933950Y-101682478D01*
X103017522Y-101766050D01*
X103115793Y-101831713D01*
X103224986Y-101876942D01*
X103340905Y-101900000D01*
X103459095Y-101900000D01*
X103575014Y-101876942D01*
X103684207Y-101831713D01*
X103782478Y-101766050D01*
X103866050Y-101682478D01*
X103927237Y-101590905D01*
X113800000Y-101590905D01*
X113800000Y-101709095D01*
X113823058Y-101825014D01*
X113868287Y-101934207D01*
X113933950Y-102032478D01*
X114017522Y-102116050D01*
X114115793Y-102181713D01*
X114224986Y-102226942D01*
X114340905Y-102250000D01*
X114459095Y-102250000D01*
X114575014Y-102226942D01*
X114684207Y-102181713D01*
X114782478Y-102116050D01*
X114848528Y-102050000D01*
X116028182Y-102050000D01*
X116045791Y-102051913D01*
X116067656Y-102050000D01*
X116069734Y-102050000D01*
X116086948Y-102048312D01*
X116123936Y-102045076D01*
X116125966Y-102044486D01*
X116128070Y-102044280D01*
X116163616Y-102033548D01*
X116199265Y-102023191D01*
X116201142Y-102022218D01*
X116203166Y-102021607D01*
X116235950Y-102004175D01*
X116241371Y-102001365D01*
X116263154Y-102007973D01*
X116400000Y-102021451D01*
X118100000Y-102021451D01*
X118236846Y-102007973D01*
X118368434Y-101968056D01*
X118489705Y-101903235D01*
X118596001Y-101816001D01*
X118683235Y-101709705D01*
X118748056Y-101588434D01*
X118787973Y-101456846D01*
X118801451Y-101320000D01*
X118801451Y-100520000D01*
X118787973Y-100383154D01*
X118748056Y-100251566D01*
X118683235Y-100130295D01*
X118596001Y-100023999D01*
X118489705Y-99936765D01*
X118368434Y-99871944D01*
X118236846Y-99832027D01*
X118100000Y-99818549D01*
X116400000Y-99818549D01*
X116263154Y-99832027D01*
X116131566Y-99871944D01*
X116010295Y-99936765D01*
X115903999Y-100023999D01*
X115816765Y-100130295D01*
X115751944Y-100251566D01*
X115712027Y-100383154D01*
X115698549Y-100520000D01*
X115698549Y-101250000D01*
X114848528Y-101250000D01*
X114782478Y-101183950D01*
X114684207Y-101118287D01*
X114575014Y-101073058D01*
X114459095Y-101050000D01*
X114340905Y-101050000D01*
X114224986Y-101073058D01*
X114115793Y-101118287D01*
X114017522Y-101183950D01*
X113933950Y-101267522D01*
X113868287Y-101365793D01*
X113823058Y-101474986D01*
X113800000Y-101590905D01*
X103927237Y-101590905D01*
X103931713Y-101584207D01*
X103976942Y-101475014D01*
X104000000Y-101359095D01*
X104000000Y-101240905D01*
X103976942Y-101124986D01*
X103931713Y-101015793D01*
X103866050Y-100917522D01*
X103782478Y-100833950D01*
X103684207Y-100768287D01*
X103575014Y-100723058D01*
X103459095Y-100700000D01*
X103365685Y-100700000D01*
X103225656Y-100559972D01*
X103236840Y-100543234D01*
X103282069Y-100434041D01*
X103305127Y-100318122D01*
X103305127Y-100199932D01*
X103282069Y-100084013D01*
X103236840Y-99974820D01*
X103171177Y-99876549D01*
X103087605Y-99792977D01*
X102989334Y-99727314D01*
X102880141Y-99682085D01*
X102764222Y-99659027D01*
X102646032Y-99659027D01*
X102530113Y-99682085D01*
X102420920Y-99727314D01*
X102322649Y-99792977D01*
X102239077Y-99876549D01*
X102173414Y-99974820D01*
X102128185Y-100084013D01*
X102105127Y-100199932D01*
X91830397Y-100199932D01*
X92655330Y-99375000D01*
X118481662Y-99375000D01*
X118621045Y-99388667D01*
X118621045Y-99388667D01*
G37*
X118621045Y-99388667D02*
X118737483Y-99423821D01*
X118844876Y-99480923D01*
X118939128Y-99557793D01*
X119016657Y-99651508D01*
X119074507Y-99758501D01*
X119110472Y-99874688D01*
X119125001Y-100012914D01*
X119125000Y-111981663D01*
X119111333Y-112121044D01*
X119076178Y-112237485D01*
X119019077Y-112344876D01*
X118942207Y-112439128D01*
X118848488Y-112516659D01*
X118741498Y-112574508D01*
X118625316Y-112610472D01*
X118487096Y-112625000D01*
X115306393Y-112625000D01*
X115314607Y-112609808D01*
X115331713Y-112584207D01*
X115342401Y-112558404D01*
X115355794Y-112533634D01*
X115365061Y-112503698D01*
X115376942Y-112475014D01*
X115382339Y-112447881D01*
X115390589Y-112421230D01*
X115393892Y-112389800D01*
X115400000Y-112359095D01*
X115400000Y-112331687D01*
X115402888Y-112304209D01*
X115400000Y-112272474D01*
X115400000Y-112240905D01*
X115394704Y-112214282D01*
X115392224Y-112187027D01*
X115383151Y-112156199D01*
X115376942Y-112124986D01*
X115366654Y-112100149D01*
X115359002Y-112074149D01*
X115343992Y-112045437D01*
X115331713Y-112015793D01*
X115316923Y-111993659D01*
X115304488Y-111969872D01*
X115284017Y-111944412D01*
X115266050Y-111917522D01*
X115247411Y-111898883D01*
X115230758Y-111878171D01*
X115205533Y-111857005D01*
X115182478Y-111833950D01*
X115160772Y-111819447D01*
X115140620Y-111802537D01*
X115111537Y-111786548D01*
X115084207Y-111768287D01*
X115060329Y-111758396D01*
X115037509Y-111745851D01*
X115005617Y-111735734D01*
X114975014Y-111723058D01*
X114949925Y-111718067D01*
X114925351Y-111710272D01*
X114894360Y-111707015D01*
X114859095Y-111700000D01*
X104348528Y-111700000D01*
X101647414Y-108998887D01*
X101630757Y-108978170D01*
X101605525Y-108956998D01*
X101603327Y-108954800D01*
X101583326Y-108938371D01*
X101540619Y-108902536D01*
X101537839Y-108901007D01*
X101535391Y-108898997D01*
X101486328Y-108872689D01*
X101437508Y-108845850D01*
X101434487Y-108844892D01*
X101431692Y-108843393D01*
X101378446Y-108827114D01*
X101325350Y-108810271D01*
X101322308Y-108809951D01*
X101319167Y-108808991D01*
X101202103Y-108797100D01*
X101171437Y-108799999D01*
X99748731Y-108799999D01*
X99722312Y-108797129D01*
X99689510Y-108799999D01*
X99686392Y-108799999D01*
X99660542Y-108802534D01*
X99605094Y-108807385D01*
X99602054Y-108808268D01*
X99598895Y-108808578D01*
X99545502Y-108824698D01*
X99492100Y-108840213D01*
X99489290Y-108841669D01*
X99486251Y-108842587D01*
X99437031Y-108868758D01*
X99387635Y-108894362D01*
X99385261Y-108896284D01*
X99382358Y-108897828D01*
X99291173Y-108972197D01*
X99271536Y-108995934D01*
X98267471Y-110000000D01*
X97540905Y-110000000D01*
X97512240Y-110005702D01*
X97482896Y-110008579D01*
X97454160Y-110017255D01*
X97424986Y-110023058D01*
X97398227Y-110034142D01*
X97370252Y-110042588D01*
X97343516Y-110056804D01*
X97315793Y-110068287D01*
X97291924Y-110084236D01*
X97266359Y-110097829D01*
X97242689Y-110117134D01*
X97217522Y-110133950D01*
X97197406Y-110154066D01*
X97175174Y-110172198D01*
X97155537Y-110195935D01*
X97133950Y-110217522D01*
X97118289Y-110240960D01*
X97100171Y-110262861D01*
X97085393Y-110290192D01*
X97068287Y-110315793D01*
X97057599Y-110341596D01*
X97044206Y-110366366D01*
X97034939Y-110396302D01*
X97023058Y-110424986D01*
X97017661Y-110452119D01*
X97009411Y-110478770D01*
X97006108Y-110510200D01*
X97000000Y-110540905D01*
X97000000Y-110568313D01*
X96997112Y-110595791D01*
X97000000Y-110627526D01*
X97000000Y-110659095D01*
X97005296Y-110685718D01*
X97007776Y-110712973D01*
X97016849Y-110743801D01*
X97023058Y-110775014D01*
X97033346Y-110799851D01*
X97040998Y-110825851D01*
X97056008Y-110854563D01*
X97068287Y-110884207D01*
X97083077Y-110906341D01*
X97095512Y-110930128D01*
X97115983Y-110955588D01*
X97133950Y-110982478D01*
X97152589Y-111001117D01*
X97169242Y-111021829D01*
X97194467Y-111042995D01*
X97217522Y-111066050D01*
X97239228Y-111080553D01*
X97259380Y-111097463D01*
X97288463Y-111113452D01*
X97315793Y-111131713D01*
X97339671Y-111141604D01*
X97362491Y-111154149D01*
X97394383Y-111164266D01*
X97424986Y-111176942D01*
X97450075Y-111181933D01*
X97474649Y-111189728D01*
X97505640Y-111192985D01*
X97540905Y-111200000D01*
X98483266Y-111200000D01*
X98509685Y-111202870D01*
X98542487Y-111200000D01*
X98545605Y-111200000D01*
X98571460Y-111197465D01*
X98626902Y-111192614D01*
X98629942Y-111191731D01*
X98633102Y-111191421D01*
X98686520Y-111175293D01*
X98739896Y-111159786D01*
X98742704Y-111158330D01*
X98745746Y-111157412D01*
X98794984Y-111131232D01*
X98844362Y-111105637D01*
X98846736Y-111103715D01*
X98849639Y-111102171D01*
X98940824Y-111027802D01*
X98960465Y-111004060D01*
X99542522Y-110422004D01*
X99568287Y-110484207D01*
X99633950Y-110582478D01*
X99636895Y-110585423D01*
X98422317Y-111800001D01*
X98166593Y-111800001D01*
X98131713Y-111715793D01*
X98066050Y-111617522D01*
X97982478Y-111533950D01*
X97884207Y-111468287D01*
X97775014Y-111423058D01*
X97659095Y-111400000D01*
X97540905Y-111400000D01*
X97424986Y-111423058D01*
X97315793Y-111468287D01*
X97217522Y-111533950D01*
X97133950Y-111617522D01*
X97068287Y-111715793D01*
X97023058Y-111824986D01*
X97000000Y-111940905D01*
X97000000Y-112059095D01*
X97023058Y-112175014D01*
X97068287Y-112284207D01*
X97133950Y-112382478D01*
X97217522Y-112466050D01*
X97315793Y-112531713D01*
X97424986Y-112576942D01*
X97540905Y-112600000D01*
X97659095Y-112600000D01*
X97707602Y-112590351D01*
X97716434Y-112593153D01*
X97718467Y-112593367D01*
X97720555Y-112594005D01*
X97798598Y-112601933D01*
X97819034Y-112600001D01*
X98566183Y-112600001D01*
X98583792Y-112601914D01*
X98605657Y-112600001D01*
X98607735Y-112600001D01*
X98624949Y-112598313D01*
X98661937Y-112595077D01*
X98663967Y-112594487D01*
X98666071Y-112594281D01*
X98701617Y-112583549D01*
X98737266Y-112573192D01*
X98739143Y-112572219D01*
X98741167Y-112571608D01*
X98773951Y-112554176D01*
X98806910Y-112537092D01*
X98808494Y-112535809D01*
X98810428Y-112534781D01*
X98871218Y-112485202D01*
X98884308Y-112469379D01*
X100367417Y-110986271D01*
X100381219Y-110975174D01*
X100395325Y-110958363D01*
X100396796Y-110956892D01*
X100407775Y-110943526D01*
X100431642Y-110915082D01*
X100432661Y-110913228D01*
X100434001Y-110911597D01*
X100451521Y-110878923D01*
X100469433Y-110846341D01*
X100470073Y-110844323D01*
X100471070Y-110842464D01*
X100481897Y-110807048D01*
X100493152Y-110771569D01*
X100493366Y-110769536D01*
X100494004Y-110767448D01*
X100501931Y-110689406D01*
X100500000Y-110668977D01*
X100500000Y-110648528D01*
X100566050Y-110582478D01*
X100631713Y-110484207D01*
X100676942Y-110375014D01*
X100700000Y-110259095D01*
X100700000Y-110140905D01*
X100676942Y-110024986D01*
X100666592Y-109999999D01*
X100951472Y-109999999D01*
X103576472Y-112625000D01*
X92655331Y-112625000D01*
X91779631Y-111749302D01*
X91769223Y-111736357D01*
X91753456Y-111723127D01*
X91752082Y-111721753D01*
X91739569Y-111711475D01*
X91712887Y-111689086D01*
X91711151Y-111688132D01*
X91709620Y-111686874D01*
X91678982Y-111670446D01*
X91648443Y-111653657D01*
X91646550Y-111653056D01*
X91644807Y-111652122D01*
X91611621Y-111641976D01*
X91578344Y-111631420D01*
X91576437Y-111631220D01*
X91574479Y-111630621D01*
X91501315Y-111623189D01*
X91482155Y-111625000D01*
X79018337Y-111625000D01*
X78878956Y-111611333D01*
X78762515Y-111576178D01*
X78655124Y-111519077D01*
X78560872Y-111442207D01*
X78483341Y-111348488D01*
X78425492Y-111241498D01*
X78389528Y-111125316D01*
X78375000Y-110987096D01*
X78375000Y-107795791D01*
X91897112Y-107795791D01*
X91900000Y-107827526D01*
X91900000Y-107859095D01*
X91905296Y-107885718D01*
X91907776Y-107912973D01*
X91916847Y-107943792D01*
X91923058Y-107975014D01*
X91933346Y-107999851D01*
X91940998Y-108025851D01*
X91956008Y-108054563D01*
X91968287Y-108084207D01*
X91983077Y-108106341D01*
X91995512Y-108130128D01*
X92015983Y-108155588D01*
X92033950Y-108182478D01*
X92052589Y-108201117D01*
X92069242Y-108221829D01*
X92094467Y-108242995D01*
X92117522Y-108266050D01*
X92139228Y-108280553D01*
X92159380Y-108297463D01*
X92188463Y-108313452D01*
X92215793Y-108331713D01*
X92239671Y-108341604D01*
X92262491Y-108354149D01*
X92294383Y-108364266D01*
X92324986Y-108376942D01*
X92350075Y-108381933D01*
X92374649Y-108389728D01*
X92405640Y-108392985D01*
X92440905Y-108400000D01*
X95167268Y-108400000D01*
X95193687Y-108402870D01*
X95194748Y-108402777D01*
X95195793Y-108402887D01*
X95227517Y-108400000D01*
X95959095Y-108400000D01*
X95987760Y-108394298D01*
X96017104Y-108391421D01*
X96045840Y-108382745D01*
X96075014Y-108376942D01*
X96101773Y-108365858D01*
X96129748Y-108357412D01*
X96156484Y-108343196D01*
X96184207Y-108331713D01*
X96208076Y-108315764D01*
X96233641Y-108302171D01*
X96257311Y-108282866D01*
X96282478Y-108266050D01*
X96302594Y-108245934D01*
X96324826Y-108227802D01*
X96344463Y-108204065D01*
X96366050Y-108182478D01*
X96381711Y-108159040D01*
X96399829Y-108137139D01*
X96414607Y-108109808D01*
X96431713Y-108084207D01*
X96442401Y-108058404D01*
X96455794Y-108033634D01*
X96465061Y-108003698D01*
X96476942Y-107975014D01*
X96482339Y-107947881D01*
X96490589Y-107921230D01*
X96493892Y-107889800D01*
X96500000Y-107859095D01*
X96500000Y-107831687D01*
X96502888Y-107804209D01*
X96500000Y-107772474D01*
X96500000Y-107740905D01*
X96494704Y-107714282D01*
X96492224Y-107687027D01*
X96483151Y-107656199D01*
X96476942Y-107624986D01*
X96466654Y-107600149D01*
X96459002Y-107574149D01*
X96443992Y-107545437D01*
X96431713Y-107515793D01*
X96418347Y-107495789D01*
X97297112Y-107495789D01*
X97300000Y-107527524D01*
X97300000Y-107559093D01*
X97305296Y-107585716D01*
X97307776Y-107612971D01*
X97316849Y-107643799D01*
X97323058Y-107675012D01*
X97333346Y-107699849D01*
X97340998Y-107725849D01*
X97356008Y-107754561D01*
X97368287Y-107784205D01*
X97383077Y-107806339D01*
X97395512Y-107830126D01*
X97415983Y-107855586D01*
X97433950Y-107882476D01*
X97452589Y-107901115D01*
X97469242Y-107921827D01*
X97494467Y-107942993D01*
X97517522Y-107966048D01*
X97539228Y-107980551D01*
X97559380Y-107997461D01*
X97588463Y-108013450D01*
X97615793Y-108031711D01*
X97639671Y-108041602D01*
X97662491Y-108054147D01*
X97694383Y-108064264D01*
X97724986Y-108076940D01*
X97750075Y-108081931D01*
X97774649Y-108089726D01*
X97805640Y-108092983D01*
X97840905Y-108099998D01*
X98568314Y-108099998D01*
X98595792Y-108102886D01*
X98627527Y-108099998D01*
X103775735Y-108099998D01*
X106300000Y-110624264D01*
X106300000Y-110859095D01*
X106305702Y-110887760D01*
X106308579Y-110917104D01*
X106317255Y-110945840D01*
X106323058Y-110975014D01*
X106334142Y-111001773D01*
X106342588Y-111029748D01*
X106356803Y-111056482D01*
X106368287Y-111084207D01*
X106384239Y-111108081D01*
X106397830Y-111133641D01*
X106417129Y-111157304D01*
X106433950Y-111182478D01*
X106454071Y-111202599D01*
X106472199Y-111224826D01*
X106495930Y-111244458D01*
X106517522Y-111266050D01*
X106540965Y-111281714D01*
X106562862Y-111299829D01*
X106590188Y-111314604D01*
X106615793Y-111331713D01*
X106641600Y-111342403D01*
X106666367Y-111355794D01*
X106696299Y-111365060D01*
X106724986Y-111376942D01*
X106752122Y-111382340D01*
X106778771Y-111390589D01*
X106810199Y-111393892D01*
X106840905Y-111400000D01*
X106868314Y-111400000D01*
X106895792Y-111402888D01*
X106927527Y-111400000D01*
X106959095Y-111400000D01*
X106985718Y-111394704D01*
X107012973Y-111392224D01*
X107043801Y-111383151D01*
X107075014Y-111376942D01*
X107099851Y-111366654D01*
X107125851Y-111359002D01*
X107154563Y-111343992D01*
X107184207Y-111331713D01*
X107206341Y-111316923D01*
X107230128Y-111304488D01*
X107255588Y-111284017D01*
X107282478Y-111266050D01*
X107301117Y-111247411D01*
X107321829Y-111230758D01*
X107342995Y-111205533D01*
X107366050Y-111182478D01*
X107380553Y-111160772D01*
X107381200Y-111160000D01*
X115700000Y-111160000D01*
X115700000Y-111909547D01*
X115711529Y-111967506D01*
X115734143Y-112022103D01*
X115766975Y-112071239D01*
X115808761Y-112113025D01*
X115857896Y-112145856D01*
X115912493Y-112168471D01*
X115970452Y-112180000D01*
X117170000Y-112180000D01*
X117245000Y-112105000D01*
X117245000Y-111085000D01*
X117255000Y-111085000D01*
X117255000Y-112105000D01*
X117330000Y-112180000D01*
X118529548Y-112180000D01*
X118587507Y-112168471D01*
X118642104Y-112145856D01*
X118691239Y-112113025D01*
X118733025Y-112071239D01*
X118765857Y-112022103D01*
X118788471Y-111967506D01*
X118800000Y-111909547D01*
X118800000Y-111160000D01*
X118725000Y-111085000D01*
X117255000Y-111085000D01*
X117245000Y-111085000D01*
X115775000Y-111085000D01*
X115700000Y-111160000D01*
X107381200Y-111160000D01*
X107397463Y-111140620D01*
X107413452Y-111111537D01*
X107431713Y-111084207D01*
X107441604Y-111060329D01*
X107454149Y-111037509D01*
X107464266Y-111005617D01*
X107476942Y-110975014D01*
X107481933Y-110949925D01*
X107489728Y-110925351D01*
X107492985Y-110894360D01*
X107500000Y-110859095D01*
X107500000Y-110408460D01*
X107502869Y-110382049D01*
X107500000Y-110349255D01*
X107500000Y-110346129D01*
X107497461Y-110320234D01*
X107492614Y-110264831D01*
X107491731Y-110261791D01*
X107491421Y-110258632D01*
X107488952Y-110250453D01*
X115700000Y-110250453D01*
X115700000Y-111000000D01*
X115775000Y-111075000D01*
X117245000Y-111075000D01*
X117245000Y-110055000D01*
X117255000Y-110055000D01*
X117255000Y-111075000D01*
X118725000Y-111075000D01*
X118800000Y-111000000D01*
X118800000Y-110250453D01*
X118788471Y-110192494D01*
X118765857Y-110137897D01*
X118733025Y-110088761D01*
X118691239Y-110046975D01*
X118642104Y-110014144D01*
X118587507Y-109991529D01*
X118529548Y-109980000D01*
X117330000Y-109980000D01*
X117255000Y-110055000D01*
X117245000Y-110055000D01*
X117170000Y-109980000D01*
X115970452Y-109980000D01*
X115912493Y-109991529D01*
X115857896Y-110014144D01*
X115808761Y-110046975D01*
X115766975Y-110088761D01*
X115734143Y-110137897D01*
X115711529Y-110192494D01*
X115700000Y-110250453D01*
X107488952Y-110250453D01*
X107475301Y-110205239D01*
X107459786Y-110151837D01*
X107458330Y-110149027D01*
X107457412Y-110145988D01*
X107431252Y-110096789D01*
X107405637Y-110047371D01*
X107403713Y-110044995D01*
X107402171Y-110042095D01*
X107327802Y-109950910D01*
X107304066Y-109931274D01*
X106689432Y-109316640D01*
X114475735Y-109316640D01*
X114475735Y-109434830D01*
X114498793Y-109550749D01*
X114544022Y-109659942D01*
X114609685Y-109758213D01*
X114693257Y-109841785D01*
X114791528Y-109907448D01*
X114900721Y-109952677D01*
X115016640Y-109975735D01*
X115134830Y-109975735D01*
X115250749Y-109952677D01*
X115359942Y-109907448D01*
X115458213Y-109841785D01*
X115524263Y-109775735D01*
X115902447Y-109775735D01*
X115920056Y-109777648D01*
X115941921Y-109775735D01*
X115943999Y-109775735D01*
X115961213Y-109774047D01*
X115998201Y-109770811D01*
X116000231Y-109770221D01*
X116002335Y-109770015D01*
X116037881Y-109759283D01*
X116073530Y-109748926D01*
X116075407Y-109747953D01*
X116077431Y-109747342D01*
X116110215Y-109729910D01*
X116143174Y-109712826D01*
X116144758Y-109711543D01*
X116146692Y-109710515D01*
X116207482Y-109660936D01*
X116220572Y-109645113D01*
X116243634Y-109622051D01*
X116263154Y-109627973D01*
X116400000Y-109641451D01*
X118100000Y-109641451D01*
X118236846Y-109627973D01*
X118368434Y-109588056D01*
X118489705Y-109523235D01*
X118596001Y-109436001D01*
X118683235Y-109329705D01*
X118748056Y-109208434D01*
X118787973Y-109076846D01*
X118801451Y-108940000D01*
X118801451Y-108140000D01*
X118787973Y-108003154D01*
X118748056Y-107871566D01*
X118683235Y-107750295D01*
X118596001Y-107643999D01*
X118489705Y-107556765D01*
X118368434Y-107491944D01*
X118236846Y-107452027D01*
X118100000Y-107438549D01*
X116400000Y-107438549D01*
X116263154Y-107452027D01*
X116131566Y-107491944D01*
X116010295Y-107556765D01*
X115903999Y-107643999D01*
X115816765Y-107750295D01*
X115751944Y-107871566D01*
X115712027Y-108003154D01*
X115698549Y-108140000D01*
X115698549Y-108940000D01*
X115702069Y-108975735D01*
X115524263Y-108975735D01*
X115458213Y-108909685D01*
X115359942Y-108844022D01*
X115250749Y-108798793D01*
X115134830Y-108775735D01*
X115016640Y-108775735D01*
X114900721Y-108798793D01*
X114791528Y-108844022D01*
X114693257Y-108909685D01*
X114609685Y-108993257D01*
X114544022Y-109091528D01*
X114498793Y-109200721D01*
X114475735Y-109316640D01*
X106689432Y-109316640D01*
X104524264Y-107151473D01*
X104524264Y-107140905D01*
X114100000Y-107140905D01*
X114100000Y-107259095D01*
X114123058Y-107375014D01*
X114168287Y-107484207D01*
X114233950Y-107582478D01*
X114317522Y-107666050D01*
X114415793Y-107731713D01*
X114524986Y-107776942D01*
X114640905Y-107800000D01*
X114759095Y-107800000D01*
X114875014Y-107776942D01*
X114984207Y-107731713D01*
X115082478Y-107666050D01*
X115148528Y-107600000D01*
X115578182Y-107600000D01*
X115595791Y-107601913D01*
X115617656Y-107600000D01*
X115619734Y-107600000D01*
X115636948Y-107598312D01*
X115673936Y-107595076D01*
X115675966Y-107594486D01*
X115678070Y-107594280D01*
X115713616Y-107583548D01*
X115749265Y-107573191D01*
X115751142Y-107572218D01*
X115753166Y-107571607D01*
X115785950Y-107554175D01*
X115818909Y-107537091D01*
X115820493Y-107535808D01*
X115822427Y-107534780D01*
X115883217Y-107485201D01*
X115896307Y-107469378D01*
X116276407Y-107089278D01*
X116400000Y-107101451D01*
X118100000Y-107101451D01*
X118236846Y-107087973D01*
X118368434Y-107048056D01*
X118489705Y-106983235D01*
X118596001Y-106896001D01*
X118683235Y-106789705D01*
X118748056Y-106668434D01*
X118787973Y-106536846D01*
X118801451Y-106400000D01*
X118801451Y-105600000D01*
X118787973Y-105463154D01*
X118748056Y-105331566D01*
X118683235Y-105210295D01*
X118596001Y-105103999D01*
X118489705Y-105016765D01*
X118368434Y-104951944D01*
X118236846Y-104912027D01*
X118100000Y-104898549D01*
X116400000Y-104898549D01*
X116263154Y-104912027D01*
X116131566Y-104951944D01*
X116010295Y-105016765D01*
X115903999Y-105103999D01*
X115816765Y-105210295D01*
X115751944Y-105331566D01*
X115712027Y-105463154D01*
X115698549Y-105600000D01*
X115698549Y-106400000D01*
X115710722Y-106523594D01*
X115434316Y-106800000D01*
X115148528Y-106800000D01*
X115082478Y-106733950D01*
X114984207Y-106668287D01*
X114875014Y-106623058D01*
X114759095Y-106600000D01*
X114640905Y-106600000D01*
X114524986Y-106623058D01*
X114415793Y-106668287D01*
X114317522Y-106733950D01*
X114233950Y-106817522D01*
X114168287Y-106915793D01*
X114123058Y-107024986D01*
X114100000Y-107140905D01*
X104524264Y-107140905D01*
X104524264Y-106648527D01*
X106606151Y-104566640D01*
X114225735Y-104566640D01*
X114225735Y-104684830D01*
X114248793Y-104800749D01*
X114294022Y-104909942D01*
X114359685Y-105008213D01*
X114443257Y-105091785D01*
X114541528Y-105157448D01*
X114650721Y-105202677D01*
X114766640Y-105225735D01*
X114884830Y-105225735D01*
X115000749Y-105202677D01*
X115109942Y-105157448D01*
X115208213Y-105091785D01*
X115274263Y-105025735D01*
X115652447Y-105025735D01*
X115670056Y-105027648D01*
X115691921Y-105025735D01*
X115693999Y-105025735D01*
X115711213Y-105024047D01*
X115748201Y-105020811D01*
X115750231Y-105020221D01*
X115752335Y-105020015D01*
X115787881Y-105009283D01*
X115823530Y-104998926D01*
X115825407Y-104997953D01*
X115827431Y-104997342D01*
X115860215Y-104979910D01*
X115893174Y-104962826D01*
X115894758Y-104961543D01*
X115896692Y-104960515D01*
X115957482Y-104910936D01*
X115970572Y-104895113D01*
X116312820Y-104552865D01*
X116400000Y-104561451D01*
X118100000Y-104561451D01*
X118236846Y-104547973D01*
X118368434Y-104508056D01*
X118489705Y-104443235D01*
X118596001Y-104356001D01*
X118683235Y-104249705D01*
X118748056Y-104128434D01*
X118787973Y-103996846D01*
X118801451Y-103860000D01*
X118801451Y-103060000D01*
X118787973Y-102923154D01*
X118748056Y-102791566D01*
X118683235Y-102670295D01*
X118596001Y-102563999D01*
X118489705Y-102476765D01*
X118368434Y-102411944D01*
X118236846Y-102372027D01*
X118100000Y-102358549D01*
X116400000Y-102358549D01*
X116263154Y-102372027D01*
X116131566Y-102411944D01*
X116010295Y-102476765D01*
X115903999Y-102563999D01*
X115816765Y-102670295D01*
X115751944Y-102791566D01*
X115712027Y-102923154D01*
X115698549Y-103060000D01*
X115698549Y-103860000D01*
X115712027Y-103996846D01*
X115717949Y-104016367D01*
X115508581Y-104225735D01*
X115274263Y-104225735D01*
X115208213Y-104159685D01*
X115109942Y-104094022D01*
X115000749Y-104048793D01*
X114884830Y-104025735D01*
X114766640Y-104025735D01*
X114650721Y-104048793D01*
X114541528Y-104094022D01*
X114443257Y-104159685D01*
X114359685Y-104243257D01*
X114294022Y-104341528D01*
X114248793Y-104450721D01*
X114225735Y-104566640D01*
X106606151Y-104566640D01*
X107701117Y-103471675D01*
X107721829Y-103455022D01*
X107742995Y-103429797D01*
X107745199Y-103427593D01*
X107761681Y-103407528D01*
X107797463Y-103364884D01*
X107798988Y-103362110D01*
X107801003Y-103359657D01*
X107827353Y-103310514D01*
X107854149Y-103261773D01*
X107855107Y-103258754D01*
X107856606Y-103255958D01*
X107872893Y-103202684D01*
X107889728Y-103149615D01*
X107890048Y-103146574D01*
X107891008Y-103143433D01*
X107902899Y-103026369D01*
X107900000Y-102995700D01*
X107900000Y-102540905D01*
X107894298Y-102512240D01*
X107891421Y-102482896D01*
X107882745Y-102454160D01*
X107876942Y-102424986D01*
X107865858Y-102398227D01*
X107857412Y-102370252D01*
X107843196Y-102343516D01*
X107831713Y-102315793D01*
X107815764Y-102291924D01*
X107802171Y-102266359D01*
X107782866Y-102242689D01*
X107766050Y-102217522D01*
X107745934Y-102197406D01*
X107727802Y-102175174D01*
X107704066Y-102155538D01*
X107682478Y-102133950D01*
X107659036Y-102118287D01*
X107637138Y-102100171D01*
X107609812Y-102085396D01*
X107584207Y-102068287D01*
X107558400Y-102057597D01*
X107533633Y-102044206D01*
X107503701Y-102034940D01*
X107475014Y-102023058D01*
X107447878Y-102017660D01*
X107421229Y-102009411D01*
X107389801Y-102006108D01*
X107359095Y-102000000D01*
X107331686Y-102000000D01*
X107304208Y-101997112D01*
X107272473Y-102000000D01*
X107240905Y-102000000D01*
X107214282Y-102005296D01*
X107187027Y-102007776D01*
X107156199Y-102016849D01*
X107124986Y-102023058D01*
X107100149Y-102033346D01*
X107074149Y-102040998D01*
X107045437Y-102056008D01*
X107015793Y-102068287D01*
X106993659Y-102083077D01*
X106969872Y-102095512D01*
X106944412Y-102115983D01*
X106917522Y-102133950D01*
X106898883Y-102152589D01*
X106878171Y-102169242D01*
X106857006Y-102194466D01*
X106833950Y-102217522D01*
X106819444Y-102239231D01*
X106802537Y-102259381D01*
X106786551Y-102288459D01*
X106768287Y-102315793D01*
X106758395Y-102339675D01*
X106745851Y-102362492D01*
X106735736Y-102394379D01*
X106723058Y-102424986D01*
X106718067Y-102450078D01*
X106710272Y-102474650D01*
X106707015Y-102505639D01*
X106700000Y-102540905D01*
X106700000Y-102775736D01*
X103523152Y-105952585D01*
X103502435Y-105969242D01*
X103481265Y-105994472D01*
X103479065Y-105996672D01*
X103462616Y-106016698D01*
X103426801Y-106059381D01*
X103425274Y-106062158D01*
X103423262Y-106064608D01*
X103396932Y-106113712D01*
X103370115Y-106162492D01*
X103369157Y-106165511D01*
X103367658Y-106168307D01*
X103351371Y-106221581D01*
X103334536Y-106274650D01*
X103334216Y-106277691D01*
X103333256Y-106280832D01*
X103321365Y-106397896D01*
X103324264Y-106428563D01*
X103324264Y-106899998D01*
X99200000Y-106899998D01*
X99200000Y-105240905D01*
X99194298Y-105212240D01*
X99191421Y-105182896D01*
X99182745Y-105154160D01*
X99176942Y-105124986D01*
X99165858Y-105098227D01*
X99157412Y-105070252D01*
X99143196Y-105043516D01*
X99131713Y-105015793D01*
X99115764Y-104991924D01*
X99102171Y-104966359D01*
X99082866Y-104942689D01*
X99066050Y-104917522D01*
X99045934Y-104897406D01*
X99027802Y-104875174D01*
X99004066Y-104855538D01*
X98982478Y-104833950D01*
X98959036Y-104818287D01*
X98937138Y-104800171D01*
X98909812Y-104785396D01*
X98884207Y-104768287D01*
X98858400Y-104757597D01*
X98833633Y-104744206D01*
X98803701Y-104734940D01*
X98775014Y-104723058D01*
X98747878Y-104717660D01*
X98721229Y-104709411D01*
X98689801Y-104706108D01*
X98659095Y-104700000D01*
X98631686Y-104700000D01*
X98604208Y-104697112D01*
X98572473Y-104700000D01*
X98540905Y-104700000D01*
X98514282Y-104705296D01*
X98487027Y-104707776D01*
X98456199Y-104716849D01*
X98424986Y-104723058D01*
X98400149Y-104733346D01*
X98374149Y-104740998D01*
X98345437Y-104756008D01*
X98315793Y-104768287D01*
X98293659Y-104783077D01*
X98269872Y-104795512D01*
X98244412Y-104815983D01*
X98217522Y-104833950D01*
X98198883Y-104852589D01*
X98178171Y-104869242D01*
X98157006Y-104894466D01*
X98133950Y-104917522D01*
X98119444Y-104939231D01*
X98102537Y-104959381D01*
X98086551Y-104988459D01*
X98068287Y-105015793D01*
X98058395Y-105039675D01*
X98045851Y-105062492D01*
X98035736Y-105094379D01*
X98023058Y-105124986D01*
X98018067Y-105150078D01*
X98010272Y-105174650D01*
X98007015Y-105205639D01*
X98000000Y-105240905D01*
X98000000Y-105272381D01*
X98000001Y-106899998D01*
X97840905Y-106899998D01*
X97812240Y-106905700D01*
X97782896Y-106908577D01*
X97754160Y-106917253D01*
X97724986Y-106923056D01*
X97698227Y-106934140D01*
X97670252Y-106942586D01*
X97643516Y-106956802D01*
X97615793Y-106968285D01*
X97591924Y-106984234D01*
X97566359Y-106997827D01*
X97542689Y-107017132D01*
X97517522Y-107033948D01*
X97497406Y-107054064D01*
X97475174Y-107072196D01*
X97455537Y-107095933D01*
X97433950Y-107117520D01*
X97418289Y-107140958D01*
X97400171Y-107162859D01*
X97385393Y-107190190D01*
X97368287Y-107215791D01*
X97357599Y-107241594D01*
X97344206Y-107266364D01*
X97334939Y-107296300D01*
X97323058Y-107324984D01*
X97317661Y-107352117D01*
X97309411Y-107378768D01*
X97306108Y-107410198D01*
X97300000Y-107440903D01*
X97300000Y-107468311D01*
X97297112Y-107495789D01*
X96418347Y-107495789D01*
X96416923Y-107493659D01*
X96404488Y-107469872D01*
X96384017Y-107444412D01*
X96366050Y-107417522D01*
X96347411Y-107398883D01*
X96330758Y-107378171D01*
X96305533Y-107357005D01*
X96282478Y-107333950D01*
X96260772Y-107319447D01*
X96240620Y-107302537D01*
X96211537Y-107286548D01*
X96184207Y-107268287D01*
X96160329Y-107258396D01*
X96137509Y-107245851D01*
X96105617Y-107235734D01*
X96075014Y-107223058D01*
X96049925Y-107218067D01*
X96025351Y-107210272D01*
X95994360Y-107207015D01*
X95959095Y-107200000D01*
X95800001Y-107200000D01*
X95800001Y-104595782D01*
X95933351Y-104569257D01*
X96078942Y-104508951D01*
X96209970Y-104421401D01*
X96321401Y-104309970D01*
X96408951Y-104178942D01*
X96469257Y-104033351D01*
X96500000Y-103878793D01*
X96500000Y-103721207D01*
X96469257Y-103566649D01*
X96408951Y-103421058D01*
X96321401Y-103290030D01*
X96209970Y-103178599D01*
X96078942Y-103091049D01*
X95933351Y-103030743D01*
X95778793Y-103000000D01*
X95621207Y-103000000D01*
X95466649Y-103030743D01*
X95321058Y-103091049D01*
X95190030Y-103178599D01*
X95078599Y-103290030D01*
X94991049Y-103421058D01*
X94930743Y-103566649D01*
X94900000Y-103721207D01*
X94900000Y-103751472D01*
X94798888Y-103852585D01*
X94778172Y-103869241D01*
X94757002Y-103894471D01*
X94754802Y-103896671D01*
X94738353Y-103916697D01*
X94702538Y-103959380D01*
X94701011Y-103962157D01*
X94698999Y-103964607D01*
X94672669Y-104013711D01*
X94645852Y-104062491D01*
X94644894Y-104065510D01*
X94643395Y-104068306D01*
X94627108Y-104121580D01*
X94610273Y-104174649D01*
X94609953Y-104177690D01*
X94608993Y-104180831D01*
X94597102Y-104297895D01*
X94600001Y-104328561D01*
X94600002Y-107200000D01*
X92440905Y-107200000D01*
X92412240Y-107205702D01*
X92382896Y-107208579D01*
X92354160Y-107217255D01*
X92324986Y-107223058D01*
X92298227Y-107234142D01*
X92270252Y-107242588D01*
X92243516Y-107256804D01*
X92215793Y-107268287D01*
X92191924Y-107284236D01*
X92166359Y-107297829D01*
X92142689Y-107317134D01*
X92117522Y-107333950D01*
X92097406Y-107354066D01*
X92075174Y-107372198D01*
X92055537Y-107395935D01*
X92033950Y-107417522D01*
X92018289Y-107440960D01*
X92000171Y-107462861D01*
X91985393Y-107490192D01*
X91968287Y-107515793D01*
X91957599Y-107541596D01*
X91944206Y-107566366D01*
X91934939Y-107596302D01*
X91923058Y-107624986D01*
X91917661Y-107652119D01*
X91909411Y-107678770D01*
X91906108Y-107710200D01*
X91900000Y-107740905D01*
X91900000Y-107768313D01*
X91897112Y-107795791D01*
X78375000Y-107795791D01*
X78375000Y-102440905D01*
X91000014Y-102440905D01*
X91000014Y-102559095D01*
X91023072Y-102675014D01*
X91068301Y-102784207D01*
X91133964Y-102882478D01*
X91217536Y-102966050D01*
X91315807Y-103031713D01*
X91425000Y-103076942D01*
X91540919Y-103100000D01*
X91659109Y-103100000D01*
X91775028Y-103076942D01*
X91884221Y-103031713D01*
X91982492Y-102966050D01*
X92048542Y-102900000D01*
X92951450Y-102900000D01*
X93017500Y-102966050D01*
X93115771Y-103031713D01*
X93224964Y-103076942D01*
X93340883Y-103100000D01*
X93459073Y-103100000D01*
X93574992Y-103076942D01*
X93684185Y-103031713D01*
X93782456Y-102966050D01*
X93866028Y-102882478D01*
X93931691Y-102784207D01*
X93976920Y-102675014D01*
X93999978Y-102559095D01*
X93999978Y-102440905D01*
X93976920Y-102324986D01*
X93974405Y-102318913D01*
X95188158Y-102318913D01*
X95231551Y-102453271D01*
X95367999Y-102532109D01*
X95517206Y-102582811D01*
X95673438Y-102603431D01*
X95830690Y-102593175D01*
X95982919Y-102552438D01*
X96124276Y-102482786D01*
X96168449Y-102453271D01*
X96211842Y-102318913D01*
X95700000Y-101807071D01*
X95188158Y-102318913D01*
X93974405Y-102318913D01*
X93931691Y-102215793D01*
X93866028Y-102117522D01*
X93782456Y-102033950D01*
X93684185Y-101968287D01*
X93574992Y-101923058D01*
X93459073Y-101900000D01*
X93340883Y-101900000D01*
X93224964Y-101923058D01*
X93115771Y-101968287D01*
X93017500Y-102033950D01*
X92951450Y-102100000D01*
X92048542Y-102100000D01*
X91982492Y-102033950D01*
X91884221Y-101968287D01*
X91775028Y-101923058D01*
X91659109Y-101900000D01*
X91540919Y-101900000D01*
X91425000Y-101923058D01*
X91315807Y-101968287D01*
X91217536Y-102033950D01*
X91133964Y-102117522D01*
X91068301Y-102215793D01*
X91023072Y-102324986D01*
X91000014Y-102440905D01*
X78375000Y-102440905D01*
X78375000Y-101773438D01*
X94896569Y-101773438D01*
X94906825Y-101930690D01*
X94947562Y-102082919D01*
X95017214Y-102224276D01*
X95046729Y-102268449D01*
X95181087Y-102311842D01*
X95692929Y-101800000D01*
X95707071Y-101800000D01*
X96218913Y-102311842D01*
X96353271Y-102268449D01*
X96432109Y-102132001D01*
X96482811Y-101982794D01*
X96503431Y-101826562D01*
X96496560Y-101721207D01*
X96900000Y-101721207D01*
X96900000Y-101878793D01*
X96930743Y-102033351D01*
X96991049Y-102178942D01*
X97078599Y-102309970D01*
X97190030Y-102421401D01*
X97321058Y-102508951D01*
X97466649Y-102569257D01*
X97621207Y-102600000D01*
X97778793Y-102600000D01*
X97933351Y-102569257D01*
X98078942Y-102508951D01*
X98209970Y-102421401D01*
X98321401Y-102309970D01*
X98394231Y-102200972D01*
X98402897Y-102201913D01*
X98424762Y-102200000D01*
X98426840Y-102200000D01*
X98444054Y-102198312D01*
X98481042Y-102195076D01*
X98483072Y-102194486D01*
X98485176Y-102194280D01*
X98520722Y-102183548D01*
X98556371Y-102173191D01*
X98558248Y-102172218D01*
X98560272Y-102171607D01*
X98593056Y-102154175D01*
X98626015Y-102137091D01*
X98627599Y-102135808D01*
X98629533Y-102134780D01*
X98690323Y-102085201D01*
X98703412Y-102069379D01*
X98872791Y-101900001D01*
X99200000Y-101900001D01*
X99133214Y-101966787D01*
X99067551Y-102065058D01*
X99022322Y-102174251D01*
X98999264Y-102290170D01*
X98999264Y-102383580D01*
X98206539Y-103176306D01*
X98078942Y-103091049D01*
X97933351Y-103030743D01*
X97778793Y-103000000D01*
X97621207Y-103000000D01*
X97466649Y-103030743D01*
X97321058Y-103091049D01*
X97190030Y-103178599D01*
X97078599Y-103290030D01*
X96991049Y-103421058D01*
X96930743Y-103566649D01*
X96900000Y-103721207D01*
X96900000Y-103878793D01*
X96930743Y-104033351D01*
X96991049Y-104178942D01*
X97078599Y-104309970D01*
X97190030Y-104421401D01*
X97321058Y-104508951D01*
X97466649Y-104569257D01*
X97621207Y-104600000D01*
X97778793Y-104600000D01*
X97933351Y-104569257D01*
X98078942Y-104508951D01*
X98209970Y-104421401D01*
X98321401Y-104309970D01*
X98408951Y-104178942D01*
X98469257Y-104033351D01*
X98480207Y-103978300D01*
X98497795Y-103973190D01*
X98499672Y-103972217D01*
X98501696Y-103971606D01*
X98534480Y-103954174D01*
X98567439Y-103937090D01*
X98569023Y-103935807D01*
X98570957Y-103934779D01*
X98631747Y-103885200D01*
X98644837Y-103869377D01*
X99564949Y-102949265D01*
X99658359Y-102949265D01*
X99774278Y-102926207D01*
X99883471Y-102880978D01*
X99981742Y-102815315D01*
X100065314Y-102731743D01*
X100130977Y-102633472D01*
X100176206Y-102524279D01*
X100199264Y-102408360D01*
X100199264Y-102290170D01*
X100176206Y-102174251D01*
X100130977Y-102065058D01*
X100065314Y-101966787D01*
X99998528Y-101900001D01*
X100578185Y-101900001D01*
X100595794Y-101901914D01*
X100617659Y-101900001D01*
X100619737Y-101900001D01*
X100636951Y-101898313D01*
X100673939Y-101895077D01*
X100675969Y-101894487D01*
X100678073Y-101894281D01*
X100713619Y-101883549D01*
X100749268Y-101873192D01*
X100751145Y-101872219D01*
X100753169Y-101871608D01*
X100785953Y-101854176D01*
X100818912Y-101837092D01*
X100820496Y-101835809D01*
X100822430Y-101834781D01*
X100883220Y-101785202D01*
X100896309Y-101769380D01*
X101065685Y-101600004D01*
X101159095Y-101600004D01*
X101275014Y-101576946D01*
X101384207Y-101531717D01*
X101482478Y-101466054D01*
X101566050Y-101382482D01*
X101631713Y-101284211D01*
X101676942Y-101175018D01*
X101700000Y-101059099D01*
X101700000Y-100940909D01*
X101676942Y-100824990D01*
X101631713Y-100715797D01*
X101566050Y-100617526D01*
X101482478Y-100533954D01*
X101384207Y-100468291D01*
X101275014Y-100423062D01*
X101159095Y-100400004D01*
X101040905Y-100400004D01*
X100924986Y-100423062D01*
X100815793Y-100468291D01*
X100717522Y-100533954D01*
X100633950Y-100617526D01*
X100568287Y-100715797D01*
X100523058Y-100824990D01*
X100500000Y-100940909D01*
X100500000Y-101034320D01*
X100434319Y-101100001D01*
X98728923Y-101100001D01*
X98711314Y-101098088D01*
X98689449Y-101100001D01*
X98687371Y-101100001D01*
X98670162Y-101101688D01*
X98633168Y-101104925D01*
X98631138Y-101105515D01*
X98629035Y-101105721D01*
X98593515Y-101116445D01*
X98557839Y-101126810D01*
X98555961Y-101127784D01*
X98553939Y-101128394D01*
X98521194Y-101145805D01*
X98488195Y-101162910D01*
X98486609Y-101164194D01*
X98484678Y-101165221D01*
X98423888Y-101214800D01*
X98410798Y-101230623D01*
X98333413Y-101308008D01*
X98321401Y-101290030D01*
X98209970Y-101178599D01*
X98078942Y-101091049D01*
X97933351Y-101030743D01*
X97778793Y-101000000D01*
X97621207Y-101000000D01*
X97466649Y-101030743D01*
X97321058Y-101091049D01*
X97190030Y-101178599D01*
X97078599Y-101290030D01*
X96991049Y-101421058D01*
X96930743Y-101566649D01*
X96900000Y-101721207D01*
X96496560Y-101721207D01*
X96493175Y-101669310D01*
X96452438Y-101517081D01*
X96382786Y-101375724D01*
X96353271Y-101331551D01*
X96218913Y-101288158D01*
X95707071Y-101800000D01*
X95692929Y-101800000D01*
X95181087Y-101288158D01*
X95046729Y-101331551D01*
X94967891Y-101467999D01*
X94917189Y-101617206D01*
X94896569Y-101773438D01*
X78375000Y-101773438D01*
X78375000Y-101281087D01*
X95188158Y-101281087D01*
X95700000Y-101792929D01*
X96211842Y-101281087D01*
X96168449Y-101146729D01*
X96032001Y-101067891D01*
X95882794Y-101017189D01*
X95726562Y-100996569D01*
X95569310Y-101006825D01*
X95417081Y-101047562D01*
X95275724Y-101117214D01*
X95231551Y-101146729D01*
X95188158Y-101281087D01*
X78375000Y-101281087D01*
X78375000Y-101018338D01*
X78388667Y-100878955D01*
X78423821Y-100762517D01*
X78480923Y-100655124D01*
X78557793Y-100560872D01*
X78651508Y-100483343D01*
X78758501Y-100425493D01*
X78874688Y-100389528D01*
X79012904Y-100375000D01*
X91479551Y-100375000D01*
X91496055Y-100376793D01*
X91516547Y-100375000D01*
X91518501Y-100375000D01*
X91534707Y-100373411D01*
X91569315Y-100370383D01*
X91571212Y-100369832D01*
X91573190Y-100369638D01*
X91606602Y-100359550D01*
X91639936Y-100349866D01*
X91641691Y-100348956D01*
X91643593Y-100348382D01*
X91674401Y-100332001D01*
X91705227Y-100316022D01*
X91706708Y-100314823D01*
X91708526Y-100313856D01*
X91765516Y-100267376D01*
X91777792Y-100252537D01*
X91830397Y-100199932D01*
X102105127Y-100199932D01*
X102105127Y-100318122D01*
X102128185Y-100434041D01*
X102173414Y-100543234D01*
X102239077Y-100641505D01*
X102322649Y-100725077D01*
X102323605Y-100725716D01*
X102331936Y-100754392D01*
X102332911Y-100756273D01*
X102333521Y-100758293D01*
X102350913Y-100791002D01*
X102368036Y-100824036D01*
X102369322Y-100825623D01*
X102370348Y-100827554D01*
X102419927Y-100888344D01*
X102435744Y-100901429D01*
X102800000Y-101265685D01*
X102800000Y-101359095D01*
X102823058Y-101475014D01*
X102868287Y-101584207D01*
X102933950Y-101682478D01*
X103017522Y-101766050D01*
X103115793Y-101831713D01*
X103224986Y-101876942D01*
X103340905Y-101900000D01*
X103459095Y-101900000D01*
X103575014Y-101876942D01*
X103684207Y-101831713D01*
X103782478Y-101766050D01*
X103866050Y-101682478D01*
X103927237Y-101590905D01*
X113800000Y-101590905D01*
X113800000Y-101709095D01*
X113823058Y-101825014D01*
X113868287Y-101934207D01*
X113933950Y-102032478D01*
X114017522Y-102116050D01*
X114115793Y-102181713D01*
X114224986Y-102226942D01*
X114340905Y-102250000D01*
X114459095Y-102250000D01*
X114575014Y-102226942D01*
X114684207Y-102181713D01*
X114782478Y-102116050D01*
X114848528Y-102050000D01*
X116028182Y-102050000D01*
X116045791Y-102051913D01*
X116067656Y-102050000D01*
X116069734Y-102050000D01*
X116086948Y-102048312D01*
X116123936Y-102045076D01*
X116125966Y-102044486D01*
X116128070Y-102044280D01*
X116163616Y-102033548D01*
X116199265Y-102023191D01*
X116201142Y-102022218D01*
X116203166Y-102021607D01*
X116235950Y-102004175D01*
X116241371Y-102001365D01*
X116263154Y-102007973D01*
X116400000Y-102021451D01*
X118100000Y-102021451D01*
X118236846Y-102007973D01*
X118368434Y-101968056D01*
X118489705Y-101903235D01*
X118596001Y-101816001D01*
X118683235Y-101709705D01*
X118748056Y-101588434D01*
X118787973Y-101456846D01*
X118801451Y-101320000D01*
X118801451Y-100520000D01*
X118787973Y-100383154D01*
X118748056Y-100251566D01*
X118683235Y-100130295D01*
X118596001Y-100023999D01*
X118489705Y-99936765D01*
X118368434Y-99871944D01*
X118236846Y-99832027D01*
X118100000Y-99818549D01*
X116400000Y-99818549D01*
X116263154Y-99832027D01*
X116131566Y-99871944D01*
X116010295Y-99936765D01*
X115903999Y-100023999D01*
X115816765Y-100130295D01*
X115751944Y-100251566D01*
X115712027Y-100383154D01*
X115698549Y-100520000D01*
X115698549Y-101250000D01*
X114848528Y-101250000D01*
X114782478Y-101183950D01*
X114684207Y-101118287D01*
X114575014Y-101073058D01*
X114459095Y-101050000D01*
X114340905Y-101050000D01*
X114224986Y-101073058D01*
X114115793Y-101118287D01*
X114017522Y-101183950D01*
X113933950Y-101267522D01*
X113868287Y-101365793D01*
X113823058Y-101474986D01*
X113800000Y-101590905D01*
X103927237Y-101590905D01*
X103931713Y-101584207D01*
X103976942Y-101475014D01*
X104000000Y-101359095D01*
X104000000Y-101240905D01*
X103976942Y-101124986D01*
X103931713Y-101015793D01*
X103866050Y-100917522D01*
X103782478Y-100833950D01*
X103684207Y-100768287D01*
X103575014Y-100723058D01*
X103459095Y-100700000D01*
X103365685Y-100700000D01*
X103225656Y-100559972D01*
X103236840Y-100543234D01*
X103282069Y-100434041D01*
X103305127Y-100318122D01*
X103305127Y-100199932D01*
X103282069Y-100084013D01*
X103236840Y-99974820D01*
X103171177Y-99876549D01*
X103087605Y-99792977D01*
X102989334Y-99727314D01*
X102880141Y-99682085D01*
X102764222Y-99659027D01*
X102646032Y-99659027D01*
X102530113Y-99682085D01*
X102420920Y-99727314D01*
X102322649Y-99792977D01*
X102239077Y-99876549D01*
X102173414Y-99974820D01*
X102128185Y-100084013D01*
X102105127Y-100199932D01*
X91830397Y-100199932D01*
X92655330Y-99375000D01*
X118481662Y-99375000D01*
X118621045Y-99388667D01*
M02*
