G04 #@! TF.GenerationSoftware,KiCad,Pcbnew,no-vcs-found-826efab~61~ubuntu16.04.1*
G04 #@! TF.CreationDate,2018-02-09T13:54:05+01:00*
G04 #@! TF.ProjectId,ubmp_v1r1,75626D705F763172312E6B696361645F,rev?*
G04 #@! TF.SameCoordinates,Original*
G04 #@! TF.FileFunction,Copper,L1,Top,Signal*
G04 #@! TF.FilePolarity,Positive*
%FSLAX46Y46*%
G04 Gerber Fmt 4.6, Leading zero omitted, Abs format (unit mm)*
G04 Created by KiCad (PCBNEW no-vcs-found-826efab~61~ubuntu16.04.1) date Fri Feb  9 13:54:05 2018*
%MOMM*%
%LPD*%
G01*
G04 APERTURE LIST*
%ADD10C,0.100000*%
%ADD11C,2.000000*%
%ADD12C,1.600000*%
%ADD13R,0.650000X0.575000*%
%ADD14R,0.575000X0.650000*%
%ADD15R,0.670000X1.000000*%
%ADD16R,0.250000X0.700000*%
%ADD17R,0.700000X0.250000*%
%ADD18R,5.150000X5.150000*%
%ADD19R,0.650000X1.060000*%
%ADD20O,0.400000X1.900000*%
%ADD21C,0.600000*%
%ADD22C,0.200000*%
%ADD23C,0.600000*%
%ADD24C,1.000000*%
G04 APERTURE END LIST*
D10*
G36*
X88049009Y-103852408D02*
X88097545Y-103859607D01*
X88145142Y-103871530D01*
X88191342Y-103888060D01*
X88235698Y-103909039D01*
X88277785Y-103934265D01*
X88317197Y-103963495D01*
X88353553Y-103996447D01*
X88386505Y-104032803D01*
X88415735Y-104072215D01*
X88440961Y-104114302D01*
X88461940Y-104158658D01*
X88478470Y-104204858D01*
X88490393Y-104252455D01*
X88497592Y-104300991D01*
X88500000Y-104350000D01*
X88500000Y-105350000D01*
X88497592Y-105399009D01*
X88490393Y-105447545D01*
X88478470Y-105495142D01*
X88461940Y-105541342D01*
X88440961Y-105585698D01*
X88415735Y-105627785D01*
X88386505Y-105667197D01*
X88353553Y-105703553D01*
X88317197Y-105736505D01*
X88277785Y-105765735D01*
X88235698Y-105790961D01*
X88191342Y-105811940D01*
X88145142Y-105828470D01*
X88097545Y-105840393D01*
X88049009Y-105847592D01*
X88000000Y-105850000D01*
X81000000Y-105850000D01*
X80950991Y-105847592D01*
X80902455Y-105840393D01*
X80854858Y-105828470D01*
X80808658Y-105811940D01*
X80764302Y-105790961D01*
X80722215Y-105765735D01*
X80682803Y-105736505D01*
X80646447Y-105703553D01*
X80613495Y-105667197D01*
X80584265Y-105627785D01*
X80559039Y-105585698D01*
X80538060Y-105541342D01*
X80521530Y-105495142D01*
X80509607Y-105447545D01*
X80502408Y-105399009D01*
X80500000Y-105350000D01*
X80500000Y-104350000D01*
X80502408Y-104300991D01*
X80509607Y-104252455D01*
X80521530Y-104204858D01*
X80538060Y-104158658D01*
X80559039Y-104114302D01*
X80584265Y-104072215D01*
X80613495Y-104032803D01*
X80646447Y-103996447D01*
X80682803Y-103963495D01*
X80722215Y-103934265D01*
X80764302Y-103909039D01*
X80808658Y-103888060D01*
X80854858Y-103871530D01*
X80902455Y-103859607D01*
X80950991Y-103852408D01*
X81000000Y-103850000D01*
X88000000Y-103850000D01*
X88049009Y-103852408D01*
X88049009Y-103852408D01*
G37*
D11*
X84500000Y-104850000D03*
D10*
G36*
X88049009Y-106152408D02*
X88097545Y-106159607D01*
X88145142Y-106171530D01*
X88191342Y-106188060D01*
X88235698Y-106209039D01*
X88277785Y-106234265D01*
X88317197Y-106263495D01*
X88353553Y-106296447D01*
X88386505Y-106332803D01*
X88415735Y-106372215D01*
X88440961Y-106414302D01*
X88461940Y-106458658D01*
X88478470Y-106504858D01*
X88490393Y-106552455D01*
X88497592Y-106600991D01*
X88500000Y-106650000D01*
X88500000Y-107650000D01*
X88497592Y-107699009D01*
X88490393Y-107747545D01*
X88478470Y-107795142D01*
X88461940Y-107841342D01*
X88440961Y-107885698D01*
X88415735Y-107927785D01*
X88386505Y-107967197D01*
X88353553Y-108003553D01*
X88317197Y-108036505D01*
X88277785Y-108065735D01*
X88235698Y-108090961D01*
X88191342Y-108111940D01*
X88145142Y-108128470D01*
X88097545Y-108140393D01*
X88049009Y-108147592D01*
X88000000Y-108150000D01*
X81000000Y-108150000D01*
X80950991Y-108147592D01*
X80902455Y-108140393D01*
X80854858Y-108128470D01*
X80808658Y-108111940D01*
X80764302Y-108090961D01*
X80722215Y-108065735D01*
X80682803Y-108036505D01*
X80646447Y-108003553D01*
X80613495Y-107967197D01*
X80584265Y-107927785D01*
X80559039Y-107885698D01*
X80538060Y-107841342D01*
X80521530Y-107795142D01*
X80509607Y-107747545D01*
X80502408Y-107699009D01*
X80500000Y-107650000D01*
X80500000Y-106650000D01*
X80502408Y-106600991D01*
X80509607Y-106552455D01*
X80521530Y-106504858D01*
X80538060Y-106458658D01*
X80559039Y-106414302D01*
X80584265Y-106372215D01*
X80613495Y-106332803D01*
X80646447Y-106296447D01*
X80682803Y-106263495D01*
X80722215Y-106234265D01*
X80764302Y-106209039D01*
X80808658Y-106188060D01*
X80854858Y-106171530D01*
X80902455Y-106159607D01*
X80950991Y-106152408D01*
X81000000Y-106150000D01*
X88000000Y-106150000D01*
X88049009Y-106152408D01*
X88049009Y-106152408D01*
G37*
D11*
X84500000Y-107150000D03*
D10*
G36*
X88049009Y-101502408D02*
X88097545Y-101509607D01*
X88145142Y-101521530D01*
X88191342Y-101538060D01*
X88235698Y-101559039D01*
X88277785Y-101584265D01*
X88317197Y-101613495D01*
X88353553Y-101646447D01*
X88386505Y-101682803D01*
X88415735Y-101722215D01*
X88440961Y-101764302D01*
X88461940Y-101808658D01*
X88478470Y-101854858D01*
X88490393Y-101902455D01*
X88497592Y-101950991D01*
X88500000Y-102000000D01*
X88500000Y-103000000D01*
X88497592Y-103049009D01*
X88490393Y-103097545D01*
X88478470Y-103145142D01*
X88461940Y-103191342D01*
X88440961Y-103235698D01*
X88415735Y-103277785D01*
X88386505Y-103317197D01*
X88353553Y-103353553D01*
X88317197Y-103386505D01*
X88277785Y-103415735D01*
X88235698Y-103440961D01*
X88191342Y-103461940D01*
X88145142Y-103478470D01*
X88097545Y-103490393D01*
X88049009Y-103497592D01*
X88000000Y-103500000D01*
X80000000Y-103500000D01*
X79950991Y-103497592D01*
X79902455Y-103490393D01*
X79854858Y-103478470D01*
X79808658Y-103461940D01*
X79764302Y-103440961D01*
X79722215Y-103415735D01*
X79682803Y-103386505D01*
X79646447Y-103353553D01*
X79613495Y-103317197D01*
X79584265Y-103277785D01*
X79559039Y-103235698D01*
X79538060Y-103191342D01*
X79521530Y-103145142D01*
X79509607Y-103097545D01*
X79502408Y-103049009D01*
X79500000Y-103000000D01*
X79500000Y-102000000D01*
X79502408Y-101950991D01*
X79509607Y-101902455D01*
X79521530Y-101854858D01*
X79538060Y-101808658D01*
X79559039Y-101764302D01*
X79584265Y-101722215D01*
X79613495Y-101682803D01*
X79646447Y-101646447D01*
X79682803Y-101613495D01*
X79722215Y-101584265D01*
X79764302Y-101559039D01*
X79808658Y-101538060D01*
X79854858Y-101521530D01*
X79902455Y-101509607D01*
X79950991Y-101502408D01*
X80000000Y-101500000D01*
X88000000Y-101500000D01*
X88049009Y-101502408D01*
X88049009Y-101502408D01*
G37*
D11*
X84000000Y-102500000D03*
D10*
G36*
X88049009Y-108502408D02*
X88097545Y-108509607D01*
X88145142Y-108521530D01*
X88191342Y-108538060D01*
X88235698Y-108559039D01*
X88277785Y-108584265D01*
X88317197Y-108613495D01*
X88353553Y-108646447D01*
X88386505Y-108682803D01*
X88415735Y-108722215D01*
X88440961Y-108764302D01*
X88461940Y-108808658D01*
X88478470Y-108854858D01*
X88490393Y-108902455D01*
X88497592Y-108950991D01*
X88500000Y-109000000D01*
X88500000Y-110000000D01*
X88497592Y-110049009D01*
X88490393Y-110097545D01*
X88478470Y-110145142D01*
X88461940Y-110191342D01*
X88440961Y-110235698D01*
X88415735Y-110277785D01*
X88386505Y-110317197D01*
X88353553Y-110353553D01*
X88317197Y-110386505D01*
X88277785Y-110415735D01*
X88235698Y-110440961D01*
X88191342Y-110461940D01*
X88145142Y-110478470D01*
X88097545Y-110490393D01*
X88049009Y-110497592D01*
X88000000Y-110500000D01*
X80000000Y-110500000D01*
X79950991Y-110497592D01*
X79902455Y-110490393D01*
X79854858Y-110478470D01*
X79808658Y-110461940D01*
X79764302Y-110440961D01*
X79722215Y-110415735D01*
X79682803Y-110386505D01*
X79646447Y-110353553D01*
X79613495Y-110317197D01*
X79584265Y-110277785D01*
X79559039Y-110235698D01*
X79538060Y-110191342D01*
X79521530Y-110145142D01*
X79509607Y-110097545D01*
X79502408Y-110049009D01*
X79500000Y-110000000D01*
X79500000Y-109000000D01*
X79502408Y-108950991D01*
X79509607Y-108902455D01*
X79521530Y-108854858D01*
X79538060Y-108808658D01*
X79559039Y-108764302D01*
X79584265Y-108722215D01*
X79613495Y-108682803D01*
X79646447Y-108646447D01*
X79682803Y-108613495D01*
X79722215Y-108584265D01*
X79764302Y-108559039D01*
X79808658Y-108538060D01*
X79854858Y-108521530D01*
X79902455Y-108509607D01*
X79950991Y-108502408D01*
X80000000Y-108500000D01*
X88000000Y-108500000D01*
X88049009Y-108502408D01*
X88049009Y-108502408D01*
G37*
D11*
X84000000Y-109500000D03*
D10*
G36*
X118139207Y-107741926D02*
X118178036Y-107747686D01*
X118216114Y-107757224D01*
X118253073Y-107770448D01*
X118288559Y-107787231D01*
X118322228Y-107807412D01*
X118353757Y-107830796D01*
X118382843Y-107857157D01*
X118409204Y-107886243D01*
X118432588Y-107917772D01*
X118452769Y-107951441D01*
X118469552Y-107986927D01*
X118482776Y-108023886D01*
X118492314Y-108061964D01*
X118498074Y-108100793D01*
X118500000Y-108140000D01*
X118500000Y-108940000D01*
X118498074Y-108979207D01*
X118492314Y-109018036D01*
X118482776Y-109056114D01*
X118469552Y-109093073D01*
X118452769Y-109128559D01*
X118432588Y-109162228D01*
X118409204Y-109193757D01*
X118382843Y-109222843D01*
X118353757Y-109249204D01*
X118322228Y-109272588D01*
X118288559Y-109292769D01*
X118253073Y-109309552D01*
X118216114Y-109322776D01*
X118178036Y-109332314D01*
X118139207Y-109338074D01*
X118100000Y-109340000D01*
X116400000Y-109340000D01*
X116360793Y-109338074D01*
X116321964Y-109332314D01*
X116283886Y-109322776D01*
X116246927Y-109309552D01*
X116211441Y-109292769D01*
X116177772Y-109272588D01*
X116146243Y-109249204D01*
X116117157Y-109222843D01*
X116090796Y-109193757D01*
X116067412Y-109162228D01*
X116047231Y-109128559D01*
X116030448Y-109093073D01*
X116017224Y-109056114D01*
X116007686Y-109018036D01*
X116001926Y-108979207D01*
X116000000Y-108940000D01*
X116000000Y-108140000D01*
X116001926Y-108100793D01*
X116007686Y-108061964D01*
X116017224Y-108023886D01*
X116030448Y-107986927D01*
X116047231Y-107951441D01*
X116067412Y-107917772D01*
X116090796Y-107886243D01*
X116117157Y-107857157D01*
X116146243Y-107830796D01*
X116177772Y-107807412D01*
X116211441Y-107787231D01*
X116246927Y-107770448D01*
X116283886Y-107757224D01*
X116321964Y-107747686D01*
X116360793Y-107741926D01*
X116400000Y-107740000D01*
X118100000Y-107740000D01*
X118139207Y-107741926D01*
X118139207Y-107741926D01*
G37*
D12*
X117250000Y-108540000D03*
D10*
G36*
X118139207Y-102661926D02*
X118178036Y-102667686D01*
X118216114Y-102677224D01*
X118253073Y-102690448D01*
X118288559Y-102707231D01*
X118322228Y-102727412D01*
X118353757Y-102750796D01*
X118382843Y-102777157D01*
X118409204Y-102806243D01*
X118432588Y-102837772D01*
X118452769Y-102871441D01*
X118469552Y-102906927D01*
X118482776Y-102943886D01*
X118492314Y-102981964D01*
X118498074Y-103020793D01*
X118500000Y-103060000D01*
X118500000Y-103860000D01*
X118498074Y-103899207D01*
X118492314Y-103938036D01*
X118482776Y-103976114D01*
X118469552Y-104013073D01*
X118452769Y-104048559D01*
X118432588Y-104082228D01*
X118409204Y-104113757D01*
X118382843Y-104142843D01*
X118353757Y-104169204D01*
X118322228Y-104192588D01*
X118288559Y-104212769D01*
X118253073Y-104229552D01*
X118216114Y-104242776D01*
X118178036Y-104252314D01*
X118139207Y-104258074D01*
X118100000Y-104260000D01*
X116400000Y-104260000D01*
X116360793Y-104258074D01*
X116321964Y-104252314D01*
X116283886Y-104242776D01*
X116246927Y-104229552D01*
X116211441Y-104212769D01*
X116177772Y-104192588D01*
X116146243Y-104169204D01*
X116117157Y-104142843D01*
X116090796Y-104113757D01*
X116067412Y-104082228D01*
X116047231Y-104048559D01*
X116030448Y-104013073D01*
X116017224Y-103976114D01*
X116007686Y-103938036D01*
X116001926Y-103899207D01*
X116000000Y-103860000D01*
X116000000Y-103060000D01*
X116001926Y-103020793D01*
X116007686Y-102981964D01*
X116017224Y-102943886D01*
X116030448Y-102906927D01*
X116047231Y-102871441D01*
X116067412Y-102837772D01*
X116090796Y-102806243D01*
X116117157Y-102777157D01*
X116146243Y-102750796D01*
X116177772Y-102727412D01*
X116211441Y-102707231D01*
X116246927Y-102690448D01*
X116283886Y-102677224D01*
X116321964Y-102667686D01*
X116360793Y-102661926D01*
X116400000Y-102660000D01*
X118100000Y-102660000D01*
X118139207Y-102661926D01*
X118139207Y-102661926D01*
G37*
D12*
X117250000Y-103460000D03*
D10*
G36*
X118139207Y-110281926D02*
X118178036Y-110287686D01*
X118216114Y-110297224D01*
X118253073Y-110310448D01*
X118288559Y-110327231D01*
X118322228Y-110347412D01*
X118353757Y-110370796D01*
X118382843Y-110397157D01*
X118409204Y-110426243D01*
X118432588Y-110457772D01*
X118452769Y-110491441D01*
X118469552Y-110526927D01*
X118482776Y-110563886D01*
X118492314Y-110601964D01*
X118498074Y-110640793D01*
X118500000Y-110680000D01*
X118500000Y-111480000D01*
X118498074Y-111519207D01*
X118492314Y-111558036D01*
X118482776Y-111596114D01*
X118469552Y-111633073D01*
X118452769Y-111668559D01*
X118432588Y-111702228D01*
X118409204Y-111733757D01*
X118382843Y-111762843D01*
X118353757Y-111789204D01*
X118322228Y-111812588D01*
X118288559Y-111832769D01*
X118253073Y-111849552D01*
X118216114Y-111862776D01*
X118178036Y-111872314D01*
X118139207Y-111878074D01*
X118100000Y-111880000D01*
X116400000Y-111880000D01*
X116360793Y-111878074D01*
X116321964Y-111872314D01*
X116283886Y-111862776D01*
X116246927Y-111849552D01*
X116211441Y-111832769D01*
X116177772Y-111812588D01*
X116146243Y-111789204D01*
X116117157Y-111762843D01*
X116090796Y-111733757D01*
X116067412Y-111702228D01*
X116047231Y-111668559D01*
X116030448Y-111633073D01*
X116017224Y-111596114D01*
X116007686Y-111558036D01*
X116001926Y-111519207D01*
X116000000Y-111480000D01*
X116000000Y-110680000D01*
X116001926Y-110640793D01*
X116007686Y-110601964D01*
X116017224Y-110563886D01*
X116030448Y-110526927D01*
X116047231Y-110491441D01*
X116067412Y-110457772D01*
X116090796Y-110426243D01*
X116117157Y-110397157D01*
X116146243Y-110370796D01*
X116177772Y-110347412D01*
X116211441Y-110327231D01*
X116246927Y-110310448D01*
X116283886Y-110297224D01*
X116321964Y-110287686D01*
X116360793Y-110281926D01*
X116400000Y-110280000D01*
X118100000Y-110280000D01*
X118139207Y-110281926D01*
X118139207Y-110281926D01*
G37*
D12*
X117250000Y-111080000D03*
D10*
G36*
X118139207Y-100121926D02*
X118178036Y-100127686D01*
X118216114Y-100137224D01*
X118253073Y-100150448D01*
X118288559Y-100167231D01*
X118322228Y-100187412D01*
X118353757Y-100210796D01*
X118382843Y-100237157D01*
X118409204Y-100266243D01*
X118432588Y-100297772D01*
X118452769Y-100331441D01*
X118469552Y-100366927D01*
X118482776Y-100403886D01*
X118492314Y-100441964D01*
X118498074Y-100480793D01*
X118500000Y-100520000D01*
X118500000Y-101320000D01*
X118498074Y-101359207D01*
X118492314Y-101398036D01*
X118482776Y-101436114D01*
X118469552Y-101473073D01*
X118452769Y-101508559D01*
X118432588Y-101542228D01*
X118409204Y-101573757D01*
X118382843Y-101602843D01*
X118353757Y-101629204D01*
X118322228Y-101652588D01*
X118288559Y-101672769D01*
X118253073Y-101689552D01*
X118216114Y-101702776D01*
X118178036Y-101712314D01*
X118139207Y-101718074D01*
X118100000Y-101720000D01*
X116400000Y-101720000D01*
X116360793Y-101718074D01*
X116321964Y-101712314D01*
X116283886Y-101702776D01*
X116246927Y-101689552D01*
X116211441Y-101672769D01*
X116177772Y-101652588D01*
X116146243Y-101629204D01*
X116117157Y-101602843D01*
X116090796Y-101573757D01*
X116067412Y-101542228D01*
X116047231Y-101508559D01*
X116030448Y-101473073D01*
X116017224Y-101436114D01*
X116007686Y-101398036D01*
X116001926Y-101359207D01*
X116000000Y-101320000D01*
X116000000Y-100520000D01*
X116001926Y-100480793D01*
X116007686Y-100441964D01*
X116017224Y-100403886D01*
X116030448Y-100366927D01*
X116047231Y-100331441D01*
X116067412Y-100297772D01*
X116090796Y-100266243D01*
X116117157Y-100237157D01*
X116146243Y-100210796D01*
X116177772Y-100187412D01*
X116211441Y-100167231D01*
X116246927Y-100150448D01*
X116283886Y-100137224D01*
X116321964Y-100127686D01*
X116360793Y-100121926D01*
X116400000Y-100120000D01*
X118100000Y-100120000D01*
X118139207Y-100121926D01*
X118139207Y-100121926D01*
G37*
D12*
X117250000Y-100920000D03*
D10*
G36*
X118139207Y-105201926D02*
X118178036Y-105207686D01*
X118216114Y-105217224D01*
X118253073Y-105230448D01*
X118288559Y-105247231D01*
X118322228Y-105267412D01*
X118353757Y-105290796D01*
X118382843Y-105317157D01*
X118409204Y-105346243D01*
X118432588Y-105377772D01*
X118452769Y-105411441D01*
X118469552Y-105446927D01*
X118482776Y-105483886D01*
X118492314Y-105521964D01*
X118498074Y-105560793D01*
X118500000Y-105600000D01*
X118500000Y-106400000D01*
X118498074Y-106439207D01*
X118492314Y-106478036D01*
X118482776Y-106516114D01*
X118469552Y-106553073D01*
X118452769Y-106588559D01*
X118432588Y-106622228D01*
X118409204Y-106653757D01*
X118382843Y-106682843D01*
X118353757Y-106709204D01*
X118322228Y-106732588D01*
X118288559Y-106752769D01*
X118253073Y-106769552D01*
X118216114Y-106782776D01*
X118178036Y-106792314D01*
X118139207Y-106798074D01*
X118100000Y-106800000D01*
X116400000Y-106800000D01*
X116360793Y-106798074D01*
X116321964Y-106792314D01*
X116283886Y-106782776D01*
X116246927Y-106769552D01*
X116211441Y-106752769D01*
X116177772Y-106732588D01*
X116146243Y-106709204D01*
X116117157Y-106682843D01*
X116090796Y-106653757D01*
X116067412Y-106622228D01*
X116047231Y-106588559D01*
X116030448Y-106553073D01*
X116017224Y-106516114D01*
X116007686Y-106478036D01*
X116001926Y-106439207D01*
X116000000Y-106400000D01*
X116000000Y-105600000D01*
X116001926Y-105560793D01*
X116007686Y-105521964D01*
X116017224Y-105483886D01*
X116030448Y-105446927D01*
X116047231Y-105411441D01*
X116067412Y-105377772D01*
X116090796Y-105346243D01*
X116117157Y-105317157D01*
X116146243Y-105290796D01*
X116177772Y-105267412D01*
X116211441Y-105247231D01*
X116246927Y-105230448D01*
X116283886Y-105217224D01*
X116321964Y-105207686D01*
X116360793Y-105201926D01*
X116400000Y-105200000D01*
X118100000Y-105200000D01*
X118139207Y-105201926D01*
X118139207Y-105201926D01*
G37*
D12*
X117250000Y-106000000D03*
D13*
X106000000Y-111587500D03*
X106000000Y-110812500D03*
D14*
X97112500Y-103300000D03*
X97887500Y-103300000D03*
X97900000Y-108250000D03*
X97125000Y-108250000D03*
X108887500Y-103250000D03*
X108112500Y-103250000D03*
D15*
X95125000Y-109400000D03*
X93375000Y-109400000D03*
X95125000Y-104000000D03*
X93375000Y-104000000D03*
X93250000Y-112000000D03*
X95000000Y-112000000D03*
X95000000Y-100000000D03*
X93250000Y-100000000D03*
D14*
X96875000Y-112000000D03*
X96100000Y-112000000D03*
X97875000Y-100000000D03*
X97100000Y-100000000D03*
X108112500Y-110000000D03*
X108887500Y-110000000D03*
X108887500Y-109000000D03*
X108112500Y-109000000D03*
X108887500Y-106000000D03*
X108112500Y-106000000D03*
D13*
X104500000Y-110812500D03*
X104500000Y-111587500D03*
D14*
X97112500Y-106200000D03*
X97887500Y-106200000D03*
D13*
X99200000Y-111587500D03*
X99200000Y-110812500D03*
D14*
X108112500Y-105000000D03*
X108887500Y-105000000D03*
X108112500Y-101250000D03*
X108887500Y-101250000D03*
X108112500Y-108000000D03*
X108887500Y-108000000D03*
X108887500Y-107000000D03*
X108112500Y-107000000D03*
X108887500Y-102250000D03*
X108112500Y-102250000D03*
X97112500Y-104300000D03*
X97887500Y-104300000D03*
X97887500Y-101000000D03*
X97112500Y-101000000D03*
X97112500Y-102000000D03*
X97887500Y-102000000D03*
D16*
X100250000Y-108900000D03*
X100750000Y-108900000D03*
X101250000Y-108900000D03*
X101750000Y-108900000D03*
X102250000Y-108900000D03*
X102750000Y-108900000D03*
X103250000Y-108900000D03*
X103750000Y-108900000D03*
X104250000Y-108900000D03*
X104750000Y-108900000D03*
X105250000Y-108900000D03*
X105750000Y-108900000D03*
D17*
X106400000Y-108250000D03*
X106400000Y-107750000D03*
X106400000Y-107250000D03*
X106400000Y-106750000D03*
X106400000Y-106250000D03*
X106400000Y-105750000D03*
X106400000Y-105250000D03*
X106400000Y-104750000D03*
X106400000Y-104250000D03*
X106400000Y-103750000D03*
X106400000Y-103250000D03*
X106400000Y-102750000D03*
D16*
X105750000Y-102100000D03*
X105250000Y-102100000D03*
X104750000Y-102100000D03*
X104250000Y-102100000D03*
X103750000Y-102100000D03*
X103250000Y-102100000D03*
X102750000Y-102100000D03*
X102250000Y-102100000D03*
X101750000Y-102100000D03*
X101250000Y-102100000D03*
X100750000Y-102100000D03*
X100250000Y-102100000D03*
D17*
X99600000Y-102750000D03*
X99600000Y-103250000D03*
X99600000Y-103750000D03*
X99600000Y-104250000D03*
X99600000Y-104750000D03*
X99600000Y-105250000D03*
X99600000Y-105750000D03*
X99600000Y-106250000D03*
X99600000Y-106750000D03*
X99600000Y-107250000D03*
X99600000Y-107750000D03*
X99600000Y-108250000D03*
D18*
X103000000Y-105500000D03*
D19*
X93300000Y-107800000D03*
X94250000Y-107800000D03*
X95200000Y-107800000D03*
X95200000Y-105600000D03*
X93300000Y-105600000D03*
D20*
X100900000Y-111200000D03*
X102100000Y-111200000D03*
X103300000Y-111200000D03*
D21*
X97900000Y-107499998D03*
X98600000Y-105300000D03*
X107300000Y-102600000D03*
X106900000Y-110800000D03*
X96000000Y-109400000D03*
X92500000Y-104000006D03*
X118800000Y-99700000D03*
X118800000Y-104800000D03*
X118800000Y-107200000D03*
X118800000Y-112300000D03*
X108100000Y-99700000D03*
X91300000Y-108600000D03*
X91300000Y-110400000D03*
X98800000Y-108900000D03*
X107600000Y-111400000D03*
X107300000Y-104400000D03*
X110400000Y-101200000D03*
X103600000Y-99700000D03*
X110400000Y-108800000D03*
X110300000Y-106800000D03*
X118800000Y-109800000D03*
X118800000Y-102100000D03*
X92600000Y-101300000D03*
X91400000Y-101500000D03*
X94100000Y-112000000D03*
X108900000Y-104100000D03*
X97100000Y-107400000D03*
X94200000Y-106600000D03*
X94700000Y-102800000D03*
X92200000Y-100400000D03*
X101599996Y-112200000D03*
X98300000Y-111600000D03*
X100200000Y-100900000D03*
X105204969Y-110200000D03*
X114800000Y-112300000D03*
X95900000Y-107800000D03*
X97600000Y-110600000D03*
X92500000Y-107800000D03*
X91600014Y-102500000D03*
X93399978Y-102500000D03*
X101100000Y-101000004D03*
X99599264Y-102349265D03*
X97600000Y-112000000D03*
X100100000Y-110200000D03*
X102705127Y-100259027D03*
X103400000Y-101300000D03*
X114400000Y-101650000D03*
X115075735Y-109375735D03*
X114825735Y-104625735D03*
X114700000Y-107200000D03*
D22*
X106900000Y-110800000D02*
X106900000Y-111900000D01*
X106600000Y-112200000D02*
X104625000Y-112200000D01*
X104500000Y-112075000D02*
X104500000Y-111587500D01*
X106900000Y-111900000D02*
X106600000Y-112200000D01*
X104625000Y-112200000D02*
X104500000Y-112075000D01*
X98375000Y-103300000D02*
X97887500Y-103300000D01*
X100250000Y-101650000D02*
X100100000Y-101500000D01*
X100100000Y-101500000D02*
X99600000Y-101500000D01*
X100250000Y-102100000D02*
X100250000Y-101650000D01*
X99600000Y-101500000D02*
X98949999Y-102150001D01*
X98949999Y-102150001D02*
X98949999Y-102725001D01*
X98949999Y-102725001D02*
X98375000Y-103300000D01*
X97900000Y-108250000D02*
X97900000Y-107499998D01*
D23*
X97800000Y-105300000D02*
X98175736Y-105300000D01*
D22*
X97887500Y-105212500D02*
X97800000Y-105300000D01*
D23*
X96776458Y-105300000D02*
X97800000Y-105300000D01*
D22*
X97887500Y-104300000D02*
X97887500Y-105212500D01*
D23*
X95125000Y-104000000D02*
X95476458Y-104000000D01*
X95476458Y-104000000D02*
X96776458Y-105300000D01*
X98175736Y-105300000D02*
X98600000Y-105300000D01*
X93300000Y-105600000D02*
X93525000Y-105600000D01*
X93525000Y-105600000D02*
X95125000Y-104000000D01*
D22*
X97887500Y-104300000D02*
X97887500Y-103300000D01*
X107650000Y-103250000D02*
X107300000Y-102900000D01*
X107300000Y-102900000D02*
X107300000Y-102600000D01*
X107300000Y-102900000D02*
X107150000Y-102750000D01*
X106887500Y-110812500D02*
X106900000Y-110800000D01*
X106000000Y-110812500D02*
X106887500Y-110812500D01*
X99600000Y-108575000D02*
X99600000Y-108250000D01*
X100250000Y-108900000D02*
X99925000Y-108900000D01*
X99925000Y-108900000D02*
X99600000Y-108575000D01*
X97900000Y-108250000D02*
X99600000Y-108250000D01*
X108112500Y-103250000D02*
X107650000Y-103250000D01*
X107150000Y-102750000D02*
X106400000Y-102750000D01*
X104250000Y-109350000D02*
X104500000Y-109600000D01*
X104500000Y-109600000D02*
X105500000Y-109600000D01*
X105500000Y-109600000D02*
X106000000Y-110100000D01*
X104250000Y-108900000D02*
X104250000Y-109350000D01*
X106000000Y-110100000D02*
X106000000Y-110812500D01*
X95125000Y-109400000D02*
X96000000Y-109400000D01*
X92500006Y-104000000D02*
X92500000Y-104000006D01*
X92600000Y-104000000D02*
X92500006Y-104000000D01*
X93375000Y-104000000D02*
X92600000Y-104000000D01*
D24*
X91100000Y-101500000D02*
X90100000Y-102500000D01*
X91400000Y-101500000D02*
X91100000Y-101500000D01*
X90100000Y-102500000D02*
X84000000Y-102500000D01*
D22*
X93250000Y-100650000D02*
X92600000Y-101300000D01*
X93250000Y-100000000D02*
X93250000Y-100650000D01*
X93250000Y-112000000D02*
X94100000Y-112000000D01*
X108887500Y-104087500D02*
X108900000Y-104100000D01*
X108887500Y-103250000D02*
X108887500Y-104087500D01*
X97125000Y-107425000D02*
X97100000Y-107400000D01*
X97125000Y-108250000D02*
X97125000Y-107425000D01*
X94250000Y-106650000D02*
X94200000Y-106600000D01*
X94250000Y-107800000D02*
X94250000Y-106650000D01*
X97125001Y-102674999D02*
X97100000Y-102700000D01*
X98487500Y-102552502D02*
X98365003Y-102674999D01*
X100200000Y-101100000D02*
X99434300Y-101100000D01*
X98365003Y-102674999D02*
X97125001Y-102674999D01*
X98487500Y-102046800D02*
X98487500Y-102552502D01*
X99434300Y-101100000D02*
X98487500Y-102046800D01*
X97100000Y-102700000D02*
X97112500Y-102712500D01*
X97112500Y-102712500D02*
X97112500Y-103300000D01*
X92600000Y-100000000D02*
X92200000Y-100400000D01*
X93250000Y-100000000D02*
X92600000Y-100000000D01*
X102100000Y-111900000D02*
X101800000Y-112200000D01*
X102100000Y-111200000D02*
X102100000Y-111900000D01*
X101800000Y-112200000D02*
X101599996Y-112200000D01*
X98312500Y-111587500D02*
X98300000Y-111600000D01*
X99200000Y-111587500D02*
X98312500Y-111587500D01*
X100300000Y-101100000D02*
X100200000Y-101100000D01*
X100200000Y-101100000D02*
X100200000Y-100900000D01*
X104500000Y-110200000D02*
X105204969Y-110200000D01*
X104200000Y-109900000D02*
X104500000Y-110200000D01*
X100750000Y-102100000D02*
X100750000Y-101550000D01*
X100750000Y-101550000D02*
X100300000Y-101100000D01*
X103750000Y-109450000D02*
X104200000Y-109900000D01*
X103750000Y-108900000D02*
X103750000Y-109450000D01*
X99600000Y-107750000D02*
X100750000Y-107750000D01*
X100750000Y-107750000D02*
X103000000Y-105500000D01*
X103750000Y-108900000D02*
X103750000Y-106250000D01*
X103750000Y-106250000D02*
X103000000Y-105500000D01*
X106400000Y-103250000D02*
X105250000Y-103250000D01*
X105250000Y-103250000D02*
X103000000Y-105500000D01*
X100750000Y-104050000D02*
X102200000Y-105500000D01*
X100750000Y-102100000D02*
X100750000Y-104050000D01*
X102200000Y-105500000D02*
X103000000Y-105500000D01*
D23*
X116820000Y-111080000D02*
X115600000Y-112300000D01*
X117250000Y-111080000D02*
X116820000Y-111080000D01*
X115600000Y-112300000D02*
X114800000Y-112300000D01*
X93100000Y-110000000D02*
X93700000Y-110600000D01*
X92625000Y-109525000D02*
X93100000Y-110000000D01*
X93375000Y-109400000D02*
X93375000Y-109725000D01*
X93375000Y-109725000D02*
X93100000Y-110000000D01*
X95200000Y-107800000D02*
X95900000Y-107800000D01*
X93700000Y-110600000D02*
X97600000Y-110600000D01*
X92625000Y-109500000D02*
X92625000Y-109525000D01*
X92500000Y-107800000D02*
X93300000Y-107800000D01*
X84000000Y-109500000D02*
X92625000Y-109500000D01*
X93300000Y-107800000D02*
X93300000Y-109475000D01*
X93300000Y-109475000D02*
X93375000Y-109550000D01*
D22*
X96100000Y-112000000D02*
X95000000Y-112000000D01*
X93988004Y-101000000D02*
X87838004Y-107150000D01*
X97112500Y-101000000D02*
X93988004Y-101000000D01*
X87838004Y-107150000D02*
X84500000Y-107150000D01*
X89550000Y-104850000D02*
X91600000Y-102800000D01*
X84500000Y-104850000D02*
X89550000Y-104850000D01*
X91600000Y-102800000D02*
X91600000Y-102500014D01*
X91600000Y-102500014D02*
X91600014Y-102500000D01*
X96025000Y-101400000D02*
X94200000Y-101400000D01*
X96625000Y-102000000D02*
X96025000Y-101400000D01*
X94200000Y-101400000D02*
X93399978Y-102200022D01*
X93399978Y-102200022D02*
X93399978Y-102500000D01*
X96625000Y-104300000D02*
X96400000Y-104075000D01*
X97112500Y-104300000D02*
X96625000Y-104300000D01*
X96400000Y-104075000D02*
X96400000Y-102225000D01*
X96400000Y-102225000D02*
X96625000Y-102000000D01*
X96625000Y-102000000D02*
X97112500Y-102000000D01*
X105750000Y-108900000D02*
X106075000Y-108900000D01*
X107175000Y-110000000D02*
X107625000Y-110000000D01*
X106075000Y-108900000D02*
X107175000Y-110000000D01*
X107625000Y-110000000D02*
X108112500Y-110000000D01*
X103111999Y-100699999D02*
X103700000Y-100699999D01*
X104050011Y-101049989D02*
X104000022Y-101000000D01*
X104000022Y-101000000D02*
X104000001Y-101000000D01*
X104000001Y-101000000D02*
X103700000Y-100699999D01*
X107475000Y-101100000D02*
X107625000Y-101250000D01*
X107475000Y-101100000D02*
X107465699Y-101100000D01*
X107465699Y-101100000D02*
X107415688Y-101049989D01*
X107415688Y-101049989D02*
X104050011Y-101049989D01*
X102750000Y-102100000D02*
X102750000Y-101061998D01*
X102750000Y-101061998D02*
X103111999Y-100699999D01*
X107625000Y-101250000D02*
X108112500Y-101250000D01*
X106400000Y-108250000D02*
X106950000Y-108250000D01*
X106950000Y-108250000D02*
X107700000Y-109000000D01*
X107700000Y-109000000D02*
X108112500Y-109000000D01*
X106950000Y-105750000D02*
X107700000Y-105000000D01*
X106400000Y-105750000D02*
X106950000Y-105750000D01*
X107700000Y-105000000D02*
X108112500Y-105000000D01*
X100800000Y-110450000D02*
X100800000Y-111200000D01*
X101700000Y-110000000D02*
X101250000Y-110000000D01*
X101250000Y-110000000D02*
X100800000Y-110450000D01*
X102250000Y-108900000D02*
X102250000Y-109450000D01*
X102250000Y-109450000D02*
X101700000Y-110000000D01*
X102750000Y-108900000D02*
X102750000Y-110000000D01*
X102750000Y-110000000D02*
X103200000Y-110450000D01*
X103200000Y-110450000D02*
X103200000Y-111200000D01*
X98400000Y-101000000D02*
X99500000Y-99900000D01*
X97987500Y-101000000D02*
X98400000Y-101000000D01*
X99500000Y-99900000D02*
X101500000Y-99900000D01*
X101500000Y-99900000D02*
X102250000Y-100650000D01*
X102250000Y-101550000D02*
X102250000Y-102100000D01*
X102250000Y-100650000D02*
X102250000Y-101550000D01*
X101750000Y-100761996D02*
X101288004Y-100300000D01*
X101750000Y-102100000D02*
X101750000Y-100761996D01*
X101288004Y-100300000D02*
X99668600Y-100300000D01*
X99668600Y-100300000D02*
X97987500Y-101981100D01*
X97987500Y-101981100D02*
X97987500Y-102000000D01*
X101250000Y-102100000D02*
X101250000Y-101150004D01*
X101250000Y-101150004D02*
X101100000Y-101000004D01*
X99600000Y-102750000D02*
X99600000Y-102350001D01*
X99600000Y-102350001D02*
X99599264Y-102349265D01*
X97100000Y-100000000D02*
X95000000Y-100000000D01*
X97600000Y-112000000D02*
X96875000Y-112000000D01*
X101250000Y-109415699D02*
X100665699Y-110000000D01*
X101250000Y-108900000D02*
X101250000Y-109415699D01*
X100665699Y-110000000D02*
X100400000Y-110000000D01*
X100400000Y-110000000D02*
X100200000Y-110200000D01*
X100200000Y-110200000D02*
X100100000Y-110200000D01*
X97875000Y-99962500D02*
X98362500Y-99475000D01*
X97875000Y-100000000D02*
X97875000Y-99962500D01*
X98362500Y-99475000D02*
X101921100Y-99475000D01*
X101921100Y-99475000D02*
X102705127Y-100259027D01*
X103250000Y-101450000D02*
X103400000Y-101300000D01*
X103250000Y-102100000D02*
X103250000Y-101450000D01*
X107500000Y-106000000D02*
X108112500Y-106000000D01*
X107250000Y-106250000D02*
X107500000Y-106000000D01*
X106400000Y-106250000D02*
X107250000Y-106250000D01*
X107350000Y-106750000D02*
X107600000Y-107000000D01*
X107600000Y-107000000D02*
X108112500Y-107000000D01*
X106400000Y-106750000D02*
X107350000Y-106750000D01*
X103250000Y-108900000D02*
X103250000Y-109600000D01*
X103250000Y-109600000D02*
X104462500Y-110812500D01*
X104462500Y-110812500D02*
X104500000Y-110812500D01*
X99600000Y-106250000D02*
X97900000Y-106250000D01*
X99800000Y-109600000D02*
X99200000Y-110200000D01*
X99200000Y-110200000D02*
X99200000Y-110812500D01*
X100500000Y-109600000D02*
X99800000Y-109600000D01*
X100750000Y-109350000D02*
X100500000Y-109600000D01*
X100750000Y-108900000D02*
X100750000Y-109350000D01*
X114200010Y-101849990D02*
X114400000Y-101650000D01*
X109974990Y-101849990D02*
X114200010Y-101849990D01*
X108887500Y-101250000D02*
X109375000Y-101250000D01*
X109375000Y-101250000D02*
X109974990Y-101849990D01*
X114851470Y-109600000D02*
X115075735Y-109375735D01*
X109975000Y-109600000D02*
X114851470Y-109600000D01*
X108887500Y-109000000D02*
X109375000Y-109000000D01*
X109375000Y-109000000D02*
X109975000Y-109600000D01*
X114300000Y-106000000D02*
X116840000Y-103460000D01*
X108887500Y-106000000D02*
X114300000Y-106000000D01*
X116840000Y-103460000D02*
X117250000Y-103460000D01*
X113851480Y-105599990D02*
X114825735Y-104625735D01*
X110300000Y-105599990D02*
X113851480Y-105599990D01*
X109974990Y-105599990D02*
X110300000Y-105599990D01*
X108887500Y-105000000D02*
X109375000Y-105000000D01*
X109375000Y-105000000D02*
X109974990Y-105599990D01*
X117210000Y-108500000D02*
X116800000Y-108500000D01*
X115300000Y-110000000D02*
X109375000Y-110000000D01*
X117250000Y-108540000D02*
X117210000Y-108500000D01*
X116800000Y-108500000D02*
X115300000Y-110000000D01*
X109375000Y-110000000D02*
X108887500Y-110000000D01*
X114300010Y-107599990D02*
X114700000Y-107200000D01*
X109974990Y-107599990D02*
X114300010Y-107599990D01*
X108887500Y-107000000D02*
X109375000Y-107000000D01*
X109375000Y-107000000D02*
X109974990Y-107599990D01*
X114800000Y-108000000D02*
X116800000Y-106000000D01*
X108887500Y-108000000D02*
X114800000Y-108000000D01*
X116800000Y-106000000D02*
X117250000Y-106000000D01*
X115450000Y-102250000D02*
X116780000Y-100920000D01*
X108887500Y-102250000D02*
X115450000Y-102250000D01*
X116780000Y-100920000D02*
X117250000Y-100920000D01*
X106950000Y-107250000D02*
X107700000Y-108000000D01*
X106400000Y-107250000D02*
X106950000Y-107250000D01*
X107700000Y-108000000D02*
X108112500Y-108000000D01*
X104750000Y-101550000D02*
X104850001Y-101449999D01*
X104750000Y-102100000D02*
X104750000Y-101550000D01*
X104850001Y-101449999D02*
X107249999Y-101449999D01*
X107249999Y-101449999D02*
X108050000Y-102250000D01*
X108050000Y-102250000D02*
X108112500Y-102250000D01*
G36*
X118621045Y-99388667D02*
X118737483Y-99423821D01*
X118844876Y-99480923D01*
X118939128Y-99557793D01*
X119016657Y-99651508D01*
X119074507Y-99758501D01*
X119110472Y-99874688D01*
X119125001Y-100012914D01*
X119125000Y-111981663D01*
X119111333Y-112121044D01*
X119076178Y-112237485D01*
X119019077Y-112344876D01*
X118942207Y-112439128D01*
X118848488Y-112516659D01*
X118741498Y-112574508D01*
X118625316Y-112610472D01*
X118487096Y-112625000D01*
X116123527Y-112625000D01*
X116567076Y-112181451D01*
X118100000Y-112181451D01*
X118236846Y-112167973D01*
X118368434Y-112128056D01*
X118489705Y-112063235D01*
X118596001Y-111976001D01*
X118683235Y-111869705D01*
X118748056Y-111748434D01*
X118787973Y-111616846D01*
X118801451Y-111480000D01*
X118801451Y-110680000D01*
X118787973Y-110543154D01*
X118748056Y-110411566D01*
X118683235Y-110290295D01*
X118596001Y-110183999D01*
X118489705Y-110096765D01*
X118368434Y-110031944D01*
X118236846Y-109992027D01*
X118100000Y-109978549D01*
X116400000Y-109978549D01*
X116263154Y-109992027D01*
X116131566Y-110031944D01*
X116010295Y-110096765D01*
X115903999Y-110183999D01*
X115816765Y-110290295D01*
X115751944Y-110411566D01*
X115712027Y-110543154D01*
X115698549Y-110680000D01*
X115698549Y-111352924D01*
X115351473Y-111700000D01*
X114740905Y-111700000D01*
X114712240Y-111705702D01*
X114682896Y-111708579D01*
X114654160Y-111717255D01*
X114624986Y-111723058D01*
X114598227Y-111734142D01*
X114570252Y-111742588D01*
X114543516Y-111756804D01*
X114515793Y-111768287D01*
X114491924Y-111784236D01*
X114466359Y-111797829D01*
X114442689Y-111817134D01*
X114417522Y-111833950D01*
X114397406Y-111854066D01*
X114375174Y-111872198D01*
X114355537Y-111895935D01*
X114333950Y-111917522D01*
X114318289Y-111940960D01*
X114300171Y-111962861D01*
X114285393Y-111990192D01*
X114268287Y-112015793D01*
X114257599Y-112041596D01*
X114244206Y-112066366D01*
X114234939Y-112096302D01*
X114223058Y-112124986D01*
X114217661Y-112152119D01*
X114209411Y-112178770D01*
X114206108Y-112210200D01*
X114200000Y-112240905D01*
X114200000Y-112268313D01*
X114197112Y-112295791D01*
X114200000Y-112327526D01*
X114200000Y-112359095D01*
X114205296Y-112385718D01*
X114207776Y-112412973D01*
X114216849Y-112443801D01*
X114223058Y-112475014D01*
X114233346Y-112499851D01*
X114240998Y-112525851D01*
X114256008Y-112554563D01*
X114268287Y-112584207D01*
X114283077Y-112606341D01*
X114292831Y-112625000D01*
X97177233Y-112625000D01*
X97221310Y-112620659D01*
X97277860Y-112603504D01*
X97329977Y-112575647D01*
X97360797Y-112550354D01*
X97424986Y-112576942D01*
X97540905Y-112600000D01*
X97659095Y-112600000D01*
X97775014Y-112576942D01*
X97884207Y-112531713D01*
X97982478Y-112466050D01*
X98066050Y-112382478D01*
X98131713Y-112284207D01*
X98176942Y-112175014D01*
X98200000Y-112059095D01*
X98200000Y-111940905D01*
X98176942Y-111824986D01*
X98131713Y-111715793D01*
X98099445Y-111667500D01*
X98575000Y-111667500D01*
X98575000Y-111904547D01*
X98586529Y-111962506D01*
X98609143Y-112017103D01*
X98641975Y-112066239D01*
X98683761Y-112108025D01*
X98732896Y-112140856D01*
X98787493Y-112163471D01*
X98845452Y-112175000D01*
X99120000Y-112175000D01*
X99195000Y-112100000D01*
X99195000Y-111592500D01*
X99205000Y-111592500D01*
X99205000Y-112100000D01*
X99280000Y-112175000D01*
X99554548Y-112175000D01*
X99612507Y-112163471D01*
X99667104Y-112140856D01*
X99716239Y-112108025D01*
X99758025Y-112066239D01*
X99790857Y-112017103D01*
X99813471Y-111962506D01*
X99825000Y-111904547D01*
X99825000Y-111667500D01*
X99750000Y-111592500D01*
X99205000Y-111592500D01*
X99195000Y-111592500D01*
X98650000Y-111592500D01*
X98575000Y-111667500D01*
X98099445Y-111667500D01*
X98066050Y-111617522D01*
X97982478Y-111533950D01*
X97884207Y-111468287D01*
X97775014Y-111423058D01*
X97659095Y-111400000D01*
X97540905Y-111400000D01*
X97424986Y-111423058D01*
X97360797Y-111449646D01*
X97329977Y-111424353D01*
X97277860Y-111396496D01*
X97221310Y-111379341D01*
X97162500Y-111373549D01*
X96587500Y-111373549D01*
X96528690Y-111379341D01*
X96487500Y-111391836D01*
X96446310Y-111379341D01*
X96387500Y-111373549D01*
X95812500Y-111373549D01*
X95753690Y-111379341D01*
X95697140Y-111396496D01*
X95645023Y-111424353D01*
X95629433Y-111437148D01*
X95613504Y-111384640D01*
X95585647Y-111332523D01*
X95548158Y-111286842D01*
X95502477Y-111249353D01*
X95450360Y-111221496D01*
X95393810Y-111204341D01*
X95349733Y-111200000D01*
X97659095Y-111200000D01*
X97687760Y-111194298D01*
X97717104Y-111191421D01*
X97745840Y-111182745D01*
X97775014Y-111176942D01*
X97801773Y-111165858D01*
X97829748Y-111157412D01*
X97856484Y-111143196D01*
X97884207Y-111131713D01*
X97908076Y-111115764D01*
X97933641Y-111102171D01*
X97957311Y-111082866D01*
X97982478Y-111066050D01*
X98002594Y-111045934D01*
X98024826Y-111027802D01*
X98044463Y-111004065D01*
X98066050Y-110982478D01*
X98081711Y-110959040D01*
X98099829Y-110937139D01*
X98114607Y-110909808D01*
X98131713Y-110884207D01*
X98142401Y-110858404D01*
X98155794Y-110833634D01*
X98165061Y-110803698D01*
X98176942Y-110775014D01*
X98182339Y-110747881D01*
X98190589Y-110721230D01*
X98193892Y-110689800D01*
X98200000Y-110659095D01*
X98200000Y-110631687D01*
X98202888Y-110604209D01*
X98200000Y-110572474D01*
X98200000Y-110540905D01*
X98194704Y-110514282D01*
X98192224Y-110487027D01*
X98183151Y-110456199D01*
X98176942Y-110424986D01*
X98166654Y-110400149D01*
X98159002Y-110374149D01*
X98143992Y-110345437D01*
X98131713Y-110315793D01*
X98116923Y-110293659D01*
X98104488Y-110269872D01*
X98084017Y-110244412D01*
X98066050Y-110217522D01*
X98047411Y-110198883D01*
X98030758Y-110178171D01*
X98005533Y-110157005D01*
X97982478Y-110133950D01*
X97960772Y-110119447D01*
X97940620Y-110102537D01*
X97911537Y-110086548D01*
X97884207Y-110068287D01*
X97860329Y-110058396D01*
X97837509Y-110045851D01*
X97805617Y-110035734D01*
X97775014Y-110023058D01*
X97749925Y-110018067D01*
X97725351Y-110010272D01*
X97694360Y-110007015D01*
X97659095Y-110000000D01*
X95743296Y-110000000D01*
X95748471Y-109987507D01*
X95760000Y-109929548D01*
X95760000Y-109480000D01*
X95685000Y-109405000D01*
X95130000Y-109405000D01*
X95130000Y-109425000D01*
X95120000Y-109425000D01*
X95120000Y-109405000D01*
X94565000Y-109405000D01*
X94490000Y-109480000D01*
X94490000Y-109929548D01*
X94501529Y-109987507D01*
X94506704Y-110000000D01*
X93993164Y-110000000D01*
X94005659Y-109958810D01*
X94011451Y-109900000D01*
X94011451Y-108900000D01*
X94005659Y-108841190D01*
X93988504Y-108784640D01*
X93960647Y-108732523D01*
X93923158Y-108686842D01*
X93900000Y-108667837D01*
X93900000Y-108630000D01*
X94170000Y-108630000D01*
X94245000Y-108555000D01*
X94245000Y-107805000D01*
X94225000Y-107805000D01*
X94225000Y-107795000D01*
X94245000Y-107795000D01*
X94245000Y-107045000D01*
X94255000Y-107045000D01*
X94255000Y-107795000D01*
X94275000Y-107795000D01*
X94275000Y-107805000D01*
X94255000Y-107805000D01*
X94255000Y-108555000D01*
X94330000Y-108630000D01*
X94604548Y-108630000D01*
X94662507Y-108618471D01*
X94717104Y-108595856D01*
X94725492Y-108590251D01*
X94748266Y-108602424D01*
X94702494Y-108611529D01*
X94647897Y-108634143D01*
X94598761Y-108666975D01*
X94556975Y-108708761D01*
X94524144Y-108757896D01*
X94501529Y-108812493D01*
X94490000Y-108870452D01*
X94490000Y-109320000D01*
X94565000Y-109395000D01*
X95120000Y-109395000D01*
X95120000Y-109375000D01*
X95130000Y-109375000D01*
X95130000Y-109395000D01*
X95685000Y-109395000D01*
X95760000Y-109320000D01*
X95760000Y-108870452D01*
X95748471Y-108812493D01*
X95725856Y-108757896D01*
X95693025Y-108708761D01*
X95651239Y-108666975D01*
X95602103Y-108634143D01*
X95582041Y-108625833D01*
X95583810Y-108625659D01*
X95640360Y-108608504D01*
X95692477Y-108580647D01*
X95738158Y-108543158D01*
X95775647Y-108497477D01*
X95803504Y-108445360D01*
X95817264Y-108400000D01*
X95959095Y-108400000D01*
X95987760Y-108394298D01*
X96017104Y-108391421D01*
X96045840Y-108382745D01*
X96075014Y-108376942D01*
X96101773Y-108365858D01*
X96129748Y-108357412D01*
X96156484Y-108343196D01*
X96184207Y-108331713D01*
X96186770Y-108330000D01*
X96537500Y-108330000D01*
X96537500Y-108604548D01*
X96549029Y-108662507D01*
X96571644Y-108717104D01*
X96604475Y-108766239D01*
X96646261Y-108808025D01*
X96695397Y-108840857D01*
X96749994Y-108863471D01*
X96807953Y-108875000D01*
X97045000Y-108875000D01*
X97120000Y-108800000D01*
X97120000Y-108255000D01*
X96612500Y-108255000D01*
X96537500Y-108330000D01*
X96186770Y-108330000D01*
X96208076Y-108315764D01*
X96233641Y-108302171D01*
X96257311Y-108282866D01*
X96282478Y-108266050D01*
X96302594Y-108245934D01*
X96324826Y-108227802D01*
X96344463Y-108204065D01*
X96366050Y-108182478D01*
X96381711Y-108159040D01*
X96399829Y-108137139D01*
X96414607Y-108109808D01*
X96431713Y-108084207D01*
X96442401Y-108058404D01*
X96455794Y-108033634D01*
X96465061Y-108003698D01*
X96476942Y-107975014D01*
X96482339Y-107947881D01*
X96490589Y-107921230D01*
X96493298Y-107895452D01*
X96537500Y-107895452D01*
X96537500Y-108170000D01*
X96612500Y-108245000D01*
X97120000Y-108245000D01*
X97120000Y-107700000D01*
X97045000Y-107625000D01*
X96807953Y-107625000D01*
X96749994Y-107636529D01*
X96695397Y-107659143D01*
X96646261Y-107691975D01*
X96604475Y-107733761D01*
X96571644Y-107782896D01*
X96549029Y-107837493D01*
X96537500Y-107895452D01*
X96493298Y-107895452D01*
X96493892Y-107889800D01*
X96500000Y-107859095D01*
X96500000Y-107831687D01*
X96502888Y-107804209D01*
X96500000Y-107772474D01*
X96500000Y-107740905D01*
X96494704Y-107714282D01*
X96492224Y-107687027D01*
X96483151Y-107656199D01*
X96476942Y-107624986D01*
X96466654Y-107600149D01*
X96459002Y-107574149D01*
X96443992Y-107545437D01*
X96431713Y-107515793D01*
X96416923Y-107493659D01*
X96404488Y-107469872D01*
X96384017Y-107444412D01*
X96366050Y-107417522D01*
X96347411Y-107398883D01*
X96330758Y-107378171D01*
X96305533Y-107357005D01*
X96282478Y-107333950D01*
X96260772Y-107319447D01*
X96240620Y-107302537D01*
X96211537Y-107286548D01*
X96184207Y-107268287D01*
X96160329Y-107258396D01*
X96137509Y-107245851D01*
X96105617Y-107235734D01*
X96075014Y-107223058D01*
X96049925Y-107218067D01*
X96025351Y-107210272D01*
X95994360Y-107207015D01*
X95959095Y-107200000D01*
X95817264Y-107200000D01*
X95803504Y-107154640D01*
X95775647Y-107102523D01*
X95738158Y-107056842D01*
X95692477Y-107019353D01*
X95640360Y-106991496D01*
X95583810Y-106974341D01*
X95525000Y-106968549D01*
X94875000Y-106968549D01*
X94816190Y-106974341D01*
X94759640Y-106991496D01*
X94725492Y-107009749D01*
X94717104Y-107004144D01*
X94662507Y-106981529D01*
X94604548Y-106970000D01*
X94330000Y-106970000D01*
X94255000Y-107045000D01*
X94245000Y-107045000D01*
X94170000Y-106970000D01*
X93895452Y-106970000D01*
X93837493Y-106981529D01*
X93782896Y-107004144D01*
X93774508Y-107009749D01*
X93740360Y-106991496D01*
X93683810Y-106974341D01*
X93625000Y-106968549D01*
X92975000Y-106968549D01*
X92916190Y-106974341D01*
X92859640Y-106991496D01*
X92807523Y-107019353D01*
X92761842Y-107056842D01*
X92724353Y-107102523D01*
X92696496Y-107154640D01*
X92682736Y-107200000D01*
X92440905Y-107200000D01*
X92412240Y-107205702D01*
X92382896Y-107208579D01*
X92354160Y-107217255D01*
X92324986Y-107223058D01*
X92298227Y-107234142D01*
X92270252Y-107242588D01*
X92243516Y-107256804D01*
X92215793Y-107268287D01*
X92191924Y-107284236D01*
X92166359Y-107297829D01*
X92142689Y-107317134D01*
X92117522Y-107333950D01*
X92097406Y-107354066D01*
X92075174Y-107372198D01*
X92055537Y-107395935D01*
X92033950Y-107417522D01*
X92018289Y-107440960D01*
X92000171Y-107462861D01*
X91985393Y-107490192D01*
X91968287Y-107515793D01*
X91957599Y-107541596D01*
X91944206Y-107566366D01*
X91934939Y-107596302D01*
X91923058Y-107624986D01*
X91917661Y-107652119D01*
X91909411Y-107678770D01*
X91906108Y-107710200D01*
X91900000Y-107740905D01*
X91900000Y-107768313D01*
X91897112Y-107795791D01*
X91900000Y-107827526D01*
X91900000Y-107859095D01*
X91905296Y-107885718D01*
X91907776Y-107912973D01*
X91916849Y-107943801D01*
X91923058Y-107975014D01*
X91933346Y-107999851D01*
X91940998Y-108025851D01*
X91956008Y-108054563D01*
X91968287Y-108084207D01*
X91983077Y-108106341D01*
X91995512Y-108130128D01*
X92015983Y-108155588D01*
X92033950Y-108182478D01*
X92052589Y-108201117D01*
X92069242Y-108221829D01*
X92094467Y-108242995D01*
X92117522Y-108266050D01*
X92139228Y-108280553D01*
X92159380Y-108297463D01*
X92188463Y-108313452D01*
X92215793Y-108331713D01*
X92239671Y-108341604D01*
X92262491Y-108354149D01*
X92294383Y-108364266D01*
X92324986Y-108376942D01*
X92350075Y-108381933D01*
X92374649Y-108389728D01*
X92405640Y-108392985D01*
X92440905Y-108400000D01*
X92682736Y-108400000D01*
X92696496Y-108445360D01*
X92700000Y-108451916D01*
X92700001Y-108904552D01*
X92629208Y-108897112D01*
X92597473Y-108900000D01*
X91100000Y-108900000D01*
X91100000Y-104453689D01*
X92083237Y-103470452D01*
X92740000Y-103470452D01*
X92740000Y-103920000D01*
X92815000Y-103995000D01*
X93370000Y-103995000D01*
X93370000Y-103275000D01*
X93380000Y-103275000D01*
X93380000Y-103995000D01*
X93935000Y-103995000D01*
X94010000Y-103920000D01*
X94010000Y-103470452D01*
X93998471Y-103412493D01*
X93975856Y-103357896D01*
X93943025Y-103308761D01*
X93901239Y-103266975D01*
X93852103Y-103234143D01*
X93797506Y-103211529D01*
X93739547Y-103200000D01*
X93455000Y-103200000D01*
X93380000Y-103275000D01*
X93370000Y-103275000D01*
X93295000Y-103200000D01*
X93010453Y-103200000D01*
X92952494Y-103211529D01*
X92897897Y-103234143D01*
X92848761Y-103266975D01*
X92806975Y-103308761D01*
X92774144Y-103357896D01*
X92751529Y-103412493D01*
X92740000Y-103470452D01*
X92083237Y-103470452D01*
X92839332Y-102714357D01*
X92868265Y-102784207D01*
X92933928Y-102882478D01*
X93017500Y-102966050D01*
X93115771Y-103031713D01*
X93224964Y-103076942D01*
X93340883Y-103100000D01*
X93459073Y-103100000D01*
X93574992Y-103076942D01*
X93684185Y-103031713D01*
X93782456Y-102966050D01*
X93866028Y-102882478D01*
X93931691Y-102784207D01*
X93976920Y-102675014D01*
X93999978Y-102559095D01*
X93999978Y-102440905D01*
X93976920Y-102324986D01*
X93937022Y-102228663D01*
X94365685Y-101800000D01*
X95859315Y-101800000D01*
X96064157Y-102004842D01*
X96048461Y-102034113D01*
X96030568Y-102066661D01*
X96029929Y-102068677D01*
X96028930Y-102070539D01*
X96018085Y-102106014D01*
X96006849Y-102141433D01*
X96006636Y-102143463D01*
X96005996Y-102145555D01*
X95998068Y-102223598D01*
X96000001Y-102244047D01*
X96000000Y-103675015D01*
X95923873Y-103598888D01*
X95907216Y-103578171D01*
X95881984Y-103556999D01*
X95879786Y-103554801D01*
X95859785Y-103538372D01*
X95817078Y-103502537D01*
X95814298Y-103501008D01*
X95811850Y-103498998D01*
X95762787Y-103472690D01*
X95758531Y-103470350D01*
X95755659Y-103441190D01*
X95738504Y-103384640D01*
X95710647Y-103332523D01*
X95673158Y-103286842D01*
X95627477Y-103249353D01*
X95575360Y-103221496D01*
X95518810Y-103204341D01*
X95460000Y-103198549D01*
X94790000Y-103198549D01*
X94731190Y-103204341D01*
X94674640Y-103221496D01*
X94622523Y-103249353D01*
X94576842Y-103286842D01*
X94539353Y-103332523D01*
X94511496Y-103384640D01*
X94494341Y-103441190D01*
X94488549Y-103500000D01*
X94488549Y-103787923D01*
X94010000Y-104266472D01*
X94010000Y-104080000D01*
X93935000Y-104005000D01*
X93380000Y-104005000D01*
X93380000Y-104025000D01*
X93370000Y-104025000D01*
X93370000Y-104005000D01*
X92815000Y-104005000D01*
X92740000Y-104080000D01*
X92740000Y-104529548D01*
X92751529Y-104587507D01*
X92774144Y-104642104D01*
X92806975Y-104691239D01*
X92848761Y-104733025D01*
X92897897Y-104765857D01*
X92917959Y-104774167D01*
X92916190Y-104774341D01*
X92859640Y-104791496D01*
X92807523Y-104819353D01*
X92761842Y-104856842D01*
X92724353Y-104902523D01*
X92696496Y-104954640D01*
X92679341Y-105011190D01*
X92673549Y-105070000D01*
X92673549Y-106130000D01*
X92679341Y-106188810D01*
X92696496Y-106245360D01*
X92724353Y-106297477D01*
X92761842Y-106343158D01*
X92807523Y-106380647D01*
X92859640Y-106408504D01*
X92916190Y-106425659D01*
X92975000Y-106431451D01*
X93625000Y-106431451D01*
X93683810Y-106425659D01*
X93740360Y-106408504D01*
X93792477Y-106380647D01*
X93838158Y-106343158D01*
X93875647Y-106297477D01*
X93903504Y-106245360D01*
X93920659Y-106188810D01*
X93926451Y-106130000D01*
X93926451Y-106046866D01*
X93949826Y-106027802D01*
X93969467Y-106004060D01*
X94573549Y-105399978D01*
X94573549Y-106130000D01*
X94579341Y-106188810D01*
X94596496Y-106245360D01*
X94624353Y-106297477D01*
X94661842Y-106343158D01*
X94707523Y-106380647D01*
X94759640Y-106408504D01*
X94816190Y-106425659D01*
X94875000Y-106431451D01*
X95525000Y-106431451D01*
X95583810Y-106425659D01*
X95640360Y-106408504D01*
X95692477Y-106380647D01*
X95738158Y-106343158D01*
X95775647Y-106297477D01*
X95784988Y-106280000D01*
X96525000Y-106280000D01*
X96525000Y-106554548D01*
X96536529Y-106612507D01*
X96559144Y-106667104D01*
X96591975Y-106716239D01*
X96633761Y-106758025D01*
X96682897Y-106790857D01*
X96737494Y-106813471D01*
X96795453Y-106825000D01*
X97032500Y-106825000D01*
X97107500Y-106750000D01*
X97107500Y-106205000D01*
X96600000Y-106205000D01*
X96525000Y-106280000D01*
X95784988Y-106280000D01*
X95803504Y-106245360D01*
X95820659Y-106188810D01*
X95826451Y-106130000D01*
X95826451Y-105198521D01*
X96329047Y-105701117D01*
X96345700Y-105721829D01*
X96370925Y-105742995D01*
X96373129Y-105745199D01*
X96393194Y-105761681D01*
X96435838Y-105797463D01*
X96438612Y-105798988D01*
X96441065Y-105801003D01*
X96490208Y-105827353D01*
X96525000Y-105846480D01*
X96525000Y-106120000D01*
X96600000Y-106195000D01*
X97107500Y-106195000D01*
X97107500Y-106175000D01*
X97117500Y-106175000D01*
X97117500Y-106195000D01*
X97137500Y-106195000D01*
X97137500Y-106205000D01*
X97117500Y-106205000D01*
X97117500Y-106750000D01*
X97192500Y-106825000D01*
X97429547Y-106825000D01*
X97487506Y-106813471D01*
X97500185Y-106808220D01*
X97541190Y-106820659D01*
X97600000Y-106826451D01*
X98175000Y-106826451D01*
X98233810Y-106820659D01*
X98290360Y-106803504D01*
X98342477Y-106775647D01*
X98388158Y-106738158D01*
X98425647Y-106692477D01*
X98448351Y-106650000D01*
X98948549Y-106650000D01*
X98948549Y-106875000D01*
X98954341Y-106933810D01*
X98971496Y-106990360D01*
X98976649Y-107000000D01*
X98971496Y-107009640D01*
X98954341Y-107066190D01*
X98948549Y-107125000D01*
X98948549Y-107375000D01*
X98954341Y-107433810D01*
X98971496Y-107490360D01*
X98976880Y-107500433D01*
X98961529Y-107537493D01*
X98950000Y-107595452D01*
X98950000Y-107670000D01*
X99025000Y-107745000D01*
X99595000Y-107745000D01*
X99595000Y-107725000D01*
X99605000Y-107725000D01*
X99605000Y-107745000D01*
X99625000Y-107745000D01*
X99625000Y-107755000D01*
X99605000Y-107755000D01*
X99605000Y-107775000D01*
X99595000Y-107775000D01*
X99595000Y-107755000D01*
X99025000Y-107755000D01*
X98950000Y-107830000D01*
X98950000Y-107850000D01*
X98478248Y-107850000D01*
X98466004Y-107809640D01*
X98440749Y-107762391D01*
X98476942Y-107675012D01*
X98500000Y-107559093D01*
X98500000Y-107440903D01*
X98476942Y-107324984D01*
X98431713Y-107215791D01*
X98366050Y-107117520D01*
X98282478Y-107033948D01*
X98184207Y-106968285D01*
X98075014Y-106923056D01*
X97959095Y-106899998D01*
X97840905Y-106899998D01*
X97724986Y-106923056D01*
X97615793Y-106968285D01*
X97517522Y-107033948D01*
X97433950Y-107117520D01*
X97368287Y-107215791D01*
X97323058Y-107324984D01*
X97300000Y-107440903D01*
X97300000Y-107559093D01*
X97313110Y-107625000D01*
X97205000Y-107625000D01*
X97130000Y-107700000D01*
X97130000Y-108245000D01*
X97150000Y-108245000D01*
X97150000Y-108255000D01*
X97130000Y-108255000D01*
X97130000Y-108800000D01*
X97205000Y-108875000D01*
X97442047Y-108875000D01*
X97500006Y-108863471D01*
X97512685Y-108858220D01*
X97553690Y-108870659D01*
X97612500Y-108876451D01*
X98187500Y-108876451D01*
X98246310Y-108870659D01*
X98302860Y-108853504D01*
X98354977Y-108825647D01*
X98400658Y-108788158D01*
X98438147Y-108742477D01*
X98466004Y-108690360D01*
X98478248Y-108650000D01*
X99128084Y-108650000D01*
X99134640Y-108653504D01*
X99191190Y-108670659D01*
X99211639Y-108672673D01*
X99216444Y-108688589D01*
X99226809Y-108724265D01*
X99227783Y-108726143D01*
X99228393Y-108728165D01*
X99245804Y-108760910D01*
X99262909Y-108793909D01*
X99264193Y-108795495D01*
X99265220Y-108797426D01*
X99314799Y-108858217D01*
X99330622Y-108871307D01*
X99626726Y-109167411D01*
X99637828Y-109181219D01*
X99654646Y-109195331D01*
X99656111Y-109196796D01*
X99669444Y-109207748D01*
X99681506Y-109217869D01*
X99650733Y-109226809D01*
X99648853Y-109227783D01*
X99646834Y-109228393D01*
X99614108Y-109245794D01*
X99581090Y-109262909D01*
X99579504Y-109264193D01*
X99577573Y-109265220D01*
X99516783Y-109314799D01*
X99503698Y-109330616D01*
X98932593Y-109901723D01*
X98918781Y-109912828D01*
X98904666Y-109929650D01*
X98903204Y-109931112D01*
X98892271Y-109944422D01*
X98868358Y-109972921D01*
X98867339Y-109974775D01*
X98865999Y-109976406D01*
X98848479Y-110009080D01*
X98830567Y-110041662D01*
X98829927Y-110043680D01*
X98828930Y-110045539D01*
X98818103Y-110080955D01*
X98806848Y-110116434D01*
X98806634Y-110118467D01*
X98805996Y-110120555D01*
X98798068Y-110198598D01*
X98800000Y-110219037D01*
X98800000Y-110234252D01*
X98759640Y-110246496D01*
X98707523Y-110274353D01*
X98661842Y-110311842D01*
X98624353Y-110357523D01*
X98596496Y-110409640D01*
X98579341Y-110466190D01*
X98573549Y-110525000D01*
X98573549Y-111100000D01*
X98579341Y-111158810D01*
X98591780Y-111199815D01*
X98586529Y-111212494D01*
X98575000Y-111270453D01*
X98575000Y-111507500D01*
X98650000Y-111582500D01*
X99195000Y-111582500D01*
X99195000Y-111562500D01*
X99205000Y-111562500D01*
X99205000Y-111582500D01*
X99750000Y-111582500D01*
X99825000Y-111507500D01*
X99825000Y-111270453D01*
X99813471Y-111212494D01*
X99808220Y-111199815D01*
X99820659Y-111158810D01*
X99826451Y-111100000D01*
X99826451Y-110736128D01*
X99924986Y-110776942D01*
X100040905Y-110800000D01*
X100159095Y-110800000D01*
X100275014Y-110776942D01*
X100384207Y-110731713D01*
X100400000Y-110721160D01*
X100400001Y-111974672D01*
X100407150Y-112047587D01*
X100435492Y-112141457D01*
X100481526Y-112228034D01*
X100543499Y-112304022D01*
X100619052Y-112366524D01*
X100705306Y-112413162D01*
X100798976Y-112442157D01*
X100896493Y-112452407D01*
X100994144Y-112443520D01*
X101088209Y-112415835D01*
X101175106Y-112370406D01*
X101251524Y-112308965D01*
X101314553Y-112233850D01*
X101361791Y-112147924D01*
X101391440Y-112054459D01*
X101400000Y-111973015D01*
X101400000Y-111205000D01*
X101600000Y-111205000D01*
X101600000Y-111955000D01*
X101610583Y-112052449D01*
X101639974Y-112145961D01*
X101687043Y-112231942D01*
X101749982Y-112307088D01*
X101826372Y-112368512D01*
X101913277Y-112413853D01*
X102007358Y-112441368D01*
X102016848Y-112443037D01*
X102095000Y-112374971D01*
X102095000Y-111205000D01*
X102105000Y-111205000D01*
X102105000Y-112374971D01*
X102183152Y-112443037D01*
X102192642Y-112441368D01*
X102286723Y-112413853D01*
X102373628Y-112368512D01*
X102450018Y-112307088D01*
X102512957Y-112231942D01*
X102560026Y-112145961D01*
X102589417Y-112052449D01*
X102600000Y-111955000D01*
X102600000Y-111205000D01*
X102105000Y-111205000D01*
X102095000Y-111205000D01*
X101600000Y-111205000D01*
X101400000Y-111205000D01*
X101400000Y-110425328D01*
X101399139Y-110416546D01*
X101415685Y-110400000D01*
X101604887Y-110400000D01*
X101600000Y-110445000D01*
X101600000Y-111195000D01*
X102095000Y-111195000D01*
X102095000Y-111175000D01*
X102105000Y-111175000D01*
X102105000Y-111195000D01*
X102600000Y-111195000D01*
X102600000Y-110445000D01*
X102596429Y-110412114D01*
X102800000Y-110615685D01*
X102800001Y-111974672D01*
X102807150Y-112047587D01*
X102835492Y-112141457D01*
X102881526Y-112228034D01*
X102943499Y-112304022D01*
X103019052Y-112366524D01*
X103105306Y-112413162D01*
X103198976Y-112442157D01*
X103296493Y-112452407D01*
X103394144Y-112443520D01*
X103488209Y-112415835D01*
X103575106Y-112370406D01*
X103651524Y-112308965D01*
X103714553Y-112233850D01*
X103761791Y-112147924D01*
X103791440Y-112054459D01*
X103800000Y-111973015D01*
X103800000Y-110715685D01*
X103873549Y-110789234D01*
X103873549Y-111100000D01*
X103879341Y-111158810D01*
X103891836Y-111200000D01*
X103879341Y-111241190D01*
X103873549Y-111300000D01*
X103873549Y-111875000D01*
X103879341Y-111933810D01*
X103896496Y-111990360D01*
X103924353Y-112042477D01*
X103961842Y-112088158D01*
X104007523Y-112125647D01*
X104059640Y-112153504D01*
X104110511Y-112168936D01*
X104116444Y-112188589D01*
X104126809Y-112224265D01*
X104127783Y-112226143D01*
X104128393Y-112228165D01*
X104145804Y-112260910D01*
X104162909Y-112293909D01*
X104164193Y-112295495D01*
X104165220Y-112297426D01*
X104214799Y-112358217D01*
X104230623Y-112371307D01*
X104326723Y-112467407D01*
X104337828Y-112481219D01*
X104354652Y-112495336D01*
X104356112Y-112496796D01*
X104369414Y-112507723D01*
X104397920Y-112531642D01*
X104399773Y-112532661D01*
X104401406Y-112534002D01*
X104434060Y-112551510D01*
X104466661Y-112569433D01*
X104468683Y-112570075D01*
X104470540Y-112571070D01*
X104505967Y-112581901D01*
X104541433Y-112593152D01*
X104543461Y-112593365D01*
X104545554Y-112594005D01*
X104623597Y-112601932D01*
X104644036Y-112600000D01*
X106578182Y-112600000D01*
X106595791Y-112601913D01*
X106617656Y-112600000D01*
X106619734Y-112600000D01*
X106636948Y-112598312D01*
X106673936Y-112595076D01*
X106675966Y-112594486D01*
X106678070Y-112594280D01*
X106713616Y-112583548D01*
X106749265Y-112573191D01*
X106751142Y-112572218D01*
X106753166Y-112571607D01*
X106785950Y-112554175D01*
X106818909Y-112537091D01*
X106820493Y-112535808D01*
X106822427Y-112534780D01*
X106883217Y-112485201D01*
X106896307Y-112469378D01*
X107167411Y-112198274D01*
X107181219Y-112187172D01*
X107195331Y-112170354D01*
X107196796Y-112168889D01*
X107207748Y-112155556D01*
X107231642Y-112127080D01*
X107232661Y-112125226D01*
X107234001Y-112123595D01*
X107251521Y-112090921D01*
X107269433Y-112058339D01*
X107270073Y-112056321D01*
X107271070Y-112054462D01*
X107281897Y-112019046D01*
X107293152Y-111983567D01*
X107293366Y-111981534D01*
X107294004Y-111979446D01*
X107301932Y-111901403D01*
X107300000Y-111880967D01*
X107300000Y-111248528D01*
X107366050Y-111182478D01*
X107431713Y-111084207D01*
X107476942Y-110975014D01*
X107500000Y-110859095D01*
X107500000Y-110740905D01*
X107476942Y-110624986D01*
X107431713Y-110515793D01*
X107366050Y-110417522D01*
X107348528Y-110400000D01*
X107534252Y-110400000D01*
X107546496Y-110440360D01*
X107574353Y-110492477D01*
X107611842Y-110538158D01*
X107657523Y-110575647D01*
X107709640Y-110603504D01*
X107766190Y-110620659D01*
X107825000Y-110626451D01*
X108400000Y-110626451D01*
X108458810Y-110620659D01*
X108500000Y-110608164D01*
X108541190Y-110620659D01*
X108600000Y-110626451D01*
X109175000Y-110626451D01*
X109233810Y-110620659D01*
X109290360Y-110603504D01*
X109342477Y-110575647D01*
X109388158Y-110538158D01*
X109425647Y-110492477D01*
X109453504Y-110440360D01*
X109465748Y-110400000D01*
X115278182Y-110400000D01*
X115295791Y-110401913D01*
X115317656Y-110400000D01*
X115319734Y-110400000D01*
X115336948Y-110398312D01*
X115373936Y-110395076D01*
X115375966Y-110394486D01*
X115378070Y-110394280D01*
X115413616Y-110383548D01*
X115449265Y-110373191D01*
X115451142Y-110372218D01*
X115453166Y-110371607D01*
X115485950Y-110354175D01*
X115518909Y-110337091D01*
X115520493Y-110335808D01*
X115522427Y-110334780D01*
X115583217Y-110285201D01*
X115596307Y-110269378D01*
X116243634Y-109622051D01*
X116263154Y-109627973D01*
X116400000Y-109641451D01*
X118100000Y-109641451D01*
X118236846Y-109627973D01*
X118368434Y-109588056D01*
X118489705Y-109523235D01*
X118596001Y-109436001D01*
X118683235Y-109329705D01*
X118748056Y-109208434D01*
X118787973Y-109076846D01*
X118801451Y-108940000D01*
X118801451Y-108140000D01*
X118787973Y-108003154D01*
X118748056Y-107871566D01*
X118683235Y-107750295D01*
X118596001Y-107643999D01*
X118489705Y-107556765D01*
X118368434Y-107491944D01*
X118236846Y-107452027D01*
X118100000Y-107438549D01*
X116400000Y-107438549D01*
X116263154Y-107452027D01*
X116131566Y-107491944D01*
X116010295Y-107556765D01*
X115903999Y-107643999D01*
X115816765Y-107750295D01*
X115751944Y-107871566D01*
X115712027Y-108003154D01*
X115698549Y-108140000D01*
X115698549Y-108940000D01*
X115707135Y-109027180D01*
X115617799Y-109116517D01*
X115607448Y-109091528D01*
X115541785Y-108993257D01*
X115458213Y-108909685D01*
X115359942Y-108844022D01*
X115250749Y-108798793D01*
X115134830Y-108775735D01*
X115016640Y-108775735D01*
X114900721Y-108798793D01*
X114791528Y-108844022D01*
X114693257Y-108909685D01*
X114609685Y-108993257D01*
X114544022Y-109091528D01*
X114499092Y-109200000D01*
X110140686Y-109200000D01*
X109673277Y-108732593D01*
X109662172Y-108718781D01*
X109645348Y-108704664D01*
X109643888Y-108703204D01*
X109630603Y-108692291D01*
X109602080Y-108668358D01*
X109600223Y-108667337D01*
X109598594Y-108665999D01*
X109565961Y-108648501D01*
X109533339Y-108630567D01*
X109531319Y-108629926D01*
X109529461Y-108628930D01*
X109494073Y-108618111D01*
X109468811Y-108610098D01*
X109453504Y-108559640D01*
X109425647Y-108507523D01*
X109419473Y-108500000D01*
X109425647Y-108492477D01*
X109453504Y-108440360D01*
X109465748Y-108400000D01*
X114778182Y-108400000D01*
X114795791Y-108401913D01*
X114817656Y-108400000D01*
X114819734Y-108400000D01*
X114836948Y-108398312D01*
X114873936Y-108395076D01*
X114875966Y-108394486D01*
X114878070Y-108394280D01*
X114913616Y-108383548D01*
X114949265Y-108373191D01*
X114951142Y-108372218D01*
X114953166Y-108371607D01*
X114985950Y-108354175D01*
X115018909Y-108337091D01*
X115020493Y-108335808D01*
X115022427Y-108334780D01*
X115083217Y-108285201D01*
X115096307Y-108269378D01*
X116276407Y-107089278D01*
X116400000Y-107101451D01*
X118100000Y-107101451D01*
X118236846Y-107087973D01*
X118368434Y-107048056D01*
X118489705Y-106983235D01*
X118596001Y-106896001D01*
X118683235Y-106789705D01*
X118748056Y-106668434D01*
X118787973Y-106536846D01*
X118801451Y-106400000D01*
X118801451Y-105600000D01*
X118787973Y-105463154D01*
X118748056Y-105331566D01*
X118683235Y-105210295D01*
X118596001Y-105103999D01*
X118489705Y-105016765D01*
X118368434Y-104951944D01*
X118236846Y-104912027D01*
X118100000Y-104898549D01*
X116400000Y-104898549D01*
X116263154Y-104912027D01*
X116131566Y-104951944D01*
X116010295Y-105016765D01*
X115903999Y-105103999D01*
X115816765Y-105210295D01*
X115751944Y-105331566D01*
X115712027Y-105463154D01*
X115698549Y-105600000D01*
X115698549Y-106400000D01*
X115710722Y-106523593D01*
X115257139Y-106977177D01*
X115231713Y-106915793D01*
X115166050Y-106817522D01*
X115082478Y-106733950D01*
X114984207Y-106668287D01*
X114875014Y-106623058D01*
X114759095Y-106600000D01*
X114640905Y-106600000D01*
X114524986Y-106623058D01*
X114415793Y-106668287D01*
X114317522Y-106733950D01*
X114233950Y-106817522D01*
X114168287Y-106915793D01*
X114123058Y-107024986D01*
X114100000Y-107140905D01*
X114100000Y-107199990D01*
X110140676Y-107199990D01*
X109673277Y-106732593D01*
X109662172Y-106718781D01*
X109645348Y-106704664D01*
X109643888Y-106703204D01*
X109630603Y-106692291D01*
X109602080Y-106668358D01*
X109600223Y-106667337D01*
X109598594Y-106665999D01*
X109565961Y-106648501D01*
X109533339Y-106630567D01*
X109531319Y-106629926D01*
X109529461Y-106628930D01*
X109494073Y-106618111D01*
X109468811Y-106610098D01*
X109453504Y-106559640D01*
X109425647Y-106507523D01*
X109419473Y-106500000D01*
X109425647Y-106492477D01*
X109453504Y-106440360D01*
X109465748Y-106400000D01*
X114278182Y-106400000D01*
X114295791Y-106401913D01*
X114317656Y-106400000D01*
X114319734Y-106400000D01*
X114336948Y-106398312D01*
X114373936Y-106395076D01*
X114375966Y-106394486D01*
X114378070Y-106394280D01*
X114413616Y-106383548D01*
X114449265Y-106373191D01*
X114451142Y-106372218D01*
X114453166Y-106371607D01*
X114485950Y-106354175D01*
X114518909Y-106337091D01*
X114520493Y-106335808D01*
X114522427Y-106334780D01*
X114583217Y-106285201D01*
X114596307Y-106269378D01*
X116312820Y-104552865D01*
X116400000Y-104561451D01*
X118100000Y-104561451D01*
X118236846Y-104547973D01*
X118368434Y-104508056D01*
X118489705Y-104443235D01*
X118596001Y-104356001D01*
X118683235Y-104249705D01*
X118748056Y-104128434D01*
X118787973Y-103996846D01*
X118801451Y-103860000D01*
X118801451Y-103060000D01*
X118787973Y-102923154D01*
X118748056Y-102791566D01*
X118683235Y-102670295D01*
X118596001Y-102563999D01*
X118489705Y-102476765D01*
X118368434Y-102411944D01*
X118236846Y-102372027D01*
X118100000Y-102358549D01*
X116400000Y-102358549D01*
X116263154Y-102372027D01*
X116131566Y-102411944D01*
X116010295Y-102476765D01*
X115903999Y-102563999D01*
X115816765Y-102670295D01*
X115751944Y-102791566D01*
X115712027Y-102923154D01*
X115698549Y-103060000D01*
X115698549Y-103860000D01*
X115712027Y-103996846D01*
X115717949Y-104016367D01*
X115367799Y-104366517D01*
X115357448Y-104341528D01*
X115291785Y-104243257D01*
X115208213Y-104159685D01*
X115109942Y-104094022D01*
X115000749Y-104048793D01*
X114884830Y-104025735D01*
X114766640Y-104025735D01*
X114650721Y-104048793D01*
X114541528Y-104094022D01*
X114443257Y-104159685D01*
X114359685Y-104243257D01*
X114294022Y-104341528D01*
X114248793Y-104450721D01*
X114225735Y-104566640D01*
X114225735Y-104660050D01*
X113685796Y-105199990D01*
X110140676Y-105199990D01*
X109673277Y-104732593D01*
X109662172Y-104718781D01*
X109645348Y-104704664D01*
X109643888Y-104703204D01*
X109630603Y-104692291D01*
X109602080Y-104668358D01*
X109600223Y-104667337D01*
X109598594Y-104665999D01*
X109565961Y-104648501D01*
X109533339Y-104630567D01*
X109531319Y-104629926D01*
X109529461Y-104628930D01*
X109494073Y-104618111D01*
X109468811Y-104610098D01*
X109453504Y-104559640D01*
X109425647Y-104507523D01*
X109388158Y-104461842D01*
X109342477Y-104424353D01*
X109290360Y-104396496D01*
X109233810Y-104379341D01*
X109175000Y-104373549D01*
X108600000Y-104373549D01*
X108541190Y-104379341D01*
X108500000Y-104391836D01*
X108458810Y-104379341D01*
X108400000Y-104373549D01*
X107825000Y-104373549D01*
X107766190Y-104379341D01*
X107709640Y-104396496D01*
X107657523Y-104424353D01*
X107611842Y-104461842D01*
X107574353Y-104507523D01*
X107546496Y-104559640D01*
X107529341Y-104616190D01*
X107527106Y-104638883D01*
X107514108Y-104645794D01*
X107481090Y-104662909D01*
X107479504Y-104664193D01*
X107477573Y-104665220D01*
X107416783Y-104714799D01*
X107403698Y-104730616D01*
X107047673Y-105086642D01*
X107045659Y-105066190D01*
X107028504Y-105009640D01*
X107023351Y-105000000D01*
X107028504Y-104990360D01*
X107045659Y-104933810D01*
X107051451Y-104875000D01*
X107051451Y-104625000D01*
X107045659Y-104566190D01*
X107028504Y-104509640D01*
X107023351Y-104500000D01*
X107028504Y-104490360D01*
X107045659Y-104433810D01*
X107051451Y-104375000D01*
X107051451Y-104125000D01*
X107045659Y-104066190D01*
X107028504Y-104009640D01*
X107023351Y-104000000D01*
X107028504Y-103990360D01*
X107045659Y-103933810D01*
X107051451Y-103875000D01*
X107051451Y-103625000D01*
X107045659Y-103566190D01*
X107028504Y-103509640D01*
X107023120Y-103499567D01*
X107038471Y-103462507D01*
X107050000Y-103404548D01*
X107050000Y-103330000D01*
X106975000Y-103255000D01*
X106405000Y-103255000D01*
X106405000Y-103275000D01*
X106395000Y-103275000D01*
X106395000Y-103255000D01*
X106375000Y-103255000D01*
X106375000Y-103245000D01*
X106395000Y-103245000D01*
X106395000Y-103225000D01*
X106405000Y-103225000D01*
X106405000Y-103245000D01*
X106975000Y-103245000D01*
X107026830Y-103193170D01*
X107030622Y-103196307D01*
X107351726Y-103517411D01*
X107362828Y-103531219D01*
X107379646Y-103545331D01*
X107381111Y-103546796D01*
X107394460Y-103557762D01*
X107422920Y-103581642D01*
X107424770Y-103582659D01*
X107426405Y-103584002D01*
X107459099Y-103601532D01*
X107491661Y-103619433D01*
X107493681Y-103620074D01*
X107495539Y-103621070D01*
X107529097Y-103631330D01*
X107529341Y-103633810D01*
X107546496Y-103690360D01*
X107574353Y-103742477D01*
X107611842Y-103788158D01*
X107657523Y-103825647D01*
X107709640Y-103853504D01*
X107766190Y-103870659D01*
X107825000Y-103876451D01*
X108400000Y-103876451D01*
X108458810Y-103870659D01*
X108499815Y-103858220D01*
X108512494Y-103863471D01*
X108570453Y-103875000D01*
X108807500Y-103875000D01*
X108882500Y-103800000D01*
X108882500Y-103255000D01*
X108892500Y-103255000D01*
X108892500Y-103800000D01*
X108967500Y-103875000D01*
X109204547Y-103875000D01*
X109262506Y-103863471D01*
X109317103Y-103840857D01*
X109366239Y-103808025D01*
X109408025Y-103766239D01*
X109440856Y-103717104D01*
X109463471Y-103662507D01*
X109475000Y-103604548D01*
X109475000Y-103330000D01*
X109400000Y-103255000D01*
X108892500Y-103255000D01*
X108882500Y-103255000D01*
X108862500Y-103255000D01*
X108862500Y-103245000D01*
X108882500Y-103245000D01*
X108882500Y-103225000D01*
X108892500Y-103225000D01*
X108892500Y-103245000D01*
X109400000Y-103245000D01*
X109475000Y-103170000D01*
X109475000Y-102895452D01*
X109463471Y-102837493D01*
X109440856Y-102782896D01*
X109419144Y-102750401D01*
X109425647Y-102742477D01*
X109453504Y-102690360D01*
X109465748Y-102650000D01*
X115428182Y-102650000D01*
X115445791Y-102651913D01*
X115467656Y-102650000D01*
X115469734Y-102650000D01*
X115486948Y-102648312D01*
X115523936Y-102645076D01*
X115525966Y-102644486D01*
X115528070Y-102644280D01*
X115563616Y-102633548D01*
X115599265Y-102623191D01*
X115601142Y-102622218D01*
X115603166Y-102621607D01*
X115635950Y-102604175D01*
X115668909Y-102587091D01*
X115670493Y-102585808D01*
X115672427Y-102584780D01*
X115733217Y-102535201D01*
X115746307Y-102519378D01*
X116258979Y-102006706D01*
X116263154Y-102007973D01*
X116400000Y-102021451D01*
X118100000Y-102021451D01*
X118236846Y-102007973D01*
X118368434Y-101968056D01*
X118489705Y-101903235D01*
X118596001Y-101816001D01*
X118683235Y-101709705D01*
X118748056Y-101588434D01*
X118787973Y-101456846D01*
X118801451Y-101320000D01*
X118801451Y-100520000D01*
X118787973Y-100383154D01*
X118748056Y-100251566D01*
X118683235Y-100130295D01*
X118596001Y-100023999D01*
X118489705Y-99936765D01*
X118368434Y-99871944D01*
X118236846Y-99832027D01*
X118100000Y-99818549D01*
X116400000Y-99818549D01*
X116263154Y-99832027D01*
X116131566Y-99871944D01*
X116010295Y-99936765D01*
X115903999Y-100023999D01*
X115816765Y-100130295D01*
X115751944Y-100251566D01*
X115712027Y-100383154D01*
X115698549Y-100520000D01*
X115698549Y-101320000D01*
X115708929Y-101425387D01*
X115284316Y-101850000D01*
X114966593Y-101850000D01*
X114976942Y-101825014D01*
X115000000Y-101709095D01*
X115000000Y-101590905D01*
X114976942Y-101474986D01*
X114931713Y-101365793D01*
X114866050Y-101267522D01*
X114782478Y-101183950D01*
X114684207Y-101118287D01*
X114575014Y-101073058D01*
X114459095Y-101050000D01*
X114340905Y-101050000D01*
X114224986Y-101073058D01*
X114115793Y-101118287D01*
X114017522Y-101183950D01*
X113933950Y-101267522D01*
X113868287Y-101365793D01*
X113833412Y-101449990D01*
X110140676Y-101449990D01*
X109673277Y-100982593D01*
X109662172Y-100968781D01*
X109645348Y-100954664D01*
X109643888Y-100953204D01*
X109630603Y-100942291D01*
X109602080Y-100918358D01*
X109600223Y-100917337D01*
X109598594Y-100915999D01*
X109565961Y-100898501D01*
X109533339Y-100880567D01*
X109531319Y-100879926D01*
X109529461Y-100878930D01*
X109494073Y-100868111D01*
X109468811Y-100860098D01*
X109453504Y-100809640D01*
X109425647Y-100757523D01*
X109388158Y-100711842D01*
X109342477Y-100674353D01*
X109290360Y-100646496D01*
X109233810Y-100629341D01*
X109175000Y-100623549D01*
X108600000Y-100623549D01*
X108541190Y-100629341D01*
X108500000Y-100641836D01*
X108458810Y-100629341D01*
X108400000Y-100623549D01*
X107825000Y-100623549D01*
X107766190Y-100629341D01*
X107709640Y-100646496D01*
X107657523Y-100674353D01*
X107619630Y-100705451D01*
X107606649Y-100698490D01*
X107574027Y-100680556D01*
X107572007Y-100679915D01*
X107570149Y-100678919D01*
X107534761Y-100668100D01*
X107499255Y-100656837D01*
X107497220Y-100656623D01*
X107495133Y-100655985D01*
X107417090Y-100648057D01*
X107396651Y-100649989D01*
X104215675Y-100649989D01*
X103998277Y-100432592D01*
X103987172Y-100418780D01*
X103970348Y-100404663D01*
X103968888Y-100403203D01*
X103955603Y-100392290D01*
X103927080Y-100368357D01*
X103925223Y-100367336D01*
X103923594Y-100365998D01*
X103890961Y-100348500D01*
X103858339Y-100330566D01*
X103856319Y-100329925D01*
X103854461Y-100328929D01*
X103819073Y-100318110D01*
X103783567Y-100306847D01*
X103781532Y-100306633D01*
X103779445Y-100305995D01*
X103701402Y-100298067D01*
X103680963Y-100299999D01*
X103305127Y-100299999D01*
X103305127Y-100199932D01*
X103282069Y-100084013D01*
X103236840Y-99974820D01*
X103171177Y-99876549D01*
X103087605Y-99792977D01*
X102989334Y-99727314D01*
X102880141Y-99682085D01*
X102764222Y-99659027D01*
X102670812Y-99659027D01*
X102386784Y-99375000D01*
X118481662Y-99375000D01*
X118621045Y-99388667D01*
X118621045Y-99388667D01*
G37*
X118621045Y-99388667D02*
X118737483Y-99423821D01*
X118844876Y-99480923D01*
X118939128Y-99557793D01*
X119016657Y-99651508D01*
X119074507Y-99758501D01*
X119110472Y-99874688D01*
X119125001Y-100012914D01*
X119125000Y-111981663D01*
X119111333Y-112121044D01*
X119076178Y-112237485D01*
X119019077Y-112344876D01*
X118942207Y-112439128D01*
X118848488Y-112516659D01*
X118741498Y-112574508D01*
X118625316Y-112610472D01*
X118487096Y-112625000D01*
X116123527Y-112625000D01*
X116567076Y-112181451D01*
X118100000Y-112181451D01*
X118236846Y-112167973D01*
X118368434Y-112128056D01*
X118489705Y-112063235D01*
X118596001Y-111976001D01*
X118683235Y-111869705D01*
X118748056Y-111748434D01*
X118787973Y-111616846D01*
X118801451Y-111480000D01*
X118801451Y-110680000D01*
X118787973Y-110543154D01*
X118748056Y-110411566D01*
X118683235Y-110290295D01*
X118596001Y-110183999D01*
X118489705Y-110096765D01*
X118368434Y-110031944D01*
X118236846Y-109992027D01*
X118100000Y-109978549D01*
X116400000Y-109978549D01*
X116263154Y-109992027D01*
X116131566Y-110031944D01*
X116010295Y-110096765D01*
X115903999Y-110183999D01*
X115816765Y-110290295D01*
X115751944Y-110411566D01*
X115712027Y-110543154D01*
X115698549Y-110680000D01*
X115698549Y-111352924D01*
X115351473Y-111700000D01*
X114740905Y-111700000D01*
X114712240Y-111705702D01*
X114682896Y-111708579D01*
X114654160Y-111717255D01*
X114624986Y-111723058D01*
X114598227Y-111734142D01*
X114570252Y-111742588D01*
X114543516Y-111756804D01*
X114515793Y-111768287D01*
X114491924Y-111784236D01*
X114466359Y-111797829D01*
X114442689Y-111817134D01*
X114417522Y-111833950D01*
X114397406Y-111854066D01*
X114375174Y-111872198D01*
X114355537Y-111895935D01*
X114333950Y-111917522D01*
X114318289Y-111940960D01*
X114300171Y-111962861D01*
X114285393Y-111990192D01*
X114268287Y-112015793D01*
X114257599Y-112041596D01*
X114244206Y-112066366D01*
X114234939Y-112096302D01*
X114223058Y-112124986D01*
X114217661Y-112152119D01*
X114209411Y-112178770D01*
X114206108Y-112210200D01*
X114200000Y-112240905D01*
X114200000Y-112268313D01*
X114197112Y-112295791D01*
X114200000Y-112327526D01*
X114200000Y-112359095D01*
X114205296Y-112385718D01*
X114207776Y-112412973D01*
X114216849Y-112443801D01*
X114223058Y-112475014D01*
X114233346Y-112499851D01*
X114240998Y-112525851D01*
X114256008Y-112554563D01*
X114268287Y-112584207D01*
X114283077Y-112606341D01*
X114292831Y-112625000D01*
X97177233Y-112625000D01*
X97221310Y-112620659D01*
X97277860Y-112603504D01*
X97329977Y-112575647D01*
X97360797Y-112550354D01*
X97424986Y-112576942D01*
X97540905Y-112600000D01*
X97659095Y-112600000D01*
X97775014Y-112576942D01*
X97884207Y-112531713D01*
X97982478Y-112466050D01*
X98066050Y-112382478D01*
X98131713Y-112284207D01*
X98176942Y-112175014D01*
X98200000Y-112059095D01*
X98200000Y-111940905D01*
X98176942Y-111824986D01*
X98131713Y-111715793D01*
X98099445Y-111667500D01*
X98575000Y-111667500D01*
X98575000Y-111904547D01*
X98586529Y-111962506D01*
X98609143Y-112017103D01*
X98641975Y-112066239D01*
X98683761Y-112108025D01*
X98732896Y-112140856D01*
X98787493Y-112163471D01*
X98845452Y-112175000D01*
X99120000Y-112175000D01*
X99195000Y-112100000D01*
X99195000Y-111592500D01*
X99205000Y-111592500D01*
X99205000Y-112100000D01*
X99280000Y-112175000D01*
X99554548Y-112175000D01*
X99612507Y-112163471D01*
X99667104Y-112140856D01*
X99716239Y-112108025D01*
X99758025Y-112066239D01*
X99790857Y-112017103D01*
X99813471Y-111962506D01*
X99825000Y-111904547D01*
X99825000Y-111667500D01*
X99750000Y-111592500D01*
X99205000Y-111592500D01*
X99195000Y-111592500D01*
X98650000Y-111592500D01*
X98575000Y-111667500D01*
X98099445Y-111667500D01*
X98066050Y-111617522D01*
X97982478Y-111533950D01*
X97884207Y-111468287D01*
X97775014Y-111423058D01*
X97659095Y-111400000D01*
X97540905Y-111400000D01*
X97424986Y-111423058D01*
X97360797Y-111449646D01*
X97329977Y-111424353D01*
X97277860Y-111396496D01*
X97221310Y-111379341D01*
X97162500Y-111373549D01*
X96587500Y-111373549D01*
X96528690Y-111379341D01*
X96487500Y-111391836D01*
X96446310Y-111379341D01*
X96387500Y-111373549D01*
X95812500Y-111373549D01*
X95753690Y-111379341D01*
X95697140Y-111396496D01*
X95645023Y-111424353D01*
X95629433Y-111437148D01*
X95613504Y-111384640D01*
X95585647Y-111332523D01*
X95548158Y-111286842D01*
X95502477Y-111249353D01*
X95450360Y-111221496D01*
X95393810Y-111204341D01*
X95349733Y-111200000D01*
X97659095Y-111200000D01*
X97687760Y-111194298D01*
X97717104Y-111191421D01*
X97745840Y-111182745D01*
X97775014Y-111176942D01*
X97801773Y-111165858D01*
X97829748Y-111157412D01*
X97856484Y-111143196D01*
X97884207Y-111131713D01*
X97908076Y-111115764D01*
X97933641Y-111102171D01*
X97957311Y-111082866D01*
X97982478Y-111066050D01*
X98002594Y-111045934D01*
X98024826Y-111027802D01*
X98044463Y-111004065D01*
X98066050Y-110982478D01*
X98081711Y-110959040D01*
X98099829Y-110937139D01*
X98114607Y-110909808D01*
X98131713Y-110884207D01*
X98142401Y-110858404D01*
X98155794Y-110833634D01*
X98165061Y-110803698D01*
X98176942Y-110775014D01*
X98182339Y-110747881D01*
X98190589Y-110721230D01*
X98193892Y-110689800D01*
X98200000Y-110659095D01*
X98200000Y-110631687D01*
X98202888Y-110604209D01*
X98200000Y-110572474D01*
X98200000Y-110540905D01*
X98194704Y-110514282D01*
X98192224Y-110487027D01*
X98183151Y-110456199D01*
X98176942Y-110424986D01*
X98166654Y-110400149D01*
X98159002Y-110374149D01*
X98143992Y-110345437D01*
X98131713Y-110315793D01*
X98116923Y-110293659D01*
X98104488Y-110269872D01*
X98084017Y-110244412D01*
X98066050Y-110217522D01*
X98047411Y-110198883D01*
X98030758Y-110178171D01*
X98005533Y-110157005D01*
X97982478Y-110133950D01*
X97960772Y-110119447D01*
X97940620Y-110102537D01*
X97911537Y-110086548D01*
X97884207Y-110068287D01*
X97860329Y-110058396D01*
X97837509Y-110045851D01*
X97805617Y-110035734D01*
X97775014Y-110023058D01*
X97749925Y-110018067D01*
X97725351Y-110010272D01*
X97694360Y-110007015D01*
X97659095Y-110000000D01*
X95743296Y-110000000D01*
X95748471Y-109987507D01*
X95760000Y-109929548D01*
X95760000Y-109480000D01*
X95685000Y-109405000D01*
X95130000Y-109405000D01*
X95130000Y-109425000D01*
X95120000Y-109425000D01*
X95120000Y-109405000D01*
X94565000Y-109405000D01*
X94490000Y-109480000D01*
X94490000Y-109929548D01*
X94501529Y-109987507D01*
X94506704Y-110000000D01*
X93993164Y-110000000D01*
X94005659Y-109958810D01*
X94011451Y-109900000D01*
X94011451Y-108900000D01*
X94005659Y-108841190D01*
X93988504Y-108784640D01*
X93960647Y-108732523D01*
X93923158Y-108686842D01*
X93900000Y-108667837D01*
X93900000Y-108630000D01*
X94170000Y-108630000D01*
X94245000Y-108555000D01*
X94245000Y-107805000D01*
X94225000Y-107805000D01*
X94225000Y-107795000D01*
X94245000Y-107795000D01*
X94245000Y-107045000D01*
X94255000Y-107045000D01*
X94255000Y-107795000D01*
X94275000Y-107795000D01*
X94275000Y-107805000D01*
X94255000Y-107805000D01*
X94255000Y-108555000D01*
X94330000Y-108630000D01*
X94604548Y-108630000D01*
X94662507Y-108618471D01*
X94717104Y-108595856D01*
X94725492Y-108590251D01*
X94748266Y-108602424D01*
X94702494Y-108611529D01*
X94647897Y-108634143D01*
X94598761Y-108666975D01*
X94556975Y-108708761D01*
X94524144Y-108757896D01*
X94501529Y-108812493D01*
X94490000Y-108870452D01*
X94490000Y-109320000D01*
X94565000Y-109395000D01*
X95120000Y-109395000D01*
X95120000Y-109375000D01*
X95130000Y-109375000D01*
X95130000Y-109395000D01*
X95685000Y-109395000D01*
X95760000Y-109320000D01*
X95760000Y-108870452D01*
X95748471Y-108812493D01*
X95725856Y-108757896D01*
X95693025Y-108708761D01*
X95651239Y-108666975D01*
X95602103Y-108634143D01*
X95582041Y-108625833D01*
X95583810Y-108625659D01*
X95640360Y-108608504D01*
X95692477Y-108580647D01*
X95738158Y-108543158D01*
X95775647Y-108497477D01*
X95803504Y-108445360D01*
X95817264Y-108400000D01*
X95959095Y-108400000D01*
X95987760Y-108394298D01*
X96017104Y-108391421D01*
X96045840Y-108382745D01*
X96075014Y-108376942D01*
X96101773Y-108365858D01*
X96129748Y-108357412D01*
X96156484Y-108343196D01*
X96184207Y-108331713D01*
X96186770Y-108330000D01*
X96537500Y-108330000D01*
X96537500Y-108604548D01*
X96549029Y-108662507D01*
X96571644Y-108717104D01*
X96604475Y-108766239D01*
X96646261Y-108808025D01*
X96695397Y-108840857D01*
X96749994Y-108863471D01*
X96807953Y-108875000D01*
X97045000Y-108875000D01*
X97120000Y-108800000D01*
X97120000Y-108255000D01*
X96612500Y-108255000D01*
X96537500Y-108330000D01*
X96186770Y-108330000D01*
X96208076Y-108315764D01*
X96233641Y-108302171D01*
X96257311Y-108282866D01*
X96282478Y-108266050D01*
X96302594Y-108245934D01*
X96324826Y-108227802D01*
X96344463Y-108204065D01*
X96366050Y-108182478D01*
X96381711Y-108159040D01*
X96399829Y-108137139D01*
X96414607Y-108109808D01*
X96431713Y-108084207D01*
X96442401Y-108058404D01*
X96455794Y-108033634D01*
X96465061Y-108003698D01*
X96476942Y-107975014D01*
X96482339Y-107947881D01*
X96490589Y-107921230D01*
X96493298Y-107895452D01*
X96537500Y-107895452D01*
X96537500Y-108170000D01*
X96612500Y-108245000D01*
X97120000Y-108245000D01*
X97120000Y-107700000D01*
X97045000Y-107625000D01*
X96807953Y-107625000D01*
X96749994Y-107636529D01*
X96695397Y-107659143D01*
X96646261Y-107691975D01*
X96604475Y-107733761D01*
X96571644Y-107782896D01*
X96549029Y-107837493D01*
X96537500Y-107895452D01*
X96493298Y-107895452D01*
X96493892Y-107889800D01*
X96500000Y-107859095D01*
X96500000Y-107831687D01*
X96502888Y-107804209D01*
X96500000Y-107772474D01*
X96500000Y-107740905D01*
X96494704Y-107714282D01*
X96492224Y-107687027D01*
X96483151Y-107656199D01*
X96476942Y-107624986D01*
X96466654Y-107600149D01*
X96459002Y-107574149D01*
X96443992Y-107545437D01*
X96431713Y-107515793D01*
X96416923Y-107493659D01*
X96404488Y-107469872D01*
X96384017Y-107444412D01*
X96366050Y-107417522D01*
X96347411Y-107398883D01*
X96330758Y-107378171D01*
X96305533Y-107357005D01*
X96282478Y-107333950D01*
X96260772Y-107319447D01*
X96240620Y-107302537D01*
X96211537Y-107286548D01*
X96184207Y-107268287D01*
X96160329Y-107258396D01*
X96137509Y-107245851D01*
X96105617Y-107235734D01*
X96075014Y-107223058D01*
X96049925Y-107218067D01*
X96025351Y-107210272D01*
X95994360Y-107207015D01*
X95959095Y-107200000D01*
X95817264Y-107200000D01*
X95803504Y-107154640D01*
X95775647Y-107102523D01*
X95738158Y-107056842D01*
X95692477Y-107019353D01*
X95640360Y-106991496D01*
X95583810Y-106974341D01*
X95525000Y-106968549D01*
X94875000Y-106968549D01*
X94816190Y-106974341D01*
X94759640Y-106991496D01*
X94725492Y-107009749D01*
X94717104Y-107004144D01*
X94662507Y-106981529D01*
X94604548Y-106970000D01*
X94330000Y-106970000D01*
X94255000Y-107045000D01*
X94245000Y-107045000D01*
X94170000Y-106970000D01*
X93895452Y-106970000D01*
X93837493Y-106981529D01*
X93782896Y-107004144D01*
X93774508Y-107009749D01*
X93740360Y-106991496D01*
X93683810Y-106974341D01*
X93625000Y-106968549D01*
X92975000Y-106968549D01*
X92916190Y-106974341D01*
X92859640Y-106991496D01*
X92807523Y-107019353D01*
X92761842Y-107056842D01*
X92724353Y-107102523D01*
X92696496Y-107154640D01*
X92682736Y-107200000D01*
X92440905Y-107200000D01*
X92412240Y-107205702D01*
X92382896Y-107208579D01*
X92354160Y-107217255D01*
X92324986Y-107223058D01*
X92298227Y-107234142D01*
X92270252Y-107242588D01*
X92243516Y-107256804D01*
X92215793Y-107268287D01*
X92191924Y-107284236D01*
X92166359Y-107297829D01*
X92142689Y-107317134D01*
X92117522Y-107333950D01*
X92097406Y-107354066D01*
X92075174Y-107372198D01*
X92055537Y-107395935D01*
X92033950Y-107417522D01*
X92018289Y-107440960D01*
X92000171Y-107462861D01*
X91985393Y-107490192D01*
X91968287Y-107515793D01*
X91957599Y-107541596D01*
X91944206Y-107566366D01*
X91934939Y-107596302D01*
X91923058Y-107624986D01*
X91917661Y-107652119D01*
X91909411Y-107678770D01*
X91906108Y-107710200D01*
X91900000Y-107740905D01*
X91900000Y-107768313D01*
X91897112Y-107795791D01*
X91900000Y-107827526D01*
X91900000Y-107859095D01*
X91905296Y-107885718D01*
X91907776Y-107912973D01*
X91916849Y-107943801D01*
X91923058Y-107975014D01*
X91933346Y-107999851D01*
X91940998Y-108025851D01*
X91956008Y-108054563D01*
X91968287Y-108084207D01*
X91983077Y-108106341D01*
X91995512Y-108130128D01*
X92015983Y-108155588D01*
X92033950Y-108182478D01*
X92052589Y-108201117D01*
X92069242Y-108221829D01*
X92094467Y-108242995D01*
X92117522Y-108266050D01*
X92139228Y-108280553D01*
X92159380Y-108297463D01*
X92188463Y-108313452D01*
X92215793Y-108331713D01*
X92239671Y-108341604D01*
X92262491Y-108354149D01*
X92294383Y-108364266D01*
X92324986Y-108376942D01*
X92350075Y-108381933D01*
X92374649Y-108389728D01*
X92405640Y-108392985D01*
X92440905Y-108400000D01*
X92682736Y-108400000D01*
X92696496Y-108445360D01*
X92700000Y-108451916D01*
X92700001Y-108904552D01*
X92629208Y-108897112D01*
X92597473Y-108900000D01*
X91100000Y-108900000D01*
X91100000Y-104453689D01*
X92083237Y-103470452D01*
X92740000Y-103470452D01*
X92740000Y-103920000D01*
X92815000Y-103995000D01*
X93370000Y-103995000D01*
X93370000Y-103275000D01*
X93380000Y-103275000D01*
X93380000Y-103995000D01*
X93935000Y-103995000D01*
X94010000Y-103920000D01*
X94010000Y-103470452D01*
X93998471Y-103412493D01*
X93975856Y-103357896D01*
X93943025Y-103308761D01*
X93901239Y-103266975D01*
X93852103Y-103234143D01*
X93797506Y-103211529D01*
X93739547Y-103200000D01*
X93455000Y-103200000D01*
X93380000Y-103275000D01*
X93370000Y-103275000D01*
X93295000Y-103200000D01*
X93010453Y-103200000D01*
X92952494Y-103211529D01*
X92897897Y-103234143D01*
X92848761Y-103266975D01*
X92806975Y-103308761D01*
X92774144Y-103357896D01*
X92751529Y-103412493D01*
X92740000Y-103470452D01*
X92083237Y-103470452D01*
X92839332Y-102714357D01*
X92868265Y-102784207D01*
X92933928Y-102882478D01*
X93017500Y-102966050D01*
X93115771Y-103031713D01*
X93224964Y-103076942D01*
X93340883Y-103100000D01*
X93459073Y-103100000D01*
X93574992Y-103076942D01*
X93684185Y-103031713D01*
X93782456Y-102966050D01*
X93866028Y-102882478D01*
X93931691Y-102784207D01*
X93976920Y-102675014D01*
X93999978Y-102559095D01*
X93999978Y-102440905D01*
X93976920Y-102324986D01*
X93937022Y-102228663D01*
X94365685Y-101800000D01*
X95859315Y-101800000D01*
X96064157Y-102004842D01*
X96048461Y-102034113D01*
X96030568Y-102066661D01*
X96029929Y-102068677D01*
X96028930Y-102070539D01*
X96018085Y-102106014D01*
X96006849Y-102141433D01*
X96006636Y-102143463D01*
X96005996Y-102145555D01*
X95998068Y-102223598D01*
X96000001Y-102244047D01*
X96000000Y-103675015D01*
X95923873Y-103598888D01*
X95907216Y-103578171D01*
X95881984Y-103556999D01*
X95879786Y-103554801D01*
X95859785Y-103538372D01*
X95817078Y-103502537D01*
X95814298Y-103501008D01*
X95811850Y-103498998D01*
X95762787Y-103472690D01*
X95758531Y-103470350D01*
X95755659Y-103441190D01*
X95738504Y-103384640D01*
X95710647Y-103332523D01*
X95673158Y-103286842D01*
X95627477Y-103249353D01*
X95575360Y-103221496D01*
X95518810Y-103204341D01*
X95460000Y-103198549D01*
X94790000Y-103198549D01*
X94731190Y-103204341D01*
X94674640Y-103221496D01*
X94622523Y-103249353D01*
X94576842Y-103286842D01*
X94539353Y-103332523D01*
X94511496Y-103384640D01*
X94494341Y-103441190D01*
X94488549Y-103500000D01*
X94488549Y-103787923D01*
X94010000Y-104266472D01*
X94010000Y-104080000D01*
X93935000Y-104005000D01*
X93380000Y-104005000D01*
X93380000Y-104025000D01*
X93370000Y-104025000D01*
X93370000Y-104005000D01*
X92815000Y-104005000D01*
X92740000Y-104080000D01*
X92740000Y-104529548D01*
X92751529Y-104587507D01*
X92774144Y-104642104D01*
X92806975Y-104691239D01*
X92848761Y-104733025D01*
X92897897Y-104765857D01*
X92917959Y-104774167D01*
X92916190Y-104774341D01*
X92859640Y-104791496D01*
X92807523Y-104819353D01*
X92761842Y-104856842D01*
X92724353Y-104902523D01*
X92696496Y-104954640D01*
X92679341Y-105011190D01*
X92673549Y-105070000D01*
X92673549Y-106130000D01*
X92679341Y-106188810D01*
X92696496Y-106245360D01*
X92724353Y-106297477D01*
X92761842Y-106343158D01*
X92807523Y-106380647D01*
X92859640Y-106408504D01*
X92916190Y-106425659D01*
X92975000Y-106431451D01*
X93625000Y-106431451D01*
X93683810Y-106425659D01*
X93740360Y-106408504D01*
X93792477Y-106380647D01*
X93838158Y-106343158D01*
X93875647Y-106297477D01*
X93903504Y-106245360D01*
X93920659Y-106188810D01*
X93926451Y-106130000D01*
X93926451Y-106046866D01*
X93949826Y-106027802D01*
X93969467Y-106004060D01*
X94573549Y-105399978D01*
X94573549Y-106130000D01*
X94579341Y-106188810D01*
X94596496Y-106245360D01*
X94624353Y-106297477D01*
X94661842Y-106343158D01*
X94707523Y-106380647D01*
X94759640Y-106408504D01*
X94816190Y-106425659D01*
X94875000Y-106431451D01*
X95525000Y-106431451D01*
X95583810Y-106425659D01*
X95640360Y-106408504D01*
X95692477Y-106380647D01*
X95738158Y-106343158D01*
X95775647Y-106297477D01*
X95784988Y-106280000D01*
X96525000Y-106280000D01*
X96525000Y-106554548D01*
X96536529Y-106612507D01*
X96559144Y-106667104D01*
X96591975Y-106716239D01*
X96633761Y-106758025D01*
X96682897Y-106790857D01*
X96737494Y-106813471D01*
X96795453Y-106825000D01*
X97032500Y-106825000D01*
X97107500Y-106750000D01*
X97107500Y-106205000D01*
X96600000Y-106205000D01*
X96525000Y-106280000D01*
X95784988Y-106280000D01*
X95803504Y-106245360D01*
X95820659Y-106188810D01*
X95826451Y-106130000D01*
X95826451Y-105198521D01*
X96329047Y-105701117D01*
X96345700Y-105721829D01*
X96370925Y-105742995D01*
X96373129Y-105745199D01*
X96393194Y-105761681D01*
X96435838Y-105797463D01*
X96438612Y-105798988D01*
X96441065Y-105801003D01*
X96490208Y-105827353D01*
X96525000Y-105846480D01*
X96525000Y-106120000D01*
X96600000Y-106195000D01*
X97107500Y-106195000D01*
X97107500Y-106175000D01*
X97117500Y-106175000D01*
X97117500Y-106195000D01*
X97137500Y-106195000D01*
X97137500Y-106205000D01*
X97117500Y-106205000D01*
X97117500Y-106750000D01*
X97192500Y-106825000D01*
X97429547Y-106825000D01*
X97487506Y-106813471D01*
X97500185Y-106808220D01*
X97541190Y-106820659D01*
X97600000Y-106826451D01*
X98175000Y-106826451D01*
X98233810Y-106820659D01*
X98290360Y-106803504D01*
X98342477Y-106775647D01*
X98388158Y-106738158D01*
X98425647Y-106692477D01*
X98448351Y-106650000D01*
X98948549Y-106650000D01*
X98948549Y-106875000D01*
X98954341Y-106933810D01*
X98971496Y-106990360D01*
X98976649Y-107000000D01*
X98971496Y-107009640D01*
X98954341Y-107066190D01*
X98948549Y-107125000D01*
X98948549Y-107375000D01*
X98954341Y-107433810D01*
X98971496Y-107490360D01*
X98976880Y-107500433D01*
X98961529Y-107537493D01*
X98950000Y-107595452D01*
X98950000Y-107670000D01*
X99025000Y-107745000D01*
X99595000Y-107745000D01*
X99595000Y-107725000D01*
X99605000Y-107725000D01*
X99605000Y-107745000D01*
X99625000Y-107745000D01*
X99625000Y-107755000D01*
X99605000Y-107755000D01*
X99605000Y-107775000D01*
X99595000Y-107775000D01*
X99595000Y-107755000D01*
X99025000Y-107755000D01*
X98950000Y-107830000D01*
X98950000Y-107850000D01*
X98478248Y-107850000D01*
X98466004Y-107809640D01*
X98440749Y-107762391D01*
X98476942Y-107675012D01*
X98500000Y-107559093D01*
X98500000Y-107440903D01*
X98476942Y-107324984D01*
X98431713Y-107215791D01*
X98366050Y-107117520D01*
X98282478Y-107033948D01*
X98184207Y-106968285D01*
X98075014Y-106923056D01*
X97959095Y-106899998D01*
X97840905Y-106899998D01*
X97724986Y-106923056D01*
X97615793Y-106968285D01*
X97517522Y-107033948D01*
X97433950Y-107117520D01*
X97368287Y-107215791D01*
X97323058Y-107324984D01*
X97300000Y-107440903D01*
X97300000Y-107559093D01*
X97313110Y-107625000D01*
X97205000Y-107625000D01*
X97130000Y-107700000D01*
X97130000Y-108245000D01*
X97150000Y-108245000D01*
X97150000Y-108255000D01*
X97130000Y-108255000D01*
X97130000Y-108800000D01*
X97205000Y-108875000D01*
X97442047Y-108875000D01*
X97500006Y-108863471D01*
X97512685Y-108858220D01*
X97553690Y-108870659D01*
X97612500Y-108876451D01*
X98187500Y-108876451D01*
X98246310Y-108870659D01*
X98302860Y-108853504D01*
X98354977Y-108825647D01*
X98400658Y-108788158D01*
X98438147Y-108742477D01*
X98466004Y-108690360D01*
X98478248Y-108650000D01*
X99128084Y-108650000D01*
X99134640Y-108653504D01*
X99191190Y-108670659D01*
X99211639Y-108672673D01*
X99216444Y-108688589D01*
X99226809Y-108724265D01*
X99227783Y-108726143D01*
X99228393Y-108728165D01*
X99245804Y-108760910D01*
X99262909Y-108793909D01*
X99264193Y-108795495D01*
X99265220Y-108797426D01*
X99314799Y-108858217D01*
X99330622Y-108871307D01*
X99626726Y-109167411D01*
X99637828Y-109181219D01*
X99654646Y-109195331D01*
X99656111Y-109196796D01*
X99669444Y-109207748D01*
X99681506Y-109217869D01*
X99650733Y-109226809D01*
X99648853Y-109227783D01*
X99646834Y-109228393D01*
X99614108Y-109245794D01*
X99581090Y-109262909D01*
X99579504Y-109264193D01*
X99577573Y-109265220D01*
X99516783Y-109314799D01*
X99503698Y-109330616D01*
X98932593Y-109901723D01*
X98918781Y-109912828D01*
X98904666Y-109929650D01*
X98903204Y-109931112D01*
X98892271Y-109944422D01*
X98868358Y-109972921D01*
X98867339Y-109974775D01*
X98865999Y-109976406D01*
X98848479Y-110009080D01*
X98830567Y-110041662D01*
X98829927Y-110043680D01*
X98828930Y-110045539D01*
X98818103Y-110080955D01*
X98806848Y-110116434D01*
X98806634Y-110118467D01*
X98805996Y-110120555D01*
X98798068Y-110198598D01*
X98800000Y-110219037D01*
X98800000Y-110234252D01*
X98759640Y-110246496D01*
X98707523Y-110274353D01*
X98661842Y-110311842D01*
X98624353Y-110357523D01*
X98596496Y-110409640D01*
X98579341Y-110466190D01*
X98573549Y-110525000D01*
X98573549Y-111100000D01*
X98579341Y-111158810D01*
X98591780Y-111199815D01*
X98586529Y-111212494D01*
X98575000Y-111270453D01*
X98575000Y-111507500D01*
X98650000Y-111582500D01*
X99195000Y-111582500D01*
X99195000Y-111562500D01*
X99205000Y-111562500D01*
X99205000Y-111582500D01*
X99750000Y-111582500D01*
X99825000Y-111507500D01*
X99825000Y-111270453D01*
X99813471Y-111212494D01*
X99808220Y-111199815D01*
X99820659Y-111158810D01*
X99826451Y-111100000D01*
X99826451Y-110736128D01*
X99924986Y-110776942D01*
X100040905Y-110800000D01*
X100159095Y-110800000D01*
X100275014Y-110776942D01*
X100384207Y-110731713D01*
X100400000Y-110721160D01*
X100400001Y-111974672D01*
X100407150Y-112047587D01*
X100435492Y-112141457D01*
X100481526Y-112228034D01*
X100543499Y-112304022D01*
X100619052Y-112366524D01*
X100705306Y-112413162D01*
X100798976Y-112442157D01*
X100896493Y-112452407D01*
X100994144Y-112443520D01*
X101088209Y-112415835D01*
X101175106Y-112370406D01*
X101251524Y-112308965D01*
X101314553Y-112233850D01*
X101361791Y-112147924D01*
X101391440Y-112054459D01*
X101400000Y-111973015D01*
X101400000Y-111205000D01*
X101600000Y-111205000D01*
X101600000Y-111955000D01*
X101610583Y-112052449D01*
X101639974Y-112145961D01*
X101687043Y-112231942D01*
X101749982Y-112307088D01*
X101826372Y-112368512D01*
X101913277Y-112413853D01*
X102007358Y-112441368D01*
X102016848Y-112443037D01*
X102095000Y-112374971D01*
X102095000Y-111205000D01*
X102105000Y-111205000D01*
X102105000Y-112374971D01*
X102183152Y-112443037D01*
X102192642Y-112441368D01*
X102286723Y-112413853D01*
X102373628Y-112368512D01*
X102450018Y-112307088D01*
X102512957Y-112231942D01*
X102560026Y-112145961D01*
X102589417Y-112052449D01*
X102600000Y-111955000D01*
X102600000Y-111205000D01*
X102105000Y-111205000D01*
X102095000Y-111205000D01*
X101600000Y-111205000D01*
X101400000Y-111205000D01*
X101400000Y-110425328D01*
X101399139Y-110416546D01*
X101415685Y-110400000D01*
X101604887Y-110400000D01*
X101600000Y-110445000D01*
X101600000Y-111195000D01*
X102095000Y-111195000D01*
X102095000Y-111175000D01*
X102105000Y-111175000D01*
X102105000Y-111195000D01*
X102600000Y-111195000D01*
X102600000Y-110445000D01*
X102596429Y-110412114D01*
X102800000Y-110615685D01*
X102800001Y-111974672D01*
X102807150Y-112047587D01*
X102835492Y-112141457D01*
X102881526Y-112228034D01*
X102943499Y-112304022D01*
X103019052Y-112366524D01*
X103105306Y-112413162D01*
X103198976Y-112442157D01*
X103296493Y-112452407D01*
X103394144Y-112443520D01*
X103488209Y-112415835D01*
X103575106Y-112370406D01*
X103651524Y-112308965D01*
X103714553Y-112233850D01*
X103761791Y-112147924D01*
X103791440Y-112054459D01*
X103800000Y-111973015D01*
X103800000Y-110715685D01*
X103873549Y-110789234D01*
X103873549Y-111100000D01*
X103879341Y-111158810D01*
X103891836Y-111200000D01*
X103879341Y-111241190D01*
X103873549Y-111300000D01*
X103873549Y-111875000D01*
X103879341Y-111933810D01*
X103896496Y-111990360D01*
X103924353Y-112042477D01*
X103961842Y-112088158D01*
X104007523Y-112125647D01*
X104059640Y-112153504D01*
X104110511Y-112168936D01*
X104116444Y-112188589D01*
X104126809Y-112224265D01*
X104127783Y-112226143D01*
X104128393Y-112228165D01*
X104145804Y-112260910D01*
X104162909Y-112293909D01*
X104164193Y-112295495D01*
X104165220Y-112297426D01*
X104214799Y-112358217D01*
X104230623Y-112371307D01*
X104326723Y-112467407D01*
X104337828Y-112481219D01*
X104354652Y-112495336D01*
X104356112Y-112496796D01*
X104369414Y-112507723D01*
X104397920Y-112531642D01*
X104399773Y-112532661D01*
X104401406Y-112534002D01*
X104434060Y-112551510D01*
X104466661Y-112569433D01*
X104468683Y-112570075D01*
X104470540Y-112571070D01*
X104505967Y-112581901D01*
X104541433Y-112593152D01*
X104543461Y-112593365D01*
X104545554Y-112594005D01*
X104623597Y-112601932D01*
X104644036Y-112600000D01*
X106578182Y-112600000D01*
X106595791Y-112601913D01*
X106617656Y-112600000D01*
X106619734Y-112600000D01*
X106636948Y-112598312D01*
X106673936Y-112595076D01*
X106675966Y-112594486D01*
X106678070Y-112594280D01*
X106713616Y-112583548D01*
X106749265Y-112573191D01*
X106751142Y-112572218D01*
X106753166Y-112571607D01*
X106785950Y-112554175D01*
X106818909Y-112537091D01*
X106820493Y-112535808D01*
X106822427Y-112534780D01*
X106883217Y-112485201D01*
X106896307Y-112469378D01*
X107167411Y-112198274D01*
X107181219Y-112187172D01*
X107195331Y-112170354D01*
X107196796Y-112168889D01*
X107207748Y-112155556D01*
X107231642Y-112127080D01*
X107232661Y-112125226D01*
X107234001Y-112123595D01*
X107251521Y-112090921D01*
X107269433Y-112058339D01*
X107270073Y-112056321D01*
X107271070Y-112054462D01*
X107281897Y-112019046D01*
X107293152Y-111983567D01*
X107293366Y-111981534D01*
X107294004Y-111979446D01*
X107301932Y-111901403D01*
X107300000Y-111880967D01*
X107300000Y-111248528D01*
X107366050Y-111182478D01*
X107431713Y-111084207D01*
X107476942Y-110975014D01*
X107500000Y-110859095D01*
X107500000Y-110740905D01*
X107476942Y-110624986D01*
X107431713Y-110515793D01*
X107366050Y-110417522D01*
X107348528Y-110400000D01*
X107534252Y-110400000D01*
X107546496Y-110440360D01*
X107574353Y-110492477D01*
X107611842Y-110538158D01*
X107657523Y-110575647D01*
X107709640Y-110603504D01*
X107766190Y-110620659D01*
X107825000Y-110626451D01*
X108400000Y-110626451D01*
X108458810Y-110620659D01*
X108500000Y-110608164D01*
X108541190Y-110620659D01*
X108600000Y-110626451D01*
X109175000Y-110626451D01*
X109233810Y-110620659D01*
X109290360Y-110603504D01*
X109342477Y-110575647D01*
X109388158Y-110538158D01*
X109425647Y-110492477D01*
X109453504Y-110440360D01*
X109465748Y-110400000D01*
X115278182Y-110400000D01*
X115295791Y-110401913D01*
X115317656Y-110400000D01*
X115319734Y-110400000D01*
X115336948Y-110398312D01*
X115373936Y-110395076D01*
X115375966Y-110394486D01*
X115378070Y-110394280D01*
X115413616Y-110383548D01*
X115449265Y-110373191D01*
X115451142Y-110372218D01*
X115453166Y-110371607D01*
X115485950Y-110354175D01*
X115518909Y-110337091D01*
X115520493Y-110335808D01*
X115522427Y-110334780D01*
X115583217Y-110285201D01*
X115596307Y-110269378D01*
X116243634Y-109622051D01*
X116263154Y-109627973D01*
X116400000Y-109641451D01*
X118100000Y-109641451D01*
X118236846Y-109627973D01*
X118368434Y-109588056D01*
X118489705Y-109523235D01*
X118596001Y-109436001D01*
X118683235Y-109329705D01*
X118748056Y-109208434D01*
X118787973Y-109076846D01*
X118801451Y-108940000D01*
X118801451Y-108140000D01*
X118787973Y-108003154D01*
X118748056Y-107871566D01*
X118683235Y-107750295D01*
X118596001Y-107643999D01*
X118489705Y-107556765D01*
X118368434Y-107491944D01*
X118236846Y-107452027D01*
X118100000Y-107438549D01*
X116400000Y-107438549D01*
X116263154Y-107452027D01*
X116131566Y-107491944D01*
X116010295Y-107556765D01*
X115903999Y-107643999D01*
X115816765Y-107750295D01*
X115751944Y-107871566D01*
X115712027Y-108003154D01*
X115698549Y-108140000D01*
X115698549Y-108940000D01*
X115707135Y-109027180D01*
X115617799Y-109116517D01*
X115607448Y-109091528D01*
X115541785Y-108993257D01*
X115458213Y-108909685D01*
X115359942Y-108844022D01*
X115250749Y-108798793D01*
X115134830Y-108775735D01*
X115016640Y-108775735D01*
X114900721Y-108798793D01*
X114791528Y-108844022D01*
X114693257Y-108909685D01*
X114609685Y-108993257D01*
X114544022Y-109091528D01*
X114499092Y-109200000D01*
X110140686Y-109200000D01*
X109673277Y-108732593D01*
X109662172Y-108718781D01*
X109645348Y-108704664D01*
X109643888Y-108703204D01*
X109630603Y-108692291D01*
X109602080Y-108668358D01*
X109600223Y-108667337D01*
X109598594Y-108665999D01*
X109565961Y-108648501D01*
X109533339Y-108630567D01*
X109531319Y-108629926D01*
X109529461Y-108628930D01*
X109494073Y-108618111D01*
X109468811Y-108610098D01*
X109453504Y-108559640D01*
X109425647Y-108507523D01*
X109419473Y-108500000D01*
X109425647Y-108492477D01*
X109453504Y-108440360D01*
X109465748Y-108400000D01*
X114778182Y-108400000D01*
X114795791Y-108401913D01*
X114817656Y-108400000D01*
X114819734Y-108400000D01*
X114836948Y-108398312D01*
X114873936Y-108395076D01*
X114875966Y-108394486D01*
X114878070Y-108394280D01*
X114913616Y-108383548D01*
X114949265Y-108373191D01*
X114951142Y-108372218D01*
X114953166Y-108371607D01*
X114985950Y-108354175D01*
X115018909Y-108337091D01*
X115020493Y-108335808D01*
X115022427Y-108334780D01*
X115083217Y-108285201D01*
X115096307Y-108269378D01*
X116276407Y-107089278D01*
X116400000Y-107101451D01*
X118100000Y-107101451D01*
X118236846Y-107087973D01*
X118368434Y-107048056D01*
X118489705Y-106983235D01*
X118596001Y-106896001D01*
X118683235Y-106789705D01*
X118748056Y-106668434D01*
X118787973Y-106536846D01*
X118801451Y-106400000D01*
X118801451Y-105600000D01*
X118787973Y-105463154D01*
X118748056Y-105331566D01*
X118683235Y-105210295D01*
X118596001Y-105103999D01*
X118489705Y-105016765D01*
X118368434Y-104951944D01*
X118236846Y-104912027D01*
X118100000Y-104898549D01*
X116400000Y-104898549D01*
X116263154Y-104912027D01*
X116131566Y-104951944D01*
X116010295Y-105016765D01*
X115903999Y-105103999D01*
X115816765Y-105210295D01*
X115751944Y-105331566D01*
X115712027Y-105463154D01*
X115698549Y-105600000D01*
X115698549Y-106400000D01*
X115710722Y-106523593D01*
X115257139Y-106977177D01*
X115231713Y-106915793D01*
X115166050Y-106817522D01*
X115082478Y-106733950D01*
X114984207Y-106668287D01*
X114875014Y-106623058D01*
X114759095Y-106600000D01*
X114640905Y-106600000D01*
X114524986Y-106623058D01*
X114415793Y-106668287D01*
X114317522Y-106733950D01*
X114233950Y-106817522D01*
X114168287Y-106915793D01*
X114123058Y-107024986D01*
X114100000Y-107140905D01*
X114100000Y-107199990D01*
X110140676Y-107199990D01*
X109673277Y-106732593D01*
X109662172Y-106718781D01*
X109645348Y-106704664D01*
X109643888Y-106703204D01*
X109630603Y-106692291D01*
X109602080Y-106668358D01*
X109600223Y-106667337D01*
X109598594Y-106665999D01*
X109565961Y-106648501D01*
X109533339Y-106630567D01*
X109531319Y-106629926D01*
X109529461Y-106628930D01*
X109494073Y-106618111D01*
X109468811Y-106610098D01*
X109453504Y-106559640D01*
X109425647Y-106507523D01*
X109419473Y-106500000D01*
X109425647Y-106492477D01*
X109453504Y-106440360D01*
X109465748Y-106400000D01*
X114278182Y-106400000D01*
X114295791Y-106401913D01*
X114317656Y-106400000D01*
X114319734Y-106400000D01*
X114336948Y-106398312D01*
X114373936Y-106395076D01*
X114375966Y-106394486D01*
X114378070Y-106394280D01*
X114413616Y-106383548D01*
X114449265Y-106373191D01*
X114451142Y-106372218D01*
X114453166Y-106371607D01*
X114485950Y-106354175D01*
X114518909Y-106337091D01*
X114520493Y-106335808D01*
X114522427Y-106334780D01*
X114583217Y-106285201D01*
X114596307Y-106269378D01*
X116312820Y-104552865D01*
X116400000Y-104561451D01*
X118100000Y-104561451D01*
X118236846Y-104547973D01*
X118368434Y-104508056D01*
X118489705Y-104443235D01*
X118596001Y-104356001D01*
X118683235Y-104249705D01*
X118748056Y-104128434D01*
X118787973Y-103996846D01*
X118801451Y-103860000D01*
X118801451Y-103060000D01*
X118787973Y-102923154D01*
X118748056Y-102791566D01*
X118683235Y-102670295D01*
X118596001Y-102563999D01*
X118489705Y-102476765D01*
X118368434Y-102411944D01*
X118236846Y-102372027D01*
X118100000Y-102358549D01*
X116400000Y-102358549D01*
X116263154Y-102372027D01*
X116131566Y-102411944D01*
X116010295Y-102476765D01*
X115903999Y-102563999D01*
X115816765Y-102670295D01*
X115751944Y-102791566D01*
X115712027Y-102923154D01*
X115698549Y-103060000D01*
X115698549Y-103860000D01*
X115712027Y-103996846D01*
X115717949Y-104016367D01*
X115367799Y-104366517D01*
X115357448Y-104341528D01*
X115291785Y-104243257D01*
X115208213Y-104159685D01*
X115109942Y-104094022D01*
X115000749Y-104048793D01*
X114884830Y-104025735D01*
X114766640Y-104025735D01*
X114650721Y-104048793D01*
X114541528Y-104094022D01*
X114443257Y-104159685D01*
X114359685Y-104243257D01*
X114294022Y-104341528D01*
X114248793Y-104450721D01*
X114225735Y-104566640D01*
X114225735Y-104660050D01*
X113685796Y-105199990D01*
X110140676Y-105199990D01*
X109673277Y-104732593D01*
X109662172Y-104718781D01*
X109645348Y-104704664D01*
X109643888Y-104703204D01*
X109630603Y-104692291D01*
X109602080Y-104668358D01*
X109600223Y-104667337D01*
X109598594Y-104665999D01*
X109565961Y-104648501D01*
X109533339Y-104630567D01*
X109531319Y-104629926D01*
X109529461Y-104628930D01*
X109494073Y-104618111D01*
X109468811Y-104610098D01*
X109453504Y-104559640D01*
X109425647Y-104507523D01*
X109388158Y-104461842D01*
X109342477Y-104424353D01*
X109290360Y-104396496D01*
X109233810Y-104379341D01*
X109175000Y-104373549D01*
X108600000Y-104373549D01*
X108541190Y-104379341D01*
X108500000Y-104391836D01*
X108458810Y-104379341D01*
X108400000Y-104373549D01*
X107825000Y-104373549D01*
X107766190Y-104379341D01*
X107709640Y-104396496D01*
X107657523Y-104424353D01*
X107611842Y-104461842D01*
X107574353Y-104507523D01*
X107546496Y-104559640D01*
X107529341Y-104616190D01*
X107527106Y-104638883D01*
X107514108Y-104645794D01*
X107481090Y-104662909D01*
X107479504Y-104664193D01*
X107477573Y-104665220D01*
X107416783Y-104714799D01*
X107403698Y-104730616D01*
X107047673Y-105086642D01*
X107045659Y-105066190D01*
X107028504Y-105009640D01*
X107023351Y-105000000D01*
X107028504Y-104990360D01*
X107045659Y-104933810D01*
X107051451Y-104875000D01*
X107051451Y-104625000D01*
X107045659Y-104566190D01*
X107028504Y-104509640D01*
X107023351Y-104500000D01*
X107028504Y-104490360D01*
X107045659Y-104433810D01*
X107051451Y-104375000D01*
X107051451Y-104125000D01*
X107045659Y-104066190D01*
X107028504Y-104009640D01*
X107023351Y-104000000D01*
X107028504Y-103990360D01*
X107045659Y-103933810D01*
X107051451Y-103875000D01*
X107051451Y-103625000D01*
X107045659Y-103566190D01*
X107028504Y-103509640D01*
X107023120Y-103499567D01*
X107038471Y-103462507D01*
X107050000Y-103404548D01*
X107050000Y-103330000D01*
X106975000Y-103255000D01*
X106405000Y-103255000D01*
X106405000Y-103275000D01*
X106395000Y-103275000D01*
X106395000Y-103255000D01*
X106375000Y-103255000D01*
X106375000Y-103245000D01*
X106395000Y-103245000D01*
X106395000Y-103225000D01*
X106405000Y-103225000D01*
X106405000Y-103245000D01*
X106975000Y-103245000D01*
X107026830Y-103193170D01*
X107030622Y-103196307D01*
X107351726Y-103517411D01*
X107362828Y-103531219D01*
X107379646Y-103545331D01*
X107381111Y-103546796D01*
X107394460Y-103557762D01*
X107422920Y-103581642D01*
X107424770Y-103582659D01*
X107426405Y-103584002D01*
X107459099Y-103601532D01*
X107491661Y-103619433D01*
X107493681Y-103620074D01*
X107495539Y-103621070D01*
X107529097Y-103631330D01*
X107529341Y-103633810D01*
X107546496Y-103690360D01*
X107574353Y-103742477D01*
X107611842Y-103788158D01*
X107657523Y-103825647D01*
X107709640Y-103853504D01*
X107766190Y-103870659D01*
X107825000Y-103876451D01*
X108400000Y-103876451D01*
X108458810Y-103870659D01*
X108499815Y-103858220D01*
X108512494Y-103863471D01*
X108570453Y-103875000D01*
X108807500Y-103875000D01*
X108882500Y-103800000D01*
X108882500Y-103255000D01*
X108892500Y-103255000D01*
X108892500Y-103800000D01*
X108967500Y-103875000D01*
X109204547Y-103875000D01*
X109262506Y-103863471D01*
X109317103Y-103840857D01*
X109366239Y-103808025D01*
X109408025Y-103766239D01*
X109440856Y-103717104D01*
X109463471Y-103662507D01*
X109475000Y-103604548D01*
X109475000Y-103330000D01*
X109400000Y-103255000D01*
X108892500Y-103255000D01*
X108882500Y-103255000D01*
X108862500Y-103255000D01*
X108862500Y-103245000D01*
X108882500Y-103245000D01*
X108882500Y-103225000D01*
X108892500Y-103225000D01*
X108892500Y-103245000D01*
X109400000Y-103245000D01*
X109475000Y-103170000D01*
X109475000Y-102895452D01*
X109463471Y-102837493D01*
X109440856Y-102782896D01*
X109419144Y-102750401D01*
X109425647Y-102742477D01*
X109453504Y-102690360D01*
X109465748Y-102650000D01*
X115428182Y-102650000D01*
X115445791Y-102651913D01*
X115467656Y-102650000D01*
X115469734Y-102650000D01*
X115486948Y-102648312D01*
X115523936Y-102645076D01*
X115525966Y-102644486D01*
X115528070Y-102644280D01*
X115563616Y-102633548D01*
X115599265Y-102623191D01*
X115601142Y-102622218D01*
X115603166Y-102621607D01*
X115635950Y-102604175D01*
X115668909Y-102587091D01*
X115670493Y-102585808D01*
X115672427Y-102584780D01*
X115733217Y-102535201D01*
X115746307Y-102519378D01*
X116258979Y-102006706D01*
X116263154Y-102007973D01*
X116400000Y-102021451D01*
X118100000Y-102021451D01*
X118236846Y-102007973D01*
X118368434Y-101968056D01*
X118489705Y-101903235D01*
X118596001Y-101816001D01*
X118683235Y-101709705D01*
X118748056Y-101588434D01*
X118787973Y-101456846D01*
X118801451Y-101320000D01*
X118801451Y-100520000D01*
X118787973Y-100383154D01*
X118748056Y-100251566D01*
X118683235Y-100130295D01*
X118596001Y-100023999D01*
X118489705Y-99936765D01*
X118368434Y-99871944D01*
X118236846Y-99832027D01*
X118100000Y-99818549D01*
X116400000Y-99818549D01*
X116263154Y-99832027D01*
X116131566Y-99871944D01*
X116010295Y-99936765D01*
X115903999Y-100023999D01*
X115816765Y-100130295D01*
X115751944Y-100251566D01*
X115712027Y-100383154D01*
X115698549Y-100520000D01*
X115698549Y-101320000D01*
X115708929Y-101425387D01*
X115284316Y-101850000D01*
X114966593Y-101850000D01*
X114976942Y-101825014D01*
X115000000Y-101709095D01*
X115000000Y-101590905D01*
X114976942Y-101474986D01*
X114931713Y-101365793D01*
X114866050Y-101267522D01*
X114782478Y-101183950D01*
X114684207Y-101118287D01*
X114575014Y-101073058D01*
X114459095Y-101050000D01*
X114340905Y-101050000D01*
X114224986Y-101073058D01*
X114115793Y-101118287D01*
X114017522Y-101183950D01*
X113933950Y-101267522D01*
X113868287Y-101365793D01*
X113833412Y-101449990D01*
X110140676Y-101449990D01*
X109673277Y-100982593D01*
X109662172Y-100968781D01*
X109645348Y-100954664D01*
X109643888Y-100953204D01*
X109630603Y-100942291D01*
X109602080Y-100918358D01*
X109600223Y-100917337D01*
X109598594Y-100915999D01*
X109565961Y-100898501D01*
X109533339Y-100880567D01*
X109531319Y-100879926D01*
X109529461Y-100878930D01*
X109494073Y-100868111D01*
X109468811Y-100860098D01*
X109453504Y-100809640D01*
X109425647Y-100757523D01*
X109388158Y-100711842D01*
X109342477Y-100674353D01*
X109290360Y-100646496D01*
X109233810Y-100629341D01*
X109175000Y-100623549D01*
X108600000Y-100623549D01*
X108541190Y-100629341D01*
X108500000Y-100641836D01*
X108458810Y-100629341D01*
X108400000Y-100623549D01*
X107825000Y-100623549D01*
X107766190Y-100629341D01*
X107709640Y-100646496D01*
X107657523Y-100674353D01*
X107619630Y-100705451D01*
X107606649Y-100698490D01*
X107574027Y-100680556D01*
X107572007Y-100679915D01*
X107570149Y-100678919D01*
X107534761Y-100668100D01*
X107499255Y-100656837D01*
X107497220Y-100656623D01*
X107495133Y-100655985D01*
X107417090Y-100648057D01*
X107396651Y-100649989D01*
X104215675Y-100649989D01*
X103998277Y-100432592D01*
X103987172Y-100418780D01*
X103970348Y-100404663D01*
X103968888Y-100403203D01*
X103955603Y-100392290D01*
X103927080Y-100368357D01*
X103925223Y-100367336D01*
X103923594Y-100365998D01*
X103890961Y-100348500D01*
X103858339Y-100330566D01*
X103856319Y-100329925D01*
X103854461Y-100328929D01*
X103819073Y-100318110D01*
X103783567Y-100306847D01*
X103781532Y-100306633D01*
X103779445Y-100305995D01*
X103701402Y-100298067D01*
X103680963Y-100299999D01*
X103305127Y-100299999D01*
X103305127Y-100199932D01*
X103282069Y-100084013D01*
X103236840Y-99974820D01*
X103171177Y-99876549D01*
X103087605Y-99792977D01*
X102989334Y-99727314D01*
X102880141Y-99682085D01*
X102764222Y-99659027D01*
X102670812Y-99659027D01*
X102386784Y-99375000D01*
X118481662Y-99375000D01*
X118621045Y-99388667D01*
G36*
X92653338Y-110401867D02*
X92670718Y-110423329D01*
X92695187Y-110443716D01*
X92696670Y-110445199D01*
X92696681Y-110445208D01*
X93252589Y-111001117D01*
X93269242Y-111021829D01*
X93294467Y-111042995D01*
X93296671Y-111045199D01*
X93316719Y-111061667D01*
X93359380Y-111097463D01*
X93362157Y-111098990D01*
X93364607Y-111101002D01*
X93413711Y-111127332D01*
X93462491Y-111154149D01*
X93465510Y-111155107D01*
X93468306Y-111156606D01*
X93521580Y-111172893D01*
X93574649Y-111189728D01*
X93577690Y-111190048D01*
X93580831Y-111191008D01*
X93697895Y-111202898D01*
X93728554Y-111200000D01*
X94650267Y-111200000D01*
X94606190Y-111204341D01*
X94549640Y-111221496D01*
X94497523Y-111249353D01*
X94451842Y-111286842D01*
X94414353Y-111332523D01*
X94386496Y-111384640D01*
X94369341Y-111441190D01*
X94363549Y-111500000D01*
X94363549Y-112500000D01*
X94369341Y-112558810D01*
X94386496Y-112615360D01*
X94391649Y-112625000D01*
X93857941Y-112625000D01*
X93873471Y-112587507D01*
X93885000Y-112529548D01*
X93885000Y-112080000D01*
X93810000Y-112005000D01*
X93255000Y-112005000D01*
X93255000Y-112025000D01*
X93245000Y-112025000D01*
X93245000Y-112005000D01*
X92690000Y-112005000D01*
X92615000Y-112080000D01*
X92615000Y-112529548D01*
X92626529Y-112587507D01*
X92632675Y-112602344D01*
X91779631Y-111749302D01*
X91769223Y-111736357D01*
X91753456Y-111723127D01*
X91752082Y-111721753D01*
X91739569Y-111711475D01*
X91712887Y-111689086D01*
X91711151Y-111688132D01*
X91709620Y-111686874D01*
X91678982Y-111670446D01*
X91648443Y-111653657D01*
X91646550Y-111653056D01*
X91644807Y-111652122D01*
X91611621Y-111641976D01*
X91578344Y-111631420D01*
X91576437Y-111631220D01*
X91574479Y-111630621D01*
X91501315Y-111623189D01*
X91482155Y-111625000D01*
X91100000Y-111625000D01*
X91100000Y-111470452D01*
X92615000Y-111470452D01*
X92615000Y-111920000D01*
X92690000Y-111995000D01*
X93245000Y-111995000D01*
X93245000Y-111275000D01*
X93255000Y-111275000D01*
X93255000Y-111995000D01*
X93810000Y-111995000D01*
X93885000Y-111920000D01*
X93885000Y-111470452D01*
X93873471Y-111412493D01*
X93850856Y-111357896D01*
X93818025Y-111308761D01*
X93776239Y-111266975D01*
X93727103Y-111234143D01*
X93672506Y-111211529D01*
X93614547Y-111200000D01*
X93330000Y-111200000D01*
X93255000Y-111275000D01*
X93245000Y-111275000D01*
X93170000Y-111200000D01*
X92885453Y-111200000D01*
X92827494Y-111211529D01*
X92772897Y-111234143D01*
X92723761Y-111266975D01*
X92681975Y-111308761D01*
X92649144Y-111357896D01*
X92626529Y-111412493D01*
X92615000Y-111470452D01*
X91100000Y-111470452D01*
X91100000Y-110100000D01*
X92351472Y-110100000D01*
X92653338Y-110401867D01*
X92653338Y-110401867D01*
G37*
X92653338Y-110401867D02*
X92670718Y-110423329D01*
X92695187Y-110443716D01*
X92696670Y-110445199D01*
X92696681Y-110445208D01*
X93252589Y-111001117D01*
X93269242Y-111021829D01*
X93294467Y-111042995D01*
X93296671Y-111045199D01*
X93316719Y-111061667D01*
X93359380Y-111097463D01*
X93362157Y-111098990D01*
X93364607Y-111101002D01*
X93413711Y-111127332D01*
X93462491Y-111154149D01*
X93465510Y-111155107D01*
X93468306Y-111156606D01*
X93521580Y-111172893D01*
X93574649Y-111189728D01*
X93577690Y-111190048D01*
X93580831Y-111191008D01*
X93697895Y-111202898D01*
X93728554Y-111200000D01*
X94650267Y-111200000D01*
X94606190Y-111204341D01*
X94549640Y-111221496D01*
X94497523Y-111249353D01*
X94451842Y-111286842D01*
X94414353Y-111332523D01*
X94386496Y-111384640D01*
X94369341Y-111441190D01*
X94363549Y-111500000D01*
X94363549Y-112500000D01*
X94369341Y-112558810D01*
X94386496Y-112615360D01*
X94391649Y-112625000D01*
X93857941Y-112625000D01*
X93873471Y-112587507D01*
X93885000Y-112529548D01*
X93885000Y-112080000D01*
X93810000Y-112005000D01*
X93255000Y-112005000D01*
X93255000Y-112025000D01*
X93245000Y-112025000D01*
X93245000Y-112005000D01*
X92690000Y-112005000D01*
X92615000Y-112080000D01*
X92615000Y-112529548D01*
X92626529Y-112587507D01*
X92632675Y-112602344D01*
X91779631Y-111749302D01*
X91769223Y-111736357D01*
X91753456Y-111723127D01*
X91752082Y-111721753D01*
X91739569Y-111711475D01*
X91712887Y-111689086D01*
X91711151Y-111688132D01*
X91709620Y-111686874D01*
X91678982Y-111670446D01*
X91648443Y-111653657D01*
X91646550Y-111653056D01*
X91644807Y-111652122D01*
X91611621Y-111641976D01*
X91578344Y-111631420D01*
X91576437Y-111631220D01*
X91574479Y-111630621D01*
X91501315Y-111623189D01*
X91482155Y-111625000D01*
X91100000Y-111625000D01*
X91100000Y-111470452D01*
X92615000Y-111470452D01*
X92615000Y-111920000D01*
X92690000Y-111995000D01*
X93245000Y-111995000D01*
X93245000Y-111275000D01*
X93255000Y-111275000D01*
X93255000Y-111995000D01*
X93810000Y-111995000D01*
X93885000Y-111920000D01*
X93885000Y-111470452D01*
X93873471Y-111412493D01*
X93850856Y-111357896D01*
X93818025Y-111308761D01*
X93776239Y-111266975D01*
X93727103Y-111234143D01*
X93672506Y-111211529D01*
X93614547Y-111200000D01*
X93330000Y-111200000D01*
X93255000Y-111275000D01*
X93245000Y-111275000D01*
X93170000Y-111200000D01*
X92885453Y-111200000D01*
X92827494Y-111211529D01*
X92772897Y-111234143D01*
X92723761Y-111266975D01*
X92681975Y-111308761D01*
X92649144Y-111357896D01*
X92626529Y-111412493D01*
X92615000Y-111470452D01*
X91100000Y-111470452D01*
X91100000Y-110100000D01*
X92351472Y-110100000D01*
X92653338Y-110401867D01*
G36*
X103830000Y-109550000D02*
X103903108Y-109550000D01*
X103912909Y-109568909D01*
X103914195Y-109570496D01*
X103915221Y-109572427D01*
X103964800Y-109633217D01*
X103980617Y-109646302D01*
X104201723Y-109867407D01*
X104212828Y-109881219D01*
X104229652Y-109895336D01*
X104231112Y-109896796D01*
X104244411Y-109907720D01*
X104272920Y-109931642D01*
X104274774Y-109932661D01*
X104276405Y-109934001D01*
X104309079Y-109951521D01*
X104341661Y-109969433D01*
X104343679Y-109970073D01*
X104345538Y-109971070D01*
X104380954Y-109981897D01*
X104416433Y-109993152D01*
X104418466Y-109993366D01*
X104420554Y-109994004D01*
X104498596Y-110001931D01*
X104519025Y-110000000D01*
X105334315Y-110000000D01*
X105575883Y-110241568D01*
X105559640Y-110246496D01*
X105507523Y-110274353D01*
X105461842Y-110311842D01*
X105424353Y-110357523D01*
X105396496Y-110409640D01*
X105379341Y-110466190D01*
X105373549Y-110525000D01*
X105373549Y-111100000D01*
X105379341Y-111158810D01*
X105391780Y-111199815D01*
X105386529Y-111212494D01*
X105375000Y-111270453D01*
X105375000Y-111507500D01*
X105450000Y-111582500D01*
X105995000Y-111582500D01*
X105995000Y-111562500D01*
X106005000Y-111562500D01*
X106005000Y-111582500D01*
X106025000Y-111582500D01*
X106025000Y-111592500D01*
X106005000Y-111592500D01*
X106005000Y-111612500D01*
X105995000Y-111612500D01*
X105995000Y-111592500D01*
X105450000Y-111592500D01*
X105375000Y-111667500D01*
X105375000Y-111800000D01*
X105126451Y-111800000D01*
X105126451Y-111300000D01*
X105120659Y-111241190D01*
X105108164Y-111200000D01*
X105120659Y-111158810D01*
X105126451Y-111100000D01*
X105126451Y-110525000D01*
X105120659Y-110466190D01*
X105103504Y-110409640D01*
X105075647Y-110357523D01*
X105038158Y-110311842D01*
X104992477Y-110274353D01*
X104940360Y-110246496D01*
X104883810Y-110229341D01*
X104825000Y-110223549D01*
X104439234Y-110223549D01*
X103755002Y-109539318D01*
X103755002Y-109475002D01*
X103830000Y-109550000D01*
X103830000Y-109550000D01*
G37*
X103830000Y-109550000D02*
X103903108Y-109550000D01*
X103912909Y-109568909D01*
X103914195Y-109570496D01*
X103915221Y-109572427D01*
X103964800Y-109633217D01*
X103980617Y-109646302D01*
X104201723Y-109867407D01*
X104212828Y-109881219D01*
X104229652Y-109895336D01*
X104231112Y-109896796D01*
X104244411Y-109907720D01*
X104272920Y-109931642D01*
X104274774Y-109932661D01*
X104276405Y-109934001D01*
X104309079Y-109951521D01*
X104341661Y-109969433D01*
X104343679Y-109970073D01*
X104345538Y-109971070D01*
X104380954Y-109981897D01*
X104416433Y-109993152D01*
X104418466Y-109993366D01*
X104420554Y-109994004D01*
X104498596Y-110001931D01*
X104519025Y-110000000D01*
X105334315Y-110000000D01*
X105575883Y-110241568D01*
X105559640Y-110246496D01*
X105507523Y-110274353D01*
X105461842Y-110311842D01*
X105424353Y-110357523D01*
X105396496Y-110409640D01*
X105379341Y-110466190D01*
X105373549Y-110525000D01*
X105373549Y-111100000D01*
X105379341Y-111158810D01*
X105391780Y-111199815D01*
X105386529Y-111212494D01*
X105375000Y-111270453D01*
X105375000Y-111507500D01*
X105450000Y-111582500D01*
X105995000Y-111582500D01*
X105995000Y-111562500D01*
X106005000Y-111562500D01*
X106005000Y-111582500D01*
X106025000Y-111582500D01*
X106025000Y-111592500D01*
X106005000Y-111592500D01*
X106005000Y-111612500D01*
X105995000Y-111612500D01*
X105995000Y-111592500D01*
X105450000Y-111592500D01*
X105375000Y-111667500D01*
X105375000Y-111800000D01*
X105126451Y-111800000D01*
X105126451Y-111300000D01*
X105120659Y-111241190D01*
X105108164Y-111200000D01*
X105120659Y-111158810D01*
X105126451Y-111100000D01*
X105126451Y-110525000D01*
X105120659Y-110466190D01*
X105103504Y-110409640D01*
X105075647Y-110357523D01*
X105038158Y-110311842D01*
X104992477Y-110274353D01*
X104940360Y-110246496D01*
X104883810Y-110229341D01*
X104825000Y-110223549D01*
X104439234Y-110223549D01*
X103755002Y-109539318D01*
X103755002Y-109475002D01*
X103830000Y-109550000D01*
G36*
X103755000Y-108895000D02*
X103775000Y-108895000D01*
X103775000Y-108905000D01*
X103755000Y-108905000D01*
X103755000Y-108925000D01*
X103745000Y-108925000D01*
X103745000Y-108905000D01*
X103725000Y-108905000D01*
X103725000Y-108895000D01*
X103745000Y-108895000D01*
X103745000Y-108875000D01*
X103755000Y-108875000D01*
X103755000Y-108895000D01*
X103755000Y-108895000D01*
G37*
X103755000Y-108895000D02*
X103775000Y-108895000D01*
X103775000Y-108905000D01*
X103755000Y-108905000D01*
X103755000Y-108925000D01*
X103745000Y-108925000D01*
X103745000Y-108905000D01*
X103725000Y-108905000D01*
X103725000Y-108895000D01*
X103745000Y-108895000D01*
X103745000Y-108875000D01*
X103755000Y-108875000D01*
X103755000Y-108895000D01*
G36*
X103005000Y-105495000D02*
X103025000Y-105495000D01*
X103025000Y-105505000D01*
X103005000Y-105505000D01*
X103005000Y-105525000D01*
X102995000Y-105525000D01*
X102995000Y-105505000D01*
X102975000Y-105505000D01*
X102975000Y-105495000D01*
X102995000Y-105495000D01*
X102995000Y-105475000D01*
X103005000Y-105475000D01*
X103005000Y-105495000D01*
X103005000Y-105495000D01*
G37*
X103005000Y-105495000D02*
X103025000Y-105495000D01*
X103025000Y-105505000D01*
X103005000Y-105505000D01*
X103005000Y-105525000D01*
X102995000Y-105525000D01*
X102995000Y-105505000D01*
X102975000Y-105505000D01*
X102975000Y-105495000D01*
X102995000Y-105495000D01*
X102995000Y-105475000D01*
X103005000Y-105475000D01*
X103005000Y-105495000D01*
G36*
X98654665Y-101879651D02*
X98653203Y-101881113D01*
X98642270Y-101894423D01*
X98618357Y-101922922D01*
X98617338Y-101924776D01*
X98615998Y-101926407D01*
X98598478Y-101959081D01*
X98580566Y-101991663D01*
X98579926Y-101993681D01*
X98578929Y-101995540D01*
X98568102Y-102030956D01*
X98556847Y-102066435D01*
X98556633Y-102068468D01*
X98555995Y-102070556D01*
X98548067Y-102148599D01*
X98549999Y-102169038D01*
X98550000Y-102559316D01*
X98365812Y-102743503D01*
X98342477Y-102724353D01*
X98290360Y-102696496D01*
X98233810Y-102679341D01*
X98175000Y-102673549D01*
X97600000Y-102673549D01*
X97541190Y-102679341D01*
X97500185Y-102691780D01*
X97487506Y-102686529D01*
X97429547Y-102675000D01*
X97192500Y-102675000D01*
X97117500Y-102750000D01*
X97117500Y-103295000D01*
X97137500Y-103295000D01*
X97137500Y-103305000D01*
X97117500Y-103305000D01*
X97117500Y-103325000D01*
X97107500Y-103325000D01*
X97107500Y-103305000D01*
X97087500Y-103305000D01*
X97087500Y-103295000D01*
X97107500Y-103295000D01*
X97107500Y-102750000D01*
X97032500Y-102675000D01*
X96800000Y-102675000D01*
X96800000Y-102623989D01*
X96825000Y-102626451D01*
X97400000Y-102626451D01*
X97458810Y-102620659D01*
X97500000Y-102608164D01*
X97541190Y-102620659D01*
X97600000Y-102626451D01*
X98175000Y-102626451D01*
X98233810Y-102620659D01*
X98290360Y-102603504D01*
X98342477Y-102575647D01*
X98388158Y-102538158D01*
X98425647Y-102492477D01*
X98453504Y-102440360D01*
X98470659Y-102383810D01*
X98476451Y-102325000D01*
X98476451Y-102057834D01*
X98654826Y-101879459D01*
X98654665Y-101879651D01*
X98654665Y-101879651D01*
G37*
X98654665Y-101879651D02*
X98653203Y-101881113D01*
X98642270Y-101894423D01*
X98618357Y-101922922D01*
X98617338Y-101924776D01*
X98615998Y-101926407D01*
X98598478Y-101959081D01*
X98580566Y-101991663D01*
X98579926Y-101993681D01*
X98578929Y-101995540D01*
X98568102Y-102030956D01*
X98556847Y-102066435D01*
X98556633Y-102068468D01*
X98555995Y-102070556D01*
X98548067Y-102148599D01*
X98549999Y-102169038D01*
X98550000Y-102559316D01*
X98365812Y-102743503D01*
X98342477Y-102724353D01*
X98290360Y-102696496D01*
X98233810Y-102679341D01*
X98175000Y-102673549D01*
X97600000Y-102673549D01*
X97541190Y-102679341D01*
X97500185Y-102691780D01*
X97487506Y-102686529D01*
X97429547Y-102675000D01*
X97192500Y-102675000D01*
X97117500Y-102750000D01*
X97117500Y-103295000D01*
X97137500Y-103295000D01*
X97137500Y-103305000D01*
X97117500Y-103305000D01*
X97117500Y-103325000D01*
X97107500Y-103325000D01*
X97107500Y-103305000D01*
X97087500Y-103305000D01*
X97087500Y-103295000D01*
X97107500Y-103295000D01*
X97107500Y-102750000D01*
X97032500Y-102675000D01*
X96800000Y-102675000D01*
X96800000Y-102623989D01*
X96825000Y-102626451D01*
X97400000Y-102626451D01*
X97458810Y-102620659D01*
X97500000Y-102608164D01*
X97541190Y-102620659D01*
X97600000Y-102626451D01*
X98175000Y-102626451D01*
X98233810Y-102620659D01*
X98290360Y-102603504D01*
X98342477Y-102575647D01*
X98388158Y-102538158D01*
X98425647Y-102492477D01*
X98453504Y-102440360D01*
X98470659Y-102383810D01*
X98476451Y-102325000D01*
X98476451Y-102057834D01*
X98654826Y-101879459D01*
X98654665Y-101879651D01*
G36*
X94386496Y-99384640D02*
X94369341Y-99441190D01*
X94363549Y-99500000D01*
X94363549Y-100500000D01*
X94369341Y-100558810D01*
X94381836Y-100600000D01*
X94009813Y-100600000D01*
X93992213Y-100598088D01*
X93970359Y-100600000D01*
X93968270Y-100600000D01*
X93950966Y-100601697D01*
X93914067Y-100604925D01*
X93912042Y-100605513D01*
X93909934Y-100605720D01*
X93874339Y-100616467D01*
X93859716Y-100620715D01*
X93873471Y-100587507D01*
X93885000Y-100529548D01*
X93885000Y-100080000D01*
X93810000Y-100005000D01*
X93255000Y-100005000D01*
X93255000Y-100725000D01*
X93330000Y-100800000D01*
X93614547Y-100800000D01*
X93624249Y-100798070D01*
X92153635Y-102268684D01*
X92131727Y-102215793D01*
X92066064Y-102117522D01*
X91982492Y-102033950D01*
X91884221Y-101968287D01*
X91775028Y-101923058D01*
X91659109Y-101900000D01*
X91540919Y-101900000D01*
X91425000Y-101923058D01*
X91315807Y-101968287D01*
X91217536Y-102033950D01*
X91133964Y-102117522D01*
X91100000Y-102168352D01*
X91100000Y-100375000D01*
X91479551Y-100375000D01*
X91496055Y-100376793D01*
X91516547Y-100375000D01*
X91518501Y-100375000D01*
X91534707Y-100373411D01*
X91569315Y-100370383D01*
X91571212Y-100369832D01*
X91573190Y-100369638D01*
X91606602Y-100359550D01*
X91639936Y-100349866D01*
X91641691Y-100348956D01*
X91643593Y-100348382D01*
X91674401Y-100332001D01*
X91705227Y-100316022D01*
X91706708Y-100314823D01*
X91708526Y-100313856D01*
X91765516Y-100267376D01*
X91777792Y-100252537D01*
X91950329Y-100080000D01*
X92615000Y-100080000D01*
X92615000Y-100529548D01*
X92626529Y-100587507D01*
X92649144Y-100642104D01*
X92681975Y-100691239D01*
X92723761Y-100733025D01*
X92772897Y-100765857D01*
X92827494Y-100788471D01*
X92885453Y-100800000D01*
X93170000Y-100800000D01*
X93245000Y-100725000D01*
X93245000Y-100005000D01*
X92690000Y-100005000D01*
X92615000Y-100080000D01*
X91950329Y-100080000D01*
X92632675Y-99397655D01*
X92626529Y-99412493D01*
X92615000Y-99470452D01*
X92615000Y-99920000D01*
X92690000Y-99995000D01*
X93245000Y-99995000D01*
X93245000Y-99975000D01*
X93255000Y-99975000D01*
X93255000Y-99995000D01*
X93810000Y-99995000D01*
X93885000Y-99920000D01*
X93885000Y-99470452D01*
X93873471Y-99412493D01*
X93857941Y-99375000D01*
X94391649Y-99375000D01*
X94386496Y-99384640D01*
X94386496Y-99384640D01*
G37*
X94386496Y-99384640D02*
X94369341Y-99441190D01*
X94363549Y-99500000D01*
X94363549Y-100500000D01*
X94369341Y-100558810D01*
X94381836Y-100600000D01*
X94009813Y-100600000D01*
X93992213Y-100598088D01*
X93970359Y-100600000D01*
X93968270Y-100600000D01*
X93950966Y-100601697D01*
X93914067Y-100604925D01*
X93912042Y-100605513D01*
X93909934Y-100605720D01*
X93874339Y-100616467D01*
X93859716Y-100620715D01*
X93873471Y-100587507D01*
X93885000Y-100529548D01*
X93885000Y-100080000D01*
X93810000Y-100005000D01*
X93255000Y-100005000D01*
X93255000Y-100725000D01*
X93330000Y-100800000D01*
X93614547Y-100800000D01*
X93624249Y-100798070D01*
X92153635Y-102268684D01*
X92131727Y-102215793D01*
X92066064Y-102117522D01*
X91982492Y-102033950D01*
X91884221Y-101968287D01*
X91775028Y-101923058D01*
X91659109Y-101900000D01*
X91540919Y-101900000D01*
X91425000Y-101923058D01*
X91315807Y-101968287D01*
X91217536Y-102033950D01*
X91133964Y-102117522D01*
X91100000Y-102168352D01*
X91100000Y-100375000D01*
X91479551Y-100375000D01*
X91496055Y-100376793D01*
X91516547Y-100375000D01*
X91518501Y-100375000D01*
X91534707Y-100373411D01*
X91569315Y-100370383D01*
X91571212Y-100369832D01*
X91573190Y-100369638D01*
X91606602Y-100359550D01*
X91639936Y-100349866D01*
X91641691Y-100348956D01*
X91643593Y-100348382D01*
X91674401Y-100332001D01*
X91705227Y-100316022D01*
X91706708Y-100314823D01*
X91708526Y-100313856D01*
X91765516Y-100267376D01*
X91777792Y-100252537D01*
X91950329Y-100080000D01*
X92615000Y-100080000D01*
X92615000Y-100529548D01*
X92626529Y-100587507D01*
X92649144Y-100642104D01*
X92681975Y-100691239D01*
X92723761Y-100733025D01*
X92772897Y-100765857D01*
X92827494Y-100788471D01*
X92885453Y-100800000D01*
X93170000Y-100800000D01*
X93245000Y-100725000D01*
X93245000Y-100005000D01*
X92690000Y-100005000D01*
X92615000Y-100080000D01*
X91950329Y-100080000D01*
X92632675Y-99397655D01*
X92626529Y-99412493D01*
X92615000Y-99470452D01*
X92615000Y-99920000D01*
X92690000Y-99995000D01*
X93245000Y-99995000D01*
X93245000Y-99975000D01*
X93255000Y-99975000D01*
X93255000Y-99995000D01*
X93810000Y-99995000D01*
X93885000Y-99920000D01*
X93885000Y-99470452D01*
X93873471Y-99412493D01*
X93857941Y-99375000D01*
X94391649Y-99375000D01*
X94386496Y-99384640D01*
G36*
X100755000Y-102095000D02*
X100775000Y-102095000D01*
X100775000Y-102105000D01*
X100755000Y-102105000D01*
X100755000Y-102125000D01*
X100745000Y-102125000D01*
X100745000Y-102105000D01*
X100725000Y-102105000D01*
X100725000Y-102095000D01*
X100745000Y-102095000D01*
X100745000Y-102075000D01*
X100755000Y-102075000D01*
X100755000Y-102095000D01*
X100755000Y-102095000D01*
G37*
X100755000Y-102095000D02*
X100775000Y-102095000D01*
X100775000Y-102105000D01*
X100755000Y-102105000D01*
X100755000Y-102125000D01*
X100745000Y-102125000D01*
X100745000Y-102105000D01*
X100725000Y-102105000D01*
X100725000Y-102095000D01*
X100745000Y-102095000D01*
X100745000Y-102075000D01*
X100755000Y-102075000D01*
X100755000Y-102095000D01*
G36*
X100568287Y-100715797D02*
X100523058Y-100824990D01*
X100500000Y-100940909D01*
X100500000Y-101059099D01*
X100523058Y-101175018D01*
X100568287Y-101284211D01*
X100633950Y-101382482D01*
X100717522Y-101466054D01*
X100744998Y-101484413D01*
X100744998Y-101524998D01*
X100670000Y-101450000D01*
X100596893Y-101450000D01*
X100587091Y-101431091D01*
X100585808Y-101429507D01*
X100584780Y-101427573D01*
X100535201Y-101366783D01*
X100519378Y-101353693D01*
X100398277Y-101232593D01*
X100387172Y-101218781D01*
X100370348Y-101204664D01*
X100368888Y-101203204D01*
X100355603Y-101192291D01*
X100327080Y-101168358D01*
X100325223Y-101167337D01*
X100323594Y-101165999D01*
X100290961Y-101148501D01*
X100258339Y-101130567D01*
X100256319Y-101129926D01*
X100254461Y-101128930D01*
X100219073Y-101118111D01*
X100183567Y-101106848D01*
X100181532Y-101106634D01*
X100179445Y-101105996D01*
X100101402Y-101098068D01*
X100080963Y-101100000D01*
X99621811Y-101100000D01*
X99604209Y-101098088D01*
X99582355Y-101100000D01*
X99580266Y-101100000D01*
X99562962Y-101101697D01*
X99526063Y-101104925D01*
X99524038Y-101105513D01*
X99521930Y-101105720D01*
X99486335Y-101116467D01*
X99450733Y-101126810D01*
X99448858Y-101127782D01*
X99446834Y-101128393D01*
X99414072Y-101145813D01*
X99381090Y-101162909D01*
X99379504Y-101164193D01*
X99377573Y-101165220D01*
X99331440Y-101202845D01*
X99834285Y-100700000D01*
X100578842Y-100700000D01*
X100568287Y-100715797D01*
X100568287Y-100715797D01*
G37*
X100568287Y-100715797D02*
X100523058Y-100824990D01*
X100500000Y-100940909D01*
X100500000Y-101059099D01*
X100523058Y-101175018D01*
X100568287Y-101284211D01*
X100633950Y-101382482D01*
X100717522Y-101466054D01*
X100744998Y-101484413D01*
X100744998Y-101524998D01*
X100670000Y-101450000D01*
X100596893Y-101450000D01*
X100587091Y-101431091D01*
X100585808Y-101429507D01*
X100584780Y-101427573D01*
X100535201Y-101366783D01*
X100519378Y-101353693D01*
X100398277Y-101232593D01*
X100387172Y-101218781D01*
X100370348Y-101204664D01*
X100368888Y-101203204D01*
X100355603Y-101192291D01*
X100327080Y-101168358D01*
X100325223Y-101167337D01*
X100323594Y-101165999D01*
X100290961Y-101148501D01*
X100258339Y-101130567D01*
X100256319Y-101129926D01*
X100254461Y-101128930D01*
X100219073Y-101118111D01*
X100183567Y-101106848D01*
X100181532Y-101106634D01*
X100179445Y-101105996D01*
X100101402Y-101098068D01*
X100080963Y-101100000D01*
X99621811Y-101100000D01*
X99604209Y-101098088D01*
X99582355Y-101100000D01*
X99580266Y-101100000D01*
X99562962Y-101101697D01*
X99526063Y-101104925D01*
X99524038Y-101105513D01*
X99521930Y-101105720D01*
X99486335Y-101116467D01*
X99450733Y-101126810D01*
X99448858Y-101127782D01*
X99446834Y-101128393D01*
X99414072Y-101145813D01*
X99381090Y-101162909D01*
X99379504Y-101164193D01*
X99377573Y-101165220D01*
X99331440Y-101202845D01*
X99834285Y-100700000D01*
X100578842Y-100700000D01*
X100568287Y-100715797D01*
M02*
